<svg height="451pt" viewBox="0 -29 451.724 451" width="451pt" xmlns="http://www.w3.org/2000/svg"><path d="m182.980469 138.578125-26.921875 8.945313c-51.019532 14.859374-102.035156 16.128906-153.054688-25.988282v76.898438c148.578125 122.660156 297.136719-122.660156 445.71875 0v-76.898438c-88.585937-73.132812-177.164062-15.460937-265.742187 17.042969zm0 0" fill="#f16c7a"/><path d="m450.632812 119.222656c-75.683593-62.480468-152.0625-30.953125-225.921874-.460937-14.023438 5.789062-28.527344 11.777343-42.765626 17-1.554687.570312-2.351562 2.292969-1.785156 3.851562.570313 1.554688 2.300782 2.351563 3.851563 1.78125 14.347656-5.265625 28.910156-11.273437 42.992187-17.085937 75.167969-31.027344 146.195313-60.34375 218.71875-1.351563v69.246094c-74.074218-57.199219-148.742187-26.371094-221.007812 3.460937-75.164063 31.03125-146.191406 60.34375-218.710938 1.355469v-69.25c55.390625 42.734375 109.5625 34.671875 150.894532 22.628907 1.589843-.460938 2.503906-2.125 2.042968-3.714844-.464844-1.59375-2.125-2.511719-3.71875-2.042969-41.132812 11.976563-95.386718 19.917969-150.308594-25.421875-.898437-.738281-2.136718-.894531-3.1875-.398438-1.050781.496094-1.72265575 1.550782-1.72265575 2.714844v76.898438c0 .894531.39843775 1.746094 1.08984375 2.3125 31.980469 26.40625 64.085938 36.019531 96.070312 36.019531 43.707032-.003906 87.199219-17.953125 129.84375-35.558594 75.546876-31.183593 146.902344-60.640625 219.804688-.460937.898438.738281 2.140625.898437 3.191406.402344 1.046875-.496094 1.71875-1.550782 1.71875-2.714844v-76.898438c0-.894531-.402344-1.742187-1.089844-2.3125zm0 0" fill="#3a312a"/><path d="m3.003906 198.433594v76.898437c148.578125 122.660157 297.136719-122.660156 445.71875 0v-76.898437c-148.582031-122.660156-297.140625 122.660156-445.71875 0zm0 0" fill="#fce8cb"/><path d="m450.632812 196.121094c-75.683593-62.480469-152.058593-30.953125-225.917968-.460938-75.546875 31.1875-146.902344 60.644532-219.804688.460938-.898437-.742188-2.140625-.894532-3.1875-.402344-1.050781.496094-1.722656 1.554688-1.722656 2.714844v76.898437c0 .898438.398438 1.746094 1.089844 2.316407 31.984375 26.402343 64.085937 36.015624 96.070312 36.015624 43.707032-.003906 87.199219-17.953124 129.84375-35.554687 75.546875-31.1875 146.902344-60.644531 219.804688-.460937.898437.738281 2.144531.894531 3.1875.398437 1.050781-.496094 1.722656-1.550781 1.722656-2.714844v-76.898437c.003906-.894532-.398438-1.742188-1.085938-2.3125zm-4.910156 72.980468c-74.074218-57.199218-148.742187-26.371093-221.003906 3.460938-75.171875 31.027344-146.191406 60.34375-218.714844 1.351562v-69.246093c74.074219 57.203125 148.742188 26.371093 221.003906-3.460938 75.167969-31.027343 146.191407-60.34375 218.714844-1.351562zm0 0" fill="#3a312a"/><path d="m3.003906 275.339844v79.78125c91.070313 75.183594 182.136719 12.117187 273.207032-19.722656l27.8125-8.570313c48.230468-12.5625 96.460937-11.53125 144.695312 28.289063v-79.78125c-148.578125-122.65625-297.136719 122.664062-445.714844.003906zm0 0" fill="#f16c7a"/><path d="m450.632812 273.027344c-75.679687-62.476563-152.054687-30.949219-225.917968-.460938-75.542969 31.1875-146.902344 60.644532-219.804688.460938-.898437-.742188-2.140625-.894532-3.1875-.402344-1.050781.496094-1.722656 1.554688-1.722656 2.714844v79.78125c0 .894531.398438 1.742187 1.089844 2.3125 31.984375 26.402344 64.085937 36.019531 96.074218 36.019531 43.707032-.003906 87.199219-17.953125 129.84375-35.558594 16.464844-6.792969 33.488282-13.824219 50.191407-19.660156 1.566406-.546875 2.390625-2.257813 1.84375-3.824219-.546875-1.5625-2.253907-2.382812-3.824219-1.839844-16.859375 5.894532-33.957031 12.953126-50.5 19.78125-75.171875 31.027344-146.199219 60.339844-218.714844 1.347657v-72.125c74.070313 57.199219 148.738282 26.371093 221.003906-3.460938 75.167969-31.03125 146.191407-60.339843 218.714844-1.351562v72.117187c-41.414062-32.082031-85.628906-39.757812-142.457031-24.953125-1.605469.417969-2.5625 2.054688-2.148437 3.660157.417968 1.605468 2.058593 2.5625 3.660156 2.148437 57.03125-14.855469 100.835937-6.3125 142.035156 27.699219.898438.738281 2.140625.894531 3.1875.398437 1.050781-.492187 1.722656-1.550781 1.722656-2.710937v-79.78125c0-.894532-.402344-1.742188-1.089844-2.3125zm0 0" fill="#3a312a"/><path d="m413.617188 102.304688c-.128907.769531-.285157 1.542968-.421876 2.316406v67.867187c.542969.242188 1.089844.484375 1.632813.738281.484375.222657.964844.460938 1.449219.691407.6875.328125 1.375.65625 2.066406.996093.496094.246094.992188.507813 1.488281.757813.675781.347656 1.347657.691406 2.023438 1.046875.507812.269531 1.015625.550781 1.523437.828125.664063.359375 1.328125.722656 1.992188 1.09375.515625.292969 1.03125.59375 1.550781.894531.652344.378906 1.304687.757813 1.960937 1.148438.523438.3125 1.050782.640625 1.578126.960937.644531.398438 1.289062.792969 1.933593 1.203125.535157.339844 1.070313.6875 1.605469 1.035156.632812.410157 1.265625.824219 1.898438 1.246094.546874.367188 1.09375.742188 1.640624 1.113282.621094.429687 1.246094.859374 1.867188 1.296874.554688.390626 1.109375.789063 1.664062 1.191407.613282.441406 1.226563.886719 1.839844 1.34375.5625.414062 1.125.839843 1.6875 1.265625.375.289062.753906.5625 1.132813.855468v-69.242187c-10.738281-8.726563-21.433594-15.503906-32.113281-20.648437zm0 0" fill="#d34e5c"/><path d="m413.195312 178.996094v70.398437c.605469.269531 1.210938.539063 1.820313.820313.171875.078125.34375.164062.515625.246094 1 .472656 2 .949218 3 1.449218.210938.109375.425781.21875.640625.328125.957031.484375 1.917969.976563 2.871094 1.484375.25.132813.496093.269532.746093.40625.921876.496094 1.847657 1.003906 2.769532 1.523438.273437.15625.550781.320312.824218.476562.898438.515625 1.792969 1.035156 2.691407 1.574219.296875.179687.597656.367187.898437.546875.871094.535156 1.742188 1.070312 2.613282 1.625.320312.203125.644531.414062.964843.621094.847657.546875 1.695313 1.101562 2.542969 1.667968.34375.230469.6875.46875 1.03125.703126.828125.566406 1.652344 1.132812 2.476562 1.714843.363282.257813.722657.519531 1.085938.78125.808594.582031 1.613281 1.167969 2.421875 1.769531.378906.277344.753906.566407 1.132813.851563.492187.371094.984374.734375 1.480468 1.113281v-69.246094c-10.871094-8.839843-21.707031-15.691406-32.527344-20.855468zm0 0" fill="#decaad"/><path d="m413.195312 255.929688v73.242187c10.847657 4.878906 21.695313 11.347656 32.527344 19.710937v-72.121093c-10.871094-8.84375-21.707031-15.671875-32.527344-20.832031zm0 0" fill="#d34e5c"/><path d="m126.636719 22.714844c-1.949219 23.128906-26.050781 26.78125-26.050781 26.78125 20.695312.972656 25.851562 28.117187 25.851562 28.117187.441406-19.351562 26.640625-28.402343 26.640625-28.402343-19.625-1.175782-26.441406-26.496094-26.441406-26.496094zm0 0" fill="#d7e057"/><path d="m153.257812 46.214844c-17.210937-1.027344-23.664062-24.050782-23.726562-24.28125-.382812-1.402344-1.703125-2.320313-3.167969-2.203125-1.453125.132812-2.597656 1.285156-2.71875 2.734375-1.71875 20.429687-22.625 23.925781-23.507812 24.0625-1.527344.230468-2.625 1.582031-2.546875 3.121094.082031 1.542968 1.3125 2.769531 2.855468 2.84375 18.054688.847656 22.996094 25.4375 23.042969 25.6875.277344 1.421874 1.519531 2.433593 2.945313 2.433593.085937 0 .167968-.003906.253906-.011719 1.527344-.128906 2.710938-1.386718 2.75-2.917968.386719-17.019532 24.382812-25.554688 24.625-25.636719 1.347656-.472656 2.183594-1.828125 1.988281-3.246094-.195312-1.417969-1.363281-2.5-2.792969-2.585937zm-27.132812 20.691406c-2.714844-6.261719-7.417969-13.816406-15.171875-17.753906 5.859375-2.808594 12.816406-7.824219 16.402344-16.542969 3.101562 6.140625 8.402343 13.757813 16.667969 17.441406-6.011719 3.28125-13.84375 8.8125-17.898438 16.855469zm0 0" fill="#3a312a"/><path d="m83.238281 56.679688c-1.378906 16.355468-18.425781 18.9375-18.425781 18.9375 14.636719.691406 18.285156 19.886718 18.285156 19.886718.3125-13.6875 18.84375-20.089844 18.84375-20.089844-13.882812-.828124-18.703125-18.734374-18.703125-18.734374zm0 0" fill="#d7e057"/><path d="m102.121094 72.417969c-11.53125-.6875-15.945313-16.367188-15.988282-16.527344-.378906-1.402344-1.699218-2.328125-3.164062-2.199219-1.453125.128906-2.597656 1.28125-2.722656 2.734375-1.15625 13.742188-15.289063 16.132813-15.882813 16.226563-1.523437.230468-2.625 1.582031-2.546875 3.125.082032 1.539062 1.316406 2.765625 2.859375 2.839844 12.066407.570312 15.445313 17.289062 15.476563 17.449218.269531 1.425782 1.519531 2.441406 2.945312 2.441406.082032 0 .164063-.003906.25-.011718 1.527344-.125 2.714844-1.386719 2.75-2.921875.261719-11.417969 16.664063-17.265625 16.828125-17.324219 1.351563-.464844 2.1875-1.824219 1.988281-3.242188-.195312-1.417968-1.363281-2.503906-2.792968-2.589843zm-19.167969 13.59375c-1.847656-3.773438-4.679687-7.894531-8.894531-10.558594 3.710937-2.082031 7.394531-5.261719 9.738281-9.835937 2.113281 3.75 5.308594 7.910156 9.882813 10.449218-3.699219 2.203125-7.976563 5.480469-10.726563 9.945313zm0 0" fill="#3a312a"/><path d="m83.238281 3.363281c-1.378906 16.359375-18.425781 18.941407-18.425781 18.941407 14.636719.6875 18.285156 19.886718 18.285156 19.886718.3125-13.6875 18.84375-20.089844 18.84375-20.089844-13.882812-.832031-18.703125-18.738281-18.703125-18.738281zm0 0" fill="#d7e057"/><path d="m102.121094 19.105469c-11.53125-.691407-15.945313-16.371094-15.988282-16.53125-.378906-1.402344-1.699218-2.328125-3.164062-2.199219-1.449219.128906-2.597656 1.28125-2.71875 2.734375-1.15625 13.742187-15.292969 16.132813-15.882812 16.226563-1.527344.230468-2.628907 1.582031-2.546876 3.125.078126 1.539062 1.3125 2.765624 2.855469 2.839843 12.070313.570313 15.445313 17.289063 15.476563 17.453125.269531 1.425782 1.519531 2.441406 2.945312 2.441406.082032 0 .164063-.003906.25-.011718 1.527344-.125 2.714844-1.386719 2.75-2.921875.261719-11.417969 16.664063-17.269531 16.828125-17.324219 1.351563-.46875 2.1875-1.824219 1.988281-3.242188-.195312-1.417968-1.363281-2.503906-2.792968-2.589843zm-19.167969 13.589843c-1.847656-3.769531-4.679687-7.894531-8.894531-10.558593 3.710937-2.082031 7.394531-5.261719 9.742187-9.832031 2.113281 3.746093 5.308594 7.90625 9.882813 10.445312-3.703125 2.203125-7.980469 5.480469-10.730469 9.945312zm0 0" fill="#3a312a"/></svg>