<svg height="452pt" viewBox="-1 0 452 452.09229" width="452pt" xmlns="http://www.w3.org/2000/svg"><path d="m225.925781 336.019531c-5.042969 0-10.042969-.097656-15-.320312v20.042969c-.023437 0-.023437 0-.042969 0v57.078124c4.839844-.558593 9.863282-.859374 15.019532-.859374 5.183594 0 10.222656.300781 15.0625.859374v-77.121093c-4.980469.222656-9.980469.320312-15.039063.320312zm0 0" fill="#f16c7a"/><path d="m243.039062 333.53125c-.59375-.566406-1.386718-.875-2.207031-.828125-4.816406.214844-9.695312.316406-14.90625.316406-5.132812 0-10.132812-.105469-14.871093-.316406-.816407-.039063-1.613282.261719-2.207032.828125-.589844.566406-.925781 1.351562-.925781 2.167969v19.554687c-.027344.160156-.039063.320313-.039063.488282v4.070312c0 1.65625 1.34375 3 3 3s3-1.34375 3-3v-3.589844c.027344-.15625.039063-.316406.039063-.480468v-16.921876c3.875.132813 7.898437.199219 12 .199219 4.179687 0 8.144531-.066406 12.039063-.199219v70.675782c-7.949219-.714844-16.101563-.714844-24.078126 0v-18.550782c0-1.65625-1.34375-3-3-3s-3 1.34375-3 3v21.875c0 .855469.367188 1.671876 1.003907 2.238282.640625.570312 1.484375.84375 2.339843.742187 9.683594-1.117187 19.761719-1.113281 29.390626 0 .117187.011719.230468.019531.34375.019531.734374 0 1.445312-.269531 1.996093-.761718.640625-.566406 1.003907-1.382813 1.003907-2.238282v-77.121093c.003906-.816407-.332032-1.601563-.921876-2.167969zm0 0" fill="#3a312a"/><path d="m225.914062 411.957031c-38.863281 0-70.371093 16.625-70.371093 37.136719h140.765625c0-20.511719-31.511719-37.136719-70.394532-37.136719zm0 0" fill="#d7e057"/><path d="m225.914062 408.957031c-41.140624 0-73.371093 17.628907-73.371093 40.136719 0 1.65625 1.34375 3 3 3h140.765625c1.65625 0 3-1.34375 3-3 0-22.507812-32.238282-40.136719-73.394532-40.136719zm-67.101562 37.136719c3.113281-17.164062 32.574219-31.136719 67.101562-31.136719 34.539063 0 64.011719 13.972657 67.125 31.136719zm0 0" fill="#3a312a"/><path d="m225.902344 414.953125c-3.277344 0-6.5.121094-9.65625.359375 30.21875 2.320312 54.636718 15.238281 57.457031 30.78125h19.339844c-3.117188-17.160156-32.597657-31.140625-67.140625-31.140625zm0 0" fill="#b9c239"/><path d="m64.867188 22.582031c-1.945313 23.128907-26.050782 26.78125-26.050782 26.78125 20.695313.972657 25.851563 28.117188 25.851563 28.117188.441406-19.355469 26.640625-28.402344 26.640625-28.402344-19.625-1.179687-26.441406-26.496094-26.441406-26.496094zm0 0" fill="#d7e057"/><path d="m91.492188 46.082031c-17.210938-1.03125-23.664063-24.046875-23.726563-24.28125-.382813-1.40625-1.703125-2.304687-3.167969-2.203125-1.453125.128906-2.597656 1.28125-2.71875 2.734375-1.71875 20.429688-22.625 23.925781-23.507812 24.058594-1.527344.234375-2.625 1.582031-2.546875 3.125.078125 1.539063 1.3125 2.769531 2.855469 2.839844 18.054687.851562 23 25.4375 23.042968 25.6875.277344 1.421875 1.523438 2.433593 2.949219 2.433593.082031 0 .167969-.003906.25-.007812 1.53125-.128906 2.714844-1.386719 2.75-2.921875.386719-17.015625 24.378906-25.550781 24.625-25.636719 1.351563-.46875 2.183594-1.828125 1.988281-3.242187-.199218-1.417969-1.367187-2.5-2.792968-2.585938zm-27.132813 20.691407c-2.714844-6.261719-7.417969-13.816407-15.175781-17.753907 5.863281-2.808593 12.816406-7.828125 16.402344-16.546875 3.101562 6.144532 8.398437 13.761719 16.667968 17.449219-6.011718 3.277344-13.839844 8.808594-17.894531 16.851563zm0 0" fill="#3a312a"/><path d="m21.46875 56.542969c-1.375 16.359375-18.421875 18.941406-18.421875 18.941406 14.636719.691406 18.285156 19.890625 18.285156 19.890625.308594-13.691406 18.84375-20.089844 18.84375-20.089844-13.882812-.832031-18.707031-18.742187-18.707031-18.742187zm0 0" fill="#d7e057"/><path d="m40.351562 72.289062c-11.535156-.691406-15.941406-16.371093-15.984374-16.53125-.382813-1.402343-1.722657-2.3125-3.164063-2.203124-1.453125.132812-2.601563 1.289062-2.722656 2.738281-1.160157 13.738281-15.292969 16.128906-15.882813 16.222656-1.527344.234375-2.628906 1.582031-2.5468748 3.121094.0781248 1.542969 1.3124998 2.769531 2.8554688 2.839843 12.070312.570313 15.449219 17.292969 15.476562 17.457032.273438 1.425781 1.519532 2.4375 2.949219 2.4375.082031 0 .164063-.003906.25-.007813 1.527344-.128906 2.714844-1.386719 2.75-2.921875.261719-11.417968 16.664063-17.265625 16.824219-17.324218 1.351562-.46875 2.1875-1.824219 1.992188-3.242188-.199219-1.417969-1.367188-2.503906-2.796876-2.585938zm-19.167968 13.589844c-1.847656-3.773437-4.679688-7.894531-8.894532-10.5625 3.710938-2.082031 7.394532-5.257812 9.742188-9.832031 2.113281 3.75 5.308594 7.910156 9.882812 10.449219-3.703124 2.199218-7.976562 5.480468-10.730468 9.945312zm0 0" fill="#3a312a"/><path d="m21.46875 3.226562c-1.375 16.363282-18.421875 18.945313-18.421875 18.945313 14.636719.6875 18.285156 19.886719 18.285156 19.886719.308594-13.691406 18.84375-20.09375 18.84375-20.09375-13.882812-.828125-18.707031-18.738282-18.707031-18.738282zm0 0" fill="#d7e057"/><path d="m40.351562 18.972656c-11.535156-.691406-15.941406-16.371094-15.984374-16.53125-.382813-1.402344-1.722657-2.308594-3.164063-2.203125-1.453125.128907-2.601563 1.285157-2.722656 2.734375-1.160157 13.742188-15.292969 16.132813-15.882813 16.226563-1.527344.234375-2.628906 1.582031-2.5468748 3.125.0781248 1.539062 1.3124998 2.769531 2.8554688 2.839843 12.070312.566407 15.449219 17.289063 15.476562 17.453126.273438 1.425781 1.519532 2.4375 2.949219 2.4375.082031 0 .164063-.003907.25-.007813 1.527344-.125 2.714844-1.386719 2.75-2.921875.261719-11.417969 16.664063-17.265625 16.820313-17.324219 1.355468-.464843 2.191406-1.824219 1.996094-3.242187-.199219-1.417969-1.367188-2.5-2.796876-2.585938zm-19.167968 13.589844c-1.847656-3.769531-4.679688-7.894531-8.894532-10.558594 3.710938-2.082031 7.394532-5.257812 9.742188-9.832031 2.113281 3.746094 5.304688 7.910156 9.882812 10.449219-3.699218 2.199218-7.980468 5.476562-10.730468 9.941406zm0 0" fill="#3a312a"/><path d="m207.269531 105.089844c-13.378906-21.648438-41.773437-28.355469-63.421875-14.976563-21.652344 13.378907-28.355468 41.773438-14.976562 63.421875 13.378906 21.648438 41.773437 28.355469 63.421875 14.976563 21.648437-13.378907 28.351562-41.773438 14.976562-63.421875zm0 0" fill="#f16c7a"/><path d="m168.0625 80.21875c-27.058594 0-49.078125 22.015625-49.078125 49.078125s22.019531 49.078125 49.078125 49.078125c27.0625 0 49.078125-22.015625 49.078125-49.078125s-22.015625-49.078125-49.078125-49.078125zm0 92.15625c-23.753906 0-43.078125-19.324219-43.078125-43.078125s19.324219-43.078125 43.078125-43.078125 43.078125 19.324219 43.078125 43.078125-19.324219 43.078125-43.078125 43.078125zm0 0" fill="#3a312a"/><path d="m339.902344 118.6875c-5.847656-24.765625-30.664063-40.101562-55.429688-34.253906-24.769531 5.847656-40.105468 30.664062-34.257812 55.429687 5.851562 24.765625 30.667968 40.101563 55.433594 34.253907 24.765624-5.847657 40.101562-30.664063 34.253906-55.429688zm0 0" fill="#8ac6dd"/><path d="m295.066406 80.21875c-27.058594 0-49.074218 22.015625-49.074218 49.078125s22.015624 49.078125 49.074218 49.078125c27.0625 0 49.078125-22.015625 49.078125-49.078125s-22.015625-49.078125-49.078125-49.078125zm0 92.15625c-23.753906 0-43.074218-19.324219-43.074218-43.078125s19.320312-43.078125 43.074218-43.078125 43.078125 19.324219 43.078125 43.078125-19.324219 43.078125-43.078125 43.078125zm0 0" fill="#3a312a"/><path d="m231.566406 81.28125c-31.234375 0-56.554687 25.324219-56.554687 56.558594s25.320312 56.554687 56.554687 56.554687 56.554688-25.320312 56.554688-56.554687c0-31.238282-25.320313-56.558594-56.554688-56.558594zm0 0" fill="#d7e057"/><path d="m231.566406 78.28125c-32.839844 0-59.554687 26.71875-59.554687 59.554688 0 32.839843 26.714843 59.554687 59.554687 59.554687s59.554688-26.714844 59.554688-59.554687c0-32.835938-26.714844-59.554688-59.554688-59.554688zm0 113.113281c-29.53125 0-53.554687-24.027343-53.554687-53.554687 0-29.53125 24.027343-53.554688 53.554687-53.554688 29.53125 0 53.554688 24.023438 53.554688 53.554688 0 29.527344-24.023438 53.554687-53.554688 53.554687zm0 0" fill="#3a312a"/><path d="m384.304688 103.003906c-22.132813-7.699218-46.328126 4.007813-54.027344 26.148438-7.265625 20.890625-34.472656 44.390625-89.050782 47.742187-44.058593 2.269531-94.761718-11.941406-108.78125-48.867187-8.320312-21.910156-32.820312-32.929688-54.746093-24.613282-21.914063 8.320313-32.933594 32.832032-24.613281 54.746094 29.289062 77.140625 112.167968 103.839844 179.625 103.839844 4.453124 0 8.855468-.121094 13.15625-.34375.109374-.007812.226562-.015625.335937-.019531 23.574219-1.429688 58.734375-6.835938 92.394531-24.484375 35.199219-18.453125 60.046875-46.15625 71.859375-80.117188 7.695313-22.144531-4.007812-46.332031-26.152343-54.03125zm0 0" fill="#fce8cb"/><path d="m385.289062 100.171875c-11.457031-3.988281-23.789062-3.273437-34.71875 2.019531-10.925781 5.285156-19.140624 14.511719-23.125 25.980469-6.945312 19.964844-33.289062 42.464844-86.371093 45.722656-42.949219 2.226563-92.347657-11.441406-105.820313-46.933593-8.894531-23.417969-35.1875-35.234376-58.617187-26.351563-11.347657 4.308594-20.339844 12.777344-25.316407 23.847656-4.976562 11.070313-5.347656 23.417969-1.039062 34.765625 29.613281 77.988282 113.652344 105.777344 182.429688 105.777344 4.414062 0 8.894531-.121094 13.3125-.351562l.363281-.019532c23.867187-1.449218 59.476562-6.929687 93.601562-24.820312 35.890625-18.8125 61.234375-47.097656 73.300781-81.789063 8.230469-23.667969-4.332031-49.621093-28-57.847656zm22.332032 55.875c-11.554688 33.226563-35.90625 60.351563-70.417969 78.449219-33.183594 17.394531-67.898437 22.730468-91.152344 24.140625l-.339843.023437c-4.316407.222656-8.6875.339844-13 .339844-66.777344 0-148.292969-26.773438-176.820313-101.902344-3.738281-9.851562-3.421875-20.570312.902344-30.179687 4.320312-9.609375 12.121093-16.957031 21.972656-20.699219 4.589844-1.742188 9.304687-2.566406 13.953125-2.566406 15.917969 0 30.949219 9.703125 36.921875 25.441406 14.546875 38.3125 66.613281 53.136719 111.773437 50.792969 56.046876-3.441407 84.121094-27.953125 91.699219-49.75 3.457031-9.949219 10.589844-17.957031 20.074219-22.546875s20.183594-5.210938 30.132812-1.75c9.953126 3.457031 17.960938 10.585937 22.550782 20.070312 4.589844 9.480469 5.210937 20.183594 1.75 30.136719zm0 0" fill="#3a312a"/><path d="m231.566406 23.027344c-15.882812 0-28.761718 12.875-28.761718 28.757812 0 15.886719 12.875 28.761719 28.761718 28.761719 15.882813 0 28.761719-12.875 28.761719-28.761719 0-15.882812-12.878906-28.757812-28.761719-28.757812zm0 0" fill="#f16c7a"/><path d="m231.566406 20.023438c-17.511718 0-31.761718 14.25-31.761718 31.761718 0 17.515625 14.25 31.761719 31.761718 31.761719 17.515625 0 31.761719-14.246094 31.761719-31.761719 0-17.511718-14.246094-31.761718-31.761719-31.761718zm0 57.523437c-14.203125 0-25.761718-11.554687-25.761718-25.761719 0-14.203125 11.558593-25.761718 25.761718-25.761718 14.207032 0 25.761719 11.558593 25.761719 25.761718 0 14.207032-11.558594 25.761719-25.761719 25.761719zm0 0" fill="#3a312a"/><path d="m240.617188.4375c-1.414063-.859375-3.257813-.4140625-4.125 1-6.664063 10.9375-9.5 23.824219-7.972657 36.289062.1875 1.519532 1.480469 2.632813 2.972657 2.632813.121093 0 .242187-.007813.371093-.019531 1.644531-.203125 2.8125-1.703125 2.613281-3.34375-1.363281-11.128906 1.171876-22.644532 7.140626-32.4375.859374-1.414063.414062-3.257813-1-4.121094zm0 0" fill="#3a312a"/><path d="m435.035156 196.5h-418.21875c-7.925781 0-13.835937 7.164062-12.503906 14.976562 11.941406 70.007813 106.597656 124.535157 221.613281 124.535157 115.011719 0 209.671875-54.527344 221.609375-124.535157 1.332032-7.8125-4.574218-14.976562-12.5-14.976562zm0 0" fill="#87796f"/><path d="m446.988281 199.050781c-2.976562-3.53125-7.335937-5.550781-11.957031-5.550781h-295.546875c-1.652344 0-3 1.34375-3 3 0 1.652344 1.347656 3 3 3h295.546875c2.847656 0 5.535156 1.246094 7.371094 3.421875 1.878906 2.222656 2.671875 5.160156 2.179687 8.050781-5.648437 33.121094-30.75 63.808594-70.675781 86.414063-40.574219 22.972656-93.128906 35.625-147.980469 35.625-54.847656 0-107.402343-12.652344-147.980469-35.625-39.925781-22.605469-65.023437-53.292969-70.671874-86.414063-.496094-2.890625.296874-5.828125 2.175781-8.050781 1.835937-2.175781 4.519531-3.421875 7.367187-3.421875h92.546875c1.65625 0 3-1.347656 3-3 0-1.65625-1.34375-3-3-3h-92.546875c-4.617187 0-8.976562 2.023438-11.953125 5.550781-3.019531 3.574219-4.296875 8.292969-3.503906 12.929688 12.351563 72.417969 108.894531 127.03125 224.566406 127.03125 115.675781 0 212.214844-54.613281 224.570313-127.03125.789062-4.640625-.488282-9.351563-3.507813-12.929688zm0 0" fill="#3a312a"/><path d="m383.328125 105.839844c-8.523437-2.960938-17.601563-2.941406-25.980469.019531 20.519532 7.140625 31.417969 29.640625 24.277344 50.179687-4.71875 13.582032-11.617188 26.121094-20.417969 37.460938h26c8.800781-11.339844 15.699219-23.878906 20.417969-37.460938 7.140625-20.535156-3.761719-43.058593-24.296875-50.199218zm0 0" fill="#decaad"/><path d="m442.402344 202.921875c-1.839844-2.179687-4.519532-3.417969-7.378906-3.417969h-26c2.859374 0 5.539062 1.238282 7.378906 3.417969 1.882812 2.21875 2.660156 5.160156 2.183594 8.058594-5.660157 33.121093-30.761719 63.800781-70.683594 86.398437-37.359375 21.160156-84.878906 33.5625-134.976563 35.402344 4.320313.160156 8.660157.238281 13 .238281 54.839844 0 107.398438-12.660156 147.976563-35.640625 39.921875-22.597656 65.023437-53.277344 70.683594-86.398437.480468-2.898438-.300782-5.839844-2.183594-8.058594zm0 0" fill="#695b51"/></svg>