<svg height="450pt" viewBox="0 0 450 450.64495" width="450pt" xmlns="http://www.w3.org/2000/svg"><path d="m66.34375 23.894531c-1.949219 23.125-26.050781 26.777344-26.050781 26.777344 20.695312.972656 25.851562 28.117187 25.851562 28.117187.441407-19.355468 26.640625-28.402343 26.640625-28.402343-19.625-1.175781-26.441406-26.492188-26.441406-26.492188zm0 0" fill="#d7e057"/><path d="m92.96875 47.390625c-17.210938-1.03125-23.667969-24.046875-23.730469-24.28125-.382812-1.40625-1.703125-2.328125-3.164062-2.203125-1.453125.132812-2.597657 1.285156-2.71875 2.734375-1.722657 20.429687-22.628907 23.925781-23.511719 24.0625-1.527344.230469-2.625 1.582031-2.546875 3.125.082031 1.539063 1.3125 2.765625 2.855469 2.839844 18.058594.851562 23 25.4375 23.042968 25.683593.277344 1.421876 1.519532 2.433594 2.945313 2.433594.085937 0 .167969 0 .253906-.007812 1.527344-.128906 2.710938-1.386719 2.75-2.917969.386719-17.019531 24.382813-25.554687 24.625-25.636719 1.347657-.472656 2.183594-1.828125 1.988281-3.246094-.195312-1.417968-1.363281-2.5-2.789062-2.585937zm-27.136719 20.691406c-2.714843-6.261719-7.417969-13.816406-15.171875-17.753906 5.859375-2.808594 12.816406-7.824219 16.402344-16.542969 3.101562 6.140625 8.402344 13.761719 16.667969 17.445313-6.011719 3.277343-13.84375 8.808593-17.898438 16.851562zm0 0" fill="#3a312a"/><path d="m22.945312 57.851562c-1.378906 16.359376-18.425781 18.945313-18.425781 18.945313 14.636719.6875 18.285157 19.886719 18.285157 19.886719.3125-13.6875 18.84375-20.089844 18.84375-20.089844-13.882813-.832031-18.703126-18.742188-18.703126-18.742188zm0 0" fill="#d7e057"/><path d="m41.828125 73.597656c-11.53125-.691406-15.945313-16.371094-15.988281-16.527344-.378906-1.40625-1.703125-2.339843-3.164063-2.203124-1.453125.128906-2.597656 1.285156-2.722656 2.734374-1.15625 13.742188-15.289063 16.136719-15.882813 16.230469-1.523437.230469-2.625 1.578125-2.546874 3.121094.082031 1.539063 1.316406 2.769531 2.859374 2.84375 12.066407.566406 15.445313 17.285156 15.476563 17.449219.269531 1.425781 1.519531 2.4375 2.945313 2.4375.082031 0 .164062-.003906.25-.007813 1.527343-.125 2.714843-1.390625 2.75-2.921875.261718-11.417968 16.664062-17.269531 16.828124-17.324218 1.351563-.46875 2.1875-1.828126 1.988282-3.246094-.195313-1.417969-1.363282-2.5-2.792969-2.585938zm-19.167969 13.589844c-1.847656-3.773438-4.679687-7.894531-8.894531-10.558594 3.710937-2.082031 7.394531-5.261718 9.738281-9.835937 2.113282 3.746093 5.308594 7.910156 9.882813 10.449219-3.699219 2.199218-7.976563 5.480468-10.726563 9.945312zm0 0" fill="#3a312a"/><path d="m22.945312 4.535156c-1.378906 16.359375-18.425781 18.945313-18.425781 18.945313 14.636719.6875 18.285157 19.886719 18.285157 19.886719.3125-13.6875 18.84375-20.089844 18.84375-20.089844-13.882813-.832032-18.703126-18.742188-18.703126-18.742188zm0 0" fill="#d7e057"/><path d="m41.828125 20.28125c-11.53125-.691406-15.945313-16.371094-15.988281-16.53125-.378906-1.402344-1.699219-2.339844-3.164063-2.199219-1.449219.128907-2.597656 1.28125-2.71875 2.734375-1.15625 13.742188-15.292969 16.132813-15.882812 16.226563-1.527344.230469-2.628907 1.582031-2.546875 3.125.078125 1.539062 1.3125 2.765625 2.855468 2.839843 12.070313.570313 15.445313 17.289063 15.476563 17.453126.269531 1.425781 1.519531 2.4375 2.945313 2.4375.082031 0 .164062 0 .25-.007813 1.527343-.125 2.714843-1.386719 2.75-2.921875.261718-11.417969 16.664062-17.269531 16.828124-17.324219 1.351563-.46875 2.1875-1.828125 1.988282-3.246093-.195313-1.417969-1.363282-2.5-2.792969-2.585938zm-19.167969 13.589844c-1.847656-3.769532-4.679687-7.894532-8.894531-10.558594 3.710937-2.082031 7.394531-5.257812 9.742187-9.832031 2.113282 3.746093 5.308594 7.90625 9.882813 10.445312-3.703125 2.203125-7.980469 5.480469-10.730469 9.945313zm0 0" fill="#3a312a"/><path d="m443.152344 136.976562c-5.878906-27.5-17.300782-53.378906-34.378906-75.980468-3.78125-5-7.820313-9.839844-12.160157-14.5-1.558593-1.699219-3.179687-3.378906-4.820312-5.019532-1.359375-1.359374-2.761719-2.699218-4.160157-4.019531-20.359374-19.140625-44.558593-29.941406-69.339843-33.300781-31.441407-4.257812-63.839844 3.460938-90.5 21.300781-8.839844 5.921875-17.058594 12.941407-24.421875 21.039063-8.335938 9.167968-15.515625 19.710937-21.234375 31.496094l-12.886719 27.613281c-6.160156 11.023437-13.773438 21.589843-22.855469 31.375-1.441406 1.578125-2.921875 3.136719-4.460937 4.660156-1.519532 1.519531-3.0625 3-4.640625 4.457031-1.078125.980469-2.179688 1.960938-3.28125 2.921875l-27.457031 19.539063c-6.222657 3.519531-12.5625 6.601562-19 9.179687-15.582032 6.199219-29.222657 14.902344-40.742188 25.359375-8.078125 7.339844-15.097656 15.542969-21.019531 24.382813-17.839844 26.660156-25.558594 59.039062-21.320313 90.5 3.359375 24.796875 14.160156 49 33.300782 69.359375 1.320312 1.398437 2.660156 2.777344 4.019531 4.140625 1.640625 1.636719 3.320312 3.257812 5.019531 4.820312 4.660156 4.339844 9.5 8.378907 14.5 12.15625 22.601562 17.0625 48.480469 28.5 75.980469 34.382813 29 6.257812 59.820312 6.339844 90.5.398437 30.199219-5.800781 60.238281-17.4375 88.28125-34.78125.738281-.4375 1.480469-.898437 2.21875-1.398437 17.441406-10.980469 34.078125-24.179688 49.480469-39.578125 15.398437-15.402344 28.621093-32.0625 39.597656-49.5.5-.742188.960937-1.5 1.402344-2.242188 17.339843-28.039062 28.980468-58.078125 34.78125-88.257812 5.9375-30.664063 5.859374-61.484375-.402344-90.503907zm0 0" fill="#87796f"/><g fill="#3a312a"><path d="m446.085938 136.351562c-6.121094-28.644531-17.871094-54.605468-34.917969-77.164062-3.910157-5.167969-8.066407-10.125-12.34375-14.714844-1.496094-1.632812-3.148438-3.351562-4.910157-5.113281-1.378906-1.378906-2.800781-2.742187-4.226562-4.085937-19.886719-18.699219-44.4375-30.484376-70.992188-34.085938-32.191406-4.363281-65.0625 3.375-92.570312 21.78125-9.1875 6.152344-17.589844 13.394531-24.96875 21.515625-8.65625 9.515625-15.960938 20.351563-21.71875 32.199219-.722656 1.492187-.101562 3.289062 1.390625 4.007812 1.484375.722656 3.285156.105469 4.007813-1.386718 5.503906-11.332032 12.488281-21.691407 20.757812-30.785157 7.050781-7.761719 15.082031-14.679687 23.867188-20.566406 26.289062-17.589844 57.691406-24.980469 88.429687-20.816406 25.304687 3.429687 48.710937 14.671875 67.683594 32.507812 1.378906 1.300781 2.757812 2.621094 4.097656 3.957031 1.699219 1.703126 3.292969 3.363282 4.746094 4.945313 4.152343 4.460937 8.175781 9.257813 11.960937 14.265625 16.515625 21.851562 27.898438 47.015625 33.839844 74.800781 6.183594 28.664063 6.3125 58.710938.386719 89.300781-5.855469 30.46875-17.425781 59.824219-34.414063 87.292969-.410156.691407-.839844 1.402344-1.359375 2.175781-11.046875 17.546876-24.230469 34.027344-39.183593 48.976563-14.941407 14.945313-31.414063 28.121094-49.039063 39.21875-.691406.464844-1.378906.894531-2.117187 1.332031-27.433594 16.964844-56.796876 28.535156-87.273438 34.386719-30.609375 5.929687-60.648438 5.796875-89.300781-.386719-27.75-5.933594-52.914063-17.320312-74.800781-33.839844-5.003907-3.785156-9.800782-7.808593-14.277344-11.980468-1.585938-1.449219-3.242188-3.039063-4.929688-4.730469-1.335937-1.339844-2.65625-2.699219-3.953125-4.074219-17.839843-18.976562-29.085937-42.386718-32.511719-67.703125-4.144531-30.75 3.253907-62.15625 20.839844-88.429687 5.863282-8.753906 12.777344-16.773438 20.542969-23.832032 11.632813-10.5625 25.035156-18.902343 39.839844-24.796874 6.441406-2.582032 12.953125-5.726563 19.363281-9.351563.089844-.054687.179688-.109375.261719-.167969l27.460937-19.539062c.082032-.058594.160156-.121094.234375-.183594 1.113281-.972656 2.230469-1.964844 3.339844-2.976562 1.609375-1.484376 3.175781-2.992188 4.710937-4.527344 1.457032-1.4375 2.953126-3 4.550782-4.757813 9.03125-9.722656 16.859375-20.46875 23.277344-31.949219.808593-1.445312.292968-3.273437-1.15625-4.082031-1.449219-.8125-3.277344-.292969-4.082032 1.15625-6.183594 11.058594-13.730468 21.417969-22.453125 30.8125-1.546875 1.699219-2.972656 3.1875-4.363281 4.558594-1.492188 1.492187-3.003906 2.949219-4.539062 4.363281-1.027344.933594-2.078126 1.867188-3.121094 2.785156l-27.214844 19.359376c-6.128906 3.464843-12.355469 6.46875-18.496094 8.929687-15.464844 6.15625-29.476562 14.878906-41.644531 25.925781-8.128906 7.382813-15.363281 15.773438-21.496094 24.933594-18.398437 27.492188-26.140625 60.367188-21.800781 92.570312 3.597656 26.5625 15.386719 51.117188 34.089844 71.015626 1.339844 1.417968 2.699218 2.820312 4.082031 4.199218 1.746094 1.75 3.46875 3.402344 5.09375 4.894532 4.613281 4.292968 9.570313 8.453124 14.738281 12.359374 22.589844 17.054688 48.550782 28.804688 77.15625 34.921876 15.046875 3.246093 30.460938 4.871093 46.132813 4.871093 14.988281 0 30.210937-1.484375 45.5625-4.457031 31.195312-5.992188 61.238281-17.828125 89.246093-35.148438.792969-.46875 1.582032-.957031 2.289063-1.4375 17.921875-11.285156 34.746094-24.742187 50.003906-40 15.269531-15.265624 28.730469-32.097656 39.960938-49.941406.535156-.789062 1.027343-1.59375 1.46875-2.339844 17.34375-28.050781 29.179687-58.085937 35.171875-89.265624 6.085937-31.394532 5.945312-62.246094-.410156-91.703126zm0 0"/><path d="m408.773438 58c-1.660157 0-3 1.339844-3 3v254.738281c0 1.660157 1.339843 3 3 3 1.65625 0 3-1.339843 3-3v-254.738281c0-1.660156-1.34375-3-3-3zm0 0"/><path d="m318.292969 1.15625c-1.65625 0-3 1.34375-3 3v402.902344c0 1.65625 1.34375 3 3 3s3-1.34375 3-3v-402.902344c0-1.65625-1.34375-3-3-3zm0 0"/><path d="m230.792969 287.867188c.003906-1.660157-1.332031-3.003907-2.988281-3.011719h-.011719c-1.652344 0-2.996094 1.335937-3 2.992187-.160157 51.324219-.160157 103.605469 0 155.398438.003906 1.652344 1.347656 2.992187 3 2.992187h.007812c1.660157-.003906 2.996094-1.351562 2.992188-3.007812-.160157-51.78125-.160157-104.050781 0-155.363281zm0 0"/><path d="m230.792969 25.464844c.003906-1.65625-1.339844-3-2.992188-3.007813h-.007812c-1.652344 0-2.996094 1.339844-3 2.996094-.160157 75.945313-.160157 149.773437 0 225.703125.003906 1.65625 1.347656 2.992188 3 2.992188h.007812c1.65625-.003907 2.996094-1.347657 2.992188-3.003907-.160157-75.921875-.160157-149.742187 0-225.679687zm0 0"/><path d="m137.292969 143.097656c-1.65625 0-3 1.34375-3 3v296.742188c0 1.65625 1.34375 3 3 3s3-1.34375 3-3v-296.742188c0-1.65625-1.34375-3-3-3zm0 0"/><path d="m46.8125 200.097656c-1.65625 0-3 1.34375-3 3v193.203125c0 1.65625 1.34375 3 3 3 1.660156 0 3-1.34375 3-3v-193.203125c0-1.65625-1.339844-3-3-3zm0 0"/><path d="m316.074219 405.457031h-254.761719c-1.65625 0-3 1.34375-3 3 0 1.660157 1.34375 3 3 3h254.761719c1.65625 0 3-1.339843 3-3 0-1.65625-1.34375-3-3-3zm0 0"/><path d="m407.371094 314.980469h-402.898438c-1.65625 0-3 1.339843-3 3 0 1.65625 1.34375 3 3 3h402.898438c1.660156 0 3-1.34375 3-3 0-1.660157-1.339844-3-3-3zm0 0"/><path d="m443.554688 224.476562h-417.761719c-1.65625 0-3 1.34375-3 3 0 1.660157 1.34375 3 3 3h417.761719c1.65625 0 3-1.339843 3-3 0-1.65625-1.34375-3-3-3zm0 0"/><path d="m443.152344 133.976562h-.019532c-49.28125.335938-101.722656.335938-151.664062 0h-.019531c-1.648438 0-2.988281 1.332032-3 2.980469-.011719 1.65625 1.324219 3.011719 2.980469 3.019531 24.984374.167969 50.59375.25 76.121093.25 25.527344 0 50.972657-.082031 75.625-.25 1.65625-.011718 2.988281-1.363281 2.980469-3.019531-.015625-1.648437-1.355469-2.980469-3.003906-2.980469zm0 0"/><path d="m258.578125 133.976562h-.023437c-39.109376.335938-74.738282.335938-112.132813 0h-.027344c-1.644531 0-2.984375 1.328126-3 2.972657-.011719 1.65625 1.316407 3.011719 2.972657 3.027343 18.714843.167969 36.988281.253907 55.476562.253907s37.1875-.085938 56.757812-.253907c1.660157-.011718 2.988282-1.371093 2.976563-3.027343-.015625-1.644531-1.355469-2.972657-3-2.972657zm0 0"/><path d="m396.613281 43.5h-193.242187c-1.65625 0-3 1.339844-3 3 0 1.65625 1.34375 3 3 3h193.242187c1.65625 0 3-1.34375 3-3 0-1.660156-1.34375-3-3-3zm0 0"/></g><path d="m301.074219 5.992188c-3.019531 0-6.019531.101562-9.019531.320312 7.898437 1.859375 15.679687 4.5 23.238281 7.960938v-7.441407c-4.738281-.558593-9.480469-.839843-14.21875-.839843zm0 0" fill="#695b51"/><path d="m273.09375 411.453125c-13.722656 8.101563-27.902344 14.839844-42.300781 20.21875v7.902344c25.761719-5.339844 50.679687-14.78125 74.300781-28.121094zm0 0" fill="#695b51"/><path d="m282.792969 405.453125h32.421875c.019531-.019531.058594-.039063.078125-.039063v-24.421874c-10.421875 9.082031-21.28125 17.242187-32.5 24.460937zm0 0" fill="#695b51"/><path d="m404.933594 230.472656c-5.902344 28.898438-17.179688 57.601563-33.699219 84.5h34.5c0-.019531.019531-.039062.039063-.078125v-84.421875zm0 0" fill="#695b51"/><path d="m440.699219 139.976562h-28.925781v84.5h29.277343c5.300781-28.910156 5.183594-57.308593-.351562-84.5zm0 0" fill="#695b51"/><path d="m385.574219 39.632812c-18.121094-17.019531-40.28125-28.019531-64.28125-31.980468v9.5625c10 5.21875 19.519531 11.9375 28.339843 20.238281 1.398438 1.320313 2.800782 2.660156 4.160157 4.019531.660156.660156 1.339843 1.339844 1.980469 2.019532h33.800781c-1.320313-1.300782-2.660157-2.578126-4-3.859376zm0 0" fill="#695b51"/><path d="m189.792969 443.234375c-2.621094.5-5.21875.980469-7.839844 1.378906 14.101563.058594 28.398437-1.242187 42.839844-3.878906v-6.902344c-11.578125 4.019531-23.28125 7.140625-35 9.402344zm0 0" fill="#695b51"/><path d="m367.453125 320.972656c-10.582031 16.359375-23.160156 31.980469-37.679687 46.5-2.78125 2.78125-5.621094 5.5-8.480469 8.140625v25.917969c15.859375-10.4375 30.761719-22.558594 44.359375-36.179688 13.640625-13.636718 25.78125-28.539062 36.199218-44.378906zm0 0" fill="#695b51"/><path d="m411.773438 230.480469v74.273437c13.339843-23.625 22.765624-48.539062 28.105468-74.273437zm0 0" fill="#695b51"/><path d="m395.292969 49.492188h-33.960938c3.320313 3.722656 6.460938 7.5625 9.441407 11.5 16.460937 21.78125 27.660156 46.601562 33.699218 72.980468h1.300782v-71.941406c-3.339844-4.378906-6.859376-8.578125-10.480469-12.539062zm0 0" fill="#695b51"/><path d="m411.773438 70.347656v63.632813h27.621093c-5.410156-23.234375-14.675781-44.582031-27.621093-63.632813zm0 0" fill="#695b51"/></svg>