<svg height="451pt" viewBox="-29 0 451 451.764" width="451pt" xmlns="http://www.w3.org/2000/svg"><path d="m338.683594 170.023438h-39.222656v36.9375h39.222656c8.660156 0 15.699218 7.0625 15.699218 15.722656v146.160156c0 8.679688-7.039062 15.71875-15.699218 15.71875h-39.222656v30.320312c0 2.277344-.21875 4.480469-.640626 6.640626h39.863282c29.039062 0 52.660156-23.640626 52.660156-52.679688v-146.160156c0-29.042969-23.621094-52.660156-52.660156-52.660156zm0 0" fill="#d7e057"/><path d="m338.683594 167.019531h-39.222656c-1.65625 0-3 1.34375-3 3v36.941407c0 1.65625 1.34375 3 3 3h39.222656c7 0 12.699218 5.707031 12.699218 12.71875v146.164062c0 7.011719-5.699218 12.714844-12.699218 12.714844h-39.222656c-1.65625 0-3 1.34375-3 3v30.320312c0 2.0625-.191407 4.046875-.582032 6.066406-.171875.878907.058594 1.789063.628906 2.480469.566407.691407 1.417969 1.09375 2.3125 1.09375h39.863282c30.691406 0 55.660156-24.976562 55.660156-55.679687v-146.160156c0-30.691407-24.96875-55.660157-55.660156-55.660157zm49.660156 201.824219c0 27.390625-22.28125 49.675781-49.660156 49.675781h-36.398438c.117188-1.210937.175782-2.425781.175782-3.636719v-27.320312h36.222656c10.308594 0 18.699218-8.398438 18.699218-18.71875v-146.160156c0-10.324219-8.390624-18.71875-18.699218-18.71875h-36.222656v-30.941406h36.222656c27.378906 0 49.660156 22.277343 49.660156 49.660156zm0 0" fill="#3a312a"/><path d="m39.425781 142.773438v272.117187c0 18.710937 15.164063 33.875 33.871094 33.875h192.300781c18.707032 0 33.871094-15.167969 33.871094-33.875v-272.117187zm0 0" fill="#d7e057"/><path d="m299.46875 139.773438h-260.042969c-1.660156 0-3 1.34375-3 3v110.539062c0 1.65625 1.339844 3 3 3 1.65625 0 3-1.34375 3-3v-107.539062h254.042969v269.117187c0 17.023437-13.851562 30.875-30.871094 30.875h-192.300781c-17.023437 0-30.871094-13.851563-30.871094-30.875v-130.4375c0-1.65625-1.34375-3-3-3-1.660156 0-3 1.34375-3 3v130.4375c0 20.332031 16.539063 36.875 36.871094 36.875h192.300781c20.328125 0 36.871094-16.542969 36.871094-36.875v-272.117187c0-1.65625-1.34375-3-3-3zm0 0" fill="#3a312a"/><path d="m302.550781 43.277344c-5.769531 0-11.316406.953125-16.503906 2.683594-14.707031-21.890626-39.695313-36.296876-68.046875-36.296876-25.035156 0-47.429688 11.242188-62.457031 28.9375-6.925781-20.6875-26.445313-35.597656-49.464844-35.597656-28.808594 0-52.164063 23.351563-52.164063 52.160156v.042969c-28.050781.859375-50.53125 23.855469-50.53125 52.121094 0 28.808594 23.351563 52.160156 52.160157 52.160156 6.683593 0 13.058593-1.285156 18.929687-3.578125v140.433594c0 12.953125 10.5 23.453125 23.453125 23.453125s23.453125-10.5 23.453125-23.453125v-126.046875c6.765625 1.304687 13.851563 1.554687 21.058594.546875 2.050781-.289062 4.054688-.703125 6.035156-1.171875v162.640625c0 12.957031 10.5 23.457031 23.453125 23.457031s23.453125-10.503906 23.453125-23.457031v-161.96875c7.183594 2.0625 14.769532 3.179688 22.617188 3.179688 1.144531 0 2.273437-.054688 3.402344-.097657v68.195313c0 12.953125 10.5 23.453125 23.457031 23.453125 12.953125 0 23.453125-10.503907 23.453125-23.453125v-85.398438c4.90625-3.824218 9.375-8.183594 13.296875-13.007812 6.410156 2.816406 13.492187 4.390625 20.945312 4.390625 28.808594 0 52.160157-23.355469 52.160157-52.164063s-23.347657-52.164062-52.160157-52.164062zm0 0" fill="#fce8cb"/><path d="m302.550781 40.277344c-5.183593 0-10.316406.726562-15.289062 2.164062-15.949219-22.445312-41.671875-35.777344-69.261719-35.777344-23.300781 0-45.414062 9.527344-61.421875 26.300782-8.730469-19.90625-28.4375-32.964844-50.5-32.964844-29.464844 0-53.609375 23.21875-55.089844 52.363281-28.597656 2.3125-50.605469 25.929688-50.605469 54.964844 0 30.414063 24.746094 55.160156 55.164063 55.160156 5.414063 0 10.753906-.792969 15.925781-2.363281v136.214844c0 14.585937 11.871094 26.453125 26.457032 26.453125 14.585937 0 26.453124-11.867188 26.453124-26.453125v-122.507813c6.132813.847657 12.332032.84375 18.472657-.019531.84375-.117188 1.714843-.261719 2.617187-.433594v158.933594c0 14.585938 11.871094 26.457031 26.457032 26.457031 14.585937 0 26.453124-11.871093 26.453124-26.457031v-96.863281c0-1.65625-1.34375-3-3-3-1.660156 0-3 1.34375-3 3v96.863281c0 11.28125-9.175781 20.457031-20.453124 20.457031-11.28125 0-20.457032-9.175781-20.457032-20.457031v-162.640625c0-.917969-.417968-1.789063-1.140625-2.359375-.71875-.566406-1.660156-.773438-2.554687-.558594-2.128906.507813-4.011719.875-5.753906 1.121094-6.679688.933594-13.433594.761719-20.074219-.523438-.882813-.175781-1.789063.058594-2.476563.628907-.691406.570312-1.089844 1.421875-1.089844 2.316406v126.046875c0 11.277344-9.175781 20.453125-20.453124 20.453125-11.28125 0-20.457032-9.175781-20.457032-20.453125v-140.433594c0-.988281-.488281-1.917968-1.308594-2.472656-.816406-.558594-1.859374-.675781-2.78125-.320312-5.730468 2.238281-11.730468 3.375-17.839843 3.375-27.105469 0-49.164063-22.054688-49.164063-49.164063 0-26.722656 20.921875-48.300781 47.628906-49.121094 1.617188-.050781 2.90625-1.417969 2.90625-3.039062 0-27.109375 22.054688-49.164063 49.160157-49.164063 21.167969 0 39.902343 13.484375 46.621093 33.554688.34375 1.027344 1.210938 1.789062 2.273438 1.992187 1.070312.214844 2.15625-.175781 2.855469-1.003906 15.046875-17.71875 36.976562-27.878906 60.171875-27.878906 26.335937 0 50.84375 13.070312 65.554687 34.964843.753907 1.121094 2.164063 1.59375 3.441407 1.171876 5.03125-1.675782 10.265624-2.527344 15.558593-2.527344 27.105469 0 49.164063 22.054687 49.164063 49.164062s-22.054688 49.164063-49.164063 49.164063c-6.847656 0-13.492187-1.394531-19.742187-4.136719-1.234375-.546875-2.679688-.195312-3.53125.855469-3.742188 4.605469-8.054688 8.820312-12.816406 12.539062-.730469.566407-1.15625 1.441407-1.15625 2.363281v85.394532c0 11.277344-9.175782 20.453125-20.453126 20.453125-11.277343 0-20.453124-9.175781-20.453124-20.453125v-68.195313c0-.816406-.335938-1.597656-.921876-2.160156-.585937-.566406-1.371093-.878906-2.195312-.835937l-.355469.011718c-8.289062.34375-16.695312-.679687-24.71875-2.980468-.90625-.261719-1.882812-.082032-2.632812.484374-.75.566407-1.195313 1.453126-1.195313 2.398438v33.96875c0 1.65625 1.34375 3 3 3 1.660156 0 3-1.34375 3-3v-30.085938c6.550782 1.554688 13.238282 2.363282 20.019532 2.292969v65.101563c0 14.585937 11.871093 26.453125 26.457031 26.453125 14.585937 0 26.453125-11.867188 26.453125-26.453125v-83.945313c4.070312-3.292969 7.820312-6.929687 11.183594-10.847656 6.398437 2.507813 13.132812 3.777344 20.058593 3.777344 30.414063 0 55.164063-24.746094 55.164063-55.164063 0-30.417968-24.746094-55.164062-55.164063-55.164062zm0 0" fill="#3a312a"/><path d="m282.503906 146.820312c-3.363281 3.921876-7.121094 7.5625-11.203125 10.863282v83.9375c0 5.660156-1.777343 10.921875-4.839843 15.222656v158.039062c0 17.039063-13.839844 30.878907-30.859376 30.878907h30c17.019532 0 30.859376-13.839844 30.859376-30.878907v-264.621093c-4.777344-.519531-9.457032-1.660157-13.957032-3.441407zm0 0" fill="#b9c239"/><path d="m302.542969 46.28125c-5.101563 0-10.140625.78125-15 2.339844 19.800781 6.339844 34.179687 24.941406 34.179687 46.820312 0 21.902344-14.402344 40.5-34.21875 46.820313 4.859375 1.558593 9.878906 2.339843 15.039063 2.339843 27.117187 0 49.179687-22.058593 49.179687-49.160156 0-27.097656-22.0625-49.160156-49.179687-49.160156zm0 0" fill="#decaad"/></svg>