<svg height="452pt" viewBox="0 0 452 452.66" width="452pt" xmlns="http://www.w3.org/2000/svg"><path d="m65.152344 23.195312c-1.949219 23.125-26.046875 26.777344-26.046875 26.777344 20.691406.972656 25.847656 28.117188 25.847656 28.117188.441406-19.355469 26.640625-28.402344 26.640625-28.402344-19.625-1.175781-26.441406-26.492188-26.441406-26.492188zm0 0" fill="#d7e057"/><path d="m91.777344 46.691406c-17.214844-1.03125-23.667969-24.050781-23.730469-24.28125-.382813-1.40625-1.71875-2.324218-3.167969-2.203125-1.449218.132813-2.59375 1.28125-2.714844 2.734375-1.722656 20.429688-22.628906 23.925782-23.511718 24.066406-1.523438.226563-2.625 1.578126-2.542969 3.117188.078125 1.539062 1.3125 2.769531 2.855469 2.84375 18.054687.847656 22.996094 25.433594 23.042968 25.683594.273438 1.421875 1.519532 2.433594 2.945313 2.433594.082031 0 .167969 0 .25-.011719 1.527344-.125 2.714844-1.382813 2.75-2.917969.390625-17.015625 24.386719-25.550781 24.628906-25.636719 1.347657-.46875 2.183594-1.828125 1.984375-3.246093-.195312-1.414063-1.363281-2.496094-2.789062-2.582032zm-27.136719 20.691406c-2.710937-6.261718-7.417969-13.816406-15.171875-17.753906 5.863281-2.8125 12.816406-7.828125 16.402344-16.542968 3.101562 6.140624 8.402344 13.757812 16.667968 17.441406-6.011718 3.28125-13.84375 8.8125-17.898437 16.855468zm0 0" fill="#3a312a"/><path d="m21.753906 57.152344c-1.378906 16.359375-18.421875 18.945312-18.421875 18.945312 14.632813.6875 18.28125 19.886719 18.28125 19.886719.3125-13.6875 18.84375-20.089844 18.84375-20.089844-13.878906-.832031-18.703125-18.742187-18.703125-18.742187zm0 0" fill="#d7e057"/><path d="m40.636719 72.898438c-11.53125-.691407-15.945313-16.371094-15.988281-16.53125-.378907-1.402344-1.707032-2.335938-3.164063-2.203126-1.449219.128907-2.597656 1.285157-2.71875 2.734376-1.15625 13.742187-15.292969 16.136718-15.882813 16.230468-1.527343.230469-2.625 1.578125-2.546874 3.121094.082031 1.539062 1.3125 2.769531 2.855468 2.84375 12.070313.566406 15.445313 17.285156 15.476563 17.449219.269531 1.425781 1.519531 2.441406 2.945312 2.441406.082031 0 .164063-.003906.25-.011719 1.527344-.125 2.714844-1.386718 2.75-2.921875.261719-11.417969 16.664063-17.265625 16.828125-17.324219 1.351563-.464843 2.1875-1.824218 1.992188-3.242187-.199219-1.417969-1.367188-2.5-2.796875-2.585937zm-19.167969 13.589843c-1.847656-3.769531-4.679688-7.894531-8.894531-10.558593 3.710937-2.082032 7.394531-5.261719 9.742187-9.832032 2.113282 3.746094 5.308594 7.90625 9.882813 10.445313-3.699219 2.203125-7.980469 5.480469-10.730469 9.945312zm0 0" fill="#3a312a"/><path d="m21.753906 3.839844c-1.378906 16.359375-18.421875 18.941406-18.421875 18.941406 14.632813.6875 18.28125 19.886719 18.28125 19.886719.3125-13.691407 18.84375-20.089844 18.84375-20.089844-13.878906-.832031-18.703125-18.738281-18.703125-18.738281zm0 0" fill="#d7e057"/><path d="m40.636719 19.585938c-11.476563-.691407-15.902344-16.226563-15.988281-16.53125-.378907-1.402344-1.699219-2.335938-3.164063-2.203126-1.453125.128907-2.597656 1.28125-2.71875 2.734376-1.160156 13.742187-15.296875 16.132812-15.886719 16.226562-1.523437.230469-2.625 1.582031-2.542968 3.121094.078124 1.539062 1.3125 2.769531 2.855468 2.84375 12.070313.566406 15.445313 17.285156 15.476563 17.449218.269531 1.425782 1.519531 2.441407 2.945312 2.441407.082031 0 .164063-.003907.25-.011719 1.527344-.125 2.714844-1.386719 2.75-2.921875.261719-11.417969 16.664063-17.265625 16.828125-17.324219 1.351563-.464844 2.1875-1.824218 1.992188-3.242187-.199219-1.414063-1.367188-2.496094-2.796875-2.582031zm-19.167969 13.589843c-1.847656-3.773437-4.679688-7.894531-8.894531-10.5625 3.710937-2.082031 7.394531-5.257812 9.742187-9.832031 2.113282 3.746094 5.308594 7.910156 9.882813 10.445312-3.699219 2.203126-7.980469 5.484376-10.730469 9.949219zm0 0" fill="#3a312a"/><path d="m421.300781 252.878906c-1.199219-20.597656-18.296875-36.9375-39.199219-36.9375h-311c-20.898437 0-38 16.339844-39.199218 36.9375-.058594.78125-.078125 1.5625-.078125 2.339844v67.402344h389.558593v-67.402344c0-.777344-.019531-1.558594-.082031-2.339844zm0 0" fill="#87796f"/><path d="m424.296875 252.707031c-1.296875-22.300781-19.832031-39.765625-42.195313-39.765625h-311c-22.359374 0-40.894531 17.464844-42.191406 39.710938-.066406.855468-.085937 1.710937-.085937 2.570312v67.398438c0 1.660156 1.339843 3 3 3h389.558593c1.65625 0 3-1.339844 3-3v-67.398438c0-.859375-.023437-1.714844-.085937-2.515625zm-5.914063 66.914063h-383.558593v-64.402344c0-.703125.015625-1.40625.070312-2.164062 1.117188-19.128907 17.019531-34.117188 36.207031-34.117188h311c19.1875 0 35.09375 14.988281 36.210938 34.171875.054688.703125.070312 1.40625.070312 2.109375zm0 0" fill="#3a312a"/><path d="m363.402344 146.101562c-1.359375-20.460937-18.378906-36.621093-39.179688-36.621093h-195.242187c-20.796875 0-37.816407 16.160156-39.179688 36.621093-.078125.878907-.097656 1.757813-.097656 2.660157v67.378906h273.800781v-67.378906c0-.902344-.023437-1.78125-.101562-2.660157zm0 0" fill="#87796f"/><path d="m366.394531 145.902344c-1.464843-22.105469-19.992187-39.421875-42.171875-39.421875h-195.238281c-22.179687 0-40.703125 17.316406-42.167969 39.347656-.085937.972656-.109375 1.941406-.109375 2.933594v67.378906c0 1.65625 1.339844 3 3 3h273.800781c1.65625 0 3-1.34375 3-3v-67.378906c-.003906-.992188-.03125-1.964844-.113281-2.859375zm-5.890625 67.238281h-267.800781v-64.378906c0-.808594.015625-1.601563.089844-2.460938 1.261719-18.964843 17.15625-33.820312 36.1875-33.820312h195.238281c19.035156 0 34.925781 14.855469 36.195312 33.890625.070313.789062.085938 1.582031.085938 2.390625v64.378906zm0 0" fill="#3a312a"/><path d="m305.003906 39.339844c-1.5-20.320313-18.460937-36.339844-39.160156-36.339844h-78.480469c-20.699219 0-37.660156 16.019531-39.160156 36.339844-.082031.960937-.121094 1.941406-.121094 2.941406v67.378906h157.039063v-67.378906c0-1-.039063-1.980469-.117188-2.941406zm0 0" fill="#87796f"/><path d="m307.996094 39.121094c-1.621094-21.9375-20.136719-39.121094-42.152344-39.121094h-78.480469c-22.019531 0-40.53125 17.183594-42.152343 39.089844-.085938 1.042968-.128907 2.105468-.128907 3.191406v67.378906c0 1.65625 1.34375 3 3 3h157.039063c1.660156 0 3-1.34375 3-3v-67.378906c0-1.085938-.042969-2.148438-.125-3.160156zm-5.875 67.539062h-151.039063v-64.378906c0-.917969.035157-1.8125.113281-2.722656 1.386719-18.820313 17.273438-33.558594 36.167969-33.558594h78.480469c18.890625 0 34.777344 14.742188 36.167969 33.589844.074219.875.109375 1.773437.109375 2.691406zm0 0" fill="#3a312a"/><path d="m3.722656 322.617188c0 38.871093 31.511719 70.382812 70.382813 70.382812h304.996093c38.871094 0 70.382813-31.511719 70.382813-70.382812zm0 0" fill="#fce8cb"/><path d="m449.484375 319.617188h-445.761719c-1.660156 0-3 1.339843-3 3 0 40.460937 32.917969 73.382812 73.382813 73.382812h9.0625c1.65625 0 3-1.34375 3-3s-1.34375-3-3-3h-9.0625c-36.148438 0-65.742188-28.613281-67.316407-64.382812h439.628907c-1.574219 35.769531-31.167969 64.382812-67.320313 64.382812h-266.0625c-1.65625 0-3 1.34375-3 3s1.34375 3 3 3h266.066406c40.460938 0 73.382813-32.921875 73.382813-73.382812 0-1.660157-1.34375-3-3-3zm0 0" fill="#3a312a"/><path d="m297.527344 426.199219h-141.851563c-12.957031 0-23.460937 10.503906-23.460937 23.460937h188.777344c0-12.957031-10.507813-23.460937-23.464844-23.460937zm0 0" fill="#fce8cb"/><path d="m297.527344 423.199219h-141.851563c-14.589843 0-26.460937 11.871093-26.460937 26.460937 0 1.65625 1.34375 3 3 3h188.777344c1.65625 0 3-1.34375 3-3-.003907-14.589844-11.875-26.460937-26.464844-26.460937zm-162.089844 23.460937c1.453125-9.867187 9.976562-17.460937 20.242188-17.460937h141.851562c10.261719 0 18.785156 7.597656 20.242188 17.460937zm0 0" fill="#3a312a"/><path d="m186.242188 393h80.71875v33.199219h-80.71875zm0 0" fill="#fce8cb"/><path d="m266.960938 390h-80.71875c-1.65625 0-3 1.34375-3 3v33.199219c0 1.660156 1.34375 3 3 3h80.71875c1.660156 0 3-1.339844 3-3v-33.199219c0-1.65625-1.339844-3-3-3zm-3 33.199219h-74.71875v-27.199219h74.71875zm0 0" fill="#3a312a"/><path d="m417.523438 325.621094c-1.582032 35.757812-31.160157 64.378906-67.320313 64.378906h28.898437c36.140626 0 65.742188-28.621094 67.320313-64.378906zm0 0" fill="#decaad"/><path d="m421.300781 252.878906h-389.398437c-.058594.78125-.078125 1.5625-.078125 2.339844v35.0625h389.558593v-35.0625c0-.777344-.019531-1.558594-.082031-2.339844zm0 0" fill="#f16c7a"/><path d="m424.292969 252.648438c-.121094-1.5625-1.421875-2.769532-2.992188-2.769532h-389.398437c-1.566406 0-2.871094 1.210938-2.992188 2.773438-.066406.855468-.085937 1.710937-.085937 2.570312v35.058594c0 1.660156 1.339843 3 3 3h389.558593c1.65625 0 3-1.339844 3-3v-35.058594c0-.859375-.023437-1.714844-.089843-2.574218zm-5.910157 34.632812h-383.558593v-31.402344h383.558593zm0 0" fill="#3a312a"/><path d="m363.402344 146.101562h-273.601563c-.078125.878907-.097656 1.757813-.097656 2.660157v34.738281h273.800781v-34.738281c0-.902344-.023437-1.78125-.101562-2.660157zm0 0" fill="#f16c7a"/><path d="m366.390625 145.828125c-.140625-1.542969-1.4375-2.726563-2.988281-2.726563h-108.890625c-1.65625 0-3 1.339844-3 3 0 1.65625 1.34375 3 3 3h105.992187v31.398438h-267.800781v-31.398438h133.597656c1.65625 0 3-1.34375 3-3 0-1.660156-1.34375-3-3-3h-136.5c-1.550781 0-2.847656 1.183594-2.988281 2.726563-.085938.96875-.109375 1.941406-.109375 2.933594v34.738281c0 1.65625 1.339844 3 3 3h273.800781c1.65625 0 3-1.34375 3-3v-34.738281c0-.992188-.027344-1.964844-.113281-2.933594zm0 0" fill="#3a312a"/><path d="m305.003906 39.339844h-156.800781c-.082031.960937-.121094 1.941406-.121094 2.941406v34.457031h157.039063v-34.457031c0-1-.039063-1.980469-.117188-2.941406zm0 0" fill="#f16c7a"/><path d="m307.992188 39.089844c-.128907-1.554688-1.429688-2.75-2.988282-2.75h-156.800781c-1.5625 0-2.859375 1.195312-2.992187 2.75-.085938 1.042968-.128907 2.105468-.128907 3.191406v34.457031c0 1.660157 1.34375 3 3 3h157.039063c1.660156 0 3-1.339843 3-3v-34.457031c0-1.085938-.042969-2.148438-.128906-3.191406zm-5.871094 34.648437h-151.039063v-31.398437h151.039063zm0 0" fill="#3a312a"/><g fill="#695b51"><path d="m387.28125 293.28125h31.101562v26.339844h-31.101562zm0 0"/><path d="m382.101562 218.941406h-17.539062c-.339844.117188-.679688.199219-1.058594.199219h-8.78125c16.417969 1.679687 29.71875 14.359375 32.140625 30.738281h31.097657c-2.597657-17.597656-17.757813-30.9375-35.859376-30.9375zm0 0"/><path d="m324.222656 112.480469h-18.101562c-.320313.097656-.660156.179687-1 .179687h-8.5c16.359375 1.578125 29.742187 14.140625 32.320312 30.441406h31.101563c-2.761719-17.441406-17.902344-30.621093-35.820313-30.621093zm0 0"/><path d="m329.402344 186.5h31.101562v26.640625h-31.101562zm0 0"/><path d="m265.84375 6h-31.101562c17.800781 0 32.898437 13.078125 35.78125 30.339844h31.097656c-2.878906-17.261719-17.980469-30.339844-35.777344-30.339844zm0 0"/><path d="m271.023438 79.738281h31.097656v26.921875h-31.097656zm0 0"/></g><path d="m387.28125 255.878906h31.101562v31.402344h-31.101562zm0 0" fill="#d34e5c"/><path d="m329.402344 149.101562h31.101562v31.398438h-31.101562zm0 0" fill="#d34e5c"/><path d="m271.023438 42.339844h31.097656v31.398437h-31.097656zm0 0" fill="#d34e5c"/></svg>