<svg height="451pt" viewBox="0 0 451.764 451" width="451pt" xmlns="http://www.w3.org/2000/svg"><path d="m448.507812 155.464844c-14.65625-85.855469-108.734374-152.082032-222.628906-152.082032-113.890625 0-207.972656 66.226563-222.625 152.082032-1.859375 10.886718 6.707032 20.796875 17.839844 20.796875h409.574219c11.128906 0 19.695312-9.910157 17.839843-20.796875zm0 0" fill="#fce8cb"/><path d="m451.464844 154.960938c-15.042969-88.125-112.023438-154.578126-225.585938-154.578126s-210.539062 66.453126-225.582031 154.578126c-1.023437 5.992187.652344 12.113281 4.601563 16.792968 4.027343 4.769532 9.925781 7.507813 16.191406 7.507813h409.574218c6.265626 0 12.167969-2.738281 16.195313-7.507813 3.949219-4.679687 5.628906-10.800781 4.605469-16.792968zm-9.191406 12.921874c-2.882813 3.417969-7.117188 5.378907-11.609376 5.378907h-409.570312c-4.492188 0-8.722656-1.960938-11.609375-5.378907-2.804687-3.324218-4-7.667968-3.273437-11.914062 14.558593-85.277344 108.992187-149.585938 219.667968-149.585938 110.675782 0 205.113282 64.308594 219.671875 149.585938.722657 4.246094-.46875 8.589844-3.277343 11.914062zm0 0" fill="#3a312a"/><path d="m423.335938 375.886719h-394.910157c-14.042969 0-25.425781 11.382812-25.425781 25.421875 0 26.417968 21.414062 47.832031 47.832031 47.832031h350.097657c26.417968 0 47.832031-21.414063 47.832031-47.832031 0-14.039063-11.382813-25.421875-25.425781-25.421875zm0 0" fill="#fce8cb"/><path d="m423.335938 372.882812h-394.910157c-15.675781 0-28.425781 12.753907-28.425781 28.425782 0 28.03125 22.804688 50.832031 50.835938 50.832031h40.058593c1.660157 0 3-1.339844 3-3 0-1.65625-1.339843-3-3-3h-40.0625c-24.71875 0-44.835937-20.109375-44.835937-44.832031 0-12.367188 10.0625-22.425782 22.425781-22.425782h394.910156c12.367188 0 22.425781 10.0625 22.425781 22.425782 0 24.71875-20.113281 44.832031-44.832031 44.832031h-280.058593c-1.660157 0-3 1.34375-3 3 0 1.660156 1.339843 3 3 3h280.0625c28.027343 0 50.832031-22.800781 50.832031-50.832031 0-15.671875-12.753907-28.425782-28.425781-28.425782zm0 0" fill="#3a312a"/><path d="m386.90625 299.105469h-322.054688c-21.203124 0-38.390624 17.1875-38.390624 38.386719 0 21.203124 17.1875 38.390624 38.390624 38.390624h322.054688c21.203125 0 38.390625-17.1875 38.390625-38.390624.003906-21.199219-17.183594-38.386719-38.390625-38.386719zm0 0" fill="#f16c7a"/><path d="m386.910156 296.105469h-322.058594c-22.824218 0-41.390624 18.566406-41.390624 41.386719 0 22.824218 18.566406 41.390624 41.390624 41.390624h322.058594c22.820313 0 41.390625-18.566406 41.390625-41.390624 0-22.820313-18.570312-41.386719-41.390625-41.386719zm0 76.777343h-322.058594c-19.511718 0-35.390624-15.875-35.390624-35.390624 0-19.511719 15.875-35.386719 35.390624-35.386719h322.058594c19.515625 0 35.390625 15.875 35.390625 35.386719 0 19.519531-15.878906 35.390624-35.390625 35.390624zm0 0" fill="#3a312a"/><path d="m392.996094 234.496094h-334.230469c-17.839844 0-32.304687 14.460937-32.304687 32.304687 0 17.839844 14.460937 32.304688 32.304687 32.304688h334.230469c17.839844 0 32.304687-14.464844 32.304687-32.304688 0-17.839843-14.464843-32.304687-32.304687-32.304687zm0 0" fill="#87796f"/><path d="m392.996094 231.496094h-334.230469c-19.46875 0-35.304687 15.839844-35.304687 35.304687 0 19.464844 15.835937 35.304688 35.304687 35.304688h334.230469c19.464844 0 35.304687-15.839844 35.304687-35.304688 0-19.464843-15.839843-35.304687-35.304687-35.304687zm0 64.609375h-334.230469c-16.160156 0-29.304687-13.148438-29.304687-29.304688 0-16.160156 13.144531-29.304687 29.304687-29.304687h334.230469c16.15625 0 29.304687 13.148437 29.304687 29.304687s-13.148437 29.304688-29.304687 29.304688zm0 0" fill="#3a312a"/><path d="m49.921875 197.351562 226.167969 112.953126 26.46875 13.21875 16.582031 8.28125c10.472656 5.230468 23.207031 1.675781 29.449219-8.226563l79.632812-126.226563zm0 0" fill="#fce8cb"/><path d="m430.847656 195.902344c-.527344-.957032-1.535156-1.550782-2.625-1.550782h-378.300781c-1.390625 0-2.601563.957032-2.917969 2.3125-.320312 1.355469.332032 2.75 1.578125 3.371094l226.171875 112.953125c1.476563.738281 3.28125.140625 4.023438-1.34375.738281-1.480469.136718-3.28125-1.34375-4.023437l-214.789063-107.269532h360.136719l-76.726562 121.625c-5.449219 8.636719-16.441407 11.707032-25.574219 7.144532l-16.582031-8.28125c-1.472657-.738282-3.28125-.140625-4.023438 1.34375-.738281 1.480468-.136719 3.28125 1.34375 4.023437l16.582031 8.28125c3.714844 1.855469 7.664063 2.742188 11.554688 2.742188 8.582031 0 16.886719-4.308594 21.773437-12.050781l79.628906-126.226563c.585938-.925781.617188-2.09375.089844-3.050781zm0 0" fill="#3a312a"/><path d="m397.09375 176.261719h-342.429688c-28.53125 0-51.664062 23.132812-51.664062 51.667969h.09375c.957031 16.722656 14.78125 30 31.746094 30s30.789062-13.277344 31.75-30h.183594c.957031 16.722656 14.785156 30 31.75 30 16.960937 0 30.785156-13.277344 31.746093-30h.1875c.957031 16.722656 14.78125 30 31.746094 30s30.789063-13.277344 31.75-30h.183594c.960937 16.722656 14.785156 30 31.75 30 16.964843 0 30.789062-13.277344 31.746093-30h.183594c.960938 16.722656 14.785156 30 31.75 30s30.789063-13.277344 31.746094-30h.1875c.957031 16.722656 14.785156 30 31.746094 30 16.964844 0 30.789062-13.277344 31.746094-30h.1875c.957031 16.722656 14.785156 30 31.75 30 16.960937 0 30.789062-13.277344 31.746093-30h.09375c-.007812-28.535157-23.140625-51.667969-51.675781-51.667969zm0 0" fill="#d7e057"/><path d="m397.09375 173.261719h-342.429688c-30.140624 0-54.664062 24.523437-54.664062 54.667969 0 .3125.0507812.617187.148438.902343 1.410156 18.058594 16.511718 32.097657 34.695312 32.097657 14.140625 0 26.414062-8.492188 31.839844-20.765626 5.421875 12.273438 17.695312 20.765626 31.839844 20.765626 14.140624 0 26.417968-8.492188 31.839843-20.765626 5.421875 12.273438 17.695313 20.765626 31.839844 20.765626 14.140625 0 26.417969-8.492188 31.839844-20.765626 5.421875 12.273438 17.695312 20.765626 31.839843 20.765626 14.140626 0 26.417969-8.492188 31.839844-20.765626 5.421875 12.273438 17.699219 20.765626 31.839844 20.765626s26.417969-8.492188 31.839844-20.765626c5.421875 12.273438 17.699218 20.765626 31.839844 20.765626 14.140624 0 26.417968-8.496094 31.84375-20.765626 5.421874 12.269532 17.699218 20.765626 31.839843 20.765626 18.167969 0 33.257813-14.019532 34.6875-32.058594.097657-.296875.152344-.613282.152344-.941406-.003906-30.144532-24.527344-54.667969-54.671875-54.667969zm48.578125 54.496093c-.871094 15.234376-13.5 27.171876-28.75 27.171876s-27.878906-11.9375-28.757813-27.171876c-.089843-1.589843-1.589843-2.828124-3.179687-2.828124s-2.902344 1.242187-2.992187 2.828124c-.875 15.234376-13.503907 27.171876-28.753907 27.171876s-27.878906-11.9375-28.753906-27.171876c-.089844-1.589843-1.589844-2.828124-3.179687-2.828124-1.589844 0-2.902344 1.242187-2.992188 2.828124-.875 15.234376-13.503906 27.171876-28.753906 27.171876s-27.878906-11.9375-28.753906-27.171876c-.089844-1.585937-1.589844-2.828124-3.179688-2.828124s-2.90625 1.242187-2.996094 2.828124c-.871094 15.234376-13.5 27.171876-28.75 27.171876s-27.882812-11.9375-28.753906-27.171876c-.089844-1.589843-1.589844-2.828124-3.179688-2.828124-1.589843 0-2.902343 1.242187-2.996093 2.828124-.875 15.234376-13.503907 27.171876-28.75 27.171876-15.25 0-27.878907-11.9375-28.753907-27.171876-.089843-1.589843-1.589843-2.828124-3.179687-2.828124s-2.902344 1.242187-2.996094 2.828124c-.875 15.234376-13.5 27.171876-28.75 27.171876s-27.878906-11.9375-28.753906-27.171876c-.089844-1.589843-1.589844-2.828124-3.179687-2.828124-1.589844 0-2.902344 1.242187-2.992188 2.828124-.875 15.234376-13.503906 27.171876-28.753906 27.171876s-27.878906-11.9375-28.753906-27.171876c-.011719-.1875-.039063-.367187-.082032-.539062.378906-26.507812 22.0625-47.957031 48.660156-47.957031h342.429688c26.59375 0 48.273438 21.4375 48.660156 47.941406-.042968.179687-.070312.363281-.082031.554687zm0 0" fill="#3a312a"/><path d="m445.539062 155.960938c-14.539062-85.277344-108.980468-149.578126-219.660156-149.578126-5.039062 0-10.039062.140626-15 .398438 104.101563 5.5 190.78125 67.78125 204.660156 149.179688.742188 4.261718-.460937 8.601562-3.257812 11.921874-2.902344 3.417969-7.121094 5.378907-11.621094 5.378907h30c4.5 0 8.71875-1.960938 11.621094-5.378907 2.796875-3.320312 4-7.660156 3.257812-11.921874zm0 0" fill="#decaad"/><path d="m423.339844 378.882812h-30c12.359375 0 22.421875 10.058594 22.421875 22.417969 0 24.722657-20.121094 44.839844-44.839844 44.839844h30c24.71875 0 44.839844-20.117187 44.839844-44.839844 0-12.359375-10.0625-22.417969-22.421875-22.417969zm0 0" fill="#decaad"/><path d="m386.898438 302.101562h-21.21875l-.601563.960938c15.601563 3.699219 27.222656 17.738281 27.222656 34.441406 0 19.5-15.878906 35.378906-35.402343 35.378906h30c19.523437 0 35.402343-15.878906 35.402343-35.378906 0-19.523437-15.878906-35.402344-35.402343-35.402344zm0 0" fill="#d34e5c"/><path d="m421.621094 260.582031c-1.542969.199219-3.101563.339844-4.699219.339844-7.800781 0-15.023437-2.578125-20.863281-6.960937l-4.378906 6.941406c.398437 1.898437.621093 3.878906.621093 5.898437 0 13.742188-9.5 25.300781-22.28125 28.441407l-.539062.859374h23.519531c16.160156 0 29.300781-13.140624 29.300781-29.300781 0-2.140625-.242187-4.21875-.679687-6.21875zm0 0" fill="#695b51"/><path d="m397.101562 179.261719h-30c26.578126 0 48.257813 21.441406 48.660157 47.941406-.042969.179687-.082031.359375-.082031.558594-.558594 9.761719-5.941407 18.160156-13.738282 22.941406 4.378906 2.679687 9.519532 4.21875 14.980469 4.21875 15.257813 0 27.878906-11.917969 28.757813-27.160156 0-.199219.039062-.378907.082031-.558594-.402344-26.5-22.082031-47.941406-48.660157-47.941406zm0 0" fill="#b9c239"/></svg>