<svg height="453pt" viewBox="-1 0 453 453.082" width="453pt" xmlns="http://www.w3.org/2000/svg"><path d="m102.746094 51.402344h35.199218v89h-35.199218zm0 0" fill="#fce8cb"/><path d="m137.945312 48.402344h-35.199218c-1.65625 0-3 1.34375-3 3v89c0 1.660156 1.34375 3 3 3h35.199218c1.660157 0 3-1.339844 3-3v-89c0-1.65625-1.34375-3-3-3zm-3 89h-29.199218v-83h29.199218zm0 0" fill="#3a312a"/><path d="m120.34375 3.003906c-9.675781 0-17.519531 21.199219-17.519531 30.878906 0 9.675782 7.84375 17.519532 17.519531 17.519532 9.679688 0 17.523438-7.84375 17.523438-17.519532 0-9.679687-7.84375-30.878906-17.523438-30.878906zm0 0" fill="#d7e057"/><path d="m120.34375 0c-12.558594 0-20.519531 23.824219-20.519531 33.878906 0 11.316406 9.203125 20.523438 20.519531 20.523438s20.523438-9.207032 20.523438-20.523438c0-10.054687-7.964844-33.878906-20.523438-33.878906zm0 48.402344c-8.003906 0-14.519531-6.511719-14.519531-14.519532 0-9.691406 7.691406-27.878906 14.519531-27.878906 6.832031 0 14.523438 18.1875 14.523438 27.878906 0 8.003907-6.515626 14.519532-14.523438 14.519532zm0 0" fill="#3a312a"/><path d="m208.320312 51.402344h35.199219v89h-35.199219zm0 0" fill="#fce8cb"/><path d="m243.519531 48.402344h-35.199219c-1.65625 0-3 1.34375-3 3v89c0 1.660156 1.34375 3 3 3h35.199219c1.65625 0 3-1.339844 3-3v-89c0-1.65625-1.34375-3-3-3zm-3 89h-29.199219v-83h29.199219zm0 0" fill="#3a312a"/><path d="m225.921875 3.003906c-9.679687 0-17.523437 21.199219-17.523437 30.878906 0 9.675782 7.84375 17.519532 17.523437 17.519532 9.675781 0 17.519531-7.84375 17.519531-17.519532 0-9.679687-7.84375-30.878906-17.519531-30.878906zm0 0" fill="#d7e057"/><path d="m225.921875 0c-12.558594 0-20.523437 23.824219-20.523437 33.878906 0 11.316406 9.207031 20.523438 20.523437 20.523438s20.519531-9.207032 20.519531-20.523438c0-10.054687-7.964844-33.878906-20.519531-33.878906zm0 48.402344c-8.007813 0-14.523437-6.511719-14.523437-14.519532 0-9.691406 7.695312-27.878906 14.523437-27.878906s14.519531 18.1875 14.519531 27.878906c0 8.003907-6.511718 14.519532-14.519531 14.519532zm0 0" fill="#3a312a"/><path d="m313.894531 51.402344h35.199219v89h-35.199219zm0 0" fill="#fce8cb"/><path d="m349.097656 48.402344h-35.203125c-1.65625 0-3 1.34375-3 3v89c0 1.660156 1.34375 3 3 3h35.203125c1.65625 0 3-1.339844 3-3v-89c0-1.65625-1.34375-3-3-3zm-3 89h-29.203125v-83h29.203125zm0 0" fill="#3a312a"/><path d="m331.496094 3.003906c-9.675782 0-17.523438 21.199219-17.523438 30.878906 0 9.675782 7.847656 17.519532 17.523438 17.519532 9.675781 0 17.519531-7.84375 17.519531-17.519532 0-9.679687-7.84375-30.878906-17.519531-30.878906zm0 0" fill="#d7e057"/><path d="m331.496094 0c-12.558594 0-20.523438 23.824219-20.523438 33.878906 0 11.316406 9.203125 20.523438 20.523438 20.523438 11.316406 0 20.523437-9.207032 20.523437-20.523438 0-10.054687-7.964843-33.878906-20.523437-33.878906zm0 48.402344c-8.007813 0-14.523438-6.511719-14.523438-14.519532 0-9.691406 7.695313-27.878906 14.523438-27.878906s14.523437 18.1875 14.523437 27.878906c0 8.003907-6.515625 14.519532-14.523437 14.519532zm0 0" fill="#3a312a"/><path d="m120.527344 129.847656c0 19.402344-15.726563 35.128906-35.128906 35.128906-19.40625 0-35.132813-15.726562-35.132813-35.128906 0-19.40625 15.726563-35.132812 35.132813-35.132812 19.402343 0 35.128906 15.726562 35.128906 35.132812zm0 0" fill="#f16c7a"/><path d="m85.398438 91.714844c-21.027344 0-38.132813 17.105468-38.132813 38.128906 0 21.027344 17.105469 38.132812 38.132813 38.132812 21.023437 0 38.128906-17.105468 38.128906-38.132812 0-21.023438-17.105469-38.128906-38.128906-38.128906zm0 70.261718c-17.71875 0-32.132813-14.414062-32.132813-32.132812 0-17.714844 14.414063-32.128906 32.132813-32.128906 17.714843 0 32.128906 14.414062 32.128906 32.128906 0 17.71875-14.414063 32.132812-32.128906 32.132812zm0 0" fill="#3a312a"/><path d="m190.703125 127.363281c-1.375-19.351562-18.175781-33.929687-37.53125-32.558593-19.351563 1.371093-33.929687 18.171874-32.558594 37.527343 1.371094 19.355469 18.175781 33.933594 37.527344 32.5625 19.355469-1.375 33.933594-18.175781 32.5625-37.53125zm0 0" fill="#f16c7a"/><path d="m155.660156 91.714844c-21.027344 0-38.132812 17.105468-38.132812 38.128906 0 21.027344 17.109375 38.132812 38.132812 38.132812 21.023438 0 38.128906-17.105468 38.128906-38.132812 0-21.023438-17.105468-38.128906-38.128906-38.128906zm0 70.261718c-17.71875 0-32.132812-14.414062-32.132812-32.132812 0-17.714844 14.414062-32.128906 32.132812-32.128906s32.128906 14.414062 32.128906 32.128906c0 17.71875-14.414062 32.132812-32.128906 32.132812zm0 0" fill="#3a312a"/><path d="m227.894531 94.765625c-19.371093-1.09375-35.964843 13.722656-37.058593 33.09375s13.722656 35.964844 33.09375 37.058594c19.371093 1.09375 35.964843-13.722657 37.058593-33.09375 1.09375-19.375-13.722656-35.964844-33.09375-37.058594zm0 0" fill="#f16c7a"/><path d="m225.921875 91.714844c-21.027344 0-38.132813 17.105468-38.132813 38.128906 0 21.027344 17.109376 38.132812 38.132813 38.132812s38.128906-17.105468 38.128906-38.132812c0-21.023438-17.105469-38.128906-38.128906-38.128906zm0 70.261718c-17.71875 0-32.132813-14.414062-32.132813-32.132812 0-17.714844 14.414063-32.128906 32.132813-32.128906 17.714844 0 32.128906 14.414062 32.128906 32.128906 0 17.71875-14.414062 32.132812-32.128906 32.132812zm0 0" fill="#3a312a"/><path d="m331.226562 127.367188c-1.371093-19.355469-18.175781-33.933594-37.527343-32.5625-19.355469 1.375-33.933594 18.175781-32.5625 37.53125 1.371093 19.351562 18.175781 33.929687 37.527343 32.558593 19.355469-1.371093 33.933594-18.171875 32.5625-37.527343zm0 0" fill="#f16c7a"/><path d="m296.183594 91.714844c-21.027344 0-38.128906 17.105468-38.128906 38.128906 0 21.027344 17.105468 38.132812 38.128906 38.132812 21.027344 0 38.128906-17.105468 38.128906-38.132812 0-21.023438-17.101562-38.128906-38.128906-38.128906zm0 70.261718c-17.714844 0-32.128906-14.414062-32.128906-32.132812 0-17.714844 14.414062-32.128906 32.128906-32.128906s32.128906 14.414062 32.128906 32.128906c0 17.71875-14.414062 32.132812-32.128906 32.132812zm0 0" fill="#3a312a"/><path d="m369.902344 94.871094c-19.308594-1.90625-36.507813 12.203125-38.414063 31.511718-1.90625 19.308594 12.203125 36.507813 31.511719 38.414063 19.3125 1.90625 36.511719-12.203125 38.414062-31.515625 1.90625-19.308594-12.203124-36.507812-31.511718-38.410156zm0 0" fill="#f16c7a"/><path d="m366.445312 91.714844c-21.027343 0-38.128906 17.105468-38.128906 38.128906 0 21.027344 17.105469 38.132812 38.128906 38.132812 21.027344 0 38.132813-17.105468 38.132813-38.132812 0-21.023438-17.105469-38.128906-38.132813-38.128906zm0 70.261718c-17.714843 0-32.128906-14.414062-32.128906-32.132812 0-17.714844 14.414063-32.128906 32.128906-32.128906 17.71875 0 32.132813 14.414062 32.132813 32.128906 0 17.71875-14.414063 32.132812-32.132813 32.132812zm0 0" fill="#3a312a"/><path d="m3.039062 356.238281c0 38.871094 31.515626 70.382813 70.386719 70.382813h304.992188c38.871093 0 70.386719-31.511719 70.386719-70.382813zm0 0" fill="#fce8cb"/><path d="m448.800781 353.238281h-445.761719c-1.65625 0-2.9999995 1.347657-2.9999995 3 0 40.464844 32.9218755 73.382813 73.3867185 73.382813h9.0625c1.65625 0 3-1.34375 3-3s-1.34375-3-3-3h-9.0625c-36.152343 0-65.746093-28.613282-67.320312-64.382813h439.632812c-1.574219 35.773438-31.167969 64.382813-67.320312 64.382813h-266.0625c-1.660157 0-3 1.34375-3 3s1.339843 3 3 3h266.0625c40.464843 0 73.382812-32.917969 73.382812-73.382813 0-1.65625-1.339843-3-3-3zm0 0" fill="#3a312a"/><path d="m131.535156 426.621094h188.773438v23.464844h-188.773438zm0 0" fill="#fce8cb"/><path d="m320.308594 423.621094h-188.773438c-1.65625 0-3 1.34375-3 3v23.460937c0 1.65625 1.34375 3 3 3h188.773438c1.65625 0 3-1.34375 3-3v-23.460937c0-1.65625-1.34375-3-3-3zm-3 23.460937h-182.773438v-17.460937h182.773438zm0 0" fill="#3a312a"/><path d="m416.839844 359.242188c-1.578125 35.761718-31.160156 64.378906-67.320313 64.378906h28.902344c36.140625 0 65.738281-28.617188 67.320313-64.378906zm0 0" fill="#decaad"/><path d="m26.5 282.417969h398.839844v73.785156h-398.839844zm0 0" fill="#87796f"/><path d="m425.339844 279.417969h-398.839844c-1.65625 0-3 1.34375-3 3v73.785156c0 1.65625 1.34375 3 3 3h398.839844c1.65625 0 3-1.34375 3-3v-73.785156c0-1.65625-1.34375-3-3-3zm-3 73.785156h-392.839844v-67.789063h392.839844zm0 0" fill="#3a312a"/><path d="m26.5 208.558594h398.839844v73.789062h-398.839844zm0 0" fill="#f16c7a"/><path d="m425.339844 205.558594h-73c-1.65625 0-3 1.34375-3 3 0 1.660156 1.34375 3 3 3h70v67.789062h-392.839844v-67.789062h292.671875c1.65625 0 3-1.339844 3-3 0-1.65625-1.34375-3-3-3h-295.671875c-1.65625 0-3 1.34375-3 3v73.789062c0 1.65625 1.34375 3 3 3h398.839844c1.65625 0 3-1.34375 3-3v-73.789062c0-1.65625-1.34375-3-3-3zm0 0" fill="#3a312a"/><path d="m398.320312 134.703125h-344.800781c-14.921875 0-27.019531 12.09375-27.019531 27.015625v46.765625h398.839844v-46.765625c0-14.921875-12.097656-27.015625-27.019532-27.015625zm0 0" fill="#87796f"/><path d="m398.320312 131.703125h-344.800781c-16.550781 0-30.019531 13.464844-30.019531 30.015625v46.765625c0 1.660156 1.34375 3 3 3h295.671875c1.65625 0 3-1.339844 3-3 0-1.65625-1.34375-3-3-3h-292.671875v-43.765625c0-13.242188 10.773438-24.015625 24.019531-24.015625h344.800781c13.246094 0 24.019532 10.773437 24.019532 24.015625v43.765625h-70.003906c-1.65625 0-3 1.34375-3 3 0 1.660156 1.34375 3 3 3h73.003906c1.65625 0 3-1.339844 3-3v-46.765625c0-16.550781-13.464844-30.015625-30.019532-30.015625zm0 0" fill="#3a312a"/><path d="m366.441406 97.722656c-3.921875 0-7.679687.699219-11.160156 2.019532 12.21875 4.519531 20.941406 16.300781 20.941406 30.101562 0 .636719-.0625 1.238281-.082031 1.859375h22.339844c.039062-.621094.101562-1.222656.101562-1.859375 0-17.722656-14.421875-32.121094-32.140625-32.121094zm0 0" fill="#d34e5c"/><path d="m384.199219 285.421875h38.140625v67.78125h-38.140625zm0 0" fill="#695b51"/><path d="m384.199219 211.5625h38.140625v67.78125h-38.140625zm0 0" fill="#d34e5c"/><path d="m398.320312 137.703125h-38.140624c13.261718 0 24.019531 10.777344 24.019531 24.019531v43.757813h38.140625v-43.757813c0-13.242187-10.777344-24.019531-24.019532-24.019531zm0 0" fill="#695b51"/></svg>