<svg height="451pt" viewBox="0 0 451.8761 451" width="451pt" xmlns="http://www.w3.org/2000/svg"><path d="m64.820312 23.140625c-1.949218 23.128906-26.050781 26.78125-26.050781 26.78125 20.695313.972656 25.851563 28.117187 25.851563 28.117187.441406-19.355468 26.640625-28.40625 26.640625-28.40625-19.625-1.175781-26.441407-26.492187-26.441407-26.492187zm0 0" fill="#d7e057"/><path d="m91.445312 46.640625c-17.210937-1.03125-23.667968-24.050781-23.730468-24.285156-.378906-1.40625-1.730469-2.335938-3.164063-2.203125-1.449219.132812-2.597656 1.285156-2.71875 2.734375-1.71875 20.429687-22.625 23.925781-23.507812 24.0625-1.527344.234375-2.625 1.582031-2.546875 3.121093.082031 1.542969 1.316406 2.773438 2.855468 2.84375 18.054688.851563 22.996094 25.4375 23.046876 25.6875.273437 1.421876 1.515624 2.433594 2.941406 2.433594.085937 0 .167968-.003906.253906-.007812 1.527344-.128906 2.714844-1.386719 2.75-2.921875.390625-17.015625 24.382812-25.554688 24.625-25.636719 1.351562-.46875 2.183594-1.828125 1.988281-3.246094-.199219-1.414062-1.367187-2.496094-2.792969-2.582031zm-27.136718 20.691406c-2.710938-6.261719-7.417969-13.816406-15.171875-17.753906 5.863281-2.808594 12.816406-7.824219 16.402343-16.546875 3.101563 6.144531 8.402344 13.761719 16.667969 17.445312-6.011719 3.28125-13.84375 8.8125-17.898437 16.855469zm0 0" fill="#3a312a"/><path d="m21.421875 57.101562c-1.378906 16.359376-18.421875 18.941407-18.421875 18.941407 14.632812.691406 18.28125 19.890625 18.28125 19.890625.3125-13.691406 18.84375-20.089844 18.84375-20.089844-13.882812-.832031-18.703125-18.742188-18.703125-18.742188zm0 0" fill="#d7e057"/><path d="m40.304688 72.847656c-11.53125-.691406-15.945313-16.375-15.988282-16.53125-.378906-1.40625-1.707031-2.328125-3.164062-2.203125-1.449219.128907-2.597656 1.285157-2.71875 2.734375-1.15625 13.742188-15.292969 16.132813-15.882813 16.226563-1.527343.230469-2.6249998 1.582031-2.54687475 3.121093.08203125 1.539063 1.31249975 2.769532 2.85546875 2.839844 12.070313.570313 15.445313 17.289063 15.476563 17.453125.269531 1.425781 1.519531 2.441407 2.945312 2.441407.082031 0 .164062-.003907.25-.007813 1.527344-.128906 2.714844-1.386719 2.75-2.921875.261719-11.421875 16.664062-17.269531 16.828125-17.324219 1.351563-.464843 2.1875-1.824219 1.992187-3.242187-.199218-1.417969-1.367187-2.5-2.796874-2.585938zm-19.167969 13.589844c-1.847657-3.773438-4.679688-7.894531-8.894531-10.558594 3.710937-2.082031 7.394531-5.261718 9.742187-9.835937 2.113281 3.75 5.308594 7.910156 9.882813 10.449219-3.699219 2.203124-7.980469 5.476562-10.730469 9.945312zm0 0" fill="#3a312a"/><path d="m21.421875 3.789062c-1.378906 16.355469-18.421875 18.941407-18.421875 18.941407 14.632812.6875 18.28125 19.886719 18.28125 19.886719.3125-13.6875 18.84375-20.089844 18.84375-20.089844-13.882812-.832032-18.703125-18.738282-18.703125-18.738282zm0 0" fill="#d7e057"/><path d="m40.304688 19.53125c-11.53125-.6875-15.941407-16.371094-15.988282-16.527344-.378906-1.40625-1.707031-2.347656-3.164062-2.207031-1.449219.132813-2.597656 1.289063-2.71875 2.738281-1.15625 13.742188-15.292969 16.132813-15.882813 16.226563-1.527343.230469-2.6249998 1.582031-2.54687475 3.121093.08203125 1.542969 1.31249975 2.769532 2.85546875 2.839844 12.070313.570313 15.445313 17.292969 15.476563 17.457032.269531 1.421874 1.519531 2.4375 2.945312 2.4375.082031 0 .164062-.003907.25-.007813 1.527344-.128906 2.714844-1.386719 2.75-2.921875.261719-11.417969 16.664062-17.269531 16.828125-17.324219 1.351563-.46875 2.1875-1.828125 1.992187-3.246093-.199218-1.417969-1.367187-2.5-2.796874-2.585938zm-19.167969 13.589844c-1.847657-3.769532-4.679688-7.894532-8.894531-10.558594 3.710937-2.082031 7.394531-5.257812 9.742187-9.832031 2.113281 3.746093 5.308594 7.90625 9.882813 10.449219-3.699219 2.195312-7.980469 5.476562-10.730469 9.941406zm0 0" fill="#3a312a"/><path d="m109.277344 321.921875-37.277344 37.277344.039062.039062-.957031.960938-22.0625 21.980469-41 41.019531c-5.78125 5.78125-5.640625 15.101562.136719 20.859375l.121094.121094c.039062.039062.101562.082031.140625.140624 5.78125 5.78125 15.082031 5.917969 20.859375.140626l101.28125-101.261719c-7.660156-6.519531-14.78125-13.640625-21.28125-21.277344zm0 0" fill="#87796f"/><path d="m132.503906 340.914062c-7.515625-6.390624-14.558594-13.4375-20.941406-20.9375-.542969-.636718-1.328125-1.023437-2.164062-1.054687-.851563-.0625-1.648438.285156-2.242188.875l-37.28125 37.28125c-.132812.132813-.25.277344-.351562.433594l-.566407.5625c-1.171875 1.175781-1.171875 3.070312 0 4.242187s3.070313 1.171875 4.242188 0l.957031-.957031c.140625-.136719.261719-.285156.363281-.441406l34.597657-34.597657c5.304687 6.015626 11.015624 11.726563 17.039062 17.039063l-99 98.980469c-2.210938 2.207031-5.074219 3.414062-8.28125 3.382812-3.105469-.027344-6.039062-1.257812-8.277344-3.464844-.113281-.125-.226562-.238281-.324218-.324218-2.269532-2.261719-3.519532-5.253906-3.523438-8.425782 0-3.09375 1.199219-6 3.386719-8.1875l41-41.019531c1.171875-1.171875 1.171875-3.074219 0-4.242187-1.171875-1.171875-3.070313-1.171875-4.242188 0l-41 41.019531c-3.324219 3.320313-5.148437 7.734375-5.144531 12.4375.003906 4.773437 1.882812 9.273437 5.289062 12.667969l.015626-.015625c.042968.050781.082031.105469.128906.152343v.003907c.011718.019531.03125.035156.054687.054687.019531.019532.039063.039063.058594.058594 3.363281 3.363281 7.808594 5.242188 12.523437 5.285156h.164063c4.691406 0 9.089844-1.820312 12.414063-5.144531l101.28125-101.257813c.589843-.59375.910156-1.402343.875-2.242187-.03125-.835937-.414063-1.621094-1.050782-2.164063zm-125.289062 104.222657-.425782.292969 1.367188-1.375zm0 0" fill="#3a312a"/><path d="m427.398438 107.902344c-23.679688-45.820313-65.1875-80.921875-115.351563-96.152344-17.773437-5.402344-36.625-8.308594-56.167969-8.308594-32.699218 0-63.507812 8.132813-90.496094 22.515625-42.925781 22.800781-76.210937 61.363281-92.136718 107.980469-6.734375 19.59375-10.367188 40.621094-10.367188 62.503906 0 30.339844 6.992188 59.039063 19.488282 84.574219 22.660156 46.441406 63.40625 82.410156 113.082031 98.765625 19.007812 6.265625 39.328125 9.660156 60.429687 9.660156 31.121094 0 60.53125-7.375 86.5625-20.476562 46.128906-23.160156 81.683594-64.304688 97.46875-114.226563 5.835938-18.398437 8.96875-37.972656 8.96875-58.296875 0-31.921875-7.753906-62.019531-21.480468-88.539062zm0 0" fill="#8ac6dd"/><path d="m430.0625 106.527344c-24.183594-46.796875-66.878906-82.386719-117.144531-97.648438-18.429688-5.597656-37.625-8.4375-57.039063-8.4375-32.054687 0-63.835937 7.90625-91.902344 22.867188-44.199218 23.476562-77.429687 62.417968-93.566406 109.652344-6.988281 20.332031-10.53125 41.691406-10.53125 63.476562 0 30.15625 6.660156 59.054688 19.792969 85.890625 23.082031 47.308594 64.941406 83.867187 114.839844 100.300781 19.742187 6.507813 40.386719 9.808594 61.363281 9.808594 30.917969 0 60.496094-6.996094 87.910156-20.796875 47.066406-23.625 83.144532-65.910156 98.984375-116 6.042969-19.0625 9.105469-38.980469 9.105469-59.203125.003906-31.699219-7.335938-61.949219-21.8125-89.910156zm6.988281 147.308594c-15.355469 48.550781-50.328125 89.539062-95.957031 112.449218-26.570312 13.375-55.242188 20.15625-85.214844 20.15625-20.335937 0-40.351562-3.203125-59.488281-9.507812-48.371094-15.929688-88.949219-51.371094-111.328125-97.238282-12.726562-26.007812-19.183594-54.019531-19.183594-83.253906 0-21.125 3.433594-41.824218 10.210938-61.535156 15.640625-45.792969 47.855468-83.542969 90.707031-106.300781 27.207031-14.5 58.011719-22.164063 89.082031-22.164063 18.828125 0 37.433594 2.75 55.300782 8.179688 48.71875 14.792968 90.109374 49.296875 113.554687 94.660156 14.03125 27.105469 21.144531 56.429688 21.144531 87.160156 0 19.605469-2.972656 38.917969-8.828125 57.394532zm0 0" fill="#3a312a"/><path d="m312.046875 11.75c-17.773437-5.402344-36.625-8.308594-56.167969-8.308594-32.699218 0-63.507812 8.132813-90.496094 22.515625-1.574218 41.214844 9.988282 83.226563 35.816407 119.367188 15.09375 21.152343 33.699219 38.339843 54.453125 51.339843h.019531c.035156.019532.070313.050782.105469.070313 0-.035156-.019532-.070313-.019532-.105469-.035156-.101562-.050781-.207031-.070312-.308594-.015625-.035156-.015625-.070312-.035156-.105468-15.164063-65.898438 5.195312-136.777344 56.394531-184.464844zm0 0" fill="#d7e057"/><path d="m314.96875 11.070312c-.238281-1.042968-1.023438-1.878906-2.046875-2.195312-18.433594-5.597656-37.625-8.4375-57.042969-8.4375-32.054687 0-63.832031 7.910156-91.902344 22.871094-.941406.503906-1.546874 1.46875-1.585937 2.535156-1.671875 43.667969 10.90625 85.589844 36.371094 121.21875 14.980469 20.996094 33.585937 38.539062 55.304687 52.140625.050782.03125.105469.0625.15625.09375.054688.03125.105469.0625.152344.085937.4375.234376.921875.347657 1.402344.347657.535156 0 1.074218-.140625 1.546875-.429688.902343-.539062 1.453125-1.515625 1.453125-2.570312 0-.113281-.007813-.238281-.023438-.367188-.011718-.183593-.039062-.34375-.105468-.550781-.023438-.140625-.058594-.28125-.101563-.417969-15.117187-65.9375 6.160156-135.457031 55.546875-181.453125.785156-.730468 1.117188-1.824218.875-2.871094zm-63.644531 179.1875c-18.523438-12.582031-34.542969-28.257812-47.6875-46.679687-24.34375-34.070313-36.539063-74.070313-35.3125-115.777344 26.824219-13.980469 57.058593-21.363281 87.554687-21.363281 17.085938 0 33.996094 2.269531 50.332032 6.746094-46.671876 45.890625-67.355469 112.726562-54.886719 177.074218zm0 0" fill="#3a312a"/><path d="m427.398438 107.902344c-41.195313-2.042969-83.34375 9.035156-119.78125 34.445312-21.328126 14.851563-38.722657 33.269532-51.964844 53.867188-.015625.035156-.03125.085937-.066406.121094.03125 0 .066406-.015626.101562-.015626.105469-.035156.226562-.050781.332031-.070312.03125-.019531.070313-.019531.101563-.035156 66.054687-14.402344 136.726562 6.789062 183.792968 58.523437 5.835938-18.398437 8.964844-37.976562 8.964844-58.296875 0-31.921875-7.753906-62.019531-21.480468-88.539062zm0 0" fill="#d7e057"/><path d="m430.058594 106.523438c-.488282-.949219-1.449219-1.5625-2.515625-1.617188-43.675781-2.1875-85.726563 9.933594-121.644531 34.980469-21.148438 14.730469-38.90625 33.136719-52.769532 54.707031-.039062.054688-.074218.121094-.109375.1875-.5.816406-.582031 1.839844-.195312 2.742188.546875 1.261718 1.84375 2.019531 3.324219 1.761718.167968-.027344.335937-.070312.5-.125-.078126.027344-.164063.050782-.1875.058594.152343-.023438.304687-.058594.453124-.105469 66.121094-14.351562 135.367188 7.722657 180.777344 57.644531.574219.628907 1.382813.980469 2.21875.980469.214844 0 .429688-.023437.640625-.070312 1.046875-.226563 1.894531-1 2.21875-2.023438 6.039063-19.0625 9.105469-38.980469 9.105469-59.207031.003906-31.699219-7.335938-61.949219-21.816406-89.914062zm8.488281 142.359374c-37.160156-38.691406-88.59375-60.082031-141.453125-60.082031-11.632812 0-23.347656 1.039063-34.980469 3.15625 12.804688-18.386719 28.664063-34.226562 47.21875-47.148437 34.347657-23.953125 74.480469-35.664063 116.1875-33.988282 13.511719 26.671876 20.359375 55.46875 20.359375 85.621094 0 17.863282-2.46875 35.480469-7.332031 52.441406zm0 0" fill="#3a312a"/><path d="m309.382812 248.800781c-14.625-21.5-32.820312-39.101562-53.261718-52.585937-.03125-.019532-.085938-.035156-.121094-.070313 0 .035157.019531.070313.019531.105469.03125.101562.050781.222656.070313.324219.015625.035156.015625.050781.015625.085937 13.660156 66.226563-8.34375 136.640625-60.652344 183.117188 19.007813 6.265625 39.328125 9.660156 60.429687 9.660156 31.121094 0 60.53125-7.375 86.5625-20.476562 2.523438-41.160157-8.085937-83.429688-33.0625-120.160157zm0 0" fill="#d7e057"/><path d="m311.863281 247.113281c-14.519531-21.335937-32.71875-39.304687-54.089843-53.402343-.066407-.042969-.136719-.082032-.207032-.121094-.804687-.496094-1.8125-.589844-2.714844-.214844-1.125.464844-1.851562 1.558594-1.851562 2.769531 0 .175781.019531.375.050781.5625.019531.125.046875.25.082031.375v.011719c-.003906-.007812-.003906-.015625-.003906-.015625v.003906c.007813.046875.015625.097657.027344.140625 0 .015625.003906.035156.011719.050782 13.675781 66.320312-9.207031 135.394531-59.710938 180.269531-.800781.714843-1.164062 1.796875-.945312 2.847656.214843 1.050781.980469 1.90625 2 2.242187 19.742187 6.507813 40.386719 9.808594 61.363281 9.808594 30.917969 0 60.496094-6.996094 87.914062-20.796875.953126-.476562 1.582032-1.429687 1.644532-2.496093 2.679687-43.601563-8.929688-85.800782-33.570313-122.035157zm27.683594 119.9375c-26.136719 12.867188-54.277344 19.386719-83.667969 19.386719-18.597656 0-36.925781-2.671875-54.558594-7.957031 47.75-44.792969 69.976563-111.136719 58.976563-175.761719 18.214844 13.003906 33.871094 29.046875 46.605469 47.765625 23.5625 34.648437 34.828125 74.917969 32.644531 116.566406zm0 0" fill="#3a312a"/><path d="m256.085938 196.578125c-.105469.015625-.226563.035156-.328126.050781-.035156.015625-.070312.015625-.105468.035156-66.382813 12.878907-136.554688-9.917968-182.40625-62.726562-6.734375 19.59375-10.367188 40.621094-10.367188 62.503906 0 30.339844 6.992188 59.039063 19.488282 84.574219 41.128906 2.992187 83.519531-7.117187 120.527343-31.675781 21.6875-14.386719 39.5-32.371094 53.207031-52.671875.019532-.039063.050782-.070313.070313-.105469-.035156-.003906-.050781.015625-.085937.015625zm0 0" fill="#d7e057"/><path d="m258.726562 194.980469c-.65625-1.054688-1.898437-1.617188-3.203124-1.351563-.085938.011719-.164063.023438-.214844.03125-.140625.023438-.277344.054688-.414063.09375-66.441406 12.832032-135.152343-10.84375-179.382812-61.785156-.703125-.8125-1.789063-1.179688-2.835938-.980469-1.054687.207031-1.917969.960938-2.265625 1.972657-6.988281 20.332031-10.53125 41.691406-10.53125 63.476562 0 30.15625 6.660156 59.054688 19.796875 85.890625.464844.960937 1.410157 1.597656 2.472657 1.675781 4.863281.355469 9.707031.53125 14.527343.53125 38.425781 0 75.453125-11.179687 107.875-32.699218 21.535157-14.28125 39.714844-32.28125 54.039063-53.496094.015625-.023438.03125-.042969.042968-.066406.082032-.125.164063-.257813.222657-.375.464843-.925782.414062-2.03125-.128907-2.917969zm-57.492187 51.859375c-34.890625 23.15625-75.277344 33.972656-116.925781 31.296875-12.230469-25.566407-18.429688-53.042969-18.429688-81.699219 0-19.378906 2.890625-38.398438 8.59375-56.625 37.277344 40.65625 90.078125 63.371094 144.535156 63.371094 10.148438 0 20.359376-.789063 30.535157-2.398438-13.199219 18.058594-29.421875 33.527344-48.308594 46.054688zm0 0" fill="#3a312a"/><path d="m255.878906 6.441406c-2.921875 0-5.839844.058594-8.761718.21875 7.121093 1.300782 14.101562 3 20.921874 5.078125 9.960938 3.023438 19.578126 6.839844 28.777344 11.363281 3-3.402343 6.140625-6.722656 9.402344-9.921874-16.339844-4.480469-33.261719-6.738282-50.339844-6.738282zm0 0" fill="#b9c239"/><path d="m312.839844 15.140625c-3.660156 3.480469-7.160156 7.078125-10.5 10.800781 34.597656 18.359375 62.917968 46.957032 80.957031 81.757813 12.761719-2.257813 25.800781-3.257813 39.019531-2.9375-23.539062-42.621094-63.117187-75.0625-109.476562-89.621094zm0 0" fill="#68a8bc"/><path d="m402.539062 226.621094c-1.5 9.617187-3.742187 19.019531-6.621093 28.117187-9.980469 31.523438-27.820313 59.523438-51.21875 81.703125.957031 9.058594 1.277343 18.238282.957031 27.480469 42.882812-23.042969 75.761719-62.222656 90.84375-108.421875-10.242188-11.058594-21.660156-20.71875-33.960938-28.878906zm0 0" fill="#68a8bc"/><g fill="#b9c239"><path d="m425.519531 110.820312c-13.363281-.539062-26.5625.300782-39.441406 2.480469 12.039063 25.179688 18.800781 53.359375 18.800781 83.140625 0 7.980469-.480468 15.859375-1.441406 23.597656 12.660156 8.121094 24.460938 17.78125 35.101562 28.839844 4.878907-16.957031 7.339844-34.578125 7.339844-52.4375 0-30.140625-6.839844-58.941406-20.359375-85.621094zm0 0"/><path d="m339.179688 341.5c-12.300782 10.796875-25.960938 20.039062-40.742188 27.457031-15.980469 8.042969-33.21875 13.921875-51.359375 17.28125 2.921875.140625 5.859375.199219 8.800781.199219 29.398438 0 57.539063-6.519531 83.660156-19.378906.460938-8.597656.339844-17.117188-.359374-25.558594zm0 0"/></g></svg>