<svg height="451pt" viewBox="0 0 451.76 451" width="451pt" xmlns="http://www.w3.org/2000/svg"><path d="m366.195312 13.203125c-14.59375-13.2304688-34.398437-15.128906-54.519531 7.070313-20.113281 22.191406-31.621093 58.636718-17.027343 71.867187 14.59375 13.226563 49.738281-1.796875 69.851562-23.988281 20.125-22.199219 16.289062-41.722656 1.695312-54.949219zm-9.789062 41.085937c-7.542969 8.324219-20.414062 8.964844-28.734375 1.421876-8.328125-7.546876-8.949219-20.417969-1.402344-28.742188 7.542969-8.324219 20.402344-8.957031 28.726563-1.410156 8.324218 7.542968 8.957031 20.402344 1.410156 28.730468zm0 0" fill="#d7e057"/><path d="m357.011719 23.335938c-9.539063-8.640626-24.324219-7.914063-32.96875 1.621093-8.648438 9.539063-7.921875 24.332031 1.609375 32.976563 4.460937 4.042968 10.066406 6.035156 15.660156 6.035156 6.367188 0 12.714844-2.585938 17.316406-7.664062 4.1875-4.621094 6.328125-10.59375 6.019532-16.820313-.304688-6.226563-3.019532-11.960937-7.636719-16.148437zm-2.828125 28.9375c-6.425782 7.085937-17.414063 7.632812-24.5 1.214843-7.082032-6.421875-7.621094-17.414062-1.195313-24.503906 3.417969-3.769531 8.128907-5.6875 12.859375-5.6875 4.152344 0 8.320313 1.480469 11.632813 4.484375 3.433593 3.109375 5.449219 7.371094 5.675781 11.996094s-1.359375 9.0625-4.472656 12.496094zm14.027344-41.292969c-8.332032-7.550781-17.804688-11.195313-27.414063-10.519531-10.773437.75-21.320313 6.738281-31.347656 17.796874-21.015625 23.191407-32.941407 61.484376-16.816407 76.105469 4.335938 3.929688 10.171876 5.671875 16.804688 5.671875 18.03125 0 41.917969-12.910156 57.285156-29.867187 10.023438-11.0625 14.953125-22.144531 14.640625-32.945313-.273437-9.621094-4.824219-18.695312-13.152343-26.242187zm-5.933594 55.15625c-18.644532 20.578125-52.578125 35.585937-65.613282 23.78125-13.027343-11.808594-1.414062-47.054688 17.230469-67.628907 8.953125-9.875 18.144531-15.207031 27.320313-15.84375 7.9375-.546874 15.875 2.554688 22.964844 8.980469 7.089843 6.425781 10.960937 14.027344 11.1875 21.972657.265624 9.195312-4.140626 18.867187-13.089844 28.738281zm0 0" fill="#3a312a"/><path d="m432.210938 415.804688h-412.660157c-9.140625 0-16.546875 7.40625-16.546875 16.546874 0 9.140626 7.40625 16.550782 16.546875 16.550782h412.664063c9.140625 0 16.550781-7.410156 16.550781-16.550782-.003906-9.136718-7.414063-16.546874-16.554687-16.546874zm0 0" fill="#fce8cb"/><path d="m432.210938 412.804688h-412.660157c-10.78125 0-19.550781 8.769531-19.550781 19.546874 0 10.78125 8.769531 19.550782 19.550781 19.550782h412.660157c10.78125 0 19.550781-8.769532 19.550781-19.550782 0-10.777343-8.769531-19.546874-19.550781-19.546874zm0 33.097656h-412.660157c-7.472656 0-13.550781-6.078125-13.550781-13.550782 0-7.46875 6.078125-13.546874 13.550781-13.546874h412.660157c7.472656 0 13.550781 6.078124 13.550781 13.546874 0 7.472657-6.078125 13.550782-13.550781 13.550782zm0 0" fill="#3a312a"/><path d="m432.210938 85.605469h-412.660157c-9.140625 0-16.546875 7.410156-16.546875 16.550781s7.40625 16.550781 16.546875 16.550781h412.664063c9.140625 0 16.550781-7.410156 16.550781-16.550781-.003906-9.140625-7.414063-16.550781-16.554687-16.550781zm0 0" fill="#fce8cb"/><path d="m432.210938 82.605469h-322.300782c-1.65625 0-3 1.34375-3 3s1.34375 3 3 3h322.304688c7.46875 0 13.546875 6.078125 13.546875 13.546875 0 7.472656-6.078125 13.550781-13.546875 13.550781h-412.664063c-7.472656 0-13.550781-6.078125-13.550781-13.550781 0-7.46875 6.078125-13.546875 13.550781-13.546875h60.300781c1.660157 0 3-1.34375 3-3s-1.339843-3-3-3h-60.300781c-10.78125 0-19.550781 8.769531-19.550781 19.546875 0 10.78125 8.769531 19.550781 19.550781 19.550781h412.660157c10.78125 0 19.550781-8.769531 19.550781-19.550781 0-10.777344-8.769531-19.546875-19.550781-19.546875zm0 0" fill="#3a312a"/><path d="m30.53125 118.707031h390.699219v297.097657h-390.699219zm0 0" fill="#87796f"/><path d="m421.230469 115.707031h-390.699219c-1.65625 0-3 1.34375-3 3v297.097657c0 1.65625 1.34375 3 3 3h390.703125c1.65625 0 3-1.34375 3-3v-297.097657c-.003906-1.65625-1.34375-3-3.003906-3zm-3 297.097657h-384.699219v-291.097657h384.703125v291.097657zm0 0" fill="#3a312a"/><path d="m30.53125 192.46875h390.699219v153.636719h-390.699219zm0 0" fill="#f16c7a"/><path d="m421.230469 189.46875h-136.667969c-1.65625 0-3 1.34375-3 3s1.34375 3 3 3h133.667969v147.632812h-384.699219v-147.632812h221.671875c1.660156 0 3-1.34375 3-3s-1.339844-3-3-3h-224.671875c-1.65625 0-3 1.34375-3 3v153.632812c0 1.65625 1.34375 3 3 3h390.703125c1.65625 0 3-1.34375 3-3v-153.632812c-.003906-1.65625-1.34375-3-3.003906-3zm0 0" fill="#3a312a"/><path d="m432.222656 418.796875h-33.539062c7.476562 0 13.558594 6.082031 13.558594 13.5625 0 7.457031-6.082032 13.539063-13.558594 13.539063h33.539062c7.460938 0 13.539063-6.082032 13.539063-13.539063 0-7.480469-6.078125-13.5625-13.539063-13.5625zm0 0" fill="#decaad"/><path d="m432.222656 88.597656h-33.539062c7.476562 0 13.558594 6.078125 13.558594 13.558594 0 7.460938-6.082032 13.542969-13.558594 13.542969h33.539062c7.460938 0 13.539063-6.082031 13.539063-13.542969 0-7.480469-6.078125-13.558594-13.539063-13.558594zm0 0" fill="#decaad"/><path d="m384.703125 121.699219h33.539063v67.757812h-33.539063zm0 0" fill="#695b51"/><path d="m384.703125 349.097656h33.539063v63.699219h-33.539063zm0 0" fill="#695b51"/><path d="m384.703125 195.457031h33.539063v147.640625h-33.539063zm0 0" fill="#d34e5c"/></svg>