<svg height="451pt" viewBox="0 -28 451.04809 451" width="451pt" xmlns="http://www.w3.org/2000/svg"><path d="m64.820312 22.378906c-1.945312 23.128906-26.046874 26.78125-26.046874 26.78125 20.691406.972656 25.851562 28.117188 25.851562 28.117188.441406-19.355469 26.640625-28.402344 26.640625-28.402344-19.628906-1.179688-26.445313-26.496094-26.445313-26.496094zm0 0" fill="#d7e057"/><path d="m91.445312 45.878906c-17.210937-1.03125-23.664062-24.050781-23.730468-24.285156-.378906-1.402344-1.691406-2.320312-3.164063-2.203125-1.449219.132813-2.597656 1.285156-2.71875 2.734375-1.71875 20.433594-22.625 23.929688-23.507812 24.066406-1.527344.230469-2.625 1.582032-2.546875 3.125.082031 1.539063 1.316406 2.765625 2.855468 2.839844 18.058594.851562 23 25.4375 23.046876 25.683594.273437 1.421875 1.515624 2.433594 2.941406 2.433594.085937 0 .167968-.003907.253906-.007813 1.527344-.128906 2.714844-1.386719 2.75-2.921875.386719-17.015625 24.382812-25.550781 24.625-25.636719 1.347656-.46875 2.183594-1.828125 1.984375-3.246093-.195313-1.414063-1.363281-2.496094-2.789063-2.582032zm-27.132812 20.691406c-2.710938-6.261718-7.417969-13.816406-15.171875-17.753906 5.863281-2.808594 12.816406-7.824218 16.402344-16.546875 3.101562 6.144531 8.398437 13.761719 16.667969 17.445313-6.015626 3.28125-13.84375 8.808594-17.898438 16.855468zm0 0" fill="#3a312a"/><path d="m21.425781 56.339844c-1.378906 16.359375-18.425781 18.941406-18.425781 18.941406 14.636719.691406 18.285156 19.890625 18.285156 19.890625.3125-13.691406 18.84375-20.089844 18.84375-20.089844-13.882812-.832031-18.703125-18.742187-18.703125-18.742187zm0 0" fill="#d7e057"/><path d="m40.308594 72.085938c-11.535156-.691407-15.945313-16.371094-15.988282-16.53125-.378906-1.402344-1.707031-2.335938-3.164062-2.203126-1.453125.132813-2.597656 1.285157-2.71875 2.734376-1.160156 13.742187-15.296875 16.136718-15.886719 16.230468-1.523437.230469-2.6249998 1.578125-2.54687475 3.121094.08203125 1.539062 1.31249975 2.769531 2.85546875 2.839844 12.070313.570312 15.445313 17.289062 15.480469 17.453125.269531 1.425781 1.515625 2.441406 2.941406 2.441406.085938 0 .167969-.003906.25-.011719 1.53125-.125 2.71875-1.386718 2.753906-2.921875.257813-11.417969 16.660156-17.265625 16.824219-17.324219 1.351563-.46875 2.1875-1.824218 1.992187-3.242187-.195312-1.417969-1.367187-2.5-2.792968-2.585937zm-19.171875 13.589843c-1.847657-3.773437-4.679688-7.894531-8.894531-10.5625 3.710937-2.082031 7.394531-5.257812 9.742187-9.832031 2.117187 3.75 5.3125 7.910156 9.882813 10.449219-3.699219 2.199219-7.976563 5.480469-10.730469 9.945312zm0 0" fill="#3a312a"/><path d="m21.425781 3.023438c-1.378906 16.359374-18.425781 18.945312-18.425781 18.945312 14.636719.6875 18.285156 19.886719 18.285156 19.886719.3125-13.691407 18.84375-20.089844 18.84375-20.089844-13.882812-.832031-18.703125-18.742187-18.703125-18.742187zm0 0" fill="#d7e057"/><path d="m40.308594 18.769531c-11.488282-.6875-15.914063-16.25-15.988282-16.527343-.378906-1.40625-1.707031-2.3398442-3.164062-2.2031255-1.453125.1289065-2.597656 1.2812495-2.71875 2.7343755-1.160156 13.742187-15.296875 16.132812-15.886719 16.226562-1.523437.230469-2.6249998 1.578125-2.54687475 3.121094.08203125 1.539062 1.31249975 2.769531 2.85546875 2.84375 12.070313.566406 15.445313 17.285156 15.476563 17.449218.269531 1.425782 1.519531 2.441407 2.945312 2.441407.082031 0 .164062-.003907.25-.011719 1.53125-.125 2.71875-1.386719 2.753906-2.921875.257813-11.417969 16.664063-17.265625 16.824219-17.324219 1.355469-.464844 2.1875-1.824218 1.992187-3.242187-.195312-1.417969-1.367187-2.5-2.792968-2.585938zm-19.171875 13.589844c-1.847657-3.773437-4.679688-7.894531-8.894531-10.558594 3.710937-2.082031 7.394531-5.261719 9.742187-9.835937 2.117187 3.75 5.3125 7.910156 9.882813 10.449218-3.699219 2.199219-7.976563 5.480469-10.730469 9.945313zm0 0" fill="#3a312a"/><path d="m4.5 198.066406v171.285156c0 12.464844 10.101562 22.566407 22.5625 22.566407h398.421875c12.460937 0 22.5625-10.101563 22.5625-22.566407v-171.285156zm0 0" fill="#d7e057"/><path d="m448.046875 195.066406h-443.546875c-1.660156 0-3 1.339844-3 3v108.164063c0 1.65625 1.339844 3 3 3 1.65625 0 3-1.34375 3-3v-105.164063h437.546875v168.285156c0 10.789063-8.773437 19.5625-19.5625 19.5625h-398.421875c-10.789062 0-19.5625-8.777343-19.5625-19.5625v-33.96875c0-1.65625-1.34375-3-3-3-1.660156 0-3 1.34375-3 3v33.96875c0 14.09375 11.464844 25.5625 25.5625 25.5625h398.421875c14.097656 0 25.5625-11.46875 25.5625-25.5625v-171.285156c0-1.660156-1.339844-3-3-3zm0 0" fill="#3a312a"/><path d="m245.988281 74.484375-.375.191406-88.550781 45.316407-25.171875 12.882812-127.390625 65.191406h443.546875c0-103.765625-109.6875-170.847656-202.058594-123.582031zm0 0" fill="#d7e057"/><path d="m383.222656 77.078125c-42.46875-25.972656-94.285156-27.941406-138.601562-5.261719l-88.925782 45.503906c-1.476562.753907-2.058593 2.5625-1.304687 4.039063s2.5625 2.054687 4.039063 1.304687l88.925781-45.507812c42.445312-21.71875 92.066406-19.832031 132.738281 5.039062 39.816406 24.355469 63.929688 66.378907 64.921875 112.871094h-428.070313l116.3125-59.519531c1.476563-.753906 2.058594-2.5625 1.304688-4.039063-.757812-1.476562-2.5625-2.058593-4.035156-1.304687l-127.394532 65.191406c-1.234374.632813-1.875 2.027344-1.550781 3.375.324219 1.347657 1.53125 2.296875 2.917969 2.296875h443.546875c1.660156 0 3-1.34375 3-3.003906 0-49.78125-25.355469-95.007812-67.824219-120.984375zm0 0" fill="#3a312a"/><path d="m223.605469 117.019531c-17.089844 0-30.945313 13.855469-30.945313 30.945313s13.855469 30.945312 30.945313 30.945312c17.089843 0 30.945312-13.855468 30.945312-30.945312s-13.855469-30.945313-30.945312-30.945313zm0 0" fill="#fce8cb"/><path d="m223.605469 114.019531c-18.714844 0-33.945313 15.226563-33.945313 33.945313s15.230469 33.945312 33.945313 33.945312c18.714843 0 33.945312-15.230468 33.945312-33.945312s-15.226562-33.945313-33.945312-33.945313zm0 61.890625c-15.40625 0-27.945313-12.535156-27.945313-27.945312 0-15.40625 12.539063-27.945313 27.945313-27.945313 15.410156 0 27.945312 12.539063 27.945312 27.945313 0 15.410156-12.535156 27.945312-27.945312 27.945312zm0 0" fill="#3a312a"/><path d="m333.675781 339.066406c0 17.089844-13.855469 30.941406-30.945312 30.941406-17.089844 0-30.941407-13.851562-30.941407-30.941406s13.851563-30.945312 30.941407-30.945312c17.089843 0 30.945312 13.855468 30.945312 30.945312zm0 0" fill="#fce8cb"/><path d="m302.730469 305.121094c-18.714844 0-33.941407 15.226562-33.941407 33.945312 0 18.714844 15.226563 33.941406 33.941407 33.941406 18.71875 0 33.945312-15.226562 33.945312-33.941406 0-18.71875-15.226562-33.945312-33.945312-33.945312zm0 61.886718c-15.40625 0-27.941407-12.535156-27.941407-27.941406 0-15.410156 12.535157-27.945312 27.941407-27.945312 15.410156 0 27.945312 12.535156 27.945312 27.945312 0 15.40625-12.535156 27.941406-27.945312 27.941406zm0 0" fill="#3a312a"/><path d="m94.214844 251.445312c-1.738282-13.789062-12.875-24.925781-26.667969-26.664062-20.242187-2.550781-37.265625 14.472656-34.710937 34.714844 1.738281 13.792968 12.871093 24.925781 26.660156 26.664062 20.242187 2.554688 37.269531-14.46875 34.71875-34.714844zm0 0" fill="#fce8cb"/><path d="m97.191406 251.074219c-1.902344-15.0625-14.210937-27.375-29.269531-29.269531-10.578125-1.332032-20.929687 2.191406-28.402344 9.667968-7.476562 7.472656-10.996093 17.828125-9.664062 28.402344 1.902343 15.054688 14.207031 27.363281 29.265625 29.261719 1.472656.1875 2.9375.277343 4.394531.277343 9.003906 0 17.570313-3.503906 24.003906-9.9375 7.480469-7.476562 11.003907-17.828124 9.671875-28.402343zm-13.910156 24.160156c-6.15625 6.152344-14.691406 9.054687-23.410156 7.949219-12.382813-1.5625-22.5-11.683594-24.0625-24.058594-1.097656-8.722656 1.800781-17.257812 7.953125-23.410156 5.296875-5.296875 12.355469-8.1875 19.78125-8.1875 1.203125 0 2.414062.078125 3.628906.230468 12.378906 1.558594 22.503906 11.679688 24.0625 24.0625 1.105469 8.726563-1.796875 17.257813-7.953125 23.414063zm0 0" fill="#3a312a"/><path d="m422.386719 281.492188c0 22.367187-18.132813 40.5-40.5 40.5-22.367188 0-40.5-18.132813-40.5-40.5 0-22.367188 18.132812-40.5 40.5-40.5 22.367187 0 40.5 18.132812 40.5 40.5zm0 0" fill="#fce8cb"/><path d="m381.886719 237.992188c-23.984375 0-43.5 19.511718-43.5 43.5 0 23.984374 19.515625 43.5 43.5 43.5 23.988281 0 43.5-19.515626 43.5-43.5 0-23.988282-19.511719-43.5-43.5-43.5zm0 81c-20.675781 0-37.5-16.824219-37.5-37.5 0-20.679688 16.824219-37.5 37.5-37.5 20.679687 0 37.5 16.820312 37.5 37.5 0 20.675781-16.824219 37.5-37.5 37.5zm0 0" fill="#3a312a"/><path d="m276.023438 265.472656c0 22.367188-18.132813 40.5-40.5 40.5-22.367188 0-40.5-18.132812-40.5-40.5 0-22.367187 18.132812-40.5 40.5-40.5 22.367187 0 40.5 18.132813 40.5 40.5zm0 0" fill="#fce8cb"/><path d="m235.523438 221.972656c-23.984376 0-43.5 19.511719-43.5 43.5 0 23.984375 19.515624 43.5 43.5 43.5 23.988281 0 43.5-19.515625 43.5-43.5 0-23.988281-19.511719-43.5-43.5-43.5zm0 81c-20.675782 0-37.5-16.824218-37.5-37.5 0-20.679687 16.824218-37.5 37.5-37.5 20.679687 0 37.5 16.820313 37.5 37.5 0 20.675782-16.820313 37.5-37.5 37.5zm0 0" fill="#3a312a"/><path d="m379.441406 131.964844c0 22.367187-18.132812 40.5-40.5 40.5-22.367187 0-40.5-18.132813-40.5-40.5 0-22.367188 18.132813-40.5 40.5-40.5 22.367188 0 40.5 18.132812 40.5 40.5zm0 0" fill="#fce8cb"/><path d="m338.941406 88.464844c-23.988281 0-43.5 19.515625-43.5 43.5s19.511719 43.5 43.5 43.5c23.984375 0 43.5-19.515625 43.5-43.5s-19.515625-43.5-43.5-43.5zm0 81c-20.679687 0-37.5-16.820313-37.5-37.5 0-20.675782 16.820313-37.5 37.5-37.5 20.675782 0 37.5 16.824218 37.5 37.5 0 20.679687-16.824218 37.5-37.5 37.5zm0 0" fill="#3a312a"/><path d="m175.855469 322c0 22.367188-18.132813 40.5-40.5 40.5-22.367188 0-40.5-18.132812-40.5-40.5s18.132812-40.5 40.5-40.5c22.367187 0 40.5 18.132812 40.5 40.5zm0 0" fill="#fce8cb"/><path d="m135.355469 278.503906c-23.988281 0-43.5 19.511719-43.5 43.5 0 23.984375 19.511719 43.5 43.5 43.5 23.984375 0 43.5-19.515625 43.5-43.5 0-23.988281-19.515625-43.5-43.5-43.5zm0 81c-20.679688 0-37.5-16.824218-37.5-37.5 0-20.679687 16.820312-37.5 37.5-37.5 20.675781 0 37.5 16.820313 37.5 37.5 0 20.675782-16.824219 37.5-37.5 37.5zm0 0" fill="#3a312a"/><g fill="#b9c239"><path d="m411.042969 201.070312v48.179688c8.800781 7.960938 14.339843 19.480469 14.339843 32.242188 0 12.757812-5.539062 24.277343-14.339843 32.238281v55.621093c0 10.78125-8.777344 19.558594-19.558594 19.558594h34c10.78125 0 19.558594-8.777344 19.558594-19.558594v-168.28125zm0 0"/><path d="m380.085938 82.191406c-26.902344-16.441406-57.722657-22.839844-87.78125-18.980468 18.699218 2.378906 37 8.71875 53.78125 18.980468 39.816406 24.359375 63.9375 66.378906 64.9375 112.878906h34c-1-46.5-25.121094-88.519531-64.9375-112.878906zm0 0"/></g></svg>