<svg height="451pt" viewBox="-2 0 451 451.412" width="451pt" xmlns="http://www.w3.org/2000/svg"><path d="m65.027344 22.355469c-1.949219 23.125-26.050782 26.777343-26.050782 26.777343 20.695313.976563 25.847657 28.121094 25.847657 28.121094.445312-19.355468 26.644531-28.40625 26.644531-28.40625-19.625-1.175781-26.441406-26.492187-26.441406-26.492187zm0 0" fill="#d7e057"/><path d="m91.648438 45.851562c-17.210938-1.03125-23.664063-24.046874-23.726563-24.28125-.382813-1.40625-1.722656-2.316406-3.167969-2.203124-1.449218.132812-2.597656 1.285156-2.71875 2.734374-1.71875 20.429688-22.625 23.929688-23.507812 24.0625-1.523438.234376-2.625 1.582032-2.546875 3.125.082031 1.539063 1.316406 2.769532 2.855469 2.839844 18.054687.851563 23 25.4375 23.046874 25.6875.273438 1.421875 1.515626 2.4375 2.941407 2.4375.085937 0 .167969-.007812.253906-.011718 1.527344-.128907 2.714844-1.386719 2.75-2.921876.386719-17.019531 24.382813-25.554687 24.625-25.636718 1.351563-.46875 2.183594-1.828125 1.988281-3.246094-.199218-1.417969-1.367187-2.5-2.792968-2.585938zm-27.132813 20.691407c-2.714844-6.261719-7.414063-13.8125-15.171875-17.75 5.859375-2.8125 12.816406-7.828125 16.402344-16.546875 3.101562 6.140625 8.398437 13.761718 16.667968 17.445312-6.015624 3.277344-13.84375 8.8125-17.898437 16.851563zm0 0" fill="#3a312a"/><path d="m21.628906 56.316406c-1.378906 16.359375-18.425781 18.941406-18.425781 18.941406 14.636719.6875 18.285156 19.886719 18.285156 19.886719.3125-13.6875 18.84375-20.089843 18.84375-20.089843-13.882812-.832032-18.703125-18.738282-18.703125-18.738282zm0 0" fill="#d7e057"/><path d="m40.511719 72.058594c-11.53125-.6875-15.945313-16.371094-15.988281-16.527344-.378907-1.40625-1.707032-2.328125-3.164063-2.207031-1.453125.132812-2.597656 1.289062-2.71875 2.738281-1.160156 13.742188-15.292969 16.132812-15.882813 16.226562-1.527343.230469-2.628906 1.582032-2.546874 3.121094.078124 1.542969 1.3125 2.769532 2.851562 2.84375 12.074219.566406 15.449219 17.289063 15.480469 17.453125.269531 1.421875 1.515625 2.4375 2.941406 2.4375.085937 0 .167969-.003906.25-.007812 1.53125-.125 2.71875-1.386719 2.753906-2.921875.261719-11.417969 16.664063-17.269532 16.824219-17.324219 1.355469-.46875 2.191406-1.828125 1.992188-3.246094-.195313-1.417969-1.363282-2.5-2.792969-2.585937zm-19.167969 13.589844c-1.851562-3.769532-4.683594-7.890626-8.894531-10.554688 3.710937-2.082031 7.394531-5.261719 9.742187-9.835938 2.113282 3.75 5.308594 7.910157 9.878906 10.449219-3.699218 2.199219-7.976562 5.476563-10.726562 9.941407zm0 0" fill="#3a312a"/><path d="m21.628906 3c-1.378906 16.359375-18.425781 18.941406-18.425781 18.941406 14.636719.6875 18.285156 19.886719 18.285156 19.886719.3125-13.6875 18.84375-20.089844 18.84375-20.089844-13.882812-.832031-18.703125-18.738281-18.703125-18.738281zm0 0" fill="#d7e057"/><path d="m40.511719 18.746094c-11.53125-.691406-15.945313-16.371094-15.988281-16.53125-.378907-1.402344-1.71875-2.316406-3.164063-2.2031252-1.453125.1289062-2.597656 1.2851562-2.71875 2.7343752-1.160156 13.742187-15.292969 16.132812-15.882813 16.226562-1.527343.234375-2.628906 1.582032-2.546874 3.121094.078124 1.542969 1.3125 2.769531 2.855468 2.84375 12.070313.566406 15.445313 17.289062 15.476563 17.453125.269531 1.421875 1.519531 2.4375 2.945312 2.4375.082031 0 .167969-.003906.25-.007813 1.53125-.125 2.71875-1.386718 2.753907-2.921874.261718-11.417969 16.664062-17.269532 16.824218-17.324219 1.355469-.46875 2.191406-1.828125 1.992188-3.246094-.199219-1.414063-1.367188-2.5-2.796875-2.582031zm-19.167969 13.589844c-1.851562-3.773438-4.683594-7.894532-8.894531-10.558594 3.710937-2.082032 7.394531-5.261719 9.742187-9.832032 2.113282 3.746094 5.308594 7.910157 9.878906 10.445313-3.699218 2.199219-7.976562 5.480469-10.726562 9.945313zm0 0" fill="#3a312a"/><path d="m378.058594 74.273438c-24.234375 0-42.179688-19.8125-43.230469-43.234376-.023437-.511718-.023437-1.023437-.023437-1.535156-3.886719 1.941406-8.210938 3.0625-12.746094 3.0625-16.011719 0-29.527344-13.511718-29.527344-29.527344 0-.011718.003906-.023437.003906-.035156h-154.722656c-14.679688 0-26.582031 11.898438-26.582031 26.582032v137.644531h288.90625v-99.328125c-6.660157 4.023437-14.3125 6.371094-22.078125 6.371094zm0 0" fill="#87796f"/><path d="m401.613281 65.289062c-.945312-.53125-2.101562-.511718-3.027343.042969-6.429688 3.882813-13.527344 5.9375-20.527344 5.9375-21.546875 0-39.21875-17.730469-40.234375-40.367187-.019531-.402344-.019531-.800782-.019531-1.203125v-.210938c-.003907-1.035156-.542969-1.996093-1.429688-2.539062-.882812-.542969-1.988281-.589844-2.910156-.128907-3.652344 1.824219-7.492188 2.746094-11.40625 2.746094-14.359375 0-26.492188-12.113281-26.527344-26.464844 0-.035156 0-.070312 0-.101562 0-1.65625-1.34375-3-3-3h-154.71875c-16.308594 0-29.582031 13.269531-29.582031 29.582031v137.644531c0 1.65625 1.34375 3 3 3h288.90625c1.65625 0 3-1.34375 3-3v-99.324218c0-1.082032-.582031-2.082032-1.523438-2.613282zm-4.476562 98.9375h-282.90625v-134.644531c0-13.003906 10.582031-23.582031 23.582031-23.582031h151.863281c1.550781 16.304688 15.75 29.566406 32.382813 29.566406 3.394531 0 6.734375-.554687 9.96875-1.65625 2.414062 24.527344 22.148437 43.359375 46.03125 43.359375 6.460937 0 12.972656-1.496093 19.078125-4.367187zm0 0" fill="#3a312a"/><path d="m185.742188 29.117188h-34.179688c-8.675781 0-15.710938 7.035156-15.710938 15.714843v34.179688c0 8.675781 7.035157 15.710937 15.710938 15.710937h34.179688c8.679687 0 15.714843-7.035156 15.714843-15.710937v-34.179688c0-8.679687-7.035156-15.714843-15.714843-15.714843zm0 0" fill="#87796f"/><path d="m185.742188 26.117188h-34.179688c-10.320312 0-18.714844 8.394531-18.714844 18.714843v34.179688c0 10.316406 8.394532 18.714843 18.714844 18.714843h34.179688c10.320312 0 18.714843-8.394531 18.714843-18.714843v-34.179688c0-10.320312-8.394531-18.714843-18.714843-18.714843zm12.714843 52.894531c0 7.011719-5.703125 12.710937-12.714843 12.710937h-34.179688c-7.007812 0-12.714844-5.703125-12.714844-12.710937v-34.179688c0-7.011719 5.703125-12.714843 12.714844-12.714843h34.179688c7.011718 0 12.714843 5.703124 12.714843 12.714843zm0 0" fill="#3a312a"/><path d="m185.734375 120.839844h-34.179687c-8.679688 0-15.699219 7.039062-15.699219 15.71875v30.660156h65.601562v-30.660156c0-8.679688-7.039062-15.71875-15.722656-15.71875zm0 0" fill="#87796f"/><path d="m185.734375 117.839844h-34.179687c-10.3125 0-18.699219 8.398437-18.699219 18.71875v30.660156c0 1.65625 1.34375 3 3 3h65.601562c1.65625 0 3-1.34375 3-3v-30.660156c0-10.320313-8.398437-18.71875-18.722656-18.71875zm12.722656 46.382812h-59.601562v-27.660156c0-7.015625 5.699219-12.71875 12.699219-12.71875h34.179687c7.015625 0 12.722656 5.707031 12.722656 12.71875zm0 0" fill="#3a312a"/><path d="m272.773438 29.117188h-34.175782c-8.679687 0-15.714844 7.035156-15.714844 15.714843v34.179688c0 8.675781 7.035157 15.710937 15.714844 15.710937h34.175782c8.679687 0 15.714843-7.035156 15.714843-15.710937v-34.179688c0-8.679687-7.035156-15.714843-15.714843-15.714843zm0 0" fill="#87796f"/><path d="m272.773438 26.117188h-34.179688c-10.316406 0-18.714844 8.394531-18.714844 18.714843v34.179688c0 10.316406 8.398438 18.714843 18.714844 18.714843h34.179688c10.320312 0 18.710937-8.394531 18.710937-18.714843v-34.179688c.003906-10.320312-8.390625-18.714843-18.710937-18.714843zm12.714843 52.894531c0 7.011719-5.703125 12.710937-12.710937 12.710937h-34.179688c-7.011718 0-12.714844-5.703125-12.714844-12.710937v-34.179688c0-7.011719 5.703126-12.714843 12.714844-12.714843h34.179688c7.007812 0 12.710937 5.703124 12.710937 12.714843zm0 0" fill="#3a312a"/><path d="m272.769531 120.839844h-34.179687c-8.683594 0-15.703125 7.039062-15.703125 15.71875v30.660156h65.601562v-30.660156c0-8.679688-7.039062-15.71875-15.71875-15.71875zm0 0" fill="#87796f"/><path d="m272.765625 117.839844h-34.179687c-10.308594 0-18.699219 8.398437-18.699219 18.71875v30.660156c0 1.65625 1.339843 3 3 3h65.597656c1.65625 0 3-1.34375 3-3v-30.660156c.003906-10.320313-8.394531-18.71875-18.71875-18.71875zm12.722656 46.382812h-59.601562v-27.660156c0-7.015625 5.699219-12.71875 12.703125-12.71875h34.179687c7.011719 0 12.71875 5.707031 12.71875 12.71875zm0 0" fill="#3a312a"/><path d="m334.828125 31.039062c-.023437-.507812-.023437-1.015624-.023437-1.523437-3.886719 1.933594-8.210938 3.050781-12.746094 3.050781-1.875 0-3.710938-.199218-5.5-.550781-4.015625 2.84375-6.648438 7.519531-6.648438 12.820313v34.175781c0 8.679687 7.039063 15.714843 15.714844 15.714843h34.179688c8.675781 0 15.714843-7.035156 15.714843-15.714843v-4.820313c-22.9375-1.328125-39.675781-20.558594-40.691406-43.152344zm0 0" fill="#87796f"/><path d="m375.695312 71.199219c-20.613281-1.195313-36.894531-18.519531-37.871093-40.296875v-.003906c-.019531-.398438-.019531-.796876-.019531-1.191407v-.207031c-.003907-1.035156-.542969-1.996094-1.425782-2.542969-.882812-.546875-1.984375-.597656-2.910156-.132812-5.140625 2.554687-10.542969 3.378906-16.328125 2.242187-.808594-.160156-1.648437.019532-2.316406.496094-4.953125 3.511719-7.914063 9.21875-7.914063 15.265625v34.179687c0 10.320313 8.394532 18.714844 18.714844 18.714844h34.179688c10.320312 0 18.714843-8.394531 18.714843-18.714844v-4.816406c0-1.589844-1.238281-2.902344-2.824219-2.992187zm-3.175781 7.8125c0 7.011719-5.703125 12.714843-12.714843 12.714843h-34.179688c-7.007812 0-12.710938-5.707031-12.710938-12.714843v-34.179688c0-3.707031 1.640626-7.226562 4.4375-9.632812 5.101563.78125 9.96875.3125 14.679688-1.285157 2.210938 22.578126 19.011719 40.40625 40.492188 43.019532v2.078125zm0 0" fill="#3a312a"/><path d="m359.800781 120.839844h-34.179687c-8.679688 0-15.699219 7.039062-15.699219 15.71875v30.660156h65.597656v-30.660156c0-8.679688-7.039062-15.71875-15.71875-15.71875zm0 0" fill="#87796f"/><path d="m359.800781 117.839844h-34.183593c-10.308594 0-18.699219 8.398437-18.699219 18.71875v30.660156c0 1.65625 1.34375 3 3 3h65.601562c1.65625 0 3-1.34375 3-3v-30.660156c0-10.320313-8.398437-18.71875-18.71875-18.71875zm12.71875 46.382812h-59.601562v-27.660156c0-7.015625 5.699219-12.71875 12.699219-12.71875h34.183593c7.011719 0 12.71875 5.707031 12.71875 12.71875zm0 0" fill="#3a312a"/><path d="m92.085938 167.226562v253.785157c0 15.132812 12.265624 27.398437 27.398437 27.398437h272.402344c15.132812 0 27.398437-12.265625 27.398437-27.398437v-253.785157zm0 0" fill="#8ac6dd"/><path d="m419.285156 164.226562h-327.199218c-1.660157 0-3 1.34375-3 3v174.78125c0 1.652344 1.339843 3 3 3 1.65625 0 3-1.347656 3-3v-171.78125h321.199218v250.789063c0 13.453125-10.945312 24.394531-24.398437 24.394531h-272.402344c-13.453125 0-24.398437-10.945312-24.398437-24.394531v-51.257813c0-1.65625-1.34375-3-3-3s-3 1.34375-3 3v51.257813c0 16.761719 13.636718 30.394531 30.398437 30.394531h272.402344c16.761719 0 30.398437-13.632812 30.398437-30.394531v-253.789063c0-1.65625-1.34375-3-3-3zm0 0" fill="#3a312a"/><path d="m431.507812 167.226562h-353.347656c-6.671875 0-12.074218 5.410157-12.074218 12.078126v31.367187c0 5.890625 4.253906 10.925781 10.066406 11.90625l222.316406 37.484375 30.171875 5.085938 100.859375 17.007812c7.367188 1.242188 14.085938-4.4375 14.085938-11.910156v-90.945313c0-6.664062-5.40625-12.074219-12.078126-12.074219zm0 0" fill="#d7e057"/><path d="m431.507812 164.230469h-353.347656c-8.3125 0-15.074218 6.761719-15.074218 15.074219v31.367187c0 7.382813 5.285156 13.636719 12.566406 14.867187l222.320312 37.488282c1.625.261718 3.179688-.828125 3.457032-2.460938.277343-1.632812-.824219-3.183594-2.460938-3.457031l-222.316406-37.488281c-4.382813-.738282-7.566406-4.503906-7.566406-8.949219v-31.371094c0-5.003906 4.070312-9.074219 9.074218-9.074219h353.347656c5.003907 0 9.074219 4.070313 9.074219 9.074219v90.949219c0 2.675781-1.171875 5.203125-3.214843 6.933594-2.042969 1.726562-4.722657 2.464844-7.371094 2.015625l-100.859375-17.007813c-1.625-.269531-3.179688.828125-3.457031 2.460938-.277344 1.632812.828124 3.183594 2.460937 3.457031l100.859375 17.007813c.839844.140624 1.679688.210937 2.515625.210937 3.535156 0 6.976563-1.242187 9.722656-3.566406 3.394531-2.871094 5.34375-7.066407 5.34375-11.511719v-90.949219c.003907-8.308593-6.761719-15.070312-15.074219-15.070312zm0 0" fill="#3a312a"/><path d="m392.183594 278.921875v142.097656c0 13.441407-10.941406 24.402344-24.398438 24.402344h24.097656c13.460938 0 24.402344-10.960937 24.402344-24.402344v-138.039062zm0 0" fill="#68a8bc"/><path d="m431.503906 170.21875h-24.941406c5 0 9.0625 4.082031 9.0625 9.082031v90.960938c0 2.277343-.839844 4.457031-2.382812 6.117187l16.761718 2.820313c2.640625.441406 5.320313-.300781 7.359375-2.019531 2.039063-1.71875 3.222657-4.257813 3.222657-6.917969v-90.960938c0-5-4.082032-9.082031-9.082032-9.082031zm0 0" fill="#b9c239"/></svg>