<svg height="453pt" viewBox="-29 0 453 453.666" width="453pt" xmlns="http://www.w3.org/2000/svg"><path d="m129.296875 75.597656-11.941406 11.640625c-2.039063 1.984375-2.972657 4.855469-2.496094 7.648438l2.832031 16.441406c1.214844 7.070313-6.210937 12.453125-12.558594 9.113281l-14.753906-7.757812c-2.511718-1.316406-5.539062-1.316406-8.050781 0l-14.753906 7.757812c-6.351563 3.339844-13.773438-2.042968-12.558594-9.113281l2.832031-16.441406c.476563-2.792969-.457031-5.660157-2.496094-7.648438l-11.941406-11.640625c-1.792968-1.757812-2.621094-3.976562-2.621094-6.15625v356.4375h91.128907v-356.4375c0 2.179688-.828125 4.394532-2.621094 6.15625zm0 0" fill="#87796f"/><path d="m131.917969 66.441406c-1.660157 0-3 1.339844-3 3 0 1.058594-.300781 2.617188-1.722657 4.011719l-11.933593 11.636719c-2.746094 2.675781-4.003907 6.523437-3.363281 10.304687l2.832031 16.441407c.375 2.164062-.464844 4.226562-2.242188 5.519531-1.78125 1.292969-4.007812 1.453125-5.960937.425781l-14.753906-7.757812c-3.394532-1.777344-7.445313-1.78125-10.84375.003906l-14.757813 7.753906c-1.949219 1.027344-4.175781.867188-5.957031-.425781-1.777344-1.289063-2.617188-3.351563-2.246094-5.515625l2.835938-16.453125c.640624-3.773438-.617188-7.625-3.359376-10.296875l-11.933593-11.636719c-1.421875-1.394531-1.722657-2.953125-1.722657-4.011719 0-1.660156-1.339843-3-3-3-1.65625 0-3 1.339844-3 3v356.4375c0 1.660156 1.34375 3 3 3h91.128907c1.660156 0 3-1.339844 3-3v-356.4375c0-1.65625-1.34375-3-3-3zm-3 356.4375h-85.128907v-342.722656l9.464844 9.230469c1.335938 1.296875 1.945313 3.167969 1.632813 4.992187l-2.832031 16.441406c-.753907 4.402344 1.019531 8.769532 4.632812 11.390626 3.617188 2.628906 8.324219 2.96875 12.277344.882812l14.753906-7.753906c1.648438-.867188 3.621094-.867188 5.265625 0l14.753906 7.753906c3.957031 2.082031 8.660157 1.746094 12.277344-.882812 3.613281-2.621094 5.386719-6.988282 4.628906-11.390626l-2.828125-16.4375c-.3125-1.832031.300782-3.699218 1.632813-5l9.46875-9.230468zm0 0" fill="#3a312a"/><path d="m105.195312 120.453125-14.753906-7.769531c-2.511718-1.320313-5.539062-1.320313-8.054687 0l-14.753907 7.769531c-5.042968 2.640625-10.777343-.226563-12.289062-5.0625v310.488281h62.023438v-310.136718c-1.671876 4.625-7.246094 7.296874-12.171876 4.710937zm0 0" fill="#87796f"/><path d="m117.882812 112.785156c-1.441406-.242187-2.84375.566406-3.339843 1.9375-.542969 1.507813-1.789063 2.761719-3.324219 3.359375-1.511719.589844-3.160156.488281-4.625-.285156l-14.757812-7.773437c-3.394532-1.78125-7.445313-1.78125-10.84375.003906l-14.746094 7.765625c-1.519532.796875-3.210938.878906-4.757813.234375-1.566406-.648438-2.792969-1.972656-3.28125-3.535156-.441406-1.417969-1.847656-2.292969-3.316406-2.070313-1.464844.222656-2.546875 1.484375-2.546875 2.964844v310.488281c0 1.660156 1.34375 3 3 3h62.023438c1.660156 0 3-1.339844 3-3v-310.132812c-.003907-1.457032-1.046876-2.703126-2.484376-2.957032zm-3.519531 310.09375h-56.023437v-299.699218c.277344.140624.554687.269531.847656.390624 3.171875 1.316407 6.761719 1.152344 9.84375-.460937l14.75-7.769531c1.648438-.867188 3.617188-.867188 5.261719-.003906l14.757812 7.773437c3.03125 1.589844 6.433594 1.792969 9.589844.566406.332031-.128906.65625-.273437.972656-.429687zm0 0" fill="#3a312a"/><path d="m82.394531 112.683594-14.753906 7.773437c-5.046875 2.636719-10.777344-.230469-12.289063-5.066406v310.488281h31.003907v-314.179687c-1.375.015625-2.730469.332031-3.960938.984375zm0 0" fill="#87796f"/><path d="m88.460938 109.5625c-.574219-.5625-1.351563-.902344-2.148438-.863281-1.902344.023437-3.691406.472656-5.3125 1.328125l-14.746094 7.769531c-1.519531.792969-3.210937.875-4.757812.230469-1.566406-.648438-2.792969-1.96875-3.28125-3.535156-.441406-1.414063-1.847656-2.292969-3.316406-2.066407-1.464844.222657-2.546876 1.480469-2.546876 2.964844v310.488281c0 1.65625 1.339844 3 3 3h31.003907c1.65625 0 3-1.34375 3-3v-314.179687c-.003907-.804688-.324219-1.574219-.894531-2.136719zm-5.109376 313.316406h-25v-299.695312c.273438.136718.554688.269531.84375.386718 3.171876 1.316407 6.761719 1.152344 9.84375-.460937l14.3125-7.542969zm0 0" fill="#3a312a"/><path d="m129.296875 75.597656c1.792969-1.757812 2.621094-3.976562 2.621094-6.15625 0-1.089844-.210938-2.164062-.597657-3.167968-1.039062-2.726563-3.449218-4.941407-6.808593-5.433594l-16.511719-2.390625c-2.8125-.40625-5.257812-2.179688-6.503906-4.730469l-7.386719-14.964844c-3.167969-6.417968-12.34375-6.417968-15.511719 0l-7.386718 14.964844c-1.246094 2.550781-3.691407 4.324219-6.503907 4.730469l-16.515625 2.390625c-3.285156.472656-5.660156 2.601562-6.734375 5.257812-.441406 1.054688-.667969 2.199219-.667969 3.339844 0 2.179688.824219 4.398438 2.621094 6.15625l11.9375 11.640625c2.039063 1.988281 2.972656 4.855469 2.5 7.652344l-2.832031 16.441406c-1.214844 7.070313 6.207031 12.449219 12.554687 9.109375l14.753907-7.753906c2.515625-1.320313 5.539062-1.320313 8.054687 0l14.753906 7.753906c6.347657 3.339844 13.769532-2.039062 12.554688-9.109375l-2.832031-16.441406c-.472657-2.796875.457031-5.664063 2.5-7.652344zm0 0" fill="#d7e057"/><path d="m119.449219 89.386719 11.945312-11.648438c2.273438-2.226562 3.523438-5.171875 3.523438-8.296875 0-1.445312-.273438-2.871094-.796875-4.234375-1.507813-3.972656-4.9375-6.714843-9.179688-7.335937l-16.511718-2.390625c-1.839844-.265625-3.425782-1.417969-4.246094-3.089844l-7.386719-14.960937c-1.96875-4.003907-5.972656-6.488282-10.445313-6.488282-4.46875 0-8.472656 2.484375-10.445312 6.484375l-7.390625 14.972657c-.816406 1.667968-2.398437 2.816406-4.242187 3.082031l-16.511719 2.394531c-4.132813.597656-7.53125 3.25-9.074219 7.074219-.589844 1.410156-.898438 2.964843-.898438 4.496093 0 3.121094 1.25 6.070313 3.523438 8.300782l11.945312 11.644531c1.332032 1.296875 1.941407 3.167969 1.632813 4.992187l-2.832031 16.441407c-.757813 4.402343 1.019531 8.769531 4.632812 11.390625 2.039063 1.484375 4.429688 2.238281 6.835938 2.238281 1.851562 0 3.71875-.445313 5.4375-1.351563l14.753906-7.753906c1.648438-.867187 3.621094-.867187 5.265625-.003906l14.753906 7.757812c3.957031 2.082032 8.660157 1.742188 12.277344-.882812 3.613281-2.625 5.386719-6.988281 4.628906-11.394531l-2.828125-16.433594c-.3125-1.835937.300782-3.703125 1.632813-5.003906zm-4.1875-4.296875c-2.746094 2.675781-4.003907 6.523437-3.359375 10.304687l2.832031 16.441407c.371094 2.164062-.464844 4.226562-2.242187 5.519531-1.785157 1.292969-4.011719 1.453125-5.960938.425781l-14.757812-7.757812c-3.390626-1.777344-7.441407-1.78125-10.839844.003906l-14.757813 7.753906c-1.949219 1.027344-4.175781.867188-5.960937-.425781-1.773438-1.289063-2.613282-3.351563-2.242188-5.515625l2.832032-16.453125c.640624-3.773438-.613282-7.625-3.359376-10.296875l-11.933593-11.636719c-1.421875-1.394531-1.71875-2.953125-1.71875-4.011719 0-.746094.152343-1.5.449219-2.21875.757812-1.875 2.355468-3.117187 4.382812-3.414062l16.511719-2.386719c3.804687-.546875 7.082031-2.933594 8.769531-6.375l7.386719-14.964844c.96875-1.964843 2.863281-3.140625 5.0625-3.140625s4.09375 1.171875 5.066406 3.140625l7.378906 14.957031c1.691407 3.449219 4.96875 5.835938 8.773438 6.378907l16.507812 2.390625c2.050781.300781 3.707031 1.621094 4.441407 3.546875.261718.683593.398437 1.382812.398437 2.082031 0 1.058594-.300781 2.617188-1.71875 4.007812zm0 0" fill="#3a312a"/><path d="m129.296875 75.597656c1.792969-1.757812 2.621094-3.976562 2.621094-6.15625 0-1.089844-.210938-2.164062-.597657-3.167968-1.039062-2.726563-3.449218-4.941407-6.808593-5.433594l-16.511719-2.390625c-2.8125-.40625-5.257812-2.179688-6.503906-4.730469l-7.386719-14.964844c-3.167969-6.417968-12.34375-6.417968-15.511719 0l-7.386718 14.964844c-1.246094 2.550781-3.691407 4.324219-6.503907 4.730469l-16.515625 2.390625c-3.285156.472656-5.660156 2.601562-6.734375 5.257812-.441406 1.054688-.667969 2.199219-.667969 3.339844 0 2.179688.824219 4.398438 2.621094 6.15625l11.9375 11.640625c2.039063 1.988281 2.972656 4.855469 2.5 7.652344l-2.832031 16.441406c-1.214844 7.070313 6.207031 12.449219 12.554687 9.109375l14.753907-7.753906c2.515625-1.320313 5.539062-1.320313 8.054687 0l14.753906 7.753906c6.347657 3.339844 13.769532-2.039062 12.554688-9.109375l-2.832031-16.441406c-.472657-2.796875.457031-5.664063 2.5-7.652344zm0 0" fill="#fce8cb"/><path d="m119.449219 89.386719 11.945312-11.648438c2.273438-2.226562 3.523438-5.171875 3.523438-8.296875 0-1.445312-.273438-2.871094-.796875-4.234375-1.507813-3.972656-4.9375-6.714843-9.179688-7.335937l-16.511718-2.390625c-1.839844-.265625-3.425782-1.417969-4.246094-3.089844l-7.386719-14.960937c-1.96875-4.003907-5.972656-6.488282-10.445313-6.488282-4.46875 0-8.472656 2.484375-10.445312 6.484375l-7.390625 14.972657c-.816406 1.667968-2.398437 2.816406-4.242187 3.082031l-16.511719 2.394531c-4.132813.597656-7.53125 3.25-9.074219 7.074219-.589844 1.410156-.898438 2.964843-.898438 4.496093 0 3.121094 1.25 6.070313 3.523438 8.300782l11.945312 11.644531c1.332032 1.296875 1.941407 3.167969 1.632813 4.992187l-2.832031 16.441407c-.757813 4.402343 1.019531 8.769531 4.632812 11.390625 2.039063 1.484375 4.429688 2.238281 6.835938 2.238281 1.851562 0 3.71875-.445313 5.4375-1.351563l14.753906-7.753906c1.648438-.867187 3.621094-.867187 5.265625-.003906l14.753906 7.757812c3.957031 2.082032 8.660157 1.742188 12.277344-.882812 3.613281-2.625 5.386719-6.988281 4.628906-11.394531l-2.828125-16.433594c-.3125-1.835937.300782-3.703125 1.632813-5.003906zm-4.1875-4.296875c-2.746094 2.675781-4.003907 6.523437-3.359375 10.304687l2.832031 16.441407c.371094 2.164062-.464844 4.226562-2.242187 5.519531-1.785157 1.292969-4.011719 1.453125-5.960938.425781l-14.757812-7.757812c-3.390626-1.777344-7.441407-1.78125-10.839844.003906l-14.757813 7.753906c-1.949219 1.027344-4.175781.867188-5.960937-.425781-1.773438-1.289063-2.613282-3.351563-2.242188-5.515625l2.832032-16.453125c.640624-3.773438-.613282-7.625-3.359376-10.296875l-11.933593-11.636719c-1.421875-1.394531-1.71875-2.953125-1.71875-4.011719 0-.746094.152343-1.5.449219-2.21875.757812-1.875 2.355468-3.117187 4.382812-3.414062l16.511719-2.386719c3.804687-.546875 7.082031-2.933594 8.769531-6.375l7.386719-14.964844c.96875-1.964843 2.863281-3.140625 5.0625-3.140625s4.09375 1.171875 5.066406 3.140625l7.378906 14.957031c1.691407 3.449219 4.96875 5.835938 8.773438 6.378907l16.507812 2.390625c2.050781.300781 3.707031 1.621094 4.441407 3.546875.261718.683593.398437 1.382812.398437 2.082031 0 1.058594-.300781 2.617188-1.71875 4.007812zm0 0" fill="#3a312a"/><path d="m352.980469 75.597656-11.941407 11.640625c-2.039062 1.984375-2.96875 4.855469-2.496093 7.648438l2.832031 16.441406c1.214844 7.070313-6.207031 12.453125-12.554688 9.113281l-14.757812-7.757812c-2.511719-1.316406-5.539062-1.316406-8.050781 0l-14.753907 7.757812c-6.347656 3.339844-13.769531-2.042968-12.558593-9.113281l2.832031-16.441406c.476562-2.792969-.457031-5.660157-2.496094-7.648438l-11.941406-11.640625c-1.792969-1.757812-2.621094-3.976562-2.621094-6.15625v356.4375h91.128906v-356.4375c0 2.179688-.828124 4.394532-2.621093 6.15625zm0 0" fill="#87796f"/><path d="m355.601562 66.441406c-1.660156 0-3 1.339844-3 3 0 1.0625-.300781 2.617188-1.722656 4.011719l-11.933594 11.632813c-2.746093 2.675781-4 6.527343-3.359374 10.308593l2.832031 16.441407c.371093 2.167968-.46875 4.230468-2.246094 5.519531-1.78125 1.292969-4.007813 1.453125-5.960937.425781l-14.757813-7.757812c-3.390625-1.777344-7.441406-1.78125-10.839844.003906l-14.757812 7.753906c-1.949219 1.027344-4.175781.867188-5.957031-.425781-1.777344-1.292969-2.617188-3.351563-2.242188-5.519531l2.832031-16.449219c.640625-3.773438-.617187-7.625-3.359375-10.300781l-11.933594-11.636719c-1.421874-1.394531-1.722656-2.953125-1.722656-4.011719 0-1.65625-1.34375-3-3-3-1.660156 0-3 1.34375-3 3v356.441406c0 1.65625 1.339844 3 3 3h91.128906c1.65625 0 3-1.34375 3-3v-356.4375c0-1.65625-1.34375-3-3-3zm-3 356.4375h-85.128906v-342.722656l9.46875 9.230469c1.332032 1.300781 1.941406 3.167969 1.632813 4.992187l-2.832031 16.441406c-.753907 4.402344 1.019531 8.769532 4.628906 11.390626 3.621094 2.625 8.324218 2.964843 12.277344.882812l14.753906-7.753906c1.648437-.867188 3.621094-.867188 5.265625 0l14.753906 7.753906c3.957031 2.082031 8.664063 1.746094 12.277344-.882812 3.609375-2.621094 5.386719-6.988282 4.628906-11.390626l-2.828125-16.433593c-.3125-1.832031.296875-3.699219 1.632812-5l9.464844-9.230469v342.722656zm0 0" fill="#3a312a"/><path d="m328.878906 120.453125-14.753906-7.769531c-2.515625-1.320313-5.539062-1.320313-8.054688 0l-14.753906 7.769531c-5.046875 2.640625-10.78125-.226563-12.292968-5.0625v310.488281h62.023437v-310.136718c-1.671875 4.625-7.246094 7.296874-12.167969 4.710937zm0 0" fill="#87796f"/><path d="m341.566406 112.785156c-1.4375-.242187-2.84375.566406-3.339844 1.9375-.542968 1.507813-1.785156 2.761719-3.324218 3.363282-1.515625.585937-3.15625.484374-4.625-.285157l-14.757813-7.777343c-3.394531-1.78125-7.445312-1.78125-10.84375.003906l-14.746093 7.769531c-1.519532.792969-3.210938.875-4.761719.230469-1.5625-.648438-2.792969-1.96875-3.28125-3.535156-.441407-1.414063-1.835938-2.289063-3.3125-2.066407-1.464844.222657-2.546875 1.480469-2.546875 2.964844v310.488281c0 1.65625 1.339844 3 3 3h62.023437c1.65625 0 3-1.34375 3-3v-310.136718c-.003906-1.457032-1.050781-2.703126-2.484375-2.957032zm-3.519531 310.09375h-56.023437v-299.699218c.273437.140624.558593.269531.84375.386718 3.179687 1.316406 6.765624 1.148438 9.847656-.457031l14.746094-7.769531c1.652343-.867188 3.621093-.867188 5.261718-.003906l14.757813 7.773437c3.03125 1.589844 6.4375 1.792969 9.589843.566406.335938-.128906.65625-.273437.972657-.429687v299.632812zm0 0" fill="#3a312a"/><path d="m306.078125 112.683594-14.753906 7.773437c-5.046875 2.636719-10.78125-.230469-12.292969-5.066406v310.488281h31.003906v-314.179687c-1.371094.015625-2.726562.332031-3.957031.984375zm0 0" fill="#87796f"/><path d="m312.144531 109.5625c-.570312-.5625-1.371093-.902344-2.144531-.863281-1.90625.023437-3.695312.472656-5.320312 1.328125l-14.746094 7.769531c-1.515625.792969-3.207032.875-4.757813.230469-1.566406-.648438-2.792969-1.96875-3.28125-3.535156-.441406-1.414063-1.839843-2.292969-3.316406-2.066407-1.464844.222657-2.546875 1.480469-2.546875 2.964844v310.488281c0 1.65625 1.34375 3 3 3h31.003906c1.65625 0 3-1.34375 3-3v-314.179687c0-.804688-.320312-1.574219-.890625-2.136719zm-5.109375 313.316406h-25v-299.695312c.273438.136718.554688.269531.84375.386718 3.175782 1.316407 6.761719 1.148438 9.84375-.460937l14.3125-7.542969zm0 0" fill="#3a312a"/><path d="m352.980469 75.597656c1.792969-1.757812 2.621093-3.976562 2.621093-6.15625 0-1.089844-.210937-2.164062-.597656-3.167968-1.039062-2.726563-3.449218-4.941407-6.808594-5.433594l-16.511718-2.390625c-2.8125-.40625-5.257813-2.179688-6.503906-4.730469l-7.386719-14.964844c-3.167969-6.417968-12.347657-6.417968-15.511719 0l-7.386719 14.964844c-1.246093 2.550781-3.691406 4.324219-6.503906 4.730469l-16.511719 2.390625c-3.289062.472656-5.664062 2.601562-6.738281 5.257812-.4375 1.054688-.667969 2.199219-.667969 3.339844 0 2.179688.828125 4.398438 2.621094 6.15625l11.941406 11.640625c2.039063 1.988281 2.972656 4.855469 2.496094 7.652344l-2.832031 16.441406c-1.210938 7.070313 6.210937 12.449219 12.558593 9.109375l14.753907-7.753906c2.511719-1.320313 5.539062-1.320313 8.050781 0l14.757812 7.753906c6.347657 3.339844 13.769532-2.039062 12.554688-9.109375l-2.832031-16.441406c-.472657-2.796875.457031-5.664063 2.496093-7.652344zm0 0" fill="#d7e057"/><path d="m343.132812 89.386719 11.949219-11.648438c2.269531-2.226562 3.519531-5.171875 3.519531-8.296875 0-1.445312-.269531-2.875-.796874-4.234375-1.511719-3.972656-4.941407-6.714843-9.179688-7.335937l-16.515625-2.390625c-1.835937-.265625-3.421875-1.417969-4.242187-3.089844l-7.386719-14.960937c-1.972657-4.003907-5.976563-6.488282-10.445313-6.488282-4.472656 0-8.472656 2.484375-10.445312 6.484375l-7.390625 14.972657c-.816407 1.664062-2.402344 2.816406-4.242188 3.082031l-16.511719 2.390625c-4.136718.597656-7.53125 3.253906-9.078124 7.074218-.585938 1.414063-.898438 2.964844-.898438 4.496094 0 3.125 1.25 6.074219 3.527344 8.304688l11.941406 11.640625c1.335938 1.300781 1.945312 3.167969 1.636719 4.992187l-2.835938 16.445313c-.753906 4.402343 1.019531 8.765625 4.632813 11.390625 2.042968 1.480468 4.429687 2.234375 6.835937 2.234375 1.851563 0 3.71875-.445313 5.4375-1.351563l14.753907-7.753906c1.648437-.867188 3.621093-.867188 5.265624-.003906l14.753907 7.757812c3.957031 2.082032 8.664062 1.742188 12.277343-.882812 3.609376-2.625 5.386719-6.988282 4.628907-11.390625l-2.828125-16.4375c-.308594-1.832031.300781-3.703125 1.636718-5zm-4.1875-4.296875c-2.746093 2.671875-4.003906 6.523437-3.359374 10.304687l2.828124 16.441407c.371094 2.167968-.464843 4.230468-2.242187 5.519531-1.78125 1.292969-4.007813 1.453125-5.960937.425781l-14.757813-7.757812c-3.394531-1.777344-7.445313-1.78125-10.84375.003906l-14.753906 7.753906c-1.949219 1.027344-4.175781.867188-5.960938-.425781-1.777343-1.292969-2.613281-3.351563-2.242187-5.519531l2.835937-16.449219c.636719-3.773438-.617187-7.625-3.363281-10.300781l-11.933594-11.636719c-1.421875-1.394531-1.722656-2.953125-1.722656-4.011719 0-.742188.152344-1.5.453125-2.214844.757813-1.875 2.355469-3.121094 4.382813-3.414062l16.507812-2.390625c3.808594-.546875 7.085938-2.933594 8.773438-6.371094l7.382812-14.96875c.972656-1.964844 2.867188-3.140625 5.066406-3.140625 2.199219 0 4.09375 1.175781 5.0625 3.140625l7.382813 14.960937c1.691406 3.445313 4.96875 5.832032 8.773437 6.375l16.503906 2.390626c2.050782.304687 3.710938 1.625 4.441407 3.546874.261719.683594.398437 1.382813.398437 2.085938 0 1.058594-.300781 2.617188-1.714844 4.003906zm0 0" fill="#3a312a"/><path d="m352.980469 75.597656c1.792969-1.757812 2.621093-3.976562 2.621093-6.15625 0-1.089844-.210937-2.164062-.597656-3.167968-1.039062-2.726563-3.449218-4.941407-6.808594-5.433594l-16.511718-2.390625c-2.8125-.40625-5.257813-2.179688-6.503906-4.730469l-7.386719-14.964844c-3.167969-6.417968-12.347657-6.417968-15.511719 0l-7.386719 14.964844c-1.246093 2.550781-3.691406 4.324219-6.503906 4.730469l-16.511719 2.390625c-3.289062.472656-5.664062 2.601562-6.738281 5.257812-.4375 1.054688-.667969 2.199219-.667969 3.339844 0 2.179688.828125 4.398438 2.621094 6.15625l11.941406 11.640625c2.039063 1.988281 2.972656 4.855469 2.496094 7.652344l-2.832031 16.441406c-1.210938 7.070313 6.210937 12.449219 12.558593 9.109375l14.753907-7.753906c2.511719-1.320313 5.539062-1.320313 8.050781 0l14.757812 7.753906c6.347657 3.339844 13.769532-2.039062 12.554688-9.109375l-2.832031-16.441406c-.472657-2.796875.457031-5.664063 2.496093-7.652344zm0 0" fill="#fce8cb"/><path d="m343.132812 89.386719 11.949219-11.648438c2.269531-2.226562 3.519531-5.171875 3.519531-8.296875 0-1.445312-.269531-2.875-.796874-4.234375-1.511719-3.972656-4.941407-6.714843-9.179688-7.335937l-16.515625-2.390625c-1.835937-.265625-3.421875-1.417969-4.242187-3.089844l-7.386719-14.960937c-1.972657-4.003907-5.976563-6.488282-10.445313-6.488282-4.472656 0-8.472656 2.484375-10.445312 6.484375l-7.390625 14.972657c-.816407 1.664062-2.402344 2.816406-4.242188 3.082031l-16.511719 2.390625c-4.136718.597656-7.53125 3.253906-9.078124 7.074218-.585938 1.414063-.898438 2.964844-.898438 4.496094 0 3.125 1.25 6.074219 3.527344 8.304688l11.941406 11.640625c1.335938 1.300781 1.945312 3.167969 1.636719 4.992187l-2.835938 16.445313c-.753906 4.402343 1.019531 8.765625 4.632813 11.390625 2.042968 1.480468 4.429687 2.234375 6.835937 2.234375 1.851563 0 3.71875-.445313 5.4375-1.351563l14.753907-7.753906c1.648437-.867188 3.621093-.867188 5.265624-.003906l14.753907 7.757812c3.957031 2.082032 8.664062 1.742188 12.277343-.882812 3.609376-2.625 5.386719-6.988282 4.628907-11.390625l-2.828125-16.4375c-.308594-1.832031.300781-3.703125 1.636718-5zm-4.1875-4.296875c-2.746093 2.671875-4.003906 6.523437-3.359374 10.304687l2.828124 16.441407c.371094 2.167968-.464843 4.230468-2.242187 5.519531-1.78125 1.292969-4.007813 1.453125-5.960937.425781l-14.757813-7.757812c-3.394531-1.777344-7.445313-1.78125-10.84375.003906l-14.753906 7.753906c-1.949219 1.027344-4.175781.867188-5.960938-.425781-1.777343-1.292969-2.613281-3.351563-2.242187-5.519531l2.835937-16.449219c.636719-3.773438-.617187-7.625-3.363281-10.300781l-11.933594-11.636719c-1.421875-1.394531-1.722656-2.953125-1.722656-4.011719 0-.742188.152344-1.5.453125-2.214844.757813-1.875 2.355469-3.121094 4.382813-3.414062l16.507812-2.390625c3.808594-.546875 7.085938-2.933594 8.773438-6.371094l7.382812-14.96875c.972656-1.964844 2.867188-3.140625 5.066406-3.140625 2.199219 0 4.09375 1.175781 5.0625 3.140625l7.382813 14.960937c1.691406 3.445313 4.96875 5.832032 8.773437 6.375l16.503906 2.390626c2.050782.304687 3.710938 1.625 4.441407 3.546874.261719.683594.398437 1.382813.398437 2.085938 0 1.058594-.300781 2.617188-1.714844 4.003906zm0 0" fill="#3a312a"/><path d="m241.136719 44.652344-11.9375 11.644531c-2.039063 1.988281-2.972657 4.851563-2.5 7.648437l2.832031 16.441407c1.214844 7.070312-6.207031 12.453125-12.554688 9.109375l-14.753906-7.753906c-2.515625-1.316407-5.539062-1.316407-8.054687 0l-14.753907 7.753906c-6.347656 3.34375-13.769531-2.039063-12.554687-9.109375l2.832031-16.441407c.472656-2.796874-.460937-5.660156-2.5-7.648437l-11.9375-11.644531c-1.796875-1.757813-2.621094-3.972656-2.621094-6.152344v356.441406h91.128907v-356.441406c-.003907 2.179688-.832031 4.394531-2.625 6.152344zm0 0" fill="#87796f"/><path d="m243.757812 35.5c-1.65625 0-3 1.34375-3 3 0 1.0625-.296874 2.621094-1.71875 4.011719l-11.933593 11.632812c-2.746094 2.675781-4.003907 6.527344-3.359375 10.308594l2.828125 16.441406c.371093 2.167969-.464844 4.230469-2.242188 5.519531-1.78125 1.296876-4.003906 1.453126-5.960937.429688l-14.757813-7.757812c-3.390625-1.78125-7.445312-1.78125-10.839843 0l-14.757813 7.757812c-1.949219 1.023438-4.175781.867188-5.957031-.429688-1.777344-1.289062-2.617188-3.351562-2.246094-5.515624l2.832031-16.449219c.644531-3.773438-.613281-7.628907-3.359375-10.300781l-11.933594-11.636719c-1.421874-1.390625-1.722656-2.949219-1.722656-4.011719 0-1.65625-1.339844-3-3-3-1.65625 0-3 1.34375-3 3v356.4375c0 1.660156 1.34375 3 3 3h91.128906c1.660157 0 3-1.339844 3-3v-356.4375c0-1.65625-1.34375-3-3-3zm-3 356.4375h-85.128906v-342.722656l9.46875 9.230468c1.332032 1.296876 1.941406 3.167969 1.632813 4.992188l-2.832031 16.445312c-.753907 4.402344 1.019531 8.765626 4.632812 11.390626s8.324219 2.960937 12.273438.878906l14.753906-7.753906c1.648437-.867188 3.617187-.863282 5.265625 0l14.75 7.753906c3.953125 2.082031 8.660156 1.746094 12.277343-.878906 3.613282-2.625 5.390626-6.988282 4.628907-11.390626l-2.828125-16.4375c-.3125-1.832031.296875-3.703124 1.632812-5l9.46875-9.230468v342.722656zm0 0" fill="#3a312a"/><path d="m217.035156 89.515625-14.753906-7.773437c-2.511719-1.316407-5.539062-1.316407-8.054688 0l-14.753906 7.773437c-5.042968 2.636719-10.777344-.230469-12.289062-5.066406v310.488281h62.023437v-310.136719c-1.671875 4.625-7.246093 7.296875-12.171875 4.714844zm0 0" fill="#87796f"/><path d="m229.722656 81.84375c-1.433594-.246094-2.84375.566406-3.335937 1.9375-.542969 1.507812-1.789063 2.761719-3.328125 3.359375-1.511719.589844-3.15625.484375-4.621094-.28125l-14.761719-7.777344c-3.394531-1.777343-7.445312-1.78125-10.84375.003907l-14.746093 7.765624c-1.515626.792969-3.210938.875-4.757813.234376-1.566406-.652344-2.792969-1.972657-3.28125-3.535157-.441406-1.414062-1.839844-2.289062-3.316406-2.070312-1.464844.222656-2.546875 1.484375-2.546875 2.964843v310.488282c0 1.660156 1.34375 3 3 3h62.023437c1.660157 0 3-1.339844 3-3v-310.132813c0-1.457031-1.046875-2.703125-2.484375-2.957031zm-3.515625 310.09375h-56.023437v-299.699219c.273437.140625.554687.273438.84375.390625 3.175781 1.316406 6.761718 1.148438 9.84375-.460937l14.75-7.769531c1.652344-.867188 3.621094-.863282 5.261718-.003907l14.757813 7.777344c3.03125 1.589844 6.4375 1.792969 9.589844.5625.332031-.125.65625-.269531.972656-.429687v299.632812zm0 0" fill="#3a312a"/><path d="m194.238281 81.742188-14.757812 7.773437c-5.042969 2.636719-10.777344-.226563-12.289063-5.0625v310.488281h31.003906v-314.183594c-1.371093.015626-2.726562.335938-3.957031.984376zm0 0" fill="#87796f"/><path d="m200.300781 78.625c-.570312-.566406-1.332031-.886719-2.144531-.867188-1.902344.023438-3.695312.472657-5.316406 1.332032l-14.746094 7.765625c-1.519531.792969-3.210938.875-4.761719.234375-1.5625-.648438-2.789062-1.972656-3.28125-3.535156-.441406-1.414063-1.84375-2.292969-3.3125-2.070313-1.464843.222656-2.546875 1.484375-2.546875 2.964844v310.488281c0 1.660156 1.339844 3 3 3h31.003906c1.65625 0 3-1.339844 3-3v-314.179688c0-.800781-.324218-1.570312-.894531-2.132812zm-5.105469 313.3125h-25.003906v-299.695312c.273438.140624.554688.269531.84375.386718 3.175782 1.320313 6.761719 1.152344 9.84375-.457031l14.3125-7.542969v307.308594zm0 0" fill="#3a312a"/><path d="m241.136719 44.652344c1.796875-1.757813 2.621093-3.972656 2.621093-6.152344 0-1.089844-.210937-2.160156-.597656-3.164062-1.039062-2.726563-3.445312-4.941407-6.804687-5.4375l-16.515625-2.390626c-2.8125-.402343-5.257813-2.179687-6.503906-4.730468l-7.386719-14.964844c-3.167969-6.417969-12.34375-6.417969-15.511719 0l-7.386719 14.964844c-1.246093 2.550781-3.691406 4.328125-6.503906 4.730468l-16.511719 2.390626c-3.289062.476562-5.664062 2.605468-6.738281 5.257812-.4375 1.058594-.667969 2.199219-.667969 3.339844 0 2.183594.828125 4.398437 2.621094 6.15625l11.941406 11.640625c2.039063 1.988281 2.972656 4.855469 2.496094 7.652343l-2.832031 16.441407c-1.214844 7.066406 6.207031 12.449219 12.558593 9.109375l14.753907-7.757813c2.511719-1.316406 5.539062-1.316406 8.050781 0l14.753906 7.757813c6.351563 3.339844 13.773438-2.039063 12.558594-9.109375l-2.832031-16.441407c-.476563-2.796874.457031-5.664062 2.496093-7.652343zm0 0" fill="#d7e057"/><path d="m231.292969 58.445312 11.945312-11.648437c2.269531-2.226563 3.519531-5.171875 3.519531-8.296875 0-1.441406-.265624-2.871094-.792968-4.234375-1.511719-3.972656-4.941406-6.714844-9.179688-7.332031l-16.515625-2.394532c-1.839843-.261718-3.425781-1.414062-4.246093-3.085937l-7.386719-14.964844c-1.96875-4-5.972657-6.48437475-10.441407-6.488281-.003906 0-.003906 0-.003906 0-4.46875 0-8.472656 2.484375-10.445312 6.484375l-7.390625 14.976563c-.8125 1.664062-2.398438 2.816406-4.242188 3.082031l-16.511719 2.390625c-4.132812.597656-7.53125 3.253906-9.074218 7.074218-.589844 1.414063-.898438 2.964844-.898438 4.496094 0 3.125 1.25 6.070313 3.527344 8.300782l11.941406 11.644531c1.332032 1.296875 1.941406 3.167969 1.632813 4.992187l-2.832031 16.445313c-.753907 4.402343 1.019531 8.765625 4.632812 11.390625 2.042969 1.480468 4.429688 2.234375 6.835938 2.234375 1.851562 0 3.71875-.449219 5.4375-1.355469l14.753906-7.753906c1.648437-.863282 3.617187-.863282 5.265625 0l14.75 7.753906c3.960937 2.085938 8.664062 1.746094 12.277343-.878906 3.613282-2.625 5.390626-6.988282 4.628907-11.390625l-2.828125-16.433594c-.304688-1.839844.304687-3.710937 1.640625-5.007813-.003907 0-.003907 0 0 0zm-4.1875-4.296874c-2.746094 2.671874-4.003907 6.527343-3.359375 10.308593l2.828125 16.441407c.371093 2.164062-.464844 4.226562-2.242188 5.519531-1.78125 1.292969-4.003906 1.453125-5.960937.425781l-14.757813-7.753906c-3.390625-1.785156-7.445312-1.785156-10.839843 0l-14.757813 7.753906c-1.949219 1.027344-4.175781.867188-5.957031-.425781-1.777344-1.289063-2.617188-3.355469-2.246094-5.519531l2.832031-16.445313c.644531-3.777344-.613281-7.628906-3.359375-10.304687l-11.933594-11.632813c-1.421874-1.394531-1.722656-2.953125-1.722656-4.011719 0-.746094.152344-1.5.453125-2.21875.757813-1.878906 2.355469-3.121094 4.382813-3.414062l16.507812-2.390625c3.808594-.546875 7.085938-2.933594 8.773438-6.371094l7.382812-14.96875c.972656-1.964844 2.867188-3.140625 5.066406-3.140625 2.203126 0 4.09375 1.175781 5.066407 3.140625l7.378906 14.957031c1.691406 3.449219 4.972656 5.835938 8.773437 6.378906l16.507813 2.394532c2.050781.300781 3.710937 1.617187 4.441406 3.542968.261719.683594.398438 1.382813.398438 2.085938 0 1.0625-.300781 2.621094-1.714844 4.007812zm0 0" fill="#3a312a"/><path d="m241.136719 44.652344c1.796875-1.757813 2.621093-3.972656 2.621093-6.152344 0-1.089844-.210937-2.160156-.597656-3.164062-1.039062-2.726563-3.445312-4.941407-6.804687-5.4375l-16.515625-2.390626c-2.8125-.402343-5.257813-2.179687-6.503906-4.730468l-7.386719-14.964844c-3.167969-6.417969-12.34375-6.417969-15.511719 0l-7.386719 14.964844c-1.246093 2.550781-3.691406 4.328125-6.503906 4.730468l-16.511719 2.390626c-3.289062.476562-5.664062 2.605468-6.738281 5.257812-.4375 1.058594-.667969 2.199219-.667969 3.339844 0 2.183594.828125 4.398437 2.621094 6.15625l11.941406 11.640625c2.039063 1.988281 2.972656 4.855469 2.496094 7.652343l-2.832031 16.441407c-1.214844 7.066406 6.207031 12.449219 12.558593 9.109375l14.753907-7.757813c2.511719-1.316406 5.539062-1.316406 8.050781 0l14.753906 7.757813c6.351563 3.339844 13.773438-2.039063 12.558594-9.109375l-2.832031-16.441407c-.476563-2.796874.457031-5.664062 2.496093-7.652343zm0 0" fill="#fce8cb"/><path d="m231.292969 58.445312 11.945312-11.648437c2.269531-2.226563 3.519531-5.171875 3.519531-8.296875 0-1.441406-.265624-2.871094-.792968-4.234375-1.511719-3.972656-4.941406-6.714844-9.179688-7.332031l-16.515625-2.394532c-1.839843-.261718-3.425781-1.414062-4.246093-3.085937l-7.386719-14.964844c-1.96875-4-5.972657-6.48437475-10.441407-6.488281-.003906 0-.003906 0-.003906 0-4.46875 0-8.472656 2.484375-10.445312 6.484375l-7.390625 14.976563c-.8125 1.664062-2.398438 2.816406-4.242188 3.082031l-16.511719 2.390625c-4.132812.597656-7.53125 3.253906-9.074218 7.074218-.589844 1.414063-.898438 2.964844-.898438 4.496094 0 3.125 1.25 6.070313 3.527344 8.300782l11.941406 11.644531c1.332032 1.296875 1.941406 3.167969 1.632813 4.992187l-2.832031 16.445313c-.753907 4.402343 1.019531 8.765625 4.632812 11.390625 2.042969 1.480468 4.429688 2.234375 6.835938 2.234375 1.851562 0 3.71875-.449219 5.4375-1.355469l14.753906-7.753906c1.648437-.863282 3.617187-.863282 5.265625 0l14.75 7.753906c3.960937 2.085938 8.664062 1.746094 12.277343-.878906 3.613282-2.625 5.390626-6.988282 4.628907-11.390625l-2.828125-16.433594c-.304688-1.839844.304687-3.710937 1.640625-5.007813-.003907 0-.003907 0 0 0zm-4.1875-4.296874c-2.746094 2.671874-4.003907 6.527343-3.359375 10.308593l2.828125 16.441407c.371093 2.164062-.464844 4.226562-2.242188 5.519531-1.78125 1.292969-4.003906 1.453125-5.960937.425781l-14.757813-7.753906c-3.390625-1.785156-7.445312-1.785156-10.839843 0l-14.757813 7.753906c-1.949219 1.027344-4.175781.867188-5.957031-.425781-1.777344-1.289063-2.617188-3.355469-2.246094-5.519531l2.832031-16.445313c.644531-3.777344-.613281-7.628906-3.359375-10.304687l-11.933594-11.632813c-1.421874-1.394531-1.722656-2.953125-1.722656-4.011719 0-.746094.152344-1.5.453125-2.21875.757813-1.878906 2.355469-3.121094 4.382813-3.414062l16.507812-2.390625c3.808594-.546875 7.085938-2.933594 8.773438-6.371094l7.382812-14.96875c.972656-1.964844 2.867188-3.140625 5.066406-3.140625 2.203126 0 4.09375 1.175781 5.066407 3.140625l7.378906 14.957031c1.691406 3.449219 4.972656 5.835938 8.773437 6.378906l16.507813 2.394532c2.050781.300781 3.710937 1.617187 4.441406 3.542968.261719.683594.398438 1.382813.398438 2.085938 0 1.0625-.300781 2.621094-1.714844 4.007812zm0 0" fill="#3a312a"/><path d="m367.535156 166.40625h-.460937c-26.558594 0-51.078125 13.121094-66.941407 34.441406-18.71875 25.160156-57.339843 42.417969-101.9375 42.417969-44.601562 0-83.222656-17.257813-101.941406-42.417969-15.859375-21.320312-40.378906-34.441406-66.941406-34.441406h-.457031c-15.761719 0-27.742188 14.140625-25.179688 29.679688l6.191407 37.5 5.09375 30.8125 3.296874 19.925781 12.296876 74.621093 3.882812 23.460938 7.738281 46.898438c2.039063 12.320312 12.679688 21.359374 25.179688 21.359374h261.679687c12.5 0 23.140625-9.039062 25.179688-21.359374l7.742187-46.898438 3.878907-23.460938 12.300781-74.621093 3.878906-23.457031 10.699219-64.78125c2.558594-15.542969-9.421875-29.679688-25.179688-29.679688zm0 0" fill="#8ac6dd"/><path d="m389.273438 173.46875c-5.425782-6.398438-13.351563-10.066406-21.738282-10.066406h-.460937c-27.21875 0-52.492188 12.996094-69.347657 35.652344-18.914062 25.417968-57.050781 41.210937-99.53125 41.210937-42.484374 0-80.621093-15.792969-99.535156-41.210937-16.855468-22.65625-42.128906-35.652344-69.347656-35.652344h-.457031c-8.390625 0-16.3125 3.667968-21.742188 10.066406-5.429687 6.398438-7.761719 14.820312-6.398437 23.105469l6.195312 37.5c.269532 1.632812 1.808594 2.746093 3.449219 2.46875 1.632813-.269531 2.738281-1.8125 2.46875-3.449219l-6.195313-37.496094c-1.078124-6.542968.765626-13.195312 5.054688-18.246094 4.285156-5.050781 10.542969-7.949218 17.167969-7.949218h.457031c25.304688 0 48.824219 12.113281 64.535156 33.234375 20.023438 26.910156 60.007813 43.628906 104.347656 43.628906 44.339844 0 84.320313-16.71875 104.347657-43.632813 15.707031-21.117187 39.230469-33.230468 64.53125-33.230468h.460937c6.625 0 12.882813 2.898437 17.164063 7.949218 4.292969 5.050782 6.132812 11.703126 5.054687 18.242188l-38.5 233.21875c-1.808594 10.921875-11.152344 18.851562-22.21875 18.851562h-261.679687c-11.070313 0-20.414063-7.929687-22.222657-18.847656l-27.214843-164.910156c-.273438-1.632812-1.832031-2.742188-3.449219-2.46875-1.632812.269531-2.742188 1.816406-2.46875 3.449219l27.214844 164.910156c2.289062 13.832031 14.125 23.867187 28.140625 23.867187h261.679687c14.015625 0 25.847656-10.035156 28.140625-23.871093l38.5-233.222657c1.363281-8.28125-.96875-16.703124-6.402343-23.101562zm0 0" fill="#3a312a"/><path d="m18.253906 284.324219 12.300782 74.621093 3.878906 23.460938h327.519531l3.882813-23.460938 12.296874-74.621093zm0 0" fill="#f16c7a"/><path d="m380.421875 282.382812c-.570313-.671874-1.40625-1.058593-2.289063-1.058593h-81.3125c-1.65625 0-3 1.34375-3 3 0 1.660156 1.34375 3 3 3h77.777344l-15.1875 92.082031h-322.429687l-15.191407-92.082031h245.75c1.660157 0 3-1.339844 3-3 0-1.65625-1.339843-3-3-3h-249.285156c-.878906 0-1.71875.386719-2.289062 1.058593-.570313.671876-.816406 1.5625-.671875 2.429688l16.179687 98.082031c.242188 1.449219 1.492188 2.511719 2.960938 2.511719h327.519531c1.46875 0 2.722656-1.0625 2.960937-2.511719l16.179688-98.082031c.144531-.867188-.101562-1.757812-.671875-2.429688zm0 0" fill="#3a312a"/><path d="m384.699219 177.347656c-4.277344-5.042968-10.539063-7.941406-17.160157-7.941406h-.457031c-6.160156 0-12.203125.71875-18.0625 2.101562 2.902344 1.359376 5.519531 3.339844 7.660157 5.839844 3.5 4.117188 5.359374 9.257813 5.359374 14.558594 0 1.238281-.097656 2.460938-.296874 3.699219l-14.140626 85.71875h28l14.160157-85.71875c.199219-1.238281.296875-2.460938.296875-3.699219 0-5.300781-1.859375-10.441406-5.359375-14.558594zm0 0" fill="#68a8bc"/><path d="m330.398438 385.40625-7.15625 43.398438c-1.800782 10.941406-11.160157 18.859374-22.222657 18.859374h28.019531c11.0625 0 20.402344-7.917968 22.222657-18.859374l7.160156-43.398438zm0 0" fill="#68a8bc"/><path d="m346.582031 287.324219-15.183593 92.082031h28.023437l15.179687-92.082031zm0 0" fill="#d34e5c"/></svg>