<svg height="452pt" viewBox="-12 0 452 452.0281" width="452pt" xmlns="http://www.w3.org/2000/svg"><path d="m64.835938 22.355469c-1.949219 23.128906-26.050782 26.78125-26.050782 26.78125 20.691406.972656 25.851563 28.117187 25.851563 28.117187.441406-19.355468 26.640625-28.402344 26.640625-28.402344-19.628906-1.175781-26.441406-26.496093-26.441406-26.496093zm0 0" fill="#d7e057"/><path d="m91.457031 45.855469c-17.207031-1.03125-23.664062-24.050781-23.726562-24.285157-.378907-1.402343-1.695313-2.332031-3.167969-2.203124-1.449219.132812-2.59375 1.285156-2.714844 2.734374-1.722656 20.433594-22.628906 23.929688-23.511718 24.066407-1.527344.230469-2.625 1.582031-2.546876 3.121093.078126 1.542969 1.3125 2.769532 2.855469 2.84375 18.054688.851563 22.996094 25.433594 23.042969 25.683594.273438 1.421875 1.519531 2.4375 2.945312 2.4375.082032 0 .167969-.003906.25-.011718 1.53125-.128907 2.714844-1.386719 2.75-2.921876.386719-17.015624 24.382813-25.550781 24.625-25.636718 1.351563-.46875 2.183594-1.828125 1.988282-3.242188-.195313-1.421875-1.363282-2.503906-2.789063-2.585937zm-27.132812 20.691406c-2.710938-6.261719-7.417969-13.816406-15.175781-17.753906 5.863281-2.808594 12.820312-7.824219 16.40625-16.542969 3.101562 6.140625 8.398437 13.757812 16.667968 17.445312-6.015625 3.277344-13.84375 8.808594-17.898437 16.851563zm0 0" fill="#3a312a"/><path d="m21.4375 56.316406c-1.378906 16.359375-18.425781 18.941406-18.425781 18.941406 14.636719.6875 18.285156 19.886719 18.285156 19.886719.3125-13.6875 18.84375-20.089843 18.84375-20.089843-13.882813-.832032-18.703125-18.738282-18.703125-18.738282zm0 0" fill="#d7e057"/><path d="m40.316406 72.058594c-11.53125-.6875-15.941406-16.371094-15.984375-16.527344-.378906-1.40625-1.730469-2.335938-3.164062-2.207031-1.453125.132812-2.601563 1.289062-2.722657 2.738281-1.15625 13.742188-15.292968 16.132812-15.882812 16.226562-1.523438.230469-2.625 1.582032-2.5429688 3.121094.078125 1.542969 1.3124998 2.769532 2.8554688 2.84375 12.070312.566406 15.445312 17.289063 15.476562 17.453125.269532 1.421875 1.515626 2.4375 2.945313 2.4375.082031 0 .164063-.003906.246094-.007812 1.53125-.125 2.71875-1.386719 2.753906-2.921875.261719-11.417969 16.664063-17.269532 16.824219-17.324219 1.351562-.46875 2.1875-1.828125 1.992187-3.246094-.195312-1.417969-1.367187-2.5-2.796875-2.585937zm-19.167968 13.589844c-1.847657-3.769532-4.679688-7.890626-8.890626-10.554688 3.707032-2.082031 7.390626-5.261719 9.738282-9.835938 2.117187 3.75 5.308594 7.910157 9.882812 10.449219-3.699218 2.199219-7.976562 5.480469-10.730468 9.941407zm0 0" fill="#3a312a"/><path d="m21.4375 3.003906c-1.378906 16.355469-18.425781 18.9375-18.425781 18.9375 14.636719.691406 18.285156 19.890625 18.285156 19.890625.3125-13.691406 18.84375-20.09375 18.84375-20.09375-13.882813-.828125-18.703125-18.734375-18.703125-18.734375zm0 0" fill="#d7e057"/><path d="m40.316406 18.746094c-11.53125-.691406-15.941406-16.371094-15.984375-16.53125-.378906-1.402344-1.730469-2.332032-3.164062-2.2031252-1.453125.1289062-2.601563 1.2851562-2.722657 2.7382812-1.15625 13.738281-15.292968 16.128906-15.882812 16.222656-1.523438.234375-2.625 1.582032-2.5429688 3.125.078125 1.539063 1.3124998 2.769532 2.8554688 2.839844 12.070312.570312 15.445312 17.289062 15.476562 17.453125.269532 1.425781 1.515626 2.441406 2.945313 2.441406.082031 0 .164063-.003906.246094-.011719 1.53125-.125 2.71875-1.382812 2.753906-2.921874.261719-11.417969 16.664063-17.265626 16.824219-17.324219 1.351562-.464844 2.1875-1.824219 1.992187-3.242188-.195312-1.417969-1.367187-2.5-2.796875-2.585937zm-19.167968 13.589844c-1.847657-3.773438-4.679688-7.894532-8.890626-10.558594 3.707032-2.082032 7.390626-5.257813 9.738282-9.832032 2.117187 3.746094 5.308594 7.90625 9.882812 10.445313-3.699218 2.203125-7.976562 5.480469-10.730468 9.945313zm0 0" fill="#3a312a"/><path d="m224.949219 3.117188-54.636719 145.007812h41.652344l54.636718-145.007812zm0 0" fill="#87796f"/><path d="m269.066406 1.410156c-.558594-.808594-1.480468-1.292968-2.464844-1.292968h-41.652343c-1.246094 0-2.367188.773437-2.804688 1.941406l-54.636719 145.011718c-.347656.921876-.21875 1.957032.339844 2.765626.558594.808593 1.484375 1.292968 2.464844 1.292968h41.652344c1.246094 0 2.367187-.773437 2.804687-1.941406l54.636719-145.011719c.351562-.921875.222656-1.953125-.339844-2.765625zm-59.179687 143.71875h-35.238281l52.378906-139.011718h35.238281zm0 0" fill="#3a312a"/><path d="m398.527344 143.261719c-20.175782-36.296875-58.78125-58.472657-100.3125-58.472657h-159.515625c-41.585938 0-80.214844 22.253907-100.394531 58.613282-5.023438 9.054687-9.382813 18.527344-13.015626 28.355468l-8.402343 29.34375c-2.683594 12.933594-4.171875 26.304688-4.300781 40.003907-1.097657 112.808593 90.136718 206.332031 202.941406 207.902343 115.046875 1.597657 208.816406-91.183593 208.816406-205.863281-.003906-36.25-9.371094-70.300781-25.816406-99.882812zm0 0" fill="#d7e057"/><path d="m401.148438 141.804688c-20.582032-37.019532-60.023438-60.015626-102.933594-60.015626h-159.511719c-42.949219 0-82.425781 23.050782-103.019531 60.160157-5.117188 9.222656-9.558594 18.898437-13.207032 28.765625-.574218 1.554687.21875 3.28125 1.773438 3.855468 1.554688.582032 3.28125-.214843 3.855469-1.773437 3.542969-9.582031 7.859375-18.980469 12.828125-27.9375 19.535156-35.203125 57-57.070313 97.769531-57.070313h159.515625c40.734375 0 78.164062 21.816407 97.691406 56.929688 16.636719 29.929688 25.433594 63.964844 25.433594 98.425781 0 54.722657-21.460938 106.03125-60.429688 144.460938-38.273437 37.742187-88.75 58.421875-142.433593 58.421875-.964844 0-1.941407-.007813-2.910157-.019532-111.351562-1.550781-201.0625-93.457031-199.980468-204.875.128906-13.226562 1.550781-26.488281 4.238281-39.421874.335937-1.621094-.703125-3.207032-2.328125-3.546876-1.617188-.34375-3.207031.703126-3.546875 2.328126-2.765625 13.3125-4.234375 26.96875-4.367187 40.582031-1.113282 114.710937 91.253906 209.335937 205.898437 210.933593 1 .011719 1.996094.019532 2.996094.019532 55.265625 0 107.242187-21.292969 146.644531-60.152344 40.121094-39.566406 62.214844-92.386719 62.214844-148.730469 0-35.480469-9.054688-70.519531-26.191406-101.339843zm0 0" fill="#3a312a"/><path d="m296.0625 67.851562c-19.707031-5.207031-69.09375-6.933593-108.546875-5.191406l-30.0625 2.300782c-6.648437.804687-12.335937 1.761718-16.601563 2.890624-36.476562 9.640626-62.9375 26.449219-59.097656 37.542969 3.582032 10.363281 32.347656 12.066407 65.859375 4.382813-18.527343 23.539062-26.007812 45.996094-16.625 52.378906 10.464844 7.117188 37.910157-8.4375 61.308594-34.734375.738281-.828125 1.460937-1.65625 2.171875-2.484375-.003906.347656-.011719.695312-.011719 1.042969 0 33.320312 10.746094 60.328125 24 60.328125 13.253907 0 24-27.007813 24-60.328125 0-.347657-.007812-.695313-.007812-1.042969.707031.828125 1.433593 1.65625 2.167969 2.484375 23.398437 26.296875 50.847656 41.851563 61.308593 34.734375 9.386719-6.382812 1.90625-28.839844-16.621093-52.378906 33.511718 7.683594 62.277343 5.980468 65.863281-4.382813 3.832031-11.089843-22.628907-27.902343-59.105469-37.542969zm0 0" fill="#fce8cb"/><path d="m356.90625 97.226562c-6.085938-11.414062-30.226562-24.382812-60.074219-32.277343-21.320312-5.632813-72.300781-6.929688-109.449219-5.289063-1.65625.074219-2.9375 1.472656-2.863281 3.128906.070313 1.65625 1.476563 2.941407 3.125 2.867188 37.214844-1.648438 87.65625-.191406 107.648438 5.09375 32.550781 8.605469 52.011719 21.21875 56.316406 29.296875.910156 1.707031 1.144531 3.132813.714844 4.371094-2.589844 7.484375-28.269531 10.253906-62.359375 2.4375-1.234375-.277344-2.523438.246093-3.203125 1.320312-.679688 1.074219-.613281 2.457031.175781 3.457031 13.496094 17.148438 21.296875 34.171876 19.875 43.375-.339844 2.191407-1.183594 3.71875-2.582031 4.671876-7.929688 5.386718-33.445313-7.347657-57.375-34.25-.726563-.8125-1.4375-1.625-2.132813-2.441407-.820312-.957031-2.140625-1.292969-3.328125-.859375-1.179687.4375-1.957031 1.566406-1.953125 2.828125l.011719 1.027344c0 33.785156-11.066406 57.324219-21 57.324219s-21-23.539063-21-57.324219l.007813-1.027344c.007812-1.261719-.769532-2.386719-1.949219-2.828125-1.179688-.433594-2.507813-.097656-3.324219.855469-.703125.816406-1.414062 1.628906-2.136719 2.445313-23.933593 26.902343-49.445312 39.640624-57.375 34.25-1.398437-.953126-2.242187-2.480469-2.582031-4.671876-1.421875-9.203124 6.375-26.226562 19.875-43.375.789062-1 .855469-2.382812.175781-3.457031-.679687-1.074219-1.96875-1.597656-3.203125-1.320312-34.089844 7.816406-59.769531 5.046875-62.359375-2.4375-.429687-1.234375-.195312-2.664063.714844-4.371094 4.304687-8.078125 23.765625-20.691406 56.316406-29.296875 3.953125-1.042969 9.402344-1.988281 16.191407-2.808594 1.644531-.203125 2.820312-1.695312 2.621093-3.339844-.199219-1.644531-1.699219-2.816406-3.335937-2.617187-7.066406.855469-12.789063 1.851563-17.007813 2.964844-29.851562 7.890625-53.992187 20.863281-60.078125 32.277343-1.710937 3.214844-2.082031 6.292969-1.09375 9.148438 4.476563 12.9375 33.671875 13.253906 61.539063 7.96875-11.625 16.382812-17.78125 31.902344-16.285157 41.578125.589844 3.816406 2.367188 6.832031 5.132813 8.714844 13.113281 8.917969 41.171875-9.398438 62.296875-31.996094 1.375 32.265625 12.679688 56.667969 26.859375 56.667969s25.480469-24.402344 26.859375-56.667969c21.121094 22.597656 49.179688 40.910156 62.296875 31.996094 2.769531-1.882813 4.542969-4.898438 5.136719-8.714844 1.492187-9.675781-4.664063-25.195313-16.289063-41.578125 27.871094 5.285156 57.058594 4.964844 61.539063-7.96875.992187-2.855469.625-5.933594-1.089844-9.148438zm0 0" fill="#3a312a"/><path d="m395.898438 144.71875c-9.101563-16.398438-22.121094-29.878906-37.558594-39.621094-.082032.441406-.203125.863282-.339844 1.28125-2.382812 6.839844-11.683594 10.160156-24.0625 10.980469 8.5 7.796875 15.820312 17 21.5625 27.359375 16.636719 29.941406 25.4375 63.960938 25.4375 98.417969 0 54.742187-21.460938 106.042969-60.417969 144.460937-33.402343 32.941406-76.101562 52.878906-122.121093 57.421875 5.660156.578125 11.378906.898438 17.160156.980469.980468.019531 1.960937.019531 2.917968.019531 53.679688 0 104.160157-20.679687 142.441407-58.421875 38.960937-38.417968 60.421875-89.71875 60.421875-144.460937-.003906-34.457031-8.800782-68.480469-25.441406-98.417969zm0 0" fill="#b9c239"/><path d="m351.617188 100.058594c-4.320313-8.082032-23.777344-20.699219-56.320313-29.300782-17.457031-4.621093-59.898437-6.441406-96.917969-5.417968 23.777344.636718 45.300782 2.457031 56.519532 5.417968 32.539062 8.601563 52 21.21875 56.320312 29.300782.898438 1.699218 1.140625 3.121094.71875 4.359375-.757812 2.179687-3.460938 3.941406-7.738281 5.179687 26.820312 4.179688 45.917969 1.21875 48.140625-5.179687.417968-1.238281.179687-2.660157-.722656-4.359375zm0 0" fill="#decaad"/></svg>