<svg height="451pt" viewBox="-5 0 451 451.57679" width="451pt" xmlns="http://www.w3.org/2000/svg"><path d="m376.78125 311.296875c.207031-.4375.410156-.871094.609375-1.3125.660156-1.472656 2.3125-2.226563 3.855469-1.785156 4.667968 1.355469 9.5 1.921875 14.339844 1.699219h.003906c11.746094-.554688 22.578125-5.648438 30.492187-14.34375 7.914063-8.703126 11.964844-19.960938 11.414063-31.710938-1.105469-23.449219-20.34375-41.882812-43.800782-41.957031-1.613281-.007813-2.984374-1.199219-3.199218-2.800781l-.050782-.351563c-.078124-.582031-.15625-1.167969-.242187-1.75-.238281-1.59375.738281-3.121094 2.285156-3.578125 4.664063-1.382812 9.035157-3.515625 12.996094-6.332031 9.585937-6.820313 15.9375-16.964844 17.890625-28.5625 1.953125-11.597657-.726562-23.261719-7.546875-32.84375-13.617187-19.132813-39.769531-24.226563-59.546875-11.59375-1.359375.871093-3.152344.605469-4.203125-.625-.460937-.535157-.921875-1.070313-1.386719-1.601563-1.0625-1.210937-1.070312-3.023437-.015625-4.246094 3.179688-3.6875 5.710938-7.851562 7.523438-12.375 9.023437-22.539062-1.972657-48.214843-24.511719-57.242187-21.785156-8.722656-46.53125 1.125-56.339844 22.421875-.675781 1.464844-2.328125 2.203125-3.871094 1.75l-2.035156-.605469c-1.550781-.445312-2.539062-1.964843-2.316406-3.566406.671875-4.804687.546875-9.664063-.375-14.433594-2.230469-11.546875-8.816406-21.535156-18.558594-28.125-9.742187-6.589843-21.457031-8.988281-33.015625-6.765625-23.039062 4.445313-38.527343 26.109375-35.265625 49.324219.226563 1.601563-.765625 3.121094-2.320312 3.566406l-1.597656.476563c-1.554688.46875-3.199219-.289063-3.871094-1.753906-2.023438-4.421876-4.75-8.445313-8.09375-11.964844-8.097656-8.535156-19.03125-13.398438-30.785156-13.707032-11.796876-.335937-22.929688 3.984376-31.460938 12.082032-17.035156 16.167968-18.40625 42.78125-3.117188 60.585937 1.050782 1.226563 1.039063 3.042969-.03125 4.253907l-.167968.191406c-.410156.464844-.816406.925781-1.21875 1.394531-1.054688 1.222656-2.84375 1.488281-4.207032.617187-3.859374-2.480468-8.070312-4.304687-12.5-5.476562l-29.855468 2.65625c-11.679688 5.453125-20.886719 15.949219-24.179688 29.414062-5.582031 22.800782 7.648438 45.925782 30.117188 52.640626 1.546875.460937 2.515625 1.988281 2.277344 3.578124-.082032.570313-.160157 1.148438-.238282 1.722657l-.050781.375c-.222656 1.601562-1.589844 2.796875-3.207031 2.800781-4.871094.007812-9.671875.8125-14.269532 2.394531-11.121093 3.828125-20.085937 11.757813-25.246093 22.328125-5.15625 10.570313-5.886719 22.511719-2.058594 33.632813 7.636719 22.191406 31.261719 34.484375 53.789063 27.992187 1.546874-.453125 3.191406.316406 3.847656 1.785156.292968.644532.585937 1.289063.886718 1.929688.679688 1.460938.175782 3.207031-1.179687 4.085938-4.085937 2.636718-7.683594 5.90625-10.695313 9.71875-15.035156 19.0625-11.757812 46.804687 7.300782 61.839843 18.4375 14.539063 44.96875 12.097657 60.402344-5.570312 1.0625-1.210938 2.859374-1.460938 4.207031-.578125l1.777343 1.152344c1.359376.867187 1.878907 2.601562 1.210938 4.074218-2.015625 4.429688-3.273438 9.128906-3.742188 13.964844-2.339843 24.167969 15.417969 45.730469 39.582032 48.066406 23.371094 2.265625 44.375-14.148437 47.796875-37.367187.234375-1.589844 1.597656-2.769531 3.203125-2.769531h.03125l1.269531.019531.847656-.011719c1.609375 0 2.976563 1.183594 3.207031 2.773438.703126 4.824218 2.1875 9.464843 4.417969 13.792968 11.101563 21.589844 37.6875 30.125 59.289063 19.023438 20.878906-10.734375 29.664062-35.886719 20-57.257813-.664063-1.46875-.144532-3.203125 1.214844-4.066406l1.785156-1.148437c1.355468-.882813 3.148437-.632813 4.207031.585937 3.195313 3.671875 6.953125 6.773437 11.164063 9.203125 10.175781 5.890625 22.042968 7.460938 33.40625 4.425781 11.363281-3.035156 20.863281-10.3125 26.75-20.496093 11.75-20.3125 5.542968-46.214844-14.128907-58.96875-1.355469-.878907-1.855469-2.621094-1.175781-4.082032zm0 0" fill="#fce8cb"/><path d="m440.492188 263.703125c-1.175782-25.050781-21.730469-44.738281-46.785157-44.816406-.121093 0-.222656-.089844-.242187-.214844l-.042969-.335937c-.078125-.597657-.160156-1.191407-.25-1.792969-.015625-.117188.054687-.226563.167969-.261719 4.976562-1.472656 9.648437-3.75 13.882812-6.765625 10.234375-7.28125 17.023438-18.117187 19.113282-30.503906 2.085937-12.386719-.78125-24.84375-8.0625-35.082031-14.542969-20.433594-42.480469-25.875-63.613282-12.378907-.101562.058594-.226562.039063-.296875-.042969-.464843-.546874-.9375-1.089843-1.414062-1.632812-.078125-.089844-.078125-.21875.003906-.3125 3.394531-3.941406 6.097656-8.386719 8.035156-13.21875 9.636719-24.070312-2.109375-51.5-26.183593-61.140625-23.269532-9.316406-49.703126 1.207031-60.183594 23.953125-.046875.109375-.171875.160156-.289063.128906l-2.066406-.617187c-.113281-.03125-.183594-.144531-.167969-.261719.714844-5.132812.582032-10.320312-.398437-15.421875-2.382813-12.335937-9.425781-23.003906-19.828125-30.042969-10.394532-7.03125-22.910156-9.601562-35.261719-7.222656-24.609375 4.746094-41.152344 27.886719-37.667969 52.6875.015625.117188-.058594.230469-.207031.273438l-1.613281.480468c-.097656.027344-.21875-.023437-.269532-.132812-2.164062-4.71875-5.074218-9.023438-8.644531-12.78125-8.648437-9.117188-20.328125-14.3125-32.878906-14.640625-12.492187-.359375-24.464844 4.230469-33.605469 12.90625-18.199218 17.273437-19.664062 45.699219-3.332031 64.714843.078125.09375.078125.222657.007813.304688l-.183594.203125c-.414063.46875-.828125.941406-1.242188 1.421875-.078125.09375-.210937.105469-.308594.046875-4.070312-2.613281-8.5625-4.585937-13.355468-5.855469-1.589844-.417968-3.238282.53125-3.667969 2.136719-.425781 1.601563.53125 3.242187 2.132813 3.667969 4.183593 1.109375 8.101562 2.824218 11.652343 5.101562 2.597657 1.660156 6.078125 1.152344 8.089844-1.179687l1.371094-1.5625c2.046875-2.320313 2.070312-5.84375.054687-8.195313-14.246094-16.585937-12.96875-41.382812 2.910156-56.453125 7.976563-7.570312 18.375-11.558593 29.3125-11.261719 10.957032.289063 21.144532 4.824219 28.691407 12.773438 3.113281 3.285156 5.652343 7.035156 7.542969 11.148438 1.285156 2.824218 4.492187 4.273437 7.449218 3.382812l1.5625-.46875c2.980469-.847656 4.90625-3.800781 4.46875-6.867188-3.039062-21.632812 11.398438-41.820312 32.863282-45.960937 10.769531-2.0625 21.695312.167969 30.765624 6.304687 9.078126 6.136719 15.21875 15.445313 17.296876 26.207032.859374 4.453125.972656 8.976562.351562 13.453125-.433594 3.0625 1.484375 6.015625 4.429688 6.855469l2.042968.609374c2.960938.871094 6.15625-.582031 7.441406-3.371093 9.136719-19.84375 32.207032-29.023438 52.503907-20.890625 21.003906 8.410156 31.25 32.339844 22.839843 53.339844-1.6875 4.214843-4.046874 8.09375-7.007812 11.535156-2.019531 2.339844-2.007812 5.855468.027344 8.179687.453125.519531.910156 1.042969 1.367187 1.578125 2.019531 2.355469 5.496094 2.859375 8.097657 1.199219 18.425781-11.773437 42.800781-7.023437 55.488281 10.804687 6.355469 8.929688 8.851562 19.800782 7.03125 30.605469-1.820313 10.808594-7.742188 20.261719-16.667969 26.617188-3.699219 2.625-7.773438 4.613281-12.121094 5.898437-2.957031.882813-4.847656 3.851563-4.390625 6.894532.085938.566406.160157 1.140624.238281 1.726562l.046876.335938c.414062 3.070312 3.066406 5.386718 6.164062 5.402343 21.855469.066407 39.785156 17.242188 40.8125 39.097657.515625 10.949218-3.261719 21.441406-10.636719 29.542968-7.378906 8.109375-17.46875 12.859375-28.414062 13.371094-4.53125.203125-9.023438-.320312-13.375-1.582031-2.976563-.84375-6.160157.628906-7.414063 3.429687-.195312.425782-.390625.847656-.59375 1.28125l-.289062.621094c-1.300782 2.796875-.328125 6.179688 2.265625 7.863281 18.335937 11.882813 24.121093 36.019531 13.167969 54.953125-5.484376 9.484375-14.335938 16.269532-24.925782 19.097656-10.601562 2.828126-21.652344 1.359376-31.132812-4.125-3.917969-2.261718-7.417969-5.148437-10.398438-8.570312-2.03125-2.335938-5.515625-2.820312-8.09375-1.144531l-1.773437 1.140625c-2.605469 1.652344-3.609375 5.023437-2.339844 7.835937 9.003906 19.910157.816406 43.351563-18.636719 53.355469-20.121094 10.34375-44.90625 2.390625-55.253906-17.726562-2.074219-4.027344-3.457031-8.355469-4.113281-12.855469-.445313-3.042969-3.101563-5.339844-6.214844-5.339844l-.769531.011719-1.339844-.015625c-3.066406 0-5.71875 2.289062-6.175781 5.328125-3.183594 21.632812-22.71875 36.957031-44.535157 34.816406-10.890624-1.050781-20.726562-6.292969-27.707031-14.765625-6.972656-8.472656-10.234375-19.132813-9.183593-30.023437.4375-4.511719 1.609374-8.890626 3.488281-13.019532 1.277343-2.816406.269531-6.1875-2.308594-7.828125l-1.769531-1.148437c-2.582032-1.683594-6.0625-1.210938-8.109375 1.117187-14.378907 16.460938-39.097657 18.738281-56.285157 5.191407-8.589843-6.777344-14.03125-16.511719-15.3125-27.40625-1.289062-10.898438 1.734376-21.632813 8.511719-30.222657 2.800781-3.550781 6.152344-6.597656 9.960938-9.058593 2.597656-1.679688 3.578125-5.058594 2.273437-7.871094-.292968-.628906-.582031-1.257813-.867187-1.886719-1.265625-2.828125-4.457031-4.304687-7.417969-3.441406-20.988281 6.054687-43.007812-5.410157-50.121094-26.085938-3.566406-10.363281-2.882812-21.496093 1.921875-31.34375 4.804688-9.851562 13.160157-17.242187 23.523438-20.808593 4.28125-1.472657 8.753906-2.222657 13.296875-2.226563 3.097656-.003906 5.753906-2.324219 6.171875-5.398437l.285156-2.054688c.460937-3.046875-1.425781-6.015625-4.378906-6.902344-20.9375-6.269531-33.265625-27.816406-28.0625-49.066406 2.960937-12.113281 11.179687-22.105469 22.535156-27.410156 1.503906-.699219 2.152344-2.484375 1.453125-3.984375-.707031-1.503907-2.496094-2.152344-3.988281-1.453125-13.015625 6.078125-22.429688 17.53125-25.828125 31.421875-5.960938 24.355469 8.171875 49.054687 32.171875 56.226562.113281.035157.1875.148438.167969.269531-.085938.582032-.164063 1.171876-.246094 1.757813l-.050782.371094c-.015624.117187-.117187.207031-.234374.207031-5.203126.007812-10.332032.867188-15.242188 2.558594-11.875 4.085937-21.453125 12.554687-26.960938 23.847656-5.507812 11.289062-6.289062 24.046875-2.203124 35.925781 8.15625 23.703125 33.40625 36.835938 57.464843 29.898438.113281-.03125.226563.027343.277344.136719.292969.65625.597656 1.308593.898437 1.957031.050782.105469.011719.238281-.089843.300781-4.363281 2.816406-8.207031 6.308594-11.417969 10.382812-7.769531 9.847657-11.234375 22.148438-9.761719 34.636719 1.476563 12.492188 7.710938 23.648438 17.558594 31.414063 19.695313 15.535156 48.035156 12.917968 64.511719-5.945313.078125-.09375.21875-.117187.320312-.042969l1.800782 1.167969c.101562.066407.136718.195313.09375.300781-2.152344 4.726563-3.496094 9.75-4 14.921876-1.207032 12.484374 2.53125 24.707031 10.527343 34.414062 7.992188 9.707031 19.273438 15.71875 31.757813 16.925781 24.976562 2.425781 47.398437-15.113281 51.046875-39.910156.019531-.121094.121093-.210937.226562-.210937l1.351563.019531.808594-.015625c.121093 0 .21875.089844.238281.207031.75 5.160156 2.335937 10.117187 4.714843 14.734375 8.328126 16.199219 24.828126 25.515625 41.902344 25.515625 7.230469 0 14.566406-1.671875 21.429688-5.199219 22.300781-11.46875 31.683594-38.335937 21.363281-61.160156-.050781-.113281-.011719-.238281.101563-.308594l1.800781-1.160156c.09375-.0625.21875-.046875.304687.046875 3.417969 3.929687 7.433594 7.234375 11.925782 9.828125 10.867187 6.292969 23.539062 7.964844 35.683593 4.726562 12.136719-3.242187 22.285157-11.019531 28.574219-21.890624 12.546875-21.699219 5.917969-49.371094-15.101562-62.988282-.101563-.066406-.136719-.195312-.089844-.300781l.285156-.601563c.207031-.449218.417969-.894531.628906-1.363281.046875-.101562.175782-.148437.28125-.128906 4.976563 1.441406 10.125 2.054687 15.316406 1.808594 12.546876-.589844 24.117188-6.03125 32.570313-15.320313 8.457031-9.285156 12.789063-21.3125 12.195313-33.863281zm0 0" fill="#3a312a"/><path d="m65.109375 22.355469c-1.949219 23.125-26.050781 26.777343-26.050781 26.777343 20.695312.972657 25.851562 28.121094 25.851562 28.121094.441406-19.355468 26.640625-28.40625 26.640625-28.40625-19.625-1.175781-26.441406-26.492187-26.441406-26.492187zm0 0" fill="#d7e057"/><path d="m91.730469 45.851562c-17.207031-1.03125-23.664063-24.046874-23.726563-24.28125-.378906-1.40625-1.703125-2.335937-3.167968-2.207031-1.449219.132813-2.59375 1.285157-2.71875 2.734375-1.71875 20.433594-22.625 23.929688-23.507813 24.070313-1.523437.230469-2.625 1.582031-2.542969 3.121093.078125 1.542969 1.3125 2.769532 2.855469 2.839844 18.050781.855469 22.996094 25.441406 23.039063 25.6875.277343 1.425782 1.523437 2.4375 2.949218 2.4375.082032 0 .167969-.003906.25-.011718 1.527344-.128907 2.714844-1.386719 2.75-2.917969.386719-17.019531 24.382813-25.554688 24.625-25.640625 1.351563-.46875 2.183594-1.828125 1.988282-3.242188-.195313-1.421875-1.363282-2.503906-2.792969-2.589844zm-27.132813 20.691407c-2.710937-6.261719-7.414062-13.8125-15.171875-17.753907 5.863281-2.804687 12.816407-7.824218 16.402344-16.542968 3.101563 6.140625 8.398437 13.761718 16.667969 17.445312-6.011719 3.28125-13.84375 8.808594-17.898438 16.851563zm0 0" fill="#3a312a"/><path d="m21.710938 56.316406c-1.378907 16.355469-18.425782 18.9375-18.425782 18.9375 14.636719.691406 18.285156 19.890625 18.285156 19.890625.3125-13.691406 18.84375-20.089843 18.84375-20.089843-13.882812-.832032-18.703124-18.738282-18.703124-18.738282zm0 0" fill="#d7e057"/><path d="m40.59375 72.0625c-11.535156-.695312-15.941406-16.375-15.984375-16.535156-.382813-1.402344-1.722656-2.304688-3.164063-2.203125-1.453124.128906-2.601562 1.285156-2.722656 2.738281-1.15625 13.742188-15.292968 16.128906-15.882812 16.222656-1.527344.234375-2.628906 1.582032-2.546875 3.125.078125 1.539063 1.3125 2.769532 2.855469 2.839844 12.070312.570312 15.449218 17.289062 15.476562 17.453125.273438 1.425781 1.519531 2.441406 2.949219 2.441406.082031 0 .164062-.003906.25-.007812 1.527343-.128907 2.714843-1.386719 2.75-2.925781.261719-11.417969 16.664062-17.265626 16.824219-17.320313 1.351562-.464844 2.1875-1.824219 1.992187-3.242187-.199219-1.417969-1.367187-2.5-2.796875-2.585938zm-19.167969 13.585938c-1.847656-3.769532-4.679687-7.894532-8.894531-10.558594 3.710938-2.082032 7.394531-5.257813 9.742188-9.832032 2.113281 3.746094 5.304687 7.910157 9.882812 10.449219-3.699219 2.199219-7.980469 5.476563-10.730469 9.941407zm0 0" fill="#3a312a"/><path d="m21.710938 3c-1.378907 16.359375-18.425782 18.941406-18.425782 18.941406 14.636719.6875 18.285156 19.890625 18.285156 19.890625.3125-13.691406 18.84375-20.089843 18.84375-20.089843-13.882812-.832032-18.703124-18.742188-18.703124-18.742188zm0 0" fill="#d7e057"/><path d="m40.59375 18.746094c-11.535156-.691406-15.941406-16.375-15.984375-16.53125-.382813-1.402344-1.722656-2.335938-3.164063-2.2031252-1.453124.1328122-2.601562 1.2851562-2.722656 2.7382812-1.15625 13.742188-15.292968 16.128906-15.882812 16.226562-1.527344.230469-2.628906 1.582032-2.546875 3.121094.078125 1.542969 1.3125 2.769532 2.855469 2.839844 12.070312.570312 15.449218 17.292969 15.476562 17.457031.273438 1.425781 1.519531 2.4375 2.949219 2.4375.082031 0 .164062-.003906.25-.007812 1.527343-.128907 2.714843-1.386719 2.75-2.921875.261719-11.417969 16.664062-17.269532 16.824219-17.324219 1.351562-.46875 2.1875-1.828125 1.992187-3.246094-.199219-1.417969-1.367187-2.503906-2.796875-2.585937zm-19.167969 13.589844c-1.847656-3.769532-4.679687-7.894532-8.894531-10.558594 3.710938-2.082032 7.394531-5.261719 9.742188-9.835938 2.113281 3.75 5.308593 7.910156 9.882812 10.449219-3.699219 2.199219-7.980469 5.476563-10.730469 9.945313zm0 0" fill="#3a312a"/><path d="m122.488281 175.3125c-14.386719 0-26.046875 11.660156-26.046875 26.042969 0 14.386719 11.660156 26.050781 26.046875 26.050781 14.382813 0 26.042969-11.664062 26.042969-26.050781.003906-14.382813-11.660156-26.042969-26.042969-26.042969zm0 0" fill="#87796f"/><path d="m122.488281 172.3125c-16.019531 0-29.046875 13.03125-29.046875 29.042969 0 16.015625 13.03125 29.046875 29.046875 29.046875s29.042969-13.03125 29.042969-29.046875c0-16.011719-13.027344-29.042969-29.042969-29.042969zm0 52.09375c-12.710937 0-23.046875-10.339844-23.046875-23.046875 0-12.710937 10.335938-23.046875 23.046875-23.046875 12.707031 0 23.042969 10.339844 23.042969 23.046875.003906 12.707031-10.335938 23.046875-23.042969 23.046875zm0 0" fill="#3a312a"/><path d="m160.410156 291.121094c-14.386718 0-26.046875 11.660156-26.046875 26.046875s11.660157 26.046875 26.046875 26.046875c14.386719 0 26.046875-11.660156 26.046875-26.046875s-11.660156-26.046875-26.046875-26.046875zm0 0" fill="#87796f"/><path d="m160.410156 288.121094c-16.015625 0-29.046875 13.03125-29.046875 29.046875 0 16.011719 13.035157 29.042969 29.046875 29.042969 16.015625 0 29.046875-13.03125 29.046875-29.042969 0-16.015625-13.03125-29.046875-29.046875-29.046875zm0 52.09375c-12.707031 0-23.046875-10.339844-23.046875-23.046875s10.339844-23.046875 23.046875-23.046875c12.707032 0 23.046875 10.339844 23.046875 23.046875s-10.335937 23.046875-23.046875 23.046875zm0 0" fill="#3a312a"/><path d="m225.472656 211.390625c-14.382812 0-26.042968 11.660156-26.042968 26.046875 0 14.382812 11.660156 26.046875 26.042968 26.046875 14.386719 0 26.050782-11.664063 26.050782-26.046875 0-14.386719-11.664063-26.046875-26.050782-26.046875zm0 0" fill="#87796f"/><path d="m225.472656 208.390625c-16.015625 0-29.042968 13.03125-29.042968 29.042969 0 16.015625 13.03125 29.046875 29.042968 29.046875 16.015625 0 29.046875-13.03125 29.046875-29.046875 0-16.011719-13.027343-29.042969-29.046875-29.042969zm0 52.09375c-12.707031 0-23.042968-10.339844-23.042968-23.046875 0-12.710938 10.335937-23.046875 23.042968-23.046875 12.710938 0 23.046875 10.339844 23.046875 23.046875.003907 12.707031-10.335937 23.046875-23.046875 23.046875zm0 0" fill="#3a312a"/><path d="m269.484375 318.808594c-14.386719 0-26.050781 11.664062-26.050781 26.046875 0 14.386719 11.664062 26.050781 26.050781 26.050781 14.382813 0 26.042969-11.664062 26.042969-26.050781 0-14.382813-11.660156-26.046875-26.042969-26.046875zm0 0" fill="#87796f"/><path d="m269.480469 315.808594c-16.015625 0-29.046875 13.03125-29.046875 29.046875s13.03125 29.046875 29.046875 29.046875c16.019531 0 29.046875-13.035156 29.046875-29.046875.003906-16.015625-13.027344-29.046875-29.046875-29.046875zm0 52.09375c-12.707031 0-23.046875-10.335938-23.046875-23.046875 0-12.707031 10.339844-23.042969 23.046875-23.042969 12.710937 0 23.046875 10.335938 23.046875 23.042969.003906 12.710937-10.335938 23.046875-23.046875 23.046875zm0 0" fill="#3a312a"/><path d="m328.042969 194.640625c-14.382813 0-26.046875 11.664063-26.046875 26.046875 0 14.386719 11.664062 26.046875 26.046875 26.046875 14.386719 0 26.046875-11.660156 26.046875-26.046875.003906-14.382812-11.660156-26.046875-26.046875-26.046875zm0 0" fill="#87796f"/><path d="m328.042969 191.644531c-16.015625 0-29.042969 13.03125-29.042969 29.042969 0 16.015625 13.03125 29.046875 29.042969 29.046875 16.015625 0 29.046875-13.03125 29.046875-29.046875.003906-16.015625-13.03125-29.042969-29.046875-29.042969zm0 52.09375c-12.707031 0-23.042969-10.339843-23.042969-23.046875 0-12.707031 10.335938-23.046875 23.042969-23.046875 12.710937 0 23.046875 10.339844 23.046875 23.046875.003906 12.707032-10.335938 23.046875-23.046875 23.046875zm0 0" fill="#3a312a"/><path d="m233.832031 115.945312c-14-3.304687-28.03125 5.363282-31.335937 19.363282-3.304688 14 5.363281 28.027344 19.363281 31.332031 14 3.308594 28.03125-5.363281 31.335937-19.359375 3.304688-14-5.363281-28.027344-19.363281-31.335938zm0 0" fill="#87796f"/><path d="m227.84375 112.226562c-16.015625 0-29.046875 13.03125-29.046875 29.046876 0 16.011718 13.03125 29.046874 29.046875 29.046874 16.011719 0 29.042969-13.03125 29.042969-29.046874 0-16.015626-13.027344-29.046876-29.042969-29.046876zm0 52.09375c-12.710938 0-23.046875-10.335937-23.046875-23.046874 0-12.707032 10.335937-23.046876 23.046875-23.046876 12.707031 0 23.042969 10.339844 23.042969 23.046876 0 12.710937-10.335938 23.046874-23.042969 23.046874zm0 0" fill="#3a312a"/><path d="m346.917969 130.226562c-.121094-1.621093.378906-3.28125 1.480469-4.582031 2.976562-3.441406 5.339843-7.316406 7.019531-11.539062 8.398437-21-1.839844-44.917969-22.839844-53.339844-11.042969-4.417969-22.882813-3.71875-32.863281 1.019531 19.421875 9.203125 28.601562 32.121094 20.5 52.320313-1.679688 4.222656-4.039063 8.101562-7 11.539062-2.019532 2.339844-2 5.863281.0625 8.21875.4375.5.878906 1.023438 1.339844 1.542969 2.019531 2.359375 5.5 2.859375 8.078124 1.199219 7.5-4.777344 15.960938-6.839844 24.222657-6.378907zm46.757812 94.660157c-3.078125 0-5.738281-2.320313-6.160156-5.402344l-.039063-.359375c-.078124-.582031-.160156-1.140625-.238281-1.699219-.460937-3.0625 1.4375-6.019531 4.398438-6.902343 4.339843-1.277344 8.417969-3.257813 12.121093-5.898438 8.917969-6.359375 14.839844-15.796875 16.660157-26.621094 1.820312-10.800781-.679688-21.660156-7.019531-30.597656-11.703126-16.402344-33.300782-21.742188-51.023438-13.285156 6.140625 2.902344 11.621094 7.382812 15.820312 13.285156 6.359376 8.9375 8.839844 19.796875 7.019532 30.597656-1.816406 10.820313-7.738282 20.261719-16.660156 26.621094-3.699219 2.640625-7.777344 4.621094-12.117188 5.898438-.359375.101562-.699219.242187-1.019531.421874 1.078125 3.039063 1.679687 6.320313 1.679687 9.738282 0 1.339844-.101562 2.679687-.28125 3.960937.539063.160157 1.101563.238281 1.679688.238281 21.859375.058594 39.78125 17.238282 40.820312 39.101563.5 10.9375-3.28125 21.4375-10.640625 29.539063-7.378906 8.121093-17.480469 12.859374-28.417969 13.378906-4.519531.199218-9.019531-.320313-13.382812-1.578125-2.957031-.863281-6.160156.617187-7.417969 3.4375-.179687.421875-.378906.839843-.582031 1.28125l-.277344.601562c-1.320312 2.796875-.339844 6.179688 2.257813 7.859375 18.320312 11.878906 24.121093 36.019532 13.160156 54.960938-4.21875 7.300781-10.4375 13-17.898437 16.519531 8.78125 4.199219 18.660156 5.121094 28.160156 2.582031 10.597656-2.84375 19.4375-9.625 24.9375-19.105468 10.941406-18.9375 5.160156-43.078126-13.179688-54.957032-2.578125-1.679687-3.558594-5.0625-2.257812-7.863281l.277344-.601563c.203124-.4375.402343-.859374.601562-1.277343 1.261719-2.820313 4.441406-4.300781 7.421875-3.441407 4.339844 1.257813 8.839844 1.78125 13.378906 1.582032 10.941407-.523438 21.039063-5.261719 28.398438-13.382813 7.382812-8.097656 11.160156-18.597656 10.640625-29.539062-1.019532-21.855469-18.960938-39.035157-40.820313-39.09375zm0 0" fill="#decaad"/></svg>