<svg height="448pt" viewBox="0 0 448 448.684" width="448pt" xmlns="http://www.w3.org/2000/svg"><path d="m126.136719 83.1875c-1.945313 23.125-26.046875 26.777344-26.046875 26.777344 20.695312.976562 25.851562 28.121094 25.851562 28.121094.441406-19.355469 26.640625-28.40625 26.640625-28.40625-19.628906-1.175782-26.445312-26.492188-26.445312-26.492188zm0 0" fill="#d7e057"/><path d="m152.761719 106.683594c-17.210938-1.03125-23.664063-24.046875-23.730469-24.28125-.382812-1.40625-1.71875-2.339844-3.167969-2.203125-1.449219.128906-2.59375 1.28125-2.71875 2.734375-1.71875 20.429687-22.625 23.925781-23.507812 24.0625-1.523438.230468-2.625 1.582031-2.542969 3.121094.078125 1.542968 1.3125 2.769531 2.851562 2.84375 18.058594.851562 23 25.4375 23.046876 25.6875.273437 1.421874 1.519531 2.433593 2.945312 2.433593.082031 0 .167969-.003906.25-.011719 1.527344-.125 2.714844-1.382812 2.75-2.917968.386719-17.019532 24.382812-25.554688 24.625-25.640625 1.347656-.46875 2.183594-1.828125 1.988281-3.242188-.195312-1.417969-1.363281-2.5-2.789062-2.585937zm-27.132813 20.691406c-2.714844-6.261719-7.417968-13.8125-15.175781-17.75 5.863281-2.8125 12.820313-7.828125 16.40625-16.546875 3.101563 6.140625 8.398437 13.761719 16.667969 17.445313-6.015625 3.277343-13.847656 8.8125-17.898438 16.851562zm0 0" fill="#3a312a"/><path d="m82.738281 117.148438c-1.375 16.359374-18.421875 18.941406-18.421875 18.941406 14.636719.6875 18.285156 19.886718 18.285156 19.886718.308594-13.6875 18.84375-20.089843 18.84375-20.089843-13.882812-.832031-18.707031-18.738281-18.707031-18.738281zm0 0" fill="#d7e057"/><path d="m101.621094 132.890625c-11.53125-.6875-15.941406-16.371094-15.988282-16.527344-.378906-1.40625-1.703124-2.347656-3.164062-2.207031-1.449219.132812-2.597656 1.289062-2.71875 2.738281-1.15625 13.742188-15.292969 16.132813-15.882812 16.226563-1.527344.230468-2.628907 1.582031-2.546876 3.121094.078126 1.542968 1.3125 2.769531 2.855469 2.84375 12.070313.566406 15.445313 17.289062 15.476563 17.453124.269531 1.421876 1.519531 2.4375 2.945312 2.4375.082032 0 .164063-.003906.25-.007812 1.527344-.125 2.714844-1.386719 2.75-2.921875.261719-11.417969 16.664063-17.269531 16.828125-17.324219 1.351563-.46875 2.1875-1.828125 1.988281-3.246094-.191406-1.417968-1.363281-2.5-2.792968-2.585937zm-19.167969 13.589844c-1.847656-3.769531-4.679687-7.890625-8.894531-10.554688 3.714844-2.082031 7.394531-5.261719 9.742187-9.835937 2.113281 3.75 5.308594 7.910156 9.882813 10.449218-3.699219 2.195313-7.976563 5.476563-10.730469 9.941407zm0 0" fill="#3a312a"/><path d="m82.738281 63.832031c-1.375 16.359375-18.421875 18.941407-18.421875 18.941407 14.636719.6875 18.285156 19.886718 18.285156 19.886718.308594-13.6875 18.84375-20.089844 18.84375-20.089844-13.882812-.832031-18.707031-18.738281-18.707031-18.738281zm0 0" fill="#d7e057"/><path d="m101.621094 79.574219c-11.53125-.6875-15.941406-16.367188-15.988282-16.527344-.378906-1.40625-1.703124-2.335937-3.164062-2.203125-1.449219.128906-2.597656 1.285156-2.71875 2.734375-1.15625 13.738281-15.292969 16.132813-15.882812 16.226563-1.527344.230468-2.628907 1.582031-2.546876 3.121093.078126 1.542969 1.3125 2.769531 2.855469 2.84375 12.070313.566407 15.445313 17.289063 15.476563 17.453125.273437 1.421875 1.519531 2.4375 2.945312 2.4375.085938 0 .167969-.003906.25-.007812 1.53125-.125 2.714844-1.386719 2.753906-2.921875.257813-11.417969 16.664063-17.269531 16.824219-17.324219 1.355469-.46875 2.1875-1.828125 1.992188-3.246094-.195313-1.417968-1.367188-2.5-2.796875-2.585937zm-19.167969 13.589843c-1.847656-3.769531-4.679687-7.890624-8.894531-10.558593 3.714844-2.082031 7.394531-5.257813 9.742187-9.832031 2.113281 3.75 5.308594 7.910156 9.882813 10.449218-3.699219 2.199219-7.976563 5.480469-10.730469 9.941406zm0 0" fill="#3a312a"/><path d="m181.007812 268.019531c-9.886718-9.886719-26.058593-9.886719-35.945312 0l-134.308594 134.308594c-9.882812 9.882813-9.882812 26.058594 0 35.941406 9.882813 9.882813 26.058594 9.882813 35.941406 0l134.3125-134.308593c9.882813-9.886719 9.882813-26.0625 0-35.941407zm0 0" fill="#fce8cb"/><path d="m183.128906 265.894531c-11.078125-11.078125-29.105468-11.074219-40.183594 0l-81.015624 81.011719c-1.171876 1.171875-1.171876 3.070312 0 4.242188 1.171874 1.171874 3.070312 1.171874 4.242187 0l81.011719-81.011719c8.742187-8.738281 22.960937-8.742188 31.699218 0 8.742188 8.738281 8.742188 22.960937 0 31.703125l-134.308593 134.308594c-4.210938 4.214843-9.84375 6.535156-15.847657 6.535156-6.007812 0-11.636718-2.320313-15.851562-6.535156-4.214844-4.214844-6.535156-9.84375-6.535156-15.851563 0-6.003906 2.320312-11.632813 6.535156-15.847656l31.769531-31.769531c1.171875-1.171876 1.171875-3.070313 0-4.242188s-3.070312-1.171875-4.242187 0l-31.769532 31.769531c-5.347656 5.347657-8.289062 12.480469-8.289062 20.089844 0 7.613281 2.945312 14.746094 8.289062 20.09375 5.347657 5.347656 12.484376 8.292969 20.09375 8.292969 7.609376 0 14.746094-2.949219 20.089844-8.292969l134.3125-134.308594c11.078125-11.082031 11.078125-29.105469 0-40.1875zm0 0" fill="#3a312a"/><path d="m421.824219 27.199219c-32.265625-32.265625-84.578125-32.265625-116.84375 0l-184.027344 184.027343c-32.265625 32.265626-32.265625 84.578126 0 116.84375 32.265625 32.269532 84.578125 32.269532 116.84375 0l184.027344-184.027343c32.265625-32.265625 32.265625-84.578125 0-116.84375zm0 0" fill="#f16c7a"/><path d="m423.945312 25.078125c-16.171874-16.171875-37.671874-25.078125-60.542968-25.078125s-44.371094 8.90625-60.542969 25.078125l-34.800781 34.800781c-1.171875 1.171875-1.171875 3.070313 0 4.242188s3.070312 1.171875 4.242187 0l34.800781-34.800782c15.039063-15.039062 35.035157-23.320312 56.300782-23.320312 21.269531 0 41.261718 8.28125 56.300781 23.320312 15.035156 15.039063 23.320313 35.035157 23.320313 56.300782s-8.285157 41.257812-23.320313 56.296875l-184.027344 184.03125c-15.042969 15.039062-35.035156 23.320312-56.300781 23.320312s-41.261719-8.285156-56.300781-23.320312c-15.039063-15.042969-23.320313-35.035157-23.320313-56.300781 0-21.269532 8.28125-41.261719 23.320313-56.300782l127.9375-127.9375c1.171875-1.171875 1.171875-3.066406 0-4.238281-1.171875-1.175781-3.070313-1.175781-4.242188 0l-127.9375 127.933594c-33.382812 33.382812-33.382812 87.703125 0 121.085937 16.691407 16.691406 38.617188 25.039063 60.542969 25.039063 21.921875 0 43.851562-8.347657 60.539062-25.039063l184.03125-184.03125c33.382813-33.378906 33.382813-87.699218 0-121.082031zm0 0" fill="#3a312a"/><path d="m399.972656 46.6875c-10.003906-2.039062-20.277344 1.0625-27.492187 8.277344-7.214844 7.214844-10.3125 17.496094-8.273438 27.53125 1.628907 8.023437-.851562 16.269531-6.644531 22.054687-5.785156 5.792969-14.03125 8.269531-22.082031 6.636719-9.996094-2.039062-20.277344 1.0625-27.496094 8.28125-7.214844 7.214844-10.308594 17.496094-8.273437 27.511719 1.632812 8.027343-.851563 16.273437-6.640626 22.058593-5.789062 5.792969-14.035156 8.269532-22.078124 6.640626-10.003907-2.042969-20.28125 1.058593-27.496094 8.277343-7.214844 7.214844-10.308594 17.496094-8.273438 27.511719 1.628906 8.023438-.855468 16.269531-6.644531 22.058594-5.777344 5.773437-14 8.261718-22 6.652344-.019531-.003907-.042969-.007813-.0625-.015626-10.003906-2.035156-20.28125 1.0625-27.496094 8.28125-7.21875 7.214844-10.3125 17.496094-8.28125 27.5 1.632813 8.023438-.851562 16.269532-6.636719 22.058594-5.792968 5.789063-14.039062 8.273438-22.0625 6.640625-1.613281-.332031-3.207031.71875-3.539062 2.339844-.328125 1.625.71875 3.207031 2.34375 3.539063 2.023438.410156 4.054688.613281 6.078125.613281 7.957031 0 15.664063-3.132813 21.421875-8.890625 7.214844-7.214844 10.308594-17.496094 8.277344-27.5-1.632813-8.023438.851562-16.269532 6.640625-22.058594 5.777343-5.777344 13.996093-8.257812 22.007812-6.652344.019531.003906.039063.007813.058594.011719 10.007813 2.039063 20.28125-1.0625 27.496094-8.277344 7.214843-7.214843 10.3125-17.496093 8.277343-27.511719-1.632812-8.023437.851563-16.273437 6.640626-22.058593 5.789062-5.789063 14.039062-8.265625 22.074218-6.636719 10 2.035156 20.28125-1.058594 27.496094-8.277344 7.21875-7.21875 10.3125-17.496094 8.277344-27.515625-1.628906-8.027343.851562-16.269531 6.640625-22.058593 5.789062-5.785157 14.035156-8.269532 22.082031-6.636719 10.003906 2.035156 20.28125-1.0625 27.496094-8.28125 7.21875-7.214844 10.3125-17.492188 8.273437-27.527344-1.628906-8.023437.855469-16.269531 6.640625-22.058594 5.789063-5.785156 14.035156-8.265625 22.054688-6.640625 1.632812.335938 3.210937-.714844 3.539062-2.339844.324219-1.625-.722656-3.207031-2.34375-3.539062zm0 0" fill="#3a312a"/><path d="m419.695312 29.328125c-15.039062-15.039063-35.019531-23.320313-56.300781-23.320313-5.796875 0-11.519531.621094-17.078125 1.839844 14.757813 3.199219 28.300782 10.558594 39.21875 21.480469 5.160156 5.160156 9.539063 10.917969 13.0625 17.101563.457032.078124.917969.160156 1.378906.257812 1.621094.339844 2.660157 1.921875 2.339844 3.539062-.140625.640626-.460937 1.203126-.921875 1.601563 4.882813 10.441406 7.460938 21.917969 7.460938 33.800781 0 21.257813-8.28125 41.257813-23.320313 56.300782l-184.019531 184.019531c-10.917969 10.917969-24.480469 18.277343-39.21875 21.5 5.539063 1.199219 11.257813 1.820312 17.078125 1.820312 21.261719 0 41.261719-8.28125 56.300781-23.320312l184.019531-184.019531c15.039063-15.042969 23.320313-35.042969 23.320313-56.300782 0-21.28125-8.28125-41.261718-23.320313-56.300781zm0 0" fill="#d34e5c"/></svg>