<svg height="452pt" viewBox="0 0 452 452.172" width="452pt" xmlns="http://www.w3.org/2000/svg"><path d="m64.910156 22.972656c-1.945312 23.128906-26.046875 26.78125-26.046875 26.78125 20.691407.972656 25.847657 28.117188 25.847657 28.117188.441406-19.351563 26.644531-28.402344 26.644531-28.402344-19.628907-1.175781-26.445313-26.496094-26.445313-26.496094zm0 0" fill="#d7e057"/><path d="m91.535156 46.472656c-17.210937-1.03125-23.664062-24.050781-23.726562-24.28125-.378906-1.402344-1.695313-2.316406-3.167969-2.203125-1.449219.132813-2.597656 1.285157-2.71875 2.734375-1.71875 20.429688-22.625 23.925782-23.507813 24.0625-1.527343.234375-2.625 1.582032-2.546874 3.121094.082031 1.542969 1.316406 2.773438 2.855468 2.84375 18.058594.851562 23 25.4375 23.046875 25.6875.273438 1.421875 1.519531 2.433594 2.945313 2.433594.082031 0 .167968-.003906.25-.007813 1.53125-.128906 2.714844-1.386719 2.75-2.921875.386718-17.015625 24.382812-25.554687 24.625-25.636718 1.351562-.46875 2.183594-1.828126 1.988281-3.246094-.199219-1.421875-1.367187-2.503906-2.792969-2.585938zm-27.132812 20.691406c-2.710938-6.261718-7.417969-13.816406-15.171875-17.753906 5.863281-2.808594 12.816406-7.824218 16.402343-16.546875 3.101563 6.144531 8.398438 13.761719 16.667969 17.445313-6.015625 3.28125-13.84375 8.8125-17.898437 16.855468zm0 0" fill="#3a312a"/><path d="m21.515625 56.933594c-1.378906 16.359375-18.425781 18.941406-18.425781 18.941406 14.636718.6875 18.285156 19.890625 18.285156 19.890625.3125-13.691406 18.84375-20.09375 18.84375-20.09375-13.882812-.828125-18.703125-18.738281-18.703125-18.738281zm0 0" fill="#d7e057"/><path d="m40.398438 72.679688c-11.535157-.691407-15.945313-16.371094-15.988282-16.53125-.378906-1.402344-1.726562-2.320313-3.164062-2.203126-1.449219.128907-2.597656 1.285157-2.71875 2.738282-1.160156 13.738281-15.292969 16.128906-15.886719 16.222656-1.523437.230469-2.625 1.582031-2.5429688 3.121094.0781248 1.542968 1.3124998 2.769531 2.8554688 2.84375 12.070313.566406 15.445313 17.289062 15.476563 17.449218.273437 1.425782 1.519531 2.441407 2.945312 2.441407.082031 0 .167969-.003907.25-.007813 1.53125-.128906 2.71875-1.386718 2.753906-2.925781.257813-11.414063 16.660156-17.265625 16.824219-17.320313 1.351563-.46875 2.183594-1.824218 1.992187-3.242187-.199218-1.417969-1.371093-2.5-2.796874-2.585937zm-19.171876 13.589843c-1.847656-3.773437-4.679687-7.894531-8.890624-10.558593 3.707031-2.082032 7.390624-5.261719 9.738281-9.832032 2.117187 3.746094 5.308593 7.910156 9.882812 10.445313-3.699219 2.203125-7.976562 5.480469-10.730469 9.945312zm0 0" fill="#3a312a"/><path d="m21.515625 3.621094c-1.378906 16.355468-18.425781 18.9375-18.425781 18.9375 14.636718.691406 18.285156 19.890625 18.285156 19.890625.3125-13.691407 18.84375-20.089844 18.84375-20.089844-13.882812-.832031-18.703125-18.738281-18.703125-18.738281zm0 0" fill="#d7e057"/><path d="m40.398438 19.367188c-11.535157-.691407-15.945313-16.375-15.988282-16.53125-.378906-1.402344-1.726562-2.320313-3.164062-2.207032-1.449219.132813-2.597656 1.285156-2.71875 2.738282-1.160156 13.742187-15.292969 16.128906-15.886719 16.226562-1.523437.230469-2.625 1.582031-2.5429688 3.121094.0781248 1.539062 1.3124998 2.769531 2.8554688 2.839844 12.070313.570312 15.445313 17.292968 15.476563 17.453124.273437 1.425782 1.519531 2.441407 2.945312 2.441407.082031 0 .167969-.003907.25-.011719 1.53125-.125 2.71875-1.386719 2.753906-2.921875.257813-11.417969 16.660156-17.265625 16.820313-17.320313 1.355469-.46875 2.1875-1.828124 1.996093-3.246093-.199218-1.414063-1.371093-2.496094-2.796874-2.582031zm-19.171876 13.585937c-1.847656-3.769531-4.679687-7.894531-8.890624-10.558594 3.707031-2.082031 7.390624-5.257812 9.738281-9.832031 2.117187 3.746094 5.308593 7.910156 9.882812 10.449219-3.695312 2.199219-7.976562 5.476562-10.730469 9.941406zm0 0" fill="#3a312a"/><path d="m75.929688 356.550781-29.464844 29.457031-22.042969 22.035157-17.230469 17.230469c-5.460937 5.480468-5.460937 14.339843 0 19.796874 2.738282 2.742188 6.320313 4.101563 9.898438 4.101563 3.601562 0 7.160156-1.359375 9.898437-4.101563l72.621094-72.617187c-8.820313-3.902344-16.820313-9.300781-23.679687-15.902344zm0 0" fill="#87796f"/><path d="m102.558594 371.898438c-.179688-.96875-.832032-1.789063-1.734375-2.191407-8.460938-3.742187-16.136719-8.894531-22.8125-15.316406-1.175781-1.128906-3.042969-1.117187-4.203125.042969l-29.460938 29.453125c-1.171875 1.167969-1.171875 3.070312 0 4.242187s3.066406 1.171875 4.242188 0l27.417968-27.410156c5.589844 5.019531 11.777344 9.25 18.46875 12.621094l-69.609374 69.609375c-2.078126 2.078125-4.839844 3.222656-7.777344 3.222656-2.941406 0-5.703125-1.144531-7.78125-3.222656-4.28125-4.28125-4.277344-11.261719 0-15.558594l17.234375-17.226563c1.171875-1.167968 1.171875-3.066406 0-4.238281s-3.070313-1.171875-4.242188 0l-17.238281 17.226563c-6.613281 6.640625-6.613281 17.421875.003906 24.042968 3.210938 3.207032 7.480469 4.976563 12.023438 4.976563 4.542968 0 8.808594-1.769531 12.019531-4.976563l72.621094-72.625c.699219-.695312 1.011719-1.695312.828125-2.671874zm0 0" fill="#3a312a"/><path d="m448.851562 132.425781c0-45.351562-36.765624-82.113281-82.117187-82.113281-5.207031 0-10.292969.503906-15.234375 1.433594-12.789062-28.714844-41.558594-48.746094-75.027344-48.746094-33.101562 0-61.609375 19.597656-74.601562 47.8125-7.25-2.09375-14.902344-3.238281-22.824219-3.238281-45.347656 0-82.113281 36.765625-82.113281 82.117187 0 5.316406.523437 10.507813 1.488281 15.539063-4.304687-.695313-8.714844-1.074219-13.21875-1.074219-45.347656 0-82.113281 36.765625-82.113281 82.117188 0 33.050781 19.539062 61.527343 47.691406 74.546874 1.828125 43.730469 37.84375 78.628907 82.023438 78.628907 5.066406 0 10.015624-.480469 14.824218-1.359375 13.9375 28.199218 42.984375 47.601562 76.570313 47.601562 46.019531 0 83.511719-36.410156 85.292969-81.992187 6.109374 1.449219 12.472656 2.238281 19.023437 2.238281 45.347656 0 82.113281-36.761719 82.113281-82.113281 0-20.203125-7.308594-38.691407-19.410156-52.996094 33.390625-10.414063 57.632812-41.578125 57.632812-78.402344zm0 0" fill="#f16c7a"/><g fill="#3a312a"><path d="m451.851562 132.429688c0-46.933594-38.183593-85.117188-85.117187-85.117188-4.460937 0-8.988281.367188-13.476563 1.085938-14.117187-29.480469-43.996093-48.398438-76.785156-48.398438-32.261718 0-61.902344 18.46875-76.230468 47.261719-6.9375-1.785157-14.054688-2.6875-21.195313-2.6875-46.933594 0-85.117187 38.183593-85.117187 85.117187 0 3.980469.289062 8.007813.863281 12.015625-3.207031-.363281-6.417969-.546875-9.589844-.546875-46.933594 0-85.1171875 38.183594-85.1171875 85.113282 0 32.445312 18.6992185 62.265624 47.7890625 76.492187 2.808594 44.828125 39.769531 79.6875 84.929688 79.6875 4.339843 0 8.753906-.347656 13.152343-1.039063 15.34375 29.222657 45.121094 47.28125 78.238281 47.28125 46.457032 0 84.484376-35.441406 88.082032-81.324218 5.367187 1.039062 10.8125 1.566406 16.234375 1.566406 46.929687 0 85.113281-38.179688 85.113281-85.113281 0-18.628907-6.148438-36.765625-17.390625-51.53125 33.445313-12.300781 55.617187-43.863281 55.617187-79.863281zm-61.527343 75.535156c-.960938.296875-1.707031 1.058594-1.988281 2.023437-.28125.964844-.058594 2.007813.589843 2.777344 12.058594 14.253906 18.703125 32.386719 18.703125 51.054687 0 43.625-35.492187 79.117188-79.113281 79.117188-6.128906 0-12.296875-.726562-18.332031-2.160156-.878906-.203125-1.792969-.011719-2.507813.53125-.714843.542968-1.148437 1.378906-1.183593 2.273437-1.730469 44.363281-37.878907 79.113281-82.292969 79.113281-31.566407 0-59.878907-17.601562-73.878907-45.933593-.511718-1.039063-1.5625-1.671875-2.6875-1.671875-.179687 0-.359374.015625-.542968.046875-4.769532.875-9.574219 1.3125-14.285156 1.3125-42.542969 0-77.253907-33.273438-79.027344-75.753907-.046875-1.125-.71875-2.125-1.738282-2.597656-27.914062-12.910156-45.953124-41.105468-45.953124-71.824218 0-43.625 35.488281-79.117188 79.117187-79.117188 4.207031 0 8.492187.351562 12.738281 1.039062.964844.148438 1.949219-.167968 2.628906-.875.683594-.699218.980469-1.691406.796876-2.652343-.957032-4.972657-1.4375-10.015625-1.4375-14.976563 0-43.625 35.492187-79.117187 79.117187-79.117187 7.421875 0 14.820313 1.050781 21.988281 3.125 1.417969.40625 2.9375-.285157 3.558594-1.628907 12.886719-27.984374 41.101562-46.066406 71.875-46.066406 31.207031 0 59.578125 18.433594 72.289062 46.964844.5625 1.269531 1.914063 1.972656 3.292969 1.730469 4.882813-.917969 9.820313-1.382813 14.679688-1.382813 43.625 0 79.117187 35.488282 79.117187 79.113282.003906 34.820312-22.3125 65.179687-55.523437 75.535156zm0 0"/><path d="m367.222656 212.007812c-43.425781 0-78.75-35.328124-78.75-78.75 0-1.65625-1.34375-3-3-3s-3 1.34375-3 3c0 46.730469 38.019532 84.75 84.75 84.75 1.65625 0 3-1.347656 3-3 0-1.65625-1.34375-3-3-3zm0 0"/><path d="m84.78125 141.128906c-1.65625 0-3 1.34375-3 3s1.34375 3 3 3c43.421875 0 78.75 35.328125 78.75 78.75 0 1.65625 1.34375 3 3 3s3-1.34375 3-3c0-46.730468-38.019531-84.75-84.75-84.75zm0 0"/><path d="m224.191406 250.675781c-49 0-88.863281 39.863281-88.863281 88.859375 0 1.65625 1.34375 3 3 3s3-1.34375 3-3c0-45.6875 37.171875-82.859375 82.863281-82.859375 1.65625 0 3-1.347656 3-3 0-1.65625-1.34375-3-3-3zm0 0"/></g><path d="m390.328125 207.972656c33.203125-10.363281 55.523437-40.71875 55.523437-75.542968 0-43.621094-35.480468-79.121094-79.121093-79.121094-4.859375 0-9.800781.460937-14.679688 1.382812-1.339843.257813-2.722656-.460937-3.28125-1.71875-12.71875-28.542968-41.097656-46.980468-72.300781-46.980468-6 0-11.878906.679687-17.597656 2.019531 23.878906 5.5 44.300781 21.960937 54.558594 44.960937.558593 1.261719 1.941406 1.980469 3.300781 1.71875 4.859375-.917968 9.800781-1.378906 14.679687-1.378906 43.621094 0 79.101563 35.5 79.101563 79.121094 0 34.820312-22.300781 65.179687-55.523438 75.539062-.957031.300782-1.699219 1.058594-1.976562 2.019532-.0625.242187-.101563.460937-.101563.703124 4.640625.878907 9.417969 1.320313 14.300782 1.320313 1.660156 0 3 1.339844 3 3s-1.339844 3-3 3c-3.382813 0-6.722657-.203125-10-.601563 9.757812 13.441407 15.078124 29.722657 15.078124 46.421876 0 37.519531-26.257812 69.019531-61.359374 77.097656 5.800781 1.339844 11.699218 2 17.582031 2 43.617187 0 79.117187-35.480469 79.117187-79.097656 0-18.683594-6.640625-36.820313-18.699218-51.0625-.660157-.78125-.878907-1.820313-.601563-2.78125.28125-.960938 1.042969-1.71875 2-2.019532zm-115.476563 132.800782c-.882812-.203126-1.800781 0-2.5.539062-.722656.539062-1.160156 1.378906-1.203124 2.257812-1.476563 38.300782-28.636719 69.441407-64.617188 77.222657 5.71875 1.257812 11.617188 1.898437 17.660156 1.898437 44.417969 0 80.578125-34.757812 82.296875-79.121094.042969-.699218.320313-1.378906.800781-1.898437-4.578124.820313-9.300781 1.261719-14.117187 1.261719-6.121094 0-12.28125-.722656-18.320313-2.160156zm0 0" fill="#d34e5c"/></svg>