<svg height="456pt" viewBox="0 -2 456.67954 456" width="456pt" xmlns="http://www.w3.org/2000/svg"><path d="m206.480469 128.121094c-.179688.203125-.359375.382812-.5625.5625-.097657.097656-.21875.21875-.339844.320312-.476563.4375-1.019531.859375-1.578125 1.21875-.242188.160156-.480469.320313-.71875.460938-.679688.378906-1.382812.738281-2.140625 1.019531-2.101563.78125-4.28125 1.058594-6.382813.859375v.019531l5.921876 15.539063c4.28125-.519532 8.601562-.898438 12.960937-1.160156zm0 0" fill="#f16c7a"/><path d="m216.445312 145.898438-7.160156-18.84375c-.375-.976563-1.226562-1.691407-2.257812-1.882813-1.027344-.1875-2.082032.167969-2.78125.945313-.105469.121093-.210938.226562-.332032.332031-.042968.042969-.320312.296875-.359374.339843-.371094.335938-.777344.652344-1.222657.9375-.1875.125-.375.253907-.515625.335938-.503906.28125-1.101562.597656-1.722656.828125-1.636719.609375-3.382812.847656-5.050781.6875-.835938-.085937-1.675781.207031-2.304688.777344-.621093.566406-.980469 1.382812-.980469 2.230469 0 .363281.066407.722656.195313 1.066406l5.921875 15.539062c.445312 1.175782 1.570312 1.933594 2.800781 1.933594.121094 0 .242188-.007812.363281-.023438 4.089844-.496093 8.390626-.882812 12.777344-1.144531.953125-.054687 1.820313-.5625 2.339844-1.363281.523438-.804688.628906-1.804688.289062-2.695312zm-13.792968-1.023438-3.621094-9.507812c1.066406-.183594 2.121094-.46875 3.148438-.847657 1.007812-.375 1.898437-.847656 2.613281-1.246093.117187-.070313.238281-.140626.351562-.214844l4.253907 11.1875c-2.289063.179687-4.542969.386718-6.746094.628906zm0 0" fill="#3a312a"/><path d="m209.445312 113.203125c-2.8125-7.402344-11.089843-11.125-18.496093-8.316406-7.402344 2.8125-11.125 11.09375-8.3125 18.496093 2.8125 7.402344 11.089843 11.125 18.496093 8.316407 7.402344-2.8125 11.125-11.09375 8.3125-18.496094zm0 0" fill="#87796f"/><path d="m212.25 112.136719c-1.640625-4.332031-4.875-7.757813-9.097656-9.65625-4.222656-1.902344-8.933594-2.042969-13.265625-.394531-4.332031 1.644531-7.757813 4.875-9.660157 9.097656-1.898437 4.226562-2.035156 8.933594-.394531 13.265625 2.628907 6.917969 9.234375 11.179687 16.230469 11.179687 2.042969 0 4.117188-.363281 6.136719-1.128906 8.9375-3.390625 13.445312-13.425781 10.050781-22.363281zm-12.183594 16.757812c-5.839844 2.21875-12.40625-.726562-14.621094-6.574219-1.078124-2.832031-.984374-5.910156.253907-8.671874 1.242187-2.765626 3.488281-4.878907 6.316406-5.953126 1.308594-.5 2.671875-.746093 4.03125-.746093 1.582031 0 3.160156.335937 4.644531 1 2.761719 1.242187 4.875 3.488281 5.953125 6.316406 2.21875 5.847656-.734375 12.410156-6.578125 14.628906zm0 0" fill="#3a312a"/><path d="m255.539062 131.703125c-.757812-.28125-1.460937-.640625-2.140624-1.019531-.238282-.140625-.480469-.300782-.71875-.460938-.558594-.359375-1.101563-.78125-1.578126-1.21875-.121093-.101562-.242187-.222656-.34375-.320312-.199218-.179688-.378906-.359375-.558593-.5625l-7.160157 18.839844c4.359376.261718 8.679688.640624 12.960938 1.160156l5.917969-15.539063v-.019531c-2.097657.199219-4.277344-.078125-6.378907-.859375zm0 0" fill="#f16c7a"/><path d="m263.9375 130.34375c-.625-.570312-1.457031-.847656-2.304688-.765625-1.664062.160156-3.414062-.078125-5.054687-.691406-.617187-.226563-1.214844-.542969-1.667969-.792969-.1875-.109375-.375-.238281-.609375-.394531-.402343-.257813-.808593-.574219-1.273437-.992188l-.261719-.257812c-.121094-.105469-.226563-.210938-.332031-.332031-.699219-.777344-1.753906-1.136719-2.78125-.945313-1.03125.191406-1.882813.90625-2.257813 1.882813l-7.160156 18.84375c-.339844.890624-.234375 1.890624.289063 2.691406.515624.800781 1.386718 1.308594 2.339843 1.367187 4.386719.257813 8.6875.644531 12.773438 1.144531.121093.011719.246093.019532.363281.019532 1.230469 0 2.355469-.757813 2.804688-1.929688l5.917968-15.539062c.132813-.34375.195313-.707032.195313-1.070313v-.019531c0-.84375-.355469-1.652344-.980469-2.21875zm-9.910156 14.53125c-2.203125-.242188-4.457032-.453125-6.746094-.628906l4.253906-11.1875c.125.082031.261719.160156.402344.246094.664062.371093 1.554688.84375 2.558594 1.210937 1.027344.382813 2.082031.664063 3.152344.851563zm0 0" fill="#3a312a"/><path d="m265.730469 104.886719c-7.40625-2.808594-15.683594.910156-18.496094 8.316406-2.8125 7.402344.910156 15.683594 8.3125 18.496094 7.40625 2.8125 15.683594-.910157 18.496094-8.316407 2.8125-7.402343-.910157-15.683593-8.3125-18.496093zm0 0" fill="#87796f"/><path d="m276.453125 111.183594c-1.898437-4.222656-5.328125-7.453125-9.660156-9.097656-4.328125-1.648438-9.039063-1.503907-13.265625.394531-4.222656 1.894531-7.457032 5.324219-9.097656 9.65625-1.644532 4.328125-1.507813 9.042969.390624 13.265625 1.898438 4.222656 5.332032 7.457031 9.660157 9.101562 2.019531.765625 4.09375 1.128906 6.136719 1.128906 6.996093 0 13.597656-4.265624 16.226562-11.183593 1.648438-4.328125 1.507812-9.039063-.390625-13.265625zm-5.214844 11.136718c-2.21875 5.84375-8.78125 8.792969-14.625 6.570313-5.84375-2.21875-8.792969-8.78125-6.574219-14.625 1.078126-2.828125 3.1875-5.074219 5.953126-6.316406 2.761718-1.238281 5.84375-1.332031 8.671874-.253907 2.832032 1.074219 5.074219 3.1875 6.316407 5.953126 1.242187 2.757812 1.332031 5.839843.257812 8.671874zm0 0" fill="#3a312a"/><path d="m55.800781 274.460938c0-1.398438.039063-2.796876.097657-4.199219-26.277344 18.160156-44.5 40.359375-52.398438 64.320312-1.71875 5.242188 1.140625 10.902344 6.378906 12.621094 5.242188 1.71875 10.902344-1.121094 12.621094-6.378906 5.757812-17.5 18.039062-33.542969 35.199219-47.320313-1.257813-6.222656-1.898438-12.5625-1.898438-19.042968zm0 0" fill="#87796f"/><path d="m60.640625 292.90625c-1.222656-6.027344-1.839844-12.230469-1.839844-18.445312 0-1.355469.039063-2.710938.09375-4.070313.050781-1.136719-.546875-2.203125-1.546875-2.753906-.996094-.546875-2.21875-.488281-3.152344.160156-26.972656 18.636719-45.488281 41.40625-53.546874 65.851563-2.234376 6.808593 1.488281 14.171874 8.296874 16.40625 1.332032.4375 2.707032.65625 4.070313.65625 2.015625 0 4.015625-.472657 5.863281-1.410157 3.09375-1.566406 5.394532-4.246093 6.46875-7.539062 5.472656-16.625 16.988282-32.074219 34.230469-45.917969.875-.703125 1.285156-1.835938 1.0625-2.9375zm-40.992187 46.984375c-.582032 1.773437-1.816407 3.214844-3.480469 4.054687-1.667969.847657-3.570313.992188-5.351563.40625-3.667968-1.203124-5.671875-5.164062-4.464844-8.828124 7.164063-21.730469 23.175782-42.164063 46.460938-59.367188.09375 5.433594.628906 10.851562 1.601562 16.152344-17.382812 14.292968-29.074218 30.292968-34.765624 47.582031zm0 0" fill="#3a312a"/><path d="m453.179688 334.582031c-7.898438-23.960937-26.121094-46.160156-52.398438-64.320312.058594 1.402343.097656 2.800781.097656 4.199219 0 6.460937-.640625 12.820312-1.898437 19.042968 17.160156 13.777344 29.4375 29.820313 35.199219 47.320313 1.378906 4.21875 5.28125 6.878906 9.5 6.878906 1.019531 0 2.078124-.160156 3.121093-.5 5.238281-1.71875 8.097657-7.378906 6.378907-12.621094zm0 0" fill="#87796f"/><path d="m456.03125 333.644531c-8.058594-24.441406-26.574219-47.210937-53.546875-65.847656-.9375-.648437-2.160156-.707031-3.152344-.160156-.996093.550781-1.597656 1.617187-1.546875 2.753906.054688 1.359375.09375 2.714844.09375 4.070313 0 6.214843-.621094 12.417968-1.839844 18.445312-.222656 1.101562.1875 2.230469 1.0625 2.933594 17.242188 13.847656 28.757813 29.296875 34.226563 45.914062 1.75 5.351563 6.714844 8.949219 12.355469 8.949219 1.371094 0 2.734375-.21875 4.050781-.648437 0 0 0-.003907.003906-.003907 6.804688-2.234375 10.527344-9.59375 8.292969-16.40625zm-10.164062 10.707031c-.714844.234376-1.449219.351563-2.1875.351563-3.035157 0-5.707032-1.933594-6.648438-4.816406-5.691406-17.285157-17.382812-33.285157-34.765625-47.578125.96875-5.300782 1.507813-10.71875 1.601563-16.152344 23.285156 17.203125 39.296874 37.636719 46.460937 59.363281 1.203125 3.664063-.796875 7.628907-4.460937 8.832031zm0 0" fill="#3a312a"/><path d="m53.539062 119.882812c-9.359374 2.359376-18.71875 1.660157-26.898437-2.640624-1.882813-.980469-3.640625-2.140626-5.28125-3.441407.242187 42.523438 18 81.5 47.359375 112 5.101562-9.238281 11.640625-17.917969 19.402344-25.917969-20.261719-22.539062-32.863282-50.101562-34.582032-80zm0 0" fill="#87796f"/><path d="m90.351562 197.875c-20.492187-22.796875-32.1875-49.828125-33.816406-78.164062-.050781-.894532-.5-1.714844-1.21875-2.25-.722656-.527344-1.644531-.703126-2.507812-.488282-8.941406 2.257813-17.511719 1.429688-24.78125-2.390625-1.652344-.863281-3.269532-1.914062-4.804688-3.132812-.90625-.714844-2.140625-.847657-3.175781-.34375-1.039063.503906-1.691406 1.558593-1.683594 2.714843.234375 41.507813 17.351563 82.019532 48.199219 114.0625.570312.589844 1.351562.917969 2.160156.917969.128906 0 .257813-.007812.390625-.023437.945313-.125 1.773438-.691406 2.234375-1.523438 4.902344-8.886718 11.273438-17.390625 18.929688-25.285156 1.09375-1.128906 1.128906-2.917969.074218-4.09375zm-22.214843 22.929688c-26.660157-28.945313-42-64.589844-43.632813-101.304688.246094.136719.492188.269531.742188.398438 7.628906 4.007812 16.394531 5.242187 25.550781 3.636718 2.355469 27.585938 13.796875 53.832032 33.257813 76.269532-6.1875 6.640624-11.523438 13.683593-15.917969 21zm0 0" fill="#3a312a"/><path d="m430.039062 117.242188c-8.179687 4.300781-17.539062 5-26.898437 2.640624-1.722656 29.898438-14.320313 57.460938-34.582031 80 7.761718 8 14.300781 16.679688 19.402344 25.917969 11.96875-12.433593 21.96875-26.292969 29.679687-41.210937l11.511719-28.738282c3.921875-13.480468 6.085937-27.550781 6.167968-42.046874-1.640624 1.296874-3.402343 2.457031-5.28125 3.4375zm0 0" fill="#87796f"/><path d="m436.632812 111.105469c-1.035156-.503907-2.269531-.371094-3.175781.34375-1.535156 1.21875-3.148437 2.269531-4.8125 3.136719-7.261719 3.816406-15.828125 4.640624-24.769531 2.386718-.867188-.214844-1.789062-.039062-2.507812.488282-.722657.53125-1.167969 1.355468-1.222657 2.25-1.628906 28.335937-13.324219 55.367187-33.816406 78.164062-1.050781 1.175781-1.019531 2.964844.078125 4.09375 7.65625 7.894531 14.027344 16.398438 18.929688 25.285156.460937.832032 1.289062 1.398438 2.234374 1.523438.128907.015625.261719.023437.390626.023437.8125 0 1.59375-.328125 2.164062-.917969 12.203125-12.679687 22.359375-26.78125 30.183594-41.917968.757812-1.46875.183594-3.28125-1.285156-4.039063-1.472657-.757812-3.285157-.183593-4.042969 1.285157-6.964844 13.472656-15.84375 26.101562-26.433594 37.59375-4.394531-7.316407-9.730469-14.359376-15.914063-21 19.457032-22.4375 30.898438-48.683594 33.257813-76.269532 9.152344 1.609375 17.917969.375 25.542969-3.632812.25-.128906.5-.265625.75-.402344-.535156 11.925781-2.511719 23.847656-5.90625 35.511719-.460938 1.589843.453125 3.253906 2.042968 3.71875 1.59375.460937 3.253907-.453125 3.71875-2.042969 4.085938-14.0625 6.203126-28.484375 6.285157-42.867188.003906-1.152343-.65625-2.210937-1.691407-2.714843zm0 0" fill="#3a312a"/><path d="m73.558594 331.042969c-19.578125 22.160156-30.980469 48.757812-30.980469 77.320312 0 5.519531 4.480469 10 10 10 5.542969 0 10-4.480469 10-10 0-22.480469 8.582031-43.519531 23.480469-61.519531-4.660156-5.019531-8.839844-10.300781-12.5-15.800781zm0 0" fill="#87796f"/><path d="m88.257812 344.800781c-4.542968-4.890625-8.648437-10.082031-12.203124-15.421875-.515626-.773437-1.363282-1.265625-2.289063-1.328125-.933594-.078125-1.835937.308594-2.453125 1.003907-20.761719 23.496093-31.734375 50.917968-31.734375 79.308593 0 7.167969 5.832031 13 13 13s13-5.832031 13-13c0-20.984375 7.882813-41.59375 22.792969-59.609375.957031-1.15625.910156-2.847656-.113282-3.953125zm-28.679687 63.5625c0 3.859375-3.136719 7-7 7-3.859375 0-7-3.140625-7-7 0-25.742187 9.570313-50.703125 27.71875-72.414062 2.691406 3.773437 5.644531 7.460937 8.808594 11.007812-14.746094 18.621094-22.527344 39.796875-22.527344 61.40625zm0 0" fill="#3a312a"/><path d="m383.121094 331.042969c-3.640625 5.5-7.839844 10.800781-12.5 15.820312 14.917968 18 23.480468 39.039063 23.480468 61.5 0 5.519531 4.457032 10 10 10 5.519532 0 10-4.480469 10-10 0-28.5625-11.402343-55.160156-30.980468-77.320312zm0 0" fill="#87796f"/><path d="m385.367188 329.054688c-.617188-.699219-1.539063-1.074219-2.457032-1.003907-.929687.066407-1.777344.558594-2.292968 1.335938-3.511719 5.308593-7.617188 10.503906-12.199219 15.4375-1.023438 1.105469-1.070313 2.796875-.109375 3.957031 14.910156 17.988281 22.792968 38.589844 22.792968 59.585938 0 7.167968 5.832032 13 13 13 7.167969 0 13-5.832032 13-13 0-28.394532-10.972656-55.816407-31.734374-79.3125zm18.734374 86.308593c-3.863281 0-7-3.140625-7-7 0-21.621093-7.78125-42.792969-22.527343-61.386719 3.183593-3.570312 6.136719-7.257812 8.8125-11.023437 18.144531 21.710937 27.714843 46.667969 27.714843 72.410156 0 3.859375-3.140624 7-7 7zm0 0" fill="#3a312a"/><path d="m120.578125 374.363281c-15.359375 18.539063-24.398437 41.160157-24.398437 65.578125 0 5.519532 4.480468 10 10 10 5.519531 0 10-4.480468 10-10 0-21.058594 8.421874-40.519531 22.578124-56.140625-6.339843-2.859375-12.417968-6.019531-18.179687-9.4375zm0 0" fill="#87796f"/><path d="m141.699219 383.191406c-.199219-.941406-.832031-1.730468-1.707031-2.121094-6.203126-2.800781-12.21875-5.921874-17.878907-9.285156-1.269531-.753906-2.898437-.46875-3.84375.664063-16.414062 19.8125-25.089843 43.152343-25.089843 67.496093 0 7.167969 5.832031 13 13 13 7.167968 0 13-5.832031 13-13 0-19.675781 7.539062-38.390624 21.800781-54.125.648437-.714843.910156-1.691406.71875-2.628906zm-28.519531 56.75c0 3.859375-3.140626 7-7 7-3.859376 0-7-3.140625-7-7 0-22.125 7.636718-43.402344 22.113281-61.6875 4.054687 2.328125 8.265625 4.53125 12.582031 6.589844-13.554688 16.207031-20.695312 35.175781-20.695312 55.097656zm0 0" fill="#3a312a"/><path d="m336.101562 374.382812c-5.761718 3.441407-11.820312 6.578126-18.140624 9.441407 14.140624 15.617187 22.539062 35.058593 22.539062 56.117187 0 5.519532 4.480469 10 10 10s10-4.480468 10-10c0-24.398437-9.039062-47.019531-24.398438-65.558594zm0 0" fill="#87796f"/><path d="m338.410156 372.46875c-.945312-1.140625-2.578125-1.421875-3.847656-.664062-5.546875 3.3125-11.546875 6.4375-17.839844 9.285156-.871094.394531-1.503906 1.183594-1.699218 2.121094-.195313.941406.070312 1.914062.714843 2.625 14.238281 15.730468 21.761719 34.4375 21.761719 54.105468 0 7.167969 5.832031 13 13 13s13-5.832031 13-13c0-24.328125-8.675781-47.660156-25.089844-67.472656zm12.089844 74.472656c-3.859375 0-7-3.140625-7-7 0-19.914062-7.128906-38.875-20.660156-55.078125 4.355468-2.082031 8.554687-4.285156 12.550781-6.589843 14.472656 18.285156 22.109375 39.554687 22.109375 61.667968 0 3.859375-3.140625 7-7 7zm0 0" fill="#3a312a"/><path d="m96.40625 15.964844c-18.109375 7.65625-33.25 25.5-40.347656 45.921875-3.203125-6.40625-5.074219-14.125-5.234375-22.859375-.230469-12.179688 2.878906-24.554688 8.390625-35.6875-16.6875 3.695312-33.570313 17.144531-44.035156 37.082031-16.097657 30.644531-10.957032 65.050781 11.46875 76.832031 22.4375 11.78125 53.671874-3.527344 69.765624-34.171875 12.828126-24.4375 12.171876-51.265625-.007812-67.117187zm0 0" fill="#f16c7a"/><path d="m98.785156 14.136719c-.832031-1.082031-2.292968-1.460938-3.546875-.933594-16.335937 6.90625-30.863281 22.101563-39.179687 40.585937-1.386719-4.542968-2.136719-9.5-2.234375-14.816406-.210938-11.324218 2.582031-23.1875 8.078125-34.296875.511718-1.039062.386718-2.273437-.328125-3.183593-.707031-.90625-1.875-1.328126-3.007813-1.078126-18.257812 4.042969-35.46875 18.476563-46.042968 38.613282-8.078126 15.382812-11.28125 32.191406-9.023438 47.328125 2.3125 15.484375 10.039062 27.402343 21.753906 33.554687 5.515625 2.894532 11.578125 4.335938 17.914063 4.335938 7.132812 0 14.617187-1.828125 22.0625-5.476563 13.742187-6.730469 25.761719-18.914062 33.839843-34.296875 13.054688-24.859375 12.9375-53.125-.285156-70.335937zm-5.03125 67.550781c-7.488281 14.261719-18.554687 25.519531-31.164062 31.695312-12.292969 6.027344-24.5625 6.457032-34.546875 1.214844-9.976563-5.242187-16.585938-15.585937-18.609375-29.128906-2.074219-13.886719.910156-29.390625 8.398437-43.652344 8.5625-16.308594 21.707031-28.535156 35.976563-33.769531-4.121094 10.183594-6.179688 20.796875-5.988282 31.039063.167969 8.984374 2.035157 17.105468 5.550782 24.144531.539062 1.078125 1.675781 1.734375 2.875 1.652343 1.207031-.078124 2.246094-.867187 2.640625-2.007812 6.683593-19.226562 20.542969-35.542969 36.511719-43.167969 10.425781 15.542969 9.859374 40.070313-1.644532 61.980469zm0 0" fill="#3a312a"/><path d="m441.5 40.421875c-10.464844-19.933594-27.347656-33.382813-44.035156-37.078125 5.511718 11.132812 8.621094 23.507812 8.390625 35.683594-.160157 8.734375-2.03125 16.453125-5.234375 22.863281-7.097656-20.425781-22.238282-38.269531-40.347656-45.925781-12.179688 15.851562-12.835938 42.683594-.003907 67.117187 16.089844 30.648438 47.320313 45.957031 69.761719 34.171875 22.425781-11.78125 27.566406-46.1875 11.46875-76.832031zm0 0" fill="#f16c7a"/><path d="m444.160156 39.027344c-10.574218-20.136719-27.789062-34.574219-46.042968-38.613282-1.128907-.25-2.300782.167969-3.011719 1.078126-.710938.910156-.839844 2.144531-.328125 3.179687 5.5 11.113281 8.292968 22.972656 8.082031 34.296875-.101563 5.316406-.851563 10.273438-2.234375 14.820312-8.316406-18.488281-22.84375-33.683593-39.183594-40.589843-1.253906-.527344-2.714844-.144531-3.546875.9375-13.222656 17.210937-13.335937 45.476562-.28125 70.335937 8.078125 15.382813 20.09375 27.566406 33.835938 34.296875 7.445312 3.648438 14.929687 5.476563 22.0625 5.476563 6.339843 0 12.398437-1.445313 17.914062-4.335938 11.714844-6.152344 19.441407-18.070312 21.753907-33.554687 2.261718-15.140625-.945313-31.945313-9.019532-47.328125zm3.085938 46.441406c-2.023438 13.542969-8.632813 23.890625-18.609375 29.128906-9.984375 5.238282-22.253907 4.808594-34.546875-1.214844-12.605469-6.175781-23.675782-17.433593-31.164063-31.695312-11.503906-21.910156-12.070312-46.4375-1.644531-61.980469 15.964844 7.621094 29.824219 23.9375 36.507812 43.167969.398438 1.140625 1.4375 1.929688 2.640626 2.007812 1.210937.078126 2.339843-.574218 2.878906-1.652343 3.515625-7.039063 5.382812-15.164063 5.550781-24.148438.191406-10.242187-1.867187-20.851562-5.988281-31.035156 14.269531 5.230469 27.414062 17.457031 35.976562 33.769531 7.488282 14.261719 10.46875 29.765625 8.398438 43.652344zm0 0" fill="#3a312a"/><path d="m228.339844 146.492188c-95.292969 0-172.542969 57.289062-172.542969 127.960937 0 54.804687 46.464844 101.539063 111.757813 119.777344l29.4375 6.042969c10.171874 1.386718 20.636718 2.148437 31.347656 2.148437 95.292968 0 172.542968-57.292969 172.542968-127.96875 0-70.671875-77.25-127.960937-172.542968-127.960937zm0 0" fill="#f16c7a"/><path d="m228.339844 143.492188c-96.792969 0-175.542969 58.75-175.542969 130.960937 0 54.335937 45.792969 103.628906 113.953125 122.664063 1.589844.441406 3.25-.484376 3.695312-2.082032.445313-1.597656-.488281-3.25-2.082031-3.695312-65.535156-18.304688-109.566406-65.277344-109.566406-116.886719 0-68.90625 76.058594-124.960937 169.542969-124.960937 93.488281 0 169.546875 56.054687 169.546875 124.960937s-76.058594 124.96875-169.546875 124.96875c-10.207032 0-20.617188-.714844-30.941406-2.121094-1.632813-.21875-3.152344.929688-3.375 2.570313-.222657 1.640625.925781 3.152344 2.566406 3.375 10.589844 1.441406 21.273437 2.175781 31.75 2.175781 96.796875 0 175.546875-58.753906 175.546875-130.96875-.003907-72.210937-78.753907-130.960937-175.546875-130.960937zm0 0" fill="#3a312a"/><path d="m267.734375 22.695312c-1.945313 23.128907-26.046875 26.777344-26.046875 26.777344 20.691406.976563 25.847656 28.121094 25.847656 28.121094.441406-19.355469 26.644532-28.40625 26.644532-28.40625-19.628907-1.171875-26.445313-26.492188-26.445313-26.492188zm0 0" fill="#d7e057"/><path d="m294.359375 46.195312c-17.210937-1.03125-23.664063-24.046874-23.730469-24.28125-.382812-1.40625-1.730468-2.328124-3.164062-2.203124-1.449219.132812-2.597656 1.285156-2.71875 2.734374-1.71875 20.429688-22.625 23.925782-23.507813 24.066407-1.527343.230469-2.625 1.578125-2.546875 3.117187.082032 1.542969 1.3125 2.769532 2.855469 2.84375 18.058594.851563 22.996094 25.4375 23.042969 25.683594.277344 1.421875 1.519531 2.433594 2.945312 2.433594.085938 0 .167969-.003906.253906-.007813 1.527344-.128906 2.710938-1.386719 2.75-2.917969.390626-17.019531 24.382813-25.554687 24.625-25.640624 1.351563-.46875 2.183594-1.828126 1.988282-3.246094-.199219-1.414063-1.367188-2.496094-2.792969-2.582032zm-27.132813 20.691407c-2.714843-6.261719-7.417968-13.8125-15.175781-17.753907 5.863281-2.808593 12.820313-7.824218 16.40625-16.542968 3.101563 6.140625 8.398438 13.757812 16.667969 17.445312-6.015625 3.277344-13.84375 8.808594-17.898438 16.851563zm0 0" fill="#3a312a"/><path d="m224.335938 56.660156c-1.375 16.355469-18.421876 18.941406-18.421876 18.941406 14.636719.6875 18.285157 19.886719 18.285157 19.886719.308593-13.691406 18.84375-20.089843 18.84375-20.089843-13.882813-.832032-18.707031-18.738282-18.707031-18.738282zm0 0" fill="#d7e057"/><path d="m243.21875 72.402344c-11.53125-.691406-15.941406-16.371094-15.988281-16.53125-.378907-1.402344-1.703125-2.335938-3.164063-2.203125-1.449218.128906-2.597656 1.285156-2.71875 2.738281-1.15625 13.742188-15.292968 16.132812-15.882812 16.226562-1.527344.230469-2.628906 1.578126-2.546875 3.121094.078125 1.539063 1.3125 2.769532 2.855469 2.84375 12.070312.566406 15.445312 17.285156 15.476562 17.449219.273438 1.421875 1.519531 2.441406 2.949219 2.441406.082031 0 .164062-.003906.25-.011719 1.527343-.125 2.714843-1.386718 2.75-2.921874.261719-11.417969 16.664062-17.265626 16.824219-17.320313 1.351562-.46875 2.1875-1.828125 1.992187-3.246094-.199219-1.417969-1.367187-2.5-2.796875-2.585937zm-19.167969 13.589844c-1.847656-3.773438-4.679687-7.894532-8.894531-10.558594 3.710938-2.082032 7.394531-5.261719 9.742188-9.832032 2.117187 3.746094 5.308593 7.90625 9.882812 10.445313-3.699219 2.203125-7.976562 5.480469-10.730469 9.945313zm0 0" fill="#3a312a"/><path d="m224.335938 3.34375c-1.375 16.355469-18.421876 18.941406-18.421876 18.941406 14.636719.6875 18.285157 19.886719 18.285157 19.886719.308593-13.6875 18.84375-20.089844 18.84375-20.089844-13.882813-.832031-18.707031-18.738281-18.707031-18.738281zm0 0" fill="#d7e057"/><path d="m243.21875 19.085938c-11.53125-.6875-15.941406-16.371094-15.988281-16.53125-.378907-1.402344-1.703125-2.335938-3.164063-2.203126-1.449218.132813-2.597656 1.285157-2.71875 2.738282-1.15625 13.742187-15.292968 16.132812-15.882812 16.226562-1.527344.230469-2.628906 1.582032-2.546875 3.121094.078125 1.539062 1.3125 2.765625 2.855469 2.839844 12.066406.570312 15.445312 17.289062 15.476562 17.453125.269531 1.425781 1.519531 2.441406 2.945312 2.441406.082032 0 .167969-.003906.25-.011719 1.53125-.125 2.714844-1.386718 2.753907-2.921875.257812-11.417969 16.664062-17.269531 16.824219-17.324219 1.351562-.46875 2.1875-1.824218 1.992187-3.242187-.199219-1.414063-1.367187-2.5-2.796875-2.585937zm-19.167969 13.59375c-1.847656-3.773438-4.679687-7.894532-8.894531-10.5625 3.710938-2.082032 7.394531-5.257813 9.742188-9.832032 2.117187 3.746094 5.3125 7.90625 9.882812 10.449219-3.699219 2.199219-7.976562 5.476563-10.730469 9.945313zm0 0" fill="#3a312a"/><path d="m228.339844 149.484375c-4.941406 0-9.820313.15625-14.640625.457031 86.640625 5.5 154.878906 59.242188 154.878906 124.519532 0 65.261718-68.238281 119-154.878906 124.5 4.820312.300781 9.699219.460937 14.640625.460937 93.480468 0 169.539062-56.058594 169.539062-124.960937 0-68.917969-76.058594-124.976563-169.539062-124.976563zm0 0" fill="#d34e5c"/></svg>