<svg height="452pt" viewBox="0 0 452 452.02" width="452pt" xmlns="http://www.w3.org/2000/svg"><path d="m64.832031 375.269531c-1.949219 23.125-26.050781 26.777344-26.050781 26.777344 20.695312.976563 25.851562 28.117187 25.851562 28.117187.441407-19.351562 26.640626-28.402343 26.640626-28.402343-19.625-1.171875-26.441407-26.492188-26.441407-26.492188zm0 0" fill="#d7e057"/><path d="m91.453125 398.769531c-17.210937-1.03125-23.664063-24.050781-23.726563-24.285156-.382812-1.40625-1.722656-2.335937-3.167968-2.203125-1.449219.132812-2.59375 1.285156-2.714844 2.734375-1.722656 20.429687-22.628906 23.925781-23.507812 24.0625-1.527344.230469-2.628907 1.582031-2.546876 3.121094.078126 1.542969 1.3125 2.769531 2.851563 2.84375 18.058594.851562 23 25.4375 23.046875 25.6875.273438 1.421875 1.519531 2.433593 2.945312 2.433593.082032 0 .167969-.003906.25-.011718 1.527344-.125 2.714844-1.382813 2.75-2.917969.390626-17.019531 24.386719-25.554687 24.628907-25.636719 1.347656-.46875 2.183593-1.828125 1.988281-3.246094-.199219-1.417968-1.367188-2.5-2.796875-2.582031zm-27.132813 20.691407c-2.710937-6.261719-7.417968-13.816407-15.171874-17.753907 5.863281-2.808593 12.816406-7.828125 16.402343-16.546875 3.101563 6.144532 8.402344 13.761719 16.667969 17.449219-6.011719 3.273437-13.84375 8.804687-17.898438 16.851563zm0 0" fill="#3a312a"/><path d="m21.433594 409.230469c-1.378906 16.359375-18.421875 18.941406-18.421875 18.941406 14.632812.6875 18.28125 19.886719 18.28125 19.886719.3125-13.6875 18.84375-20.089844 18.84375-20.089844-13.878907-.832031-18.703125-18.738281-18.703125-18.738281zm0 0" fill="#d7e057"/><path d="m40.316406 424.972656c-11.53125-.6875-15.945312-16.371094-15.984375-16.527344-.382812-1.40625-1.714843-2.339843-3.164062-2.207031-1.453125.132813-2.601563 1.289063-2.722657 2.738281-1.15625 13.738282-15.292968 16.128907-15.886718 16.222657-1.523438.234375-2.6250002 1.582031-2.542969 3.121093.078125 1.542969 1.3125 2.773438 2.851563 2.84375 12.074218.566407 15.449218 17.289063 15.480468 17.453126.269532 1.425781 1.519532 2.441406 2.945313 2.441406.082031 0 .167969-.003906.25-.011719 1.53125-.125 2.71875-1.386719 2.753906-2.921875.257813-11.414062 16.660156-17.265625 16.824219-17.320312 1.351562-.46875 2.1875-1.828126 1.992187-3.246094-.195312-1.417969-1.367187-2.5-2.796875-2.585938zm-19.167968 13.589844c-1.847657-3.769531-4.679688-7.890625-8.894532-10.558594 3.710938-2.082031 7.394532-5.261718 9.742188-9.832031 2.113281 3.75 5.308594 7.90625 9.882812 10.449219-3.699218 2.199218-7.980468 5.480468-10.730468 9.941406zm0 0" fill="#3a312a"/><path d="m21.433594 355.914062c-1.378906 16.359376-18.421875 18.941407-18.421875 18.941407 14.632812.6875 18.28125 19.886719 18.28125 19.886719.3125-13.6875 18.84375-20.089844 18.84375-20.089844-13.878907-.828125-18.703125-18.738282-18.703125-18.738282zm0 0" fill="#d7e057"/><path d="m40.316406 371.660156c-11.53125-.691406-15.941406-16.375-15.984375-16.53125-.382812-1.40625-1.714843-2.339844-3.164062-2.203125-1.453125.128907-2.601563 1.285157-2.722657 2.734375-1.15625 13.742188-15.292968 16.132813-15.886718 16.226563-1.523438.230469-2.6250002 1.582031-2.542969 3.121093.078125 1.539063 1.3125 2.769532 2.851563 2.839844 12.074218.566406 15.449218 17.289063 15.480468 17.453125.269532 1.425781 1.519532 2.441407 2.945313 2.441407.082031 0 .164062-.003907.25-.011719 1.527343-.125 2.714843-1.382813 2.75-2.921875.261719-11.417969 16.664062-17.265625 16.824219-17.320313 1.351562-.464843 2.1875-1.828125 1.992187-3.246093-.191406-1.414063-1.363281-2.496094-2.792969-2.582032zm-19.167968 13.585938c-1.847657-3.769532-4.679688-7.890625-8.894532-10.554688 3.710938-2.082031 7.394532-5.261718 9.742188-9.835937 2.113281 3.75 5.308594 7.910156 9.882812 10.449219-3.699218 2.199218-7.980468 5.480468-10.730468 9.941406zm0 0" fill="#3a312a"/><path d="m443.542969 194.042969c-15.902344-98.910157-99.199219-175.660157-201.902344-182.777344l-30.160156-.070313c-103.210938 6.652344-187.023438 83.589844-203 182.847657-1.179688 7.417969.902343 14.960937 5.800781 20.679687l30.859375 36.238282c20.203125-93.539063 93.519531-162.820313 180.882813-162.820313 87.339843 0 160.679687 69.28125 180.859374 162.820313l30.878907-36.238282c4.878906-5.71875 6.980469-13.261718 5.78125-20.679687zm0 0" fill="#fce8cb"/><path d="m446.507812 193.566406c-7.828124-48.683594-32.457031-93.984375-69.347656-127.550781-37.097656-33.761719-85.152344-54.269531-135.308594-57.742187-1.628906-.128907-3.085937 1.132812-3.203124 2.785156-.113282 1.652344 1.132812 3.085937 2.789062 3.199218 48.816406 3.382813 95.582031 23.339844 131.6875 56.195313 35.886719 32.65625 59.84375 76.71875 67.457031 124.070313 1.058594 6.554687-.800781 13.207031-5.105469 18.253906l-27 31.691406c-22.703124-94.117188-96.984374-159.324219-182.453124-159.324219-85.460938 0-159.75 65.207031-182.472657 159.324219l-26.992187-31.695312c-4.296875-5.019532-6.160156-11.675782-5.113282-18.253907 7.648438-47.527343 31.742188-91.707031 67.835938-124.402343 36.328125-32.902344 83.34375-52.765626 132.390625-55.925782 1.652344-.105468 2.910156-1.535156 2.800781-3.1875-.105468-1.652344-1.492187-2.894531-3.1875-2.800781-50.394531 3.25-98.703125 23.65625-136.03125 57.46875-37.105468 33.605469-61.867187 79.027344-69.734375 127.898437-1.324219 8.324219 1.039063 16.746094 6.476563 23.097657l30.859375 36.238281c.578125.679688 1.417969 1.054688 2.285156 1.054688.242187 0 .488281-.027344.730469-.089844 1.109375-.277344 1.960937-1.160156 2.203125-2.277344 20.402343-94.472656 93.574219-160.453125 177.949219-160.453125 84.378906 0 157.546874 65.980469 177.925781 160.453125.242187 1.117188 1.09375 2 2.199219 2.277344 1.105468.277344 2.277343-.097656 3.019531-.964844l30.875-36.234375c5.445312-6.386719 7.804687-14.808594 6.464843-23.105469zm0 0" fill="#3a312a"/><path d="m277.539062 84.941406c-1.765624-27.695312-25.644531-48.714844-53.339843-46.949218-27.691407 1.765624-48.710938 25.644531-46.945313 53.339843 1.765625 27.691407 25.644532 48.710938 53.339844 46.949219 27.691406-1.765625 48.710938-25.648438 46.945312-53.339844zm0 0" fill="#d7e057"/><path d="m227.386719 34.898438c-29.359375 0-53.246094 23.886718-53.246094 53.246093s23.886719 53.242188 53.246094 53.242188 53.242187-23.882813 53.242187-53.242188-23.882812-53.246093-53.242187-53.246093zm0 100.488281c-26.050781 0-47.246094-21.191407-47.246094-47.242188 0-26.046875 21.195313-47.242187 47.246094-47.242187s47.242187 21.195312 47.242187 47.242187c0 26.050781-21.191406 47.242188-47.242187 47.242188zm0 0" fill="#3a312a"/><path d="m57.492188 76.4375c-27.75 0-50.242188 22.496094-50.242188 50.246094 0 27.746094 22.492188 50.242187 50.242188 50.242187s50.242187-22.496093 50.242187-50.242187c0-27.75-22.496094-50.246094-50.242187-50.246094zm0 0" fill="#d7e057"/><path d="m57.492188 73.4375c-29.359376 0-53.242188 23.882812-53.242188 53.246094 0 29.355468 23.882812 53.242187 53.242188 53.242187 29.359374 0 53.242187-23.886719 53.242187-53.242187 0-29.363282-23.882813-53.246094-53.242187-53.246094zm0 100.488281c-26.050782 0-47.242188-21.195312-47.242188-47.242187 0-26.050782 21.191406-47.246094 47.242188-47.246094 26.050781 0 47.242187 21.195312 47.242187 47.246094 0 26.046875-21.191406 47.242187-47.242187 47.242187zm0 0" fill="#3a312a"/><path d="m448.441406 88.144531c0 27.75-22.496094 50.242188-50.242187 50.242188-27.75 0-50.246094-22.492188-50.246094-50.242188s22.496094-50.246093 50.246094-50.246093c27.746093 0 50.242187 22.496093 50.242187 50.246093zm0 0" fill="#d7e057"/><path d="m398.199219 34.898438c-29.359375 0-53.242188 23.886718-53.242188 53.246093s23.882813 53.242188 53.242188 53.242188 53.242187-23.882813 53.242187-53.242188-23.882812-53.246093-53.242187-53.246093zm0 100.488281c-26.050781 0-47.242188-21.191407-47.242188-47.242188 0-26.046875 21.191407-47.242187 47.242188-47.242187s47.242187 21.195312 47.242187 47.242187c0 26.050781-21.191406 47.242188-47.242187 47.242188zm0 0" fill="#3a312a"/><path d="m65.484375 161.078125c-18.996094 0-34.398437 15.402344-34.398437 34.402344 0 18.996093 15.402343 34.398437 34.398437 34.398437 19 0 34.402344-15.402344 34.402344-34.398437 0-19-15.402344-34.402344-34.402344-34.402344zm0 0" fill="#d7e057"/><path d="m65.484375 158.078125c-20.621094 0-37.398437 16.78125-37.398437 37.402344 0 20.621093 16.777343 37.398437 37.398437 37.398437 20.625 0 37.402344-16.777344 37.402344-37.398437 0-20.621094-16.777344-37.402344-37.402344-37.402344zm0 68.800781c-17.3125 0-31.398437-14.085937-31.398437-31.398437s14.085937-31.398438 31.398437-31.398438c17.316406 0 31.402344 14.085938 31.402344 31.398438s-14.085938 31.398437-31.402344 31.398437zm0 0" fill="#3a312a"/><path d="m310.894531 3.003906c-19.367187 0-35.070312 15.699219-35.070312 35.070313 0 19.371093 15.703125 35.070312 35.070312 35.070312 19.371094 0 35.074219-15.699219 35.074219-35.070312 0-19.371094-15.703125-35.070313-35.074219-35.070313zm0 0" fill="#d7e057"/><path d="m310.894531 0c-20.992187 0-38.070312 17.078125-38.070312 38.070312 0 20.992188 17.078125 38.074219 38.070312 38.074219 20.992188 0 38.074219-17.082031 38.074219-38.074219 0-20.992187-17.082031-38.070312-38.074219-38.070312zm0 70.144531c-17.683593 0-32.070312-14.386719-32.070312-32.074219 0-17.683593 14.386719-32.070312 32.070312-32.070312 17.6875 0 32.074219 14.386719 32.074219 32.070312 0 17.6875-14.386719 32.074219-32.074219 32.074219zm0 0" fill="#3a312a"/><path d="m310.894531 3.003906c-19.367187 0-35.070312 15.699219-35.070312 35.070313 0 19.371093 15.703125 35.070312 35.070312 35.070312 19.371094 0 35.074219-15.699219 35.074219-35.070312 0-19.371094-15.703125-35.070313-35.074219-35.070313zm0 0" fill="#d7e057"/><path d="m310.894531 0c-20.992187 0-38.070312 17.078125-38.070312 38.070312 0 20.992188 17.078125 38.074219 38.070312 38.074219 20.992188 0 38.074219-17.082031 38.074219-38.074219 0-20.992187-17.082031-38.070312-38.074219-38.070312zm0 70.144531c-17.683593 0-32.070312-14.386719-32.070312-32.074219 0-17.683593 14.386719-32.070312 32.070312-32.070312 17.6875 0 32.074219 14.386719 32.074219 32.070312 0 17.6875-14.386719 32.074219-32.074219 32.074219zm0 0" fill="#3a312a"/><path d="m129.5625 3.003906c-19.371094 0-35.074219 15.699219-35.074219 35.070313 0 19.371093 15.703125 35.070312 35.074219 35.070312s35.070312-15.699219 35.070312-35.070312c0-19.371094-15.699218-35.070313-35.070312-35.070313zm0 0" fill="#d7e057"/><path d="m129.5625 0c-20.992188 0-38.074219 17.078125-38.074219 38.070312 0 20.992188 17.082031 38.074219 38.074219 38.074219s38.070312-17.082031 38.070312-38.074219c0-20.992187-17.078124-38.070312-38.070312-38.070312zm0 70.144531c-17.683594 0-32.074219-14.386719-32.074219-32.074219 0-17.683593 14.386719-32.070312 32.074219-32.070312 17.683594 0 32.070312 14.386719 32.070312 32.070312 0 17.6875-14.386718 32.074219-32.070312 32.074219zm0 0" fill="#3a312a"/><path d="m418.203125 167.019531c-3.058594-18.75-20.734375-31.472656-39.484375-28.410156-18.75 3.058594-31.472656 20.734375-28.414062 39.484375 3.058593 18.75 20.738281 31.472656 39.488281 28.414062 18.75-3.058593 31.472656-20.738281 28.410156-39.488281zm0 0" fill="#d7e057"/><path d="m384.285156 135.148438c-20.625 0-37.402344 16.777343-37.402344 37.398437 0 20.625 16.777344 37.398437 37.402344 37.398437 20.621094 0 37.398438-16.777343 37.398438-37.398437s-16.777344-37.398437-37.398438-37.398437zm0 68.800781c-17.316406 0-31.402344-14.085938-31.402344-31.402344 0-17.3125 14.085938-31.398437 31.402344-31.398437 17.3125 0 31.398438 14.085937 31.398438 31.398437 0 17.316406-14.085938 31.402344-31.398438 31.402344zm0 0" fill="#3a312a"/><path d="m226.019531 88.144531c-87.347656 0-160.679687 69.285157-180.875 162.808594l73.144531 85.839844 20.03125 23.503906 67.832032 79.605469c10.382812 12.160156 29.347656 12.160156 39.726562 0l161.011719-188.949219c-20.195313-93.523437-93.523437-162.808594-180.871094-162.808594zm0 0" fill="#fce8cb"/><path d="m409.824219 250.320312c-21-97.253906-96.585938-165.179687-183.804688-165.179687-87.226562 0-162.808593 67.925781-183.808593 165.179687-.195313.914063.042968 1.871094.652343 2.578126l73.144531 85.839843c1.074219 1.265625 2.96875 1.410157 4.230469.335938 1.261719-1.070313 1.410157-2.964844.335938-4.226563l-72.179688-84.707031c20.828125-93.691406 93.6875-159 177.625-159s156.792969 65.308594 177.625 159l-160.042969 187.8125c-4.378906 5.128906-10.789062 8.066406-17.582031 8.066406-6.796875 0-13.207031-2.941406-17.578125-8.0625l-67.835937-79.605469c-1.074219-1.261718-2.96875-1.410156-4.230469-.335937s-1.410156 2.964844-.335938 4.226563l67.835938 79.605468c5.515625 6.464844 13.589844 10.171875 22.144531 10.171875 8.550781 0 16.625-3.707031 22.144531-10.171875l161.011719-188.949218c.605469-.707032.84375-1.664063.648438-2.578126zm0 0" fill="#3a312a"/><g fill="#decaad"><path d="m440.582031 194.523438c-3.300781-20.480469-9.640625-40.261719-18.621093-58.761719-5.417969 2.71875-11.359376 4.539062-17.640626 5.261719 10.421876 6.636718 17.363282 18.277343 17.363282 31.519531 0 8.179687-2.640625 15.738281-7.121094 21.878906 0 .039063.019531.058594.019531.101563.199219 1.199218.300781 2.417968.300781 3.617187 0 5.339844-1.902343 10.519531-5.402343 14.640625l-7.679688 9c2.5625 7.359375 4.761719 14.941406 6.640625 22.722656l27.039063-31.722656c3.5-4.121094 5.402343-9.300781 5.402343-14.640625 0-1.199219-.101562-2.417969-.300781-3.617187zm0 0"/><path d="m226.023438 91.140625c-4.363282 0-8.703126.179687-13 .542969 64.292968 5.199218 120.585937 48.726562 149.644531 113.234375 11.320312 25.132812 7.011719 54.566406-10.867188 75.550781l-134.199219 157.492188c-1.339843 1.582031-2.898437 2.941406-4.578124 4.082031 3.777343 2.558593 8.296874 3.980469 13 3.980469 4.238281 0 8.339843-1.140626 11.878906-3.261719 2.121094-1.257813 4.058594-2.878907 5.699218-4.800781l160.039063-187.820313c-20.839844-93.699219-93.679687-159-177.617187-159zm0 0"/></g></svg>