<svg height="453pt" viewBox="0 0 453.66198 453" width="453pt" xmlns="http://www.w3.org/2000/svg"><path d="m132.46875 85.8125c-1.945312 23.125-26.046875 26.777344-26.046875 26.777344 20.695313.976562 25.851563 28.117187 25.851563 28.117187.441406-19.351562 26.640624-28.402343 26.640624-28.402343-19.628906-1.175782-26.445312-26.492188-26.445312-26.492188zm0 0" fill="#d7e057"/><path d="m159.09375 109.308594c-17.207031-1.03125-23.664062-24.046875-23.726562-24.28125-.378907-1.40625-1.707032-2.308594-3.167969-2.203125-1.449219.132812-2.59375 1.285156-2.71875 2.734375-1.71875 20.429687-22.625 23.929687-23.507813 24.0625-1.527344.234375-2.625 1.582031-2.546875 3.125.078125 1.539062 1.3125 2.769531 2.855469 2.839844 18.054688.851562 23 25.4375 23.042969 25.6875.277343 1.421874 1.523437 2.433593 2.949219 2.433593.082031 0 .167968-.003906.25-.007812 1.53125-.128907 2.714843-1.386719 2.75-2.921875.386718-17.019532 24.382812-25.554688 24.625-25.636719 1.351562-.46875 2.183593-1.828125 1.988281-3.246094-.199219-1.417969-1.363281-2.5-2.792969-2.585937zm-27.132812 20.691406c-2.710938-6.261719-7.414063-13.8125-15.175782-17.75 5.863282-2.8125 12.820313-7.828125 16.40625-16.546875 3.101563 6.140625 8.398438 13.761719 16.667969 17.445313-6.015625 3.277343-13.84375 8.808593-17.898437 16.851562zm0 0" fill="#3a312a"/><path d="m89.070312 119.773438c-1.375 16.359374-18.421874 18.941406-18.421874 18.941406 14.636718.6875 18.285156 19.886718 18.285156 19.886718.308594-13.6875 18.84375-20.089843 18.84375-20.089843-13.882813-.832031-18.707032-18.738281-18.707032-18.738281zm0 0" fill="#d7e057"/><path d="m107.957031 135.515625c-11.535156-.6875-15.945312-16.371094-15.988281-16.527344-.378906-1.402343-1.722656-2.316406-3.164062-2.207031-1.449219.132812-2.597657 1.289062-2.722657 2.738281-1.15625 13.742188-15.289062 16.132813-15.878906 16.226563-1.527344.230468-2.628906 1.582031-2.546875 3.121094.078125 1.542968 1.3125 2.769531 2.855469 2.839843 12.066406.570313 15.445312 17.292969 15.476562 17.457031.269531 1.425782 1.515625 2.4375 2.945313 2.4375.082031 0 .167968-.003906.25-.007812 1.53125-.125 2.714844-1.386719 2.753906-2.921875.257812-11.417969 16.660156-17.269531 16.820312-17.324219 1.355469-.46875 2.1875-1.828125 1.992188-3.246094-.199219-1.417968-1.367188-2.5-2.792969-2.585937zm-19.171875 13.589844c-1.847656-3.769531-4.679687-7.890625-8.890625-10.554688 3.710938-2.082031 7.394531-5.261719 9.738281-9.835937 2.117188 3.75 5.308594 7.90625 9.882813 10.449218-3.699219 2.199219-7.976563 5.476563-10.730469 9.941407zm0 0" fill="#3a312a"/><path d="m89.070312 66.457031c-1.375 16.359375-18.421874 18.941407-18.421874 18.941407 14.636718.6875 18.285156 19.886718 18.285156 19.886718.308594-13.6875 18.84375-20.089844 18.84375-20.089844-13.882813-.832031-18.707032-18.738281-18.707032-18.738281zm0 0" fill="#d7e057"/><path d="m107.957031 82.203125c-11.535156-.691406-15.945312-16.371094-15.988281-16.53125-.378906-1.402344-1.722656-2.3125-3.164062-2.203125-1.449219.128906-2.597657 1.285156-2.722657 2.734375-1.15625 13.742187-15.289062 16.132813-15.878906 16.226563-1.527344.234374-2.628906 1.582031-2.546875 3.125.078125 1.539062 1.3125 2.769531 2.855469 2.839843 12.066406.570313 15.445312 17.289063 15.476562 17.453125.269531 1.425782 1.515625 2.441406 2.945313 2.441406.082031 0 .167968-.003906.25-.011718 1.53125-.125 2.714844-1.382813 2.753906-2.921875.257812-11.417969 16.660156-17.265625 16.820312-17.324219 1.355469-.464844 2.1875-1.824219 1.992188-3.242188-.199219-1.417968-1.367188-2.503906-2.792969-2.585937zm-19.171875 13.585937c-1.847656-3.769531-4.679687-7.890624-8.890625-10.554687 3.710938-2.085937 7.394531-5.261719 9.738281-9.835937 2.117188 3.75 5.308594 7.910156 9.882813 10.449218-3.699219 2.199219-7.976563 5.480469-10.730469 9.941406zm0 0" fill="#3a312a"/><path d="m410.066406 104.105469c-46.714844-20.90625-145.386718-19.613281-166.292968 27.097656-20.90625 46.714844 43.871093 121.15625 90.585937 142.0625 46.710937 20.90625 82.730469-8.425781 103.636719-55.140625 20.90625-46.710938 18.785156-93.113281-27.929688-114.019531zm0 0" fill="#d7e057"/><path d="m452.335938 150.886719c-4.222657-22.5625-18.035157-39.222657-41.042969-49.523438-44.90625-20.097656-147.679688-21.832031-170.257813 28.613281-22.574218 50.445313 47.195313 125.933594 92.097656 146.027344 10.679688 4.78125 21.058594 7.167969 31.082032 7.167969 11.574218 0 22.667968-3.183594 33.195312-9.550781 17.078125-10.328125 32.0625-29.09375 43.328125-54.269532 11.261719-25.171874 15.277344-48.847656 11.597657-68.464843zm-17.078126 66.015625c-10.761718 24.050781-24.925781 41.886718-40.957031 51.585937-17.855469 10.800781-37.609375 11.484375-58.71875 2.039063-47.355469-21.191406-108.578125-94.507813-89.070312-138.101563 5.1875-11.585937 21.308593-31.816406 71.050781-37.148437 7.113281-.761719 14.410156-1.128906 21.714844-1.128906 25.636718 0 51.371094 4.554687 69.5625 12.695312 21.105468 9.445312 33.757812 24.636719 37.601562 45.148438 3.449219 18.414062-.417968 40.859374-11.183594 64.910156zm0 0" fill="#3a312a"/><path d="m378.714844 228.964844c-41.339844-41.34375-147.1875-80.15625-188.527344-38.816406-41.34375 41.34375-2.53125 147.1875 38.8125 188.53125 41.339844 41.339843 91.738281 24.707031 133.078125-16.632813 41.34375-41.34375 57.980469-91.738281 16.636719-133.082031zm0 0" fill="#d7e057"/><path d="m380.835938 226.84375c-39.632813-39.636719-148.292969-83.292969-192.773438-38.816406-44.46875 44.472656-.824219 153.136718 38.816406 192.777344 16.503906 16.503906 35.007813 24.8125 55.175782 24.8125 4.585937 0 9.265624-.433594 14.019531-1.292969 22.351562-4.050781 45.910156-17.9375 68.128906-40.15625 22.21875-22.214844 36.101563-45.773438 40.15625-68.125 4.648437-25.660157-3.261719-48.941407-23.523437-69.199219zm-20.875 133.082031c-21.871094 21.867188-78.203126 67.265625-128.839844 16.632813-42.027344-42.027344-77.554688-145.546875-38.816406-184.289063 11.726562-11.71875 29.375-16.640625 49.460937-16.640625 46.296875 0 105.519531 26.148438 134.828125 55.457032 50.632812 50.632812 5.234375 106.96875-16.632812 128.839843zm0 0" fill="#3a312a"/><path d="m376.257812 3.882812c-23.304687-4.125-48.1875 15.273438-66.722656 40.347657l-14.933594 23.988281c-6.441406 12.425781-11.027343 24.90625-12.933593 35.683594-7.285157 41.171875 23.121093 63.894531 64.292969 71.179687 41.175781 7.285157 77.527343-3.617187 84.816406-44.792969 7.285156-41.175781-13.34375-119.121093-54.519532-126.40625zm0 0" fill="#d7e057"/><path d="m424.503906 53.34375c-11.148437-30.328125-28.101562-48.941406-47.722656-52.414062-21.90625-3.886719-47.285156 11.257812-69.660156 41.519531-.984375 1.332031-.703125 3.210937.628906 4.195312 1.332031.980469 3.210938.707031 4.195312-.628906 20.660157-27.941406 44.519532-42.605469 63.789063-39.175781 10.097656 1.785156 29.128906 10.472656 43.140625 48.574218 9.066406 24.652344 12.578125 53.839844 8.949219 74.351563-8.789063 49.675781-59.808594 46.175781-81.339844 42.367187-21.089844-3.734374-37.9375-11.363281-48.726563-22.058593-11.972656-11.875-16.390624-27.230469-13.128906-45.644531 1.832032-10.367188 6.203125-22.410157 12.640625-34.828126.761719-1.46875.1875-3.28125-1.285156-4.042968-1.46875-.757813-3.28125-.1875-4.042969 1.285156-6.710937 12.949219-11.285156 25.585938-13.222656 36.542969-6.753906 38.15625 18.191406 66.066406 66.722656 74.652343 8.089844 1.4375 15.746094 2.136719 22.925782 2.136719 35.878906 0 59.738281-17.558593 65.367187-49.359375 3.800781-21.488281.175781-51.898437-9.230469-77.472656zm0 0" fill="#3a312a"/><path d="m410.066406 104.105469c-46.714844-20.90625-145.386718-19.613281-166.292968 27.097656-20.90625 46.714844 43.871093 121.15625 90.585937 142.0625 46.710937 20.90625 82.730469-8.425781 103.636719-55.140625 20.90625-46.710938 18.785156-93.113281-27.929688-114.019531zm0 0" fill="#d7e057"/><path d="m452.335938 150.886719c-4.222657-22.5625-18.035157-39.222657-41.042969-49.523438-44.90625-20.097656-147.679688-21.832031-170.257813 28.613281-22.574218 50.445313 47.195313 125.933594 92.097656 146.027344 10.679688 4.78125 21.058594 7.167969 31.082032 7.167969 11.574218 0 22.667968-3.183594 33.195312-9.550781 17.078125-10.328125 32.0625-29.09375 43.328125-54.269532 11.261719-25.171874 15.277344-48.847656 11.597657-68.464843zm-17.078126 66.015625c-10.761718 24.050781-24.925781 41.886718-40.957031 51.585937-17.855469 10.800781-37.609375 11.484375-58.71875 2.039063-47.355469-21.191406-108.578125-94.507813-89.070312-138.101563 5.1875-11.585937 21.308593-31.816406 71.050781-37.148437 7.113281-.761719 14.410156-1.128906 21.714844-1.128906 25.636718 0 51.371094 4.554687 69.5625 12.695312 21.105468 9.445312 33.757812 24.636719 37.601562 45.148438 3.449219 18.414062-.417968 40.859374-11.183594 64.910156zm0 0" fill="#3a312a"/><path d="m174.753906 346.285156c-7.285156-41.175781-30.003906-71.578125-71.179687-64.289062-16.039063 2.835937-35.859375 11.589844-53.664063 23.628906l-21.996094 17.738281c-16.679687 16.242188-27.542968 35.207031-24.355468 53.21875 7.285156 41.175781 85.230468 61.808594 126.40625 54.519531 41.171875-7.285156 52.078125-43.640624 44.789062-84.816406zm0 0" fill="#d7e057"/><path d="m177.710938 345.761719c-3.945313-22.296875-12.144532-40.246094-23.707032-51.90625-13.339844-13.453125-30.480468-18.433594-50.953125-14.816407-16.515625 2.925782-36.496093 11.710938-54.820312 24.105469-1.371094.925781-1.734375 2.789063-.804688 4.164063.933594 1.375 2.796875 1.730468 4.167969.800781 17.390625-11.761719 37.019531-20.421875 52.507812-23.160156 18.421876-3.257813 33.773438 1.160156 45.640626 13.128906 10.699218 10.789063 18.324218 27.640625 22.058593 48.730469 3.808594 21.527344 7.308594 72.550781-42.363281 81.339844-20.519531 3.625-49.703125.117187-74.351562-8.949219-38.101563-14.011719-46.789063-33.042969-48.578126-43.140625-2.691406-15.21875 5.652344-33.167969 23.5-50.542969 1.1875-1.15625 1.210938-3.058594.054688-4.246094-1.15625-1.183593-3.050781-1.207031-4.242188-.054687-24.753906 24.105468-27.378906 43.699218-25.21875 55.890625 3.472657 19.625 22.085938 36.574219 52.414063 47.726562 18.832031 6.925781 40.277344 10.714844 58.859375 10.714844 6.652344 0 12.945312-.488281 18.609375-1.492187 38.160156-6.75 55.8125-39.757813 47.226563-88.292969zm0 0" fill="#3a312a"/><path d="m272.941406 334.683594c-20.90625-46.710938-95.351562-111.492188-142.0625-90.585938-46.714844 20.90625-48.003906 119.582032-27.097656 166.292969s67.308594 48.839844 114.023438 27.929687c46.710937-20.90625 76.042968-56.925781 55.136718-103.636718zm0 0" fill="#d7e057"/><path d="m275.679688 333.457031c-20.09375-44.902343-95.574219-114.671875-146.027344-92.097656-50.445313 22.578125-48.710938 125.355469-28.613282 170.257813 10.296876 23.007812 26.957032 36.820312 49.519532 41.046874 4.722656.882813 9.679687 1.324219 14.839844 1.324219 16.265624 0 34.515624-4.375 53.628906-12.925781 25.171875-11.265625 43.9375-26.25 54.269531-43.328125 11.878906-19.640625 12.679687-41.269531 2.382813-64.277344zm-7.519532 61.167969c-9.695312 16.03125-27.53125 30.195312-51.582031 40.960938-24.050781 10.761718-46.496094 14.628906-64.914063 11.179687-20.511718-3.84375-35.703124-16.492187-45.144531-37.597656-10.460937-23.378907-15-59.207031-11.566406-91.28125 5.332031-49.738281 25.5625-65.867188 37.148437-71.050781 5.707032-2.550782 11.917969-3.722657 18.457032-3.722657 43.429687 0 101.226562 51.636719 119.644531 92.796875 9.445313 21.105469 8.757813 40.859375-2.042969 58.714844zm0 0" fill="#3a312a"/><path d="m378.714844 228.964844c-41.339844-41.34375-147.1875-80.15625-188.527344-38.816406-41.34375 41.34375-2.53125 147.1875 38.8125 188.53125 41.339844 41.339843 91.738281 24.707031 133.078125-16.632813 41.34375-41.34375 57.980469-91.738281 16.636719-133.082031zm0 0" fill="#d7e057"/><path d="m380.835938 226.84375c-39.632813-39.636719-148.292969-83.292969-192.773438-38.816406-44.46875 44.472656-.824219 153.136718 38.816406 192.777344 16.503906 16.503906 35.007813 24.8125 55.175782 24.8125 4.585937 0 9.265624-.433594 14.019531-1.292969 22.351562-4.050781 45.910156-17.9375 68.128906-40.15625 22.21875-22.214844 36.101563-45.773438 40.15625-68.125 4.648437-25.660157-3.261719-48.941407-23.523437-69.199219zm-20.875 133.082031c-21.871094 21.867188-78.203126 67.265625-128.839844 16.632813-42.027344-42.027344-77.554688-145.546875-38.816406-184.289063 11.726562-11.71875 29.375-16.640625 49.460937-16.640625 46.296875 0 105.519531 26.148438 134.828125 55.457032 50.632812 50.632812 5.234375 106.96875-16.632812 128.839843zm0 0" fill="#3a312a"/><g fill="#b9bc39"><path d="m418.878906 55.402344c-14.019531-38.097656-33.042968-46.78125-43.140625-48.558594-1.640625-.300781-3.5625-.5-5.742187-.5-3.917969 0-8.699219.660156-14.160156 2.597656 10.480468 4.382813 24.863281 16.0625 36.042968 46.460938 4.9375 13.421875 8.21875 28.160156 9.578125 42.140625 3.460938 1.160156 6.761719 2.441406 9.839844 3.820312 6.78125 3.039063 12.742187 6.640625 17.921875 10.78125.019531-17.839843-3.640625-38.523437-10.339844-56.742187zm0 0"/><path d="m446.4375 151.984375c-3.839844-20.5-16.5-35.703125-37.601562-45.140625-18.179688-8.140625-43.917969-12.699219-69.558594-12.699219-4.460938 0-8.917969.136719-13.339844.4375 20.898438 1.300781 40.960938 5.5625 55.898438 12.261719 21.101562 9.4375 33.761718 24.640625 37.601562 45.140625 3.460938 18.417969-.417969 40.859375-11.179688 64.917969-4.320312 9.640625-9.179687 18.300781-14.5 25.800781 4.078126 6.320313 7.101563 12.898437 9.078126 19.699219 12.523437-10.300782 23.621093-25.820313 32.421874-45.5 10.761719-24.058594 14.640626-46.5 11.179688-64.917969zm0 0"/><path d="m101.039062 411.621094c-10.863281-24.277344-15.601562-61.316406-12.042968-94.378906 1.179687-11.058594 3.222656-21.121094 5.980468-30.140626-9.660156 2.761719-20.097656 7.261719-30.300781 12.941407-1.136719 5.421875-2.039062 11.160156-2.679687 17.199219-3.558594 33.0625 1.179687 70.101562 12.042968 94.378906 2.5 5.582031 5.378907 10.601562 8.636719 15.082031 9.980469 1.878906 19.941407 2.839844 29.140625 2.839844-4.140625-5.179688-7.738281-11.140625-10.777344-17.921875zm0 0"/><path d="m226.878906 380.804688c-26.960937-26.980469-55.78125-85.902344-57.441406-134.820313-6.480469-1.839844-12.820312-2.863281-18.878906-2.863281-4.421875 0-8.699219.542968-12.761719 1.683594 1.539063.339843 3.082031.738281 4.640625 1.179687 1.660156 48.917969 30.480469 107.839844 57.441406 134.820313.109375.109374.21875.214843.328125.328124 16.496094 16.359376 12.015625 44.070313-9.097656 53.757813-.507813.230469-1.019531.460937-1.53125.691406-12.957031 5.800781-25.457031 9.601563-37.097656 11.320313 18.257812 3.199218 40.398437-.71875 64.097656-11.320313 19.882813-8.898437 35.480469-20.117187 45.78125-32.777343-12.640625-3.703126-24.5-11.023438-35.480469-22zm0 0"/><path d="m376.597656 231.082031c-29.320312-29.300781-88.539062-55.460937-134.839844-55.460937-4.460937 0-8.820312.242187-13 .761718 43.660157 4.421876 94.398438 28.28125 120.839844 54.699219 50.640625 50.640625 5.238282 106.980469-16.640625 128.839844-12.558593 12.5625-36.480469 32.882813-64.179687 38.300781 38.519531 8.140625 74.679687-21.78125 91.179687-38.300781 21.878907-21.859375 67.28125-78.199219 16.640625-128.839844zm0 0"/></g></svg>