<svg height="453pt" viewBox="-19 0 453 453.008" width="453pt" xmlns="http://www.w3.org/2000/svg"><path d="m352.929688 168.429688h-260.621094c-20.003906 0-36.21875 16.214843-36.21875 36.214843v28.878907h333.058594v-28.878907c0-20.003906-16.214844-36.214843-36.21875-36.214843zm0 0" fill="#fce8cb"/><path d="m352.929688 165.425781h-83.351563c-1.660156 0-3 1.34375-3 3 0 1.660157 1.339844 3 3 3h83.351563c18.316406 0 33.21875 14.902344 33.21875 33.21875v25.875h-327.058594v-25.875c0-18.320312 14.902344-33.21875 33.21875-33.21875h147.351562c1.660156 0 3-1.339843 3-3 0-1.65625-1.339844-3-3-3h-147.355468c-21.621094 0-39.214844 17.59375-39.214844 39.21875v28.875c0 1.660157 1.339844 3 3 3h333.054687c1.660157 0 3-1.339843 3-3v-28.875c.003907-21.625-17.589843-39.21875-39.214843-39.21875zm0 0" fill="#3a312a"/><path d="m296.484375 103.332031h-147.734375c-20.003906 0-36.21875 16.214844-36.21875 36.21875v28.875h220.171875v-28.875c0-20.003906-16.214844-36.21875-36.21875-36.21875zm0 0" fill="#fce8cb"/><path d="m296.484375 100.332031h-147.734375c-21.625 0-39.21875 17.59375-39.21875 39.21875v28.875c0 1.660157 1.34375 3 3 3h127.128906c1.660156 0 3-1.339843 3-3 0-1.65625-1.339844-3-3-3h-124.128906v-25.875c0-18.316406 14.902344-33.21875 33.21875-33.21875h147.734375c18.316406 0 33.21875 14.902344 33.21875 33.21875v25.875h-60.128906c-1.65625 0-3 1.34375-3 3 0 1.660157 1.34375 3 3 3h63.128906c1.660156 0 3-1.339843 3-3v-28.875c0-21.625-17.59375-39.21875-39.21875-39.21875zm0 0" fill="#3a312a"/><path d="m244.789062 3.542969c-1.820312 34.179687-17.230468 39.671875-28.382812 43.101562-17.183594 5.285157-34.257812 7.28125-46.039062 19.078125-9.917969 9.921875-16.640626 23-18.519532 37.601563h141.539063c-6.433594-80.445313-48.359375-104.378907-48.597657-99.78125zm0 0" fill="#fce8cb"/><path d="m245.539062 0h-.046874c-2.042969.0273438-3.597657 1.453125-3.699219 3.382812-1.75 32.851563-16.503907 37.390626-26.265625 40.390626-3.816406 1.171874-7.683594 2.199218-11.425782 3.1875-13.453124 3.5625-26.15625 6.925781-35.855468 16.640624-10.589844 10.589844-17.46875 24.558594-19.375 39.335938-.109375.855469.15625 1.71875.722656 2.367188.566406.648437 1.390625 1.015624 2.253906 1.015624h141.539063c.835937 0 1.636719-.347656 2.203125-.960937.566406-.617187.855468-1.441406.785156-2.273437-6.117188-76.523438-43.222656-103.085938-50.835938-103.085938zm-90.183593 100.324219c2.28125-12.207031 8.289062-23.632813 17.132812-32.480469 8.554688-8.570312 20.5-11.730469 33.144531-15.078125 3.800782-1.003906 7.726563-2.046875 11.65625-3.253906 10.351563-3.183594 27.472657-8.449219 30.277344-42.601563 8.472656 4.929688 36.640625 30.4375 42.550782 93.414063zm0 0" fill="#3a312a"/><path d="m33.871094 233.265625 42.453125 154.101563c10.195312 37.003906 43.851562 62.640624 82.230469 62.640624h128.128906c38.378906 0 72.03125-25.636718 82.226562-62.640624l42.457032-154.101563zm0 0" fill="#87796f"/><g fill="#3a312a"><path d="m413.753906 231.449219c-.566406-.746094-1.449218-1.183594-2.386718-1.183594h-377.496094c-.9375 0-1.820313.4375-2.386719 1.183594-.570313.742187-.753906 1.710937-.507813 2.613281l42.457032 154.101562c10.515625 38.179688 45.519531 64.84375 85.121094 64.84375h128.128906c39.597656 0 74.601562-26.664062 85.121094-64.84375l42.457031-154.101562c.246093-.902344.058593-1.867188-.507813-2.613281zm-47.734375 155.121093c-9.804687 35.585938-42.429687 60.4375-79.335937 60.4375h-128.128906c-36.910157 0-69.535157-24.855468-79.335938-60.4375l-41.410156-150.304687h369.621094zm0 0"/><path d="m349.367188 231.34375c-.570313-.683594-1.414063-1.078125-2.304688-1.078125h-248.886719c-.890625 0-1.734375.394531-2.304687 1.078125-.570313.683594-.808594 1.585938-.648438 2.457031l27.992188 154.101563c6.964844 38.332031 30.472656 65.105468 57.164062 65.105468h84.480469c26.695313 0 50.203125-26.773437 57.164063-65.105468l27.992187-154.101563c.160156-.871093-.078125-1.773437-.648437-2.457031zm-33.246094 155.492188c-6.433594 35.429687-27.515625 60.171874-51.261719 60.171874h-84.480469c-23.746094 0-44.828125-24.742187-51.261718-60.171874l-27.351563-150.570313h241.703125zm0 0"/><path d="m267.816406 231.214844c-.566406-.605469-1.359375-.945313-2.1875-.945313h-86.023437c-.828125 0-1.621094.339844-2.1875.945313-.566407.601562-.859375 1.414062-.804688 2.242187l4.96875 79.179688c.105469 1.652343 1.546875 2.914062 3.183594 2.804687 1.652344-.101562 2.910156-1.527344 2.804687-3.179687l-4.769531-75.996094h79.632813l-9.472656 150.917969c-1.109376 17.671875-3.539063 33.484375-6.839844 44.519531-3.613282 12.082031-7.296875 15.304687-8.90625 15.304687h-29.195313c-1.609375 0-5.292969-3.222656-8.90625-15.304687-3.300781-11.035156-5.730469-26.847656-6.839843-44.519531l-2.765626-44.117188c-.105468-1.652344-1.550781-2.917968-3.183593-2.804687-1.65625.105469-2.910157 1.527343-2.804688 3.183593l2.765625 44.113282c.6875 10.929687 4.957032 65.449218 21.734375 65.449218h29.195313c16.773437 0 21.046875-54.519531 21.734375-65.449218l9.671875-154.101563c.054687-.828125-.238282-1.640625-.804688-2.242187zm0 0"/></g><path d="m64.828125 22.878906c-1.949219 23.128906-26.046875 26.78125-26.046875 26.78125 20.691406.972656 25.847656 28.117188 25.847656 28.117188.441406-19.351563 26.644532-28.402344 26.644532-28.402344-19.628907-1.175781-26.445313-26.496094-26.445313-26.496094zm0 0" fill="#d7e057"/><path d="m91.449219 46.378906c-17.210938-1.027344-23.664063-24.050781-23.726563-24.28125-.378906-1.402344-1.699218-2.316406-3.164062-2.203125-1.449219.132813-2.597656 1.285157-2.71875 2.734375-1.71875 20.429688-22.625 23.925782-23.507813 24.066406-1.527343.230469-2.625 1.578126-2.546875 3.121094.082032 1.539063 1.316406 2.769532 2.855469 2.839844 18.058594.851562 23 25.4375 23.046875 25.6875.273438 1.421875 1.515625 2.433594 2.941406 2.433594.085938 0 .167969-.003906.253906-.011719 1.527344-.128906 2.714844-1.386719 2.75-2.917969.386719-17.019531 24.382813-25.554687 24.625-25.640625 1.347657-.46875 2.183594-1.828125 1.984376-3.246093-.195313-1.414063-1.363282-2.496094-2.792969-2.582032zm-27.132813 20.691406c-2.710937-6.261718-7.417968-13.8125-15.171875-17.753906 5.863281-2.808594 12.816407-7.824218 16.402344-16.542968 3.101563 6.140624 8.398437 13.761718 16.667969 17.445312-6.011719 3.277344-13.84375 8.808594-17.898438 16.851562zm0 0" fill="#3a312a"/><path d="m21.429688 56.84375c-1.378907 16.355469-18.425782 18.941406-18.425782 18.941406 14.636719.6875 18.285156 19.886719 18.285156 19.886719.3125-13.6875 18.84375-20.089844 18.84375-20.089844-13.882812-.832031-18.703124-18.738281-18.703124-18.738281zm0 0" fill="#d7e057"/><path d="m40.3125 72.585938c-11.53125-.691407-15.945312-16.371094-15.988281-16.53125-.378907-1.402344-1.707031-2.328126-3.164063-2.203126-1.449218.128907-2.597656 1.285157-2.71875 2.738282-1.15625 13.738281-15.292968 16.132812-15.882812 16.226562-1.527344.230469-2.6250002 1.578125-2.5468752 3.121094.078125 1.539062 1.3125002 2.769531 2.8554692 2.84375 12.070312.566406 15.445312 17.285156 15.476562 17.449219.269531 1.425781 1.519531 2.441406 2.945312 2.441406.082032 0 .164063-.003906.25-.011719 1.527344-.125 2.714844-1.386718 2.75-2.921875.261719-11.417969 16.664063-17.265625 16.828126-17.324219 1.351562-.464843 2.1875-1.824218 1.992187-3.242187-.199219-1.417969-1.367187-2.5-2.796875-2.585937zm-19.167969 13.589843c-1.847656-3.769531-4.679687-7.894531-8.894531-10.558593 3.710938-2.082032 7.394531-5.261719 9.742188-9.832032 2.113281 3.746094 5.308593 7.90625 9.882812 10.445313-3.699219 2.203125-7.980469 5.480469-10.730469 9.945312zm0 0" fill="#3a312a"/><path d="m21.429688 3.527344c-1.378907 16.355468-18.425782 18.941406-18.425782 18.941406 14.636719.6875 18.285156 19.886719 18.285156 19.886719.3125-13.6875 18.84375-20.089844 18.84375-20.089844-13.882812-.828125-18.703124-18.738281-18.703124-18.738281zm0 0" fill="#d7e057"/><path d="m40.3125 19.269531c-11.488281-.6875-15.910156-16.25-15.988281-16.527343-.378907-1.402344-1.710938-2.332032-3.164063-2.203126-1.453125.128907-2.597656 1.28125-2.71875 2.734376-1.160156 13.742187-15.292968 16.132812-15.886718 16.230468-1.523438.226563-2.6250005 1.578125-2.5468755 3.121094.0820313 1.539062 1.3124995 2.765625 2.8554685 2.839844 12.070313.570312 15.445313 17.289062 15.480469 17.449218.269531 1.429688 1.515625 2.441407 2.941406 2.441407.085938 0 .167969 0 .25-.007813 1.53125-.128906 2.714844-1.390625 2.753906-2.921875.257813-11.417969 16.664063-17.269531 16.824219-17.324219 1.355469-.46875 2.1875-1.828124 1.992188-3.246093-.195313-1.414063-1.363281-2.5-2.792969-2.585938zm-19.167969 13.59375c-1.847656-3.773437-4.679687-7.894531-8.894531-10.5625 3.710938-2.082031 7.394531-5.257812 9.738281-9.832031 2.117188 3.75 5.3125 7.910156 9.886719 10.449219-3.699219 2.199219-7.980469 5.476562-10.730469 9.945312zm0 0" fill="#3a312a"/><path d="m187.425781 19.472656c-18.566406 0-33.617187 15.050782-33.617187 33.621094 0 18.5625 15.050781 33.613281 33.617187 33.613281 18.566407 0 33.617188-15.050781 33.617188-33.613281 0-18.566406-15.050781-33.621094-33.617188-33.621094zm0 0" fill="#f16c7a"/><path d="m187.429688 16.472656c-20.191407 0-36.621094 16.425782-36.621094 36.621094 0 20.1875 16.425781 36.613281 36.621094 36.613281 20.191406 0 36.613281-16.425781 36.613281-36.613281 0-20.191406-16.425781-36.621094-36.613281-36.621094zm0 67.234375c-16.882813 0-30.621094-13.734375-30.621094-30.613281 0-16.882812 13.734375-30.621094 30.621094-30.621094 16.878906 0 30.613281 13.734375 30.613281 30.621094 0 16.878906-13.734375 30.613281-30.613281 30.613281zm0 0" fill="#3a312a"/><path d="m352.9375 171.429688h-28.699219c18.320313 0 33.21875 14.898437 33.21875 33.21875v25.621093h28.679688v-25.621093c0-18.320313-14.898438-33.21875-33.199219-33.21875zm0 0" fill="#decaad"/><path d="m296.476562 106.328125h-28.679687c18.320313 0 33.222656 14.898437 33.222656 33.21875v25.882813h28.679688v-25.882813c0-18.320313-14.902344-33.21875-33.222657-33.21875zm0 0" fill="#decaad"/><path d="m247.558594 6.90625c-.902344 11.023438-3.28125 19.023438-6.480469 24.921875 8.859375 14.859375 17.378906 37 20.339844 68.5h28.699219c-5.917969-62.980469-34.078126-88.480469-42.558594-93.421875zm0 0" fill="#decaad"/><path d="m378.738281 236.265625-41.421875 150.300781c-5.699218 20.679688-19.097656 37.738282-36.578125 48.378906-4.398437 4.980469-9.261719 9.039063-14.441406 12.0625h.382813c36.917968 0 69.539062-24.863281 79.339843-60.441406l41.398438-150.300781zm0 0" fill="#695b51"/></svg>