<svg height="451pt" viewBox="0 -43 451.76 451" width="451pt" xmlns="http://www.w3.org/2000/svg"><path d="m185.46875 137.902344c-88.351562 0-160.011719 58.890625-160.351562 131.632812h320.703124c-.339843-72.742187-72.003906-131.632812-160.351562-131.632812zm0 0" fill="#fce8cb"/><path d="m185.46875 134.902344c-89.726562 0-163.003906 60.386718-163.351562 134.621094-.003907.796874.308593 1.566406.871093 2.132812.566407.5625 1.328125.878906 2.128907.878906h320.703124c.796876 0 1.5625-.316406 2.128907-.878906.5625-.566406.875-1.335938.871093-2.132812-.347656-74.234376-73.628906-134.621094-163.351562-134.621094zm-157.296875 131.632812c2.285156-69.546875 72.09375-125.632812 157.292969-125.632812 85.207031 0 155.011718 56.085937 157.296875 125.632812zm0 0" fill="#3a312a"/><path d="m277.421875 161.800781c-26.042969-15.058593-57.742187-23.898437-91.960937-23.898437-40.242188 0-77.019532 12.21875-105.160157 32.378906-33.660156 24.140625-55 59.640625-55.179687 99.257812h320.699218c-.199218-44.578124-27.199218-83.9375-68.398437-107.738281zm0 0" fill="#fce8cb"/><path d="m278.921875 159.203125c-27.492187-15.898437-59.8125-24.300781-93.460937-24.300781-39.289063 0-77.257813 11.699218-106.910157 32.941406-35.683593 25.59375-56.253906 62.65625-56.429687 101.683594-.003906.800781.308594 1.566406.871094 2.132812.566406.566406 1.328124.882813 2.128906.882813h320.699218c.796876 0 1.5625-.316407 2.128907-.882813.5625-.566406.875-1.332031.871093-2.132812-.195312-43.910156-26.328124-85.15625-69.898437-110.324219zm-250.746094 107.335937c1.1875-35.976562 20.691407-70.027343 53.871094-93.816406 28.640625-20.523437 65.367187-31.820312 103.414063-31.820312 32.59375 0 63.875 8.121094 90.457031 23.496094 40.699219 23.511718 65.496093 61.519531 66.84375 102.140624zm0 0" fill="#3a312a"/><path d="m65.582031 22.734375c-1.949219 23.128906-26.046875 26.78125-26.046875 26.78125 20.691406.972656 25.847656 28.117187 25.847656 28.117187.441407-19.355468 26.644532-28.402343 26.644532-28.402343-19.628906-1.175781-26.445313-26.496094-26.445313-26.496094zm0 0" fill="#d7e057"/><path d="m92.207031 46.234375c-17.210937-1.03125-23.664062-24.050781-23.726562-24.285156-.378907-1.402344-1.707031-2.332031-3.167969-2.203125-1.449219.132812-2.597656 1.285156-2.71875 2.734375-1.71875 20.433593-22.625 23.929687-23.507812 24.0625-1.527344.234375-2.625 1.582031-2.546876 3.125.082032 1.539062 1.316407 2.769531 2.855469 2.839843 18.054688.851563 22.996094 25.4375 23.042969 25.6875.277344 1.421876 1.519531 2.433594 2.945312 2.433594.085938 0 .167969-.003906.253907-.007812 1.527343-.128906 2.714843-1.386719 2.75-2.921875.386719-17.015625 24.382812-25.550781 24.625-25.636719 1.351562-.46875 2.183593-1.828125 1.984375-3.242188-.195313-1.417968-1.363282-2.5-2.789063-2.585937zm-27.132812 20.6875c-2.710938-6.257813-7.417969-13.8125-15.171875-17.75 5.863281-2.808594 12.816406-7.828125 16.402344-16.546875 3.101562 6.140625 8.398437 13.761719 16.667968 17.445312-6.015625 3.28125-13.847656 8.808594-17.898437 16.851563zm0 0" fill="#3a312a"/><path d="m22.1875 56.695312c-1.378906 16.359376-18.425781 18.941407-18.425781 18.941407 14.636719.691406 18.285156 19.886719 18.285156 19.886719.3125-13.6875 18.84375-20.089844 18.84375-20.089844-13.882813-.828125-18.703125-18.738282-18.703125-18.738282zm0 0" fill="#d7e057"/><path d="m41.070312 72.441406c-11.535156-.691406-15.945312-16.371094-15.992187-16.53125-.375-1.40625-1.71875-2.304687-3.160156-2.207031-1.453125.132813-2.601563 1.289063-2.722657 2.738281-1.15625 13.742188-15.292968 16.132813-15.882812 16.226563-1.523438.230469-2.625 1.582031-2.542969 3.121093.078125 1.542969 1.3125 2.769532 2.855469 2.839844 12.070312.570313 15.445312 17.292969 15.476562 17.457032.269532 1.421874 1.515626 2.4375 2.945313 2.4375.082031 0 .164063-.003907.246094-.007813 1.53125-.125 2.71875-1.386719 2.753906-2.921875.261719-11.417969 16.664063-17.265625 16.824219-17.324219 1.355468-.464843 2.1875-1.824219 1.996094-3.242187-.199219-1.417969-1.371094-2.5-2.796876-2.585938zm-19.171874 13.585938c-1.847657-3.769532-4.679688-7.890625-8.890626-10.554688 3.707032-2.082031 7.390626-5.261718 9.738282-9.835937 2.117187 3.75 5.308594 7.910156 9.882812 10.449219-3.699218 2.199218-7.976562 5.480468-10.730468 9.941406zm0 0" fill="#3a312a"/><path d="m22.1875 3.378906c-1.378906 16.359375-18.425781 18.945313-18.425781 18.945313 14.636719.6875 18.285156 19.886719 18.285156 19.886719.3125-13.691407 18.84375-20.089844 18.84375-20.089844-13.882813-.832032-18.703125-18.742188-18.703125-18.742188zm0 0" fill="#d7e057"/><path d="m41.070312 19.125c-11.535156-.691406-15.945312-16.371094-15.992187-16.53125-.375-1.402344-1.71875-2.335938-3.160156-2.199219-1.453125.128907-2.601563 1.28125-2.722657 2.734375-1.15625 13.742188-15.292968 16.132813-15.882812 16.226563-1.523438.230469-2.625 1.582031-2.542969 3.121093.078125 1.542969 1.3125 2.769532 2.855469 2.84375 12.070312.566407 15.445312 17.289063 15.476562 17.453126.269532 1.421874 1.515626 2.4375 2.945313 2.4375.082031 0 .164063-.003907.246094-.007813 1.53125-.125 2.71875-1.386719 2.753906-2.921875.261719-11.417969 16.664063-17.265625 16.824219-17.324219 1.355468-.464843 2.1875-1.824219 1.996094-3.242187-.199219-1.421875-1.371094-2.503906-2.796876-2.589844zm-19.171874 13.589844c-1.847657-3.773438-4.679688-7.894532-8.890626-10.558594 3.707032-2.082031 7.390626-5.257812 9.738282-9.832031 2.117187 3.746093 5.308594 7.910156 9.882812 10.449219-3.699218 2.199218-7.976562 5.480468-10.730468 9.941406zm0 0" fill="#3a312a"/><path d="m185.460938 137.902344c-40.242188 0-77.019532 12.21875-105.160157 32.378906v62.941406c0 9.757813 7.898438 17.679688 17.679688 17.679688h1.917969c9.761718 0 17.679687-7.921875 17.679687-17.679688v-54.363281c0-9.777344 7.921875-17.699219 17.703125-17.699219h1.898438c9.78125 0 17.699218 7.921875 17.699218 17.699219v33.402344c0 9.777343 7.902344 17.699219 17.679688 17.699219h1.902344c9.777343 0 17.699218-7.921876 17.699218-17.699219v-10.640625c0-9.78125 7.917969-17.699219 17.699219-17.699219h1.902344c9.777343 0 17.699219 7.917969 17.699219 17.699219v7.738281h.179687v31.941406c-.0625 0-.121094-.019531-.179687-.019531v8.320312c0 9.757813 7.898437 17.679688 17.679687 17.679688h1.898437c9.78125 0 17.699219-7.921875 17.699219-17.679688v-70.742187c1.0625-10.117187 5.640625-14.878906 10.683594-17.058594-26.042969-15.058593-57.742187-23.898437-91.960937-23.898437zm0 0" fill="#d7e057"/><path d="m278.921875 159.203125c-27.492187-15.898437-59.8125-24.300781-93.460937-24.300781-39.289063 0-77.257813 11.699218-106.910157 32.941406-.78125.5625-1.25 1.472656-1.25 2.4375v62.941406c0 11.402344 9.277344 20.679688 20.679688 20.679688h1.917969c11.402343 0 20.679687-9.277344 20.679687-20.679688v-54.359375c0-8.105469 6.597656-14.703125 14.703125-14.703125h1.902344c8.105468 0 14.699218 6.597656 14.699218 14.703125v33.398438c0 11.414062 9.277344 20.699219 20.679688 20.699219h1.898438c11.414062 0 20.699218-9.285157 20.699218-20.699219v-10.640625c0-8.105469 6.597656-14.699219 14.703125-14.699219h1.898438c8.105469 0 14.699219 6.59375 14.699219 14.699219v7.742187c0 .339844.066406.664063.179687.96875v29.925781c-.117187.320313-.179687.664063-.179687 1.023438v8.320312c0 11.402344 9.277343 20.679688 20.679687 20.679688h1.902344c11.414062 0 20.699219-9.277344 20.699219-20.679688v-70.578124c.816406-7.507813 3.71875-12.242188 8.871093-14.464844 1.039063-.453125 1.738281-1.453125 1.800781-2.582032.066407-1.132812-.511718-2.207031-1.492187-2.773437zm-15.164063 19.34375c-.011718.105469-.019531.210937-.019531.3125v70.742187c0 8.09375-6.59375 14.679688-14.699219 14.679688h-1.898437c-8.09375 0-14.679687-6.585938-14.679687-14.679688v-7.277343c.117187-.320313.179687-.664063.179687-1.027344v-31.9375c0-.339844-.066406-.667969-.179687-.96875v-6.773437c0-11.414063-9.285157-20.699219-20.699219-20.699219h-1.898438c-11.414062 0-20.703125 9.285156-20.703125 20.699219v10.640624c0 8.105469-6.59375 14.699219-14.699218 14.699219h-1.902344c-8.09375 0-14.679688-6.597656-14.679688-14.699219v-33.398437c0-11.414063-9.285156-20.699219-20.699218-20.699219h-1.898438c-11.414062 0-20.703125 9.285156-20.703125 20.699219v54.363281c0 8.09375-6.585937 14.679688-14.679687 14.679688h-1.921876c-8.09375 0-14.679687-6.585938-14.679687-14.679688v-61.390625c28.457031-19.957031 64.667969-30.929687 102.160156-30.929687 30.808594 0 60.4375 7.257812 86.035157 21.027344-4.363282 3.628906-6.957032 9.191406-7.734376 16.617187zm0 0" fill="#3a312a"/><path d="m427.609375 117.617188c-1.917969-5.195313-9.351563-4.929688-10.824219.410156-3.804687 13.808594-9.496094 33.097656-16.5 46.855468-40.019531 78.601563-99.214844 62.046876-153.675781 42.988282-12.960937-4.535156-27.347656.136718-35.140625 11.441406l-.332031.480469c-8.507813 12.335937-6.898438 29.160156 4.082031 39.355469 2.460938 2.285156 5.039062 4.476562 7.707031 6.597656l12.902344 9.050781c2.871094 1.773437 5.824219 3.460937 8.878906 5.042969 53.878907 27.917968 120.445313 14.6875 159.664063-31.617188 32.335937-38.171875 38.914062-88.078125 23.238281-130.605468zm0 0" fill="#f16c7a"/><g fill="#3a312a"><path d="m430.421875 116.582031c-1.335937-3.628906-4.601563-5.902343-8.546875-5.707031-3.828125.160156-6.960938 2.65625-7.980469 6.355469-3.691406 13.394531-9.398437 32.765625-16.285156 46.292969-37.570313 73.789062-90.164063 62.457031-150.011719 41.515624-14.1875-4.960937-30.070312.203126-38.605468 12.574219l-.328126.476563c-9.363281 13.578125-7.425781 32.175781 4.511719 43.261718 2.429688 2.25 5.082031 4.523438 8.027344 6.851563l12.902344 9.050781c.046875.035156.097656.066406.148437.097656 3.03125 1.875 6.085938 3.605469 9.070313 5.15625 19.179687 9.9375 40.066406 14.722657 60.828125 14.722657 38.507812 0 76.585937-16.464844 102.507812-47.066407 31.378906-37.046874 40.484375-88.230468 23.761719-133.582031zm-28.335937 129.703125c-38.109376 44.992188-103.714844 57.988282-155.996094 30.894532-2.832032-1.46875-5.726563-3.109376-8.609375-4.886719l-12.691407-8.894531c-2.679687-2.128907-5.214843-4.296876-7.53125-6.445313-9.769531-9.066406-11.335937-24.3125-3.648437-35.460937l.324219-.476563c7.003906-10.148437 20.023437-14.398437 31.683594-10.3125 60.253906 21.085937 117.621093 33.546875 157.339843-44.457031 7.132813-14.011719 12.960938-33.773438 16.722657-47.421875.476562-1.738281 1.996093-1.933594 2.449218-1.957031.441406-.011719 2.027344.050781 2.664063 1.789062 15.972656 43.328125 7.273437 92.234375-22.707031 127.628906zm0 0"/><path d="m267.460938 211.679688c-1.511719-.683594-3.285157-.003907-3.964844 1.507812-10.15625 22.605469-13.859375 47.542969-10.710938 72.117188.195313 1.511718 1.484375 2.617187 2.972656 2.617187.125 0 .253907-.007813.382813-.023437 1.644531-.210938 2.804687-1.714844 2.59375-3.359376-3.007813-23.46875.535156-47.292968 10.234375-68.894531.679688-1.507812.003906-3.289062-1.507812-3.964843zm0 0"/><path d="m327.015625 291.554688c-10.195313-20.976563-14.453125-44.394532-12.320313-67.726563.148438-1.648437-1.066406-3.109375-2.714843-3.261719-1.667969-.15625-3.113281 1.0625-3.261719 2.714844-2.230469 24.417969 2.230469 48.933594 12.898438 70.890625.519531 1.070313 1.585937 1.691406 2.699218 1.691406.441406 0 .886719-.097656 1.308594-.300781 1.492188-.722656 2.113281-2.519531 1.390625-4.007812zm0 0"/><path d="m392.011719 260.691406c-13.566407-13.539062-24.105469-30.359375-30.460938-48.628906-.546875-1.5625-2.257812-2.394531-3.820312-1.847656-1.566407.542968-2.390625 2.257812-1.847657 3.820312 6.65625 19.125 17.683594 36.726563 31.890626 50.902344.585937.585938 1.351562.878906 2.121093.878906s1.539063-.292968 2.125-.882812c1.167969-1.171875 1.164063-3.070313-.007812-4.242188zm0 0"/><path d="m431.234375 200.3125c-12.488281-8.109375-23.382813-18.246094-32.382813-30.125-1-1.320312-2.878906-1.578125-4.203124-.578125-1.320313 1-1.582032 2.882813-.578126 4.203125 9.421876 12.433594 20.824219 23.042969 33.894532 31.53125.503906.328125 1.070312.484375 1.632812.484375.976563 0 1.941406-.480469 2.515625-1.367187.902344-1.386719.507813-3.246094-.878906-4.148438zm0 0"/></g><path d="m413.234375 96.957031c-8.679687-11.984375-19.140625-20.695312-23.367187-19.457031-4.226563 1.238281-.613282 11.957031 8.070312 23.945312 8.679688 11.984376 19.140625 20.699219 23.367188 19.457032 4.222656-1.238282.609374-11.957032-8.070313-23.945313zm0 0" fill="#d7e057"/><path d="m415.664062 95.199219c-5.867187-8.101563-18.957031-22.832031-26.636718-20.578125-1.6875.496094-2.941406 1.71875-3.53125 3.449218-1.9375 5.667969 3.898437 16.699219 10.011718 25.132813 5.457032 7.539063 17.191407 20.808594 24.964844 20.808594.582032 0 1.140625-.074219 1.671875-.230469 1.6875-.496094 2.941407-1.71875 3.53125-3.449219 1.9375-5.664062-3.902343-16.695312-10.011719-25.132812zm4.421876 22.8125c-2.664063-.359375-11.167969-6.519531-19.71875-18.328125-7.191407-9.925782-9.507813-17.144532-9.28125-19.292969 2.664062.359375 11.167968 6.519531 19.71875 18.328125 7.191406 9.925781 9.503906 17.144531 9.28125 19.292969zm0 0" fill="#3a312a"/><path d="m444.988281 72.664062c-4.375-.484374-13.160156 9.917969-19.617187 23.230469-6.460938 13.3125-8.152344 24.5-3.773438 24.980469 4.375.484375 13.160156-9.914062 19.617188-23.226562 6.460937-13.316407 8.152344-24.5 3.773437-24.984376zm0 0" fill="#d7e057"/><path d="m449.394531 72.460938c-.878906-1.601563-2.328125-2.589844-4.078125-2.78125-7.855468-.867188-18.28125 15.910156-22.644531 24.90625v-.003907c-4.546875 9.371094-8.375 21.25-5.480469 26.496094.882813 1.597656 2.332032 2.585937 4.078125 2.78125.199219.019531.402344.035156.605469.035156 7.84375-.003906 17.785156-16.167969 22.042969-24.941406 4.546875-9.367187 8.371093-21.25 5.476562-26.492187zm-10.875 23.875c-6.386719 13.160156-13.710937 20.710937-16.226562 21.492187-.601563-2.0625.417969-9.582031 5.777343-20.625 6.382813-13.15625 13.707032-20.710937 16.222657-21.492187.601562 2.066406-.417969 9.582031-5.773438 20.625zm0 0" fill="#3a312a"/><path d="m3 269.535156c0 38.875 31.511719 70.382813 70.382812 70.382813h304.996094c38.871094 0 70.382813-31.511719 70.382813-70.382813zm0 0" fill="#87796f"/><path d="m448.761719 266.535156h-445.761719c-1.65625 0-3 1.34375-3 3 0 40.464844 32.921875 73.382813 73.382812 73.382813h9.0625c1.65625 0 3-1.34375 3-3s-1.34375-3-3-3h-9.0625c-36.152343 0-65.742187-28.613281-67.316406-64.382813h439.628906c-1.574218 35.773438-31.167968 64.382813-67.320312 64.382813h-266.0625c-1.65625 0-3 1.34375-3 3s1.34375 3 3 3h266.0625c40.464844 0 73.386719-32.917969 73.386719-73.382813 0-1.65625-1.34375-3-3-3zm0 0" fill="#3a312a"/><path d="m131.492188 339.921875h188.777343v23.460937h-188.777343zm0 0" fill="#87796f"/><path d="m320.265625 336.921875h-188.773437c-1.652344 0-3 1.34375-3 3v23.457031c0 1.65625 1.347656 3 3 3h140.730468c1.65625 0 3-1.34375 3-3 0-1.652344-1.34375-3-3-3h-137.730468v-17.457031h182.777343v17.457031h-14.882812c-1.65625 0-3 1.347656-3 3 0 1.65625 1.34375 3 3 3h17.882812c1.65625 0 3-1.34375 3-3v-23.457031c-.003906-1.660156-1.347656-3-3.003906-3zm0 0" fill="#3a312a"/><path d="m416.800781 272.539062c-1.582031 35.761719-31.160156 64.382813-67.320312 64.382813h28.898437c36.140625 0 65.742188-28.621094 67.320313-64.382813zm0 0" fill="#695b51"/></svg>