<svg height="451pt" viewBox="0 0 451.762 451" width="451pt" xmlns="http://www.w3.org/2000/svg"><path d="m69.511719 22.734375c-1.949219 23.128906-26.050781 26.78125-26.050781 26.78125 20.695312.972656 25.851562 28.117187 25.851562 28.117187.441406-19.355468 26.640625-28.40625 26.640625-28.40625-19.625-1.175781-26.441406-26.492187-26.441406-26.492187zm0 0" fill="#d7e057"/><path d="m96.132812 46.234375c-17.207031-1.03125-23.664062-24.050781-23.726562-24.285156-.382812-1.40625-1.722656-2.332031-3.167969-2.199219-1.449219.128906-2.59375 1.28125-2.714843 2.734375-1.722657 20.429687-22.628907 23.925781-23.507813 24.0625-1.527344.230469-2.628906 1.582031-2.546875 3.121094.078125 1.542969 1.3125 2.769531 2.851562 2.84375 18.058594.851562 23 25.4375 23.046876 25.6875.273437 1.421875 1.519531 2.433593 2.945312 2.433593.082031 0 .167969-.003906.25-.011718 1.53125-.128906 2.714844-1.382813 2.75-2.917969.390625-17.019531 24.386719-25.558594 24.628906-25.640625 1.347656-.46875 2.183594-1.828125 1.988282-3.242188-.199219-1.421874-1.367188-2.503906-2.796876-2.585937zm-27.128906 20.691406c-2.714844-6.261719-7.417968-13.816406-15.175781-17.753906 5.863281-2.808594 12.816406-7.824219 16.402344-16.546875 3.105469 6.144531 8.402343 13.761719 16.667969 17.449219-6.011719 3.277343-13.84375 8.808593-17.894532 16.851562zm0 0" fill="#3a312a"/><path d="m26.113281 56.695312c-1.378906 16.359376-18.421875 18.941407-18.421875 18.941407 14.632813.691406 18.28125 19.890625 18.28125 19.890625.3125-13.691406 18.84375-20.089844 18.84375-20.089844-13.878906-.832031-18.703125-18.742188-18.703125-18.742188zm0 0" fill="#d7e057"/><path d="m44.996094 72.441406c-11.53125-.691406-15.941406-16.371094-15.984375-16.53125-.382813-1.402344-1.703125-2.328125-3.164063-2.203125-1.453125.128907-2.601562 1.285157-2.722656 2.734375-1.15625 13.742188-15.289062 16.132813-15.882812 16.226563-1.527344.234375-2.625 1.582031-2.546876 3.121093.078126 1.542969 1.3125 2.769532 2.851563 2.84375 12.074219.566407 15.449219 17.289063 15.480469 17.453126.269531 1.425781 1.515625 2.441406 2.941406 2.441406.085938 0 .167969-.003906.25-.011719 1.53125-.125 2.71875-1.386719 2.753906-2.921875.257813-11.417969 16.664063-17.265625 16.824219-17.324219 1.355469-.46875 2.1875-1.824219 1.992187-3.242187-.191406-1.417969-1.363281-2.503906-2.792968-2.585938zm-19.167969 13.589844c-1.847656-3.773438-4.679687-7.894531-8.894531-10.558594 3.710937-2.082031 7.394531-5.261718 9.742187-9.835937 2.113281 3.75 5.308594 7.910156 9.882813 10.449219-3.699219 2.199218-7.980469 5.476562-10.730469 9.945312zm0 0" fill="#3a312a"/><path d="m26.113281 3.378906c-1.378906 16.359375-18.421875 18.941406-18.421875 18.941406 14.632813.691407 18.28125 19.886719 18.28125 19.886719.3125-13.6875 18.84375-20.089843 18.84375-20.089843-13.878906-.828126-18.703125-18.738282-18.703125-18.738282zm0 0" fill="#d7e057"/><path d="m44.996094 19.125c-11.53125-.6875-15.941406-16.371094-15.984375-16.527344-.382813-1.40625-1.714844-2.332031-3.164063-2.207031-1.453125.132813-2.601562 1.289063-2.722656 2.738281-1.15625 13.738282-15.292969 16.132813-15.882812 16.226563-1.527344.230469-2.625 1.582031-2.546876 3.117187.078126 1.542969 1.3125 2.773438 2.855469 2.84375 12.070313.566406 15.445313 17.289063 15.476563 17.453125.269531 1.425781 1.519531 2.441407 2.945312 2.441407.082032 0 .167969-.003907.25-.011719 1.53125-.125 2.71875-1.386719 2.753906-2.921875.257813-11.417969 16.664063-17.265625 16.824219-17.324219 1.355469-.464844 2.1875-1.824219 1.992188-3.242187-.195313-1.417969-1.367188-2.5-2.796875-2.585938zm-19.167969 13.589844c-1.847656-3.769532-4.679687-7.890625-8.894531-10.558594 3.710937-2.082031 7.394531-5.261719 9.742187-9.832031 2.113281 3.75 5.308594 7.910156 9.882813 10.449219-3.699219 2.195312-7.980469 5.476562-10.730469 9.941406zm0 0" fill="#3a312a"/><path d="m225.878906 35.214844c-20.351562 0-103.605468 52.035156-103.605468 96.648437s46.386718 43.773438 103.605468 43.773438c57.222656 0 103.605469.835937 103.605469-43.777344s-82.332031-96.644531-103.605469-96.644531zm0 0" fill="#fce8cb"/><g fill="#3a312a"><path d="m287.535156 64.464844c-22.617187-18.085938-49.699218-32.25-61.65625-32.25-21.339844 0-106.605468 53.152344-106.605468 99.648437 0 21.335938 10.292968 34.808594 31.464843 41.191407 18.578125 5.597656 43.339844 5.574218 72.035157 5.582031h6.210937c1.054687 0 2.105469.003906 3.148437.003906 27.347657 0 50.996094-.195313 68.886719-5.585937 21.175781-6.378907 31.464844-19.855469 31.464844-41.191407 0-27.367187-28.164063-53.976562-44.949219-67.398437zm11.753906 102.84375c-17.726562 5.34375-42.105468 5.320312-70.300781 5.328125h-6.214843c-28.203126-.027344-52.574219.015625-70.304688-5.328125-18.808594-5.667969-27.195312-16.601563-27.195312-35.449219 0-42.484375 80.960937-93.644531 100.605468-93.644531 19.648438 0 100.605469 51.160156 100.605469 93.644531 0 18.847656-8.386719 29.78125-27.195313 35.449219zm0 0"/><path d="m225.878906 58.214844c-1.65625 0-3 1.34375-3 3v33.664062c0 1.65625 1.34375 3 3 3 1.660156 0 3-1.34375 3-3v-33.664062c0-1.65625-1.339844-3-3-3zm0 0"/><path d="m209.652344 58.792969c-1.335938-.976563-3.207032-.6875-4.191406.648437l-24.667969 33.664063c-.980469 1.335937-.691407 3.214843.644531 4.195312.535156.390625 1.15625.578125 1.773438.578125.921874 0 1.832031-.425781 2.421874-1.222656l24.667969-33.667969c.980469-1.335937.6875-3.214843-.648437-4.195312zm0 0"/><path d="m270.964844 93.109375-24.664063-33.667969c-.980469-1.335937-2.855469-1.617187-4.195312-.644531-1.335938.976563-1.625 2.859375-.644531 4.195313l24.664062 33.664062c.589844.800781 1.5 1.226562 2.421875 1.226562.617187 0 1.238281-.191406 1.773437-.582031 1.335938-.976562 1.625-2.855469.644532-4.191406zm0 0"/></g><path d="m317.757812 108.417969c-20.355468 0-103.609374 52.035156-103.609374 96.648437 0 44.613282 46.386718 43.777344 103.609374 43.777344 57.21875 0 103.605469.835938 103.605469-43.777344 0-44.613281-82.335937-96.648437-103.605469-96.648437zm0 0" fill="#fce8cb"/><path d="m379.410156 137.671875c-22.617187-18.085937-49.699218-32.25-61.652344-32.25-21.34375 0-106.609374 53.148437-106.609374 99.644531 0 21.339844 10.292968 34.808594 31.464843 41.191406 18.578125 5.597657 43.347657 5.566407 72.035157 5.585938h6.210937 3.152344c27.347656 0 50.992187-.191406 68.882812-5.585938 21.171875-6.378906 31.464844-19.851562 31.464844-41.191406.003906-27.363281-28.160156-53.972656-44.949219-67.394531zm11.753906 102.84375c-17.726562 5.339844-42.101562 5.304687-70.300781 5.328125h-6.214843c-28.214844.015625-52.574219.011719-70.300782-5.328125-18.808594-5.667969-27.195312-16.601563-27.195312-35.449219 0-42.484375 80.960937-93.644531 100.605468-93.644531 19.644532 0 100.605469 51.160156 100.605469 93.644531 0 18.847656-8.390625 29.78125-27.199219 35.449219zm0 0" fill="#3a312a"/><path d="m317.753906 131.421875c-1.65625 0-3 1.34375-3 3v33.664063c0 1.65625 1.34375 3 3 3s3-1.34375 3-3v-33.664063c0-1.65625-1.34375-3-3-3zm0 0" fill="#3a312a"/><path d="m301.527344 132c-1.335938-.976562-3.210938-.691406-4.191406.644531l-24.667969 33.667969c-.980469 1.335938-.691407 3.214844.644531 4.195312.539062.390626 1.15625.578126 1.773438.578126.921874 0 1.835937-.425782 2.421874-1.226563l24.667969-33.664063c.976563-1.335937.6875-3.21875-.648437-4.195312zm0 0" fill="#3a312a"/><path d="m362.84375 166.3125-24.667969-33.667969c-.980469-1.335937-2.859375-1.621093-4.195312-.644531-1.335938.976562-1.625 2.859375-.644531 4.195312l24.667968 33.664063c.585938.804687 1.496094 1.226563 2.421875 1.226563.613281 0 1.234375-.191407 1.769531-.578126 1.335938-.980468 1.625-2.859374.648438-4.195312zm0 0" fill="#3a312a"/><path d="m130.066406 108.417969c-20.355468 0-103.605468 52.035156-103.605468 96.648437 0 44.613282 46.386718 43.777344 103.605468 43.777344s103.605469.835938 103.605469-43.777344c0-44.613281-82.332031-96.648437-103.605469-96.648437zm0 0" fill="#fce8cb"/><path d="m191.71875 137.671875c-22.613281-18.085937-49.695312-32.25-61.652344-32.25-21.34375 0-106.605468 53.148437-106.605468 99.644531 0 21.339844 10.292968 34.808594 31.464843 41.191406 18.574219 5.597657 43.347657 5.566407 72.03125 5.585938h6.214844 3.148437c27.351563 0 50.992188-.191406 68.886719-5.585938 21.171875-6.378906 31.464844-19.851562 31.464844-41.191406 0-27.363281-28.164063-53.972656-44.953125-67.394531zm11.757812 102.84375c-17.730468 5.339844-42.101562 5.304687-70.300781 5.328125h-6.21875c-28.222656.015625-52.574219.011719-70.300781-5.328125-18.804688-5.667969-27.195312-16.601563-27.195312-35.449219 0-42.484375 80.960937-93.644531 100.605468-93.644531 19.648438 0 100.609375 51.160156 100.609375 93.644531-.003906 18.847656-8.390625 29.78125-27.199219 35.449219zm0 0" fill="#3a312a"/><path d="m130.066406 131.421875c-1.660156 0-3 1.34375-3 3v33.664063c0 1.65625 1.339844 3 3 3 1.65625 0 3-1.34375 3-3v-33.664063c0-1.65625-1.34375-3-3-3zm0 0" fill="#3a312a"/><path d="m113.839844 132c-1.335938-.976562-3.210938-.691406-4.195313.644531l-24.664062 33.667969c-.980469 1.335938-.691407 3.214844.644531 4.195312.535156.390626 1.15625.578126 1.773438.578126.921874 0 1.832031-.425782 2.421874-1.226563l24.667969-33.664063c.976563-1.335937.6875-3.21875-.648437-4.195312zm0 0" fill="#3a312a"/><path d="m175.152344 166.3125-24.667969-33.667969c-.976563-1.335937-2.855469-1.621093-4.191406-.644531-1.335938.976562-1.628907 2.859375-.648438 4.195312l24.667969 33.664063c.589844.804687 1.5 1.226563 2.421875 1.226563.617187 0 1.238281-.191407 1.773437-.578126 1.335938-.980468 1.625-2.859374.644532-4.195312zm0 0" fill="#3a312a"/><path d="m414.15625 214.355469h-376.554688c-19.109374 0-34.601562 15.492187-34.601562 34.601562v48.101563c0 19.109375 15.492188 34.601562 34.601562 34.601562h376.554688c19.113281 0 34.605469-15.492187 34.605469-34.601562v-48.101563c0-19.109375-15.492188-34.601562-34.605469-34.601562zm0 0" fill="#87796f"/><path d="m414.15625 211.355469h-103.933594c-1.660156 0-3 1.34375-3 3s1.339844 3 3 3h103.933594c17.425781 0 31.605469 14.175781 31.605469 31.601562v48.101563c0 17.429687-14.175781 31.605468-31.605469 31.605468h-376.554688c-17.425781 0-31.601562-14.175781-31.601562-31.605468v-48.101563c0-17.425781 14.175781-31.601562 31.601562-31.601562h242.601563c1.660156 0 3-1.34375 3-3s-1.339844-3-3-3h-242.601563c-20.734374 0-37.601562 16.867187-37.601562 37.601562v48.101563c0 20.734375 16.867188 37.605468 37.601562 37.605468h376.554688c20.734375 0 37.605469-16.871093 37.605469-37.605468v-48.101563c0-20.734375-16.871094-37.601562-37.605469-37.601562zm0 0" fill="#3a312a"/><path d="m414.15625 331.664062h-376.554688c-19.109374 0-34.601562 15.492188-34.601562 34.601563v48.101563c0 19.109374 15.492188 34.601562 34.601562 34.601562h376.554688c19.113281 0 34.605469-15.492188 34.605469-34.601562v-48.101563c0-19.109375-15.492188-34.601563-34.605469-34.601563zm0 0" fill="#87796f"/><path d="m414.15625 328.664062h-376.554688c-20.734374 0-37.601562 16.867188-37.601562 37.601563v48.101563c0 20.734374 16.867188 37.601562 37.601562 37.601562h72.363282c1.65625 0 3-1.34375 3-3s-1.34375-3-3-3h-72.363282c-17.425781 0-31.601562-14.175781-31.601562-31.601562v-48.101563c0-17.425781 14.175781-31.601563 31.601562-31.601563h376.554688c17.425781 0 31.605469 14.175782 31.605469 31.601563v48.101563c0 17.425781-14.175781 31.601562-31.605469 31.601562h-275.03125c-1.65625 0-3 1.34375-3 3s1.34375 3 3 3h275.035156c20.734375 0 37.601563-16.867188 37.601563-37.601562v-48.101563c0-20.734375-16.871094-37.601563-37.605469-37.601563zm0 0" fill="#3a312a"/><path d="m59.949219 370.378906c-10.511719 0-19.035157 8.519532-19.035157 19.03125 0 10.511719 8.523438 19.03125 19.035157 19.03125 10.507812 0 19.03125-8.519531 19.03125-19.03125 0-10.511718-8.523438-19.03125-19.03125-19.03125zm0 0" fill="#d7e057"/><path d="m59.949219 367.378906c-12.148438 0-22.035157 9.882813-22.035157 22.03125 0 12.148438 9.882813 22.03125 22.035157 22.03125 12.148437 0 22.03125-9.882812 22.03125-22.03125 0-12.148437-9.882813-22.03125-22.03125-22.03125zm0 38.0625c-8.839844 0-16.035157-7.191406-16.035157-16.03125s7.195313-16.03125 16.035157-16.03125c8.839843 0 16.03125 7.191406 16.03125 16.03125s-7.191407 16.03125-16.03125 16.03125zm0 0" fill="#3a312a"/><path d="m59.949219 253.976562c-10.511719 0-19.035157 8.519532-19.035157 19.03125 0 10.511719 8.523438 19.03125 19.035157 19.03125 10.507812 0 19.03125-8.519531 19.03125-19.03125 0-10.507812-8.523438-19.03125-19.03125-19.03125zm0 0" fill="#d7e057"/><path d="m59.949219 250.976562c-12.148438 0-22.035157 9.882813-22.035157 22.03125 0 12.148438 9.882813 22.03125 22.035157 22.03125 12.148437 0 22.03125-9.878906 22.03125-22.03125 0-12.148437-9.882813-22.03125-22.03125-22.03125zm0 38.0625c-8.839844 0-16.035157-7.191406-16.035157-16.03125 0-8.839843 7.195313-16.03125 16.035157-16.03125 8.839843 0 16.03125 7.191407 16.03125 16.03125 0 8.839844-7.191407 16.03125-16.03125 16.03125zm0 0" fill="#3a312a"/><path d="m391.8125 370.378906c-10.511719 0-19.03125 8.519532-19.03125 19.03125 0 10.511719 8.519531 19.03125 19.03125 19.03125 10.507812 0 19.03125-8.519531 19.03125-19.03125 0-10.511718-8.519531-19.03125-19.03125-19.03125zm0 0" fill="#d7e057"/><path d="m391.8125 367.378906c-12.148438 0-22.03125 9.882813-22.03125 22.03125 0 12.148438 9.882812 22.03125 22.03125 22.03125s22.03125-9.882812 22.03125-22.03125c0-12.148437-9.882812-22.03125-22.03125-22.03125zm0 38.0625c-8.839844 0-16.03125-7.191406-16.03125-16.03125s7.191406-16.03125 16.03125-16.03125 16.03125 7.191406 16.03125 16.03125-7.191406 16.03125-16.03125 16.03125zm0 0" fill="#3a312a"/><path d="m391.8125 253.976562c-10.511719 0-19.03125 8.519532-19.03125 19.03125 0 10.511719 8.519531 19.03125 19.03125 19.03125 10.507812 0 19.03125-8.519531 19.03125-19.03125 0-10.507812-8.519531-19.03125-19.03125-19.03125zm0 0" fill="#d7e057"/><path d="m391.8125 250.976562c-12.148438 0-22.03125 9.882813-22.03125 22.03125 0 12.148438 9.882812 22.03125 22.03125 22.03125s22.03125-9.878906 22.03125-22.03125c0-12.148437-9.882812-22.03125-22.03125-22.03125zm0 38.0625c-8.839844 0-16.03125-7.191406-16.03125-16.03125 0-8.839843 7.191406-16.03125 16.03125-16.03125s16.03125 7.191407 16.03125 16.03125c0 8.839844-7.191406 16.03125-16.03125 16.03125zm0 0" fill="#3a312a"/><path d="m317.761719 111.425781c-3.621094 0-9.363281 1.761719-16.300781 4.878907 9.058593 4.082031 20.179687 10.523437 31.320312 18.460937-.121094-1.039063.296875-2.097656 1.199219-2.757813 1.339843-.980468 3.21875-.703124 4.199219.636719l10.898437 14.902344h.023437c20.019532 17.238281 36.636719 38.28125 36.636719 57.519531 0 2.199219-.117187 4.300782-.359375 6.28125h28.78125c1.28125 0 2.558594.078125 3.820313.199219.257812-2.039063.378906-4.199219.378906-6.480469 0-42.480468-80.960937-93.640625-100.597656-93.640625zm0 0" fill="#decaad"/><path d="m414.160156 217.347656h-32.621094c17.421876 0 31.601563 14.179688 31.601563 31.617188v18.542968c.460937 1.757813.699219 3.597657.699219 5.5 0 1.898438-.238282 3.738282-.699219 5.5v18.558594c0 17.421875-14.179687 31.601563-31.601563 31.601563h32.621094c17.417969 0 31.601563-14.179688 31.601563-31.601563v-48.101562c0-17.4375-14.183594-31.617188-31.601563-31.617188zm0 0" fill="#695b51"/><path d="m414.160156 334.667969h-32.621094c17.421876 0 31.601563 14.179687 31.601563 31.597656v17.640625c.460937 1.761719.699219 3.601562.699219 5.5s-.238282 3.738281-.699219 5.5v19.460938c0 17.417968-14.179687 31.597656-31.601563 31.597656h32.621094c17.417969 0 31.601563-14.179688 31.601563-31.597656v-48.101563c0-17.417969-14.183594-31.597656-31.601563-31.597656zm0 0" fill="#695b51"/></svg>