<svg height="452pt" viewBox="-29 0 452 452.79078" width="452pt" xmlns="http://www.w3.org/2000/svg"><path d="m226.621094 4.027344c-43.292969 0-86.734375 43.925781-118.140625 102.308594l-13.226563 27.039062c-20.578125 46.367188-33.417968 98.347656-33.417968 143.652344 0 114.988281 73.777343 172.761718 164.789062 172.761718 91.007812 0 164.785156-57.773437 164.785156-172.761718 0-114.984375-82.675781-273-164.789062-273zm0 0" fill="#fce8cb"/><path d="m342.410156 95.914062c-34.621094-60.300781-76.824218-94.886718-115.789062-94.886718-40.636719 0-85.789063 38.839844-120.78125 103.890625-.785156 1.457031-.238282 3.277343 1.222656 4.0625 1.457031.785156 3.277344.234375 4.0625-1.222657 33.929688-63.074218 77.105469-100.730468 115.496094-100.730468 80.261718 0 161.789062 157.089844 161.789062 270 0 53.375-16.375 97.410156-47.351562 127.34375-28.714844 27.746094-68.289063 42.414062-114.4375 42.414062-46.148438 0-85.722656-14.667968-114.4375-42.414062-30.976563-29.933594-47.351563-73.96875-47.351563-127.34375 0-43.035156 12.085938-94.949219 33.164063-142.4375.671875-1.511719-.011719-3.285156-1.527344-3.957032-1.515625-.675781-3.289062.011719-3.957031 1.527344-21.402344 48.222656-33.675781 101.027344-33.675781 144.871094 0 55.039062 17.003906 100.566406 49.179687 131.65625 29.859375 28.851562 70.871094 44.101562 118.609375 44.101562 47.734375 0 88.75-15.25 118.605469-44.101562 32.175781-31.089844 49.179687-76.617188 49.179687-131.65625 0-55.851562-19.925781-125.253906-52-181.117188zm0 0" fill="#3a312a"/><path d="m166.097656 353.371094c-7.152344-44.640625-49.136718-75.03125-93.777344-67.878906-44.644531 7.152343-75.035156 49.140624-67.882812 93.78125 7.152344 44.640624 49.140625 75.03125 93.78125 67.878906s75.035156-49.136719 67.878906-93.78125zm0 0" fill="#8ac6dd"/><path d="m85.257812 281.472656c-46.792968 0-84.863281 38.066406-84.863281 84.863282 0 46.792968 38.070313 84.859374 84.863281 84.859374 46.792969 0 84.863282-38.070312 84.863282-84.859374 0-46.796876-38.070313-84.863282-84.863282-84.863282zm0 163.722656c-43.484374 0-78.863281-35.378906-78.863281-78.863281s35.375-78.859375 78.863281-78.859375c43.484376 0 78.863282 35.375 78.863282 78.859375s-35.378906 78.863281-78.863282 78.863281zm0 0" fill="#3a312a"/><path d="m99.476562 367.640625 25.679688-25.683594c3.90625-3.902343 3.90625-10.234375 0-14.136719-3.902344-3.90625-10.238281-3.90625-14.140625 0l-25.679687 25.679688-25.679688-25.679688c-3.902344-3.90625-10.238281-3.90625-14.140625 0-3.90625 3.902344-3.90625 10.234376 0 14.136719l25.679687 25.683594-25.679687 25.679687c-3.90625 3.902344-3.90625 10.234376 0 14.136719 1.953125 1.957031 4.511719 2.933594 7.070313 2.933594 2.558593 0 5.117187-.976563 7.070312-2.933594l25.679688-25.679687 25.679687 25.679687c1.953125 1.957031 4.511719 2.933594 7.070313 2.933594 2.558593 0 5.121093-.976563 7.070312-2.933594 3.90625-3.902343 3.90625-10.234375 0-14.136719zm0 0" fill="#87796f"/><path d="m103.71875 367.640625 23.554688-23.558594c2.460937-2.457031 3.8125-5.71875 3.8125-9.191406s-1.355469-6.738281-3.808594-9.191406-5.71875-3.808594-9.191406-3.808594h-.003907c-3.472656 0-6.738281 1.351563-9.191406 3.808594l-23.558594 23.558593-23.558593-23.558593c-2.453126-2.457031-5.714844-3.808594-9.191407-3.808594-3.472656 0-6.738281 1.351563-9.191406 3.804687-2.457031 2.457032-3.808594 5.722657-3.808594 9.195313 0 3.46875 1.351563 6.734375 3.808594 9.191406l23.558594 23.558594-23.558594 23.554687c-2.457031 2.457032-3.808594 5.722657-3.808594 9.195313 0 3.46875 1.351563 6.734375 3.808594 9.1875 2.453125 2.457031 5.714844 3.8125 9.191406 3.8125 3.476563 0 6.738281-1.355469 9.191407-3.808594l23.558593-23.558593 23.558594 23.558593c2.453125 2.457031 5.714844 3.808594 9.191406 3.808594 3.476563 0 6.738281-1.351563 9.191407-3.808594 2.457031-2.457031 3.808593-5.71875 3.808593-9.191406s-1.351562-6.738281-3.808593-9.191406zm19.316406 37.699219c-2.644531 2.648437-7.253906 2.644531-9.898437 0l-25.679688-25.679688c-.5625-.5625-1.324219-.878906-2.121093-.878906-.796876 0-1.558594.316406-2.121094.878906l-25.683594 25.679688c-2.644531 2.648437-7.253906 2.644531-9.898438-.003906-1.320312-1.320313-2.050781-3.078126-2.050781-4.945313 0-1.871094.730469-3.628906 2.050781-4.953125l25.679688-25.679688c.5625-.5625.882812-1.324218.882812-2.121093s-.316406-1.558594-.882812-2.121094l-25.679688-25.679687c-1.320312-1.324219-2.050781-3.082032-2.050781-4.949219 0-1.871094.730469-3.628907 2.050781-4.949219 1.324219-1.324219 3.078126-2.050781 4.949219-2.050781 1.871094 0 3.628907.726562 4.949219 2.050781l25.679688 25.679688c1.125 1.125 3.117187 1.125 4.242187 0l25.679687-25.679688c1.324219-1.324219 3.078126-2.050781 4.949219-2.050781h.003907c1.871093 0 3.625.726562 4.949218 2.050781 1.320313 1.324219 2.046875 3.082031 2.046875 4.949219 0 1.867187-.726562 3.625-2.050781 4.949219l-25.679688 25.679687c-1.171874 1.171875-1.171874 3.074219 0 4.242187l25.683594 25.679688c1.320313 1.324219 2.046875 3.082031 2.046875 4.949219.003907 1.871093-.726562 3.628906-2.046875 4.953125zm0 0" fill="#3a312a"/><path d="m85.253906 287.46875c-2.78125 0-5.519531.140625-8.242187.421875 39.621093 4.136719 70.601562 37.738281 70.601562 78.4375 0 40.71875-30.980469 74.300781-70.601562 78.441406 2.722656.277344 5.460937.417969 8.242187.417969 43.5 0 78.859375-35.359375 78.859375-78.859375 0-43.480469-35.359375-78.859375-78.859375-78.859375zm0 0" fill="#6ca8bf"/><path d="m65.5625 22.355469c-1.945312 23.128906-26.046875 26.78125-26.046875 26.78125 20.695313.972656 25.851563 28.117187 25.851563 28.117187.441406-19.355468 26.640624-28.40625 26.640624-28.40625-19.625-1.175781-26.445312-26.492187-26.445312-26.492187zm0 0" fill="#d7e057"/><path d="m92.1875 45.851562c-17.207031-1.027343-23.664062-24.046874-23.726562-24.277343-.382813-1.40625-1.730469-2.335938-3.167969-2.207031-1.449219.132812-2.59375 1.285156-2.71875 2.734374-1.71875 20.429688-22.625 23.925782-23.507813 24.066407-1.523437.230469-2.625 1.578125-2.546875 3.121093.082031 1.539063 1.316407 2.769532 2.855469 2.839844 18.054688.851563 23 25.441406 23.046875 25.6875.273437 1.421875 1.515625 2.433594 2.945313 2.433594.082031 0 .167968 0 .25-.007812 1.527343-.128907 2.714843-1.386719 2.75-2.917969.386718-17.019531 24.382812-25.554688 24.625-25.640625 1.347656-.46875 2.183593-1.828125 1.988281-3.246094-.199219-1.417969-1.367188-2.5-2.792969-2.585938zm-27.132812 20.691407c-2.714844-6.257813-7.417969-13.8125-15.171876-17.75 5.859376-2.808594 12.816407-7.828125 16.402344-16.546875 3.101563 6.144531 8.398438 13.761718 16.667969 17.445312-6.015625 3.28125-13.847656 8.8125-17.898437 16.851563zm0 0" fill="#3a312a"/><path d="m22.167969 56.316406c-1.378907 16.359375-18.425781 18.941406-18.425781 18.941406 14.636718.6875 18.285156 19.890626 18.285156 19.890626.3125-13.691407 18.84375-20.089844 18.84375-20.089844-13.882813-.832032-18.703125-18.742188-18.703125-18.742188zm0 0" fill="#d7e057"/><path d="m41.050781 72.0625c-11.535156-.691406-15.945312-16.371094-15.988281-16.53125-.378906-1.402344-1.707031-2.335938-3.164062-2.203125-1.449219.128906-2.597657 1.285156-2.71875 2.738281-1.160157 13.742188-15.292969 16.128906-15.882813 16.222656-1.527344.230469-2.628906 1.582032-2.546875 3.125.078125 1.539063 1.3125 2.765626 2.851562 2.839844 12.070313.570313 15.449219 17.289063 15.480469 17.453125.269531 1.421875 1.515625 2.441407 2.945313 2.441407.082031 0 .167968-.003907.25-.011719 1.53125-.128907 2.714844-1.386719 2.753906-2.921875.257812-11.417969 16.664062-17.269532 16.820312-17.324219 1.355469-.46875 2.191407-1.824219 1.992188-3.242187-.195312-1.417969-1.363281-2.503907-2.792969-2.585938zm-19.167969 13.589844c-1.847656-3.773438-4.679687-7.894532-8.894531-10.5625 3.710938-2.082032 7.394531-5.257813 9.742188-9.832032 2.113281 3.75 5.308593 7.910157 9.882812 10.445313-3.703125 2.203125-7.980469 5.484375-10.730469 9.949219zm0 0" fill="#3a312a"/><path d="m22.167969 3c-1.378907 16.359375-18.425781 18.941406-18.425781 18.941406 14.636718.6875 18.285156 19.890625 18.285156 19.890625.3125-13.691406 18.84375-20.089843 18.84375-20.089843-13.882813-.832032-18.703125-18.742188-18.703125-18.742188zm0 0" fill="#d7e057"/><path d="m41.050781 18.746094c-11.535156-.691406-15.945312-16.375-15.988281-16.53125-.382812-1.402344-1.707031-2.335938-3.164062-2.2031252-1.453126.1328122-2.597657 1.2851562-2.722657 2.7382812-1.15625 13.742188-15.292969 16.132812-15.882812 16.226562-1.527344.230469-2.625 1.582032-2.546875 3.121094.082031 1.542969 1.316406 2.769532 2.855468 2.84375 12.070313.566406 15.449219 17.289063 15.480469 17.453125.269531 1.425781 1.515625 2.4375 2.945313 2.4375.082031 0 .167968 0 .25-.007812 1.53125-.128907 2.714844-1.390625 2.753906-2.921875.257812-11.417969 16.660156-17.269532 16.820312-17.324219 1.355469-.46875 2.191407-1.828125 1.992188-3.246094-.195312-1.417969-1.363281-2.5-2.792969-2.585937zm-19.167969 13.589844c-1.847656-3.769532-4.679687-7.894532-8.894531-10.5625 3.710938-2.082032 7.394531-5.257813 9.742188-9.832032 2.113281 3.746094 5.308593 7.910156 9.882812 10.449219-3.703125 2.203125-7.980469 5.480469-10.730469 9.945313zm0 0" fill="#3a312a"/><path d="m226.625 7.027344c-4.882812 0-9.742188.582031-14.601562 1.703125 75.238281 17.21875 147.160156 162.238281 147.160156 268.296875 0 97.882812-57.21875 162.902344-147.082032 169.242187 4.742188.359375 9.601563.519531 14.523438.519531 98.277344 0 161.777344-66.640624 161.777344-169.761718 0-112.917969-81.519532-270-161.777344-270zm0 0" fill="#decaad"/></svg>