<svg height="452pt" viewBox="0 0 452 452.78579" width="452pt" xmlns="http://www.w3.org/2000/svg"><path d="m107.003906 4.027344v164.402344c16.320313 4.5 30.980469 14.058593 42.121094 27.257812v-191.660156zm0 0" fill="#fce8cb"/><path d="m149.125 1.027344h-42.121094c-1.65625 0-3 1.34375-3 3v78.765625c0 1.65625 1.34375 3 3 3s3-1.34375 3-3v-75.765625h36.121094v180.964844c-10.230469-10.222657-22.558594-17.683594-36.121094-21.820313v-52.484375c0-1.65625-1.34375-3-3-3s-3 1.34375-3 3v54.738281c0 1.351563.902344 2.535157 2.203125 2.890625 15.707031 4.332032 29.757813 13.429688 40.625 26.304688.582031.6875 1.425781 1.066406 2.289063 1.066406.347656 0 .695312-.0625 1.03125-.183594 1.183594-.433594 1.96875-1.558594 1.96875-2.816406v-191.660156c.003906-1.65625-1.339844-3-2.996094-3zm0 0" fill="#3a312a"/><path d="m149.125 44.90625v150.78125c1.179688 1.378906 2.300781 2.820312 3.398438 4.28125 8.902343 11.980469 22.320312 22.160156 38.742187 29.519531v-184.582031zm0 0" fill="#fce8cb"/><path d="m191.261719 41.90625h-42.136719c-1.65625 0-3 1.34375-3 3v150.78125c0 .714844.257812 1.40625.71875 1.949219 1.242188 1.457031 2.410156 2.976562 3.273438 4.121093 9.160156 12.332032 22.960937 22.867188 39.917968 30.46875.390625.175782.8125.261719 1.226563.261719.570312 0 1.136719-.164062 1.632812-.484375.851563-.550781 1.367188-1.5 1.367188-2.515625v-184.582031c0-1.65625-1.34375-3-3-3zm-3 182.851562c-14.082031-6.96875-25.542969-16.101562-33.34375-26.597656-.757813-1.007812-1.726563-2.273437-2.796875-3.566406v-146.6875h36.140625zm0 0" fill="#3a312a"/><path d="m191.261719 90.90625v138.582031c12.519531 5.660157 26.78125 9.660157 42.121093 11.578125v-150.160156zm0 0" fill="#fce8cb"/><path d="m233.386719 87.90625h-42.125c-1.65625 0-3 1.34375-3 3v138.582031c0 1.175781.691406 2.246094 1.765625 2.734375 13.078125 5.910156 27.542968 9.890625 42.984375 11.824219.125.015625.25.023437.375.023437.722656 0 1.433593-.265624 1.980469-.753906.648437-.570312 1.019531-1.386718 1.019531-2.246094v-150.160156c0-1.660156-1.347657-3.003906-3-3.003906zm-3 149.726562c-12.894531-1.890624-25.023438-5.28125-36.125-10.097656v-133.628906h36.125zm0 0" fill="#3a312a"/><path d="m233.386719 27.488281v213.578125c6.839843.863282 13.878906 1.320313 21.078125 1.320313 7.199218 0 14.238281-.4375 21.058594-1.300781v-213.597657zm0 0" fill="#fce8cb"/><path d="m275.523438 24.488281h-42.136719c-1.65625 0-3 1.339844-3 3v213.578125c0 1.511719 1.121093 2.789063 2.625 2.976563 7.089843.890625 14.308593 1.34375 21.453125 1.34375 7.261718 0 14.472656-.445313 21.4375-1.324219 1.5-.191406 2.621094-1.464844 2.621094-2.976562v-213.601563c0-1.65625-1.34375-2.996094-3-2.996094zm-3 213.929688c-11.703126 1.277343-24.058594 1.300781-36.136719-.019531v-207.910157h36.136719zm0 0" fill="#3a312a"/><path d="m275.523438 90.90625v150.179688c15.339843-1.9375 29.601562-5.9375 42.121093-11.578126v-138.601562zm0 0" fill="#fce8cb"/><path d="m317.644531 87.90625h-42.121093c-1.65625 0-3 1.34375-3 3v150.179688c0 .863281.375 1.683593 1.015624 2.253906.550782.484375 1.261719.746094 1.984376.746094.125 0 .25-.007813.378906-.023438 15.4375-1.953125 29.898437-5.929688 42.976562-11.820312 1.074219-.484376 1.765625-1.554688 1.765625-2.738282v-138.597656c0-1.65625-1.34375-3-3-3zm-3 139.644531c-11.105469 4.804688-23.226562 8.191407-36.121093 10.097657v-143.742188h36.121093zm0 0" fill="#3a312a"/><path d="m317.644531 4.027344v225.480468c16.421875-7.378906 29.839844-17.558593 38.761719-29.539062 1.078125-1.460938 2.21875-2.882812 3.378906-4.261719v-191.679687zm0 0" fill="#fce8cb"/><path d="m359.785156 1.027344h-42.140625c-1.65625 0-3 1.34375-3 3v225.480468c0 1.019532.515625 1.964844 1.371094 2.519532.492187.320312 1.058594.480468 1.628906.480468.417969 0 .839844-.085937 1.230469-.265624 16.949219-7.617188 30.761719-18.160157 39.941406-30.492188.953125-1.285156 2.019532-2.628906 3.265625-4.113281.453125-.539063.703125-1.222657.703125-1.929688v-191.679687c0-1.65625-1.34375-3-3-3zm-3 193.59375c-1.035156 1.253906-1.953125 2.425781-2.789062 3.554687-7.800782 10.476563-19.269532 19.613281-33.351563 26.597657v-217.746094h36.136719v187.59375zm0 0" fill="#3a312a"/><path d="m359.785156 44.90625v150.800781c11.140625-13.21875 25.800782-22.757812 42.121094-27.277343v-123.523438zm0 0" fill="#fce8cb"/><path d="m401.902344 41.90625h-42.121094c-1.652344 0-3 1.34375-3 3v150.800781c0 1.261719.789062 2.386719 1.972656 2.820313.335938.121094.683594.179687 1.027344.179687.871094 0 1.714844-.375 2.296875-1.066406 10.832031-12.859375 24.882813-21.960937 40.621094-26.324219 1.300781-.359375 2.203125-1.539062 2.203125-2.890625v-123.519531c0-1.65625-1.339844-3-3-3zm-3 124.273438c-13.578125 4.152343-25.910156 11.617187-36.121094 21.828124v-140.101562h36.121094zm0 0" fill="#3a312a"/><path d="m65.210938 22.355469c-1.949219 23.125-26.046876 26.777343-26.046876 26.777343 20.691407.976563 25.847657 28.117188 25.847657 28.117188.441406-19.351562 26.644531-28.402344 26.644531-28.402344-19.628906-1.175781-26.445312-26.492187-26.445312-26.492187zm0 0" fill="#d7e057"/><path d="m91.835938 45.851562c-17.207032-1.027343-23.664063-24.046874-23.726563-24.28125-.382813-1.402343-1.699219-2.328124-3.167969-2.203124-1.449218.132812-2.597656 1.285156-2.71875 2.734374-1.71875 20.429688-22.625 23.929688-23.507812 24.066407-1.527344.230469-2.628906 1.578125-2.546875 3.121093.078125 1.539063 1.3125 2.769532 2.855469 2.84375 18.054687.847657 22.996093 25.433594 23.042968 25.683594.277344 1.421875 1.519532 2.433594 2.945313 2.433594.085937 0 .167969-.003906.253906-.011719 1.53125-.125 2.714844-1.382812 2.75-2.917969.386719-17.015624 24.382813-25.550781 24.625-25.636718 1.351563-.46875 2.183594-1.828125 1.988281-3.246094-.199218-1.417969-1.367187-2.5-2.792968-2.585938zm-27.132813 20.691407c-2.714844-6.257813-7.417969-13.8125-15.175781-17.75 5.863281-2.808594 12.820312-7.828125 16.40625-16.546875 3.101562 6.140625 8.398437 13.757812 16.667968 17.445312-6.015624 3.277344-13.847656 8.808594-17.898437 16.851563zm0 0" fill="#3a312a"/><path d="m21.816406 56.316406c-1.378906 16.355469-18.425781 18.941406-18.425781 18.941406 14.632813.6875 18.28125 19.886719 18.28125 19.886719.3125-13.6875 18.84375-20.089843 18.84375-20.089843-13.878906-.832032-18.699219-18.738282-18.699219-18.738282zm0 0" fill="#d7e057"/><path d="m40.695312 72.058594c-11.53125-.6875-15.941406-16.367188-15.984374-16.527344-.382813-1.402344-1.714844-2.316406-3.164063-2.203125-1.453125.128906-2.601563 1.285156-2.722656 2.734375-1.15625 13.742188-15.292969 16.136719-15.882813 16.230469-1.523437.230469-2.625 1.578125-2.542968 3.121093.078124 1.539063 1.3125 2.769532 2.855468 2.839844 12.066406.570313 15.445313 17.289063 15.476563 17.453125.269531 1.425781 1.515625 2.441407 2.945312 2.441407.082031 0 .164063-.003907.25-.011719 1.527344-.125 2.714844-1.386719 2.75-2.921875.261719-11.417969 16.664063-17.265625 16.824219-17.324219 1.351562-.46875 2.1875-1.824219 1.992188-3.242187-.195313-1.421876-1.367188-2.503907-2.796876-2.589844zm-19.167968 13.589844c-1.847656-3.769532-4.679688-7.894532-8.890625-10.558594 3.707031-2.082032 7.390625-5.257813 9.738281-9.832032 2.117188 3.746094 5.308594 7.90625 9.882812 10.445313-3.699218 2.203125-7.980468 5.484375-10.730468 9.945313zm0 0" fill="#3a312a"/><path d="m21.816406 3c-1.378906 16.359375-18.425781 18.941406-18.425781 18.941406 14.632813.6875 18.28125 19.886719 18.28125 19.886719.3125-13.6875 18.84375-20.089844 18.84375-20.089844-13.878906-.832031-18.699219-18.738281-18.699219-18.738281zm0 0" fill="#d7e057"/><path d="m40.695312 18.742188c-11.53125-.6875-15.941406-16.371094-15.984374-16.527344-.382813-1.40625-1.714844-2.332032-3.164063-2.2031252-1.453125.1289062-2.601563 1.2851562-2.722656 2.7343752-1.15625 13.742187-15.292969 16.136718-15.882813 16.230468-1.523437.230469-2.625 1.578126-2.542968 3.121094.078124 1.539063 1.3125 2.769532 2.855468 2.84375 12.066406.566406 15.445313 17.285156 15.476563 17.449219.269531 1.425781 1.515625 2.441406 2.945312 2.441406.082031 0 .164063-.003906.25-.011719 1.527344-.125 2.714844-1.386718 2.75-2.921874.261719-11.417969 16.664063-17.265626 16.824219-17.324219 1.351562-.464844 2.1875-1.824219 1.992188-3.242188-.195313-1.417969-1.367188-2.503906-2.796876-2.589843zm-19.167968 13.589843c-1.847656-3.769531-4.679688-7.890625-8.890625-10.558593 3.707031-2.082032 7.390625-5.257813 9.738281-9.832032 2.117188 3.746094 5.308594 7.910156 9.882812 10.445313-3.699218 2.203125-7.980468 5.484375-10.730468 9.945312zm0 0" fill="#3a312a"/><path d="m423.800781 165.527344h-.460937c-26.5625 0-51.082032 13.121094-66.941406 34.441406-18.71875 25.160156-57.339844 42.417969-101.9375 42.417969-44.601563 0-83.222657-17.257813-101.941407-42.417969-15.859375-21.320312-40.378906-34.441406-66.941406-34.441406h-.460937c-15.757813 0-27.738282 14.140625-25.179688 29.679687l10.703125 64.78125 3.878906 23.460938 12.300781 74.617187 3.878907 23.460938 7.738281 46.902344c2.042969 12.316406 12.679688 21.359374 25.179688 21.359374h261.683593c12.5 0 23.136719-9.042968 25.179688-21.359374l7.738281-46.902344 3.878906-23.460938 12.300782-74.617187 3.878906-23.460938 10.703125-64.78125c2.558593-15.539062-9.421875-29.679687-25.179688-29.679687zm0 0" fill="#d7e057"/><path d="m445.539062 172.589844c-5.429687-6.394532-13.351562-10.0625-21.738281-10.0625h-.460937c-27.21875 0-52.496094 12.996094-69.347656 35.648437-18.914063 25.421875-57.050782 41.210938-99.535157 41.210938s-80.621093-15.792969-99.535156-41.210938c-16.851563-22.65625-42.125-35.648437-69.34375-35.648437h-.460937c-8.386719 0-16.3125 3.667968-21.738282 10.0625-5.433594 6.398437-7.765625 14.820312-6.398437 23.105468l38.5 233.21875c2.289062 13.832032 14.121093 23.871094 28.136719 23.871094h261.679687c14.015625 0 25.851563-10.039062 28.140625-23.871094l38.496094-233.21875h.003906c1.367188-8.285156-.964844-16.707031-6.398438-23.105468zm.480469 22.128906-38.5 233.21875c-1.808593 10.921875-11.15625 18.847656-22.21875 18.847656h-261.683593c-11.0625 0-20.410157-7.925781-22.214844-18.847656l-38.5-233.21875c-1.078125-6.539062.761718-13.191406 5.050781-18.246094 4.285156-5.050781 10.542969-7.945312 17.164063-7.945312h.460937c25.304687 0 48.824219 12.109375 64.535156 33.226562 20.023438 26.914063 60.003907 43.628906 104.347657 43.628906 44.339843 0 84.320312-16.71875 104.34375-43.628906 15.710937-21.117187 39.234374-33.226562 64.535156-33.226562h.460937c6.621094 0 12.878907 2.894531 17.167969 7.945312 4.285156 5.054688 6.125 11.707032 5.050781 18.246094zm0 0" fill="#3a312a"/><path d="m74.519531 283.449219 12.300781 74.617187 3.878907 23.460938h327.519531l3.878906-23.460938 12.300782-74.617187zm0 0" fill="#f16c7a"/><path d="m436.683594 281.503906c-.570313-.671875-1.40625-1.054687-2.285156-1.054687h-81.3125c-1.65625 0-3 1.339843-3 3 0 1.65625 1.34375 3 3 3h77.777343l-15.191406 92.078125h-322.429687l-15.1875-92.078125h245.75c1.65625 0 3-1.34375 3-3 0-1.660157-1.34375-3-3-3h-249.285157c-.882812 0-1.714843.382812-2.289062 1.054687-.570313.675782-.816407 1.5625-.671875 2.433594l16.179687 98.078125c.238281 1.449219 1.492188 2.511719 2.957031 2.511719h327.523438c1.464844 0 2.71875-1.0625 2.957031-2.511719l16.183594-98.078125c.140625-.871094-.105469-1.757812-.675781-2.433594zm0 0" fill="#3a312a"/><path d="m440.964844 176.46875c-4.28125-5.039062-10.539063-7.941406-17.160156-7.941406h-.460938c-6.160156 0-12.199219.71875-18.058594 2.101562 2.898438 1.359375 5.519532 3.339844 7.660156 5.839844 3.5 4.117188 5.359376 9.257812 5.359376 14.558594 0 1.242187-.101563 2.460937-.300782 3.699218l-14.140625 85.722657h28l14.160157-85.722657c.203124-1.238281.300781-2.457031.300781-3.699218 0-5.300782-1.859375-10.441406-5.359375-14.558594zm0 0" fill="#b9c239"/><path d="m386.664062 384.527344-7.160156 43.402344c-1.800781 10.9375-11.160156 18.859374-22.21875 18.859374h28.019532c11.058593 0 20.398437-7.921874 22.21875-18.859374l7.160156-43.402344zm0 0" fill="#b9c239"/><path d="m402.84375 286.449219-15.179688 92.078125h28.019532l15.179687-92.078125zm0 0" fill="#d34e5c"/></svg>