<svg height="452pt" viewBox="0 0 452 452.39405" width="452pt" xmlns="http://www.w3.org/2000/svg"><path d="m110.117188 68.621094c-1.949219 23.128906-26.050782 26.777344-26.050782 26.777344 20.695313.976562 25.851563 28.121093 25.851563 28.121093.441406-19.355469 26.640625-28.40625 26.640625-28.40625-19.625-1.171875-26.441406-26.492187-26.441406-26.492187zm0 0" fill="#d7e057"/><path d="m136.738281 92.121094c-17.207031-1.03125-23.664062-24.050782-23.726562-24.28125-.378907-1.40625-1.683594-2.324219-3.167969-2.207032-1.449219.132813-2.597656 1.285157-2.71875 2.734376-1.71875 20.433593-22.625 23.929687-23.507812 24.066406-1.523438.230468-2.625 1.582031-2.546876 3.121094.082032 1.542968 1.316407 2.769531 2.859376 2.839843 18.054687.855469 22.996093 25.441407 23.042968 25.691407.277344 1.421874 1.519532 2.433593 2.945313 2.433593.085937 0 .171875-.003906.253906-.011719 1.53125-.128906 2.714844-1.386718 2.75-2.917968.386719-17.019532 24.378906-25.554688 24.621094-25.640625 1.351562-.46875 2.183593-1.828125 1.988281-3.242188-.199219-1.417969-1.367188-2.5-2.792969-2.585937zm-27.132812 20.691406c-2.714844-6.261719-7.417969-13.8125-15.171875-17.753906 5.859375-2.808594 12.8125-7.824219 16.398437-16.542969 3.105469 6.140625 8.402344 13.761719 16.667969 17.445313-6.011719 3.277343-13.839844 8.808593-17.894531 16.851562zm0 0" fill="#3a312a"/><path d="m66.71875 102.585938c-1.378906 16.355468-18.425781 18.9375-18.425781 18.9375 14.636719.6875 18.285156 19.886718 18.285156 19.886718.3125-13.6875 18.84375-20.089844 18.84375-20.089844-13.882813-.828124-18.703125-18.734374-18.703125-18.734374zm0 0" fill="#d7e057"/><path d="m85.601562 118.328125c-11.535156-.691406-15.945312-16.375-15.984374-16.53125-.382813-1.40625-1.734376-2.328125-3.164063-2.203125-1.453125.128906-2.601563 1.285156-2.722656 2.734375-1.160157 13.742187-15.292969 16.132813-15.882813 16.226563-1.527344.230468-2.628906 1.582031-2.546875 3.121093.078125 1.542969 1.3125 2.769531 2.855469 2.84375 12.070312.566407 15.449219 17.289063 15.476562 17.453125.273438 1.425782 1.519532 2.4375 2.945313 2.4375.082031 0 .167969-.003906.25-.007812 1.53125-.125 2.71875-1.386719 2.753906-2.921875.261719-11.417969 16.660157-17.265625 16.820313-17.324219 1.355468-.464844 2.191406-1.824219 1.996094-3.242188-.199219-1.417968-1.371094-2.5-2.796876-2.585937zm-19.167968 13.589844c-1.851563-3.773438-4.683594-7.894531-8.894532-10.558594 3.707032-2.082031 7.394532-5.261719 9.742188-9.835937 2.113281 3.75 5.304688 7.910156 9.878906 10.449218-3.699218 2.203125-7.976562 5.480469-10.726562 9.945313zm0 0" fill="#3a312a"/><path d="m66.71875 49.269531c-1.378906 16.355469-18.425781 18.941407-18.425781 18.941407 14.636719.6875 18.285156 19.886718 18.285156 19.886718.3125-13.691406 18.84375-20.089844 18.84375-20.089844-13.882813-.832031-18.703125-18.738281-18.703125-18.738281zm0 0" fill="#d7e057"/><path d="m85.601562 65.011719c-11.535156-.691407-15.945312-16.371094-15.984374-16.53125-.382813-1.402344-1.734376-2.328125-3.164063-2.203125-1.453125.128906-2.601563 1.285156-2.722656 2.738281-1.160157 13.742187-15.292969 16.128906-15.882813 16.222656-1.527344.234375-2.628906 1.582031-2.546875 3.125.078125 1.539063 1.3125 2.769531 2.855469 2.839844 12.070312.570313 15.449219 17.289063 15.476562 17.453125.273438 1.425781 1.519532 2.441406 2.945313 2.441406.082031 0 .167969-.003906.25-.011718 1.53125-.125 2.71875-1.386719 2.753906-2.921876.261719-11.417968 16.660157-17.269531 16.824219-17.324218 1.351562-.46875 2.1875-1.824219 1.992188-3.242188-.199219-1.417968-1.371094-2.5-2.796876-2.585937zm-19.167968 13.589843c-1.851563-3.769531-4.683594-7.894531-8.894532-10.558593 3.707032-2.082031 7.394532-5.257813 9.742188-9.832031 2.113281 3.746093 5.308594 7.910156 9.878906 10.445312-3.699218 2.203125-7.976562 5.480469-10.726562 9.945312zm0 0" fill="#3a312a"/><path d="m443.546875 91.355469c-11.863281-11.867188-40.078125-20.078125-62.605469-19.714844.363282-22.527344-7.84375-50.738281-19.710937-62.605469-18.042969-18.042968-37.699219 8.550782-53.863281 24.71875-16.167969 16.167969-14.648438 43.898438 3.394531 61.945313 9.003906 9 20.417969 13.890625 31.605469 14.519531.628906 11.1875 5.515624 22.601562 14.519531 31.605469 18.042969 18.042969 45.777343 19.5625 61.945312 3.394531 16.164063-16.167969 42.757813-35.820312 24.714844-53.863281zm0 0" fill="#fce8cb"/><path d="m445.667969 89.234375c-11.445313-11.449219-38.0625-20.230469-61.722657-20.589844-.363281-23.664062-9.148437-50.28125-20.59375-61.726562-4.664062-4.664063-9.859374-6.9296878-15.398437-6.917969-12.820313.179688-25.136719 13.191406-36.003906 24.675781-2.335938 2.464844-4.542969 4.792969-6.707031 6.957031-17.308594 17.3125-15.785157 47.003907 3.398437 66.1875 8.578125 8.578126 19.480469 13.90625 30.949219 15.179688 1.269531 11.464844 6.597656 22.367188 15.175781 30.945312 10.238281 10.238282 23.464844 15.449219 36.214844 15.445313 11.132812 0 21.898437-3.972656 29.972656-12.046875 2.164063-2.164062 4.496094-4.371094 6.960937-6.707031 11.480469-10.867188 24.496094-23.183594 24.675782-36 .074218-5.558594-2.253906-10.738281-6.921875-15.402344zm-21.878907 47.042969c-2.5 2.363281-4.859374 4.597656-7.082031 6.820312-14.96875 14.972656-40.855469 13.449219-57.699219-3.394531-8.183593-8.183594-13.03125-18.714844-13.648437-29.652344-.085937-1.523437-1.300781-2.742187-2.828125-2.828125-10.933594-.613281-21.464844-5.460937-29.648438-13.644531-16.84375-16.84375-18.367187-42.726563-3.398437-57.703125 2.222656-2.222656 4.457031-4.582031 6.820313-7.078125 10.050781-10.621094 21.445312-22.65625 31.726562-22.796875h.183594c3.855468 0 7.421875 1.691406 10.894531 5.160156 10.75 10.75 19.199219 37.863282 18.832031 60.4375-.011718.808594.304688 1.59375.878906 2.167969.574219.574219 1.382813.894531 2.167969.878906 22.613281-.382812 49.6875 8.082031 60.4375 18.832031 3.527344 3.527344 5.210938 7.148438 5.160157 11.074219-.140626 10.285157-12.175782 21.675781-22.796876 31.726563zm0 0" fill="#3a312a"/><path d="m142.019531 356.695312c-9.003906-9.003906-20.417969-13.890624-31.605469-14.523437-.628906-11.1875-5.519531-22.601563-14.523437-31.605469-18.039063-18.039062-45.773437-19.5625-61.941406-3.394531-3.152344 3.152344-6.703125 6.4375-10.238281 9.816406l-19.347657 24.664063c-2.289062 6.511718-1.46875 13.046875 4.867188 19.382812 11.867187 11.867188 40.078125 20.078125 62.605469 19.714844-.363282 22.523438 7.847656 50.738281 19.710937 62.605469 18.042969 18.039062 37.699219-8.550781 53.863281-24.71875 16.167969-16.167969 14.648438-43.902344-3.390625-61.941407zm0 0" fill="#fce8cb"/><path d="m144.136719 354.574219c-8.578125-8.582031-19.484375-13.90625-30.949219-15.179688-1.269531-11.460937-6.597656-22.367187-15.175781-30.949219-9.25-9.25-21.195313-14.71875-33.632813-15.398437-12.578125-.675781-24.121094 3.574219-32.550781 12.003906-2.171875 2.171875-4.53125 4.402344-6.945313 6.6875-1.074218 1.019531-2.160156 2.046875-3.246093 3.085938-1.199219 1.144531-1.242188 3.042969-.09375 4.238281 1.140625 1.203125 3.046875 1.246094 4.238281.097656 1.078125-1.03125 2.160156-2.050781 3.226562-3.0625 2.488282-2.359375 4.84375-4.582031 7.058594-6.800781 7.210938-7.207031 17.132813-10.875 27.984375-10.257813 10.960938.601563 21.511719 5.449219 29.714844 13.652344 8.183594 8.183594 13.03125 18.710938 13.644531 29.652344.085938 1.523438 1.304688 2.742188 2.828125 2.828125 10.941407.613281 21.46875 5.460937 29.652344 13.644531 8.207031 8.203125 13.050781 18.757813 13.652344 29.71875.59375 10.835938-3.046875 20.773438-10.257813 27.980469-2.222656 2.222656-4.453125 4.582031-6.816406 7.078125-10.050781 10.621094-21.441406 22.65625-31.726562 22.796875-.058594 0-.121094.003906-.183594.003906-3.855469 0-7.421875-1.691406-10.894532-5.164062-10.75-10.75-19.199218-37.863281-18.832031-60.433594.015625-.8125-.304687-1.597656-.878906-2.171875-.570313-.574219-1.351563-.921875-2.167969-.875-22.582031.359375-49.683594-8.082031-60.4375-18.832031-4.984375-4.988281-6.304687-10.15625-4.15625-16.273438.546875-1.558593-.273437-3.273437-1.835937-3.824219-1.558594-.546874-3.277344.277344-3.824219 1.835938-2.917969 8.308594-1.042969 15.878906 5.574219 22.5 11.449219 11.449219 38.0625 20.230469 61.726562 20.59375.359375 23.65625 9.144531 50.277344 20.59375 61.722656 4.589844 4.59375 9.683594 6.921875 15.132813 6.921875.089844 0 .175781-.003906.265625-.003906 12.816406-.175781 25.136719-13.191406 36.003906-24.675781 2.332031-2.464844 4.535156-4.792969 6.699219-6.957032 17.320312-17.308593 15.792968-47-3.390625-66.183593zm0 0" fill="#3a312a"/><path d="m375.617188 120.316406-75.082032-42.667968c-14.0625-7.992188-30.550781-6.511719-40.710937 3.648437-15.683594 15.683594-9.5625 44.167969 12.144531 56.503906l9.457031 5.371094 26.683594 15.164063 38.941406 22.132812c14.0625 7.992188 30.554688 6.511719 40.714844-3.648438 15.683594-15.683593 9.558594-44.167968-12.148437-56.503906zm0 0" fill="#fce8cb"/><path d="m399.183594 149.765625c-1.789063-13.230469-10.042969-25.214844-22.082032-32.054687l-75.082031-42.667969c-15.328125-8.710938-33.136719-7.042969-44.316406 4.132812-7.414063 7.414063-10.804687 18.046875-9.300781 29.175781 1.789062 13.230469 10.042968 25.214844 22.082031 32.054688l9.457031 5.375c1.433594.820312 3.265625.316406 4.089844-1.125.820312-1.441406.316406-3.273438-1.125-4.089844l-9.453125-5.375c-10.421875-5.921875-17.566406-16.253906-19.105469-27.640625-1.269531-9.394531 1.429688-17.964843 7.597656-24.132812 9.25-9.246094 24.164063-10.519531 37.109376-3.160157l75.082031 42.667969c10.421875 5.921875 17.566406 16.257813 19.105469 27.640625 1.269531 9.394532-1.429688 17.964844-7.597657 24.132813-9.25 9.25-24.164062 10.515625-37.109375 3.160156l-38.945312-22.132813c-1.445313-.824218-3.273438-.316406-4.09375 1.125-.816406 1.441407-.3125 3.273438 1.125 4.089844l38.945312 22.128906c6.550782 3.722657 13.554688 5.550782 20.300782 5.550782 9.039062 0 17.613281-3.277344 24.015624-9.679688 7.414063-7.414062 10.808594-18.046875 9.300782-29.175781zm0 0" fill="#3a312a"/><path d="m326.984375 168.953125-18.84375-10.707031-26.667969-15.15625-29.570312-16.804688c-14.0625-7.992187-30.550782-6.511718-40.710938 3.648438-15.683594 15.683594-9.5625 44.167968 12.140625 56.503906l75.082031 42.667969c14.0625 7.992187 30.554688 6.511719 40.714844-3.648438 15.683594-15.683593 9.5625-44.167969-12.144531-56.503906zm0 0" fill="#fce8cb"/><path d="m350.550781 198.402344c-1.789062-13.230469-10.042969-25.214844-22.085937-32.054688l-18.839844-10.707031c-1.441406-.824219-3.273438-.320313-4.089844 1.125-.820312 1.441406-.316406 3.269531 1.121094 4.089844l18.84375 10.707031c10.421875 5.921875 17.5625 16.257812 19.101562 27.644531 1.269532 9.390625-1.425781 17.960938-7.59375 24.128907-9.25 9.25-24.164062 10.515624-37.113281 3.160156l-75.082031-42.667969c-10.421875-5.925781-17.5625-16.261719-19.101562-27.648437-1.269532-9.390626 1.429687-17.957032 7.597656-24.125 9.246094-9.246094 24.15625-10.519532 37.109375-3.160157l29.570312 16.804688c1.4375.816406 3.269531.316406 4.089844-1.125.820313-1.441407.3125-3.273438-1.125-4.089844l-29.570313-16.804687c-15.320312-8.707032-33.132812-7.050782-44.316406 4.132812-7.414062 7.414062-10.800781 18.046875-9.300781 29.171875 1.789063 13.230469 10.042969 25.21875 22.085937 32.058594l75.082032 42.667969c6.550781 3.722656 13.550781 5.550781 20.296875 5.550781 9.039062 0 17.617187-3.28125 24.019531-9.683594 7.414062-7.414063 10.804688-18.046875 9.300781-29.175781zm0 0" fill="#3a312a"/><path d="m278.347656 217.589844-75.082031-42.667969c-14.0625-7.992187-30.550781-6.515625-40.710937 3.644531-15.683594 15.683594-9.5625 44.167969 12.144531 56.503906l75.082031 42.667969c14.0625 7.992188 30.550781 6.515625 40.710938-3.644531 15.683593-15.6875 9.5625-44.167969-12.144532-56.503906zm0 0" fill="#fce8cb"/><path d="m301.914062 247.039062c-1.789062-13.230468-10.042968-25.214843-22.085937-32.058593l-75.082031-42.667969c-15.324219-8.707031-33.132813-7.046875-44.3125 4.132812-7.414063 7.414063-10.804688 18.046876-9.300782 29.175782 1.789063 13.230468 10.042969 25.214844 22.082032 32.058594l75.085937 42.667968c6.550781 3.71875 13.550781 5.546875 20.296875 5.546875 9.039063 0 17.617188-3.28125 24.019532-9.683593 7.410156-7.410157 10.800781-18.042969 9.296874-29.171876zm-13.542968 24.933594c-9.25 9.25-24.164063 10.515625-37.109375 3.160156l-75.082031-42.667968c-10.421876-5.925782-17.566407-16.261719-19.105469-27.648438-1.269531-9.390625 1.429687-17.957031 7.597656-24.125 5.238281-5.238281 12.296875-7.917968 19.785156-7.917968 5.730469 0 11.710938 1.570312 17.324219 4.757812l75.082031 42.664062c10.425781 5.925782 17.566407 16.261719 19.105469 27.648438 1.269531 9.390625-1.429688 17.960938-7.597656 24.128906zm0 0" fill="#3a312a"/><path d="m229.710938 266.222656-75.082032-42.667968c-14.0625-7.992188-30.550781-6.511719-40.710937 3.648437-15.683594 15.683594-9.5625 44.167969 12.144531 56.503906l75.082031 42.667969c14.0625 7.992188 30.550781 6.511719 40.714844-3.648438 15.683594-15.683593 9.558594-44.167968-12.148437-56.503906zm0 0" fill="#fce8cb"/><path d="m253.277344 295.675781c-1.789063-13.230469-10.042969-25.21875-22.082032-32.058593l-75.082031-42.667969c-15.328125-8.710938-33.132812-7.050781-44.316406 4.128906-7.414063 7.414063-10.804687 18.050781-9.300781 29.179687 1.789062 13.230469 10.042968 25.214844 22.082031 32.054688l75.082031 42.667969c6.550782 3.722656 13.554688 5.550781 20.300782 5.550781 9.039062 0 17.613281-3.28125 24.015624-9.683594 7.414063-7.414062 10.804688-18.046875 9.300782-29.171875zm-13.542969 24.929688c-9.246094 9.25-24.160156 10.519531-37.109375 3.160156l-75.082031-42.667969c-10.421875-5.921875-17.5625-16.257812-19.101563-27.644531-1.269531-9.390625 1.429688-17.960937 7.597656-24.128906 5.238282-5.238281 12.292969-7.917969 19.78125-7.917969 5.730469 0 11.714844 1.570312 17.324219 4.757812l75.082031 42.667969c10.425782 5.925781 17.566407 16.261719 19.105469 27.648438 1.273438 9.390625-1.429687 17.957031-7.597656 24.125zm0 0" fill="#3a312a"/><path d="m181.078125 314.859375-75.082031-42.667969c-14.0625-7.992187-30.550782-6.515625-40.710938 3.644532-15.683594 15.683593-9.5625 44.171874 12.144532 56.503906l75.082031 42.667968c14.058593 7.992188 30.550781 6.515626 40.710937-3.644531 15.683594-15.683593 9.5625-44.167969-12.144531-56.503906zm0 0" fill="#fce8cb"/><path d="m204.644531 344.308594c-1.789062-13.230469-10.042969-25.214844-22.085937-32.054688l-75.082032-42.667968c-15.320312-8.710938-33.132812-7.050782-44.316406 4.128906-7.414062 7.417968-10.800781 18.050781-9.296875 29.179687 1.789063 13.230469 10.042969 25.214844 22.082031 32.054688l75.082032 42.667969c6.550781 3.722656 13.554687 5.550781 20.300781 5.550781 9.039063 0 17.613281-3.285157 24.015625-9.6875 7.414062-7.414063 10.804688-18.042969 9.300781-29.171875zm-13.542969 24.933594c-9.246093 9.25-24.15625 10.519531-37.109374 3.160156l-75.082032-42.667969c-10.421875-5.921875-17.5625-16.257813-19.105468-27.640625-1.265626-9.394531 1.429687-17.964844 7.597656-24.132812 5.238281-5.238282 12.296875-7.917969 19.785156-7.917969 5.730469 0 11.710938 1.570312 17.328125 4.757812l75.082031 42.667969c10.421875 5.921875 17.5625 16.257812 19.101563 27.644531 1.265625 9.390625-1.429688 17.960938-7.597657 24.128907zm0 0" fill="#3a312a"/><g fill="#decaad"><path d="m441.429688 93.476562c-10.761719-10.761718-37.839844-19.21875-60.441407-18.839843-.777343.019531-1.597656-.300781-2.160156-.878907-.578125-.5625-.898437-1.339843-.878906-2.160156.359375-22.582031-8.078125-49.679687-18.839844-60.441406-3.480469-3.460938-7.039063-5.160156-10.898437-5.160156h-.179688c-4.820312.078125-9.882812 2.738281-14.921875 6.660156 10.082031 11.621094 17.800781 37.339844 17.441406 58.941406 0 .820313.320313 1.597656.878907 2.160156.582031.578126 1.378906.898438 2.179687.878907 22.601563-.378907 49.679687 8.078125 60.441406 18.839843 3.519531 3.519532 5.199219 7.140626 5.160157 11.078126-.140626 10.28125-12.179688 21.679687-22.800782 31.722656-.339844.320312-.679687.640625-1.019531.957031 1.917969 3.941406 3.199219 8.183594 3.800781 12.542969.117188.898437.199219 1.777344.257813 2.679687 6.441406-1.441406 12.421875-4.519531 17.261719-9.359375 2.21875-2.222656 4.578124-4.460937 7.078124-6.820312 10.621094-10.042969 22.660157-21.441406 22.800782-31.722656.058594-3.9375-1.640625-7.558594-5.160156-11.078126zm0 0"/><path d="m151.53125 377.875c-.160156-.078125-.339844-.160156-.5-.257812l-75.082031-42.660157c-12.039063-6.839843-20.300781-18.839843-22.078125-32.0625-.140625-1.019531-.222656-2.019531-.28125-3-6.539063 1.402344-12.621094 4.5-17.519532 9.402344-1.902343 1.898437-3.878906 3.800781-5.980468 5.777344 3.839844 8.183593 10.28125 15.222656 18.480468 19.882812l75.078126 42.660157c.160156.097656.320312.179687.5.257812 4.363281 13.800781 1.761718 28.640625-8.238282 38.640625-2.21875 2.21875-4.460937 4.582031-6.820312 7.082031-5.359375 5.636719-11.078125 11.699219-16.800782 16.136719.441407.523437.921876 1.042969 1.378907 1.5 3.480469 3.460937 7.042969 5.160156 10.902343 5.160156h.179688c10.28125-.136719 21.679688-12.179687 31.71875-22.796875 2.359375-2.5 4.601562-4.863281 6.820312-7.082031 10-10 12.601563-24.839844 8.242188-38.640625zm0 0"/><path d="m393.226562 150.574219c-1.519531-11.398438-8.679687-21.71875-19.097656-27.65625l-75.082031-42.660157c-5.597656-3.183593-11.597656-4.761718-17.320313-4.761718-4.699218 0-9.238281 1.058594-13.257812 3.160156 1.078125.460938 2.140625 1 3.199219 1.601562l75.078125 42.660157c10.421875 5.9375 17.5625 16.257812 19.101562 27.65625 1.28125 9.382812-1.417968 17.960937-7.601562 24.121093-1.9375 1.941407-4.136719 3.539063-6.519532 4.761719 12.140626 5.5 25.421876 3.738281 33.921876-4.761719 6.160156-6.160156 8.863281-14.738281 7.578124-24.121093zm0 0"/><path d="m344.609375 199.195312c-1.542969-11.378906-8.679687-21.71875-19.101563-27.640624l-75.101562-42.660157c-10.21875-5.820312-21.660156-6.238281-30.578125-1.597656 1.078125.460937 2.140625 1 3.199219 1.597656l75.082031 42.660157c10.4375 5.921874 17.578125 16.261718 19.117187 27.640624 1.261719 9.402344-1.4375 17.980469-7.597656 24.140626-1.960937 1.960937-4.160156 3.539062-6.539062 4.761718 12.136718 5.5 25.4375 3.71875 33.917968-4.761718 6.160157-6.160157 8.863282-14.738282 7.601563-24.140626zm0 0"/><path d="m295.96875 247.835938c-1.539062-11.378907-8.679688-21.71875-19.097656-27.640626l-75.082032-42.660156c-5.621093-3.199218-11.597656-4.757812-17.320312-4.757812-4.71875 0-9.238281 1.058594-13.257812 3.160156 1.078124.457031 2.140624 1 3.179687 1.597656l75.097656 42.660156c10.421875 5.921876 17.5625 16.261719 19.101563 27.640626 1.261718 9.398437-1.441406 17.960937-7.601563 24.140624-1.9375 1.941407-4.136719 3.539063-6.519531 4.757813 12.140625 5.5 25.421875 3.722656 33.902344-4.757813 6.179687-6.179687 8.855468-14.742187 7.597656-24.140624zm0 0"/><path d="m247.328125 296.476562c-1.539063-11.378906-8.679687-21.71875-19.101563-27.640624l-75.078124-42.679688c-5.621094-3.179688-11.601563-4.738281-17.320313-4.738281-4.71875 0-9.238281 1.039062-13.261719 3.136719 1.082032.460937 2.140625 1 3.203125 1.601562l75.078125 42.679688c10.421875 5.921874 17.558594 16.261718 19.101563 27.640624 1.257812 9.398438-1.421875 17.960938-7.601563 24.140626-1.941406 1.9375-4.140625 3.539062-6.519531 4.757812 12.140625 5.480469 25.417969 3.722656 33.898437-4.757812 6.183594-6.179688 8.882813-14.742188 7.601563-24.140626zm0 0"/><path d="m198.6875 345.117188c-1.519531-11.402344-8.679688-21.722657-19.097656-27.660157l-75.082032-42.660156c-5.601562-3.179687-11.601562-4.761719-17.320312-4.761719-4.71875 0-9.238281 1.0625-13.257812 3.160156 1.078124.460938 2.136718 1 3.199218 1.601563l75.078125 42.660156c10.421875 5.9375 17.5625 16.257813 19.101563 27.660157 1.28125 9.378906-1.421875 17.957031-7.601563 24.117187-1.9375 1.941406-4.140625 3.542969-6.519531 4.761719 12.140625 5.5 25.421875 3.738281 33.921875-4.761719 6.160156-6.160156 8.859375-14.738281 7.578125-24.117187zm0 0"/></g></svg>