<svg height="451pt" viewBox="-15 0 451 451.772" width="451pt" xmlns="http://www.w3.org/2000/svg"><path d="m383.707031 196.519531h-103.089843c28.917968-18.75 48.066406-51.289062 48.066406-88.316406 0-58.101563-47.101563-105.203125-105.203125-105.203125-58.101563 0-105.207031 47.101562-105.207031 105.203125 0 37.03125 19.148437 69.566406 48.066406 88.316406h-97.519532c-18.710937 0-33.878906 15.167969-33.878906 33.878907 0 18.710937 15.167969 33.878906 33.878906 33.878906h90.597657l-10.902344 32.035156-10.113281 29.722656-26.519532 77.921875c-6.027343 17.714844 3.449219 36.960938 21.160157 42.992188 17.714843 6.027343 36.960937-3.445313 42.988281-21.160157l21.792969-64.039062h56.878906l21.792969 64.039062c6.027344 17.714844 25.273437 27.1875 42.988281 21.160157 17.714844-6.027344 27.1875-25.277344 21.160156-42.992188l-47.535156-139.679687h90.597656c18.710938 0 33.878907-15.167969 33.878907-33.878906.003906-18.710938-15.164063-33.878907-33.878907-33.878907zm0 0" fill="#87796f"/><path d="m383.707031 193.519531h-93.703125c26.261719-20.453125 41.675782-51.695312 41.675782-85.316406 0-59.664063-48.539063-108.203125-108.203126-108.203125-59.664062 0-108.203124 48.539062-108.203124 108.203125 0 33.625 15.417968 64.863281 41.679687 85.316406h-88.132813c-20.335937 0-36.878906 16.542969-36.878906 36.878907 0 20.335937 16.542969 36.878906 36.878906 36.878906h86.40625l-9.550781 28.070312c-.535156 1.566406.304688 3.273438 1.875 3.804688 1.570313.535156 3.269531-.304688 3.804688-1.871094l10.902343-32.039062c.3125-.917969.164063-1.925782-.398437-2.710938-.566406-.789062-1.472656-1.253906-2.441406-1.253906h-90.597657c-17.027343 0-30.878906-13.851563-30.878906-30.878906 0-17.027344 13.851563-30.878907 30.878906-30.878907h97.519532c1.332031 0 2.5-.878906 2.878906-2.148437.375-1.277344-.128906-2.648438-1.246094-3.371094-29.242187-18.957031-46.699218-51.03125-46.699218-85.796875 0-56.355469 45.847656-102.203125 102.203124-102.203125 56.355469 0 102.203126 45.847656 102.203126 102.203125 0 34.765625-17.457032 66.839844-46.699219 85.796875-1.113281.722656-1.621094 2.09375-1.242188 3.371094.375 1.273437 1.546875 2.148437 2.875 2.148437h103.09375c17.027344 0 30.878907 13.851563 30.878907 30.878907 0 17.027343-13.851563 30.878906-30.878907 30.878906h-90.597656c-.96875 0-1.875.464844-2.4375 1.253906-.566406.785156-.714844 1.792969-.402344 2.710938l47.535157 139.679687c5.484374 16.121094-3.167969 33.699219-19.285157 39.183594-16.121093 5.488281-33.695312-3.167969-39.183593-19.289063l-21.792969-64.035156c-.414063-1.214844-1.554688-2.035156-2.839844-2.035156h-56.878906c-1.285157 0-2.425781.820312-2.839844 2.035156l-21.792969 64.035156c-5.484375 16.121094-23.0625 24.773438-39.179687 19.289063-16.121094-5.484375-24.773438-23.0625-19.289063-39.183594l26.519532-77.925781c.535156-1.566406-.304688-3.273438-1.875-3.804688-1.570313-.53125-3.269532.304688-3.804688 1.875l-26.519531 77.921875c-6.550781 19.253907 3.78125 40.246094 23.035156 46.796875 19.25 6.554688 40.242187-3.78125 46.792969-23.03125l21.101562-62.007812h52.582032l21.101562 62.007812c5.214844 15.324219 19.585938 25.003906 34.945312 25 3.929688 0 7.929688-.632812 11.851563-1.96875 19.25-6.550781 29.582031-27.542968 23.03125-46.796875l-46.183594-135.710937h86.40625c20.335938 0 36.882813-16.542969 36.882813-36.878906 0-20.335938-16.546875-36.878907-36.882813-36.878907zm0 0" fill="#3a312a"/><path d="m166.945312 400.742188-.042968.058593c-5.316406 6.960938-16.4375 3.222657-16.457032-5.539062v-.039063c-.019531-5.601562-4.582031-9.160156-9.242187-9.160156-2.617187 0-5.300781 1.121094-7.199219 3.640625-4.820312 6.320313-14.417968 3.820313-16.160156-3.242187l-5.960938 17.5c-6.019531 17.722656 3.441407 36.960937 21.160157 42.980468 3.621093 1.242188 7.300781 1.820313 10.921875 1.820313 14.121094 0 27.277344-8.878907 32.058594-22.980469l7.199218-21.179688c-1.296875-7.519531-11.339844-10.359374-16.277344-3.859374zm0 0" fill="#fce8cb"/><path d="m186.179688 404.09375c-.808594-4.6875-4.386719-8.460938-9.113282-9.617188-4.75-1.15625-9.542968.546876-12.546875 4.503907-1.980469 2.59375-4.851562 2.792969-6.878906 2.105469-2.023437-.683594-4.1875-2.570313-4.195313-5.875-.027343-7.605469-6.246093-12.148438-12.242187-12.148438-3.777344 0-7.277344 1.761719-9.585937 4.820312-2.125 2.789063-4.976563 2.542969-6.105469 2.308594-1.867188-.386718-4.09375-1.757812-4.753907-4.449218-.320312-1.292969-1.453124-2.21875-2.785156-2.28125-1.339844-.074219-2.539062.769531-2.96875 2.03125l-5.964844 17.503906c-6.539062 19.261718 3.792969 40.246094 23.027344 46.785156 3.839844 1.316406 7.839844 1.980469 11.894532 1.980469 15.800781 0 29.828124-10.050781 34.902343-25.015625l7.199219-21.179688c.164062-.472656.203125-.980468.117188-1.472656zm-12.996094 20.726562c-4.246094 12.527344-15.988282 20.945313-29.21875 20.945313-3.390625 0-6.738282-.558594-9.957032-1.660156-16.113281-5.476563-24.761718-23.050781-19.285156-39.175781l3.957032-11.617188c1.550781 1.347656 3.464843 2.308594 5.609374 2.753906 4.671876.96875 9.191407-.726562 12.109376-4.554687 1.605468-2.132813 3.699218-2.449219 4.804687-2.449219 3.054687 0 6.226563 2.308594 6.238281 6.207031.011719 5.292969 3.261719 9.808594 8.277344 11.5 5.023438 1.695313 10.347656.066407 13.613281-4.210937 1.519531-2 3.875-2.839844 6.308594-2.25 1.753906.429687 3.765625 1.730468 4.46875 4.128906zm0 0" fill="#3a312a"/><path d="m340.644531 403.960938-6.179687-18.140626c-1.378906 7.460938-11.339844 10.222657-16.261719 3.742188-1.917969-2.5-4.578125-3.621094-7.199219-3.621094-4.679687 0-9.238281 3.539063-9.261718 9.160156v.039063c-.019532 8.761719-11.136719 12.5-16.457032 5.542969l-.042968-.0625c-4.839844-6.339844-14.5-3.800782-16.15625 3.339844l7.417968 21.820312c6.019532 17.722656 25.261719 27.199219 42.980469 21.160156 14.101563-4.800781 22.980469-17.960937 22.980469-32.058594 0-3.621093-.601563-7.300781-1.820313-10.921874zm0 0" fill="#fce8cb"/><path d="m343.484375 403.003906v-.007812l-6.179687-18.140625c-.441407-1.289063-1.691407-2.117188-3.058594-2.027344-1.363282.101563-2.484375 1.109375-2.730469 2.449219-.523437 2.8125-2.738281 4.292968-4.636719 4.746094-2.421875.566406-4.769531-.277344-6.296875-2.289063-2.339843-3.042969-5.828125-4.789063-9.578125-4.789063-6.003906 0-12.234375 4.542969-12.261718 12.191407-.007813 3.257812-2.171876 5.144531-4.195313 5.828125-2.027344.683594-4.898437.488281-6.800781-1.996094-.039063-.054688-.074219-.109375-.117188-.164062-2.890625-3.785157-7.558594-5.527344-12.175781-4.523438-4.675781 1.003906-8.234375 4.453125-9.292969 9.003906-.125.542969-.097656 1.113282.082032 1.644532l7.417968 21.816406c3.171875 9.332031 9.785156 16.867187 18.621094 21.21875 5.140625 2.53125 10.675781 3.808594 16.242188 3.808594 4.003906 0 8.023437-.660157 11.925781-1.992188 14.960937-5.09375 25.011719-19.121094 25.011719-34.898438.003906-3.992187-.660157-7.988281-1.976563-11.878906zm-24.964844 41.097656c-7.8125 2.664063-16.183593 2.121094-23.585937-1.523437-7.398438-3.640625-12.929688-9.949219-15.585938-17.761719l-7.117187-20.921875c.828125-2.214843 2.800781-3.386719 4.484375-3.75 1.136718-.246093 4.003906-.507812 6.070312 2.191407.035156.054687.078125.113281.117188.167968 3.21875 4.210938 8.542968 5.839844 13.5625 4.140625 5.015625-1.691406 8.265625-6.203125 8.28125-11.535156.015625-4.007813 3.234375-6.167969 6.261718-6.167969 1.894532 0 3.609376.867188 4.808594 2.433594 2.953125 3.886719 7.722656 5.609375 12.449219 4.484375 2.089844-.496094 3.957031-1.507813 5.464844-2.890625l4.074219 11.957031c1.101562 3.273438 1.660156 6.621094 1.660156 9.957031 0 13.210938-8.417969 24.953126-20.945313 29.21875zm0 0" fill="#3a312a"/><path d="m90.902344 248.003906-.058594-.023437c-8.300781-2.820313-8.300781-14.558594 0-17.359375l.019531-.019532c4.160157-1.398437 6.222657-5.039062 6.222657-8.679687s-2.0625-7.28125-6.222657-8.679687c-7.757812-2.621094-8.257812-13.058594-1.5-16.71875h-20.539062c-18.71875 0-33.878907 15.160156-33.878907 33.878906 0 9.359375 3.796876 17.820312 9.917969 23.960937 6.121094 6.117188 14.601563 9.917969 23.960938 9.917969h24.300781c5.980469-3.980469 5.238281-13.757812-2.222656-16.277344zm0 0" fill="#fce8cb"/><path d="m100.007812 255.035156c-.613281-4.667968-3.65625-8.359375-8.199218-9.894531-3.09375-1.046875-4.191406-3.710937-4.191406-5.851563.003906-2.132812 1.101562-4.785156 4.183593-5.824218.089844-.03125.175781-.066406.261719-.105469 4.882812-1.75 8.023438-6.214844 8.023438-11.4375 0-5.3125-3.246094-9.835937-8.261719-11.523437-2.390625-.804688-3.945313-2.777344-4.15625-5.273438-.171875-1.972656.5625-4.578125 3.125-5.964844 1.207031-.652344 1.816406-2.042968 1.480469-3.375-.339844-1.332031-1.539063-2.265625-2.910157-2.265625h-20.539062c-20.335938 0-36.878907 16.542969-36.878907 36.878907 0 9.832031 3.832032 19.09375 10.796876 26.082031 6.964843 6.964843 16.226562 10.796875 26.082031 10.796875h24.300781c.589844 0 1.167969-.175782 1.660156-.5 3.839844-2.550782 5.839844-7.050782 5.222656-11.742188zm-7.890624 6.246094h-23.292969c-8.253907 0-16.007813-3.210938-21.835938-9.039062-5.832031-5.851563-9.042969-13.609376-9.042969-21.84375 0-17.027344 13.851563-30.875 30.878907-30.875h13.894531c-.839844 1.871093-1.214844 3.96875-1.03125 6.117187.417969 4.875 3.566406 8.875 8.21875 10.449219 3.082031 1.035156 4.179688 3.691406 4.179688 5.835937 0 2.140625-1.101563 4.796875-4.179688 5.835938-.089844.03125-.175781.0625-.265625.105469-4.875 1.753906-8.015625 6.207031-8.019531 11.417968-.003906 5.304688 3.238281 9.832032 8.324218 11.5625 3.269532 1.101563 3.964844 3.84375 4.113282 4.96875.222656 1.691406-.199219 3.921875-1.941406 5.464844zm0 0" fill="#3a312a"/><path d="m407.664062 206.441406c-6.121093-6.121094-14.601562-9.917968-23.960937-9.917968h-22.320313c-6.757812 3.660156-6.257812 14.097656 1.5 16.71875 4.140626 1.398437 6.222657 5.039062 6.222657 8.679687s-2.082031 7.28125-6.222657 8.679687l-.019531.019532c-8.300781 2.800781-8.300781 14.539062 0 17.359375l.0625.023437c7.476563 2.519532 8.21875 12.296875 2.21875 16.277344h18.558594c18.722656 0 33.882813-15.179688 33.882813-33.878906 0-9.359375-3.800782-17.839844-9.921876-23.960938zm0 0" fill="#fce8cb"/><path d="m409.785156 204.320312c-6.960937-6.960937-16.222656-10.796874-26.078125-10.796874h-22.320312c-.5 0-.992188.125-1.429688.363281-4.207031 2.277343-6.660156 6.894531-6.246093 11.753906.417968 4.875 3.566406 8.878906 8.214843 10.449219 3.082031 1.039062 4.179688 3.699218 4.179688 5.835937s-1.097657 4.792969-4.179688 5.839844c-.089843.03125-.175781.0625-.265625.105469-4.875 1.753906-8.011718 6.207031-8.019531 11.417968-.003906 5.300782 3.238281 9.832032 8.328125 11.5625 3.28125 1.105469 3.980469 3.847657 4.128906 4.972657.246094 1.882812-.3125 4.4375-2.613281 5.960937-1.101563.730469-1.59375 2.097656-1.210937 3.363282.378906 1.269531 1.546874 2.136718 2.871093 2.136718h18.558594c20.335937 0 36.882813-16.546875 36.882813-36.882812 0-9.855469-3.835938-19.117188-10.800782-26.082032zm-26.082031 56.960938h-12.425781c.769531-1.921875 1.050781-4.058594.765625-6.242188-.613281-4.671874-3.664063-8.363281-8.214844-9.898437-3.09375-1.046875-4.191406-3.710937-4.191406-5.851563.003906-2.132812 1.101562-4.785156 4.183593-5.824218.09375-.03125.183594-.066406.273438-.105469 4.875-1.761719 8.007812-6.222656 8.007812-11.4375 0-5.304687-3.242187-9.824219-8.257812-11.523437-2.390625-.804688-3.945312-2.777344-4.160156-5.273438-.152344-1.8125.449218-4.160156 2.535156-5.605469h21.484375c8.253906 0 16.007813 3.210938 21.835937 9.042969 5.832032 5.828125 9.042969 13.585938 9.042969 21.835938.003907 17.03125-13.851562 30.882812-30.878906 30.882812zm0 0" fill="#3a312a"/><path d="m244.265625 237.613281c0 9.941407-8.058594 18-18 18s-18-8.058593-18-18c0-9.941406 8.058594-18 18-18s18 8.058594 18 18zm0 0" fill="#d7e057"/><path d="m226.265625 216.613281c-11.582031 0-21 9.417969-21 21 0 11.578125 9.417969 21 21 21 11.578125 0 21-9.421875 21-21 0-11.582031-9.421875-21-21-21zm0 36c-8.273437 0-15-6.730469-15-15 0-8.273437 6.726563-15 15-15 8.269531 0 15 6.726563 15 15 0 8.269531-6.730469 15-15 15zm0 0" fill="#3a312a"/><path d="m244.265625 302.535156c0 9.941406-8.058594 18-18 18s-18-8.058594-18-18 8.058594-18 18-18 18 8.058594 18 18zm0 0" fill="#d7e057"/><path d="m226.265625 281.535156c-11.582031 0-21 9.417969-21 21 0 11.578125 9.417969 21 21 21 11.578125 0 21-9.421875 21-21 0-11.582031-9.421875-21-21-21zm0 36c-8.273437 0-15-6.730468-15-15 0-8.273437 6.726563-15 15-15 8.269531 0 15 6.726563 15 15 0 8.269532-6.730469 15-15 15zm0 0" fill="#3a312a"/><path d="m186.597656 70.214844c-7.914062 0-14.332031 6.417968-14.332031 14.335937s6.417969 14.332031 14.332031 14.332031c7.917969 0 14.335938-6.414062 14.335938-14.332031s-6.417969-14.335937-14.335938-14.335937zm0 0" fill="#fce8cb"/><path d="m186.597656 67.214844c-9.558594 0-17.332031 7.777344-17.332031 17.332031 0 9.558594 7.773437 17.335937 17.332031 17.335937s17.332032-7.777343 17.332032-17.335937c.003906-9.554687-7.773438-17.332031-17.332032-17.332031zm0 28.667968c-6.25 0-11.332031-5.085937-11.332031-11.335937 0-6.246094 5.082031-11.332031 11.332031-11.332031s11.332032 5.085937 11.332032 11.332031c.003906 6.25-5.082032 11.335937-11.332032 11.335937zm0 0" fill="#3a312a"/><path d="m265.933594 70.214844c-7.917969 0-14.335938 6.417968-14.335938 14.335937s6.417969 14.332031 14.335938 14.332031c7.914062 0 14.332031-6.414062 14.332031-14.332031s-6.417969-14.335937-14.332031-14.335937zm0 0" fill="#fce8cb"/><path d="m265.933594 67.214844c-9.558594 0-17.335938 7.777344-17.335938 17.332031 0 9.558594 7.777344 17.335937 17.335938 17.335937 9.554687 0 17.332031-7.777343 17.332031-17.335937 0-9.554687-7.777344-17.332031-17.332031-17.332031zm0 28.667968c-6.25 0-11.335938-5.085937-11.335938-11.335937 0-6.246094 5.085938-11.332031 11.335938-11.332031 6.246094 0 11.332031 5.085937 11.332031 11.332031 0 6.25-5.085937 11.335937-11.332031 11.335937zm0 0" fill="#3a312a"/><path d="m256.847656 120.304688h-61.167968c-5.277344 0-9.125 5-7.785157 10.101562 4.46875 17.015625 19.953125 29.566406 38.371094 29.566406 18.414063 0 33.902344-12.546875 38.367187-29.566406 1.339844-5.101562-2.507812-10.101562-7.785156-10.101562zm0 0" fill="#f16c7a"/><path d="m265.59375 121.609375c-2.109375-2.734375-5.296875-4.300781-8.746094-4.300781h-61.167968c-3.449219 0-6.636719 1.566406-8.746094 4.300781s-2.816406 6.21875-1.941406 9.5625c4.914062 18.722656 21.886718 31.800781 41.269531 31.800781 19.382812 0 36.355469-13.078125 41.269531-31.800781.878906-3.339844.171875-6.828125-1.9375-9.5625zm-3.863281 8.039063c-4.222657 16.089843-18.808594 27.324218-35.464844 27.324218-16.660156 0-31.242187-11.234375-35.46875-27.324218-.402344-1.527344-.078125-3.125.890625-4.375.960938-1.25 2.417969-1.964844 3.992188-1.964844h61.167968c1.578125 0 3.03125.714844 3.996094 1.964844s1.289062 2.847656.886719 4.375zm0 0" fill="#3a312a"/><path d="m65.207031 22.585938c-1.949219 23.125-26.050781 26.777343-26.050781 26.777343 20.695312.976563 25.851562 28.117188 25.851562 28.117188.441407-19.351563 26.640626-28.402344 26.640626-28.402344-19.625-1.175781-26.441407-26.492187-26.441407-26.492187zm0 0" fill="#d7e057"/><path d="m91.832031 46.085938c-17.210937-1.035157-23.664062-24.050782-23.730469-24.285157-.382812-1.40625-1.71875-2.351562-3.164062-2.203125-1.453125.128906-2.597656 1.28125-2.71875 2.730469-1.71875 20.433594-22.625 23.929687-23.511719 24.066406-1.523437.230469-2.625 1.582031-2.546875 3.121094.082032 1.539063 1.316406 2.769531 2.855469 2.84375 18.058594.851563 23 25.4375 23.046875 25.6875.273438 1.421875 1.519531 2.433594 2.945312 2.433594.082032 0 .167969-.003907.25-.011719 1.527344-.125 2.714844-1.382812 2.75-2.917969.386719-17.019531 24.382813-25.554687 24.625-25.640625 1.347657-.464844 2.183594-1.824218 1.988282-3.242187-.195313-1.414063-1.363282-2.496094-2.789063-2.582031zm-27.132812 20.6875c-2.714844-6.261719-7.417969-13.816407-15.175781-17.753907 5.863281-2.808593 12.820312-7.824219 16.40625-16.546875 3.101562 6.144532 8.398437 13.761719 16.667968 17.449219-6.015625 3.277344-13.847656 8.808594-17.898437 16.851563zm0 0" fill="#3a312a"/><path d="m21.808594 56.546875c-1.375 16.355469-18.421875 18.9375-18.421875 18.9375 14.636719.691406 18.285156 19.890625 18.285156 19.890625.308594-13.6875 18.84375-20.089844 18.84375-20.089844-13.886719-.832031-18.707031-18.738281-18.707031-18.738281zm0 0" fill="#d7e057"/><path d="m40.691406 72.289062c-11.53125-.691406-15.941406-16.375-15.988281-16.53125-.378906-1.402343-1.699219-2.351562-3.164063-2.203124-1.449218.128906-2.597656 1.285156-2.71875 2.734374-1.160156 13.742188-15.292968 16.132813-15.882812 16.226563-1.527344.230469-2.628906 1.582031-2.546875 3.121094.078125 1.542969 1.3125 2.769531 2.851563 2.839843 12.070312.570313 15.449218 17.292969 15.480468 17.457032.269532 1.425781 1.515625 2.4375 2.945313 2.4375.082031 0 .164062-.003906.25-.007813 1.527343-.128906 2.714843-1.386719 2.75-2.921875.261719-11.417968 16.664062-17.265625 16.824219-17.324218 1.351562-.464844 2.1875-1.824219 1.992187-3.242188s-1.363281-2.5-2.792969-2.585938zm-19.167968 13.589844c-1.847657-3.769531-4.679688-7.894531-8.894532-10.558594 3.710938-2.082031 7.394532-5.261718 9.742188-9.835937 2.113281 3.75 5.308594 7.910156 9.882812 10.453125-3.703125 2.199219-7.980468 5.476562-10.730468 9.941406zm0 0" fill="#3a312a"/><path d="m21.808594 3.230469c-1.375 16.359375-18.421875 18.941406-18.421875 18.941406 14.636719.691406 18.285156 19.886719 18.285156 19.886719.308594-13.6875 18.84375-20.089844 18.84375-20.089844-13.886719-.832031-18.707031-18.738281-18.707031-18.738281zm0 0" fill="#d7e057"/><path d="m40.691406 18.976562c-11.53125-.691406-15.941406-16.375-15.988281-16.53125-.378906-1.40625-1.699219-2.335937-3.164063-2.207031-1.449218.132813-2.597656 1.289063-2.71875 2.738281-1.160156 13.742188-15.292968 16.132813-15.882812 16.226563-1.527344.230469-2.628906 1.582031-2.546875 3.121094.078125 1.542969 1.3125 2.769531 2.851563 2.839843 12.070312.570313 15.449218 17.292969 15.480468 17.453126.269532 1.425781 1.515625 2.441406 2.945313 2.441406.082031 0 .167969-.003906.25-.011719 1.53125-.125 2.714843-1.386719 2.753906-2.921875.257813-11.417969 16.660156-17.265625 16.820313-17.320312 1.355468-.464844 2.191406-1.828126 1.992187-3.246094-.195313-1.414063-1.363281-2.496094-2.792969-2.582032zm-19.167968 13.585938c-1.847657-3.769531-4.679688-7.890625-8.894532-10.554688 3.710938-2.082031 7.394532-5.261718 9.742188-9.835937 2.113281 3.75 5.308594 7.910156 9.882812 10.449219-3.703125 2.199218-7.980468 5.476562-10.730468 9.941406zm0 0" fill="#3a312a"/><path d="m248.625 196.523438h29c-.019531-1 .480469-1.960938 1.359375-2.519532 29.238281-18.960937 46.699219-51.042968 46.699219-85.800781 0-56.359375-45.859375-102.199219-102.199219-102.199219-2.082031 0-4.140625.058594-6.199219.199219 45.617188 11.480469 79.398438 52.800781 79.398438 102 0 37.039063-19.160156 69.558594-48.058594 88.320313zm41.640625 68.71875c-.101563-.320313-.160156-.640626-.160156-.960938h-29l41.5 121.902344c2.320312-2.101563 5.398437-3.242188 8.398437-3.242188 3.738282 0 7.238282 1.742188 9.582032 4.800782 1.519531 2 3.878906 2.859374 6.296874 2.28125 1.742188-.421876 3.742188-1.722657 4.460938-4.101563zm0 0" fill="#695b51"/><g fill="#decaad"><path d="m337.804688 404.921875-4.082032-11.960937c-1.5 1.402343-3.378906 2.402343-5.457031 2.902343-4.722656 1.117188-9.5-.601562-12.441406-4.480469-1.21875-1.582031-2.921875-2.441406-4.820313-2.441406-2.519531 0-5.160156 1.5-6 4.320313l3.640625 10.699219c1.21875 3.621093 1.820313 7.300781 1.820313 10.921874 0 11.160157-5.5625 21.71875-14.859375 28 7.238281 3.359376 15.339843 3.800782 22.917969 1.21875 12.519531-4.257812 20.941406-16 20.941406-29.21875 0-3.339843-.5625-6.679687-1.660156-9.960937zm0 0"/><path d="m405.542969 208.5625c-5.839844-5.839844-13.578125-9.039062-21.839844-9.039062h-18.039063c3.738282 1.699218 7.140626 4.058593 10 6.917968 6.121094 6.121094 9.921876 14.601563 9.921876 23.960938 0 11.039062-5.300782 20.859375-13.480469 27.039062-.0625 1.339844-.339844 2.621094-.820313 3.839844h12.417969c17.019531 0 30.882813-13.859375 30.882813-30.878906 0-8.261719-3.222657-16-9.042969-21.839844zm0 0"/></g></svg>