<svg height="451pt" viewBox="0 0 451 451.98168" width="451pt" xmlns="http://www.w3.org/2000/svg"><path d="m377.296875 188.980469c-1.238281-1.097657-3.132813-.988281-4.234375.253906l-226.5625 255.496094c-1.101562 1.238281-.988281 3.136719.253906 4.234375.570313.503906 1.28125.753906 1.988282.753906.828124 0 1.652343-.339844 2.246093-1.007812l226.5625-255.496094c1.101563-1.242188.988281-3.136719-.253906-4.234375zm0 0" fill="#3a312a"/><path d="m446.78125 110.621094c-4.492188-3.984375-44.277344 4.816406-64.609375 27.742187-20.332031 22.929688-19.234375 41.890625-6.863281 52.859375 12.367187 10.96875 31.324218 9.789063 51.65625-13.140625 20.335937-22.925781 24.167968-63.605469 19.816406-67.460937zm0 0" fill="#d7e057"/><path d="m448.773438 108.375c-4.515626-4.007812-20.574219.121094-29.34375 3.191406-9.480469 3.320313-27.214844 10.957032-39.5 24.808594-29 32.699219-12.394532 51.964844-6.613282 57.09375 5.582032 4.949219 12.117188 7.480469 19.167969 7.480469 2.046875 0 4.136719-.214844 6.261719-.644531 10.132812-2.054688 20.382812-8.859376 30.464844-20.230469 12.257812-13.824219 17.699218-32.394531 19.851562-42.234375 1.988281-9.085938 4.164062-25.519532-.289062-29.464844zm-24.050782 67.71875c-9.070312 10.226562-18.464844 16.566406-27.167968 18.328125-7.515626 1.527344-14.519532-.355469-20.253907-5.445313-12.621093-11.1875-9.957031-29.367187 7.121094-48.621093 18.773437-21.171875 54.726563-29.507813 60.324219-27.460938 2.628906 5.402344-1.445313 42.246094-20.023438 63.199219zm0 0" fill="#3a312a"/><path d="m384.035156 208.222656c-30.589844 1.835938-43.21875 16.019532-42.230468 32.519532.988281 16.503906 15.230468 29.074218 45.820312 27.238281 30.589844-1.835938 62.066406-27.890625 61.714844-33.691407-.359375-5.996093-34.714844-27.902343-65.304688-26.066406zm0 0" fill="#d7e057"/><path d="m383.855469 205.226562c-43.625 2.617188-45.507813 27.984376-45.042969 35.695313.574219 9.609375 5.121094 17.5 13.144531 22.816406 7.445313 4.933594 17.453125 7.421875 29.820313 7.421875 1.949218 0 3.960937-.058594 6.027344-.183594 30.28125-1.820312 65.089843-27.578124 64.53125-36.863281-.558594-9.289062-38.199219-30.707031-68.480469-28.886719zm3.589843 59.757813c-13.652343.8125-24.769531-1.339844-32.171874-6.246094-6.394532-4.238281-10.011719-10.523437-10.472657-18.175781-1.011719-16.832031 13.726563-27.804688 39.417969-29.347656 28.230469-1.671875 59.558594 17.839844 62.070312 23.242187-1.957031 5.679688-30.890624 28.851563-58.84375 30.527344zm0 0" fill="#3a312a"/><path d="m357.386719 184.589844c-1.835938-30.589844-27.695313-62.074219-33.691407-61.714844-5.800781.347656-27.902343 34.710938-26.066406 65.300781 1.835938 30.59375 16.019532 43.226563 32.523438 42.234375 16.5-.992187 29.070312-15.230468 27.234375-45.820312zm0 0" fill="#d7e057"/><path d="m360.378906 184.410156c-1.800781-30.042968-27.171875-64.539062-36.640625-64.539062-.074219 0-.148437.003906-.222656.007812-9.285156.558594-30.699219 38.195313-28.878906 68.476563 2.449219 40.832031 24.820312 45.097656 34.003906 45.097656.625 0 1.195313-.019531 1.691406-.050781 9.605469-.578125 17.496094-5.121094 22.816407-13.148438 5.710937-8.613281 8.144531-20.675781 7.230468-35.84375zm-12.234375 32.53125c-4.238281 6.390625-10.523437 10.011719-18.171875 10.472656-16.851562 1.003907-27.808594-13.726562-29.351562-39.417968-1.675782-27.953125 17.871094-59.453125 23.273437-62.074219 5.664063 1.847656 28.800781 30.605469 30.5 58.847656.816407 13.644531-1.34375 24.769531-6.25 32.171875zm0 0" fill="#3a312a"/><path d="m330.589844 268.496094c-30.589844 1.835937-43.226563 16.019531-42.234375 32.523437.992187 16.5 15.230469 29.070313 45.820312 27.234375 5.042969-.300781 10.101563-1.273437 15.046875-2.691406l26.402344-12.035156c12.203125-7.644532 20.449219-15.984375 20.269531-18.964844-.363281-5.996094-34.714843-27.902344-65.304687-26.066406zm0 0" fill="#d7e057"/><path d="m375.875 275.890625c-9.046875-4.355469-26.984375-11.507813-45.464844-10.390625-15.171875.910156-26.851562 4.773438-34.726562 11.472656-7.328125 6.238282-10.898438 14.617188-10.324219 24.222656.578125 9.609376 5.125 17.5 13.148437 22.816407 7.441407 4.933593 17.453126 7.421875 29.816407 7.421875 1.949219 0 3.960937-.0625 6.027343-.1875 4.972657-.296875 10.253907-1.238282 15.695313-2.800782 1.59375-.457031 2.515625-2.117187 2.054687-3.710937-.457031-1.589844-2.117187-2.511719-3.707031-2.054687-5.023437 1.441406-9.867187 2.308593-14.398437 2.578124-13.648438.816407-24.769532-1.339843-32.171875-6.246093-6.394531-4.234375-10.011719-10.519531-10.472657-18.175781-.460937-7.652344 2.382813-14.324219 8.222657-19.292969 6.761719-5.757813 17.546875-9.234375 31.195312-10.050781 28.214844-1.679688 59.535157 17.820312 62.066407 23.230468-.855469 2.238282-7.480469 9.167969-18.808594 16.265625-1.402344.878907-1.828125 2.730469-.949219 4.132813.878906 1.40625 2.734375 1.832031 4.132813.949218 7.660156-4.796874 22.046874-15.507812 21.671874-21.6875-.359374-6.027343-14.628906-14.460937-23.007812-18.492187zm0 0" fill="#3a312a"/><path d="m303.9375 244.863281c-1.835938-30.589843-27.695312-62.074219-33.6875-61.714843-5.804688.347656-27.90625 34.714843-26.070312 65.304687 1.835937 30.589844 16.019531 43.222656 32.523437 42.230469 16.5-.992188 29.070313-15.230469 27.234375-45.820313zm0 0" fill="#d7e057"/><path d="m306.933594 244.683594c-1.109375-18.480469-10.34375-35.4375-15.753906-43.898438-5.003907-7.835937-15.023438-20.972656-21.113282-20.632812-5.9375.355468-14.371094 14.625-18.417968 23-4.382813 9.066406-11.570313 27.035156-10.464844 45.476562 2.453125 40.835938 24.824218 45.097656 34.003906 45.097656.628906 0 1.199219-.019531 1.691406-.050781 7.714844-.460937 32.675782-5.363281 30.054688-48.992187zm-30.410156 43.007812c-16.839844 1.003906-27.804688-13.726562-29.347657-39.417968-1.675781-27.953126 17.867188-59.453126 23.269531-62.074219 5.664063 1.84375 28.804688 30.601562 30.5 58.84375 1.542969 25.691406-7.589843 41.632812-24.421874 42.648437zm0 0" fill="#3a312a"/><path d="m277.140625 328.769531c-30.589844 1.835938-43.222656 16.019531-42.234375 32.523438.992188 16.5 15.230469 29.070312 45.820312 27.234375 30.589844-1.835938 62.066407-27.890625 61.714844-33.691406-.359375-5.996094-34.710937-27.902344-65.300781-26.066407zm0 0" fill="#d7e057"/><path d="m322.429688 336.160156c-9.050782-4.355468-26.988282-11.507812-45.472657-10.386718-43.625 2.617187-45.507812 27.984374-45.042969 35.695312.574219 9.609375 5.121094 17.5 13.144532 22.816406 7.445312 4.933594 17.453125 7.421875 29.820312 7.421875 1.949219 0 3.960938-.0625 6.027344-.183593 18.441406-1.109376 35.421875-10.390626 43.902344-15.828126 7.832031-5.023437 20.988281-15.101562 20.628906-21.039062-.359375-6.027344-14.632812-14.460938-23.007812-18.496094zm-41.882813 49.375c-13.648437.808594-24.769531-1.34375-32.171875-6.25-6.390625-4.238281-10.011719-10.519531-10.472656-18.171875-1.007813-16.835937 13.726562-27.804687 39.417968-29.347656 28.222657-1.671875 59.5625 17.835937 62.074219 23.238281-1.960937 5.679688-30.894531 28.851563-58.847656 30.53125zm0 0" fill="#3a312a"/><path d="m250.492188 305.136719c-1.835938-30.589844-27.699219-62.074219-33.691407-61.71875-5.800781.351562-27.902343 34.714843-26.066406 65.304687s16.019531 43.226563 32.519531 42.234375c16.5-.992187 29.074219-15.230469 27.238282-45.820312zm0 0" fill="#d7e057"/><path d="m253.484375 304.957031c-1.109375-18.480469-10.34375-35.4375-15.75-43.898437-5.003906-7.835938-15.078125-20.957032-21.113281-20.632813-9.285156.558594-30.699219 38.199219-28.882813 68.480469 2.449219 40.832031 24.824219 45.09375 34.003907 45.09375.628906 0 1.199218-.019531 1.691406-.046875 9.609375-.578125 17.496094-5.125 22.816406-13.148437 5.710938-8.617188 8.144531-20.679688 7.234375-35.847657zm-12.238281 32.53125c-4.234375 6.394531-10.519532 10.011719-18.171875 10.472657-16.832031 1.007812-27.808594-13.726563-29.347657-39.417969-1.675781-27.953125 17.867188-59.449219 23.269532-62.074219 5.664062 1.847656 28.804687 30.601562 30.5 58.847656.820312 13.644532-1.339844 24.769532-6.25 32.171875zm0 0" fill="#3a312a"/><path d="m223.691406 389.042969c-30.589844 1.835937-43.222656 16.019531-42.234375 32.523437.992188 16.5 15.230469 29.070313 45.820313 27.234375 30.589844-1.835937 62.066406-27.890625 61.71875-33.6875-.359375-5.996093-34.714844-27.90625-65.304688-26.070312zm0 0" fill="#d7e057"/><path d="m223.511719 386.046875c-43.628907 2.621094-45.511719 27.984375-45.046875 35.695313.574218 9.609374 5.121094 17.5 13.144531 22.816406 7.445313 4.933594 17.457031 7.421875 29.820313 7.421875 1.949218 0 3.960937-.0625 6.027343-.183594 30.285157-1.820313 65.089844-27.578125 64.535157-36.863281-.5625-9.289063-38.222657-30.710938-68.480469-28.886719zm3.585937 59.761719c-13.648437.808594-24.769531-1.34375-32.171875-6.25-6.390625-4.238282-10.011719-10.519532-10.472656-18.171875-1.007813-16.835938 13.726563-27.808594 39.417969-29.347657 28.234375-1.683593 59.5625 17.835938 62.074218 23.242188-1.957031 5.675781-30.894531 28.847656-58.847656 30.527344zm0 0" fill="#3a312a"/><path d="m197.039062 365.410156c-1.835937-30.589844-27.695312-62.074218-33.6875-61.714844-5.800781.347657-27.90625 34.714844-26.070312 65.304688s16.023438 43.222656 32.523438 42.230469c16.503906-.988281 29.070312-15.230469 27.234374-45.820313zm0 0" fill="#d7e057"/><path d="m200.035156 365.230469c-1.800781-30.042969-27.171875-64.539063-36.640625-64.539063-.074219 0-.148437.003906-.222656.007813-9.285156.554687-30.699219 38.195312-28.882813 68.476562.910157 15.167969 4.773438 26.851563 11.472657 34.722657 5.804687 6.820312 13.460937 10.386718 22.230469 10.386718.660156 0 1.324218-.019531 1.996093-.0625 9.605469-.574218 17.496094-5.121094 22.816407-13.144531 5.707031-8.617187 8.140624-20.679687 7.230468-35.847656zm-12.234375 32.535156c-4.238281 6.390625-10.523437 10.011719-18.175781 10.46875-7.65625.441406-14.324219-2.382813-19.296875-8.222656-5.757813-6.761719-9.230469-17.546875-10.050781-31.195313-1.675782-27.949218 17.867187-59.449218 23.273437-62.074218 5.660157 1.847656 28.800781 30.605468 30.496094 58.847656.820313 13.644531-1.339844 24.773437-6.246094 32.175781zm0 0" fill="#3a312a"/><path d="m300.386719 22.683594c-1.949219 23.128906-26.050781 26.78125-26.050781 26.78125 20.695312.972656 25.851562 28.117187 25.851562 28.117187.441406-19.355469 26.640625-28.40625 26.640625-28.40625-19.625-1.175781-26.441406-26.492187-26.441406-26.492187zm0 0" fill="#d7e057"/><path d="m327.007812 46.183594c-17.207031-1.03125-23.664062-24.050782-23.726562-24.285156-.382812-1.40625-1.71875-2.328126-3.167969-2.203126-1.449219.132813-2.597656 1.285157-2.71875 2.734376-1.71875 20.429687-22.628906 23.929687-23.507812 24.066406-1.527344.230468-2.628907 1.578125-2.546875 3.121094.078125 1.539062 1.3125 2.769531 2.855468 2.84375 18.054688.847656 22.996094 25.433593 23.042969 25.683593.273438 1.421875 1.519531 2.433594 2.945313 2.433594.082031 0 .167968-.003906.25-.011719 1.527344-.125 2.714844-1.382812 2.75-2.917968.390625-17.015626 24.382812-25.554688 24.625-25.636719 1.351562-.46875 2.183594-1.828125 1.988281-3.246094-.191406-1.414063-1.359375-2.496094-2.789063-2.582031zm-27.132812 20.6875c-2.710938-6.257813-7.414062-13.8125-15.171875-17.75 5.863281-2.8125 12.816406-7.828125 16.402344-16.546875 3.101562 6.140625 8.398437 13.757812 16.667969 17.445312-6.011719 3.277344-13.84375 8.808594-17.898438 16.851563zm0 0" fill="#3a312a"/><path d="m256.988281 56.644531c-1.378906 16.355469-18.425781 18.9375-18.425781 18.9375 14.636719.691407 18.285156 19.890625 18.285156 19.890625.3125-13.6875 18.84375-20.089844 18.84375-20.089844-13.878906-.832031-18.703125-18.738281-18.703125-18.738281zm0 0" fill="#d7e057"/><path d="m275.871094 72.386719c-11.53125-.6875-15.945313-16.371094-15.988282-16.527344-.378906-1.40625-1.699218-2.332031-3.164062-2.207031-1.453125.132812-2.597656 1.285156-2.71875 2.738281-1.160156 13.742187-15.292969 16.132813-15.886719 16.226563-1.523437.230468-2.625 1.582031-2.542969 3.121093.078126 1.542969 1.3125 2.769531 2.855469 2.84375 12.070313.566407 15.445313 17.289063 15.476563 17.453125.269531 1.425782 1.519531 2.4375 2.945312 2.4375.082032 0 .167969-.003906.25-.007812 1.53125-.128906 2.71875-1.390625 2.753906-2.921875.257813-11.421875 16.660157-17.269531 16.824219-17.324219 1.351563-.46875 2.1875-1.828125 1.992188-3.246094-.199219-1.414062-1.367188-2.5-2.796875-2.585937zm-19.167969 13.589843c-1.847656-3.769531-4.679687-7.894531-8.894531-10.558593 3.710937-2.082031 7.394531-5.261719 9.742187-9.832031 2.113281 3.746093 5.308594 7.90625 9.882813 10.449218-3.699219 2.199219-7.980469 5.480469-10.730469 9.941406zm0 0" fill="#3a312a"/><path d="m256.988281 3.328125c-1.378906 16.359375-18.425781 18.945313-18.425781 18.945313 14.636719.6875 18.285156 19.886718 18.285156 19.886718.3125-13.691406 18.84375-20.089844 18.84375-20.089844-13.878906-.832031-18.703125-18.742187-18.703125-18.742187zm0 0" fill="#d7e057"/><path d="m275.871094 19.074219c-11.53125-.691407-15.945313-16.371094-15.984375-16.527344-.382813-1.40625-1.703125-2.332031-3.164063-2.203125-1.453125.128906-2.601562 1.285156-2.722656 2.734375-1.15625 13.742187-15.292969 16.136719-15.882812 16.230469-1.527344.230468-2.625 1.578125-2.546876 3.121094.082032 1.539062 1.316407 2.769531 2.855469 2.84375 12.070313.566406 15.445313 17.285156 15.480469 17.449218.269531 1.425782 1.515625 2.441406 2.945312 2.441406.082032 0 .164063-.003906.25-.011718 1.527344-.125 2.714844-1.386719 2.75-2.921875.261719-11.417969 16.664063-17.265625 16.824219-17.324219 1.355469-.464844 2.1875-1.824219 1.992188-3.242188-.199219-1.421874-1.367188-2.507812-2.796875-2.589843zm-19.167969 13.589843c-1.847656-3.773437-4.679687-7.894531-8.894531-10.558593 3.710937-2.082031 7.394531-5.261719 9.742187-9.832031 2.113281 3.746093 5.308594 7.90625 9.882813 10.445312-3.699219 2.199219-7.980469 5.480469-10.730469 9.945312zm0 0" fill="#3a312a"/><path d="m118.363281 106.9375c-1.652343-.203125-3.140625.957031-3.347656 2.601562l-40.886719 327.335938c-.203125 1.644531.960938 3.144531 2.605469 3.347656.125.015625.253906.023438.375.023438 1.492187 0 2.785156-1.109375 2.972656-2.628906l40.886719-327.332032c.207031-1.644531-.960938-3.144531-2.605469-3.347656zm0 0" fill="#3a312a"/><path d="m131.34375 3.015625c-2.285156-.289063-7.800781 3.933594-13.933594 10.945313l-16.722656 25.644531c-3.378906 7.230469-5.953125 15.007812-6.929688 22.832031-3.800781 30.40625 7.832032 45.425781 24.234376 47.472656 16.40625 2.050782 31.371093-9.644531 35.167968-40.054687 3.796875-30.40625-16.046875-66.121094-21.816406-66.839844zm0 0" fill="#d7e057"/><path d="m131.714844.0351562c-4.8125-.6289062-12.4375 7.2304688-16.5625 11.9492188-1.089844 1.25-.964844 3.144531.28125 4.234375s3.140625.964844 4.234375-.28125c5.886719-6.730469 9.949219-9.457031 11.292969-9.886719 5.242187 3.011719 22.691406 35.671875 19.222656 63.433594-1.695313 13.566406-5.855469 24.105469-12.035156 30.484375-5.335938 5.507812-12.167969 7.914062-19.785157 6.96875-16.738281-2.09375-24.824219-18.585938-21.632812-44.128906.867187-6.929688 3.109375-14.3125 6.671875-21.933594.699218-1.503906.050781-3.289062-1.449219-3.988281-1.503906-.703125-3.289063-.054688-3.988281 1.445312-3.824219 8.195313-6.246094 16.175781-7.1875 23.730469-5.417969 43.375 19.171875 49.867188 26.839844 50.824219 1.359374.171875 2.699218.253906 4.011718.253906 7.945313 0 15.078125-3.066406 20.824219-9 7.195313-7.425781 11.796875-18.835937 13.679687-33.914063 3.765626-30.101562-15.1875-69.035156-24.417968-70.1914058zm0 0" fill="#3a312a"/><path d="m203.402344 103.550781c-3.6875-4.738281-44.410156-3.375-68.597656 15.441407-24.1875 18.816406-26.582032 37.65625-16.433594 50.707031 10.152344 13.046875 29.003906 15.359375 53.191406-3.457031 24.191406-18.816407 35.410156-58.101563 31.839844-62.691407zm0 0" fill="#d7e057"/><path d="m205.769531 101.710938c-5.714843-7.34375-48.859375-3.714844-72.808593 14.914062-11.992188 9.332031-19.445313 19.121094-22.144532 29.097656-2.515625 9.292969-.722656 18.222656 5.1875 25.816406 5.800782 7.457032 13.816406 11.382813 23.207032 11.382813.179687 0 .359374 0 .539062-.003906 10.335938-.164063 21.660156-4.976563 33.65625-14.304688 14.582031-11.34375 23.332031-28.605469 27.25-37.882812 3.617188-8.570313 8.765625-24.328125 5.113281-29.019531zm-36.046875 62.164062c-10.789062 8.394531-21.1875 12.90625-30.0625 13.046875-7.679687.09375-14.210937-3.011719-18.917968-9.0625-4.707032-6.054687-6.136719-13.164063-4.132813-20.566406 2.320313-8.570313 9.25-17.539063 20.039063-25.929688 22.332031-17.375 59.207031-18.980469 64.332031-15.949219 1.597656 5.792969-9.15625 41.269532-31.257813 58.460938zm0 0" fill="#3a312a"/><path d="m99.460938 114.578125c-18.8125-24.1875-57.949219-35.527344-62.691407-31.839844-4.585937 3.566407-3.375 44.410157 15.441407 68.597657 18.816406 24.1875 37.65625 26.582031 50.707031 16.433593 13.046875-10.148437 15.359375-29.003906-3.457031-53.191406zm0 0" fill="#d7e057"/><path d="m101.828125 112.734375c-11.367187-14.613281-28.574219-23.371094-37.820313-27.289063-8.558593-3.632812-24.316406-8.78125-29.082031-5.074218-7.339843 5.710937-3.714843 48.863281 14.914063 72.808594 14.164062 18.203124 26.96875 23.238281 36.804687 23.238281 8.804688 0 15.234375-4.039063 18.113281-6.277344 7.597657-5.910156 11.53125-14.121094 11.378907-23.75-.160157-10.335937-4.976563-21.660156-14.308594-33.65625zm-.75 52.667969c-13.316406 10.351562-30.699219 4.40625-46.496094-15.90625-17.195312-22.101563-18.894531-59.132813-15.921875-64.355469 5.703125-1.6875 41.0625 8.945313 58.433594 31.277344 8.394531 10.792969 12.90625 21.1875 13.046875 30.066406.121094 7.667969-3.015625 14.210937-9.0625 18.917969zm0 0" fill="#3a312a"/><path d="m193.417969 183.488281c-3.6875-4.738281-44.410157-3.375-68.597657 15.441407-24.1875 18.816406-26.582031 37.660156-16.429687 50.707031 10.148437 13.050781 29.003906 15.359375 53.1875-3.453125 24.1875-18.816406 35.410156-58.105469 31.839844-62.695313zm0 0" fill="#d7e057"/><path d="m195.785156 181.648438c-5.710937-7.34375-48.863281-3.710938-72.804687 14.914062-11.996094 9.332031-19.449219 19.121094-22.148438 29.097656-2.515625 9.292969-.722656 18.222656 5.1875 25.816406 5.800781 7.457032 13.816407 11.386719 23.210938 11.386719.175781 0 .355469 0 .535156-.003906 10.335937-.164063 21.660156-4.980469 33.65625-14.308594 14.582031-11.34375 23.332031-28.605469 27.25-37.882812 3.617187-8.570313 8.765625-24.328125 5.113281-29.019531zm-36.046875 62.164062c-10.789062 8.394531-21.183593 12.90625-30.0625 13.046875-7.707031.089844-14.207031-3.015625-18.917969-9.0625-4.707031-6.054687-6.136718-13.164063-4.132812-20.566406 2.320312-8.570313 9.25-17.539063 20.039062-25.929688 22.335938-17.375 59.207032-18.976562 64.335938-15.945312 1.59375 5.789062-9.160156 41.265625-31.261719 58.457031zm0 0" fill="#3a312a"/><path d="m89.476562 194.515625c-18.816406-24.1875-57.953124-35.527344-62.691406-31.839844-4.589844 3.566407-3.375 44.410157 15.441406 68.597657 18.8125 24.1875 37.660157 26.585937 50.707032 16.433593 13.046875-10.152343 15.359375-29.003906-3.457032-53.191406zm0 0" fill="#d7e057"/><path d="m91.84375 192.671875c-11.367188-14.613281-28.574219-23.371094-37.820312-27.289063-8.554688-3.628906-24.316407-8.777343-29.082032-5.074218-7.339844 5.714844-3.710937 48.863281 14.914063 72.808594 14.164062 18.203124 26.96875 23.238281 36.804687 23.238281 8.808594 0 15.234375-4.039063 18.113282-6.277344 6.097656-4.746094 23.910156-22.90625-2.929688-57.40625zm-.753906 52.667969c-13.316406 10.355468-30.691406 4.40625-46.496094-15.90625-17.191406-22.101563-18.894531-59.132813-15.917969-64.355469 5.699219-1.691406 41.058594 8.945313 58.433594 31.28125 15.804687 20.3125 17.292969 38.625 3.980469 48.980469zm0 0" fill="#3a312a"/><path d="m183.433594 263.425781c-3.6875-4.738281-44.410156-3.375-68.597656 15.441407-24.1875 18.816406-26.582032 37.660156-16.429688 50.707031 10.148438 13.050781 29.003906 15.363281 53.191406-3.453125 24.183594-18.816406 35.40625-58.105469 31.835938-62.695313zm0 0" fill="#d7e057"/><path d="m185.804688 261.585938c-5.714844-7.34375-48.867188-3.710938-72.808594 14.914062-11.996094 9.328125-19.445313 19.121094-22.148438 29.101562-2.515625 9.289063-.722656 18.21875 5.1875 25.8125 5.800782 7.457032 13.816406 11.386719 23.210938 11.386719.175781 0 .355468-.003906.535156-.003906 10.335938-.164063 21.660156-4.980469 33.65625-14.308594 14.582031-11.34375 23.332031-28.605469 27.25-37.882812 3.617188-8.570313 8.765625-24.324219 5.117188-29.019531zm-36.050782 62.164062c-10.789062 8.394531-21.183594 12.90625-30.0625 13.046875-7.679687.085937-14.207031-3.011719-18.917968-9.0625-4.707032-6.050781-6.136719-13.164063-4.132813-20.566406 2.320313-8.570313 9.25-17.539063 20.039063-25.929688 22.335937-17.375 59.210937-18.976562 64.335937-15.945312 1.59375 5.789062-9.160156 41.265625-31.261719 58.457031zm0 0" fill="#3a312a"/><path d="m79.492188 274.453125c-18.816407-24.1875-57.953126-35.527344-62.691407-31.839844-4.589843 3.570313-3.375 44.410157 15.441407 68.597657 18.816406 24.1875 37.660156 26.585937 50.707031 16.433593 13.046875-10.152343 15.359375-29.003906-3.457031-53.191406zm0 0" fill="#d7e057"/><path d="m81.859375 272.613281c-18.625-23.949219-59.554687-38.082031-66.902344-32.367187-7.339843 5.710937-3.710937 48.863281 14.914063 72.808594 14.164062 18.203124 26.96875 23.238281 36.804687 23.238281 8.808594 0 15.234375-4.039063 18.113281-6.277344 6.101563-4.746094 23.910157-22.90625-2.929687-57.402344zm-.753906 52.664063c-13.316407 10.355468-30.691407 4.410156-46.496094-15.90625-17.195313-22.101563-18.894531-59.132813-15.921875-64.351563 5.722656-1.683593 41.066406 8.945313 58.433594 31.277344 15.808594 20.316406 17.296875 38.625 3.984375 48.980469zm0 0" fill="#3a312a"/><path d="m167.214844 365.304688c0 45.210937-36.652344 81.863281-81.863282 81.863281-45.210937 0-81.859374-36.652344-81.859374-81.863281 0-45.210938 36.648437-81.859376 81.859374-81.859376 45.210938 0 81.863282 36.648438 81.863282 81.859376zm0 0" fill="#8ac6dd"/><path d="m85.351562 280.445312c-46.789062 0-84.859374 38.070313-84.859374 84.859376 0 46.792968 38.070312 84.863281 84.859374 84.863281 46.792969 0 84.863282-38.066407 84.863282-84.863281 0-46.792969-38.070313-84.859376-84.863282-84.859376zm0 163.722657c-43.484374 0-78.859374-35.375-78.859374-78.863281 0-43.484376 35.375-78.859376 78.859374-78.859376 43.484376 0 78.863282 35.375 78.863282 78.859376 0 43.484374-35.378906 78.863281-78.863282 78.863281zm0 0" fill="#3a312a"/><path d="m99.570312 366.613281 25.679688-25.679687c3.90625-3.90625 3.90625-10.238282 0-14.140625-3.902344-3.90625-10.238281-3.90625-14.140625 0l-25.679687 25.679687-25.679688-25.679687c-3.902344-3.90625-10.238281-3.90625-14.140625 0-3.90625 3.902343-3.90625 10.234375 0 14.140625l25.679687 25.679687-25.679687 25.679688c-3.90625 3.902343-3.90625 10.234375 0 14.140625 1.953125 1.953125 4.511719 2.929687 7.070313 2.929687 2.558593 0 5.121093-.976562 7.070312-2.929687l25.679688-25.683594 25.679687 25.683594c1.953125 1.953125 4.511719 2.929687 7.070313 2.929687 2.558593 0 5.121093-.976562 7.070312-2.929687 3.90625-3.90625 3.90625-10.238282 0-14.140625zm0 0" fill="#87796f"/><path d="m103.8125 366.613281 23.558594-23.558593c2.457031-2.453126 3.808594-5.722657 3.808594-9.191407 0-3.472656-1.351563-6.738281-3.808594-9.191406-2.453125-2.457031-5.71875-3.808594-9.191406-3.808594-3.476563 0-6.738282 1.351563-9.191407 3.804688l-23.558593 23.5625-23.558594-23.558594c-2.453125-2.457031-5.71875-3.808594-9.191406-3.808594-3.476563 0-6.738282 1.351563-9.191407 3.804688-2.457031 2.457031-3.808593 5.722656-3.808593 9.195312 0 3.46875 1.351562 6.738281 3.808593 9.191407l23.554688 23.558593-23.554688 23.554688c-2.457031 2.457031-3.808593 5.722656-3.808593 9.195312 0 3.46875 1.351562 6.738281 3.808593 9.1875 2.453125 2.457031 5.71875 3.8125 9.191407 3.8125 3.476562 0 6.738281-1.355469 9.191406-3.808593l23.558594-23.558594 23.558593 23.558594c2.453125 2.457031 5.71875 3.808593 9.191407 3.808593 3.476562 0 6.738281-1.351562 9.191406-3.808593 2.457031-2.453126 3.808594-5.71875 3.808594-9.191407 0-3.472656-1.351563-6.738281-3.808594-9.191406zm19.3125 37.699219c-2.640625 2.644531-7.253906 2.644531-9.894531-.003906l-25.679688-25.679688c-.589843-.585937-1.355469-.878906-2.125-.878906-.765625 0-1.535156.292969-2.121093.878906l-25.679688 25.679688c-2.640625 2.644531-7.253906 2.648437-9.898438 0-1.320312-1.324219-2.050781-3.082032-2.050781-4.949219 0-1.871094.730469-3.625 2.050781-4.949219l25.679688-25.679687c1.171875-1.171875 1.171875-3.074219 0-4.242188l-25.679688-25.679687c-1.320312-1.324219-2.050781-3.082032-2.050781-4.949219 0-1.871094.730469-3.625 2.054688-4.949219 2.640625-2.644531 7.25-2.644531 9.894531 0l25.683594 25.679688c1.171875 1.171875 3.066406 1.171875 4.242187 0l25.679688-25.679688c2.640625-2.644531 7.25-2.644531 9.894531 0 1.324219 1.324219 2.050781 3.082032 2.050781 4.949219 0 1.871094-.726562 3.625-2.050781 4.949219l-25.679688 25.679687c-1.171874 1.171875-1.171874 3.074219 0 4.242188l25.679688 25.679687c1.324219 1.324219 2.050781 3.082032 2.050781 4.949219.003907 1.871094-.726562 3.628906-2.050781 4.953125zm0 0" fill="#3a312a"/><path d="m85.347656 286.441406c-2.78125 0-5.519531.136719-8.242187.417969 39.621093 4.140625 70.601562 37.742187 70.601562 78.441406 0 40.71875-30.980469 74.300781-70.601562 78.4375 2.722656.28125 5.460937.421875 8.242187.421875 43.5 0 78.859375-35.359375 78.859375-78.859375 0-43.480469-35.359375-78.859375-78.859375-78.859375zm0 0" fill="#68a8bc"/></svg>