<svg height="451pt" viewBox="0 -38 451.9321 451" width="451pt" xmlns="http://www.w3.org/2000/svg"><path d="m64.820312 22.820312c-1.949218 23.128907-26.046874 26.777344-26.046874 26.777344 20.691406.976563 25.847656 28.121094 25.847656 28.121094.441406-19.355469 26.644531-28.40625 26.644531-28.40625-19.628906-1.171875-26.445313-26.492188-26.445313-26.492188zm0 0" fill="#d7e057"/><path d="m91.445312 46.316406c-17.210937-1.027344-23.664062-24.046875-23.730468-24.277344-.378906-1.40625-1.714844-2.332031-3.167969-2.207031-1.449219.132813-2.59375 1.285157-2.714844 2.734375-1.722656 20.429688-22.628906 23.925782-23.511719 24.066406-1.523437.226563-2.625 1.578126-2.542968 3.121094.078125 1.539063 1.3125 2.765625 2.855468 2.839844 18.054688.851562 22.996094 25.4375 23.046876 25.6875.273437 1.421875 1.515624 2.433594 2.941406 2.433594.085937 0 .167968 0 .253906-.007813 1.527344-.128906 2.714844-1.386719 2.75-2.921875.390625-17.019531 24.382812-25.554687 24.625-25.636718 1.351562-.472657 2.183594-1.832032 1.988281-3.246094-.199219-1.417969-1.367187-2.5-2.792969-2.585938zm-27.132812 20.695313c-2.710938-6.261719-7.417969-13.816407-15.175781-17.753907 5.863281-2.808593 12.820312-7.828124 16.40625-16.542968 3.101562 6.140625 8.398437 13.757812 16.667969 17.441406-6.015626 3.28125-13.847657 8.8125-17.898438 16.855469zm0 0" fill="#3a312a"/><path d="m21.425781 56.78125c-1.378906 16.359375-18.425781 18.941406-18.425781 18.941406 14.636719.6875 18.285156 19.886719 18.285156 19.886719.3125-13.6875 18.84375-20.089844 18.84375-20.089844-13.886718-.828125-18.703125-18.738281-18.703125-18.738281zm0 0" fill="#d7e057"/><path d="m40.304688 72.523438c-11.53125-.6875-15.941407-16.367188-15.988282-16.527344-.378906-1.402344-1.710937-2.339844-3.164062-2.203125-1.449219.128906-2.597656 1.285156-2.71875 2.734375-1.15625 13.742187-15.292969 16.132812-15.882813 16.226562-1.527343.230469-2.6249998 1.582032-2.54687475 3.125.08203125 1.539063 1.31249975 2.765625 2.85546875 2.839844 12.070313.570312 15.445313 17.289062 15.476563 17.453125.269531 1.425781 1.519531 2.4375 2.945312 2.4375.082031 0 .164062 0 .25-.007813 1.527344-.125 2.714844-1.386718 2.75-2.921874.261719-11.417969 16.664062-17.269532 16.828125-17.324219 1.351563-.46875 2.1875-1.828125 1.992187-3.246094-.199218-1.417969-1.367187-2.5-2.796874-2.585937zm-19.167969 13.589843c-1.847657-3.769531-4.679688-7.890625-8.894531-10.558593 3.710937-2.082032 7.394531-5.257813 9.742187-9.832032 2.113281 3.75 5.308594 7.910156 9.882813 10.449219-3.699219 2.199219-7.980469 5.480469-10.730469 9.941406zm0 0" fill="#3a312a"/><path d="m21.425781 3.46875c-1.378906 16.355469-18.425781 18.941406-18.425781 18.941406 14.636719.6875 18.285156 19.886719 18.285156 19.886719.3125-13.691406 18.84375-20.089844 18.84375-20.089844-13.886718-.832031-18.703125-18.738281-18.703125-18.738281zm0 0" fill="#d7e057"/><path d="m40.304688 19.210938c-11.53125-.691407-15.945313-16.371094-15.988282-16.53125-.378906-1.402344-1.710937-2.328126-3.164062-2.203126-1.449219.128907-2.597656 1.285157-2.71875 2.738282-1.15625 13.742187-15.292969 16.132812-15.882813 16.226562-1.527343.230469-2.6249998 1.578125-2.54687475 3.121094.08203125 1.539062 1.31249975 2.769531 2.85546875 2.84375 12.070313.566406 15.445313 17.285156 15.480469 17.449219.269531 1.425781 1.515625 2.441406 2.941406 2.441406.085938 0 .167969 0 .25-.007813 1.53125-.128906 2.71875-1.390624 2.753906-2.925781.257813-11.417969 16.664063-17.265625 16.824219-17.320312 1.351563-.46875 2.1875-1.828125 1.992187-3.246094-.199218-1.417969-1.367187-2.5-2.796874-2.585937zm-19.167969 13.589843c-1.847657-3.769531-4.679688-7.894531-8.894531-10.558593 3.710937-2.082032 7.394531-5.261719 9.742187-9.832032 2.113281 3.746094 5.308594 7.90625 9.882813 10.445313-3.699219 2.203125-7.980469 5.480469-10.730469 9.945312zm0 0" fill="#3a312a"/><path d="m338.644531 88.375h-225.214843c-38.453126 0-69.625 31.171875-69.625 69.621094v144.117187c0 38.453125 31.171874 69.625 69.625 69.625h225.214843c38.453125 0 69.625-31.171875 69.625-69.625v-144.117187c0-38.449219-31.171875-69.621094-69.625-69.621094zm0 0" fill="#fce8cb"/><path d="m338.644531 85.375h-182.796875c-1.660156 0-3 1.339844-3 3 0 1.65625 1.339844 3 3 3h182.796875c36.734375 0 66.625 29.882812 66.625 66.621094v144.121094c0 36.734374-29.890625 66.625-66.625 66.625h-225.214843c-36.738282 0-66.625-29.890626-66.625-66.625v-144.121094c0-36.734375 29.886718-66.621094 66.625-66.621094h13.5c1.660156 0 3-1.34375 3-3 0-1.660156-1.339844-3-3-3h-13.5c-40.046876 0-72.625 32.578125-72.625 72.621094v144.121094c0 40.042968 32.578124 72.625 72.625 72.625h225.214843c40.046875 0 72.625-32.582032 72.625-72.625v-144.121094c0-40.042969-32.578125-72.621094-72.625-72.621094zm0 0" fill="#3a312a"/><path d="m436.355469 260.433594c-9.101563 10.257812-22.402344 16.738281-37.222657 16.738281h-346.160156c-14.820312 0-28.117187-6.480469-37.21875-16.738281-7.859375 9.058594-12.578125 20.859375-12.578125 33.757812h.097657c.960937 16.722656 14.78125 30 31.742187 30 16.957031 0 30.777344-13.277344 31.738281-30h.199219c.960937 16.722656 14.78125 30 31.742187 30 16.957032 0 30.777344-13.277344 31.738282-30h.199218c.960938 16.722656 14.78125 30 31.742188 30s30.777344-13.277344 31.738281-30h.199219c.960938 16.722656 14.78125 30 31.742188 30 16.960937 0 30.78125-13.277344 31.738281-30h.199219c.960937 16.722656 14.78125 30 31.742187 30s30.78125-13.277344 31.738281-30h.203125c.957031 16.722656 14.777344 30 31.738281 30 16.960938 0 30.78125-13.277344 31.738282-30h.203125c.957031 16.722656 14.777343 30 31.738281 30s30.78125-13.277344 31.742188-30h.097656c0-12.898437-4.71875-24.699218-12.578125-33.757812zm0 0" fill="#d7e057"/><path d="m438.617188 258.46875c-.566407-.652344-1.382813-1.03125-2.25-1.035156h-.015626c-.859374 0-1.675781.367187-2.242187 1.007812-8.871094 10-21.617187 15.730469-34.976563 15.730469h-94.453124c-1.65625 0-3 1.34375-3 3 0 1.660156 1.34375 3 3 3h94.453124c13.898438 0 27.207032-5.496094 37.039063-15.191406 6.167969 8.179687 9.597656 18.148437 9.753906 28.464843-.046875.1875-.078125.378907-.085937.574219-.878906 15.238281-13.503906 27.171875-28.746094 27.171875-15.246094 0-27.871094-11.933594-28.746094-27.171875-.089844-1.585937-1.605468-2.828125-3.195312-2.828125s-2.902344 1.242188-2.996094 2.828125c-.875 15.238281-13.503906 27.171875-28.746094 27.171875-15.242187 0-27.867187-11.933594-28.742187-27.171875-.09375-1.585937-1.605469-2.828125-3.195313-2.828125s-2.90625 1.242188-2.996094 2.828125c-.875 15.238281-13.503906 27.171875-28.746093 27.171875-15.242188 0-27.871094-11.933594-28.746094-27.171875-.089844-1.585937-1.601563-2.828125-3.191406-2.828125-1.589844 0-2.90625 1.242188-2.996094 2.828125-.875 15.238281-13.503906 27.171875-28.746094 27.171875-15.246093 0-27.871093-11.933594-28.746093-27.171875-.089844-1.585937-1.605469-2.828125-3.195313-2.828125s-2.902344 1.242188-2.992187 2.828125c-.878907 15.238281-13.5 27.171875-28.746094 27.171875s-27.871094-11.933594-28.746094-27.171875c-.089844-1.585937-1.40625-2.828125-2.996094-2.828125h-.199218c-1.589844 0-2.90625 1.242188-2.996094 2.828125-.878906 15.238281-13.5 27.171875-28.746094 27.171875-15.242188 0-27.871094-11.933594-28.746094-27.171875-.089844-1.585937-1.40625-2.828125-2.992187-2.828125h-.199219c-1.59375 0-2.90625 1.242188-2.996094 2.828125-.878906 15.238281-13.503906 27.171875-28.746094 27.171875-15.242187 0-27.871093-11.933594-28.746093-27.171875-.007813-.191406-.042969-.378906-.089844-.558593.15625-10.324219 3.585937-20.296876 9.753906-28.480469 9.832031 9.695312 23.140625 15.191406 37.039063 15.191406h221.789062c1.652344 0 3-1.339844 3-3 0-1.65625-1.347656-3-3-3h-221.78125c-13.359375 0-26.109375-5.734375-34.976562-15.730469-.570313-.644531-1.320313-.96875-2.261719-1.007812-.863281.003906-1.683594.382812-2.25 1.035156-8.585937 9.894531-13.3125 22.582031-13.3125 35.722656 0 .328125.054687.640625.160156.933594 1.425781 18.042969 16.515625 32.066406 34.679688 32.066406 14.144531 0 26.425781-8.5 31.839843-20.777344 5.417969 12.277344 17.695313 20.777344 31.839844 20.777344 14.144532 0 26.421875-8.5 31.839844-20.777344 5.417969 12.277344 17.695312 20.777344 31.839844 20.777344 14.144531 0 26.421875-8.5 31.839844-20.777344 5.421874 12.277344 17.695312 20.777344 31.839843 20.777344s26.421875-8.5 31.839844-20.777344c5.417969 12.277344 17.699219 20.777344 31.839844 20.777344 14.144531 0 26.421875-8.5 31.839843-20.777344 5.417969 12.277344 17.699219 20.777344 31.839844 20.777344 14.144532 0 26.425782-8.5 31.84375-20.777344 5.417969 12.277344 17.695313 20.777344 31.839844 20.777344 18.152344 0 33.234375-14.003906 34.679688-32.03125.101562-.304687.160156-.628906.160156-.96875 0-13.140625-4.730469-25.828125-13.316406-35.722656zm0 0" fill="#3a312a"/><path d="m448.835938 160.554688c-.960938-16.722657-14.78125-30-31.742188-30s-30.78125 13.277343-31.738281 30h-.203125c-.957032-16.722657-14.777344-30-31.738282-30-16.960937 0-30.78125 13.277343-31.738281 30h-.203125c-.957031-16.722657-14.777344-30-31.738281-30s-30.78125 13.277343-31.742187 30h-.199219c-.957031-16.722657-14.777344-30-31.738281-30-16.960938 0-30.78125 13.277343-31.742188 30h-.199219c-.960937-16.722657-14.777343-30-31.738281-30s-30.78125 13.277343-31.742188 30h-.199218c-.960938-16.722657-14.78125-30-31.738282-30-16.960937 0-30.78125 13.277343-31.742187 30h-.199219c-.960937-16.722657-14.78125-30-31.738281-30-16.960937 0-30.78125 13.277343-31.742187 30h-.097657c0 12.898437 4.71875 24.699218 12.578125 33.757812 9.101563-10.257812 22.398438-16.738281 37.21875-16.738281h346.160156c14.820313 0 28.121094 6.480469 37.222657 16.738281 7.859375-9.058594 12.578125-20.859375 12.578125-33.757812zm0 0" fill="#d7e057"/><path d="m451.777344 159.625c-1.425782-18.042969-16.519532-32.070312-34.683594-32.070312-14.144531 0-26.421875 8.5-31.839844 20.78125-5.417968-12.28125-17.699218-20.78125-31.84375-20.78125-14.140625 0-26.421875 8.5-31.839844 20.78125-5.417968-12.28125-17.695312-20.78125-31.839843-20.78125-14.140625 0-26.421875 8.5-31.839844 20.777343-5.417969-12.277343-17.699219-20.777343-31.839844-20.777343s-26.417969 8.5-31.839843 20.777343c-5.417969-12.277343-17.695313-20.777343-31.839844-20.777343-14.144532 0-26.421875 8.5-31.839844 20.777343-5.417969-12.277343-17.695312-20.777343-31.839844-20.777343-14.144531 0-26.421875 8.5-31.839844 20.78125-5.417968-12.28125-17.699218-20.78125-31.839843-20.78125-18.152344 0-33.234375 14.003906-34.679688 32.027343-.105469.304688-.160156.632813-.160156.972657 0 13.140624 4.726563 25.828124 13.3125 35.722656.566406.652344 1.386719 1.03125 2.25 1.035156h.019531c.855469 0 1.671875-.367188 2.242188-1.007812 8.867187-9.996094 21.613281-15.730469 34.976562-15.730469h346.160156c13.363282 0 26.109376 5.734375 34.976563 15.730469.566406.640624 1.382813 1.007812 2.242187 1.007812h.015626c.867187-.003906 1.683593-.382812 2.25-1.035156 8.585937-9.894532 13.316406-22.582032 13.316406-35.722656 0-.328126-.054688-.636719-.15625-.929688zm-15.605469 30.140625c-9.832031-9.695313-23.140625-15.191406-37.039063-15.191406h-346.160156c-13.898437 0-27.207031 5.496093-37.039062 15.191406-6.167969-8.179687-9.59375-18.144531-9.753906-28.460937.046874-.1875.078124-.378907.089843-.578126.875-15.238281 13.5-27.171874 28.746094-27.171874 15.242187 0 27.867187 11.933593 28.746094 27.171874.089843 1.585938 1.40625 2.828126 2.996093 2.828126h.199219c1.589844 0 2.902344-1.242188 2.992188-2.828126.875-15.238281 13.5-27.171874 28.746093-27.171874 15.246094 0 27.867188 11.933593 28.746094 27.171874.089844 1.585938 1.40625 2.828126 2.996094 2.828126h.199219c1.589843 0 2.902343-1.242188 2.996093-2.828126.875-15.238281 13.5-27.171874 28.746094-27.171874s27.871094 11.933593 28.746094 27.171874c.089844 1.585938 1.601562 2.828126 3.191406 2.828126s2.90625-1.242188 2.996094-2.828126c.878906-15.238281 13.503906-27.171874 28.746094-27.171874 15.246094 0 27.871094 11.933593 28.75 27.171874.089844 1.585938 1.601562 2.828126 3.195312 2.828126 1.589844 0 2.902344-1.242188 2.992188-2.828126.875-15.238281 13.503906-27.171874 28.746094-27.171874 15.242187 0 27.871093 11.933593 28.746093 27.171874.089844 1.585938 1.605469 2.828126 3.195313 2.828126s2.902344-1.242188 2.992187-2.828126c.878907-15.238281 13.503907-27.171874 28.746094-27.171874s27.871094 11.933593 28.746094 27.171874c.089843 1.585938 1.605469 2.828126 3.195312 2.828126 1.589844 0 2.902344-1.242188 2.992188-2.828126.875-15.238281 13.503906-27.171874 28.746093-27.171874 15.242188 0 27.871094 11.933593 28.746094 27.171874.011719.195313.042969.386719.089844.574219-.167969 10.320313-3.597656 20.285157-9.765625 28.464844zm0 0" fill="#3a312a"/><path d="m399.128906 177.570312h-346.152344c-27.503906 0-49.800781 22.296876-49.800781 49.804688 0 27.503906 22.296875 49.800781 49.800781 49.800781h346.152344c27.507813 0 49.804688-22.296875 49.804688-49.800781 0-27.507812-22.296875-49.804688-49.804688-49.804688zm0 0" fill="#f16c7a"/><path d="m399.128906 174.570312h-346.152344c-29.113281 0-52.800781 23.6875-52.800781 52.804688 0 29.113281 23.6875 52.800781 52.800781 52.800781h221.785157c1.65625 0 3-1.339843 3-3 0-1.65625-1.34375-3-3-3h-221.785157c-25.804687 0-46.800781-20.996093-46.800781-46.800781 0-25.808594 20.996094-46.804688 46.800781-46.804688h346.152344c25.808594 0 46.804688 20.996094 46.804688 46.804688 0 25.804688-20.996094 46.800781-46.804688 46.800781h-94.449218c-1.65625 0-3 1.34375-3 3 0 1.660157 1.34375 3 3 3h94.449218c29.117188 0 52.804688-23.6875 52.804688-52.800781 0-29.117188-23.6875-52.804688-52.804688-52.804688zm0 0" fill="#3a312a"/><path d="m419.851562 226.234375c-4.359374-10.933594-11.175781-17.203125-18.699218-17.203125-7.523438 0-14.339844 6.273438-18.71875 17.257812-3.355469 8.40625-8.261719 13.425782-13.128906 13.425782-4.867188 0-9.773438-5.019532-13.144532-13.464844-4.359375-10.933594-11.175781-17.207031-18.699218-17.203125-7.527344 0-14.34375 6.273437-18.707032 17.226563-3.355468 8.410156-8.261718 13.433593-13.132812 13.433593-4.867188.003907-9.773438-5.019531-13.136719-13.457031-4.363281-10.933594-11.179687-17.207031-18.703125-17.207031-7.523438.003906-14.339844 6.273437-18.714844 17.234375-3.351562 8.410156-8.257812 13.429687-13.125 13.429687-4.867187 0-9.773437-5.019531-13.136718-13.449219-4.359376-10.9375-11.175782-17.207031-18.699219-17.207031-7.527344 0-14.34375 6.269531-18.710938 17.222657-3.351562 8.410156-8.257812 13.433593-13.125 13.433593-4.871093 0-9.777343-5.023437-13.136719-13.453125-4.359374-10.9375-11.175781-17.207031-18.703124-17.207031-7.527344 0-14.339844 6.273437-18.707032 17.21875-3.351562 8.414063-8.261718 13.433594-13.128906 13.433594s-9.777344-5.023438-13.128906-13.433594c-4.359375-10.9375-11.175782-17.210937-18.703125-17.210937-7.527344 0-14.34375 6.273437-18.703125 17.210937-3.351563 8.414063-8.261719 13.433594-13.128906 13.433594-4.871094 0-9.777344-5.019531-13.128907-13.433594-.613281-1.539063-2.359375-2.285156-3.898437-1.675781-1.539063.617187-2.289063 2.363281-1.675782 3.898437 4.359376 10.9375 11.175782 17.207031 18.703126 17.207031 7.523437 0 14.339843-6.273437 18.703124-17.210937 3.351563-8.410156 8.257813-13.433594 13.128907-13.433594 4.867187 0 9.777343 5.023438 13.128906 13.433594 4.363281 10.9375 11.175781 17.210937 18.707031 17.210937 7.523438 0 14.339844-6.269531 18.707032-17.21875 3.351562-8.410156 8.257812-13.429687 13.128906-13.429687 4.867187 0 9.773437 5.019531 13.132812 13.449219 4.363282 10.933594 11.175782 17.210937 18.703125 17.210937 7.527344-.003906 14.34375-6.277343 18.707031-17.226562 3.355469-8.414063 8.261719-13.433594 13.128907-13.433594 4.867187 0 9.777343 5.019531 13.136719 13.449219 4.359374 10.9375 11.175781 17.210937 18.703124 17.210937 7.523438-.003906 14.339844-6.273437 18.710938-17.234375 3.351562-8.410156 8.261719-13.429687 13.128906-13.429687 4.867188 0 9.773438 5.019531 13.136719 13.457031 4.363281 10.933594 11.179687 17.207031 18.703125 17.207031 7.527344 0 14.34375-6.273437 18.710938-17.230469 3.351562-8.410156 8.261718-13.429687 13.125-13.429687 4.871093-.003906 9.777343 5.015625 13.144531 13.464844 4.359375 10.933593 11.175781 17.203125 18.699219 17.203125 7.527343 0 14.339843-6.269532 18.722656-17.253906 3.351562-8.410157 8.261718-13.429688 13.125-13.429688 4.867187 0 9.773437 5.019531 13.183594 13.5625.648437 1.507812 2.375 2.183594 3.890624 1.554688 1.515626-.628907 2.234376-2.390626 1.625-3.914063zm0 0" fill="#3a312a"/><path d="m385.253906 306.414062c-3.078125 6.980469-8.378906 12.738282-14.960937 16.417969.460937.261719.941406.5 1.421875.742188-8.960938 26.238281-33.839844 45.160156-63.0625 45.160156h30c29.222656 0 54.101562-18.921875 63.0625-45.160156-7.28125-3.601563-13.160156-9.660157-16.460938-17.160157zm0 0" fill="#decaad"/><path d="m338.652344 91.375h-30c27.402344 0 50.960937 16.617188 61.203125 40.296875 6.796875 3.679687 12.257812 9.519531 15.398437 16.660156 3.039063-6.898437 8.261719-12.597656 14.761719-16.277343-10.140625-23.882813-33.820313-40.679688-61.363281-40.679688zm0 0" fill="#decaad"/><path d="m436.152344 264.972656c-6.296875 6.21875-14.136719 10.859375-22.898438 13.28125 1.660156 4.777344 2.601563 9.898438 2.679688 15.199219-.039063.179687-.078125.378906-.078125.558594-.5625 9.761719-5.941407 18.160156-13.742188 22.960937 4.378907 2.679688 9.519531 4.21875 14.980469 4.21875 15.261719 0 27.878906-11.9375 28.761719-27.179687 0-.179688.039062-.378907.078125-.558594-.160156-10.660156-3.78125-20.519531-9.78125-28.480469zm0 0" fill="#b9c239"/><path d="m445.855469 160.734375c-.882813-15.242187-13.5-27.179687-28.761719-27.179687-5.460938 0-10.601562 1.539062-14.980469 4.238281 7.800781 4.78125 13.179688 13.179687 13.742188 22.941406 0 .179687.039062.359375.078125.539063-.078125 5.320312-1.019532 10.460937-2.679688 15.21875 8.761719 2.421874 16.601563 7.0625 22.898438 13.28125 6-7.960938 9.621094-17.820313 9.78125-28.5-.039063-.179688-.078125-.359376-.078125-.539063zm0 0" fill="#b9c239"/><path d="m399.132812 180.574219h-30c22.222657 0 40.859376 15.558593 45.601563 36.359375 1.941406 2.539062 3.660156 5.660156 5.121094 9.300781.617187 1.539063-.121094 3.320313-1.660157 3.917969-.800781.320312-1.640624.300781-2.339843-.019532-1.441407 24.519532-21.839844 44.039063-46.722657 44.039063h30c25.800782 0 46.800782-21 46.800782-46.796875 0-25.800781-21-46.800781-46.800782-46.800781zm0 0" fill="#d34e5c"/></svg>