<svg height="454pt" viewBox="-41 0 454 454.38218" width="454pt" xmlns="http://www.w3.org/2000/svg"><path d="m65.011719 22.355469c-1.945313 23.125-26.046875 26.777343-26.046875 26.777343 20.695312.976563 25.851562 28.121094 25.851562 28.121094.441406-19.355468 26.640625-28.40625 26.640625-28.40625-19.628906-1.175781-26.445312-26.492187-26.445312-26.492187zm0 0" fill="#d7e057"/><path d="m91.636719 45.851562c-17.210938-1.03125-23.664063-24.046874-23.726563-24.28125-.382812-1.402343-1.695312-2.320312-3.167968-2.203124-1.449219.132812-2.597657 1.285156-2.71875 2.734374-1.71875 20.429688-22.625 23.929688-23.511719 24.066407-1.523438.230469-2.625 1.582031-2.542969 3.121093.078125 1.542969 1.3125 2.769532 2.855469 2.84375 18.054687.847657 22.996093 25.433594 23.042969 25.683594.277343 1.421875 1.519531 2.433594 2.945312 2.433594.085938 0 .167969 0 .253906-.011719 1.527344-.125 2.710938-1.382812 2.75-2.917969.386719-17.015624 24.378906-25.550781 24.621094-25.636718 1.355469-.46875 2.1875-1.828125 1.988281-3.246094-.191406-1.417969-1.359375-2.5-2.789062-2.585938zm-27.132813 20.691407c-2.710937-6.257813-7.417968-13.8125-15.175781-17.75 5.863281-2.808594 12.820313-7.828125 16.40625-16.546875 3.101563 6.140625 8.398437 13.761718 16.667969 17.445312-6.015625 3.277344-13.84375 8.808594-17.898438 16.851563zm0 0" fill="#3a312a"/><path d="m21.613281 56.3125c-1.375 16.359375-18.425781 18.945312-18.425781 18.945312 14.636719.6875 18.285156 19.886719 18.285156 19.886719.3125-13.6875 18.84375-20.089843 18.84375-20.089843-13.878906-.832032-18.703125-18.742188-18.703125-18.742188zm0 0" fill="#d7e057"/><path d="m40.496094 72.058594c-11.53125-.6875-15.941406-16.371094-15.988282-16.527344-.375-1.40625-1.722656-2.324219-3.160156-2.203125-1.453125.128906-2.601562 1.285156-2.722656 2.734375-1.15625 13.742188-15.292969 16.136719-15.882812 16.230469-1.527344.230469-2.628907 1.578125-2.546876 3.121093.078126 1.539063 1.3125 2.769532 2.855469 2.84375 12.070313.566407 15.449219 17.285157 15.476563 17.449219.273437 1.425781 1.519531 2.441407 2.949218 2.441407.082032 0 .164063-.003907.25-.011719 1.527344-.125 2.714844-1.386719 2.75-2.921875.261719-11.417969 16.664063-17.265625 16.824219-17.324219 1.351563-.464844 2.1875-1.824219 1.992188-3.242187-.199219-1.421876-1.367188-2.503907-2.796875-2.589844zm-19.167969 13.589844c-1.847656-3.769532-4.679687-7.894532-8.894531-10.558594 3.710937-2.082032 7.394531-5.261719 9.742187-9.832032 2.117188 3.746094 5.308594 7.90625 9.882813 10.445313-3.699219 2.203125-7.980469 5.480469-10.730469 9.945313zm0 0" fill="#3a312a"/><path d="m21.613281 3c-1.375 16.359375-18.425781 18.941406-18.425781 18.941406 14.636719.6875 18.285156 19.890625 18.285156 19.890625.3125-13.691406 18.84375-20.09375 18.84375-20.09375-13.878906-.832031-18.703125-18.738281-18.703125-18.738281zm0 0" fill="#d7e057"/><path d="m40.496094 18.746094c-11.53125-.691406-15.941406-16.375-15.988282-16.53125-.375-1.40625-1.722656-2.324219-3.160156-2.2031252-1.453125.1289062-2.601562 1.2851562-2.722656 2.7343752-1.15625 13.742187-15.292969 16.132812-15.882812 16.226562-1.527344.230469-2.628907 1.582032-2.546876 3.125.078126 1.539063 1.3125 2.765625 2.855469 2.839844 12.070313.570312 15.449219 17.289062 15.476563 17.453125.273437 1.421875 1.519531 2.441406 2.949218 2.441406.082032 0 .164063-.003906.25-.011719 1.527344-.125 2.714844-1.386718 2.75-2.921874.261719-11.417969 16.664063-17.269532 16.824219-17.324219 1.351563-.46875 2.1875-1.824219 1.992188-3.242188-.199219-1.417969-1.367188-2.5-2.796875-2.585937zm-19.167969 13.589844c-1.847656-3.773438-4.679687-7.894532-8.894531-10.5625 3.710937-2.082032 7.394531-5.257813 9.742187-9.832032 2.117188 3.746094 5.308594 7.90625 9.882813 10.445313-3.699219 2.203125-7.980469 5.484375-10.730469 9.949219zm0 0" fill="#3a312a"/><path d="m126.464844 213.585938 8.878906 22.648437v.019531l22.601562 57.621094 4.972657 12.675781 11.292969 28.796875 6.335937 16.148438 22.597656 57.621094 14.183594 36.183593c3.179687 8.109375 14.65625 8.109375 17.835937 0l90.859376-231.710937h-199.558594zm0 0" fill="#fce8cb"/><g fill="#3a312a"><path d="m328.503906 211.894531c-.558594-.820312-1.488281-1.308593-2.480468-1.308593h-199.558594c-.992188 0-1.917969.488281-2.476563 1.308593-.558593.820313-.675781 1.863281-.316406 2.785157l8.816406 22.492187c.019531.058594.042969.117187.066407.179687l27.570312 70.292969c.605469 1.542969 2.347656 2.300781 3.886719 1.699219 1.542969-.605469 2.300781-2.34375 1.699219-3.886719l-27.507813-70.136719c-.019531-.058593-.042969-.117187-.0625-.175781l-7.277344-18.554687h190.765625l-89.257812 227.617187c-1.207032 3.082031-3.953125 4.175781-6.125 4.175781-2.167969 0-4.917969-1.097656-6.121094-4.175781l-43.121094-109.953125c-.605468-1.546875-2.351562-2.300781-3.886718-1.699218-1.542969.605468-2.300782 2.34375-1.699219 3.886718l43.121093 109.953125c1.898438 4.851563 6.5 7.988281 11.707032 7.988281 5.214844 0 9.808594-3.136718 11.710937-7.988281l90.863281-231.714843c.359376-.921876.242188-1.96875-.316406-2.785157zm0 0"/><path d="m280.921875 210.789062c-1.539063-.601562-3.28125.15625-3.890625 1.699219l-76.679688 195.53125c-.605468 1.542969.152344 3.285157 1.699219 3.886719.359375.140625.726563.210938 1.09375.210938 1.199219 0 2.328125-.722657 2.792969-1.90625l76.683594-195.53125c.605468-1.542969-.15625-3.285157-1.699219-3.890626zm0 0"/><path d="m235.722656 210.789062c-1.542968-.601562-3.289062.15625-3.890625 1.699219l-54.078125 137.910157c-.605468 1.542968.152344 3.285156 1.699219 3.890624.359375.140626.726563.207032 1.09375.207032 1.199219 0 2.332031-.722656 2.792969-1.90625l54.078125-137.910156c.605469-1.542969-.15625-3.285157-1.695313-3.890626zm0 0"/><path d="m190.542969 210.789062c-1.542969-.601562-3.285157.15625-3.890625 1.699219l-31.5 80.289063c-.605469 1.542968.15625 3.285156 1.699218 3.890625.359376.136719.730469.207031 1.09375.207031 1.199219 0 2.328126-.722656 2.792969-1.90625l31.5-80.289062c.605469-1.542969-.15625-3.285157-1.695312-3.890626zm0 0"/><path d="m252 408.019531-76.679688-195.53125c-.605468-1.542969-2.347656-2.296875-3.886718-1.699219-1.542969.605469-2.300782 2.347657-1.699219 3.890626l76.679687 195.53125c.464844 1.179687 1.597657 1.90625 2.792969 1.90625.367188 0 .734375-.070313 1.097657-.210938 1.542968-.601562 2.300781-2.34375 1.695312-3.886719zm0 0"/><path d="m274.601562 350.398438-54.082031-137.910157c-.605469-1.542969-2.351562-2.296875-3.886719-1.699219-1.542968.605469-2.300781 2.347657-1.699218 3.890626l54.082031 137.910156c.464844 1.183594 1.59375 1.90625 2.792969 1.90625.363281 0 .734375-.066406 1.09375-.207032 1.542968-.605468 2.304687-2.347656 1.699218-3.890624zm0 0"/><path d="m297.203125 292.777344-31.5-80.289063c-.609375-1.542969-2.355469-2.296875-3.890625-1.699219-1.542969.605469-2.300781 2.347657-1.699219 3.890626l31.5 80.289062c.464844 1.179688 1.597657 1.90625 2.792969 1.90625.367188 0 .738281-.070312 1.097656-.207031 1.542969-.609375 2.304688-2.351563 1.699219-3.890625zm0 0"/><path d="m146.75 211.933594c-.554688-.84375-1.496094-1.347656-2.503906-1.347656h-17.78125c-.992188 0-1.921875.488281-2.480469 1.308593-.558594.820313-.675781 1.863281-.3125 2.785157l8.496094 21.675781c.445312 1.132812 1.53125 1.886719 2.746093 1.90625h.046876c1.199218 0 2.285156-.714844 2.757812-1.820313l9.285156-21.675781c.398438-.925781.300782-1.992187-.253906-2.832031zm-11.664062 15.417968-4.222657-10.769531h8.832031zm0 0"/></g><path d="m332.355469 134.125c.613281-4.074219.957031-8.21875.957031-12.4375 0-52.023438-47.933594-94.199219-107.066406-94.199219-25.328125 0-48.582032 7.753907-66.914063 20.6875l-22.3125 21.449219c-11.265625 14.917969-17.84375 32.8125-17.84375 52.0625 0 4.21875.347657 8.367188.957031 12.441406-21.785156 6.269532-37.519531 24.289063-37.519531 45.550782 0 26.476562 24.394531 47.9375 54.484375 47.9375 13.433594 0 25.722656-4.285157 35.222656-11.371094 3.777344 23.226562 26.472657 41.089844 53.921876 41.089844 27.449218 0 50.148437-17.863282 53.925781-41.089844 9.496093 7.089844 21.789062 11.371094 35.21875 11.371094 30.09375 0 54.488281-21.460938 54.488281-47.9375 0-21.261719-15.734375-39.28125-37.519531-45.554688zm0 0" fill="#d7e057"/><path d="m335.667969 132.015625c.429687-3.511719.644531-6.976563.644531-10.328125 0-53.597656-49.375-97.199219-110.066406-97.199219-25.214844 0-48.953125 7.34375-68.644532 21.234375-1.355468.957032-1.675781 2.828125-.71875 4.179688.953126 1.355468 2.824219 1.679687 4.179688.722656 18.671875-13.175781 41.210938-20.136719 65.183594-20.136719 57.382812 0 104.070312 40.910157 104.070312 91.199219 0 3.863281-.3125 7.902344-.925781 11.992188-.222656 1.488281.691406 2.914062 2.132813 3.328124 21.144531 6.089844 35.355468 23.238282 35.355468 42.667969 0 24.777344-23.101562 44.9375-51.488281 44.9375-12.242187 0-24.113281-3.828125-33.425781-10.777343-.84375-.628907-1.949219-.773438-2.917969-.378907-.972656.394531-1.667969 1.265625-1.835937 2.300781-3.578126 21.992188-25.488282 38.574219-50.964844 38.574219-25.480469 0-47.386719-16.582031-50.964844-38.574219-.167969-1.035156-.863281-1.90625-1.835938-2.300781-.96875-.390625-2.074218-.25-2.917968.378907-9.3125 6.949218-21.183594 10.777343-33.425782 10.777343-28.386718 0-51.488281-20.160156-51.488281-44.9375 0-19.433593 14.207031-36.578125 35.351563-42.667969 1.445312-.414062 2.359375-1.839843 2.136718-3.328124-.613281-4.082032-.925781-8.121094-.925781-11.992188 0-17.949219 5.960938-35.328125 17.238281-50.253906 1-1.320313.738282-3.203125-.585937-4.203125-1.320313-.996094-3.203125-.734375-4.203125.585937-12.070312 15.976563-18.449219 34.605469-18.449219 53.871094 0 3.355469.214844 6.820312.640625 10.328125-22.359375 7.441406-37.207031 26.308594-37.207031 47.664063 0 28.085937 25.792969 50.9375 57.488281 50.9375 11.925782 0 23.558594-3.308594 33.230469-9.382813 6.09375 22.585937 29.269531 39.097656 55.914063 39.097656 26.640624 0 49.816406-16.511719 55.910156-39.097656 9.671875 6.074219 21.304687 9.382813 33.230468 9.382813 31.699219 0 57.488282-22.851563 57.488282-50.9375.007812-21.355469-14.839844-40.222657-37.203125-47.664063zm0 0" fill="#3a312a"/><path d="m226.246094 4.390625c-20.679688 0-37.441406 16.761719-37.441406 37.441406 0 20.675781 16.761718 37.4375 37.441406 37.4375 20.675781 0 37.4375-16.761719 37.4375-37.4375 0-20.679687-16.761719-37.441406-37.4375-37.441406zm0 0" fill="#f16c7a"/><path d="m226.246094 1.390625c-22.300782 0-40.441406 18.140625-40.441406 40.441406 0 22.296875 18.140624 40.4375 40.441406 40.4375 22.300781 0 40.4375-18.140625 40.4375-40.4375 0-22.300781-18.136719-40.441406-40.4375-40.441406zm0 74.878906c-18.992188 0-34.441406-15.449219-34.441406-34.4375 0-18.992187 15.449218-34.441406 34.441406-34.441406 18.988281 0 34.4375 15.449219 34.4375 34.441406 0 18.988281-15.445313 34.4375-34.4375 34.4375zm0 0" fill="#3a312a"/><path d="m331.523438 137.007812c-1.4375-.421874-2.359376-1.839843-2.136719-3.320312.617187-4.101562.917969-8.140625.917969-12 0-37.800781-26.378907-70.300781-63.839844-84.101562.140625 1.378906.21875 2.800781.21875 4.242187 0 3.4375-.4375 6.777344-1.238282 9.957031 22.800782 16.742188 37.320313 41.859375 37.320313 69.902344 0 3.859375-.300781 7.898438-.921875 12-.21875 1.480469.679688 2.898438 2.140625 3.320312 21.140625 6.097657 35.339844 23.238282 35.339844 42.679688 0 20.597656-15.980469 38.019531-37.699219 43.277344 4.460938 1.082031 9.082031 1.640625 13.761719 1.640625 28.398437 0 51.5-20.160157 51.5-44.917969 0-19.441406-14.222657-36.578125-35.363281-42.679688zm0 0" fill="#b9c239"/><path d="m257.445312 323.085938-19.378906 49.421874 11.21875 28.578126 19.359375-49.417969zm0 0" fill="#decaad"/><path d="m280.046875 265.484375-19.382813 49.382813 11.222657 28.578124 19.359375-49.398437zm0 0" fill="#decaad"/><path d="m234.84375 380.707031-19.796875 50.539063 5.078125 12.960937c1.199219 3.078125 3.960938 4.179688 6.121094 4.179688s4.917968-1.101563 6.117187-4.179688l13.703125-34.902343zm0 0" fill="#decaad"/><path d="m315.386719 230.605469c-7 0-13.921875-1.140625-20.382813-3.320313l-11.738281 29.960938 11.199219 28.582031 21.660156-55.222656zm0 0" fill="#decaad"/></svg>