<svg height="452pt" viewBox="-38 0 452 452.526" width="452pt" xmlns="http://www.w3.org/2000/svg"><path d="m65.082031 375.121094c-1.949219 23.125-26.050781 26.777344-26.050781 26.777344 20.695312.972656 25.851562 28.121093 25.851562 28.121093.441407-19.355469 26.640626-28.40625 26.640626-28.40625-19.625-1.175781-26.441407-26.492187-26.441407-26.492187zm0 0" fill="#d7e057"/><path d="m91.707031 398.621094c-17.210937-1.03125-23.664062-24.050782-23.726562-24.285156-.382813-1.402344-1.710938-2.328126-3.167969-2.203126-1.453125.132813-2.597656 1.28125-2.71875 2.734376-1.71875 20.429687-22.625 23.925781-23.507812 24.0625-1.527344.230468-2.625 1.582031-2.546876 3.121093.078126 1.542969 1.3125 2.769531 2.855469 2.84375 18.054688.851563 22.996094 25.4375 23.042969 25.683594.277344 1.425781 1.523438 2.4375 2.949219 2.4375.082031 0 .167969-.003906.25-.007813 1.53125-.128906 2.714843-1.386718 2.75-2.921874.386719-17.019532 24.382812-25.554688 24.625-25.636719 1.351562-.46875 2.183593-1.828125 1.988281-3.246094-.199219-1.414063-1.367188-2.496094-2.792969-2.582031zm-27.136719 20.6875c-2.710937-6.257813-7.414062-13.8125-15.171874-17.75 5.863281-2.808594 12.816406-7.828125 16.402343-16.546875 3.101563 6.140625 8.398438 13.761719 16.667969 17.445312-6.011719 3.277344-13.84375 8.808594-17.898438 16.851563zm0 0" fill="#3a312a"/><path d="m21.683594 409.082031c-1.375 16.359375-18.421875 18.941407-18.421875 18.941407 14.636719.6875 18.285156 19.886718 18.285156 19.886718.308594-13.6875 18.84375-20.089844 18.84375-20.089844-13.886719-.832031-18.707031-18.738281-18.707031-18.738281zm0 0" fill="#d7e057"/><path d="m40.570312 424.824219c-11.535156-.6875-15.945312-16.371094-15.992187-16.527344-.378906-1.40625-1.722656-2.335937-3.160156-2.203125-1.453125.128906-2.601563 1.285156-2.722657 2.734375-1.15625 13.738281-15.292968 16.128906-15.882812 16.222656-1.527344.234375-2.625 1.582031-2.546875 3.125.082031 1.539063 1.316406 2.769531 2.859375 2.839844 12.066406.570313 15.445312 17.289063 15.472656 17.453125.273438 1.425781 1.519532 2.441406 2.949219 2.441406.082031 0 .164063-.003906.246094-.011718 1.53125-.125 2.71875-1.382813 2.753906-2.921876.261719-11.417968 16.664063-17.265624 16.824219-17.320312 1.355468-.464844 2.1875-1.828125 1.992187-3.246094-.199219-1.417968-1.367187-2.5-2.792969-2.585937zm-19.171874 13.589843c-1.847657-3.769531-4.679688-7.894531-8.894532-10.558593 3.710938-2.082031 7.394532-5.257813 9.742188-9.832031 2.113281 3.75 5.308594 7.910156 9.882812 10.449218-3.703125 2.199219-7.976562 5.480469-10.730468 9.941406zm0 0" fill="#3a312a"/><path d="m21.683594 355.765625c-1.375 16.359375-18.421875 18.941406-18.421875 18.941406 14.636719.691407 18.285156 19.890625 18.285156 19.890625.308594-13.691406 18.84375-20.089844 18.84375-20.089844-13.886719-.832031-18.707031-18.742187-18.707031-18.742187zm0 0" fill="#d7e057"/><path d="m40.570312 371.511719c-11.535156-.691407-15.945312-16.375-15.992187-16.53125-.378906-1.40625-1.722656-2.332031-3.160156-2.203125-1.453125.128906-2.601563 1.285156-2.722657 2.734375-1.15625 13.742187-15.292968 16.132812-15.882812 16.226562-1.527344.230469-2.625 1.582031-2.546875 3.121094.082031 1.542969 1.316406 2.769531 2.859375 2.84375 12.066406.566406 15.445312 17.289063 15.472656 17.453125.273438 1.421875 1.519532 2.441406 2.949219 2.441406.082031 0 .164063-.003906.246094-.011718 1.53125-.125 2.71875-1.386719 2.753906-2.921876.261719-11.417968 16.664063-17.269531 16.828125-17.324218 1.351562-.46875 2.183594-1.824219 1.988281-3.242188-.199219-1.417968-1.367187-2.503906-2.792969-2.585937zm-19.171874 13.589843c-1.847657-3.773437-4.679688-7.894531-8.894532-10.558593 3.710938-2.082031 7.394532-5.261719 9.742188-9.835938 2.113281 3.75 5.308594 7.910157 9.882812 10.449219-3.703125 2.199219-7.976562 5.480469-10.730468 9.945312zm0 0" fill="#3a312a"/><path d="m82.445312 50.464844 6.304688 59.910156 3.269531 31.058594 29.757813 282.691406c1.472656 14.003906 13.285156 24.636719 27.363281 24.636719h139.125c14.082031 0 25.890625-10.632813 27.363281-24.636719l39.335938-373.660156zm0 0" fill="#8ac6dd"/><path d="m357.195312 48.457031c-.570312-.632812-1.378906-.992187-2.230468-.992187h-272.519532c-.851562 0-1.660156.359375-2.230468.992187-.566406.632813-.839844 1.476563-.753906 2.320313l6.304687 59.910156c.175781 1.648438 1.65625 2.816406 3.300781 2.671875 1.644532-.175781 2.839844-1.652344 2.667969-3.300781l-5.957031-56.59375h265.855468l-38.984374 370.34375c-1.316407 12.515625-11.796876 21.953125-24.382813 21.953125h-139.121094c-12.582031 0-23.066406-9.4375-24.378906-21.953125l-29.761719-282.691406c-.175781-1.648438-1.636718-2.820313-3.296875-2.667969-1.644531.171875-2.84375 1.648437-2.671875 3.296875l29.761719 282.695312c1.636719 15.574219 14.683594 27.320313 30.347656 27.320313h139.121094c15.664063 0 28.710937-11.746094 30.351563-27.320313l39.332031-373.664062c.085937-.84375-.1875-1.6875-.753907-2.320313zm0 0" fill="#3a312a"/><path d="m357.773438 3h-278.136719c-8.296875 0-15.027344 6.726562-15.027344 15.023438v17.417968c0 8.296875 6.726563 15.023438 15.027344 15.023438h278.136719c8.300781 0 15.027343-6.726563 15.027343-15.023438v-17.417968c0-8.296876-6.726562-15.023438-15.027343-15.023438zm0 0" fill="#87796f"/><path d="m357.773438 0h-198.988282c-1.65625 0-3 1.34375-3 3s1.34375 3 3 3h198.988282c6.628906 0 12.027343 5.394531 12.027343 12.023438v17.417968c0 6.625-5.394531 12.023438-12.027343 12.023438h-278.136719c-6.628907 0-12.027344-5.394532-12.027344-12.023438v-17.417968c0-6.628907 5.394531-12.023438 12.027344-12.023438h48.988281c1.65625 0 3-1.34375 3-3s-1.34375-3-3-3h-48.988281c-9.941407 0-18.027344 8.085938-18.027344 18.023438v17.417968c0 9.9375 8.085937 18.023438 18.027344 18.023438h278.136719c9.941406 0 18.027343-8.085938 18.027343-18.023438v-17.417968c0-9.9375-8.085937-18.023438-18.027343-18.023438zm0 0" fill="#3a312a"/><path d="m320.28125 378.378906c0 39.296875-31.855469 71.152344-71.152344 71.152344s-71.152344-31.855469-71.152344-71.152344 31.855469-71.152344 71.152344-71.152344 71.152344 31.855469 71.152344 71.152344zm0 0" fill="#fce8cb"/><path d="m249.128906 304.226562c-40.886718 0-74.148437 33.261719-74.148437 74.148438s33.261719 74.152344 74.148437 74.152344c40.886719 0 74.148438-33.265625 74.148438-74.152344s-33.261719-74.148438-74.148438-74.148438zm0 142.300782c-37.578125 0-68.148437-30.570313-68.148437-68.148438s30.570312-68.152344 68.148437-68.152344 68.148438 30.574219 68.148438 68.152344-30.570313 68.148438-68.148438 68.148438zm0 0" fill="#3a312a"/><path d="m298.667969 378.378906c0 27.359375-22.179688 49.539063-49.539063 49.539063s-49.539062-22.179688-49.539062-49.539063 22.179687-49.539062 49.539062-49.539062 49.539063 22.179687 49.539063 49.539062zm0 0" fill="#d7e057"/><g fill="#3a312a"><path d="m249.128906 325.835938c-28.96875 0-52.542968 23.570312-52.542968 52.539062 0 28.972656 23.570312 52.542969 52.542968 52.542969 28.96875 0 52.539063-23.570313 52.539063-52.542969 0-28.96875-23.570313-52.539062-52.539063-52.539062zm0 99.082031c-25.660156 0-46.542968-20.878907-46.542968-46.542969 0-25.660156 20.878906-46.539062 46.542968-46.539062 25.664063 0 46.539063 20.878906 46.539063 46.539062 0 25.664062-20.875 46.542969-46.539063 46.542969zm0 0"/><path d="m249.128906 325.835938c-1.65625 0-3 1.34375-3 3v99.082031c0 1.65625 1.34375 3 3 3s3-1.34375 3-3v-99.082031c0-1.65625-1.34375-3-3-3zm0 0"/><path d="m298.667969 375.378906h-99.082031c-1.65625 0-3 1.34375-3 3s1.34375 3 3 3h99.082031c1.65625 0 3-1.34375 3-3s-1.34375-3-3-3zm0 0"/><path d="m286.28125 341.226562c-1.171875-1.171874-3.070312-1.171874-4.242188 0l-70.0625 70.058594c-1.171874 1.171875-1.171874 3.070313 0 4.242188.585938.585937 1.355469.878906 2.121094.878906.769532 0 1.539063-.292969 2.125-.878906l70.058594-70.058594c1.171875-1.171875 1.171875-3.070312 0-4.242188zm0 0"/><path d="m286.28125 411.289062-70.0625-70.0625c-1.171875-1.171874-3.070312-1.171874-4.242188 0-1.171874 1.171876-1.171874 3.070313 0 4.242188l70.0625 70.0625c.585938.585938 1.355469.875 2.121094.875.769532 0 1.535156-.289062 2.121094-.875 1.171875-1.171875 1.171875-3.070312 0-4.242188zm0 0"/></g><path d="m174.988281 169.847656c-39.292969 0-71.152343 31.855469-71.152343 71.148438 0 39.296875 31.855468 71.152344 71.152343 71.152344s71.152344-31.855469 71.152344-71.152344c0-39.292969-31.855469-71.148438-71.152344-71.148438zm0 0" fill="#fce8cb"/><path d="m174.988281 166.847656c-40.886719 0-74.152343 33.261719-74.152343 74.148438 0 40.886718 33.265624 74.152344 74.152343 74.152344s74.152344-33.265626 74.152344-74.152344c0-40.886719-33.261719-74.148438-74.152344-74.148438zm0 142.300782c-37.578125 0-68.152343-30.574219-68.152343-68.152344s30.574218-68.148438 68.152343-68.148438 68.152344 30.570313 68.152344 68.148438-30.570313 68.152344-68.152344 68.152344zm0 0" fill="#3a312a"/><path d="m224.269531 236.117188c-2.695312-27.226563-26.953125-47.113282-54.179687-44.417969-27.226563 2.695312-47.113282 26.953125-44.417969 54.179687 2.695313 27.226563 26.953125 47.113282 54.179687 44.417969 27.226563-2.695313 47.113282-26.949219 44.417969-54.179687zm0 0" fill="#d7e057"/><path d="m174.988281 188.457031c-28.972656 0-52.542969 23.570313-52.542969 52.542969 0 28.96875 23.570313 52.539062 52.542969 52.539062 28.96875 0 52.539063-23.570312 52.539063-52.539062 0-28.972656-23.566406-52.542969-52.539063-52.542969zm0 99.082031c-25.664062 0-46.542969-20.878906-46.542969-46.539062s20.878907-46.542969 46.542969-46.542969c25.660157 0 46.539063 20.878907 46.539063 46.542969 0 25.660156-20.875 46.539062-46.539063 46.539062zm0 0" fill="#3a312a"/><path d="m174.988281 188.457031c-1.65625 0-3 1.34375-3 3v99.082031c0 1.65625 1.34375 3 3 3s3-1.34375 3-3v-99.082031c0-1.65625-1.34375-3-3-3zm0 0" fill="#3a312a"/><path d="m224.527344 237.996094h-99.082032c-1.652343 0-3 1.347656-3 3 0 1.65625 1.347657 3 3 3h99.082032c1.65625 0 3-1.34375 3-3 0-1.652344-1.34375-3-3-3zm0 0" fill="#3a312a"/><path d="m212.140625 203.847656c-1.171875-1.171875-3.070313-1.171875-4.242187 0l-70.058594 70.058594c-1.171875 1.171875-1.171875 3.070312 0 4.242188.585937.585937 1.351562.878906 2.121094.878906.769531 0 1.535156-.292969 2.121093-.878906l70.0625-70.058594c1.167969-1.175782 1.167969-3.070313-.003906-4.242188zm0 0" fill="#3a312a"/><path d="m212.140625 273.90625-70.058594-70.058594c-1.171875-1.171875-3.070312-1.171875-4.242187 0s-1.171875 3.066406 0 4.242188l70.058594 70.058594c.585937.585937 1.355468.878906 2.121093.878906.769531 0 1.539063-.292969 2.125-.878906 1.167969-1.171876 1.167969-3.070313-.003906-4.242188zm0 0" fill="#3a312a"/><path d="m284.34375 50.898438c-39.0625-4.285157-74.203125 23.902343-78.488281 62.960937-4.289063 39.058594 23.902343 74.199219 62.960937 78.488281 39.0625 4.285156 74.203125-23.902344 78.488282-62.960937 4.289062-39.0625-23.902344-74.199219-62.960938-78.488281zm0 0" fill="#fce8cb"/><path d="m276.589844 47.464844c-40.886719 0-74.152344 33.261718-74.152344 74.152344 0 40.886718 33.265625 74.148437 74.152344 74.148437 40.886718 0 74.152344-33.261719 74.152344-74.148437 0-40.890626-33.261719-74.152344-74.152344-74.152344zm0 142.300781c-37.578125 0-68.152344-30.570313-68.152344-68.148437 0-37.582032 30.574219-68.152344 68.152344-68.152344s68.152344 30.570312 68.152344 68.152344c0 37.578124-30.574219 68.148437-68.152344 68.148437zm0 0" fill="#3a312a"/><path d="m279.332031 72.136719c-27.316406-1.511719-50.691406 19.40625-52.203125 46.726562-1.515625 27.320313 19.40625 50.695313 46.726563 52.207031 27.316406 1.515626 50.691406-19.40625 52.203125-46.726562 1.511718-27.320312-19.40625-50.695312-46.726563-52.207031zm0 0" fill="#d7e057"/><path d="m276.589844 69.074219c-28.972656 0-52.542969 23.570312-52.542969 52.539062 0 28.972657 23.570313 52.542969 52.542969 52.542969 28.96875 0 52.539062-23.570312 52.539062-52.542969.003906-28.96875-23.566406-52.539062-52.539062-52.539062zm0 99.082031c-25.664063 0-46.542969-20.878906-46.542969-46.542969 0-25.660156 20.878906-46.539062 46.542969-46.539062 25.660156 0 46.539062 20.878906 46.539062 46.539062.003906 25.664063-20.878906 46.542969-46.539062 46.542969zm0 0" fill="#3a312a"/><path d="m276.589844 69.074219c-1.65625 0-3 1.34375-3 3v99.082031c0 1.65625 1.34375 3 3 3s3-1.34375 3-3v-99.082031c0-1.65625-1.34375-3-3-3zm0 0" fill="#3a312a"/><path d="m326.132812 118.617188h-99.082031c-1.65625 0-3 1.34375-3 3s1.34375 3 3 3h99.082031c1.652344 0 3-1.34375 3-3s-1.347656-3-3-3zm0 0" fill="#3a312a"/><path d="m313.742188 84.464844c-1.171876-1.171875-3.070313-1.171875-4.242188 0l-70.0625 70.058594c-1.171875 1.171874-1.171875 3.070312 0 4.242187.585938.585937 1.355469.878906 2.121094.878906.769531 0 1.535156-.292969 2.121094-.878906l70.0625-70.058594c1.171874-1.171875 1.171874-3.070312 0-4.242187zm0 0" fill="#3a312a"/><path d="m313.742188 154.523438-70.0625-70.058594c-1.171876-1.171875-3.070313-1.171875-4.242188 0s-1.171875 3.070312 0 4.242187l70.0625 70.058594c.585938.585937 1.351562.878906 2.121094.878906.769531 0 1.535156-.292969 2.121094-.878906 1.171874-1.171875 1.171874-3.070313 0-4.242187zm0 0" fill="#3a312a"/><path d="m280.019531 445.761719h8.246094c12.582031 0 23.066406-9.4375 24.382813-21.949219l.929687-8.835938c-7.667969 13.449219-19.417969 24.277344-33.558594 30.785157zm0 0" fill="#68a8bc"/><path d="m305.785156 53.464844c19.328125 8.3125 34.425782 24.613281 41.140625 44.722656l4.707031-44.722656zm0 0" fill="#68a8bc"/><path d="m301.945312 191.28125-13.121093 124.5c14.539062 9.238281 25.640625 23.417969 30.960937 40.140625l20.71875-196.78125c-8.679687 14.71875-22.296875 26.21875-38.558594 32.140625zm0 0" fill="#68a8bc"/><path d="m357.785156 6h-35.199218c6.621093 0 12.019531 5.398438 12.019531 12.019531v17.421875c0 6.617188-5.398438 12.019532-12.019531 12.019532h35.199218c6.621094 0 12.019532-5.402344 12.019532-12.019532v-17.421875c0-6.621093-5.398438-12.019531-12.019532-12.019531zm0 0" fill="#695b51"/></svg>