<svg height="452pt" viewBox="0 0 452 452.78483" width="452pt" xmlns="http://www.w3.org/2000/svg"><path d="m3.5625 355.941406c0 38.875 31.511719 70.386719 70.382812 70.386719h304.996094c38.871094 0 70.382813-31.511719 70.382813-70.386719zm0 0" fill="#fce8cb"/><path d="m449.324219 352.941406h-445.757813c-1.65625 0-3 1.34375-3 3 0 40.464844 32.917969 73.382813 73.378906 73.382813h9.0625c1.65625 0 3-1.339844 3-3 0-1.65625-1.34375-3-3-3h-9.0625c-36.148437 0-65.742187-28.613281-67.316406-64.382813h439.628906c-1.574218 35.769532-31.167968 64.382813-67.316406 64.382813h-266.066406c-1.65625 0-3 1.34375-3 3 0 1.660156 1.34375 3 3 3h266.066406c40.460938 0 73.382813-32.917969 73.382813-73.382813 0-1.65625-1.347657-3-3-3zm0 0" fill="#3a312a"/><path d="m132.054688 426.324219h188.777343v23.460937h-188.777343zm0 0" fill="#fce8cb"/><path d="m320.832031 423.324219h-188.773437c-1.65625 0-3 1.34375-3 3v23.460937c0 1.65625 1.34375 3 3 3h188.773437c1.65625 0 3-1.34375 3-3v-23.460937c0-1.65625-1.34375-3-3-3zm-3 23.460937h-182.773437v-17.457031h182.773437zm0 0" fill="#3a312a"/><path d="m65.210938 22.351562c-1.949219 23.128907-26.046876 26.78125-26.046876 26.78125 20.691407.972657 25.847657 28.117188 25.847657 28.117188.441406-19.351562 26.644531-28.402344 26.644531-28.402344-19.628906-1.175781-26.445312-26.496094-26.445312-26.496094zm0 0" fill="#d7e057"/><path d="m91.835938 45.851562c-17.210938-1.027343-23.664063-24.046874-23.726563-24.28125-.382813-1.402343-1.699219-2.320312-3.167969-2.203124-1.449218.132812-2.597656 1.285156-2.71875 2.734374-1.71875 20.429688-22.625 23.925782-23.511718 24.0625-1.523438.230469-2.625 1.582032-2.542969 3.121094.078125 1.542969 1.3125 2.769532 2.855469 2.84375 18.054687.851563 22.996093 25.4375 23.042968 25.6875.277344 1.421875 1.519532 2.433594 2.945313 2.433594.085937 0 .167969-.003906.253906-.011719 1.527344-.128906 2.710937-1.386719 2.75-2.917969.386719-17.015624 24.382813-25.554687 24.621094-25.636718 1.355469-.472656 2.1875-1.828125 1.988281-3.246094-.195312-1.417969-1.363281-2.5-2.789062-2.585938zm-27.132813 20.691407c-2.714844-6.261719-7.417969-13.8125-15.175781-17.753907 5.863281-2.808593 12.820312-7.828124 16.40625-16.542968 3.101562 6.140625 8.398437 13.757812 16.667968 17.441406-6.015624 3.28125-13.847656 8.8125-17.898437 16.855469zm0 0" fill="#3a312a"/><path d="m21.816406 56.316406c-1.378906 16.355469-18.429687 18.9375-18.429687 18.9375 14.636719.6875 18.285156 19.890625 18.285156 19.890625.3125-13.691406 18.84375-20.089843 18.84375-20.089843-13.882813-.832032-18.699219-18.738282-18.699219-18.738282zm0 0" fill="#d7e057"/><path d="m40.695312 72.058594c-11.53125-.691406-15.941406-16.371094-15.988281-16.527344-.378906-1.40625-1.710937-2.328125-3.160156-2.203125-1.453125.128906-2.601563 1.285156-2.722656 2.734375-1.15625 13.742188-15.292969 16.132812-15.882813 16.226562-1.523437.230469-2.625 1.578126-2.542968 3.121094.078124 1.539063 1.3125 2.769532 2.855468 2.84375 12.066406.566406 15.445313 17.285156 15.472656 17.449219.273438 1.425781 1.519532 2.441406 2.949219 2.441406.082031 0 .164063 0 .25-.007812 1.527344-.128907 2.714844-1.390625 2.75-2.925781.261719-11.417969 16.664063-17.265626 16.824219-17.320313 1.351562-.46875 2.1875-1.828125 1.992188-3.246094-.199219-1.417969-1.367188-2.5-2.796876-2.585937zm-19.167968 13.589844c-1.847656-3.773438-4.679688-7.894532-8.894532-10.558594 3.710938-2.082032 7.394532-5.261719 9.742188-9.832032 2.117188 3.746094 5.308594 7.90625 9.882812 10.445313-3.699218 2.203125-7.980468 5.480469-10.730468 9.945313zm0 0" fill="#3a312a"/><path d="m21.816406 3c-1.378906 16.355469-18.429687 18.941406-18.429687 18.941406 14.636719.6875 18.285156 19.886719 18.285156 19.886719.3125-13.6875 18.84375-20.089844 18.84375-20.089844-13.882813-.832031-18.699219-18.738281-18.699219-18.738281zm0 0" fill="#d7e057"/><path d="m40.695312 18.742188c-11.53125-.6875-15.941406-16.371094-15.988281-16.53125-.378906-1.402344-1.710937-2.320313-3.160156-2.1992192-1.453125.1289062-2.601563 1.2851562-2.722656 2.7343752-1.15625 13.742187-15.292969 16.132812-15.882813 16.230468-1.523437.226563-2.625 1.578126-2.542968 3.121094.078124 1.539063 1.3125 2.765625 2.855468 2.839844 12.066406.570312 15.445313 17.289062 15.472656 17.453125.273438 1.425781 1.519532 2.441406 2.949219 2.441406.082031 0 .164063-.003906.25-.011719 1.527344-.128906 2.714844-1.386718 2.75-2.921874.261719-11.417969 16.664063-17.269532 16.824219-17.324219 1.351562-.46875 2.1875-1.824219 1.992188-3.242188-.199219-1.417969-1.367188-2.503906-2.796876-2.589843zm-19.167968 13.589843c-1.847656-3.769531-4.679688-7.894531-8.894532-10.558593 3.710938-2.082032 7.394532-5.257813 9.742188-9.832032 2.117188 3.746094 5.308594 7.90625 9.882812 10.445313-3.699218 2.203125-7.980468 5.480469-10.730468 9.945312zm0 0" fill="#3a312a"/><path d="m370.726562 123.191406c-7.050781-26.132812-30.753906-44.285156-57.816406-44.285156h-172.929687c-27.066407 0-50.769531 18.15625-57.816407 44.285156l-15.429687 57.164063-8.0625 29.886719-39.320313 145.699218h414.183594zm0 0" fill="#d7e057"/><g fill="#3a312a"><path d="m436.429688 355.160156-62.808594-232.75c-7.386719-27.382812-32.355469-46.503906-60.710938-46.503906h-172.929687c-28.359375 0-53.324219 19.125-60.714844 46.503906l-15.425781 57.164063c-.429688 1.601562.515625 3.246093 2.117187 3.679687 1.59375.421875 3.246094-.515625 3.675781-2.117187l15.425782-57.164063c6.6875-24.769531 29.269531-42.066406 54.925781-42.066406h172.925781c25.65625 0 48.238282 17.296875 54.921875 42.066406l61.789063 228.96875h-406.351563l38.296875-141.921875c.433594-1.597656-.515625-3.246093-2.117187-3.675781-1.597657-.429688-3.246094.511719-3.675781 2.113281l-39.316407 145.703125c-.242187.902344-.050781 1.863282.515625 2.605469s1.449219 1.175781 2.378906 1.175781h414.183594c.933594 0 1.8125-.433594 2.378906-1.175781.570313-.742187.757813-1.703125.515626-2.605469zm0 0"/><path d="m359.277344 355.441406-7.003906-41.394531c-.273438-1.632813-1.839844-2.734375-3.457032-2.457031-1.632812.273437-2.734375 1.824218-2.457031 3.457031l6.410156 37.890625h-252.652343l45.867187-271.03125h160.917969l34.121094 201.636719c-.078126.269531-.121094.550781-.121094.84375 0 1.65625 1.300781 3 2.957031 3 .0625.003906.253906.011719.320313.011719.910156-.027344 1.734374-.375 2.3125-1.050782.574218-.675781.824218-1.574218.675781-2.449218l-34.773438-205.492188c-.242187-1.445312-1.492187-2.5-2.957031-2.5h-165.988281c-1.460938 0-2.710938 1.054688-2.957031 2.5l-46.882813 277.035156c-.148437.871094.09375 1.761719.664063 2.4375.570312.675782 1.410156 1.0625 2.292968 1.0625h259.757813c.878906 0 1.71875-.386718 2.289062-1.0625.570313-.675781.8125-1.566406.664063-2.4375zm0 0"/><path d="m257.265625 78.738281c-.09375-1.589843-1.40625-2.832031-2.996094-2.832031h-55.652343c-1.589844 0-2.902344 1.242188-2.996094 2.832031l-15.714844 277.035157c-.046875.824218.246094 1.628906.8125 2.230468.566406.597656 1.359375.9375 2.183594.9375h87.089844c.824218 0 1.613281-.339844 2.179687-.9375.566406-.601562.859375-1.40625.816406-2.230468zm-71.191406 274.203125 15.375-271.035156h49.984375l15.375 271.035156zm0 0"/></g><path d="m263.882812 41.46875c0 20.675781-16.761718 37.4375-37.4375 37.4375-20.679687 0-37.441406-16.761719-37.441406-37.4375 0-20.679688 16.761719-37.441406 37.441406-37.441406 20.675782 0 37.4375 16.761718 37.4375 37.441406zm0 0" fill="#f16c7a"/><path d="m226.445312 1.023438c-22.296874 0-40.441406 18.144531-40.441406 40.441406s18.140625 40.441406 40.441406 40.441406c22.300782 0 40.4375-18.144531 40.4375-40.441406s-18.140624-40.441406-40.4375-40.441406zm0 74.882812c-18.992187 0-34.441406-15.449219-34.441406-34.4375 0-18.992188 15.449219-34.441406 34.441406-34.441406 18.988282 0 34.4375 15.449218 34.4375 34.441406 0 18.988281-15.449218 34.4375-34.4375 34.4375zm0 0" fill="#3a312a"/><path d="m367.824219 123.96875c-6.679688-24.742188-29.21875-42.023438-54.839844-42.0625l1.378906 8.179688c12.261719 7.402343 21.660157 19.359374 25.582031 33.882812l61.777344 228.976562h27.902344zm0 0" fill="#b9c239"/><path d="m306.90625 81.90625h-21.800781c7.960937.019531 15.617187 1.699219 22.597656 4.742188zm0 0" fill="#b9c239"/><path d="m417.363281 358.945312c-1.578125 35.761719-31.160156 64.382813-67.320312 64.382813h28.902343c36.140626 0 65.738282-28.621094 67.320313-64.382813zm0 0" fill="#decaad"/></svg>