<svg height="450pt" viewBox="0 0 450 450.91" width="450pt" xmlns="http://www.w3.org/2000/svg"><path d="m420.75 375.121094c-1.945312 23.125-26.050781 26.777344-26.050781 26.777344 20.695312.976562 25.851562 28.121093 25.851562 28.121093.441407-19.355469 26.640625-28.40625 26.640625-28.40625-19.625-1.175781-26.441406-26.492187-26.441406-26.492187zm0 0" fill="#d7e057"/><path d="m447.371094 398.617188c-17.207032-1.027344-23.660156-24.046876-23.722656-24.28125-.382813-1.402344-1.710938-2.328126-3.167969-2.203126-1.453125.132813-2.597657 1.28125-2.71875 2.734376-1.71875 20.429687-22.625 23.925781-23.507813 24.0625-1.527344.230468-2.628906 1.582031-2.546875 3.121093.078125 1.542969 1.3125 2.769531 2.855469 2.839844 18.054688.851563 23 25.4375 23.042969 25.6875.277343 1.425781 1.523437 2.4375 2.949219 2.4375.082031 0 .167968-.003906.25-.011719 1.53125-.128906 2.714843-1.386718 2.75-2.917968.386718-17.019532 24.378906-25.554688 24.625-25.640626 1.351562-.46875 2.183593-1.828124 1.988281-3.242187-.199219-1.417969-1.367188-2.5-2.796875-2.585937zm-27.128906 20.691406c-2.714844-6.261719-7.417969-13.816406-15.171876-17.753906 5.859376-2.808594 12.816407-7.824219 16.402344-16.542969 3.101563 6.140625 8.398438 13.761719 16.667969 17.445312-6.015625 3.277344-13.84375 8.808594-17.898437 16.851563zm0 0" fill="#3a312a"/><path d="m377.351562 409.078125c-1.375 16.359375-18.425781 18.945313-18.425781 18.945313 14.636719.6875 18.285157 19.886718 18.285157 19.886718.3125-13.6875 18.84375-20.089844 18.84375-20.089844-13.878907-.832031-18.703126-18.742187-18.703126-18.742187zm0 0" fill="#d7e057"/><path d="m396.238281 424.824219c-11.535156-.6875-15.945312-16.371094-15.988281-16.527344-.378906-1.40625-1.726562-2.335937-3.164062-2.203125-1.449219.128906-2.597657 1.285156-2.722657 2.734375-1.15625 13.738281-15.289062 16.128906-15.882812 16.222656-1.527344.234375-2.625 1.582031-2.546875 3.125.082031 1.539063 1.316406 2.769531 2.855468 2.839844 12.070313.570313 15.449219 17.289063 15.480469 17.453125.269531 1.425781 1.515625 2.441406 2.945313 2.441406.082031 0 .167968-.003906.25-.011718 1.53125-.125 2.714844-1.382813 2.753906-2.921876.257812-11.414062 16.660156-17.265624 16.820312-17.320312 1.355469-.46875 2.1875-1.828125 1.992188-3.246094-.195312-1.417968-1.367188-2.503906-2.792969-2.585937zm-19.171875 13.589843c-1.847656-3.773437-4.679687-7.894531-8.894531-10.558593 3.710937-2.082031 7.394531-5.261719 9.742187-9.832031 2.113282 3.746093 5.308594 7.910156 9.882813 10.445312-3.699219 2.203125-7.976563 5.480469-10.730469 9.945312zm0 0" fill="#3a312a"/><path d="m377.351562 355.765625c-1.375 16.359375-18.425781 18.941406-18.425781 18.941406 14.636719.6875 18.285157 19.886719 18.285157 19.886719.3125-13.6875 18.84375-20.089844 18.84375-20.089844-13.878907-.832031-18.703126-18.738281-18.703126-18.738281zm0 0" fill="#d7e057"/><path d="m396.238281 371.511719c-11.535156-.695313-15.945312-16.375-15.988281-16.535157-.378906-1.402343-1.726562-2.332031-3.164062-2.203124-1.449219.128906-2.597657 1.285156-2.722657 2.738281-1.15625 13.742187-15.289062 16.128906-15.882812 16.222656-1.527344.234375-2.625 1.582031-2.546875 3.125.082031 1.539063 1.316406 2.769531 2.855468 2.839844 12.070313.570312 15.449219 17.289062 15.480469 17.453125.269531 1.425781 1.515625 2.441406 2.945313 2.441406.082031 0 .167968-.003906.25-.007812 1.53125-.128907 2.714844-1.386719 2.753906-2.925782.257812-11.417968 16.660156-17.265625 16.820312-17.320312 1.355469-.464844 2.1875-1.824219 1.992188-3.242188-.195312-1.417968-1.367188-2.5-2.792969-2.585937zm-19.171875 13.585937c-1.847656-3.769531-4.679687-7.894531-8.894531-10.558594 3.710937-2.082031 7.394531-5.257812 9.742187-9.832031 2.113282 3.746094 5.308594 7.910157 9.882813 10.449219-3.699219 2.199219-7.976563 5.476562-10.730469 9.941406zm0 0" fill="#3a312a"/><path d="m97.90625 70.871094 27.574219 348.699218c1.265625 16 14.617187 28.335938 30.667969 28.335938h141.910156c16.050781 0 29.40625-12.335938 30.671875-28.335938l27.574219-348.699218zm0 0" fill="#fce8cb"/><path d="m358.503906 68.839844c-.566406-.617188-1.367187-.964844-2.203125-.964844h-128.652343c-1.660157 0-3 1.34375-3 3s1.339843 3 3 3h125.40625l-27.316407 345.460938c-1.136719 14.339843-13.292969 25.570312-27.679687 25.570312h-141.910156c-14.386719 0-26.542969-11.230469-27.679688-25.570312l-27.316406-345.460938h96.40625c1.660156 0 3-1.34375 3-3s-1.339844-3-3-3h-99.652344c-.835938 0-1.636719.347656-2.203125.964844-.566406.613281-.855469 1.4375-.789063 2.269531l27.574219 348.699219c1.378907 17.4375 16.167969 31.101562 33.660157 31.101562h141.910156c17.496094 0 32.28125-13.664062 33.660156-31.101562l27.570312-348.699219c.070313-.832031-.214843-1.65625-.785156-2.269531zm0 0" fill="#3a312a"/><path d="m102.59375 130.179688 22.886719 289.390624c1.265625 16 14.617187 28.339844 30.667969 28.339844h141.910156c16.050781 0 29.40625-12.339844 30.667968-28.339844l22.882813-289.390624zm0 0" fill="#d7e057"/><path d="m353.816406 128.144531c-.570312-.617187-1.371094-.964843-2.203125-.964843h-179.152343c-1.660157 0-3 1.34375-3 3s1.339843 3 3 3h175.90625l-22.628907 286.15625c-1.132812 14.339843-13.292969 25.574218-27.679687 25.574218h-141.910156c-14.386719 0-26.542969-11.234375-27.679688-25.574218l-22.628906-286.15625h37.246094c1.65625 0 3-1.34375 3-3s-1.34375-3-3-3h-40.492188c-.835938 0-1.632812.347656-2.203125.960937-.566406.617187-.855469 1.4375-.789063 2.273437l22.886719 289.390626c1.375 17.441406 16.164063 31.101562 33.660157 31.101562h141.90625c17.496093 0 32.28125-13.660156 33.660156-31.101562l22.886718-289.390626c.066407-.835937-.21875-1.65625-.785156-2.269531zm0 0" fill="#3a312a"/><path d="m81.644531 3.351562c-39.101562-3.886718-73.953125 24.660157-77.839843 63.761719-3.8867192 39.101563 24.664062 73.953125 63.765624 77.839844 39.105469 3.886719 73.957032-24.664063 77.839844-63.765625 3.886719-39.101562-24.660156-73.953125-63.765625-77.835938zm0 0" fill="#fce8cb"/><path d="m74.605469 0c-40.882813 0-74.152344 33.265625-74.152344 74.148438 0 40.886718 33.265625 74.152343 74.152344 74.152343s74.152343-33.265625 74.152343-74.152343c0-40.886719-33.265624-74.148438-74.152343-74.148438zm0 142.300781c-37.578125 0-68.152344-30.574219-68.152344-68.152343 0-37.578126 30.574219-68.148438 68.152344-68.148438 37.582031 0 68.152343 30.570312 68.152343 68.148438 0 37.578124-30.574218 68.152343-68.152343 68.152343zm0 0" fill="#3a312a"/><path d="m124.121094 72.386719c-.972656-27.34375-23.929688-48.722657-51.273438-47.746094-27.34375.972656-48.71875 23.929687-47.746094 51.273437.972657 27.347657 23.929688 48.722657 51.273438 47.75 27.34375-.972656 48.722656-23.929687 47.746094-51.277343zm0 0" fill="#d7e057"/><g fill="#3a312a"><path d="m74.605469 21.609375c-28.96875 0-52.539063 23.570313-52.539063 52.539063 0 28.972656 23.570313 52.542968 52.539063 52.542968 28.972656 0 52.542969-23.570312 52.542969-52.542968 0-28.96875-23.570313-52.539063-52.542969-52.539063zm0 99.082031c-25.660157 0-46.539063-20.878906-46.539063-46.542968 0-25.664063 20.878906-46.542969 46.539063-46.542969 25.664062 0 46.542969 20.878906 46.542969 46.542969 0 25.664062-20.878907 46.542968-46.542969 46.542968zm0 0"/><path d="m74.605469 21.609375c-1.65625 0-3 1.34375-3 3v99.082031c0 1.65625 1.34375 3 3 3 1.660156 0 3-1.34375 3-3v-99.082031c0-1.65625-1.34375-3-3-3zm0 0"/><path d="m124.148438 71.148438h-99.082032c-1.660156 0-3 1.34375-3 3s1.339844 3 3 3h99.082032c1.65625 0 3-1.34375 3-3s-1.34375-3-3-3zm0 0"/><path d="m111.757812 36.996094c-1.171874-1.171875-3.070312-1.171875-4.242187 0l-70.0625 70.0625c-1.171875 1.171875-1.171875 3.070312 0 4.242187.585937.585938 1.355469.878907 2.121094.878907.769531 0 1.535156-.292969 2.121093-.878907l70.0625-70.0625c1.171876-1.167969 1.171876-3.066406 0-4.242187zm0 0"/><path d="m111.757812 107.058594-70.0625-70.058594c-1.171874-1.171875-3.070312-1.171875-4.242187 0s-1.171875 3.070312 0 4.242188l70.0625 70.058593c.585937.585938 1.351563.878907 2.121094.878907s1.535156-.292969 2.121093-.878907c1.171876-1.171875 1.171876-3.070312 0-4.242187zm0 0"/></g><path d="m314.484375 2.996094-47.921875 127.183594h41.660156l47.921875-127.183594zm0 0" fill="#8ac6dd"/><path d="m358.609375 1.292969c-.558594-.8125-1.480469-1.292969-2.464844-1.292969h-41.660156c-1.246094 0-2.367187.773438-2.804687 1.941406l-47.921876 127.179688c-.347656.921875-.21875 1.957031.339844 2.765625.5625.8125 1.484375 1.292969 2.46875 1.292969h41.660156c1.246094 0 2.367188-.773438 2.804688-1.941407l47.917969-127.179687c.347656-.921875.222656-1.957032-.339844-2.765625zm-52.460937 125.886719h-35.25l45.660156-121.183594h35.25zm0 0" fill="#3a312a"/><path d="m330.9375 67.875h-42.027344c-1.65625 0-3 1.34375-3 3s1.34375 3 3 3h42.027344c1.65625 0 3-1.34375 3-3s-1.34375-3-3-3zm0 0" fill="#3a312a"/><path d="m332.644531 73.871094-20.085937 53.308594h36.28125l4.214844-53.308594zm0 0" fill="#decaad"/><path d="m312.0625 133.179688-22.621094 286.160156c-1.136718 14.339844-13.296875 25.578125-27.679687 25.578125h36.300781c14.378906 0 26.539062-11.238281 27.679688-25.578125l22.621093-286.160156zm0 0" fill="#b9c239"/></svg>