<svg height="451pt" viewBox="-46 0 451 451.75988" width="451pt" xmlns="http://www.w3.org/2000/svg"><path d="m65.199219 22.351562c-1.945313 23.128907-26.050781 26.777344-26.050781 26.777344 20.695312.976563 25.851562 28.117188 25.851562 28.117188.441406-19.351563 26.640625-28.402344 26.640625-28.402344-19.625-1.175781-26.441406-26.492188-26.441406-26.492188zm0 0" fill="#d7e057"/><path d="m91.824219 45.851562c-17.207031-1.03125-23.664063-24.050781-23.726563-24.285156-.382812-1.402344-1.6875-2.316406-3.167968-2.199218-1.449219.128906-2.59375 1.28125-2.71875 2.734374-1.71875 20.429688-22.625 23.925782-23.507813 24.0625-1.527344.230469-2.628906 1.582032-2.546875 3.125.078125 1.539063 1.3125 2.765626 2.855469 2.839844 18.054687.851563 22.996093 25.4375 23.042969 25.683594.273437 1.421875 1.519531 2.433594 2.945312 2.433594.085938 0 .167969 0 .253906-.007813 1.527344-.128906 2.710938-1.386719 2.75-2.917969.382813-17.015624 24.378906-25.554687 24.621094-25.636718 1.351562-.472656 2.183594-1.828125 1.988281-3.246094-.195312-1.417969-1.363281-2.5-2.789062-2.585938zm-27.132813 20.691407c-2.714844-6.261719-7.417968-13.816407-15.171875-17.753907 5.859375-2.808593 12.816407-7.824218 16.402344-16.546874 3.101563 6.144531 8.398437 13.761718 16.667969 17.445312-6.015625 3.28125-13.847656 8.808594-17.898438 16.855469zm0 0" fill="#3a312a"/><path d="m21.800781 56.3125c-1.375 16.355469-18.421875 18.941406-18.421875 18.941406 14.636719.6875 18.28125 19.886719 18.28125 19.886719.3125-13.6875 18.847656-20.089844 18.847656-20.089844-13.882812-.828125-18.707031-18.738281-18.707031-18.738281zm0 0" fill="#d7e057"/><path d="m40.6875 72.054688c-11.535156-.6875-15.949219-16.367188-15.992188-16.527344-.378906-1.402344-1.734374-2.320313-3.160156-2.203125-1.453125.132812-2.601562 1.285156-2.722656 2.734375-1.15625 13.742187-15.292969 16.132812-15.882812 16.226562-1.527344.230469-2.625 1.582032-2.546876 3.121094.082032 1.539062 1.316407 2.769531 2.855469 2.839844 12.070313.570312 15.449219 17.289062 15.476563 17.453125.273437 1.425781 1.519531 2.441406 2.945312 2.441406.082032 0 .167969-.003906.25-.011719 1.53125-.125 2.71875-1.386718 2.753906-2.921875.261719-11.417969 16.664063-17.265625 16.824219-17.324219 1.355469-.46875 2.1875-1.824218 1.992188-3.242187-.195313-1.414063-1.367188-2.5-2.792969-2.585937zm-19.171875 13.589843c-1.847656-3.769531-4.679687-7.894531-8.894531-10.558593 3.710937-2.082032 7.394531-5.257813 9.742187-9.832032 2.113281 3.746094 5.308594 7.910156 9.878907 10.449219-3.695313 2.199219-7.972657 5.480469-10.726563 9.941406zm0 0" fill="#3a312a"/><path d="m21.800781 2.996094c-1.375 16.363281-18.421875 18.945312-18.421875 18.945312 14.636719.6875 18.28125 19.886719 18.28125 19.886719.3125-13.6875 18.847656-20.089844 18.847656-20.089844-13.882812-.832031-18.707031-18.742187-18.707031-18.742187zm0 0" fill="#d7e057"/><path d="m40.6875 18.742188c-11.535156-.691407-15.949219-16.371094-15.992188-16.527344-.378906-1.40625-1.734374-2.320313-3.160156-2.2031252-1.453125.1289062-2.601562 1.2851562-2.722656 2.7343752-1.15625 13.742187-15.292969 16.132812-15.882812 16.226562-1.527344.230469-2.625 1.582032-2.546876 3.125.082032 1.539063 1.316407 2.765625 2.855469 2.839844 12.070313.570312 15.449219 17.289062 15.476563 17.453125.273437 1.425781 1.519531 2.4375 2.945312 2.4375.082032 0 .167969-.003906.25-.007813 1.53125-.125 2.71875-1.386718 2.753906-2.921874.261719-11.417969 16.664063-17.269532 16.824219-17.324219 1.355469-.46875 2.1875-1.828125 1.992188-3.246094-.195313-1.417969-1.367188-2.5-2.792969-2.585937zm-19.171875 13.589843c-1.847656-3.773437-4.679687-7.894531-8.894531-10.558593 3.710937-2.082032 7.394531-5.261719 9.742187-9.835938 2.113281 3.75 5.308594 7.910156 9.878907 10.449219-3.695313 2.199219-7.972657 5.480469-10.726563 9.945312zm0 0" fill="#3a312a"/><path d="m317.234375 283.0625c0-9.546875-3.957031-18.152344-10.332031-24.320312 8.285156-6.164063 13.667968-15.984376 13.667968-27.101563 0-12.144531-6.441406-22.773437-16.058593-28.757813 7.9375-6.1875 13.066406-15.828124 13.066406-26.664062 0-12.351562-6.644531-23.121094-16.515625-29.03125 5.109375-5.9375 8.214844-13.621094 8.214844-22.066406 0-14.882813-9.59375-27.46875-22.9375-32.023438 3.585937-5.359375 5.679687-11.800781 5.679687-18.75 0-17.738281-13.621093-32.253906-30.988281-33.703125.066406-.828125.136719-1.632812.136719-2.460937 0-18.707032-15.160157-33.867188-33.84375-33.867188-18.703125 0-33.863281 15.160156-33.863281 33.867188 0 .828125.066406 1.679687.136718 2.507812-17.046875 1.746094-30.320312 16.148438-30.320312 33.65625 0 6.949219 2.09375 13.390625 5.679687 18.75-13.34375 4.554688-22.9375 17.140625-22.9375 32.023438 0 8.445312 3.105469 16.128906 8.214844 22.066406-9.871094 5.910156-16.519531 16.679688-16.519531 29.03125 0 10.835938 5.132812 20.476562 13.070312 26.664062-9.617187 5.984376-16.058594 16.613282-16.058594 28.757813 0 11.113281 5.382813 20.9375 13.664063 27.101563-6.371094 6.167968-10.328125 14.773437-10.328125 24.320312 0 12.125 6.375 22.707031 15.945312 28.6875-4.164062 5.636719-6.671874 12.5625-6.671874 20.109375 0 14.007813 8.511718 26.019531 20.632812 31.171875-2.757812 4.902344-4.371094 10.5625-4.371094 16.609375 0 17.371094 13.089844 31.65625 29.933594 33.589844-.023438.414062-.070312.828125-.070312 1.242187 0 12.859375 7.15625 24.042969 17.738281 29.746094h.023437c4.789063 2.625 10.285156 4.097656 16.105469 4.097656 6.097656 0 11.800781-1.609375 16.746094-4.441406 10.21875-5.820312 17.097656-16.796875 17.097656-29.402344 0-.394531-.046875-.761718-.070313-1.152344 17.164063-1.65625 30.597657-16.101562 30.597657-33.679687 0-6.054687-1.609375-11.710937-4.371094-16.609375 12.125-5.152344 20.636719-17.164062 20.636719-31.175781 0-7.546875-2.507813-14.46875-6.671875-20.109375 9.570312-5.976563 15.941406-16.558594 15.941406-28.683594zm0 0" fill="#d7e057"/><path d="m320.234375 283.0625c0-8.929688-3.148437-17.347656-8.933594-24.03125 7.835938-6.984375 12.269531-16.792969 12.269531-27.386719 0-11.460937-5.234374-22.042969-14.191406-29.015625 7.160156-6.921875 11.199219-16.34375 11.199219-26.40625 0-11.917968-5.605469-22.808594-15.152344-29.746094 4.4375-6.226562 6.851563-13.691406 6.851563-21.355468 0-14.519532-8.527344-27.5625-21.554688-33.503906 2.820313-5.292969 4.300782-11.195313 4.300782-17.269532 0-18.019531-13.335938-33.449218-30.855469-36.335937-.09375-20.25-16.582031-36.695313-36.84375-36.695313-20.296875 0-36.820313 16.496094-36.863281 36.789063-17.394532 3.140625-30.183594 18.246093-30.183594 36.242187 0 6.070313 1.476562 11.972656 4.296875 17.269532-13.027344 5.941406-21.550781 18.984374-21.550781 33.503906 0 7.664062 2.410156 15.128906 6.847656 21.355468-9.546875 6.933594-15.15625 17.824219-15.15625 29.746094 0 10.0625 4.042968 19.484375 11.203125 26.40625-8.953125 6.972656-14.191407 17.554688-14.191407 29.015625 0 10.59375 4.429688 20.402344 12.269532 27.386719-5.785156 6.683594-8.933594 15.097656-8.933594 24.03125 0 11.726562 5.472656 22.535156 14.785156 29.480469-3.617187 5.835937-5.515625 12.453125-5.515625 19.316406 0 13.742187 7.585938 26.195313 19.570313 32.554687-2.167969 4.78125-3.304688 9.984376-3.304688 15.230469 0 17.796875 12.667969 32.882813 29.882813 36.15625.464843 13.035157 7.769531 24.847657 19.292969 31.0625.070312.035157.144531.074219.214843.105469 5.28125 2.84375 11.269531 4.347656 17.335938 4.347656 6.398437 0 12.707031-1.671875 18.234375-4.832031 11.050781-6.292969 18.070312-17.902344 18.578125-30.539063 17.605469-3.015624 30.558593-18.164062 30.558593-36.300781 0-5.242187-1.136718-10.449219-3.308593-15.230469 11.988281-6.359374 19.574219-18.8125 19.574219-32.554687 0-6.863281-1.898438-13.480469-5.515626-19.316406 9.316407-6.945313 14.789063-17.753907 14.789063-29.480469zm-20.53125 26.144531c-.710937.445313-1.203125 1.164063-1.359375 1.984375-.15625.824219.035156 1.671875.535156 2.34375 3.980469 5.386719 6.082032 11.722656 6.082032 18.324219 0 12.40625-7.382813 23.554687-18.808594 28.414063-.785156.335937-1.390625.988281-1.667969 1.792968-.273437.808594-.191406 1.699219.226563 2.441406 2.609374 4.625 3.988281 9.859376 3.988281 15.136719 0 15.964844-11.988281 29.160157-27.890625 30.695313-1.605469.15625-2.800782 1.554687-2.703125 3.167968l.03125.441407c.015625.171875.035156.347656.035156.527343 0 11.054688-5.96875 21.320313-15.582031 26.796876-9.066406 5.1875-20.839844 5.292968-29.921875.316406-.078125-.039063-.15625-.078125-.234375-.113282-9.859375-5.40625-15.96875-15.730468-15.96875-27.003906 0-.199218.015625-.402344.03125-.601562l.035156-.46875c.089844-1.589844-1.074219-2.96875-2.652344-3.152344-15.550781-1.785156-27.273437-14.941406-27.273437-30.609375 0-5.277344 1.375-10.511719 3.984375-15.132813.417968-.746093.5-1.632812.222656-2.441406-.273438-.808594-.878906-1.460937-1.664062-1.792968-11.429688-4.859376-18.808594-16.011719-18.808594-28.414063 0-6.601563 2.101562-12.9375 6.085937-18.328125.496094-.671875.6875-1.519531.53125-2.339844-.15625-.824218-.648437-1.542968-1.355469-1.984375-9.101562-5.6875-14.535156-15.460937-14.535156-26.144531 0-8.417969 3.34375-16.289062 9.414063-22.164062.632812-.609376.964843-1.46875.910156-2.347657-.054687-.878906-.496094-1.6875-1.203125-2.214843-7.917969-5.890626-12.457031-14.890626-12.457031-24.695313 0-10.707031 5.472656-20.503906 14.640625-26.207031.835937-.519532 1.359375-1.410156 1.414062-2.390625.050782-.980469-.378906-1.921875-1.152344-2.523438-7.570312-5.902343-11.914062-14.757812-11.914062-24.300781 0-10.917969 5.632812-20.8125 15.0625-26.457031.757812-.457031 1.277344-1.222657 1.417969-2.097657.144531-.871093-.109375-1.761718-.6875-2.433593-4.828125-5.609375-7.484375-12.753907-7.484375-20.109375 0-13.1875 8.398437-24.914063 20.902344-29.183594.882812-.300781 1.574218-.996094 1.875-1.878906.296874-.878906.167968-1.851563-.347657-2.628906-3.386719-5.058594-5.175781-10.964844-5.175781-17.082032 0-15.871094 11.875-29.058594 27.625-30.671875 1.625-.167969 2.820312-1.605469 2.6875-3.234375-.0625-.746094-.128906-1.511718-.128906-2.257812 0-17.023438 13.84375-30.867188 30.863281-30.867188 17.007813 0 30.84375 13.84375 30.84375 30.867188 0 .722656-.0625 1.425781-.128906 2.210937-.136719 1.652344 1.089843 3.097657 2.742187 3.238281 15.835938 1.320313 28.238282 14.8125 28.238282 30.714844 0 6.117188-1.789063 12.023438-5.175782 17.082032-.519531.773437-.648437 1.746093-.351562 2.628906.300781.882812.992187 1.578125 1.875 1.878906 12.503906 4.265625 20.90625 15.996094 20.90625 29.183594 0 7.355468-2.660156 14.496094-7.488282 20.105468-.578124.671876-.828124 1.5625-.6875 2.4375.140626.875.660157 1.640626 1.421876 2.09375 9.429687 5.648438 15.054687 15.542969 15.054687 26.460938 0 9.539062-4.339844 18.394531-11.910156 24.296875-.773438.601563-1.203125 1.546875-1.148438 2.523437.050781.980469.578125 1.871094 1.410157 2.390626 9.167968 5.703124 14.640624 15.503906 14.640624 26.210937 0 9.800781-4.539062 18.800781-12.457031 24.695313-.707031.527343-1.144531 1.332031-1.203125 2.210937-.054687.878906.277344 1.738281.90625 2.351563 6.074219 5.875 9.417969 13.746093 9.417969 22.160156 0 10.6875-5.433594 20.460937-14.53125 26.148437zm0 0" fill="#3a312a"/><path d="m234.414062 84.753906 39.703126-14.238281 24.003906 66.953125-39.703125 14.234375zm0 0" fill="#87796f"/><path d="m300.953125 136.460938-24.003906-66.953126c-.269531-.75-.824219-1.359374-1.542969-1.699218-.714844-.339844-1.539062-.378906-2.289062-.113282l-39.707032 14.238282c-1.558594.558594-2.371094 2.277344-1.8125 3.835937l24.003906 66.953125c.269532.75.824219 1.359375 1.542969 1.699219.402344.191406.839844.285156 1.28125.285156.34375 0 .683594-.058593 1.011719-.175781l39.703125-14.234375c1.5625-.558594 2.371094-2.277344 1.8125-3.835937zm-40.71875 11.410156-21.976563-61.304688 34.058594-12.207031 21.976563 61.300781zm0 0" fill="#3a312a"/><path d="m104.300781 92.308594 40.398438-12.144532 20.476562 68.117188-40.398437 12.144531zm0 0" fill="#87796f"/><path d="m168.03125 147.425781-20.472656-68.117187c-.472656-1.585938-2.160156-2.488282-3.734375-2.007813l-40.394531 12.140625c-.761719.226563-1.402344.75-1.78125 1.449219-.375.703125-.457032 1.523437-.226563 2.285156l20.46875 68.117188c.390625 1.300781 1.582031 2.140625 2.875 2.140625.285156 0 .578125-.042969.863281-.128906l40.394532-12.140626c.761718-.230468 1.402343-.753906 1.78125-1.453124.375-.699219.457031-1.523438.226562-2.285157zm-41.257812 9.269531-18.746094-62.371093 34.648437-10.414063 18.746094 62.371094zm0 0" fill="#3a312a"/><path d="m179.640625 173.554688c0 19.414062-15.738281 35.152343-35.152344 35.152343-19.410156 0-35.148437-15.738281-35.148437-35.152343 0-19.410157 15.738281-35.148438 35.148437-35.148438 19.414063 0 35.152344 15.738281 35.152344 35.148438zm0 0" fill="#f16c7a"/><path d="m144.488281 135.40625c-21.035156 0-38.144531 17.113281-38.144531 38.148438 0 21.039062 17.113281 38.152343 38.144531 38.152343 21.039063 0 38.152344-17.113281 38.152344-38.152343 0-21.035157-17.113281-38.148438-38.152344-38.148438zm0 70.300781c-17.722656 0-32.144531-14.421875-32.144531-32.152343 0-17.726563 14.421875-32.148438 32.144531-32.148438 17.730469 0 32.152344 14.421875 32.152344 32.148438 0 17.730468-14.421875 32.152343-32.152344 32.152343zm0 0" fill="#3a312a"/><path d="m236.347656 190.339844c-17.933594-7.429688-38.496094 1.089844-45.925781 19.023437-7.429687 17.9375 1.085937 38.5 19.023437 45.929688 17.933594 7.429687 38.496094-1.089844 45.925782-19.023438 7.429687-17.9375-1.085938-38.5-19.023438-45.929687zm0 0" fill="#f16c7a"/><path d="m222.886719 184.667969c-21.035157 0-38.148438 17.117187-38.148438 38.152343 0 21.035157 17.113281 38.148438 38.148438 38.148438 21.039062 0 38.148437-17.113281 38.148437-38.148438 0-21.039062-17.113281-38.152343-38.148437-38.152343zm0 70.296875c-17.726563 0-32.148438-14.421875-32.148438-32.148438 0-17.726562 14.421875-32.148437 32.148438-32.148437 17.726562 0 32.148437 14.421875 32.148437 32.148437 0 17.726563-14.421875 32.148438-32.148437 32.148438zm0 0" fill="#3a312a"/><path d="m214.871094 48.269531c-19.410156 0-35.148438 15.734375-35.148438 35.144531 0 19.414063 15.738282 35.152344 35.148438 35.152344 19.414062 0 35.152344-15.738281 35.152344-35.152344 0-19.410156-15.738282-35.144531-35.152344-35.144531zm0 0" fill="#f16c7a"/><path d="m214.875 45.269531c-21.039062 0-38.152344 17.113281-38.152344 38.148438 0 21.035156 17.117188 38.148437 38.152344 38.148437s38.148438-17.113281 38.148438-38.148437c0-21.039063-17.113282-38.148438-38.148438-38.148438zm0 70.296875c-17.730469 0-32.152344-14.421875-32.152344-32.152344 0-17.726562 14.421875-32.148437 32.152344-32.148437 17.726562 0 32.148438 14.421875 32.148438 32.148437 0 17.730469-14.421876 32.152344-32.148438 32.152344zm0 0" fill="#3a312a"/><path d="m236.351562 152.519531c0 19.414063-15.738281 35.148438-35.152343 35.148438-19.410157 0-35.148438-15.734375-35.148438-35.148438 0-19.414062 15.738281-35.148437 35.148438-35.148437 19.414062 0 35.152343 15.734375 35.152343 35.148437zm0 0" fill="#fce8cb"/><path d="m201.199219 114.371094c-21.035157 0-38.148438 17.113281-38.148438 38.148437 0 21.035157 17.117188 38.148438 38.148438 38.148438 21.035156 0 38.148437-17.113281 38.148437-38.148438 0-21.035156-17.113281-38.148437-38.148437-38.148437zm0 70.296875c-17.726563 0-32.148438-14.421875-32.148438-32.148438 0-17.726562 14.421875-32.148437 32.148438-32.148437 17.726562 0 32.148437 14.421875 32.148437 32.148437 0 17.726563-14.421875 32.148438-32.148437 32.148438zm0 0" fill="#3a312a"/><path d="m223.703125 194.917969 32.375-27.039063 45.597656 54.585938-32.371093 27.042968zm0 0" fill="#87796f"/><path d="m303.964844 220.554688-45.597656-54.585938c-1.0625-1.273438-2.949219-1.445312-4.226563-.382812l-32.371094 27.042968c-.609375.507813-.992187 1.242188-1.0625 2.03125-.070312.792969.175781 1.582032.683594 2.195313l45.597656 54.585937c.59375.710938 1.445313 1.078125 2.304688 1.078125.675781 0 1.359375-.226562 1.921875-.699219l32.375-27.039062c.609375-.507812.988281-1.242188 1.0625-2.035156.066406-.789063-.179688-1.578125-.6875-2.191406zm-34.296875 24.738281-41.75-49.984375 27.769531-23.191406 41.746094 49.984374zm0 0" fill="#3a312a"/><path d="m164.003906 231 13.394532-69.851562 41.425781 7.941406-13.394531 69.855468zm0 0" fill="#87796f"/><path d="m219.386719 166.136719-41.425781-7.941407c-.785157-.152343-1.59375.015626-2.25.460938-.65625.449219-1.113282 1.136719-1.261719 1.917969l-13.390625 69.855469c-.3125 1.628906.753906 3.199218 2.382812 3.511718l41.421875 7.941406c.191407.035157.378907.054688.570313.054688 1.410156 0 2.667968-1 2.941406-2.4375l13.394531-69.855469c.308594-1.625-.757812-3.195312-2.382812-3.507812zm-16.339844 69.289062-35.53125-6.8125 12.261719-63.960937 35.53125 6.8125zm0 0" fill="#3a312a"/><path d="m97.683594 171.15625 7.511718 29.535156 7.671876 30.160156 48.078124 188.972657c4.328126 17.019531 19.652344 28.933593 37.210938 28.933593h36.265625v-140.859374c0-75.519532-61.222656-136.742188-136.738281-136.742188zm0 0" fill="#fce8cb"/><path d="m97.679688 168.15625c-.925782 0-1.800782.429688-2.371094 1.160156-.566406.730469-.765625 1.683594-.539063 2.582032l7.515625 29.535156c.40625 1.605468 2.039063 2.578125 3.648438 2.167968 1.605468-.410156 2.574218-2.042968 2.167968-3.648437l-6.550781-25.738281c71.960938 2.058594 129.871094 61.238281 129.871094 133.683594v137.863281h-33.265625c-16.203125 0-30.3125-10.96875-34.304688-26.671875l-48.078124-188.976563c-.40625-1.605469-2.042969-2.582031-3.648438-2.167969-1.605469.40625-2.574219 2.039063-2.167969 3.644532l48.078125 188.976562c4.671875 18.367188 21.171875 31.195313 40.121094 31.195313h36.265625c1.652344 0 3-1.34375 3-3v-140.863281c0-77.050782-62.6875-139.742188-139.742187-139.742188zm0 0" fill="#3a312a"/><path d="m337.359375 138.617188c-3.289063-8.496094-10.078125-15.289063-18.574219-18.574219-29.929687-11.582031-57.960937 16.449219-46.378906 46.375 3.289062 8.5 10.078125 15.292969 18.578125 18.578125 29.925781 11.582031 57.957031-16.449219 46.375-46.378906zm0 0" fill="#f16c7a"/><path d="m340.160156 137.535156c-3.597656-9.296875-10.992187-16.691406-20.292968-20.292968-14.972657-5.789063-31.050782-2.609376-41.960938 8.304687-10.910156 10.910156-14.089844 26.988281-8.296875 41.953125 3.597656 9.300781 10.992187 16.699219 20.289063 20.296875 4.949218 1.914063 10.011718 2.847656 14.972656 2.847656 10.054687-.003906 19.679687-3.839843 26.988281-11.148437 10.910156-10.914063 14.089844-26.988282 8.300781-41.960938zm-12.546875 37.71875c-9.207031 9.207032-22.828125 11.871094-35.550781 6.945313-7.722656-2.988281-13.871094-9.132813-16.859375-16.863281-4.921875-12.71875-2.261719-26.339844 6.945313-35.546876 6.152343-6.152343 14.273437-9.382812 22.78125-9.382812 4.222656 0 8.546874.800781 12.773437 2.433594 7.726563 2.988281 13.871094 9.136718 16.859375 16.863281 4.921875 12.71875 2.261719 26.34375-6.949219 35.550781zm0 0" fill="#3a312a"/><path d="m355.527344 171.15625c-75.519532 0-136.742188 61.222656-136.742188 136.742188v140.859374h36.261719c17.5625 0 32.886719-11.914062 37.214844-28.933593zm0 0" fill="#fce8cb"/><path d="m357.894531 169.316406c-.566406-.730468-1.441406-1.160156-2.367187-1.160156-77.054688 0-139.742188 62.691406-139.742188 139.742188v54.300781c0 1.660156 1.34375 3 3 3s3-1.339844 3-3v-54.300781c0-72.449219 57.910156-131.625 129.867188-133.683594l-62.292969 244.871094c-3.996094 15.703124-18.101563 26.671874-34.308594 26.671874h-33.261719v-52.535156c0-1.660156-1.34375-3-3-3s-3 1.339844-3 3v55.535156c0 1.65625 1.34375 3 3 3h36.261719c18.953125 0 35.453125-12.824218 40.125-31.191406l63.261719-248.667968c.222656-.898438.027344-1.851563-.542969-2.582032zm0 0" fill="#3a312a"/><path d="m325.902344 177.476562-61.476563 241.601563c-3.980469 15.71875-18.101562 26.679687-34.300781 26.679687h24.917969c16.222656 0 30.320312-10.960937 34.320312-26.679687l62.28125-244.859375c-8.820312.257812-17.421875 1.359375-25.742187 3.257812zm0 0" fill="#decaad"/></svg>