<svg height="454pt" viewBox="-1 0 454 454.44881" width="454pt" xmlns="http://www.w3.org/2000/svg"><path d="m3.242188 182.53125v76.898438c148.582031 122.660156 297.140624-122.660157 445.71875 0v-76.898438c-148.578126-122.660156-297.136719 122.660156-445.71875 0zm0 0" fill="#f16c7a"/><path d="m450.871094 180.21875c-75.679688-62.480469-152.050782-30.949219-225.914063-.460938-75.542969 31.183594-146.902343 60.640626-219.800781.460938-.898438-.738281-2.140625-.898438-3.191406-.402344-1.046875.496094-1.71875 1.550782-1.71875 2.714844v76.898438c0 .898437.398437 1.746093 1.089844 2.316406 31.980468 26.402344 64.082031 36.015625 96.070312 36.015625 43.703125-.003907 87.195312-17.953125 129.84375-35.558594 75.546875-31.183594 146.902344-60.640625 219.804688-.457031.894531.738281 2.136718.898437 3.1875.402344 1.050781-.496094 1.722656-1.554688 1.722656-2.714844v-76.902344c-.003906-.894531-.402344-1.746094-1.09375-2.3125zm-4.910156 72.976562c-74.074219-57.195312-148.738282-26.371093-221.003907 3.460938-75.167969 31.03125-146.191406 60.34375-218.710937 1.355469v-69.246094c74.074218 57.195313 148.738281 26.371094 221.003906-3.460937 75.167969-31.03125 146.195312-60.34375 218.710938-1.355469zm0 0" fill="#3a312a"/><path d="m3.242188 259.429688v76.902343c148.582031 122.660157 297.140624-122.660156 445.71875 0v-76.902343c-148.578126-122.660157-297.136719 122.660156-445.71875 0zm0 0" fill="#fce8cb"/><path d="m450.871094 257.117188c-75.679688-62.476563-152.050782-30.949219-225.914063-.460938-75.542969 31.1875-146.90625 60.644531-219.804687.460938-.894532-.738282-2.136719-.894532-3.1875-.398438-1.050782.492188-1.722656 1.550781-1.722656 2.710938v76.902343c0 .894531.398437 1.742188 1.089843 2.3125 31.984375 26.402344 64.085938 36.019531 96.074219 36.015625 43.703125 0 87.195312-17.953125 129.839844-35.554687 75.546875-31.1875 146.90625-60.644531 219.804687-.460938.898438.742188 2.140625.894531 3.1875.398438 1.050781-.492188 1.722657-1.550781 1.722657-2.710938v-76.902343c0-.894532-.398438-1.742188-1.089844-2.3125zm-4.910156 72.976562c-74.074219-57.195312-148.742188-26.367188-221.003907 3.464844-75.167969 31.03125-146.191406 60.34375-218.710937 1.351562v-69.242187c74.070312 57.191406 148.742187 26.367187 221.003906-3.464844 75.167969-31.027344 146.191406-60.347656 218.714844-1.351563v69.242188zm0 0" fill="#3a312a"/><path d="m3.242188 336.335938v79.777343c91.074218 75.1875 182.140624 12.121094 273.207031-19.71875l27.8125-8.570312c48.234375-12.5625 96.464843-11.53125 144.699219 28.289062v-79.78125c-148.578126-122.65625-297.136719 122.664063-445.71875.003907zm0 0" fill="#f16c7a"/><path d="m450.871094 334.023438c-75.679688-62.476563-152.050782-30.949219-225.914063-.460938-75.542969 31.1875-146.902343 60.640625-219.800781.460938-.898438-.738282-2.140625-.898438-3.191406-.402344-1.046875.496094-1.71875 1.554687-1.71875 2.714844v79.78125c0 .894531.398437 1.742187 1.089844 2.3125 31.984374 26.40625 64.085937 36.019531 96.074218 36.019531 43.707032-.003907 87.195313-17.953125 129.84375-35.554688 16.460938-6.796875 33.488282-13.824219 50.191406-19.664062 1.5625-.546875 2.386719-2.257813 1.839844-3.820313-.542968-1.566406-2.253906-2.390625-3.820312-1.84375-16.859375 5.894532-33.960938 12.953125-50.503906 19.78125-75.167969 31.027344-146.195313 60.339844-218.714844 1.347656v-72.121093c74.074218 57.195312 148.742187 26.367187 221.003906-3.464844 75.171875-31.027344 146.195312-60.339844 218.714844-1.351563v72.117188c-41.410156-32.078125-85.625-39.753906-142.453125-24.953125-1.605469.417969-2.566407 2.058594-2.148438 3.660156.417969 1.605469 2.058594 2.5625 3.660157 2.148438 57.03125-14.855469 100.832031-6.308594 142.03125 27.699219.898437.742187 2.140624.898437 3.1875.402343 1.050781-.496093 1.722656-1.554687 1.722656-2.714843v-79.78125c-.003906-.894532-.402344-1.742188-1.09375-2.3125zm0 0" fill="#3a312a"/><path d="m65.042969 22.355469c-1.945313 23.128906-26.046875 26.777343-26.046875 26.777343 20.691406.972657 25.847656 28.117188 25.847656 28.117188.441406-19.351562 26.644531-28.402344 26.644531-28.402344-19.628906-1.175781-26.445312-26.492187-26.445312-26.492187zm0 0" fill="#d7e057"/><path d="m91.667969 45.851562c-17.210938-1.027343-23.664063-24.046874-23.726563-24.28125-.382812-1.40625-1.730468-2.335937-3.167968-2.203124-1.449219.132812-2.59375 1.285156-2.71875 2.734374-1.71875 20.429688-22.625 23.925782-23.507813 24.0625-1.523437.230469-2.625 1.582032-2.542969 3.121094.078125 1.542969 1.3125 2.769532 2.855469 2.84375 18.054687.851563 22.996094 25.4375 23.042969 25.6875.273437 1.421875 1.519531 2.433594 2.945312 2.433594.082032 0 .167969-.003906.25-.011719 1.527344-.128906 2.714844-1.386719 2.75-2.917969.390625-17.015624 24.382813-25.554687 24.625-25.636718 1.351563-.472656 2.183594-1.832032 1.988282-3.246094-.199219-1.417969-1.367188-2.5-2.792969-2.585938zm-27.132813 20.691407c-2.710937-6.261719-7.417968-13.8125-15.171875-17.753907 5.859375-2.804687 12.816407-7.824218 16.402344-16.542968 3.101563 6.144531 8.402344 13.761718 16.667969 17.445312-6.015625 3.28125-13.84375 8.808594-17.898438 16.851563zm0 0" fill="#3a312a"/><path d="m21.648438 56.316406c-1.378907 16.355469-18.425782 18.941406-18.425782 18.941406 14.636719.6875 18.285156 19.886719 18.285156 19.886719.3125-13.6875 18.84375-20.089843 18.84375-20.089843-13.882812-.832032-18.703124-18.738282-18.703124-18.738282zm0 0" fill="#d7e057"/><path d="m40.53125 72.058594c-11.53125-.691406-15.945312-16.371094-15.988281-16.527344-.378907-1.40625-1.707031-2.339844-3.164063-2.203125-1.453125.128906-2.597656 1.28125-2.71875 2.734375-1.160156 13.742188-15.292968 16.132812-15.886718 16.226562-1.523438.230469-2.625 1.578126-2.546876 3.121094.082032 1.539063 1.316407 2.769532 2.855469 2.84375 12.074219.566406 15.449219 17.285156 15.476563 17.449219.273437 1.425781 1.519531 2.441406 2.945312 2.441406.085938 0 .167969 0 .25-.007812 1.53125-.128907 2.714844-1.390625 2.753906-2.925781.257813-11.417969 16.664063-17.265626 16.824219-17.320313 1.355469-.46875 2.1875-1.828125 1.992188-3.246094-.195313-1.417969-1.363281-2.5-2.792969-2.585937zm-19.171875 13.589844c-1.847656-3.773438-4.679687-7.894532-8.894531-10.558594 3.710937-2.082032 7.394531-5.257813 9.742187-9.832032 2.117188 3.746094 5.308594 7.910157 9.882813 10.445313-3.699219 2.203125-7.976563 5.480469-10.730469 9.945313zm0 0" fill="#3a312a"/><path d="m21.648438 3c-1.378907 16.359375-18.425782 18.941406-18.425782 18.941406 14.636719.6875 18.285156 19.890625 18.285156 19.890625.3125-13.691406 18.84375-20.089843 18.84375-20.089843-13.882812-.832032-18.703124-18.742188-18.703124-18.742188zm0 0" fill="#d7e057"/><path d="m40.53125 18.746094c-11.535156-.691406-15.945312-16.375-15.988281-16.53125-.378907-1.402344-1.707031-2.324219-3.164063-2.2031252-1.453125.1289062-2.597656 1.2812502-2.71875 2.7343752-1.160156 13.742187-15.292968 16.132812-15.886718 16.230468-1.523438.226563-2.625 1.578126-2.546876 3.121094.082032 1.539063 1.316407 2.765625 2.859376 2.839844 12.070312.570312 15.445312 17.289062 15.476562 17.453125.269531 1.425781 1.519531 2.441406 2.945312 2.441406.082032 0 .164063-.003906.25-.011719 1.527344-.125 2.714844-1.386718 2.75-2.921874.261719-11.417969 16.664063-17.269532 16.828126-17.324219 1.351562-.46875 2.1875-1.824219 1.992187-3.242188-.199219-1.417969-1.367187-2.5-2.796875-2.585937zm-19.171875 13.589844c-1.847656-3.769532-4.679687-7.894532-8.894531-10.5625 3.714844-2.082032 7.394531-5.257813 9.742187-9.832032 2.117188 3.75 5.3125 7.910156 9.882813 10.449219-3.699219 2.199219-7.976563 5.476563-10.730469 9.945313zm0 0" fill="#3a312a"/><path d="m380.835938 23.0625c-35.363282-35.367188-73.144532-18.515625-113.992188 8.621094l-25.269531 17.449218c-32.964844 23.152344-67.886719 47.390626-105.085938 52.632813-110.9375 15.628906-126.886719 152.09375-56.667969 222.3125s183.097657 71.183594 252.125 2.15625c69.027344-69.03125 119.109376-232.957031 48.890626-303.171875zm0 0" fill="#fce8cb"/><path d="m382.957031 20.9375c-38.800781-38.804688-81.136719-16.089844-117.773437 8.246094-1.382813.917968-1.757813 2.78125-.839844 4.160156s2.78125 1.757812 4.160156.839844c44.222656-29.375 78.085938-41.128906 110.210938-9.003906 18.058594 18.058593 45.570312 61.460937 26.960937 149.289062-12.238281 57.753906-41.304687 115.09375-75.851562 149.640625-32.8125 32.808594-76.6875 50.679687-123.46875 50.257813-46.832031-.398438-91.015625-19.011719-124.414063-52.414063-37.164062-37.164063-51.140625-94.988281-34.785156-143.894531 13.730469-41.066406 45.605469-67.109375 89.75-73.328125 38.433594-5.414063 74.535156-30.773438 106.390625-53.148438 1.359375-.953125 1.683594-2.824219.730469-4.179687-.953125-1.355469-2.824219-1.679688-4.179688-.730469-31.300781 21.984375-66.773437 46.902344-103.78125 52.117187-45.839844 6.457032-80.320312 34.65625-94.601562 77.367188-17.058594 51.011719-2.5 111.304688 36.234375 150.039062 36.035156 36.035157 83.234375 54.097657 130.164062 54.09375 45.902344-.003906 91.546875-17.285156 126.203125-51.941406 35.324219-35.324218 65.011719-93.8125 77.476563-152.636718 14.226562-67.144532 4.074219-122.113282-28.585938-154.773438zm0 0" fill="#3a312a"/><path d="m287.003906 225.152344c0 46.257812-37.5 83.753906-83.753906 83.753906-46.257812 0-83.753906-37.496094-83.753906-83.753906 0-46.253906 37.496094-83.753906 83.753906-83.753906 46.253906 0 83.753906 37.5 83.753906 83.753906zm0 0" fill="#d7e057"/><path d="m203.25 138.398438c-47.835938 0-86.753906 38.917968-86.753906 86.753906 0 47.835937 38.917968 86.753906 86.753906 86.753906s86.753906-38.917969 86.753906-86.753906c0-47.835938-38.917968-86.753906-86.753906-86.753906zm0 167.507812c-44.53125 0-80.753906-36.226562-80.753906-80.753906 0-44.53125 36.222656-80.753906 80.753906-80.753906 44.527344 0 80.753906 36.222656 80.753906 80.753906 0 44.527344-36.226562 80.753906-80.753906 80.753906zm0 0" fill="#3a312a"/><path d="m413.859375 163.304688c-.132813.769531-.285156 1.539062-.421875 2.3125v67.871093c.542969.242188 1.085938.484375 1.628906.734375.484375.222656.964844.460938 1.449219.691406.6875.328126 1.375.65625 2.066406 1 .496094.246094.992188.503907 1.488281.757813.675782.34375 1.347657.6875 2.023438 1.046875.507812.269531 1.015625.546875 1.523438.824219.664062.363281 1.328124.722656 1.992187 1.097656.515625.289063 1.03125.59375 1.550781.890625.652344.378906 1.304688.757812 1.960938 1.148438.527344.316406 1.050781.640624 1.578125.964843.644531.394531 1.289062.789063 1.933593 1.199219.535157.335938 1.070313.6875 1.605469 1.035156.632813.410156 1.265625.824219 1.898438 1.246094.546875.367188 1.09375.742188 1.640625 1.117188.625.425781 1.246094.855468 1.867187 1.292968.554688.390625 1.109375.792969 1.664063 1.191406.613281.445313 1.226562.886719 1.839844 1.34375.5625.417969 1.121093.84375 1.683593 1.269532.378907.285156.757813.5625 1.132813.851562v-69.242187c-10.730469-8.722657-21.425782-15.507813-32.105469-20.644531zm0 0" fill="#d34e5c"/><path d="m413.4375 239.996094v70.394531c.605469.273437 1.210938.539063 1.816406.820313.171875.078124.347656.164062.519532.246093 1 .472657 1.996093.953125 2.996093 1.453125.214844.105469.429688.214844.644531.324219.957032.484375 1.914063.976563 2.871094 1.488281.246094.128906.496094.269532.742188.402344.925781.496094 1.847656 1.003906 2.769531 1.527344.277344.15625.550781.316406.828125.472656.894531.515625 1.792969 1.039062 2.691406 1.574219.296875.179687.597656.367187.894532.550781.875.53125 1.746093 1.066406 2.617187 1.621094.320313.203125.640625.414062.964844.625.847656.542968 1.695312 1.097656 2.542969 1.667968.34375.230469.6875.464844 1.03125.699219.824218.5625 1.652343 1.132813 2.476562 1.71875.359375.253907.722656.515625 1.085938.777344.808593.578125 1.613281 1.164063 2.421874 1.765625.375.28125.753907.570312 1.132813.855469.492187.371093.984375.730469 1.476563 1.113281v-69.246094c-10.867188-8.839844-21.703126-15.691406-32.523438-20.851562zm0 0" fill="#decaad"/><path d="m413.4375 316.925781v73.242188c10.847656 4.878906 21.691406 11.347656 32.523438 19.710937v-72.121094c-10.867188-8.84375-21.703126-15.667968-32.523438-20.832031zm0 0" fill="#d34e5c"/><path d="m378.722656 25.1875c-13.660156-13.660156-27.660156-19.199219-42.140625-19.199219-5.28125 0-10.621093.738281-16.039062 2.097657 9.257812 2.699218 18.339843 8.160156 27.257812 17.101562 42.0625 42.058594 34.941407 111.578125 26.960938 149.28125-12.238281 57.757812-41.300781 115.097656-75.839844 149.636719-29.597656 29.601562-67.460937 46.082031-106.460937 49.5 5.121093.460937 10.261718.679687 15.402343.679687 44.378907.023438 88.480469-16.679687 121.960938-50.179687 34.539062-34.539063 63.617187-91.878907 75.859375-149.636719 7.980468-37.703125 15.097656-107.222656-26.960938-149.28125zm0 0" fill="#decaad"/></svg>