<svg height="452pt" viewBox="0 0 452 452.78515" width="452pt" xmlns="http://www.w3.org/2000/svg"><path d="m299.832031 33.617188c-6.652343-4.652344-56.085937 12.933593-71.351562 34.757812s-11.234375 46.167969 6.207031 58.367188c17.445312 12.203124 41.691406 7.644531 56.960938-14.179688 15.265624-21.824219 14.839843-74.292969 8.183593-78.945312zm0 0" fill="#d7e057"/><path d="m301.550781 31.160156c-7.007812-4.902344-32.476562 5.90625-35.355469 7.15625-8.78125 3.804688-30.269531 14.179688-40.171874 28.339844-7.671876 10.964844-11.109376 23.351562-9.683594 34.882812 1.402344 11.320313 7.308594 21.144532 16.628906 27.664063 7.027344 4.910156 14.800781 7.28125 22.625 7.28125 14.140625 0 28.402344-7.75 38.515625-22.203125 15.296875-21.867188 16.375-76.875 7.441406-83.121094zm-12.359375 79.683594c-13.707031 19.589844-35.902344 25.25-52.78125 13.445312-7.910156-5.535156-12.921875-13.875-14.113281-23.488281-1.246094-10.054687 1.824219-20.957031 8.644531-30.703125 13.765625-19.683594 54.75-34.367187 65.1875-34.367187.875 0 1.535156.101562 1.945313.316406 4.484375 4.117187 6.039062 53.460937-8.882813 74.796875zm0 0" fill="#3a312a"/><path d="m224.238281 68.378906c-15.269531-21.824218-64.703125-39.414062-71.355469-34.757812-2.523437 1.765625-4.144531 10.410156-4.363281 21.652344l2.8125 31.550781c2.011719 9.921875 5.167969 19.207031 9.738281 25.738281 15.265626 21.824219 39.515626 26.382812 56.957032 14.183594 17.441406-12.203125 21.476562-36.546875 6.210937-58.367188zm0 0" fill="#d7e057"/><path d="m226.691406 66.65625c-9.902344-14.160156-31.390625-24.535156-40.167968-28.339844-2.878907-1.25-28.34375-12.058594-35.359376-7.15625-4.339843 3.035156-5.464843 14.753906-5.644531 24.054688-.03125 1.65625 1.285157 3.023437 2.941407 3.054687 1.65625.074219 3.027343-1.285156 3.058593-2.941406.242188-12.625 2.210938-18.445313 3.042969-19.230469 5.398438-2.777344 52.289062 12.660156 67.214844 33.996094 6.816406 9.746094 9.886718 20.648438 8.644531 30.703125-1.191406 9.613281-6.203125 17.953125-14.113281 23.484375-7.910156 5.535156-17.464844 7.382812-26.902344 5.207031-9.875-2.277343-19.0625-8.902343-25.882812-18.648437-3.925782-5.613282-7.125-14.125-9.253907-24.613282-.328125-1.625-1.910156-2.671874-3.535156-2.34375-1.625.332032-2.671875 1.914063-2.34375 3.535157 2.320313 11.453125 5.757813 20.488281 10.21875 26.863281 7.667969 10.964844 18.125 18.441406 29.445313 21.054688 3.039062.703124 6.089843 1.046874 9.109374 1.046874 8.015626 0 15.808594-2.445312 22.582032-7.183593 9.320312-6.519531 15.222656-16.34375 16.625-27.660157 1.429687-11.53125-2.007813-23.917968-9.679688-34.882812zm0 0" fill="#3a312a"/><path d="m404.425781 143.058594h-356.71875c-11.789062 0-21.347656 9.5625-21.347656 21.351562v29.414063c0 11.792969 9.558594 21.351562 21.347656 21.351562h356.71875c11.792969 0 21.351563-9.5625 21.351563-21.351562v-29.414063c0-11.789062-9.558594-21.351562-21.351563-21.351562zm0 0" fill="#f16c7a"/><path d="m404.425781 140.0625h-356.71875c-13.425781 0-24.347656 10.921875-24.347656 24.347656v29.417969c0 13.425781 10.921875 24.347656 24.347656 24.347656h356.71875c13.429688 0 24.351563-10.921875 24.351563-24.347656v-29.417969c0-13.425781-10.921875-24.347656-24.351563-24.347656zm18.351563 53.761719c0 10.117187-8.230469 18.351562-18.351563 18.351562h-356.71875c-10.117187 0-18.347656-8.234375-18.347656-18.351562v-29.414063c0-10.117187 8.230469-18.351562 18.347656-18.351562h356.71875c10.121094 0 18.351563 8.234375 18.351563 18.351562zm0 0" fill="#3a312a"/><path d="m404.425781 229.726562h-356.71875c-11.789062 0-21.347656 9.558594-21.347656 21.351563v29.414063c0 11.792968 9.558594 21.351562 21.347656 21.351562h356.71875c11.792969 0 21.351563-9.558594 21.351563-21.351562v-29.414063c0-11.792969-9.558594-21.351563-21.351563-21.351563zm0 0" fill="#f16c7a"/><path d="m404.425781 226.726562h-356.71875c-13.425781 0-24.347656 10.925782-24.347656 24.351563v29.414063c0 13.425781 10.921875 24.351562 24.347656 24.351562h356.71875c13.429688 0 24.351563-10.925781 24.351563-24.351562v-29.414063c0-13.429687-10.921875-24.351563-24.351563-24.351563zm18.351563 53.765626c0 10.117187-8.230469 18.347656-18.351563 18.347656h-356.71875c-10.117187 0-18.347656-8.230469-18.347656-18.347656v-29.417969c0-10.117188 8.230469-18.347657 18.347656-18.347657h356.71875c10.121094 0 18.351563 8.230469 18.351563 18.347657zm0 0" fill="#3a312a"/><path d="m424.171875 207.449219c-24.835937-17.4375-58.207031-17.457031-83.0625-.070313-.039063.027344-.078125.054688-.117187.082032-12.503907 8.777343-29.300782 8.773437-41.796876 0-.039062-.03125-.085937-.058594-.125-.085938-24.867187-17.382812-58.21875-17.355469-83.058593.085938-12.484375 8.765624-29.253907 8.773437-41.75.035156-.019531-.011719-.035157-.027344-.054688-.039063-24.875-17.464843-58.296875-17.464843-83.167969 0-12.503906 8.777344-29.300781 8.777344-41.800781 0-8.136719-5.714843-19.363281-3.746093-25.078125 4.386719-5.710937 8.136719-3.746094 19.363281 4.386719 25.074219 24.875 17.46875 58.304687 17.46875 83.179687.003906 12.488282-8.769531 29.265626-8.777344 41.761719-.023437.011719.007812.027344.015624.039063.027343 24.875 17.460938 58.300781 17.460938 83.175781-.007812 12.503906-8.773438 29.300781-8.773438 41.800781.003906.039063.027344.078125.054687.117188.082031 12.414062 8.679688 26.945312 13.019532 41.476562 13.019532 14.527344-.003907 29.0625-4.339844 41.472656-13.019532.039063-.027344.082032-.058594.121094-.085937 12.5-8.777344 29.296875-8.777344 41.796875 0 8.132813 5.710937 19.363281 3.746093 25.074219-4.390625 5.707031-8.140625 3.746094-19.367188-4.390625-25.078125zm0 0" fill="#fce8cb"/><path d="m425.894531 204.996094c-25.855469-18.152344-60.621093-18.183594-86.628906.011718-11.464844 8.050782-26.875 8.054688-38.476563-.09375-25.890624-18.097656-60.648437-18.058593-86.5.089844-11.449218 8.039063-26.84375 8.050782-38.355468-.003906-25.90625-18.1875-60.71875-18.1875-86.617188 0-11.472656 8.050781-26.886718 8.054688-38.359375 0-9.476562-6.652344-22.597656-4.355469-29.253906 5.121094-6.652344 9.472656-4.355469 22.597656 5.121094 29.253906 25.90625 18.1875 60.71875 18.191406 86.621093 0 11.457032-8.042969 26.855469-8.046875 38.359376.003906 25.90625 18.1875 60.714843 18.1875 86.621093-.003906 11.472657-8.054688 26.886719-8.050781 38.476563.082031 12.6875 8.875 27.621094 13.5625 43.195312 13.5625 15.570313 0 30.507813-4.691406 43.320313-13.652343 11.472656-8.050782 26.882812-8.050782 38.347656 0 9.472656 6.652343 22.601563 4.355468 29.253906-5.121094 6.648438-9.476563 4.351563-22.597656-5.125-29.25zm.210938 25.804687c-4.753907 6.773438-14.128907 8.414063-20.894531 3.660157-13.53125-9.5-31.714844-9.5-45.363282.085937-11.671875 8.160156-25.417968 12.476563-39.753906 12.476563s-28.082031-4.3125-39.871094-12.558594c-6.769531-4.75-14.695312-7.125-22.621094-7.125-7.929687 0-15.859374 2.375-22.625 7.125-23.84375 16.742187-55.882812 16.746094-79.769531-.027344-13.527343-9.46875-31.695312-9.457031-45.207031.03125-23.84375 16.742188-55.886719 16.738281-79.730469-.003906-6.769531-4.753906-8.410156-14.128906-3.65625-20.894532 4.757813-6.765624 14.132813-8.410156 20.898438-3.660156 13.53125 9.503906 31.71875 9.5 45.25.003906 23.839843-16.742187 55.878906-16.742187 79.777343.039063 13.527344 9.460937 31.691407 9.445313 45.195313-.039063 23.792969-16.703124 55.789063-16.738281 79.734375.003907 13.53125 9.5 31.710938 9.5 45.359375-.078125 23.828125-16.667969 55.824219-16.640625 79.617187.066406 6.769532 4.75 8.410157 14.125 3.660157 20.894531zm0 0" fill="#3a312a"/><path d="m404.425781 316.394531h-356.71875c-11.789062 0-21.347656 9.554688-21.347656 21.347657v29.417968c0 11.789063 9.558594 21.347656 21.347656 21.347656h356.71875c11.792969 0 21.351563-9.558593 21.351563-21.347656v-29.417968c0-11.792969-9.558594-21.347657-21.351563-21.347657zm0 0" fill="#f16c7a"/><path d="m404.425781 313.394531h-356.71875c-13.425781 0-24.347656 10.921875-24.347656 24.347657v29.417968c0 13.425782 10.921875 24.347656 24.347656 24.347656h356.71875c13.429688 0 24.351563-10.921874 24.351563-24.347656v-29.417968c0-13.425782-10.921875-24.347657-24.351563-24.347657zm18.351563 53.765625c0 10.117188-8.230469 18.347656-18.351563 18.347656h-356.71875c-10.117187 0-18.347656-8.230468-18.347656-18.347656v-29.417968c0-10.117188 8.230469-18.347657 18.347656-18.347657h356.71875c10.121094 0 18.351563 8.230469 18.351563 18.347657zm0 0" fill="#3a312a"/><path d="m424.171875 294.117188c-24.835937-17.4375-58.207031-17.460938-83.0625-.070313-.039063.027344-.078125.054687-.117187.082031-12.503907 8.777344-29.300782 8.773438-41.796876 0-.039062-.03125-.085937-.0625-.125-.089844-24.867187-17.382812-58.21875-17.355468-83.058593.085938-12.484375 8.765625-29.253907 8.777344-41.75.035156-.019531-.011718-.035157-.023437-.054688-.035156-24.875-17.464844-58.296875-17.464844-83.167969 0-12.503906 8.777344-29.300781 8.777344-41.800781-.003906-8.136719-5.710938-19.363281-3.746094-25.078125 4.386718-5.710937 8.136719-3.746094 19.363282 4.386719 25.078126 24.875 17.464843 58.304687 17.464843 83.179687 0 12.488282-8.765626 29.265626-8.773438 41.761719-.023438.011719.007812.027344.019531.039063.027344 24.875 17.464844 58.300781 17.464844 83.175781-.003906 12.503906-8.777344 29.300781-8.773438 41.800781 0 .039063.027343.078125.054687.117188.082031 12.414062 8.679687 26.945312 13.019531 41.476562 13.019531 14.527344-.003906 29.0625-4.339844 41.472656-13.019531.039063-.027344.082032-.058594.121094-.085938 12.5-8.777343 29.296875-8.777343 41.796875 0 8.132813 5.710938 19.363281 3.746094 25.074219-4.390625 5.707031-8.136718 3.746094-19.363281-4.390625-25.074218zm0 0" fill="#fce8cb"/><path d="m425.894531 291.660156c-25.855469-18.152344-60.621093-18.179687-86.628906.011719-11.464844 8.054687-26.875 8.054687-38.476563-.09375-25.890624-18.09375-60.648437-18.058594-86.5.089844-11.449218 8.039062-26.84375 8.050781-38.355468 0-25.90625-18.191407-60.71875-18.191407-86.617188 0-11.472656 8.050781-26.886718 8.050781-38.359375-.003907-9.476562-6.652343-22.597656-4.351562-29.253906 5.121094-6.652344 9.476563-4.355469 22.597656 5.121094 29.253906 25.90625 18.191407 60.71875 18.195313 86.621093.003907 11.457032-8.042969 26.855469-8.050781 38.359376.003906 25.90625 18.1875 60.714843 18.183594 86.621093-.007813 11.472657-8.054687 26.886719-8.046874 38.476563.085938 12.6875 8.875 27.621094 13.5625 43.195312 13.5625 15.570313-.003906 30.507813-4.691406 43.320313-13.652344 11.472656-8.050781 26.882812-8.050781 38.347656 0 9.472656 6.652344 22.601563 4.355469 29.253906-5.121094 6.648438-9.480468 4.351563-22.601562-5.125-29.253906zm.210938 25.808594c-4.753907 6.769531-14.128907 8.410156-20.894531 3.660156-13.53125-9.5-31.714844-9.5-45.363282.082032-11.671875 8.164062-25.417968 12.476562-39.753906 12.476562s-28.082031-4.3125-39.871094-12.554688c-6.769531-4.75-14.695312-7.125-22.621094-7.125-7.929687 0-15.859374 2.375-22.625 7.125-23.84375 16.742188-55.882812 16.742188-79.769531-.027343-13.527343-9.46875-31.695312-9.457031-45.207031.027343-23.84375 16.742188-55.886719 16.742188-79.730469 0-6.769531-4.753906-8.410156-14.128906-3.65625-20.898437 4.757813-6.765625 14.132813-8.40625 20.898438-3.65625 13.53125 9.5 31.71875 9.5 45.25 0 23.839843-16.742187 55.878906-16.738281 79.777343.042969 13.527344 9.457031 31.691407 9.441406 45.195313-.039063 23.792969-16.703125 55.789063-16.738281 79.734375 0 13.53125 9.503907 31.710938 9.503907 45.359375-.078125 23.828125-16.667968 55.824219-16.640625 79.617187.070313 6.769532 4.75 8.410157 14.121093 3.660157 20.894531zm0 0" fill="#3a312a"/><path d="m65.210938 22.351562c-1.945313 23.128907-26.046876 26.78125-26.046876 26.78125 20.695313.972657 25.851563 28.117188 25.851563 28.117188.441406-19.351562 26.640625-28.402344 26.640625-28.402344-19.625-1.175781-26.445312-26.496094-26.445312-26.496094zm0 0" fill="#d7e057"/><path d="m91.835938 45.851562c-17.210938-1.027343-23.664063-24.046874-23.726563-24.28125-.382813-1.40625-1.71875-2.339843-3.167969-2.203124-1.449218.132812-2.597656 1.285156-2.71875 2.734374-1.71875 20.429688-22.625 23.925782-23.507812 24.0625-1.527344.230469-2.625 1.582032-2.546875 3.125.082031 1.539063 1.316406 2.765626 2.855469 2.839844 18.054687.851563 22.996093 25.4375 23.046874 25.6875.273438 1.421875 1.515626 2.433594 2.941407 2.433594.085937 0 .167969-.003906.253906-.011719 1.527344-.128906 2.714844-1.386719 2.75-2.917969.390625-17.015624 24.382813-25.554687 24.625-25.636718 1.351563-.46875 2.183594-1.832032 1.988281-3.246094-.195312-1.417969-1.363281-2.5-2.792968-2.585938zm-27.132813 20.691407c-2.710937-6.261719-7.417969-13.8125-15.171875-17.75 5.863281-2.8125 12.816406-7.828125 16.402344-16.546875 3.101562 6.140625 8.402344 13.757812 16.667968 17.441406-6.011718 3.28125-13.84375 8.8125-17.898437 16.855469zm0 0" fill="#3a312a"/><path d="m21.816406 56.316406c-1.378906 16.355469-18.421875 18.9375-18.421875 18.9375 14.632813.6875 18.28125 19.890625 18.28125 19.890625.3125-13.691406 18.84375-20.089843 18.84375-20.089843-13.882812-.832032-18.703125-18.738282-18.703125-18.738282zm0 0" fill="#d7e057"/><path d="m40.699219 72.058594c-11.53125-.6875-15.945313-16.371094-15.988281-16.527344-.382813-1.402344-1.710938-2.34375-3.164063-2.203125-1.453125.128906-2.597656 1.28125-2.71875 2.734375-1.160156 13.742188-15.292969 16.132812-15.886719 16.226562-1.523437.230469-2.625 1.582032-2.542968 3.121094.078124 1.539063 1.3125 2.769532 2.851562 2.84375 12.074219.566406 15.449219 17.289063 15.480469 17.453125.269531 1.425781 1.515625 2.4375 2.941406 2.4375.085937 0 .167969 0 .25-.007812 1.53125-.128907 2.71875-1.390625 2.753906-2.921875.257813-11.417969 16.664063-17.269532 16.824219-17.324219 1.355469-.46875 2.1875-1.828125 1.992188-3.246094-.195313-1.417969-1.363282-2.5-2.792969-2.585937zm-19.171875 13.589844c-1.847656-3.769532-4.679688-7.894532-8.894532-10.558594 3.714844-2.085938 7.394532-5.261719 9.742188-9.835938 2.117188 3.75 5.308594 7.910156 9.882812 10.449219-3.695312 2.203125-7.976562 5.480469-10.730468 9.945313zm0 0" fill="#3a312a"/><path d="m21.816406 3c-1.378906 16.355469-18.421875 18.941406-18.421875 18.941406 14.632813.6875 18.28125 19.886719 18.28125 19.886719.3125-13.6875 18.84375-20.089844 18.84375-20.089844-13.882812-.832031-18.703125-18.738281-18.703125-18.738281zm0 0" fill="#d7e057"/><path d="m40.699219 18.742188c-11.535157-.6875-15.945313-16.371094-15.988281-16.527344-.382813-1.40625-1.710938-2.328125-3.164063-2.2031252-1.453125.1289062-2.597656 1.2851562-2.71875 2.7343752-1.160156 13.742187-15.292969 16.136718-15.886719 16.230468-1.523437.230469-2.625 1.578126-2.542968 3.121094.078124 1.539063 1.3125 2.765625 2.855468 2.839844 12.070313.570312 15.445313 17.289062 15.476563 17.453125.269531 1.425781 1.519531 2.441406 2.945312 2.441406.082031 0 .164063-.003906.25-.011719 1.527344-.128906 2.714844-1.386718 2.75-2.921874.261719-11.417969 16.664063-17.265626 16.828125-17.324219 1.351563-.46875 2.1875-1.824219 1.992188-3.242188-.199219-1.417969-1.367188-2.503906-2.796875-2.589843zm-19.171875 13.589843c-1.847656-3.769531-4.679688-7.894531-8.894532-10.558593 3.714844-2.082032 7.394532-5.261719 9.742188-9.832032 2.117188 3.746094 5.3125 7.90625 9.882812 10.449219-3.695312 2.199219-7.976562 5.480469-10.730468 9.941406zm0 0" fill="#3a312a"/><path d="m3.566406 355.941406c0 38.875 31.511719 70.386719 70.382813 70.386719h304.992187c38.875 0 70.386719-31.511719 70.386719-70.386719zm0 0" fill="#87796f"/><path d="m449.324219 352.941406h-445.757813c-1.660156 0-3 1.34375-3 3 0 40.464844 32.917969 73.382813 73.378906 73.382813h9.0625c1.660157 0 3-1.339844 3-3 0-1.65625-1.339843-3-3-3h-9.0625c-36.148437 0-65.742187-28.613281-67.316406-64.382813h439.628906c-1.574218 35.773438-31.164062 64.382813-67.316406 64.382813h-266.0625c-1.660156 0-3 1.34375-3 3 0 1.660156 1.339844 3 3 3h266.0625c40.464844 0 73.382813-32.917969 73.382813-73.382813 0-1.65625-1.34375-3-3-3zm0 0" fill="#3a312a"/><path d="m132.058594 426.324219h188.773437v23.464843h-188.773437zm0 0" fill="#87796f"/><path d="m320.832031 423.324219h-188.773437c-1.65625 0-3 1.34375-3 3v23.460937c0 1.65625 1.34375 3 3 3h188.773437c1.65625 0 3-1.34375 3-3v-23.460937c0-1.65625-1.34375-3-3-3zm-3 23.464843h-182.773437v-17.460937h182.773437zm0 0" fill="#3a312a"/><path d="m417.367188 358.945312c-1.582032 35.761719-31.160157 64.382813-67.320313 64.382813h28.898437c36.140626 0 65.742188-28.621094 67.320313-64.382813zm0 0" fill="#695b51"/><path d="m423.574219 120.367188c-24.773438-17.023438-57.804688-16.902344-82.46875.34375-.039063.027343-.078125.054687-.117188.082031-12.5 8.777343-29.300781 8.773437-41.792969 0-.042968-.03125-.085937-.058594-.125-.085938-25.195312-17.613281-59.101562-17.351562-84.035156.78125-11.839844 8.609375-27.960937 8.355469-39.929687-.066406-25.097657-17.664063-58.890625-18.507813-83.914063-.742187-12.574218 8.925781-29.558594 8.921874-42.125-.011719-5.617187-3.992188-13.097656-4.601563-18.96875-1-12.25 7.519531-11.773437 23.402343-1.550781 30.582031 7.453125 5.234375 15.683594 8.863281 24.210937 10.949219 2.605469.640625 4.4375 2.960937 4.4375 5.644531v5.976562c0 9.050782 7.335938 16.386719 16.386719 16.386719h.5625c9.046875 0 16.382813-7.339843 16.382813-16.386719v-8.195312c0-2.449219 1.527344-4.644531 3.835937-5.460938 2.695313-.953124 5.339844-2.070312 7.925781-3.351562 3.832032-1.898438 8.316407 1.015625 8.316407 5.289062v36.699219c0 7.226563 4.484375 13.929688 11.394531 16.050781 11.445312 3.523438 21.941406-4.941406 21.941406-15.855468v-42.789063c0-4.90625 5.519532-7.789062 9.546875-4.980469l1.636719 1.1875c24.304688 17.625 56.851562 16.679688 81.191406-.890624 2.359375-1.699219 4.875-3.082032 7.492188-4.144532 3.769531-1.535156 7.871094 1.386719 7.871094 5.457032v14.273437c0 7.226563 4.484374 13.929687 11.394531 16.050781 11.445312 3.523438 21.941406-4.941406 21.941406-15.855468v-.363282c0-5.261718 5.246094-8.824218 10.1875-7.007812 1.574219.578125 3.160156 1.101562 4.761719 1.566406 2.488281.722656 4.207031 2.988281 4.207031 5.582031v57.644531c0 7.226563 4.484375 13.925782 11.390625 16.050782 11.449219 3.523437 21.941406-4.941406 21.941406-15.859375v-51.597657c0-6.171874 3.660156-11.84375 9.398438-14.132812.71875-.285156 1.4375-.582031 2.148437-.894531 3-1.308594 6.347657.9375 6.347657 4.210937v.746094c0 7.230469 4.484374 13.929688 11.390624 16.054688 11.449219 3.519531 21.941407-4.945313 21.941407-15.859376v-10.503906c0-4.132812 4.210937-7.015625 8.027343-5.414062 2.339844.980468 4.597657 2.21875 6.730469 3.714844 9.175781 6.441406 22.285157 3.117187 26.976563-7.8125 3.417968-7.953126.246094-17.15625-6.890625-22.0625zm0 0" fill="#fce8cb"/><path d="m425.273438 117.894531c-25.765626-17.699219-60.273438-17.554687-86.007813.445313-11.46875 8.050781-26.878906 8.050781-38.480469-.09375-26.34375-18.417969-61.515625-18.089844-87.515625.816406-10.679687 7.765625-25.324219 7.726562-36.4375-.09375-26.558593-18.691406-61.671875-18.984375-87.375-.738281-11.5625 8.210937-27.097656 8.207031-38.65625-.007813-6.777343-4.820312-15.519531-5.253906-22.273437-1.113281-6.53125 4.011719-10.40625 10.476563-10.628906 17.742187-.21875 7.101563 3.117187 13.777344 8.925781 17.855469 7.59375 5.332031 16.082031 9.171875 25.21875 11.40625 1.265625.308594 2.152343 1.433594 2.152343 2.730469v5.972656c0 10.691406 8.699219 19.386719 19.386719 19.386719h.558594c10.691406 0 19.386719-8.699219 19.386719-19.386719v-8.191406c0-1.1875.738281-2.246094 1.835937-2.636719 2.808594-.992187 5.585938-2.167969 8.253907-3.492187 1.191406-.589844 2.222656-.09375 2.609374.144531.863282.535156 1.375 1.453125 1.375 2.457031v36.699219c0 8.691406 5.558594 16.472656 13.511719 18.921875 6.242188 1.917969 12.738281.863281 17.832031-2.898438 5.003907-3.695312 7.992188-9.613281 7.992188-15.828124v-42.785157c0-1.164062.617188-2.183593 1.652344-2.722656 1.03125-.542969 2.222656-.464844 3.132812.171875l1.636719 1.1875c24.90625 18.058594 58.949219 17.703125 84.707031-.886719 2.125-1.535156 4.4375-2.8125 6.867188-3.800781 1.109375-.449219 2.015625-.019531 2.457031.277344.804687.542968 1.289063 1.441406 1.289063 2.402344v14.269531c0 8.695312 5.554687 16.476562 13.507812 18.921875 6.242188 1.917968 12.738281.863281 17.832031-2.894532 5.003907-3.699218 7.992188-9.617187 7.992188-15.828124v-.363282c0-1.480468.691406-2.816406 1.902343-3.660156 1.25-.871094 2.796876-1.0625 4.25-.53125 1.636719.601562 3.304688 1.148438 4.960938 1.628906 1.21875.351563 2.039062 1.4375 2.039062 2.699219v57.644531c0 8.695313 5.554688 16.472656 13.511719 18.921875 2.042969.625 4.113281.9375 6.15625.9375 4.191407 0 8.25-1.308593 11.675781-3.835937 5.003907-3.695313 7.992188-9.613282 7.992188-15.828125v-51.597657c0-4.996093 3.015625-9.554687 7.503906-11.34375.75-.296874 1.496094-.609374 2.242188-.933593.632812-.28125 1.164062-.042969 1.425781.125.214844.144531.722656.558593.722656 1.335937v.746094c0 8.695312 5.554688 16.476562 13.507813 18.921875 6.246094 1.917969 12.742187.863281 17.832031-2.898437 5.003906-3.695313 7.992187-9.613282 7.992187-15.828126v-10.503906c0-.972656.46875-1.84375 1.289063-2.386718.785156-.523438 1.722656-.621094 2.578125-.257813 2.175781.910156 4.25 2.054687 6.167969 3.402344 5.199219 3.652343 11.691406 4.746093 17.808593 3.011719 6.121094-1.738282 11.09375-6.144532 13.648438-12.09375 3.894531-9.0625.554688-19.882813-7.945312-25.722657zm2.433593 23.359375c-1.839843 4.28125-5.398437 7.445313-9.773437 8.6875-4.378906 1.246094-9.015625.457032-12.722656-2.148437-2.269532-1.59375-4.722657-2.949219-7.296876-4.027344-2.699218-1.132813-5.769531-.832031-8.222656.796875-2.480468 1.652344-3.960937 4.410156-3.960937 7.382812v10.503907c0 4.382812-2.027344 8.394531-5.558594 11-3.546875 2.621093-8.109375 3.34375-12.5 1.992187-5.460937-1.679687-9.277344-7.101562-9.277344-13.1875v-.746094c0-2.570312-1.285156-4.945312-3.4375-6.351562-2.128906-1.394531-4.789062-1.621094-7.109375-.609375-.683594.296875-1.367187.585937-2.058594.859375-6.753906 2.6875-11.289062 9.488281-11.289062 16.917969v51.597656c0 4.386719-2.027344 8.394531-5.558594 11.003906-3.542968 2.617188-8.097656 3.339844-12.5 1.988281-5.460937-1.679687-9.277344-7.101562-9.277344-13.1875v-57.640624c0-3.898438-2.617187-7.375-6.371093-8.464844-1.519531-.441406-3.050781-.945313-4.554688-1.496094-1.203125-.445312-2.453125-.660156-3.695312-.660156-2.140625 0-4.265625.644531-6.058594 1.898437-2.84375 1.980469-4.472656 5.113281-4.472656 8.582031v.363282c0 4.378906-2.027344 8.390625-5.558594 11-3.542969 2.617187-8.101563 3.339844-12.5 1.988281-5.460937-1.679687-9.273437-7.101563-9.273437-13.1875v-14.269531c0-2.960938-1.472657-5.722656-3.941407-7.378906-2.402343-1.617188-5.414062-1.9375-8.0625-.859376-2.875 1.167969-5.605469 2.679688-8.117187 4.492188-23.652344 17.070312-54.867188 17.429688-77.675782.894531l-1.679687-1.21875c-2.78125-1.941406-6.378906-2.171875-9.386719-.601562-3.007812 1.570312-4.878906 4.652343-4.878906 8.042969v42.789062c0 4.382812-2.023438 8.394531-5.558594 11-3.542968 2.621094-8.101562 3.339844-12.5 1.988281-5.457031-1.679687-9.273437-7.101562-9.273437-13.183593v-36.703126c0-3.09375-1.578125-5.917968-4.210938-7.550781-2.582031-1.605469-5.738281-1.761719-8.441406-.425781-2.453125 1.214844-5.007813 2.296875-7.589844 3.210938-3.492187 1.234374-5.835937 4.566406-5.835937 8.292968v8.191406c0 7.382813-6.003906 13.386719-13.386719 13.386719h-.558594c-7.382812 0-13.386719-6.007812-13.386719-13.386719v-5.972656c0-4.070312-2.765624-7.589844-6.726562-8.558594-8.410156-2.058593-16.214844-5.589843-23.199219-10.492187-4.148437-2.914063-6.53125-7.683594-6.371093-12.753906.160156-5.210938 2.992187-9.882813 7.765624-12.816407 4.703126-2.882812 10.847657-2.535156 15.660157.886719 13.632812 9.691407 31.960937 9.699219 45.605469.015625 23.636718-16.78125 55.964843-16.480468 80.449218.746094 13.214844 9.300781 30.664063 9.316406 43.417969.042969 23.929687-17.402344 56.304687-17.703125 80.671875-.667969 13.53125 9.5 31.710938 9.5 45.359375-.078125 23.570313-16.492187 55.335937-16.625 79.046875-.332031 6.148438 4.226562 8.601562 11.96875 5.832031 18.414062zm0 0" fill="#3a312a"/><path d="m420.417969 242.09375c-6.097657 2-13.019531 1.238281-18.660157-2.71875-2.480468-1.742188-5.160156-3.121094-7.9375-4.101562 1.136719 2.378906 1.777344 5.039062 1.777344 7.859374v29.421876c0 2.257812-.417968 4.417968-1.179687 6.417968 9.242187 1.441406 18.261719 4.601563 26.519531 9.480469 1.160156-2.398437 1.839844-5.101563 1.839844-7.960937v-29.417969c0-3.261719-.859375-6.320313-2.359375-8.980469zm0 0" fill="#d34e5c"/><path d="m422.4375 209.914062c-9.097656-6.402343-19.417969-10.359374-30.019531-11.859374 2.402343 1.277343 4.761719 2.71875 7.019531 4.320312 6.78125 4.757812 8.421875 14.136719 3.660156 20.898438-2.117187 3.058593-5.199218 5.058593-8.558594 5.898437 3.757813 1.179687 7.359376 2.941406 10.679688 5.28125 6.761719 4.761719 16.140625 3.121094 20.878906-3.660156 4.761719-6.761719 3.121094-16.140625-3.660156-20.878907zm0 0" fill="#decaad"/><path d="m420.417969 328.753906c-6.097657 2-13.019531 1.238282-18.660157-2.722656-2.820312-1.957031-5.859374-3.457031-9.019531-4.457031 1.519531 3.660156 2.859375 9.777343 2.859375 13.160156v18.199219h27.179688v-15.179688c0-3.28125-.859375-6.339844-2.359375-9zm0 0" fill="#d34e5c"/><path d="m422.4375 296.574219c-8.796875-6.160157-18.699219-10.082031-28.917969-11.699219 2.121094 1.15625 4.179688 2.457031 6.179688 3.859375 6.757812 4.757813 8.398437 14.140625 3.660156 20.898437-2.300781 3.28125-5.679687 5.359376-9.320313 6.058594 3.941407 1.203125 7.699219 3 11.179688 5.441406 6.761719 4.742188 16.140625 3.101563 20.878906-3.660156 4.761719-6.78125 3.121094-16.160156-3.660156-20.898437zm0 0" fill="#decaad"/><path d="m420.417969 155.433594c-.277344.078125-.558594.199218-.839844.28125-6.121094 1.738281-12.621094.636718-17.820313-3.023438-1.917968-1.339844-3.980468-2.476562-6.160156-3.398437-.058594-.019531-.097656-.039063-.160156-.039063-.820312-.300781-1.679688-.179687-2.417969.300782-.742187.476562-1.199219 1.238281-1.28125 2.097656-.019531.101562-.019531.179687-.019531.28125v.019531c2.539062 3.5 4.058594 7.800781 4.058594 12.460937v28.117188c8.761718 1.523438 17.300781 4.621094 25.160156 9.261719 1.160156-2.417969 1.839844-5.101563 1.839844-7.960938v-29.417969c0-3.261718-.859375-6.339843-2.359375-8.980468zm0 0" fill="#d34e5c"/><path d="m421.878906 122.832031c-14.019531-9.617187-30.839844-13.519531-47.121094-11.679687 6.582032 2.101562 12.941407 5.179687 18.820313 9.222656 7.140625 4.898438 10.300781 14.097656 6.878906 22.058594-.296875.699218-.636719 1.378906-1.019531 2.019531 2.019531.941406 3.960938 2.058594 5.78125 3.339844 3.699219 2.601562 8.339844 3.398437 12.71875 2.140625 4.359375-1.242188 7.941406-4.402344 9.78125-8.679688 2.761719-6.441406.300781-14.179687-5.839844-18.421875zm0 0" fill="#decaad"/></svg>