<svg height="452pt" viewBox="-29 0 452 452.092" width="452pt" xmlns="http://www.w3.org/2000/svg"><path d="m365.457031 373.066406c-1.949219 23.128906-26.050781 26.78125-26.050781 26.78125 20.695312.972656 25.851562 28.117188 25.851562 28.117188.441407-19.351563 26.640626-28.40625 26.640626-28.40625-19.625-1.171875-26.441407-26.492188-26.441407-26.492188zm0 0" fill="#d7e057"/><path d="m392.078125 396.566406c-17.207031-1.03125-23.664063-24.046875-23.726563-24.28125-.382812-1.40625-1.695312-2.3125-3.164062-2.207031-1.453125.132813-2.597656 1.285156-2.71875 2.734375-1.722656 20.429688-22.628906 23.929688-23.507812 24.066406-1.527344.230469-2.625 1.582032-2.546876 3.117188.078126 1.542968 1.3125 2.773437 2.855469 2.84375 18.054688.851562 22.996094 25.4375 23.042969 25.6875.277344 1.421875 1.519531 2.433594 2.945312 2.433594.082032 0 .167969-.003907.253907-.011719 1.527343-.128907 2.710937-1.386719 2.746093-2.917969.386719-17.019531 24.382813-25.554688 24.625-25.640625 1.347657-.464844 2.183594-1.828125 1.988282-3.242187-.195313-1.417969-1.363282-2.5-2.792969-2.582032zm-27.132813 20.691406c-2.714843-6.265624-7.414062-13.816406-15.171874-17.753906 5.859374-2.808594 12.816406-7.824218 16.402343-16.546875 3.101563 6.144531 8.398438 13.761719 16.667969 17.445313-6.015625 3.28125-13.84375 8.8125-17.898438 16.855468zm0 0" fill="#3a312a"/><path d="m322.058594 407.027344c-1.378906 16.359375-18.425782 18.941406-18.425782 18.941406 14.636719.6875 18.28125 19.890625 18.28125 19.890625.3125-13.691406 18.847657-20.09375 18.847657-20.09375-13.882813-.828125-18.703125-18.738281-18.703125-18.738281zm0 0" fill="#d7e057"/><path d="m340.941406 422.773438c-11.535156-.691407-15.945312-16.375-15.988281-16.53125-.382813-1.402344-1.722656-2.339844-3.164063-2.203126-1.453124.128907-2.597656 1.285157-2.722656 2.734376-1.15625 13.742187-15.292968 16.132812-15.882812 16.226562-1.527344.230469-2.625 1.582031-2.546875 3.121094.078125 1.542968 1.3125 2.769531 2.851562 2.84375 12.074219.566406 15.449219 17.289062 15.480469 17.449218.269531 1.425782 1.515625 2.441407 2.941406 2.441407.085938 0 .167969-.003907.25-.007813 1.53125-.128906 2.71875-1.386718 2.753906-2.921875.261719-11.417969 16.664063-17.269531 16.824219-17.324219 1.355469-.46875 2.191407-1.828124 1.992188-3.246093-.191407-1.414063-1.359375-2.5-2.789063-2.582031zm-19.167968 13.589843c-1.847657-3.773437-4.679688-7.894531-8.894532-10.558593 3.710938-2.085938 7.394532-5.261719 9.742188-9.835938 2.113281 3.75 5.308594 7.910156 9.882812 10.449219-3.703125 2.199219-7.980468 5.480469-10.730468 9.945312zm0 0" fill="#3a312a"/><path d="m322.058594 353.710938c-1.378906 16.359374-18.425782 18.941406-18.425782 18.941406 14.636719.691406 18.28125 19.890625 18.28125 19.890625.3125-13.691407 18.847657-20.089844 18.847657-20.089844-13.882813-.832031-18.703125-18.742187-18.703125-18.742187zm0 0" fill="#d7e057"/><path d="m340.941406 369.457031c-11.535156-.6875-15.945312-16.371093-15.988281-16.527343-.382813-1.40625-1.714844-2.324219-3.164063-2.207032-1.453124.132813-2.597656 1.289063-2.722656 2.738282-1.15625 13.738281-15.292968 16.132812-15.882812 16.226562-1.527344.230469-2.628906 1.582031-2.546875 3.121094.078125 1.539062 1.3125 2.769531 2.855469 2.839844 12.070312.570312 15.445312 17.292968 15.476562 17.457031.269531 1.421875 1.519531 2.4375 2.945312 2.4375.082032 0 .164063-.003907.25-.007813 1.53125-.128906 2.714844-1.386718 2.75-2.921875.261719-11.417969 16.664063-17.269531 16.828126-17.324219 1.355468-.46875 2.1875-1.828124 1.992187-3.246093s-1.363281-2.5-2.792969-2.585938zm-19.167968 13.589844c-1.847657-3.769531-4.679688-7.894531-8.894532-10.558594 3.710938-2.082031 7.394532-5.261719 9.742188-9.832031 2.113281 3.746094 5.308594 7.910156 9.882812 10.449219-3.703125 2.199219-7.980468 5.480469-10.730468 9.941406zm0 0" fill="#3a312a"/><path d="m192.328125 411.957031c-38.859375 0-70.371094 16.621094-70.371094 37.136719h140.765625c0-20.515625-31.507812-37.136719-70.394531-37.136719zm0 0" fill="#8ac6dd"/><path d="m192.328125 408.957031c-41.140625 0-73.371094 17.628907-73.371094 40.136719 0 1.652344 1.34375 3 3 3h140.765625c1.660156 0 3-1.347656 3-3 0-22.507812-32.238281-40.136719-73.394531-40.136719zm-67.097656 37.136719c3.113281-17.164062 32.574219-31.136719 67.097656-31.136719 34.539063 0 64.011719 13.972657 67.125 31.136719zm0 0" fill="#3a312a"/><path d="m192.320312 414.953125c-3.277343 0-6.5.117187-9.660156.359375 30.222656 2.320312 54.640625 15.238281 57.460938 30.78125h19.339844c-3.117188-17.160156-32.597657-31.140625-67.140626-31.140625zm0 0" fill="#68a8bc"/><path d="m261.019531 49.921875h-137.355469c-26.789062 39.175781-44.058593 100.71875-44.058593 169.933594 0 53.296875 10.238281 102.042969 27.175781 139.53125 14.425781 31.921875 48.25 52.570312 85.5625 52.570312 37.308594 0 71.132812-20.644531 85.558594-52.570312 16.941406-37.488281 27.175781-86.234375 27.175781-139.53125 0-69.214844-17.265625-130.757813-44.058594-169.933594zm0 0" fill="#fce8cb"/><path d="m263.496094 48.230469c-.558594-.820313-1.484375-1.304688-2.476563-1.304688h-77.117187c-1.65625 0-3 1.34375-3 3 0 1.652344 1.34375 3 3 3h75.527344c27.121093 40.464844 42.652343 101.183594 42.652343 166.933594 0 50.777344-9.558593 99.890625-26.910156 138.292969-13.949219 30.867187-46.460937 50.804687-82.828125 50.804687-36.371094 0-68.882812-19.941406-82.828125-50.804687-17.355469-38.398438-26.914063-87.515625-26.914063-138.292969 0-65.75 15.53125-126.46875 42.652344-166.933594h28.523438c1.660156 0 3-1.347656 3-3 0-1.65625-1.339844-3-3-3h-30.113282c-.988281 0-1.917968.484375-2.476562 1.304688-28.335938 41.429687-44.585938 103.988281-44.585938 171.625 0 51.613281 9.746094 101.605469 27.445313 140.769531 14.914063 33.007812 49.574219 54.332031 88.292969 54.332031s73.378906-21.324219 88.292968-54.332031c17.699219-39.164062 27.445313-89.15625 27.445313-140.769531.003906-67.636719-16.25-130.191407-44.582031-171.625zm0 0" fill="#3a312a"/><path d="m295.640625 133.917969h-206.597656c-6.066407 26.304687-9.441407 55.375-9.441407 85.941406 0 53.292969 10.238282 102.042969 27.179688 139.53125 14.425781 31.921875 48.25 52.570313 85.558594 52.570313s71.136718-20.648438 85.558594-52.570313c16.941406-37.488281 27.179687-86.234375 27.179687-139.53125 0-30.570313-3.371094-59.636719-9.4375-85.941406zm0 0" fill="#d7e057"/><path d="m298.5625 133.242188c-.316406-1.359376-1.527344-2.324219-2.921875-2.324219h-60.714844c-1.65625 0-3 1.34375-3 3s1.34375 3 3 3h58.320313c5.863281 26.261719 8.839844 54.152343 8.839844 82.941406 0 50.777344-9.558594 99.890625-26.914063 138.292969-13.949219 30.867187-46.460937 50.804687-82.828125 50.804687s-68.878906-19.941406-82.828125-50.804687c-17.355469-38.398438-26.910156-87.515625-26.910156-138.292969 0-28.792969 2.96875-56.683594 8.835937-82.941406h113.320313c1.65625 0 3-1.34375 3-3s-1.34375-3-3-3h-115.71875c-1.398438 0-2.609375.964843-2.921875 2.324219-6.316406 27.378906-9.515625 56.519531-9.515625 86.617187 0 51.613281 9.746093 101.605469 27.441406 140.769531 14.917969 33.003906 49.574219 54.332032 88.296875 54.332032 38.71875 0 73.375-21.328126 88.292969-54.332032 17.699219-39.167968 27.445312-89.160156 27.445312-140.769531 0-30.097656-3.203125-59.238281-9.519531-86.617187zm0 0" fill="#3a312a"/><path d="m81.125 3.34375c-39.109375-3.832031-73.917969 24.761719-77.75 63.871094-3.828125 39.105468 24.769531 73.914062 63.875 77.742187 39.109375 3.832031 73.917969-24.761719 77.746094-63.871093 3.832031-39.105469-24.765625-73.914063-63.871094-77.742188zm0 0" fill="#fce8cb"/><path d="m74.195312 0c-40.886718 0-74.148437 33.265625-74.148437 74.152344 0 40.886718 33.261719 74.148437 74.148437 74.148437 40.886719 0 74.152344-33.261719 74.152344-74.148437 0-40.890625-33.265625-74.152344-74.152344-74.152344zm0 142.300781c-37.578124 0-68.148437-30.570312-68.148437-68.148437 0-37.582032 30.570313-68.152344 68.148437-68.152344 37.582032 0 68.152344 30.570312 68.152344 68.152344 0 37.578125-30.574218 68.148437-68.152344 68.148437zm0 0" fill="#3a312a"/><path d="m123.6875 71.914062c-1.238281-27.335937-24.402344-48.488281-51.734375-47.25-27.332031 1.238282-48.484375 24.402344-47.246094 51.738282 1.238281 27.332031 24.402344 48.484375 51.734375 47.246094 27.332032-1.238282 48.488282-24.402344 47.246094-51.734376zm0 0" fill="#d7e057"/><g fill="#3a312a"><path d="m74.195312 21.609375c-28.96875 0-52.539062 23.570313-52.539062 52.542969 0 28.96875 23.570312 52.539062 52.539062 52.539062 28.972657 0 52.542969-23.570312 52.542969-52.539062-.003906-28.972656-23.570312-52.542969-52.542969-52.542969zm0 99.082031c-25.660156 0-46.539062-20.878906-46.539062-46.539062 0-25.664063 20.878906-46.542969 46.539062-46.542969 25.664063 0 46.542969 20.878906 46.542969 46.542969-.003906 25.660156-20.878906 46.539062-46.542969 46.539062zm0 0"/><path d="m74.195312 21.609375c-1.65625 0-3 1.34375-3 3v99.082031c0 1.65625 1.34375 3 3 3 1.660157 0 3-1.34375 3-3v-99.082031c0-1.65625-1.34375-3-3-3zm0 0"/><path d="m123.734375 71.152344h-99.082031c-1.65625 0-3 1.34375-3 3s1.34375 3 3 3h99.082031c1.660156 0 3-1.34375 3-3s-1.339844-3-3-3zm0 0"/><path d="m111.347656 37c-1.171875-1.171875-3.070312-1.171875-4.242187 0l-70.0625 70.0625c-1.171875 1.171875-1.171875 3.070312 0 4.242188.585937.585937 1.355469.878906 2.121093.878906.769532 0 1.539063-.292969 2.125-.878906l70.0625-70.0625c1.167969-1.171876 1.167969-3.070313-.003906-4.242188zm0 0"/><path d="m111.347656 107.0625-70.0625-70.0625c-1.171875-1.171875-3.070312-1.171875-4.242187 0s-1.171875 3.070312 0 4.242188l70.0625 70.0625c.585937.585937 1.355469.878906 2.121093.878906.769532 0 1.539063-.292969 2.125-.878906 1.167969-1.171876 1.167969-3.070313-.003906-4.242188zm0 0"/></g><path d="m259.421875 52.921875h-38.28125c14.203125 21.179687 25.222656 47.898437 32.5 78h38.28125c-7.28125-30.101563-18.300781-56.820313-32.5-78zm0 0" fill="#decaad"/><path d="m293.242188 136.921875h-38.28125c5.859374 26.257813 8.839843 54.136719 8.839843 82.9375 0 50.78125-9.558593 99.902344-26.917969 138.300781-11.441406 25.320313-35.359374 43.28125-63.679687 48.917969 6.199219 1.242187 12.597656 1.882813 19.140625 1.882813 36.359375 0 68.878906-19.941407 82.816406-50.800782 17.363282-38.398437 26.921875-87.519531 26.921875-138.300781 0-28.800781-2.980469-56.679687-8.839843-82.9375zm0 0" fill="#b9c239"/></svg>