<svg height="452pt" viewBox="0 0 452 452.24645" width="452pt" xmlns="http://www.w3.org/2000/svg"><path d="m414 106.800781c-7.730469 0-14 6.269531-14 14 0 74.921875-78.203125 135.875-174.332031 135.875-96.125 0-174.332031-60.953125-174.332031-135.875 0-7.730469-6.269532-14-14-14-7.730469 0-14 6.269531-14 14 0 90.363281 90.765624 163.875 202.332031 163.875 111.570312 0 202.332031-73.515625 202.332031-163.875 0-7.730469-6.265625-14-14-14zm0 0" fill="#87796f"/><path d="m414 103.800781c-9.371094 0-17 7.628907-17 17 0 73.265625-76.859375 132.875-171.332031 132.875-94.46875 0-171.332031-59.609375-171.332031-132.875 0-9.371093-7.625-17-17-17s-17 7.628907-17 17c0 92.015625 92.113281 166.875 205.332031 166.875 113.222656 0 205.332031-74.859375 205.332031-166.875 0-9.371093-7.621094-17-17-17zm-188.332031 177.875c-109.910157 0-199.332031-72.167969-199.332031-160.875 0-6.066406 4.933593-11 11-11 6.066406 0 11 4.933594 11 11 0 76.574219 79.550781 138.875 177.332031 138.875 97.785156 0 177.332031-62.300781 177.332031-138.875 0-6.066406 4.9375-11 11-11 6.066406 0 11 4.933594 11 11 0 88.707031-89.417969 160.875-199.332031 160.875zm0 0" fill="#3a312a"/><path d="m93.734375 15.625c-18.109375 7.65625-33.25 25.5-40.347656 45.921875-3.199219-6.40625-5.074219-14.125-5.234375-22.859375-.230469-12.175781 2.882812-24.554688 8.390625-35.6875-16.6875 3.695312-33.566407 17.144531-44.035157 37.078125-16.09375 30.644531-10.957031 65.054687 11.472657 76.832031 22.4375 11.785156 53.667969-3.527344 69.761719-34.171875 12.832031-24.433593 12.171874-51.265625-.007813-67.113281zm0 0" fill="#f16c7a"/><path d="m96.117188 13.796875c-.832032-1.085937-2.292969-1.460937-3.546876-.9375-16.339843 6.90625-30.867187 22.101563-39.183593 40.589844-1.386719-4.546875-2.136719-9.503907-2.234375-14.820313-.210938-11.324218 2.582031-23.183594 8.078125-34.296875.511719-1.035156.386719-2.273437-.328125-3.183593-.707032-.90625-1.875-1.328126-3.007813-1.0781255-18.257812 4.0429685-35.472656 18.4804685-46.042969 38.6171875-8.078124 15.378906-11.28125 32.1875-9.023437 47.328125 2.3125 15.484375 10.039063 27.398437 21.753906 33.550781 5.515625 2.898438 11.578125 4.339844 17.914063 4.339844 7.132812 0 14.617187-1.832031 22.0625-5.476562 13.742187-6.730469 25.761718-18.910157 33.839844-34.296876 13.054687-24.859374 12.941406-53.125-.28125-70.335937zm-5.03125 67.546875c-7.492188 14.265625-18.558594 25.519531-31.167969 31.699219-12.292969 6.023437-24.5625 6.453125-34.542969 1.210937-9.980469-5.238281-16.589844-15.582031-18.613281-29.125-2.070313-13.890625.910156-29.394531 8.398437-43.65625 8.566406-16.308594 21.710938-28.535156 35.980469-33.765625-4.121094 10.179688-6.179687 20.792969-5.988281 31.035157.164062 8.984374 2.03125 17.109374 5.550781 24.144531.539063 1.082031 1.671875 1.742187 2.875 1.65625 1.203125-.078125 2.242187-.871094 2.640625-2.007813 6.683594-19.230468 20.539062-35.546875 36.507812-43.167968 10.429688 15.542968 9.863282 40.070312-1.640624 61.976562zm0 0" fill="#3a312a"/><path d="m438.832031 40.078125c-10.46875-19.933594-27.347656-33.382813-44.035156-37.074219 5.507813 11.132813 8.617187 23.507813 8.390625 35.683594-.164062 8.734375-2.035156 16.453125-5.234375 22.863281-7.097656-20.425781-22.242187-38.269531-40.347656-45.925781-12.183594 15.851562-12.839844 42.679688-.007813 67.117188 16.09375 30.644531 47.324219 45.953124 69.765625 34.171874 22.425781-11.78125 27.5625-46.1875 11.46875-76.835937zm0 0" fill="#f16c7a"/><path d="m441.488281 38.6875c-10.574219-20.136719-27.785156-34.570312-46.042969-38.6171875-1.128906-.2500005-2.296874.1718755-3.007812 1.0781255-.714844.910156-.84375 2.148437-.328125 3.183593 5.496094 11.113281 8.289063 22.972657 8.078125 34.296875-.097656 5.316406-.847656 10.273438-2.234375 14.820313-8.316406-18.488281-22.84375-33.683594-39.179687-40.589844-1.253907-.523437-2.714844-.148437-3.546876.9375-13.226562 17.210937-13.339843 45.476563-.285156 70.335937 8.078125 15.382813 20.097656 27.566407 33.839844 34.296876 7.441406 3.648437 14.925781 5.476562 22.058594 5.476562 6.339844 0 12.402344-1.445312 17.914062-4.339844 11.71875-6.152344 19.445313-18.066406 21.753906-33.550781 2.261719-15.140625-.941406-31.949219-9.019531-47.328125zm3.085938 46.441406c-2.019531 13.542969-8.628907 23.886719-18.609375 29.125-9.984375 5.238282-22.25 4.808594-34.546875-1.210937-12.605469-6.175781-23.671875-17.433594-31.164063-31.699219-11.503906-21.90625-12.066406-46.4375-1.644531-61.980469 15.96875 7.621094 29.828125 23.9375 36.511719 43.167969.394531 1.140625 1.433594 1.929688 2.636718 2.007812 1.214844.085938 2.34375-.574218 2.878907-1.652343 3.519531-7.039063 5.386719-15.164063 5.550781-24.148438.195312-10.242187-1.867188-20.851562-5.988281-31.035156 14.273437 5.234375 27.417969 17.460937 35.976562 33.769531 7.488281 14.261719 10.472657 29.765625 8.398438 43.65625zm0 0" fill="#3a312a"/><path d="m306.703125 97.273438c0-52.066407-36.28125-94.273438-81.035156-94.273438-44.753907 0-81.03125 42.207031-81.03125 94.273438 0 52.066406 36.277343 94.273437 81.03125 94.273437 44.753906 0 81.035156-42.207031 81.035156-94.273437zm0 0" fill="#f16c7a"/><path d="m225.667969 0c-46.335938 0-84.03125 43.636719-84.03125 97.273438 0 53.636718 37.695312 97.273437 84.03125 97.273437 46.335937 0 84.035156-43.636719 84.035156-97.273437 0-53.636719-37.699219-97.273438-84.035156-97.273438zm0 188.546875c-43.027344 0-78.03125-40.945313-78.03125-91.273437 0-50.328126 35.003906-91.273438 78.03125-91.273438 43.03125 0 78.035156 40.945312 78.035156 91.273438 0 50.328124-35.003906 91.273437-78.035156 91.273437zm0 0" fill="#3a312a"/><path d="m273.910156 143.769531h-96.480468c-18.410157 0-33.335938 14.921875-33.335938 33.332031 0 18.410157 14.925781 33.332032 33.335938 33.332032h96.480468c18.410156 0 33.332032-14.921875 33.332032-33.332032 0-18.410156-14.921876-33.332031-33.332032-33.332031zm0 0" fill="#f16c7a"/><path d="m273.910156 140.769531h-53.292968c-1.65625 0-3 1.339844-3 3 0 1.65625 1.34375 3 3 3h53.292968c16.726563 0 30.332032 13.605469 30.332032 30.332031 0 16.726563-13.605469 30.332032-30.332032 30.332032h-96.480468c-16.726563 0-30.335938-13.609375-30.335938-30.332032 0-16.722656 13.609375-30.332031 30.335938-30.332031h13.292968c1.660156 0 3-1.34375 3-3 0-1.660156-1.339844-3-3-3h-13.292968c-20.035157 0-36.335938 16.296875-36.335938 36.332031 0 20.035157 16.300781 36.332032 36.335938 36.332032h96.480468c20.035156 0 36.332032-16.296875 36.332032-36.332032 0-20.035156-16.296876-36.332031-36.332032-36.332031zm0 0" fill="#3a312a"/><path d="m289.578125 210.433594h-127.816406c-23.011719 0-41.667969 18.65625-41.667969 41.667968 0 23.011719 18.65625 41.664063 41.667969 41.664063h127.816406c23.011719 0 41.664063-18.652344 41.664063-41.664063 0-23.011718-18.652344-41.667968-41.664063-41.667968zm0 0" fill="#f16c7a"/><path d="m289.578125 207.433594h-127.816406c-24.628907 0-44.667969 20.039062-44.667969 44.667968 0 24.628907 20.039062 44.667969 44.667969 44.667969h40.160156c1.660156 0 3-1.34375 3-3 0-1.660156-1.339844-3-3-3h-40.160156c-21.320313 0-38.667969-17.347656-38.667969-38.667969 0-21.320312 17.347656-38.667968 38.667969-38.667968h127.816406c21.320313 0 38.664063 17.347656 38.664063 38.667968 0 21.324219-17.34375 38.667969-38.664063 38.667969h-57.496094c-1.65625 0-3 1.339844-3 3 0 1.65625 1.34375 3 3 3h57.496094c24.628906 0 44.664063-20.039062 44.664063-44.667969.003906-24.632812-20.035157-44.667968-44.664063-44.667968zm0 0" fill="#3a312a"/><path d="m273.910156 293.769531h-96.480468c-18.410157 0-33.335938 14.921875-33.335938 33.332031 0 18.410157 14.925781 33.335938 33.335938 33.335938h96.480468c18.410156 0 33.332032-14.925781 33.332032-33.335938 0-18.410156-14.921876-33.332031-33.332032-33.332031zm0 0" fill="#f16c7a"/><path d="m273.910156 290.769531h-41.828125c-1.65625 0-3 1.339844-3 3 0 1.65625 1.34375 3 3 3h41.828125c16.726563 0 30.332032 13.605469 30.332032 30.332031 0 16.726563-13.605469 30.335938-30.332032 30.335938h-96.480468c-16.726563 0-30.335938-13.609375-30.335938-30.335938 0-16.726562 13.609375-30.332031 30.335938-30.332031h24.492187c1.660156 0 3-1.34375 3-3 0-1.660156-1.339844-3-3-3h-24.492187c-20.035157 0-36.335938 16.296875-36.335938 36.332031 0 20.035157 16.300781 36.335938 36.335938 36.335938h96.480468c20.035156 0 36.332032-16.300781 36.332032-36.335938 0-20.035156-16.296876-36.332031-36.332032-36.332031zm0 0" fill="#3a312a"/><path d="m247.539062 360.433594h-43.742187c-21.160156 0-38.3125 17.15625-38.3125 38.3125v45.230468c0 4.382813 5.050781 6.839844 8.5 4.136719l48.441406-37.96875c1.90625-1.492187 4.582031-1.492187 6.488281 0l48.441407 37.96875c3.449219 2.703125 8.5.246094 8.5-4.136719v-45.230468c0-21.15625-17.15625-38.3125-38.316407-38.3125zm0 0" fill="#f16c7a"/><path d="m247.542969 357.433594h-43.742188c-22.78125 0-41.3125 18.535156-41.3125 41.3125v45.230468c0 3.1875 1.78125 6.03125 4.644531 7.425782 2.863282 1.398437 6.199219 1.039062 8.703126-.925782l48.441406-37.964843c.820312-.644531 1.964844-.644531 2.785156 0l48.441406 37.964843c1.492188 1.167969 3.277344 1.769532 5.082032 1.769532 1.226562 0 2.464843-.277344 3.625-.84375 2.863281-1.390625 4.644531-4.238282 4.644531-7.421875v-45.230469c0-22.785156-18.535157-41.316406-41.3125-41.316406zm35.3125 86.542968c0 1.273438-.890625 1.84375-1.273438 2.03125-.378906.183594-1.375.53125-2.378906-.253906l-48.441406-37.96875c-3-2.347656-7.1875-2.347656-10.1875 0l-48.4375 37.96875c-1.003907.785156-2 .4375-2.382813.253906-.378906-.1875-1.269531-.753906-1.269531-2.03125v-45.230468c0-19.472656 15.839844-35.3125 35.3125-35.3125h43.742187c19.472657 0 35.3125 15.839844 35.3125 35.3125v45.230468zm0 0" fill="#3a312a"/><g fill="#d34e5c"><path d="m273.910156 146.761719h-29.101562c16.742187 0 30.339844 13.617187 30.339844 30.339843 0 16.71875-13.597657 30.339844-30.339844 30.339844h29.101562c16.71875 0 30.339844-13.621094 30.339844-30.339844s-13.621094-30.339843-30.339844-30.339843zm0 0"/><path d="m289.570312 213.441406h-29.082031c21.320313 0 38.660157 17.339844 38.660157 38.660156 0 21.320313-17.339844 38.660157-38.660157 38.660157h29.082031c21.320313 0 38.679688-17.339844 38.679688-38.660157 0-21.320312-17.359375-38.660156-38.679688-38.660156zm0 0"/><path d="m273.910156 296.761719h-29.101562c16.742187 0 30.339844 13.617187 30.339844 30.339843 0 16.71875-13.597657 30.339844-30.339844 30.339844h29.101562c16.71875 0 30.339844-13.621094 30.339844-30.339844s-13.621094-30.339843-30.339844-30.339843zm0 0"/><path d="m247.550781 363.441406h-29.101562c19.460937 0 35.300781 15.839844 35.300781 35.300782v27.058593l25.460938 19.960938c1 .78125 2 .421875 2.378906.242187.378906-.183594 1.261718-.761718 1.261718-2.023437v-45.238281c0-19.460938-15.84375-35.300782-35.300781-35.300782zm0 0"/></g><path d="m184.726562 45.808594c-12.136718.375-24.546874-3.800782-33.960937-11.519532-9.414063-7.722656-15.957031-19.035156-17.949219-31.050781-.269531-1.632812-1.820312-2.734375-3.453125-2.464843-1.632812.269531-2.738281 1.816406-2.46875 3.449218 2.230469 13.425782 9.542969 26.078125 20.066407 34.707032 10.066406 8.253906 23.160156 12.90625 36.183593 12.90625.59375 0 1.1875-.011719 1.78125-.03125 1.65625-.050782 2.957031-1.4375 2.902344-3.09375-.058594-1.660157-1.429687-2.949219-3.101563-2.902344zm0 0" fill="#3a312a"/><path d="m321.984375.769531c-1.644531-.265625-3.179687.835938-3.453125 2.46875-1.992188 12.011719-8.535156 23.328125-17.949219 31.046875-9.417969 7.722656-21.804687 11.894532-33.960937 11.519532-1.675782-.046876-3.042969 1.246093-3.097656 2.902343-.054688 1.65625 1.246093 3.039063 2.898437 3.09375.597656.019531 1.1875.03125 1.78125.03125 13.023437 0 26.121094-4.652343 36.183594-12.90625 10.523437-8.628906 17.839843-21.28125 20.066406-34.707031.269531-1.632812-.832031-3.175781-2.46875-3.449219zm0 0" fill="#3a312a"/><path d="m193.765625 36.238281c-6.5625-.046875-11.921875 5.234375-11.96875 11.796875-.046875 6.558594 5.234375 11.917969 11.796875 11.964844s11.921875-5.234375 11.96875-11.796875-5.234375-11.917969-11.796875-11.964844zm0 0" fill="#87796f"/><path d="m193.667969 33.238281c-8.203125 0-14.878907 6.675781-14.878907 14.882813 0 8.207031 6.675782 14.882812 14.878907 14.882812 8.207031 0 14.882812-6.675781 14.882812-14.882812 0-8.207032-6.675781-14.882813-14.882812-14.882813zm0 23.765625c-4.894531 0-8.878907-3.984375-8.878907-8.882812 0-4.898438 3.984376-8.882813 8.878907-8.882813 4.898437 0 8.882812 3.984375 8.882812 8.882813 0 4.898437-3.984375 8.882812-8.882812 8.882812zm0 0" fill="#3a312a"/><path d="m261.503906 36.238281c-6.5625 0-11.882812 5.320313-11.882812 11.882813s5.320312 11.882812 11.882812 11.882812 11.882813-5.320312 11.882813-11.882812-5.320313-11.882813-11.882813-11.882813zm0 0" fill="#87796f"/><path d="m261.503906 33.238281c-8.207031 0-14.882812 6.675781-14.882812 14.882813 0 8.207031 6.675781 14.882812 14.882812 14.882812 8.207032 0 14.882813-6.675781 14.882813-14.882812 0-8.207032-6.675781-14.882813-14.882813-14.882813zm0 23.765625c-4.898437 0-8.882812-3.984375-8.882812-8.882812 0-4.898438 3.984375-8.882813 8.882812-8.882813 4.898438 0 8.882813 3.984375 8.882813 8.882813 0 4.898437-3.984375 8.882812-8.882813 8.882812zm0 0" fill="#3a312a"/><path d="m225.667969 6.003906c-3.738281 0-7.417969.296875-11 .898438 17.402343 2.898437 32.941406 12.519531 44.683593 26.519531.699219-.121094 1.417969-.179687 2.15625-.179687 7.203126 0 13.203126 5.140624 14.582032 11.941406 3.960937-.640625 7.839844-1.761719 11.558594-3.28125-14.277344-21.800782-36.738282-35.898438-61.980469-35.898438zm0 0" fill="#d34e5c"/><path d="m290.808594 47.101562c-4.71875 2.019532-9.679688 3.402344-14.757813 4.121094-.421875 2.058594-1.28125 3.9375-2.480469 5.597656 5.21875 12.203126 8.140626 25.921876 8.140626 40.460938 0 15.722656-3.441407 30.5625-9.480469 43.480469h1.679687c6.519532 0 12.640625 1.761719 17.941406 4.78125 7.5-14 11.859376-30.5625 11.859376-48.261719 0-18.539062-4.761719-35.777344-12.902344-50.179688zm0 0" fill="#d34e5c"/></svg>