<svg height="451pt" viewBox="-34 0 451 451.76" width="451pt" xmlns="http://www.w3.org/2000/svg"><path d="m69.796875 337.078125c-1.945313 23.128906-26.050781 26.777344-26.050781 26.777344 20.695312.972656 25.851562 28.117187 25.851562 28.117187.441406-19.351562 26.640625-28.402344 26.640625-28.402344-19.625-1.175781-26.441406-26.492187-26.441406-26.492187zm0 0" fill="#d7e057"/><path d="m96.421875 360.574219c-17.210937-1.027344-23.664063-24.046875-23.726563-24.28125-.382812-1.40625-1.734374-2.324219-3.167968-2.203125-1.453125.132812-2.597656 1.285156-2.71875 2.734375-1.71875 20.429687-22.628906 23.929687-23.511719 24.0625-1.523437.234375-2.625 1.582031-2.546875 3.125.078125 1.539062 1.3125 2.769531 2.855469 2.839843 18.054687.851563 22.996093 25.4375 23.042969 25.6875.277343 1.421876 1.519531 2.433594 2.945312 2.433594.085938 0 .171875-.003906.253906-.011718 1.527344-.125 2.714844-1.386719 2.75-2.917969.386719-17.019531 24.382813-25.554688 24.625-25.640625 1.347656-.464844 2.183594-1.828125 1.988282-3.242188-.195313-1.417968-1.363282-2.5-2.789063-2.585937zm-27.132813 20.691406c-2.714843-6.261719-7.417968-13.8125-15.175781-17.75 5.863281-2.8125 12.820313-7.828125 16.40625-16.546875 3.101563 6.140625 8.394531 13.757812 16.667969 17.445312-6.015625 3.277344-13.84375 8.808594-17.898438 16.851563zm0 0" fill="#3a312a"/><path d="m26.398438 371.039062c-1.375 16.355469-18.421876 18.941407-18.421876 18.941407 14.636719.6875 18.285157 19.886719 18.285157 19.886719.308593-13.6875 18.84375-20.089844 18.84375-20.089844-13.882813-.832032-18.707031-18.738282-18.707031-18.738282zm0 0" fill="#d7e057"/><path d="m45.28125 386.78125c-11.53125-.6875-15.941406-16.371094-15.984375-16.527344-.382813-1.40625-1.722656-2.332031-3.164063-2.203125-1.453124.128907-2.597656 1.285157-2.722656 2.734375-1.15625 13.742188-15.292968 16.132813-15.882812 16.226563-1.523438.230469-2.625 1.582031-2.546875 3.121093.082031 1.542969 1.316406 2.769532 2.859375 2.84375 12.066406.566407 15.445312 17.289063 15.476562 17.453126.269532 1.425781 1.519532 2.441406 2.945313 2.441406.082031 0 .164062-.003906.25-.011719 1.527343-.128906 2.714843-1.386719 2.75-2.921875.261719-11.417969 16.664062-17.265625 16.824219-17.324219 1.355468-.46875 2.1875-1.824219 1.992187-3.242187-.195313-1.421875-1.367187-2.503906-2.796875-2.589844zm-19.167969 13.589844c-1.847656-3.769532-4.679687-7.894532-8.894531-10.558594 3.710938-2.082031 7.394531-5.257812 9.742188-9.832031 2.113281 3.746093 5.308593 7.90625 9.882812 10.449219-3.699219 2.199218-7.976562 5.476562-10.730469 9.941406zm0 0" fill="#3a312a"/><path d="m26.398438 317.722656c-1.375 16.355469-18.421876 18.941406-18.421876 18.941406 14.636719.6875 18.285157 19.886719 18.285157 19.886719.308593-13.6875 18.84375-20.089843 18.84375-20.089843-13.882813-.828126-18.707031-18.738282-18.707031-18.738282zm0 0" fill="#d7e057"/><path d="m45.285156 333.46875c-11.53125-.691406-15.945312-16.371094-15.988281-16.53125-.382813-1.402344-1.722656-2.332031-3.164063-2.203125-1.453124.128906-2.597656 1.285156-2.722656 2.734375-1.15625 13.742188-15.292968 16.132812-15.882812 16.226562-1.523438.234376-2.625 1.582032-2.546875 3.121094.082031 1.542969 1.316406 2.773438 2.859375 2.84375 12.066406.566406 15.445312 17.289063 15.476562 17.453125.269532 1.425781 1.519532 2.4375 2.945313 2.4375.082031 0 .164062-.003906.25-.007812 1.527343-.128907 2.714843-1.386719 2.75-2.921875.261719-11.417969 16.664062-17.265625 16.824219-17.324219 1.351562-.46875 2.1875-1.824219 1.992187-3.242187-.195313-1.417969-1.367187-2.5-2.792969-2.585938zm-19.171875 13.589844c-1.847656-3.773438-4.679687-7.894532-8.894531-10.5625 3.714844-2.082032 7.394531-5.257813 9.742188-9.832032 2.113281 3.75 5.308593 7.910157 9.882812 10.449219-3.699219 2.199219-7.976562 5.480469-10.730469 9.945313zm0 0" fill="#3a312a"/><path d="m191.605469 327.558594c-6.878907 0-13.660157-.417969-20.300781-1.257813v41.976563c.101562 0 .199218-.011719.300781-.011719v31.230469c-.101563 0-.199219-.015625-.300781-.015625v49.28125h40.601562v-122.460938c-6.640625.839844-13.421875 1.257813-20.300781 1.257813zm0 0" fill="#87796f"/><path d="m213.890625 324.050781c-.648437-.570312-1.503906-.832031-2.359375-.726562-12.96875 1.640625-26.878906 1.640625-39.847656 0-.859375-.109375-1.714844.15625-2.359375.726562-.644531.566407-1.015625 1.386719-1.015625 2.25v41.976563c0 .804687.324218 1.578125.898437 2.144531.578125.558594 1.375.824219 2.160157.855469l.242187-.011719c1.65625 0 3-1.34375 3-3 0-.46875-.109375-.914063-.300781-1.308594v-37.292969c11.339844 1.1875 23.257812 1.1875 34.597656 0v116.097657h-34.597656v-44.90625c.210937-.410157.328125-.871094.328125-1.359375 0-1.65625-1.3125-3-2.964844-3-.058594-.003906-.25-.015625-.304687-.015625-.78125.039062-1.585938.292969-2.160157.859375-.574219.5625-.898437 1.335937-.898437 2.140625v49.28125c0 1.652343 1.339844 3 3 3h40.597656c1.660156 0 3-1.347657 3-3v-122.460938c0-.863281-.371094-1.683593-1.015625-2.25zm0 0" fill="#3a312a"/><path d="m193.539062 3.015625c-89.617187-1.074219-163.136718 70.703125-164.210937 160.320313-1.078125 89.617187 70.699219 163.136718 160.316406 164.210937 89.617188 1.078125 163.136719-70.699219 164.214844-160.316406 1.074219-89.617188-70.703125-163.136719-160.320313-164.214844zm0 0" fill="#f16c7a"/><path d="m191.605469 0c-91.136719 0-165.28125 74.144531-165.28125 165.285156 0 91.136719 74.144531 165.28125 165.28125 165.28125s165.28125-74.144531 165.28125-165.28125c0-91.140625-74.144531-165.285156-165.28125-165.285156zm0 324.5625c-87.828125 0-159.28125-71.453125-159.28125-159.28125s71.453125-159.285156 159.28125-159.285156 159.28125 71.457031 159.28125 159.285156-71.453125 159.28125-159.28125 159.28125zm0 0" fill="#3a312a"/><path d="m355.832031 136.070312h-328.453125c-13.253906 0-24 10.742188-24 24v10.421876c0 13.257812 10.746094 24 24 24h328.449219c13.257813 0 24-10.742188 24-24v-10.421876c.003906-13.257812-10.742187-24-23.996094-24zm0 0" fill="#fce8cb"/><path d="m355.832031 133.070312h-91.363281c-1.65625 0-3 1.34375-3 3s1.34375 3 3 3h91.363281c11.578125 0 21 9.417969 21 21v10.421876c0 11.582031-9.421875 21-21 21h-328.453125c-11.578125 0-21-9.417969-21-21v-10.421876c0-11.582031 9.421875-21 21-21h207.367188c1.65625 0 3-1.34375 3-3s-1.34375-3-3-3h-207.367188c-14.886718 0-27 12.113282-27 27v10.421876c0 14.890624 12.113282 27 27 27h328.453125c14.886719 0 27-12.109376 27-27v-10.421876c0-14.890624-12.113281-27-27-27zm0 0" fill="#3a312a"/><path d="m191.605469 6c-5.941407 0-11.820313.320312-17.597657.960938 68.859376 7.597656 124.636719 59.277343 138.417969 126.097656h35.179688c-14.941407-72.417969-79.199219-127.058594-156-127.058594zm0 0" fill="#d34e5c"/><path d="m312.425781 197.5c-13.78125 66.839844-69.558593 118.5-138.417969 126.101562 5.777344.636719 11.65625.957032 17.597657.957032 76.800781 0 141.058593-54.617188 156-127.054688h-35.179688zm0 0" fill="#d34e5c"/><path d="m355.824219 139.058594h-35.179688c11.582031 0 21 9.421875 21 21v10.445312c0 11.578125-9.417969 21-21 21h35.179688c11.582031 0 21-9.421875 21-21v-10.445312c0-11.578125-9.417969-21-21-21zm0 0" fill="#decaad"/></svg>