<svg height="452pt" viewBox="0 0 452.106 452" width="452pt" xmlns="http://www.w3.org/2000/svg"><path d="m64.820312 22.410156c-1.945312 23.125-26.046874 26.777344-26.046874 26.777344 20.695312.976562 25.851562 28.121094 25.851562 28.121094.441406-19.355469 26.640625-28.40625 26.640625-28.40625-19.625-1.175782-26.445313-26.492188-26.445313-26.492188zm0 0" fill="#d7e057"/><path d="m91.445312 45.90625c-17.207031-1.027344-23.664062-24.046875-23.726562-24.277344-.382812-1.40625-1.730469-2.324218-3.167969-2.203125-1.449219.132813-2.597656 1.285157-2.71875 2.734375-1.71875 20.429688-22.625 23.925782-23.507812 24.0625-1.527344.230469-2.625 1.582032-2.546875 3.121094s1.3125 2.765625 2.851562 2.839844c18.058594.851562 23 25.441406 23.046875 25.6875.273438 1.421875 1.519531 2.433594 2.945313 2.433594.082031 0 .167968-.003907.25-.007813 1.527344-.128906 2.714844-1.386719 2.75-2.917969.390625-17.019531 24.386718-25.554687 24.625-25.640625 1.351562-.46875 2.1875-1.828125 1.988281-3.242187-.191406-1.421875-1.359375-2.503906-2.789063-2.589844zm-27.132812 20.691406c-2.710938-6.257812-7.417969-13.8125-15.171875-17.75 5.863281-2.8125 12.816406-7.828125 16.402344-16.546875 3.101562 6.140625 8.398437 13.761719 16.667969 17.445313-6.011719 3.277344-13.84375 8.8125-17.898438 16.851562zm0 0" fill="#3a312a"/><path d="m21.425781 56.371094c-1.378906 16.359375-18.421875 18.941406-18.421875 18.941406 14.632813.6875 18.28125 19.886719 18.28125 19.886719.3125-13.6875 18.84375-20.089844 18.84375-20.089844-13.882812-.832031-18.703125-18.738281-18.703125-18.738281zm0 0" fill="#d7e057"/><path d="m40.308594 72.113281c-11.53125-.691406-15.945313-16.371093-15.988282-16.527343-.378906-1.40625-1.699218-2.335938-3.164062-2.203126-1.449219.128907-2.597656 1.28125-2.71875 2.734376-1.15625 13.742187-15.292969 16.132812-15.882812 16.226562-1.527344.230469-2.6250005 1.578125-2.5468755 3.121094.0820313 1.539062 1.3124995 2.769531 2.8554685 2.84375 12.070313.566406 15.445313 17.285156 15.476563 17.449218.269531 1.425782 1.519531 2.441407 2.945312 2.441407.082032 0 .167969-.003907.25-.011719 1.53125-.125 2.71875-1.386719 2.753906-2.921875.257813-11.417969 16.664063-17.265625 16.824219-17.324219 1.351563-.464844 2.1875-1.824218 1.992188-3.242187-.199219-1.417969-1.367188-2.5-2.796875-2.585938zm-19.167969 13.59375c-1.847656-3.773437-4.679687-7.894531-8.894531-10.5625 3.710937-2.082031 7.394531-5.257812 9.742187-9.832031 2.113281 3.75 5.308594 7.910156 9.882813 10.445312-3.699219 2.203126-7.980469 5.480469-10.730469 9.949219zm0 0" fill="#3a312a"/><path d="m21.425781 3.054688c-1.378906 16.359374-18.421875 18.941406-18.421875 18.941406 14.632813.6875 18.28125 19.890625 18.28125 19.890625.3125-13.691407 18.84375-20.089844 18.84375-20.089844-13.882812-.832031-18.703125-18.742187-18.703125-18.742187zm0 0" fill="#d7e057"/><path d="m40.308594 18.800781c-11.53125-.691406-15.945313-16.375-15.988282-16.53125-.378906-1.40625-1.703124-2.3359372-3.164062-2.2031248-1.453125.1289058-2.597656 1.2812498-2.71875 2.7343748-1.160156 13.742188-15.292969 16.132813-15.886719 16.226563-1.523437.230468-2.6249998 1.582031-2.5429685 3.121094.078125 1.539062 1.3124995 2.769531 2.8554685 2.84375 12.070313.566406 15.445313 17.285156 15.476563 17.449218.269531 1.425782 1.519531 2.441406 2.945312 2.441406.082032 0 .164063 0 .25-.007812 1.527344-.128906 2.714844-1.390625 2.75-2.925781.261719-11.417969 16.664063-17.265625 16.824219-17.320313 1.351563-.46875 2.1875-1.828125 1.992187-3.246094-.195312-1.414062-1.363281-2.496093-2.792968-2.582031zm-19.167969 13.589844c-1.847656-3.773437-4.679687-7.894531-8.894531-10.5625 3.710937-2.082031 7.394531-5.257813 9.742187-9.832031 2.113281 3.746094 5.308594 7.910156 9.882813 10.449218-3.699219 2.203126-7.980469 5.480469-10.730469 9.945313zm0 0" fill="#3a312a"/><path d="m387.175781 291.949219c-12.367187-7.539063-26.285156-14.1875-41.441406-19.75-14.753906-5.40625-30.667969-9.789063-47.46875-12.96875-13.300781-2.519531-27.160156-4.285157-41.445313-5.214844-7.789062-.523437-15.699218-.773437-23.722656-.773437-8.027344 0-15.9375.25-23.726562.773437-14.285156.929687-28.148438 2.695313-41.441406 5.214844-16.808594 3.179687-32.722657 7.5625-47.472657 12.96875-15.15625 5.5625-29.074219 12.210937-41.441406 19.75-38.320313 23.359375-61.929687 55.363281-61.929687 90.679687 0 71.46875 96.703124 65.75 216.011718 65.75s216.015625 5.71875 216.015625-65.75c-.003906-35.316406-23.617187-67.320312-61.9375-90.679687zm0 0" fill="#fce8cb"/><path d="m388.734375 289.390625c-12.582031-7.671875-26.699219-14.40625-41.96875-20.007813-15.0625-5.523437-31.195313-9.933593-47.945313-13.101562-13.539062-2.5625-27.605468-4.335938-41.800781-5.257812-15.453125-1.039063-32.410156-1.039063-47.847656-.003907-14.203125.925781-28.269531 2.699219-41.804687 5.261719-16.753907 3.167969-32.886719 7.574219-47.945313 13.097656-15.269531 5.601563-29.386719 12.335938-41.972656 20.007813-40.863281 24.910156-63.371094 58.019531-63.371094 93.242187 0 16.769532 5.003906 29.902344 15.292969 40.160156 29.253906 29.152344 95.328125 28.921876 178.996094 28.644532 16.226562-.054688 33.222656-.054688 49.449218 0 8.078125.027344 15.992188.054687 23.726563.054687 72.351562 0 128.839843-2.359375 155.269531-28.699219 10.292969-10.257812 15.292969-23.390624 15.292969-40.160156 0-35.21875-22.503907-68.332031-63.371094-93.238281zm43.84375 129.152344c-27.488281 27.390625-95.734375 27.15625-174.738281 26.890625-8.125-.027344-16.378906-.054688-24.746094-.054688-8.371094 0-16.625.027344-24.746094.054688-79.011718.277344-147.25.503906-174.742187-26.890625-9.101563-9.074219-13.527344-20.820313-13.527344-35.914063 0-33.046875 21.484375-64.339844 60.492187-88.117187 12.25-7.46875 26.019532-14.027344 40.914063-19.496094 14.753906-5.410156 30.566406-9.730469 47-12.839844 13.296875-2.519531 27.117187-4.257812 41.082031-5.167969 15.1875-1.019531 31.859375-1.019531 47.058594.003907 13.960938.910156 27.78125 2.648437 41.078125 5.164062 16.429687 3.109375 32.242187 7.429688 46.996094 12.839844 14.902343 5.46875 28.667969 12.03125 40.914062 19.496094 39.011719 23.777343 60.496094 55.070312 60.496094 88.117187-.003906 15.09375-4.425781 26.839844-13.53125 35.914063zm0 0" fill="#3a312a"/><path d="m79.011719 291.949219v72.902343c0 11.4375 9.28125 20.722657 20.71875 20.722657 11.457031 0 20.722656-9.285157 20.722656-20.722657v-92.652343c-15.15625 5.5625-29.074219 12.210937-41.441406 19.75zm0 0" fill="#87796f"/><path d="m122.171875 269.738281c-.804687-.5625-1.832031-.695312-2.75-.355469-15.265625 5.601563-29.386719 12.332032-41.96875 20.007813-.894531.542969-1.4375 1.515625-1.4375 2.558594v72.902343c0 13.082032 10.640625 23.722657 23.71875 23.722657 13.082031 0 23.722656-10.640625 23.722656-23.722657v-92.65625c-.003906-.976562-.484375-1.894531-1.285156-2.457031zm-4.71875 95.113281c0 9.773438-7.949219 17.722657-17.71875 17.722657-9.773437 0-17.722656-7.949219-17.722656-17.722657v-71.207031c10.761719-6.4375 22.660156-12.183593 35.441406-17.113281zm0 0" fill="#3a312a"/><path d="m167.925781 259.230469v105.621093c0 11.4375 9.265625 20.722657 20.71875 20.722657 11.4375 0 20.722657-9.285157 20.722657-20.722657v-110.835937c-14.285157.929687-28.144532 2.695313-41.441407 5.214844zm0 0" fill="#87796f"/><path d="m211.417969 251.828125c-.605469-.566406-1.417969-.863281-2.246094-.804687-14.203125.921874-28.269531 2.695312-41.804687 5.257812-1.417969.269531-2.441407 1.507812-2.441407 2.949219v105.621093c0 13.082032 10.636719 23.722657 23.71875 23.722657 13.078125 0 23.722657-10.640625 23.722657-23.722657v-110.835937c0-.828125-.34375-1.621094-.949219-2.1875zm-5.050781 113.023437c0 9.773438-7.949219 17.722657-17.722657 17.722657-9.769531 0-17.71875-7.949219-17.71875-17.722657v-103.125c11.523438-2.09375 23.421875-3.597656 35.441407-4.492187zm0 0" fill="#3a312a"/><path d="m256.820312 254.015625v110.835937c0 11.4375 9.285157 20.722657 20.722657 20.722657 11.453125 0 20.722656-9.285157 20.722656-20.722657v-105.621093c-13.300781-2.519531-27.160156-4.285157-41.445313-5.214844zm0 0" fill="#87796f"/><path d="m298.820312 256.28125c-13.539062-2.5625-27.605468-4.335938-41.804687-5.257812-.835937-.0625-1.640625.238281-2.246094.804687-.609375.566406-.953125 1.359375-.953125 2.1875v49.535156c0 1.660157 1.34375 3 3 3 1.660156 0 3-1.339843 3-3v-46.316406c12.023438.894531 23.917969 2.402344 35.445313 4.492187v103.128907c0 9.773437-7.953125 17.722656-17.722657 17.722656-9.773437 0-17.722656-7.949219-17.722656-17.722656v-30.523438c0-1.660156-1.339844-3-3-3-1.65625 0-3 1.339844-3 3v30.519531c0 13.082032 10.640625 23.722657 23.722656 23.722657 13.078126 0 23.722657-10.640625 23.722657-23.722657v-105.621093c0-1.441407-1.027344-2.679688-2.441407-2.949219zm0 0" fill="#3a312a"/><path d="m345.730469 272.199219v92.652343c0 11.4375 9.265625 20.722657 20.722656 20.722657 11.4375 0 20.722656-9.285157 20.722656-20.722657v-72.902343c-12.367187-7.539063-26.285156-14.1875-41.445312-19.75zm0 0" fill="#87796f"/><path d="m388.734375 289.390625c-12.582031-7.671875-26.699219-14.40625-41.96875-20.007813-.917969-.339843-1.949219-.207031-2.75.355469-.804687.5625-1.285156 1.480469-1.285156 2.457031v92.65625c0 13.082032 10.644531 23.722657 23.722656 23.722657 13.082031 0 23.722656-10.640625 23.722656-23.722657v-72.902343c0-1.042969-.546875-2.015625-1.441406-2.558594zm-4.558594 75.460937c0 9.773438-7.953125 17.722657-17.722656 17.722657s-17.722656-7.949219-17.722656-17.722657v-88.320312c12.785156 4.929688 24.683593 10.675781 35.445312 17.113281zm0 0" fill="#3a312a"/><path d="m379.789062 29.476562c-25.59375-24.335937-65.054687-29.277343-108.390624-17.597656-13.984376 3.769532-28.390626 9.273438-42.867188 16.425782-14.085938 6.960937-28.226562 15.476562-42.109375 25.464843-10.988281 7.902344-21.816406 16.730469-32.332031 26.445313-5.75 5.285156-11.382813 10.84375-16.910156 16.660156-5.53125 5.8125-10.796876 11.71875-15.789063 17.726562-9.167969 10.992188-17.4375 22.253907-24.773437 33.628907-9.277344 14.367187-17.066407 28.921875-23.3125 43.339843-6.410157 14.816407-11.183594 29.484376-14.238282 43.644532-9.476562 43.867187-2.550781 83.027344 23.042969 107.363281 51.796875 49.242187 114.285156-24.78125 196.492187-111.25 82.207032-86.464844 152.984376-152.609375 101.1875-201.851563zm0 0" fill="#fce8cb"/><path d="m381.859375 27.300781c-25.523437-24.265625-65.027344-30.773437-111.238281-18.316406-14.230469 3.832031-28.839844 9.425781-43.421875 16.628906-14.382813 7.113281-28.691407 15.769531-42.527344 25.722657-11.1875 8.046874-22.164063 17.019531-32.613281 26.671874-5.703125 5.242188-11.4375 10.894532-17.054688 16.800782-5.617187 5.90625-10.972656 11.921875-15.914062 17.871094-9.121094 10.933593-17.527344 22.347656-24.996094 33.921874-9.242188 14.320313-17.164062 29.046876-23.542969 43.777344-6.457031 14.921875-11.3125 29.792969-14.421875 44.199219-10.105468 46.777344-1.613281 85.90625 23.910156 110.171875 11.746094 11.164062 24.25 16.609375 38.1875 16.609375.484376 0 .972657-.007813 1.457032-.019531 41.285156-1.113282 86.652344-49.160156 144.089844-109.988282 5.574218-5.898437 11.238281-11.898437 17-17.957031 5.761718-6.0625 11.464843-12.023437 17.078124-17.882812 57.851563-60.433594 103.546876-108.171875 102.574219-149.457031-.339843-14.523438-6.414062-27.199219-18.566406-38.753907zm-88.339844 184.0625c-5.617187 5.871094-11.324219 11.832031-17.089843 17.898438-5.769532 6.066406-11.441407 12.070312-17.015626 17.976562-54.246093 57.449219-101.09375 107.0625-139.886718 108.105469-12.851563.308594-24.414063-4.539062-35.347656-14.9375-23.953126-22.769531-31.828126-59.902344-22.183594-104.558594 3.03125-14.023437 7.761718-28.519531 14.0625-43.085937 6.25-14.421875 14.011718-28.859375 23.082031-42.90625 7.332031-11.371094 15.597656-22.585938 24.5625-33.335938 4.863281-5.855469 10.128906-11.769531 15.652344-17.582031 5.523437-5.808594 11.164062-11.367188 16.769531-16.523438 10.277344-9.488281 21.0625-18.308593 32.050781-26.207031 13.570313-9.765625 27.597657-18.25 41.683594-25.214843 14.230469-7.03125 28.46875-12.488282 42.324219-16.21875 14.816406-3.996094 28.886718-5.96875 41.945312-5.96875 25.816406 0 47.691406 7.71875 63.59375 22.839843 10.941406 10.402344 16.40625 21.703125 16.707032 34.550781.914062 38.800782-46.273438 88.09375-100.910157 145.167969zm0 0" fill="#3a312a"/><path d="m140.457031 255.414062-67.152343-63.84375c-6.410157 14.820313-11.183594 29.488282-14.238282 43.644532l52.832032 50.230468c8.289062 7.882813 21.414062 7.550782 29.296874-.738281 7.894532-8.300781 7.546876-21.414062-.738281-29.292969zm0 0" fill="#87796f"/><path d="m142.523438 253.238281-67.148438-63.839843c-.714844-.675782-1.710938-.964844-2.667969-.765626-.960937.195313-1.761719.847657-2.152343 1.746094-6.457032 14.921875-11.3125 29.792969-14.421876 44.203125-.21875 1.023438.109376 2.085938.867188 2.808594l52.835938 50.234375c4.582031 4.355469 10.464843 6.515625 16.339843 6.515625 6.273438 0 12.539063-2.46875 17.195313-7.367187 9.011718-9.476563 8.632812-24.523438-.847656-33.535157zm-3.5 29.402344c-6.734376 7.085937-17.972657 7.367187-25.054688.632813l-51.609375-49.0625c2.75-12.238282 6.785156-24.820313 12.023437-37.476563l64.007813 60.855469c7.078125 6.730468 7.363281 17.96875.632813 25.050781zm0 0" fill="#3a312a"/><path d="m201.71875 190.976562-80.328125-76.375c-9.167969 10.996094-17.4375 22.253907-24.773437 33.628907l76.546874 72.777343c8.289063 7.882813 21.402344 7.5625 29.292969-.738281 7.882813-8.289062 7.550781-21.414062-.738281-29.292969zm0 0" fill="#87796f"/><path d="m203.789062 188.800781-80.328124-76.371093c-.601563-.570313-1.410157-.867188-2.242188-.820313-.828125.046875-1.597656.4375-2.128906 1.074219-9.117188 10.929687-17.527344 22.34375-24.992188 33.921875-.785156 1.210937-.589844 2.808593.453125 3.800781l76.546875 72.777344c4.445313 4.226562 10.222656 6.535156 16.332032 6.535156.203124 0 .40625-.003906.605468-.007812 6.335938-.160157 12.230469-2.777344 16.597656-7.371094 9.011719-9.484375 8.632813-24.527344-.84375-33.539063zm-3.503906 29.398438c-3.261718 3.4375-7.667968 5.390625-12.398437 5.511719-4.695313.125-9.222657-1.613282-12.65625-4.875l-74.738281-71.058594c6.421874-9.792969 13.527343-19.453125 21.164062-28.78125l77.996094 74.152344c3.429687 3.257812 5.382812 7.660156 5.503906 12.398437.117188 4.730469-1.613281 9.226563-4.871094 12.652344zm0 0" fill="#3a312a"/><path d="m262.96875 126.550781-76.546875-72.78125c-10.988281 7.902344-21.816406 16.730469-32.332031 26.445313l20.972656 19.941406 22.382812 21.28125 36.96875 35.148438c8.289063 7.878906 21.414063 7.546874 29.296876-.742188 7.894531-8.300781 7.550781-21.414062-.742188-29.292969zm0 0" fill="#87796f"/><path d="m265.039062 124.375-76.550781-72.777344c-1.042969-.992187-2.644531-1.101562-3.816406-.261718-11.1875 8.046874-22.164063 17.019531-32.617187 26.675781-.609376.5625-.960938 1.351562-.964844 2.179687-.003906.832032.332031 1.625.933594 2.199219l20.972656 19.941406c1.203125 1.144531 3.101562 1.097657 4.242187-.105469 1.144531-1.203124 1.097657-3.097656-.105469-4.242187l-18.644531-17.726563c8.933594-8.097656 18.21875-15.679687 27.675781-22.589843l74.742188 71.058593c7.078125 6.734376 7.367188 17.96875.632812 25.050782-6.734374 7.082031-17.972656 7.367187-25.054687.632812l-36.96875-35.144531c-1.203125-1.140625-3.101563-1.09375-4.242187.105469-1.144532 1.203125-1.09375 3.101562.105468 4.242187l36.96875 35.144531c4.582032 4.359376 10.464844 6.519532 16.339844 6.519532 6.273438 0 12.539062-2.46875 17.195312-7.363282 9.011719-9.480468 8.632813-24.523437-.84375-33.539062zm0 0" fill="#3a312a"/><path d="m324.234375 62.109375-52.832031-50.230469c-13.988282 3.769532-28.394532 9.273438-42.871094 16.425782l67.152344 63.839843c8.285156 7.878907 21.402344 7.5625 29.292968-.738281 7.878907-8.289062 7.546876-21.414062-.742187-29.296875zm0 0" fill="#87796f"/><path d="m326.300781 59.9375-52.832031-50.230469c-.757812-.722656-1.839844-.996093-2.847656-.722656-14.230469 3.832031-28.839844 9.425781-43.421875 16.628906-.878907.4375-1.488281 1.273438-1.636719 2.242188s.191406 1.949219.898438 2.625l67.152343 63.839843c4.582031 4.359376 10.464844 6.519532 16.339844 6.519532 6.273437 0 12.539063-2.46875 17.195313-7.363282 4.363281-4.589843 6.675781-10.609374 6.515624-16.945312-.15625-6.339844-2.773437-12.230469-7.363281-16.59375zm-3.5 29.402344c-6.734375 7.082031-17.972656 7.367187-25.054687.632812l-64.007813-60.859375c12.382813-5.867187 24.742188-10.53125 36.820313-13.894531l51.609375 49.066406c3.429687 3.261719 5.382812 7.660156 5.503906 12.394532.117187 4.738281-1.613281 9.230468-4.871094 12.660156zm0 0" fill="#3a312a"/><path d="m166.722656 365.03125c0 45.210938-36.648437 81.863281-81.859375 81.863281-45.210937 0-81.863281-36.652343-81.863281-81.863281s36.652344-81.863281 81.863281-81.863281c45.210938 0 81.859375 36.652343 81.859375 81.863281zm0 0" fill="#8ac6dd"/><path d="m84.863281 280.171875c-46.792969 0-84.863281 38.066406-84.863281 84.859375 0 46.796875 38.066406 84.863281 84.863281 84.863281 46.792969 0 84.859375-38.070312 84.859375-84.863281 0-46.789062-38.066406-84.859375-84.859375-84.859375zm0 163.722656c-43.484375 0-78.863281-35.378906-78.863281-78.863281s35.378906-78.859375 78.863281-78.859375 78.859375 35.375 78.859375 78.859375c0 43.488281-35.375 78.863281-78.859375 78.863281zm0 0" fill="#3a312a"/><path d="m99.078125 366.339844 25.683594-25.679688c3.902343-3.90625 3.902343-10.238281 0-14.140625-3.902344-3.90625-10.238281-3.90625-14.140625 0l-25.679688 25.679688-25.679687-25.679688c-3.902344-3.90625-10.238281-3.90625-14.140625 0-3.90625 3.902344-3.90625 10.234375 0 14.140625l25.679687 25.679688-25.679687 25.679687c-3.90625 3.902344-3.90625 10.234375 0 14.140625 1.949218 1.953125 4.511718 2.929688 7.070312 2.929688 2.554688 0 5.117188-.976563 7.070313-2.929688l25.679687-25.679687 25.679688 25.679687c1.949218 1.953125 4.511718 2.929688 7.070312 2.929688 2.554688 0 5.117188-.976563 7.070313-2.929688 3.902343-3.90625 3.902343-10.238281 0-14.140625zm0 0" fill="#87796f"/><path d="m103.320312 366.339844 23.558594-23.558594c2.457032-2.457031 3.808594-5.71875 3.808594-9.191406s-1.351562-6.738282-3.808594-9.191406c-2.453125-2.457032-5.71875-3.808594-9.191406-3.808594s-6.738281 1.351562-9.191406 3.808594l-23.558594 23.558593-23.558594-23.558593c-2.453125-2.460938-5.71875-3.8125-9.191406-3.8125s-6.738281 1.351562-9.191406 3.808593c-2.457032 2.453125-3.808594 5.71875-3.808594 9.191407 0 3.472656 1.351562 6.738281 3.808594 9.191406l23.558594 23.558594-23.558594 23.558593c-2.457032 2.453125-3.808594 5.71875-3.808594 9.191407 0 3.472656 1.351562 6.738281 3.808594 9.191406 2.453125 2.457031 5.71875 3.808594 9.191406 3.808594s6.738281-1.351563 9.191406-3.808594l23.558594-23.554688 23.558594 23.554688c2.453125 2.460937 5.71875 3.8125 9.191406 3.8125s6.738281-1.351563 9.191406-3.808594c2.457032-2.457031 3.808594-5.71875 3.808594-9.191406s-1.351562-6.738282-3.808594-9.191406zm19.316407 37.699218c-2.640625 2.644532-7.253907 2.644532-9.898438-.003906l-25.679687-25.679687c-.585938-.585938-1.351563-.875-2.121094-.875-.765625 0-1.535156.289062-2.121094.875l-25.679687 25.679687c-2.644531 2.644532-7.253907 2.648438-9.898438 0-1.324219-1.320312-2.050781-3.078125-2.050781-4.949218 0-1.867188.726562-3.625 2.050781-4.949219l25.679688-25.679688c1.171875-1.171875 1.171875-3.070312 0-4.242187l-25.679688-25.679688c-1.324219-1.320312-2.050781-3.078125-2.050781-4.949218 0-1.867188.726562-3.625 2.050781-4.949219 2.644531-2.644531 7.253907-2.644531 9.898438.003906l25.679687 25.679687c1.171875 1.171876 3.070313 1.171876 4.242188 0l25.679687-25.679687c2.644531-2.644531 7.253907-2.648437 9.898438 0 1.324219 1.324219 2.050781 3.082031 2.050781 4.949219 0 1.867187-.726562 3.625-2.050781 4.949218l-25.679688 25.679688c-1.171875 1.171875-1.171875 3.074219 0 4.242188l25.679688 25.679687c1.324219 1.324219 2.050781 3.082031 2.050781 4.949219 0 1.867187-.726562 3.625-2.050781 4.949218zm0 0" fill="#3a312a"/><path d="m84.859375 286.167969c-2.78125 0-5.519531.140625-8.242187.417969 39.621093 4.140624 70.601562 37.742187 70.601562 78.441406 0 40.71875-30.980469 74.300781-70.601562 78.441406 2.722656.277344 5.460937.417969 8.242187.417969 43.5 0 78.859375-35.359375 78.859375-78.859375 0-43.480469-35.359375-78.859375-78.859375-78.859375zm0 0" fill="#68a8bc"/><path d="m301.265625 262.925781v4.421875c4.941406 1.5 9.761719 3.140625 14.460937 4.859375 9.519532 3.480469 18.539063 7.398438 27 11.699219v-9.558594c-13.121093-4.699218-27.039062-8.519531-41.460937-11.421875zm0 0" fill="#decaad"/><path d="m390.164062 297.386719v20.519531c18.421876 19.019531 28.941407 41.140625 28.941407 64.722656 0 38.617188-28.257813 54.699219-73.078125 61.316406 39.136718-2.519531 70.117187-9.039062 86.558594-25.398437 9.101562-9.078125 13.519531-20.820313 13.519531-35.917969 0-31.722656-19.820313-61.84375-55.941407-85.242187zm0 0" fill="#decaad"/><path d="m348.726562 276.527344v10.558594c2.878907 1.5625 5.699219 3.179687 8.4375 4.859374 10.082032 6.140626 19.140626 12.882813 27 20.121094v-18.417968c-10.757812-6.441407-22.65625-12.179688-35.4375-17.121094zm0 0" fill="#695b51"/><path d="m377.726562 31.648438c-15.902343-15.121094-37.78125-22.839844-63.601562-22.839844-5.039062 0-10.238281.296875-15.578125.917968 19.359375 2.441407 35.917969 9.820313 48.660156 21.921876 10.9375 10.398437 16.398438 21.699218 16.699219 34.558593.917969 38.78125-46.261719 88.078125-100.898438 145.160157-5.621093 5.859374-11.320312 11.839843-17.101562 17.898437-5.761719 6.0625-11.441406 12.0625-17 17.980469-25.859375 27.359375-50.019531 52.941406-72.441406 72.339844 3.460937 5.402343 6.300781 11.199218 8.460937 17.339843 28.378907-19.699219 59.921875-53.097656 94.480469-89.679687 5.578125-5.917969 11.257812-11.917969 17.019531-17.980469 5.761719-6.058594 11.480469-12.039063 17.101563-17.898437 54.617187-57.082032 101.820312-106.378907 100.898437-145.160157-.300781-12.859375-5.761719-24.160156-16.699219-34.558593zm0 0" fill="#decaad"/></svg>