<svg height="450pt" viewBox="0 0 450 450.06327" width="450pt" xmlns="http://www.w3.org/2000/svg"><path d="m193.585938 129.097656c-1.945313 23.128906-26.046876 26.777344-26.046876 26.777344 20.695313.972656 25.851563 28.117188 25.851563 28.117188.441406-19.351563 26.640625-28.402344 26.640625-28.402344-19.628906-1.175782-26.445312-26.492188-26.445312-26.492188zm0 0" fill="#d7e057"/><path d="m220.210938 152.59375c-17.210938-1.03125-23.667969-24.046875-23.726563-24.28125-.382813-1.40625-1.707031-2.316406-3.167969-2.207031-1.453125.132812-2.597656 1.285156-2.71875 2.734375-1.71875 20.433594-22.625 23.929687-23.507812 24.066406-1.527344.230469-2.625 1.582031-2.546875 3.121094.078125 1.539062 1.3125 2.769531 2.855469 2.84375 18.054687.851562 23 25.4375 23.046874 25.6875.277344 1.421875 1.519532 2.433594 2.945313 2.433594.085937 0 .167969-.003907.253906-.011719 1.527344-.128907 2.714844-1.386719 2.75-2.917969.382813-17.019531 24.378907-25.554688 24.621094-25.640625 1.351563-.464844 2.183594-1.828125 1.988281-3.242187-.195312-1.417969-1.363281-2.5-2.792968-2.585938zm-27.132813 20.695312c-2.710937-6.265624-7.417969-13.816406-15.171875-17.753906 5.859375-2.8125 12.816406-7.828125 16.402344-16.546875 3.101562 6.140625 8.398437 13.761719 16.667968 17.445313-6.015624 3.28125-13.84375 8.808594-17.898437 16.855468zm0 0" fill="#3a312a"/><path d="m150.1875 163.058594c-1.375 16.355468-18.421875 18.9375-18.421875 18.9375 14.636719.6875 18.285156 19.890625 18.285156 19.890625.308594-13.6875 18.84375-20.089844 18.84375-20.089844-13.882812-.832031-18.707031-18.738281-18.707031-18.738281zm0 0" fill="#d7e057"/><path d="m169.074219 178.800781c-11.535157-.691406-15.945313-16.375-15.988281-16.53125-.378907-1.402343-1.722657-2.320312-3.164063-2.203125-1.449219.128906-2.597656 1.285156-2.722656 2.734375-1.15625 13.742188-15.289063 16.132813-15.882813 16.226563-1.527344.230468-2.628906 1.582031-2.546875 3.121094.082031 1.542968 1.316407 2.769531 2.855469 2.84375 12.070312.566406 15.449219 17.289062 15.480469 17.453124.269531 1.425782 1.515625 2.441407 2.945312 2.441407.082031 0 .167969-.003907.25-.011719 1.53125-.125 2.714844-1.386719 2.753907-2.921875.257812-11.417969 16.660156-17.265625 16.820312-17.320313 1.355469-.46875 2.1875-1.828124 1.992188-3.246093-.199219-1.417969-1.367188-2.5-2.792969-2.585938zm-19.171875 13.589844c-1.847656-3.769531-4.679688-7.894531-8.894532-10.558594 3.710938-2.082031 7.394532-5.261719 9.742188-9.835937 2.113281 3.75 5.308594 7.910156 9.882812 10.453125-3.699218 2.199219-7.976562 5.476562-10.730468 9.941406zm0 0" fill="#3a312a"/><path d="m150.1875 109.742188c-1.375 16.359374-18.421875 18.941406-18.421875 18.941406 14.636719.6875 18.285156 19.886718 18.285156 19.886718.308594-13.6875 18.84375-20.089843 18.84375-20.089843-13.882812-.832031-18.707031-18.738281-18.707031-18.738281zm0 0" fill="#d7e057"/><path d="m169.074219 125.488281c-11.535157-.691406-15.945313-16.375-15.988281-16.53125-.378907-1.40625-1.722657-2.320312-3.164063-2.207031-1.449219.132812-2.597656 1.289062-2.722656 2.738281-1.15625 13.742188-15.289063 16.132813-15.882813 16.226563-1.527344.230468-2.628906 1.582031-2.546875 3.121094.082031 1.542968 1.316407 2.769531 2.855469 2.839843 12.070312.570313 15.449219 17.292969 15.480469 17.457031.269531 1.425782 1.515625 2.4375 2.945312 2.4375.082031 0 .167969-.003906.25-.007812 1.53125-.128906 2.714844-1.386719 2.753907-2.921875.257812-11.417969 16.660156-17.265625 16.820312-17.324219 1.355469-.464844 2.1875-1.824218 1.992188-3.242187-.199219-1.417969-1.367188-2.5-2.792969-2.585938zm-19.171875 13.585938c-1.847656-3.769531-4.679688-7.894531-8.894532-10.558594 3.710938-2.082031 7.394532-5.257813 9.742188-9.832031 2.113281 3.746094 5.308594 7.910156 9.882812 10.449218-3.699218 2.199219-7.976562 5.476563-10.730468 9.941407zm0 0" fill="#3a312a"/><path d="m375.082031 26.792969c-1.960937-1.960938-3.980469-3.738281-6.097656-5.398438 12.398437 16.757813 12.058594 41.296875.238281 63.140625-3.800781 7.019532-8.757812 13.738282-14.878906 19.859375-6.019531 6.019531-12.621094 10.917969-19.519531 14.679688-21.902344 12-46.542969 12.417969-63.382813.058593 1.621094 2.082032 3.402344 4.082032 5.320313 6 41.800781 41.78125 41.800781 109.800782 0 151.601563-41.796875 41.800781-109.820313 41.800781-151.597657 0-1.921874-1.921875-3.921874-3.699219-6-5.320313 12.359376 16.839844 11.9375 41.480469-.0625 63.378907-3.757812 6.898437-8.660156 13.5-14.679687 19.519531-6.117187 6.121094-12.839844 11.082031-19.859375 14.878906-21.859375 11.820313-46.378906 12.160156-63.160156-.257812 1.660156 2.121094 3.460937 4.160156 5.421875 6.121094 96.019531 96.019531 252.238281 96.019531 348.257812 0 96.019531-96.019532 96.019531-252.242188 0-348.261719zm0 0" fill="#fce8cb"/><g fill="#3a312a"><path d="m377.203125 24.671875c-2.015625-2.019531-4.101563-3.863281-6.371094-5.640625-1.179687-.925781-2.867187-.835938-3.941406.210938-1.074219 1.046874-1.210937 2.726562-.320313 3.933593 11.558594 15.625 11.566407 38.585938.015626 59.929688-3.765626 6.953125-8.597657 13.398437-14.363282 19.164062-5.695312 5.695313-12.03125 10.460938-18.839844 14.171875-21.382812 11.714844-44.4375 11.816406-60.164062.273438-1.207031-.886719-2.886719-.746094-3.929688.328125-1.042968 1.074219-1.132812 2.753906-.214843 3.933593 1.671875 2.140626 3.542969 4.253907 5.566406 6.277344 19.648437 19.640625 30.472656 45.804688 30.472656 73.671875 0 27.871094-10.824219 54.039063-30.472656 73.6875-19.648437 19.648438-45.816406 30.46875-73.6875 30.46875-27.867187 0-54.03125-10.820312-73.671875-30.46875-2.023438-2.027343-4.132812-3.894531-6.277344-5.566406-1.179687-.917969-2.859375-.828125-3.933594.214844-1.074218 1.042969-1.214843 2.71875-.328124 3.925781 11.542968 15.734375 11.441406 38.789062-.277344 60.171875-3.707032 6.804687-8.472656 13.140625-14.164063 18.832031-5.769531 5.769532-12.214843 10.601563-19.167969 14.363282-21.351562 11.546874-44.316406 11.535156-59.949218-.03125-1.207032-.894532-2.890625-.757813-3.933594.320312-1.046875 1.074219-1.136719 2.757812-.210938 3.941406 1.75 2.238282 3.65625 4.386719 5.660157 6.390625 48.589843 48.59375 112.421875 72.886719 176.25 72.886719s127.660156-24.292969 176.25-72.886719c97.191406-97.1875 97.191406-255.320312.003906-352.503906zm-4.238281 348.257813c-92.773438 92.769531-242.445313 94.796874-337.703125 6.097656 15.394531 4.453125 33.601562 2.066406 50.730469-7.199219 7.460937-4.039063 14.375-9.21875 20.550781-15.394531 6.097656-6.097656 11.207031-12.894532 15.191406-20.199219 9.605469-17.535156 11.996094-36.226563 7.179687-51.914063 19.980469 17.316407 45.265626 26.761719 72.039063 26.761719 29.472656 0 57.148437-11.445312 77.929687-32.230469 20.785157-20.78125 32.230469-48.457031 32.230469-77.925781 0-26.777343-9.449219-52.058593-26.761719-72.042969 15.679688 4.816407 34.375 2.425782 51.90625-7.175781 7.308594-3.984375 14.105469-9.097656 20.203126-15.195312 6.175781-6.175781 11.359374-13.089844 15.398437-20.550781 9.265625-17.125 11.660156-35.324219 7.207031-50.714844 88.691406 95.261718 86.660156 244.921875-6.101562 337.683594zm0 0"/><path d="m371.730469 82.882812c-.578125-.878906-1.566407-1.390624-2.632813-1.347656-1.054687.046875-2.007812.640625-2.511718 1.570313-3.761719 6.953125-8.597657 13.398437-14.363282 19.164062-5.695312 5.695313-12.03125 10.460938-18.839844 14.171875-21.382812 11.714844-44.433593 11.816406-60.164062.273438-1.207031-.886719-2.882812-.746094-3.929688.328125-1.042968 1.074219-1.132812 2.753906-.210937 3.933593 1.667969 2.140626 3.539063 4.253907 5.566406 6.277344 19.648438 19.640625 30.46875 45.804688 30.46875 73.671875 0 27.871094-10.820312 54.039063-30.46875 73.6875-19.648437 19.648438-45.820312 30.472657-73.6875 30.472657-27.867187 0-54.03125-10.824219-73.671875-30.472657-2.023437-2.027343-4.136718-3.894531-6.277344-5.566406-1.183593-.917969-2.859374-.828125-3.933593.214844s-1.214844 2.71875-.328125 3.925781c11.542968 15.734375 11.4375 38.789062-.277344 60.171875-3.710938 6.804687-8.476562 13.140625-14.167969 18.832031-5.765625 5.769532-12.214843 10.601563-19.164062 14.363282-.929688.503906-1.527344 1.453124-1.570313 2.511718-.046875 1.054688.464844 2.054688 1.347656 2.632813 33.480469 22.042969 72.570313 33.855469 113.039063 34.160156h.027344c1.644531 0 2.988281-1.328125 3-2.976563.011719-1.65625-1.320313-3.011718-2.976563-3.023437-37.667968-.285156-74.097656-10.824219-105.683594-30.535156 5.820313-3.601563 11.261719-7.921875 16.222657-12.886719 6.097656-6.097656 11.207031-12.894531 15.191406-20.199219 9.605469-17.535156 11.996094-36.226562 7.179687-51.914062 19.980469 17.316406 45.265626 26.761719 72.039063 26.761719 29.472656 0 57.148437-11.445313 77.929687-32.230469 20.785157-20.78125 32.230469-48.457031 32.230469-77.925781 0-26.777344-9.449219-52.0625-26.761719-72.042969 15.679688 4.816406 34.375 2.425781 51.90625-7.175781 7.308594-3.984376 14.105469-9.09375 20.203126-15.195313 4.964843-4.960937 9.285156-10.402344 12.886718-16.222656 49.550782 79.390625 37.851563 183.9375-28.628906 250.398437-31.351562 31.363282-71.136719 51.164063-115.0625 57.273438-1.640625.226562-2.789062 1.742187-2.558594 3.382812.226563 1.640625 1.730469 2.785156 3.386719 2.558594 45.230469-6.289062 86.199219-26.679688 118.476563-58.972656 69.640624-69.617188 80.898437-179.824219 26.769531-262.050782zm0 0"/><path d="m354.609375 195.03125c.949219.140625 1.929687-.1875 2.597656-.875.5625-.582031.871094-1.367188.847657-2.179688-.777344-26.082031-7.902344-51.800781-20.617188-74.378906-.804688-1.429687-2.617188-1.941406-4.054688-1.15625-21.382812 11.714844-44.433593 11.816406-60.164062.273438-1.207031-.886719-2.882812-.746094-3.929688.328125-1.042968 1.074219-1.132812 2.753906-.210937 3.933593 1.667969 2.140626 3.539063 4.253907 5.566406 6.277344 19.648438 19.640625 30.46875 45.804688 30.46875 73.671875 0 27.871094-10.820312 54.039063-30.46875 73.6875-19.652343 19.648438-45.820312 30.46875-73.6875 30.46875-27.867187 0-54.03125-10.820312-73.671875-30.46875-2.023437-2.027343-4.136718-3.894531-6.277344-5.566406-1.183593-.917969-2.859374-.828125-3.933593.214844s-1.214844 2.71875-.328125 3.925781c11.542968 15.734375 11.4375 38.789062-.273438 60.164062-.792968 1.445313-.277344 3.25 1.15625 4.054688 24.667969 13.894531 51.894532 20.648438 78.964844 20.648438 41.878906-.003907 83.375-16.179688 114.347656-47.140626 23.835938-23.84375 39.378906-54.015624 44.945313-87.253906.273437-1.636718-.832031-3.183594-2.464844-3.457031-1.644531-.269531-3.179687.832031-3.453125 2.460937-5.359375 32.003907-20.320312 61.050782-43.269531 84.007813-48.410157 48.390625-123.496094 59.265625-183.574219 26.910156 8.4375-16.75 10.363281-34.359375 5.789062-49.261719 19.980469 17.316407 45.265626 26.761719 72.039063 26.761719 29.472656 0 57.148437-11.445312 77.929687-32.230469 20.785157-20.78125 32.226563-48.457031 32.226563-77.925781 0-26.773437-9.445313-52.0625-26.757813-72.042969 14.898438 4.578126 32.507813 2.644532 49.261719-5.789062 11.316407 21.039062 17.679688 44.761719 18.433594 68.816406-.003906.046875-.003906.097656-.003906.148438 0 1.511718 1.117187 2.761718 2.566406 2.972656zm0 0"/></g><path d="m114.800781 266.328125c-21.429687-21.425781-60.816406-16.78125-87.976562 10.378906-27.160157 27.160157-31.808594 66.546875-10.378907 87.976563 21.429688 21.429687 60.816407 16.785156 87.976563-10.375s31.808594-66.550782 10.378906-87.980469zm0 0" fill="#fce8cb"/><path d="m116.925781 264.210938c-22.5625-22.566407-63.933593-17.910157-92.222656 10.375-28.285156 28.289062-32.941406 69.65625-10.375 92.222656 9.621094 9.621094 22.664063 14.292968 36.65625 14.292968 18.8125 0 39.34375-8.449218 55.566406-24.671874 28.285157-28.289063 32.941407-69.65625 10.375-92.21875zm-14.617187 87.976562c-25.949219 25.945312-63.507813 30.605469-83.738282 10.378906-20.222656-20.226562-15.570312-57.792968 10.375-83.738281 15.074219-15.074219 34.066407-22.957031 51.304688-22.957031 12.433594 0 23.957031 4.105468 32.433594 12.582031 20.226562 20.222656 15.570312 57.785156-10.375 83.734375zm0 0" fill="#3a312a"/><path d="m364.714844 16.421875c-21.429688-21.429687-60.820313-16.785156-87.976563 10.375-27.160156 27.160156-31.808593 66.550781-10.378906 87.980469 21.429687 21.425781 60.816406 16.78125 87.976563-10.378906 27.160156-27.160157 31.804687-66.550782 10.378906-87.976563zm0 0" fill="#fce8cb"/><path d="m366.839844 14.296875c-22.5625-22.566406-63.9375-17.910156-92.222656 10.375-28.285157 28.289063-32.941407 69.65625-10.375 92.222656 9.621093 9.621094 22.664062 14.292969 36.65625 14.292969 18.8125 0 39.34375-8.449219 55.5625-24.671875 28.289062-28.285156 32.945312-69.65625 10.378906-92.21875zm-14.621094 87.976563c-25.949219 25.945312-63.507812 30.605468-83.734375 10.378906-20.226563-20.226563-15.570313-57.789063 10.375-83.738282 15.074219-15.070312 34.0625-22.957031 51.300781-22.957031 12.433594 0 23.957032 4.109375 32.4375 12.582031 20.226563 20.222657 15.566406 57.789063-10.378906 83.734376zm0 0" fill="#3a312a"/><path d="m378.964844 35.152344c2.296875 8.058594 2.738281 16.878906 1.359375 25.839844 28.679687 40.640624 44.140625 89.058593 44.140625 139.9375 0 65.042968-25.261719 126.140624-71.140625 172-43.621094 43.621093-100.980469 68.601562-162.421875 70.941406 3.339844.140625 6.699218.199218 10.0625.199218 65.039062 0 126.136718-25.257812 172-71.140624 45.878906-45.859376 71.136718-106.957032 71.136718-172 0-62.160157-23.078124-120.675782-65.136718-165.777344zm0 0" fill="#decaad"/><path d="m112.683594 268.453125c-8.480469-8.480469-20-12.582031-32.4375-12.582031-3.320313 0-6.679688.300781-10.082032.859375 8.722657 1.601562 16.621094 5.460937 22.878907 11.722656 20.222656 20.21875 15.5625 57.777344-10.378907 83.738281-12.160156 12.160156-26.898437 19.660156-41.21875 22.101563 19.460938 3.578125 42.941407-4.183594 60.859376-22.101563 25.941406-25.960937 30.597656-63.519531 10.378906-83.738281zm0 0" fill="#decaad"/><path d="m362.601562 18.53125c-8.480468-8.460938-20-12.578125-32.4375-12.578125-3.300781 0-6.660156.277344-10.042968.878906 8.703125 1.597657 16.601562 5.480469 22.84375 11.699219 20.21875 20.238281 15.558594 57.800781-10.382813 83.738281-12.179687 12.160157-26.917969 19.660157-41.21875 22.101563 19.460938 3.582031 42.941407-4.179688 60.859375-22.101563 25.941406-25.9375 30.601563-63.5 10.378906-83.738281zm0 0" fill="#decaad"/></svg>