<svg height="452pt" viewBox="0 -21 452.15029 452" width="452pt" xmlns="http://www.w3.org/2000/svg"><path d="m64.820312 22.429688c-1.949218 23.125-26.050781 26.777343-26.050781 26.777343 20.695313.976563 25.851563 28.121094 25.851563 28.121094.441406-19.355469 26.640625-28.40625 26.640625-28.40625-19.625-1.171875-26.441407-26.492187-26.441407-26.492187zm0 0" fill="#d7e057"/><path d="m91.445312 45.925781c-17.210937-1.03125-23.664062-24.046875-23.726562-24.28125-.378906-1.402343-1.703125-2.324219-3.167969-2.203125-1.449219.132813-2.597656 1.28125-2.71875 2.734375-1.71875 20.429688-22.625 23.925781-23.507812 24.066407-1.527344.226562-2.628907 1.578124-2.546875 3.121093.078125 1.539063 1.3125 2.765625 2.855468 2.839844 18.054688.851563 22.996094 25.4375 23.042969 25.683594.277344 1.421875 1.519531 2.4375 2.945313 2.4375.085937 0 .167968-.003907.253906-.011719 1.527344-.128906 2.714844-1.386719 2.75-2.917969.386719-17.015625 24.382812-25.554687 24.625-25.636719 1.351562-.472656 2.183594-1.828124 1.984375-3.246093s-1.363281-2.5-2.789063-2.585938zm-27.136718 20.695313c-2.710938-6.261719-7.417969-13.816406-15.171875-17.753906 5.863281-2.808594 12.816406-7.828126 16.402343-16.546876 3.101563 6.140626 8.398438 13.761719 16.667969 17.445313-6.011719 3.28125-13.84375 8.8125-17.898437 16.855469zm0 0" fill="#3a312a"/><path d="m21.421875 56.390625c-1.378906 16.359375-18.421875 18.941406-18.421875 18.941406 14.632812.6875 18.28125 19.886719 18.28125 19.886719.3125-13.6875 18.84375-20.089844 18.84375-20.089844-13.878906-.832031-18.703125-18.738281-18.703125-18.738281zm0 0" fill="#d7e057"/><path d="m40.304688 72.132812c-11.53125-.6875-15.945313-16.371093-15.988282-16.527343-.378906-1.40625-1.71875-2.328125-3.164062-2.207031-1.449219.132812-2.597656 1.289062-2.71875 2.738281-1.15625 13.742187-15.292969 16.132812-15.882813 16.226562-1.527343.230469-2.628906 1.582031-2.54687475 3.121094.08203125 1.542969 1.31249975 2.769531 2.85546875 2.84375 12.070313.566406 15.445313 17.289063 15.476563 17.453125.273437 1.421875 1.519531 2.4375 2.945312 2.4375.082031 0 .167969 0 .25-.007812 1.53125-.125 2.71875-1.386719 2.753906-2.921876.257813-11.421874 16.660156-17.269531 16.824219-17.324218 1.351563-.46875 2.183594-1.828125 1.992187-3.246094-.199218-1.417969-1.371093-2.5-2.796874-2.585938zm-19.171876 13.589844c-1.847656-3.769531-4.679687-7.890625-8.890624-10.554687 3.710937-2.085938 7.394531-5.261719 9.738281-9.835938 2.117187 3.75 5.308593 7.910157 9.882812 10.445313-3.695312 2.203125-7.976562 5.480468-10.730469 9.945312zm0 0" fill="#3a312a"/><path d="m21.421875 3.078125c-1.378906 16.355469-18.421875 18.9375-18.421875 18.9375 14.632812.691406 18.28125 19.886719 18.28125 19.886719.3125-13.6875 18.84375-20.089844 18.84375-20.089844-13.878906-.832031-18.703125-18.734375-18.703125-18.734375zm0 0" fill="#d7e057"/><path d="m40.304688 18.820312c-11.53125-.691406-15.945313-16.371093-15.988282-16.53125-.378906-1.402343-1.71875-2.3281245-3.164062-2.2031245-1.449219.1289065-2.597656 1.2851565-2.71875 2.7382815-1.15625 13.738281-15.292969 16.132812-15.882813 16.226562-1.527343.230469-2.628906 1.578125-2.54687475 3.121094.08203125 1.539063 1.31249975 2.769531 2.85546875 2.84375 12.070313.566406 15.445313 17.285156 15.476563 17.449219.273437 1.425781 1.519531 2.441406 2.945312 2.441406.082031 0 .167969-.003906.25-.011719 1.53125-.125 2.71875-1.386719 2.753906-2.921875.257813-11.417968 16.660156-17.265625 16.824219-17.324218 1.351563-.464844 2.183594-1.824219 1.992187-3.242188-.199218-1.417969-1.371093-2.5-2.796874-2.585938zm-19.171876 13.589844c-1.847656-3.769531-4.679687-7.894531-8.890624-10.558594 3.710937-2.082031 7.394531-5.257812 9.738281-9.832031 2.117187 3.746094 5.308593 7.90625 9.882812 10.445313-3.695312 2.203125-7.976562 5.480468-10.730469 9.945312zm0 0" fill="#3a312a"/><path d="m304.363281 75.804688h-156.183593c-15.332032 0-27.761719 12.429687-27.761719 27.761718 0 15.332032 12.425781 27.761719 27.761719 27.761719h156.183593c15.332031 0 27.761719-12.429687 27.761719-27.761719 0-15.332031-12.429688-27.761718-27.761719-27.761718zm0 0" fill="#f16c7a"/><path d="m304.363281 72.804688h-43.234375c-1.65625 0-3 1.339843-3 3 0 1.65625 1.34375 3 3 3h43.234375c13.65625 0 24.761719 11.109374 24.761719 24.757812 0 13.65625-11.105469 24.765625-24.761719 24.765625h-156.183593c-13.652344 0-24.761719-11.109375-24.761719-24.765625 0-13.652344 11.109375-24.757812 24.761719-24.757812h82.84375c1.65625 0 3-1.34375 3-3 0-1.660157-1.34375-3-3-3h-82.84375c-16.964844 0-30.761719 13.796874-30.761719 30.757812 0 16.964844 13.796875 30.765625 30.761719 30.765625h156.183593c16.964844 0 30.761719-13.800781 30.761719-30.765625 0-16.957031-13.796875-30.757812-30.761719-30.757812zm0 0" fill="#3a312a"/><path d="m290.90625 131.328125h-129.273438c-11.203124 0-20.289062 9.085937-20.289062 20.292969v14.9375c0 11.207031 9.082031 20.292968 20.289062 20.292968h129.273438c11.207031 0 20.289062-9.082031 20.289062-20.292968v-14.9375c.003907-11.207032-9.082031-20.292969-20.289062-20.292969zm0 0" fill="#fce8cb"/><path d="m290.90625 128.328125h-129.273438c-12.839843 0-23.289062 10.449219-23.289062 23.292969v14.9375c0 12.84375 10.449219 23.292968 23.289062 23.292968h129.273438c12.84375 0 23.289062-10.449218 23.289062-23.292968v-14.9375c0-12.84375-10.445312-23.292969-23.289062-23.292969zm17.289062 38.230469c0 9.535156-7.753906 17.292968-17.289062 17.292968h-129.273438c-9.535156 0-17.289062-7.757812-17.289062-17.292968v-14.941406c0-9.53125 7.757812-17.289063 17.289062-17.289063h129.273438c9.535156 0 17.289062 7.753906 17.289062 17.289063zm0 0" fill="#3a312a"/><path d="m304.363281 186.851562h-156.183593c-15.332032 0-27.761719 12.429688-27.761719 27.761719s12.425781 27.757813 27.761719 27.757813h156.183593c15.332031 0 27.761719-12.425782 27.761719-27.757813s-12.429688-27.761719-27.761719-27.761719zm0 0" fill="#f16c7a"/><path d="m304.363281 183.851562h-156.183593c-16.964844 0-30.761719 13.796876-30.761719 30.757813 0 16.964844 13.796875 30.761719 30.761719 30.761719h156.183593c16.964844 0 30.761719-13.796875 30.761719-30.761719 0-16.960937-13.796875-30.757813-30.761719-30.757813zm0 55.519532h-156.183593c-13.65625 0-24.761719-11.105469-24.761719-24.761719 0-13.652344 11.105469-24.757813 24.761719-24.757813h156.183593c13.65625 0 24.761719 11.105469 24.761719 24.757813 0 13.65625-11.105469 24.761719-24.761719 24.761719zm0 0" fill="#3a312a"/><path d="m187.339844 240.949219h-156.1875c-15.332032 0-27.761719 12.429687-27.761719 27.761719 0 15.332031 12.429687 27.761718 27.761719 27.761718h156.1875c15.332031 0 27.761718-12.425781 27.761718-27.761718-.003906-15.332032-12.429687-27.761719-27.761718-27.761719zm0 0" fill="#8ac6dd"/><path d="m187.339844 237.949219h-104.222656c-1.65625 0-3 1.34375-3 3s1.34375 3 3 3h104.21875c13.652343 0 24.761718 11.109375 24.761718 24.761719 0 13.652343-11.109375 24.761718-24.761718 24.761718h-156.183594c-13.652344 0-24.761719-11.109375-24.761719-24.761718 0-13.652344 11.109375-24.761719 24.761719-24.761719h21.878906c1.65625 0 3-1.34375 3-3s-1.34375-3-3-3h-21.878906c-16.964844 0-30.761719 13.800781-30.761719 30.761719 0 16.964843 13.796875 30.761718 30.761719 30.761718h156.1875c16.957031 0 30.757812-13.796875 30.757812-30.761718 0-16.960938-13.800781-30.761719-30.757812-30.761719zm0 0" fill="#3a312a"/><path d="m173.878906 296.472656h-129.269531c-11.207031 0-20.292969 9.082032-20.292969 20.289063v14.941406c0 11.207031 9.082032 20.292969 20.292969 20.292969h129.269531c11.207032 0 20.292969-9.085938 20.292969-20.292969v-14.941406c0-11.207031-9.085937-20.289063-20.292969-20.289063zm0 0" fill="#fce8cb"/><path d="m173.878906 293.472656h-129.269531c-12.839844 0-23.292969 10.449219-23.292969 23.289063v14.941406c0 12.84375 10.453125 23.292969 23.292969 23.292969h129.273437c12.839844 0 23.292969-10.453125 23.292969-23.292969v-14.941406c-.003906-12.839844-10.453125-23.289063-23.296875-23.289063zm17.292969 38.230469c0 9.535156-7.753906 17.292969-17.292969 17.292969h-129.269531c-9.535156 0-17.292969-7.761719-17.292969-17.292969v-14.941406c0-9.535157 7.757813-17.289063 17.292969-17.289063h129.273437c9.535157 0 17.292969 7.753906 17.292969 17.289063v14.941406zm0 0" fill="#3a312a"/><path d="m187.339844 351.996094h-156.1875c-15.332032 0-27.761719 12.429687-27.761719 27.761718 0 15.332032 12.429687 27.761719 27.761719 27.761719h156.1875c15.332031 0 27.761718-12.429687 27.761718-27.761719-.003906-15.332031-12.429687-27.761718-27.761718-27.761718zm0 0" fill="#8ac6dd"/><path d="m187.339844 348.996094h-156.1875c-16.964844 0-30.761719 13.796875-30.761719 30.761718 0 16.960938 13.796875 30.761719 30.761719 30.761719h156.1875c16.957031 0 30.757812-13.800781 30.757812-30.761719 0-16.964843-13.800781-30.761718-30.757812-30.761718zm0 55.519531h-156.1875c-13.652344 0-24.761719-11.105469-24.761719-24.761719 0-13.652344 11.109375-24.757812 24.761719-24.757812h156.1875c13.652344 0 24.757812 11.105468 24.757812 24.757812 0 13.65625-11.105468 24.761719-24.757812 24.761719zm0 0" fill="#3a312a"/><path d="m421.390625 240.949219h-156.1875c-15.332031 0-27.761719 12.429687-27.761719 27.761719 0 15.332031 12.429688 27.761718 27.761719 27.761718h156.1875c15.332031 0 27.761719-12.425781 27.761719-27.761718 0-15.332032-12.429688-27.761719-27.761719-27.761719zm0 0" fill="#d7e057"/><path d="m421.390625 237.949219h-156.1875c-16.960937 0-30.761719 13.800781-30.761719 30.761719 0 16.964843 13.800782 30.761718 30.761719 30.761718h156.1875c16.960937 0 30.757813-13.796875 30.757813-30.761718 0-16.960938-13.796876-30.761719-30.757813-30.761719zm0 55.523437h-156.1875c-13.652344 0-24.761719-11.109375-24.761719-24.761718 0-13.652344 11.109375-24.761719 24.761719-24.761719h156.1875c13.652344 0 24.757813 11.109375 24.757813 24.761719 0 13.652343-11.105469 24.761718-24.757813 24.761718zm0 0" fill="#3a312a"/><path d="m407.933594 296.472656h-129.273438c-11.207031 0-20.292968 9.082032-20.292968 20.289063v14.941406c0 11.207031 9.085937 20.292969 20.292968 20.292969h129.273438c11.203125 0 20.289062-9.085938 20.289062-20.292969v-14.941406c0-11.207031-9.082031-20.289063-20.289062-20.289063zm0 0" fill="#fce8cb"/><path d="m407.933594 293.472656h-129.269532c-12.84375 0-23.292968 10.449219-23.292968 23.289063v14.941406c0 12.84375 10.453125 23.292969 23.292968 23.292969h129.269532c12.84375 0 23.289062-10.453125 23.289062-23.292969v-14.941406c0-12.839844-10.445312-23.289063-23.289062-23.289063zm17.289062 38.230469c0 9.535156-7.753906 17.292969-17.289062 17.292969h-129.269532c-9.539062 0-17.292968-7.761719-17.292968-17.292969v-14.941406c0-9.535157 7.757812-17.289063 17.292968-17.289063h129.269532c9.535156 0 17.289062 7.753906 17.289062 17.289063zm0 0" fill="#3a312a"/><path d="m421.390625 351.996094h-156.1875c-15.332031 0-27.761719 12.429687-27.761719 27.761718 0 15.332032 12.429688 27.761719 27.761719 27.761719h156.1875c15.332031 0 27.761719-12.429687 27.761719-27.761719 0-15.332031-12.429688-27.761718-27.761719-27.761718zm0 0" fill="#d7e057"/><path d="m421.390625 348.996094h-156.1875c-16.960937 0-30.761719 13.796875-30.761719 30.761718 0 16.960938 13.800782 30.761719 30.761719 30.761719h156.1875c16.960937 0 30.757813-13.800781 30.757813-30.761719 0-16.964843-13.796876-30.761718-30.757813-30.761718zm0 55.519531h-156.1875c-13.652344 0-24.761719-11.105469-24.761719-24.761719 0-13.652344 11.109375-24.757812 24.761719-24.757812h156.1875c13.652344 0 24.757813 11.105468 24.757813 24.757812 0 13.65625-11.105469 24.761719-24.757813 24.761719zm0 0" fill="#3a312a"/><path d="m304.355469 78.796875h-26c13.660156 0 24.777343 11.121094 24.777343 24.78125 0 13.636719-11.117187 24.757813-24.777343 24.757813h26c13.660156 0 24.777343-11.121094 24.777343-24.757813 0-13.660156-11.117187-24.78125-24.777343-24.78125zm0 0" fill="#d34e5c"/><path d="m290.914062 134.335938h-26c9.519532 0 17.28125 7.742187 17.28125 17.28125v14.9375c0 9.542968-7.761718 17.300781-17.28125 17.300781h26c9.519532 0 17.28125-7.757813 17.28125-17.300781v-14.9375c0-9.539063-7.761718-17.28125-17.28125-17.28125zm0 0" fill="#decaad"/><path d="m304.355469 189.855469h-26c13.660156 0 24.777343 11.101562 24.777343 24.761719 0 10.777343-6.9375 19.9375-16.578124 23.339843h26c9.640624-3.402343 16.578124-12.5625 16.578124-23.339843 0-13.660157-11.117187-24.761719-24.777343-24.761719zm0 0" fill="#d34e5c"/><path d="m187.335938 243.957031h-26c13.660156 0 24.757812 11.097657 24.757812 24.757813 0 13.640625-11.097656 24.761718-24.757812 24.761718h26c13.660156 0 24.757812-11.121093 24.757812-24.761718 0-13.660156-11.097656-24.757813-24.757812-24.757813zm0 0" fill="#68a8bc"/><path d="m173.875 299.476562h-26c9.539062 0 17.300781 7.757813 17.300781 17.28125v14.9375c0 9.539063-7.761719 17.300782-17.300781 17.300782h26c9.539062 0 17.300781-7.761719 17.300781-17.300782v-14.9375c0-9.523437-7.761719-17.28125-17.300781-17.28125zm0 0" fill="#decaad"/><path d="m187.335938 354.996094h-26c13.660156 0 24.757812 11.101562 24.757812 24.761718 0 13.660157-11.097656 24.757813-24.757812 24.757813h26c13.660156 0 24.757812-11.097656 24.757812-24.757813 0-13.660156-11.097656-24.761718-24.757812-24.761718zm0 0" fill="#68a8bc"/><path d="m421.394531 243.957031h-26c13.640625 0 24.757813 11.097657 24.757813 24.757813 0 13.640625-11.117188 24.761718-24.757813 24.761718h26c13.640625 0 24.757813-11.121093 24.757813-24.761718 0-13.660156-11.117188-24.757813-24.757813-24.757813zm0 0" fill="#b9c239"/><path d="m407.933594 299.476562h-26c9.539062 0 17.300781 7.757813 17.300781 17.28125v14.9375c0 9.539063-7.761719 17.300782-17.300781 17.300782h26c9.539062 0 17.300781-7.761719 17.300781-17.300782v-14.9375c0-9.523437-7.761719-17.28125-17.300781-17.28125zm0 0" fill="#decaad"/><path d="m421.394531 354.996094h-26c13.640625 0 24.757813 11.101562 24.757813 24.761718 0 13.660157-11.117188 24.757813-24.757813 24.757813h26c13.640625 0 24.757813-11.097656 24.757813-24.757813 0-13.660156-11.117188-24.761718-24.757813-24.761718zm0 0" fill="#b9c239"/></svg>