<svg height="452pt" viewBox="0 0 452 452.762" width="452pt" xmlns="http://www.w3.org/2000/svg"><path d="m65.308594 22.796875c-1.945313 23.128906-26.046875 26.777344-26.046875 26.777344 20.691406.976562 25.847656 28.121093 25.847656 28.121093.441406-19.355468 26.644531-28.40625 26.644531-28.40625-19.628906-1.171874-26.445312-26.492187-26.445312-26.492187zm0 0" fill="#d7e057"/><path d="m91.933594 46.296875c-17.210938-1.03125-23.664063-24.050781-23.730469-24.28125-.382813-1.40625-1.71875-2.328125-3.164063-2.207031-1.449218.132812-2.597656 1.285156-2.71875 2.734375-1.71875 20.429687-22.625 23.929687-23.507812 24.066406-1.527344.230469-2.625 1.582031-2.546875 3.121094.082031 1.542969 1.3125 2.769531 2.855469 2.84375 18.058594.851562 22.996094 25.4375 23.042968 25.683593.277344 1.421876 1.519532 2.433594 2.945313 2.433594.085937 0 .167969 0 .253906-.007812 1.527344-.128906 2.710938-1.386719 2.75-2.917969.390625-17.019531 24.382813-25.554687 24.625-25.640625 1.351563-.46875 2.183594-1.828125 1.988281-3.246094-.199218-1.414062-1.367187-2.496094-2.792968-2.582031zm-27.132813 20.6875c-2.710937-6.257813-7.417969-13.8125-15.171875-17.75 5.859375-2.808594 12.816406-7.828125 16.402344-16.546875 3.101562 6.140625 8.402344 13.761719 16.667969 17.445312-6.015625 3.277344-13.84375 8.8125-17.898438 16.851563zm0 0" fill="#3a312a"/><path d="m21.910156 56.757812c-1.375 16.359376-18.421875 18.941407-18.421875 18.941407 14.636719.6875 18.285157 19.886719 18.285157 19.886719.3125-13.6875 18.84375-20.089844 18.84375-20.089844-13.882813-.832032-18.707032-18.738282-18.707032-18.738282zm0 0" fill="#d7e057"/><path d="m40.796875 72.503906c-11.53125-.691406-15.945313-16.375-15.988281-16.53125-.378906-1.40625-1.707032-2.332031-3.164063-2.203125-1.453125.128907-2.597656 1.28125-2.71875 2.734375-1.160156 13.742188-15.292969 16.132813-15.886719 16.226563-1.523437.230469-2.625 1.582031-2.546874 3.125.082031 1.539062 1.316406 2.765625 2.859374 2.839843 12.070313.570313 15.445313 17.289063 15.476563 17.453126.269531 1.425781 1.519531 2.441406 2.945313 2.441406.082031 0 .167968-.003906.25-.011719 1.53125-.125 2.714843-1.386719 2.753906-2.921875.257812-11.417969 16.660156-17.269531 16.824218-17.324219 1.351563-.46875 2.1875-1.824219 1.992188-3.242187-.203125-1.417969-1.371094-2.5-2.796875-2.585938zm-19.171875 13.589844c-1.847656-3.773438-4.679688-7.894531-8.894531-10.5625 3.710937-2.082031 7.394531-5.257812 9.742187-9.832031 2.117188 3.75 5.308594 7.910156 9.882813 10.449219-3.699219 2.199218-7.976563 5.480468-10.730469 9.945312zm0 0" fill="#3a312a"/><path d="m21.910156 3.445312c-1.375 16.355469-18.421875 18.9375-18.421875 18.9375 14.636719.691407 18.285157 19.890626 18.285157 19.890626.3125-13.691407 18.84375-20.089844 18.84375-20.089844-13.882813-.832032-18.707032-18.738282-18.707032-18.738282zm0 0" fill="#d7e057"/><path d="m40.796875 19.1875c-11.53125-.691406-15.945313-16.371094-15.988281-16.53125-.378906-1.402344-1.707032-2.332031-3.164063-2.203125-1.453125.128906-2.597656 1.28125-2.71875 2.734375-1.160156 13.742188-15.292969 16.132812-15.886719 16.226562-1.523437.230469-2.625 1.582032-2.546874 3.121094.082031 1.539063 1.316406 2.769532 2.855468 2.84375 12.070313.566406 15.449219 17.285156 15.476563 17.449219.273437 1.425781 1.519531 2.441406 2.945312 2.441406.085938 0 .167969 0 .25-.007812 1.53125-.128907 2.714844-1.390625 2.753907-2.921875.257812-11.417969 16.660156-17.269532 16.824218-17.324219 1.351563-.46875 2.1875-1.828125 1.992188-3.246094-.199219-1.414062-1.367188-2.496093-2.792969-2.582031zm-19.171875 13.589844c-1.847656-3.769532-4.679688-7.894532-8.894531-10.558594 3.710937-2.085938 7.394531-5.261719 9.742187-9.835938 2.117188 3.75 5.308594 7.910157 9.882813 10.449219-3.699219 2.203125-7.976563 5.480469-10.730469 9.945313zm0 0" fill="#3a312a"/><path d="m3.378906 329.960938 66.359375-66.359376 19.878907 19.878907-66.359376 66.359375zm0 0" fill="#87796f"/><path d="m91.742188 281.363281-19.878907-19.882812c-1.125-1.121094-3.121093-1.121094-4.242187 0l-66.359375 66.363281c-1.1718752 1.167969-1.1718752 3.070312 0 4.242188l19.878906 19.878906c.585937.585937 1.351563.878906 2.121094.878906.765625 0 1.535156-.292969 2.121093-.878906l66.359376-66.359375c.5625-.5625.878906-1.328125.878906-2.125 0-.792969-.316406-1.554688-.878906-2.117188zm-68.480469 64.238281-15.640625-15.640624 62.117187-62.117188 15.640625 15.636719zm0 0" fill="#3a312a"/><path d="m342.5625 38.738281-28.078125-28.078125c-10.210937-10.210937-26.765625-10.210937-36.976563 0l-45.972656 45.972656c-10.210937 10.210938-10.210937 26.765626 0 36.976563l28.078125 28.078125c10.210938 10.207031 26.765625 10.207031 36.976563 0l45.972656-45.972656c10.210938-10.210938 10.210938-26.765625 0-36.976563zm0 0" fill="#f16c7a"/><path d="m344.683594 36.617188-28.078125-28.078126c-5.503907-5.503906-12.824219-8.539062-20.609375-8.539062s-15.105469 3.03125-20.609375 8.539062l-45.972657 45.972657c-11.363281 11.363281-11.363281 29.851562 0 41.214843l28.078126 28.078126c5.683593 5.683593 13.148437 8.523437 20.613281 8.523437 7.460937 0 14.925781-2.839844 20.609375-8.523437l45.96875-45.96875c5.507812-5.507813 8.539062-12.824219 8.539062-20.613282 0-7.785156-3.03125-15.101562-8.539062-20.605468zm-4.242188 36.976562-45.96875 45.96875c-9.023437 9.027344-23.710937 9.027344-32.734375 0l-28.078125-28.078125c-9.023437-9.023437-9.023437-23.707031 0-32.730469l45.972656-45.972656c4.371094-4.375 10.183594-6.78125 16.363282-6.78125 6.1875 0 11.996094 2.40625 16.371094 6.78125l28.078124 28.078125c4.371094 4.371094 6.777344 10.183594 6.777344 16.363281-.003906 6.183594-2.410156 11.996094-6.78125 16.371094zm0 0" fill="#3a312a"/><path d="m259.617188 121.683594-28.078126-28.078125c-10.210937-10.210938-26.765624-10.210938-36.976562 0l-45.972656 45.972656c-10.210938 10.210937-10.210938 26.765625 0 36.976563l28.078125 28.078124c10.210937 10.210938 26.765625 10.210938 36.976562 0l45.972657-45.972656c10.207031-10.210937 10.207031-26.765625 0-36.976562zm0 0" fill="#fce8cb"/><path d="m261.734375 119.5625-28.078125-28.078125c-5.503906-5.503906-12.820312-8.535156-20.609375-8.535156-7.785156 0-15.101563 3.03125-20.605469 8.535156l-10.246094 10.246094c-1.171874 1.171875-1.171874 3.070312 0 4.242187 1.171876 1.171875 3.070313 1.171875 4.242188 0l10.246094-10.246094c4.371094-4.371093 10.183594-6.777343 16.363281-6.777343 6.183594 0 11.996094 2.40625 16.367187 6.777343l28.078126 28.078126c4.371093 4.375 6.78125 10.183593 6.78125 16.367187s-2.410157 11.996094-6.78125 16.367187l-45.972657 45.972657c-9.023437 9.027343-23.707031 9.027343-32.734375 0l-28.078125-28.078125c-4.371093-4.371094-6.777343-10.183594-6.777343-16.367188s2.40625-11.996094 6.777343-16.367187l13.722657-13.722657c1.171874-1.171874 1.171874-3.074218 0-4.242187-1.171876-1.171875-3.070313-1.171875-4.242188 0l-13.722656 13.722656c-5.503906 5.503907-8.535156 12.824219-8.535156 20.609375s3.03125 15.105469 8.535156 20.609375l28.078125 28.078125c5.683593 5.683594 13.144531 8.523438 20.609375 8.523438 7.460937 0 14.925781-2.839844 20.609375-8.523438l45.972656-45.972656c5.507813-5.503906 8.539063-12.824219 8.539063-20.609375s-3.03125-15.105469-8.539063-20.609375zm0 0" fill="#3a312a"/><path d="m176.667969 204.632812-28.078125-28.078124c-10.210938-10.210938-26.765625-10.210938-36.976563 0l-45.972656 45.972656c-10.207031 10.207031-10.207031 26.761718 0 36.976562l28.078125 28.074219c10.210938 10.210937 26.765625 10.210937 36.976562 0l45.972657-45.96875c10.210937-10.210937 10.210937-26.765625 0-36.976563zm0 0" fill="#d7e057"/><path d="m178.789062 202.511719-28.078124-28.078125c-11.363282-11.367188-29.855469-11.367188-41.21875 0l-45.96875 45.96875c-5.507813 5.507812-8.539063 12.824218-8.539063 20.613281 0 7.785156 3.03125 15.101563 8.539063 20.605469l28.078124 28.078125c5.679688 5.683593 13.144532 8.523437 20.609376 8.523437 7.464843 0 14.925781-2.839844 20.609374-8.523437l45.972657-45.972657c11.359375-11.359374 11.359375-29.851562-.003907-41.214843zm-4.242187 36.972656-45.972656 45.972656c-9.023438 9.023438-23.707031 9.023438-32.730469 0l-28.078125-28.078125c-4.375-4.371094-6.78125-10.183594-6.78125-16.363281 0-6.183594 2.40625-11.996094 6.78125-16.371094l45.96875-45.96875c9.027344-9.027343 23.707031-9.027343 32.734375 0l28.078125 28.078125c9.023437 9.023438 9.023437 23.707032 0 32.730469zm0 0" fill="#3a312a"/><path d="m169.660156 363.523438-23.515625 23.515624-21.96875 21.972657-20.875 20.871093 19.878907 19.878907 66.359374-66.359375zm0 0" fill="#87796f"/><path d="m191.660156 381.28125-19.878906-19.878906c-1.171875-1.171875-3.070312-1.171875-4.242188 0l-23.515624 23.511718c-1.171876 1.171876-1.171876 3.070313 0 4.242188 1.171874 1.171875 3.070312 1.171875 4.242187 0l21.394531-21.390625 15.636719 15.636719-62.117187 62.117187-15.636719-15.636719 18.753906-18.753906c1.171875-1.171875 1.171875-3.074218 0-4.242187-1.171875-1.171875-3.070313-1.171875-4.242187 0l-20.875 20.875c-1.171876 1.171875-1.171876 3.074219 0 4.242187l19.878906 19.878906c.585937.585938 1.355468.878907 2.125.878907.765625 0 1.535156-.292969 2.121094-.878907l66.359374-66.359374c.5625-.5625.878907-1.324219.878907-2.121094 0-.792969-.320313-1.558594-.882813-2.121094zm0 0" fill="#3a312a"/><path d="m442.484375 138.660156-28.078125-28.078125c-10.207031-10.210937-26.765625-10.210937-36.972656 0l-45.972656 45.972657c-10.210938 10.210937-10.210938 26.765624 0 36.976562l28.078124 28.078125c10.207032 10.207031 26.765626 10.207031 36.976563 0l45.96875-45.972656c10.210937-10.210938 10.210937-26.765625 0-36.976563zm0 0" fill="#f16c7a"/><path d="m444.605469 136.539062-28.078125-28.078124c-11.359375-11.363282-29.847656-11.367188-41.214844 0l-45.972656 45.972656c-11.363282 11.363281-11.363282 29.851562 0 41.214844l28.078125 28.078124c5.683593 5.683594 13.144531 8.527344 20.609375 8.527344s14.929687-2.84375 20.609375-8.527344l45.972656-45.96875c11.359375-11.367187 11.359375-29.855468-.003906-41.21875zm-4.242188 36.976563-45.96875 45.96875c-9.023437 9.027344-23.710937 9.027344-32.734375 0l-28.078125-28.078125c-9.023437-9.023438-9.023437-23.707031 0-32.730469l45.972657-45.972656c4.511718-4.511719 10.4375-6.769531 16.367187-6.769531 5.925781 0 11.855469 2.257812 16.367187 6.769531l28.078126 28.078125c9.019531 9.023438 9.019531 23.707031-.003907 32.734375zm0 0" fill="#3a312a"/><path d="m359.539062 221.605469-28.078124-28.078125c-10.210938-10.210938-26.765626-10.210938-36.976563 0l-45.972656 45.972656c-10.210938 10.210938-10.210938 26.765625 0 36.976562l28.078125 28.078126c10.210937 10.210937 26.765625 10.210937 36.976562 0l45.972656-45.972657c10.207032-10.210937 10.207032-26.765625 0-36.976562zm0 0" fill="#fce8cb"/><path d="m361.65625 219.484375-28.078125-28.078125c-5.503906-5.503906-12.820313-8.535156-20.609375-8.535156-7.785156 0-15.101562 3.03125-20.605469 8.535156l-45.972656 45.972656c-5.507813 5.507813-8.539063 12.824219-8.539063 20.609375 0 7.789063 3.03125 15.105469 8.539063 20.609375l28.078125 28.078125c5.679688 5.683594 13.144531 8.523438 20.609375 8.523438s14.929687-2.839844 20.609375-8.523438l45.96875-45.972656c5.507812-5.503906 8.539062-12.824219 8.539062-20.605469 0-7.789062-3.03125-15.109375-8.539062-20.613281zm-4.242188 36.976563-45.96875 45.972656c-9.023437 9.023437-23.710937 9.023437-32.734374 0l-28.078126-28.078125c-4.367187-4.371094-6.777343-10.183594-6.777343-16.367188 0-6.179687 2.40625-11.996093 6.777343-16.367187l45.972657-45.972656c4.371093-4.371094 10.183593-6.777344 16.367187-6.777344s11.992188 2.40625 16.367188 6.777344l28.078125 28.078124c4.371093 4.375 6.78125 10.183594 6.78125 16.371094-.003907 6.179688-2.410157 11.992188-6.785157 16.363282zm0 0" fill="#3a312a"/><path d="m276.589844 304.554688-28.078125-28.078126c-10.210938-10.210937-26.765625-10.210937-36.976563 0l-45.972656 45.972657c-10.207031 10.207031-10.207031 26.761719 0 36.976562l28.078125 28.078125c10.210937 10.207032 26.765625 10.207032 36.976563 0l45.972656-45.972656c10.210937-10.210938 10.210937-26.765625 0-36.976562zm0 0" fill="#d7e057"/><path d="m278.710938 302.433594-28.078126-28.078125c-11.363281-11.363281-29.851562-11.367188-41.21875 0l-45.96875 45.96875c-11.367187 11.367187-11.367187 29.855469 0 41.21875l28.078126 28.078125c5.679687 5.683594 13.144531 8.523437 20.609374 8.523437 7.464844 0 14.925782-2.839843 20.609376-8.523437l45.96875-45.96875c11.363281-11.363282 11.363281-29.855469 0-41.21875zm-4.242188 36.976562-45.972656 45.96875c-9.023438 9.023438-23.707032 9.023438-32.730469 0l-28.078125-28.078125c-9.027344-9.023437-9.027344-23.707031 0-32.734375l45.96875-45.96875c4.515625-4.511718 10.441406-6.769531 16.367188-6.769531 5.929687 0 11.855468 2.257813 16.367187 6.769531l28.078125 28.078125c9.023438 9.023438 9.023438 23.707031 0 32.734375zm0 0" fill="#3a312a"/><path d="m340.441406 40.863281-28.082031-28.078125c-7.578125-7.582031-19.160156-8.800781-28.039063-3.621094 1.660157.980469 3.238282 2.179688 4.679688 3.621094l28.078125 28.078125c9.023437 9.019531 9.023437 23.699219 0 32.722657l-45.976563 45.976562c-1.421874 1.421875-3 2.640625-4.679687 3.601562 8.859375 5.199219 20.457031 3.980469 28.039063-3.601562l45.980468-45.976562c9.019532-9.023438 9.019532-23.703126 0-32.722657zm0 0" fill="#d34e5c"/><path d="m257.5 123.800781-28.078125-28.078125c-4.382813-4.359375-10.183594-6.78125-16.382813-6.78125-4.160156 0-8.160156 1.101563-11.660156 3.179688 1.679688.980468 3.242188 2.179687 4.660156 3.601562l28.082032 28.078125c9.019531 9.019531 9.019531 23.722657 0 32.742188l-45.960938 45.960937c-1.441406 1.4375-3.019531 2.636719-4.679687 3.636719 8.878906 5.179687 20.460937 3.960937 28.039062-3.636719l45.980469-45.960937c9.019531-9.019531 9.019531-23.71875 0-32.742188zm0 0" fill="#decaad"/><path d="m174.539062 206.761719-28.078124-28.078125c-7.582032-7.601563-19.179688-8.820313-28.039063-3.621094 1.679687.980469 3.257813 2.179688 4.679687 3.621094l28.078126 28.078125c9.019531 9.019531 9.019531 23.699219 0 32.71875l-45.980469 45.980469c-1.4375 1.441406-3.019531 2.640624-4.679688 3.621093 8.859375 5.179688 20.460938 3.960938 28.058594-3.621093l45.960937-45.980469c9.019532-9.019531 9.019532-23.695313 0-32.71875zm0 0" fill="#b9c239"/><path d="m440.359375 140.785156-28.078125-28.082031c-7.582031-7.578125-19.179688-8.800781-28.042969-3.617187 1.660157.976562 3.242188 2.179687 4.683594 3.617187l28.078125 28.082031c4.359375 4.359375 6.78125 10.179688 6.78125 16.359375 0 6.179688-2.421875 12-6.78125 16.378907l-45.980469 45.960937c-1.417969 1.417969-2.980469 2.640625-4.679687 3.640625 3.5 2.039062 7.519531 3.140625 11.679687 3.140625 6.179688 0 12-2.402344 16.378907-6.78125l45.960937-45.960937c4.378906-4.378907 6.78125-10.199219 6.78125-16.378907 0-6.183593-2.402344-12.003906-6.78125-16.359375zm0 0" fill="#d34e5c"/><path d="m357.421875 223.722656-28.082031-28.082031c-4.519532-4.5-10.441406-6.757813-16.359375-6.757813-4.058594 0-8.101563 1.058594-11.679688 3.160157 1.679688.980469 3.238281 2.179687 4.660157 3.597656l28.078124 28.082031c4.382813 4.378906 6.78125 10.179688 6.78125 16.378906 0 6.179688-2.398437 11.980469-6.78125 16.359376l-45.960937 45.960937c-1.417969 1.421875-3 2.640625-4.679687 3.621094 3.5 2.058593 7.523437 3.160156 11.679687 3.160156 6.183594 0 12-2.402344 16.363281-6.78125l45.980469-45.960937c4.359375-4.378907 6.777344-10.179688 6.777344-16.359376 0-6.199218-2.417969-12-6.777344-16.378906zm0 0" fill="#decaad"/><path d="m274.460938 306.683594-28.0625-28.082032c-4.519532-4.519531-10.457032-6.78125-16.378907-6.78125-4.039062 0-8.097656 1.0625-11.679687 3.160157 1.679687.980469 3.238281 2.179687 4.679687 3.621093l28.082031 28.082032c9.019532 9.019531 9.019532 23.699218 0 32.71875l-45.980468 45.980468c-1.441406 1.4375-3.019532 2.640626-4.679688 3.621094 8.859375 5.179688 20.457032 3.957032 28.058594-3.621094l45.960938-45.980468c9.039062-9.019532 9.039062-23.699219 0-32.71875zm0 0" fill="#b9c239"/></svg>