<svg height="452pt" viewBox="-30 0 452 452.27464" width="452pt" xmlns="http://www.w3.org/2000/svg"><path d="m203.785156 70.074219c-1.554687-.570313-3.28125.238281-3.847656 1.792969l-64.984375 178.925781c-.566406 1.558593.234375 3.28125 1.792969 3.84375.339844.125.683594.183593 1.023437.183593 1.226563 0 2.378907-.757812 2.820313-1.976562l64.988281-178.925781c.566406-1.558594-.238281-3.28125-1.792969-3.84375zm0 0" fill="#3a312a"/><path d="m137.769531 251.820312c-25.023437-9.089843-52.898437-1.382812-75.363281 17.863282l-20.613281 23.296875c-5.730469 8.5-10.621094 17.996093-14.378907 28.34375-19.417968 53.464843-1.496093 109.039062 40.035157 124.121093 41.527343 15.082032 90.933593-16.035156 110.355469-69.503906 19.417968-53.464844 1.496093-109.039062-40.035157-124.121094zm0 0" fill="#f16c7a"/><path d="m183.5 298.566406c-7.855469-24.34375-23.730469-41.949218-44.707031-49.566406-25-9.082031-54.292969-2.203125-78.335938 18.40625-1.261719 1.078125-1.40625 2.96875-.328125 4.226562 1.074219 1.257813 2.972656 1.40625 4.226563.328126 22.382812-19.179688 49.445312-25.65625 72.390625-17.324219 19.195312 6.972656 33.769531 23.226562 41.042968 45.769531 7.355469 22.8125 6.359376 49.273438-2.804687 74.511719-9.167969 25.234375-25.382813 46.167969-45.667969 58.941406-20.039062 12.625-41.644531 15.738281-60.847656 8.761719-19.191406-6.96875-33.769531-23.222656-41.039062-45.765625-7.359376-22.8125-6.363282-49.273438 2.804687-74.511719 3.578125-9.855469 8.304687-19.171875 14.042969-27.6875.925781-1.375.5625-3.238281-.8125-4.164062-1.367188-.925782-3.234375-.566407-4.164063.808593-6.011719 8.921875-10.960937 18.675781-14.707031 28.992188-9.617188 26.484375-10.636719 54.328125-2.875 78.402343 7.851562 24.34375 23.726562 41.949219 44.703125 49.566407 7.382813 2.679687 15.074219 4.007812 22.886719 4.007812 14.382812 0 29.179687-4.5 43.203125-13.332031 21.40625-13.480469 38.492187-35.492188 48.113281-61.972656 9.617188-26.480469 10.636719-54.324219 2.875-78.398438zm0 0" fill="#3a312a"/><path d="m273.003906 250.796875-64.984375-178.929687c-.566406-1.554688-2.285156-2.363282-3.84375-1.792969-1.558593.5625-2.363281 2.285156-1.796875 3.84375l64.984375 178.925781c.445313 1.21875 1.59375 1.976562 2.820313 1.976562.339844 0 .6875-.058593 1.023437-.183593 1.558594-.5625 2.363281-2.285157 1.796875-3.839844zm0 0" fill="#3a312a"/><path d="m380.535156 321.304688c-19.417968-53.464844-68.828125-84.582032-110.355468-69.496094-41.527344 15.082031-59.445313 70.65625-40.027344 124.121094 19.421875 53.464843 68.828125 84.582031 110.355468 69.496093 41.527344-15.082031 59.449219-70.652343 40.027344-124.121093zm0 0" fill="#f16c7a"/><path d="m383.363281 320.296875c-19.953125-54.9375-71.191406-86.921875-114.203125-71.296875-20.972656 7.617188-36.851562 25.21875-44.703125 49.566406-7.761719 24.078125-6.742187 51.921875 2.875 78.402344 9.621094 26.480469 26.707031 48.492188 48.113281 61.972656 14.027344 8.832032 28.816407 13.332032 43.203126 13.332032 7.8125 0 15.507812-1.328126 22.886718-4.007813 20.972656-7.617187 36.851563-25.222656 44.703125-49.566406 7.761719-24.074219 6.742188-51.917969-2.875-78.402344zm-2.835937 76.558594c-7.269532 22.542969-21.847656 38.796875-41.039063 45.769531-19.203125 6.96875-40.808593 3.859375-60.847656-8.761719-20.285156-12.773437-36.5-33.707031-45.667969-58.945312-9.164062-25.234375-10.160156-51.699219-2.804687-74.507813 7.269531-22.542968 21.847656-38.796875 41.042969-45.769531 6.746093-2.449219 13.707031-3.617187 20.722656-3.617187 34.503906 0 70.144531 28.253906 85.789062 71.324218 9.164063 25.234375 10.160156 51.695313 2.804688 74.507813zm0 0" fill="#3a312a"/><path d="m141.410156 32.324219c-50.96875-8.195313-112.269531 23.109375-113.824218 32.777343-1.605469 9.988282 46.851562 58.597657 97.820312 66.792969 50.96875 8.191407 76.9375-10.5 81.355469-37.996093 4.421875-27.496094-14.382813-53.386719-65.351563-61.574219zm0 0" fill="#d7e057"/><path d="m141.886719 29.359375c-30.261719-4.863281-61.207031 4.074219-76.953125 9.835937-19.125 7-39.113282 17.980469-40.308594 25.429688-.921875 5.730469 9.191406 20.246094 30.296875 36.902344 13.125 10.351562 39.671875 28.453125 70.007813 33.328125 8.75 1.40625 16.601562 2.035156 23.648437 2.035156 49.96875 0 59.402344-31.675781 61.148437-42.519531 1.988282-12.371094 2.972657-53.628906-67.839843-65.011719zm61.914062 64.058594c-4.710937 29.320312-33.839843 42.59375-77.917969 35.511719-49.113281-7.894532-96.246093-55.382813-95.335937-63.339844.695313-2.878906 13.984375-12.605469 36.914063-20.929688 12.078124-4.382812 33.4375-10.703125 56.199218-10.703125 5.710938 0 11.511719.398438 17.273438 1.324219 44.078125 7.085938 67.582031 28.820312 62.867187 58.136719zm0 0" fill="#3a312a"/><path d="m221.3125 82.777344c-22.894531-3.113282-43.984375 13.003906-49.753906 55.441406-5.769532 42.4375 21.421875 92.648438 29.472656 93.746094 8.316406 1.128906 47.660156-40.035156 53.429688-82.472656 5.769531-42.441407-10.253907-63.605469-33.148438-66.714844zm0 0" fill="#d7e057"/><path d="m251.253906 99.921875c-6.378906-11.402344-16.59375-18.359375-29.535156-20.121094-10.417969-1.414062-45.054688-1.417969-53.132812 58.011719-3.445313 25.316406 4.621093 50.890625 9.734374 63.878906 6.050782 15.375 15.609376 32.335938 22.304688 33.242188.175781.023437.359375.035156.550781.035156 11.570313 0 50.546875-43.101562 56.257813-85.074219 2.824218-20.78125.746094-37.597656-6.179688-49.972656zm.234375 49.164063c-5.8125 42.71875-44.394531 79.902343-49.984375 79.917968-6.738281-2.054687-32.488281-49.863281-26.972656-90.382812 4.589844-33.773438 19.855469-53.222656 41.292969-53.222656 1.65625 0 3.355469.113281 5.082031.351562 11.003906 1.496094 19.6875 7.410156 25.109375 17.101562 6.191406 11.058594 8.082031 27.046876 5.472656 46.234376zm0 0" fill="#3a312a"/><path d="m380.269531 25.164062c-1.046875-3.460937-10.027343-8.546874-23.359375-12.976562l-29.132812-6.949219c-20.476563-3.199219-43.949219-3.523437-64.707032 2.769531-49.402343 14.980469-64.550781 43.164063-56.46875 69.816407 8.082032 26.648437 36.332032 41.671875 85.734376 26.691406 49.402343-14.976563 90.777343-69.984375 87.933593-79.351563zm0 0" fill="#d7e057"/><path d="m383.140625 24.292969c-1.921875-6.339844-16.664063-12.089844-25.285156-14.953125-1.570313-.523438-3.273438.332031-3.792969 1.902344-.519531 1.570312.332031 3.269531 1.902344 3.789062 15.015625 4.992188 20.925781 9.570312 21.429687 10.984375.640625 2.894531-7.042969 17.464844-24.003906 34.996094-11.175781 11.550781-34.082031 32.191406-61.925781 40.636719-22.46875 6.808593-41.992188 7.613281-56.460938 2.316406-12.761718-4.671875-21.589844-14.011719-25.53125-27.011719-8.617187-28.417969 11.746094-53.117187 54.464844-66.074219 22.625-6.859375 46.953125-5.242187 63.375-2.675781 1.628906.253906 3.167969-.859375 3.425781-2.5.257813-1.636719-.863281-3.171875-2.5-3.425781-17.042969-2.664063-42.335937-4.328125-66.039062 2.859375-68.636719 20.8125-62.109375 61.5625-58.46875 73.558593 4.507812 14.875 14.609375 25.5625 29.207031 30.90625 7.070312 2.585938 14.992188 3.878907 23.722656 3.878907 10.945313 0 23.15625-2.035157 36.542969-6.089844 29.335937-8.894531 53.21875-30.492187 64.847656-42.574219 14.128907-14.671875 27.28125-33.308594 25.089844-40.523437zm0 0" fill="#3a312a"/><path d="m64.957031 164.820312c-1.949219 23.125-26.050781 26.777344-26.050781 26.777344 20.691406.972656 25.847656 28.117188 25.847656 28.117188.445313-19.355469 26.644532-28.402344 26.644532-28.402344-19.628907-1.175781-26.441407-26.492188-26.441407-26.492188zm0 0" fill="#d7e057"/><path d="m91.578125 188.316406c-17.207031-1.03125-23.664063-24.050781-23.726563-24.28125-.378906-1.40625-1.699218-2.328125-3.167968-2.203125-1.449219.128907-2.59375 1.28125-2.714844 2.734375-1.722656 20.429688-22.625 23.925782-23.507812 24.0625-1.527344.230469-2.628907 1.582032-2.550782 3.125.082032 1.539063 1.316406 2.765625 2.855469 2.839844 18.054687.851562 22.996094 25.4375 23.042969 25.683594.277344 1.421875 1.519531 2.433594 2.945312 2.433594.085938 0 .167969-.003907.253906-.007813 1.53125-.128906 2.714844-1.386719 2.75-2.921875.386719-17.015625 24.382813-25.550781 24.625-25.636719 1.351563-.46875 2.183594-1.828125 1.988282-3.246093-.195313-1.414063-1.363282-2.496094-2.792969-2.582032zm-27.128906 20.691406c-2.714844-6.261718-7.417969-13.816406-15.175781-17.753906 5.863281-2.808594 12.816406-7.824218 16.402343-16.546875 3.105469 6.144531 8.398438 13.761719 16.667969 17.449219-6.015625 3.277344-13.84375 8.808594-17.894531 16.851562zm0 0" fill="#3a312a"/><path d="m21.558594 198.777344c-1.378906 16.359375-18.421875 18.941406-18.421875 18.941406 14.632812.6875 18.28125 19.886719 18.28125 19.886719.3125-13.6875 18.84375-20.089844 18.84375-20.089844-13.882813-.828125-18.703125-18.738281-18.703125-18.738281zm0 0" fill="#d7e057"/><path d="m40.441406 214.523438c-11.53125-.691407-15.945312-16.371094-15.988281-16.53125-.378906-1.402344-1.714844-2.332032-3.160156-2.203126-1.453125.128907-2.601563 1.285157-2.722657 2.734376-1.15625 13.742187-15.292968 16.136718-15.882812 16.230468-1.527344.230469-2.625 1.578125-2.546875 3.117188.082031 1.542968 1.316406 2.769531 2.855469 2.84375 12.070312.566406 15.449218 17.289062 15.476562 17.453125.273438 1.425781 1.519532 2.4375 2.945313 2.4375.082031 0 .167969 0 .25-.007813 1.53125-.128906 2.71875-1.390625 2.753906-2.921875.257813-11.421875 16.660156-17.269531 16.824219-17.324219 1.351562-.46875 2.183594-1.828124 1.992187-3.246093-.199219-1.414063-1.367187-2.496094-2.796875-2.582031zm-19.171875 13.589843c-1.847656-3.769531-4.679687-7.894531-8.890625-10.5625 3.710938-2.082031 7.394532-5.257812 9.742188-9.832031 2.113281 3.746094 5.304687 7.910156 9.878906 10.449219-3.699219 2.203125-7.976562 5.480469-10.730469 9.945312zm0 0" fill="#3a312a"/><path d="m21.558594 145.464844c-1.378906 16.359375-18.421875 18.941406-18.421875 18.941406 14.632812.6875 18.28125 19.886719 18.28125 19.886719.3125-13.6875 18.84375-20.089844 18.84375-20.089844-13.882813-.832031-18.703125-18.738281-18.703125-18.738281zm0 0" fill="#d7e057"/><path d="m40.441406 161.207031c-11.53125-.6875-15.945312-16.371093-15.988281-16.527343-.378906-1.40625-1.714844-2.332032-3.160156-2.203126-1.453125.128907-2.601563 1.285157-2.722657 2.734376-1.15625 13.742187-15.292968 16.132812-15.882812 16.226562-1.527344.230469-2.625 1.582031-2.546875 3.125.082031 1.539062 1.316406 2.765625 2.855469 2.839844 12.070312.566406 15.449218 17.289062 15.476562 17.453125.273438 1.425781 1.519532 2.4375 2.945313 2.4375.082031 0 .167969-.003907.25-.007813 1.53125-.125 2.71875-1.386718 2.753906-2.921875.257813-11.421875 16.660156-17.269531 16.824219-17.324219 1.351562-.46875 2.183594-1.828124 1.992187-3.246093-.199219-1.414063-1.367187-2.5-2.796875-2.585938zm-19.171875 13.589844c-1.847656-3.769531-4.679687-7.890625-8.890625-10.558594 3.710938-2.082031 7.394532-5.257812 9.742188-9.832031 2.113281 3.75 5.304687 7.910156 9.878906 10.445312-3.699219 2.203126-7.976562 5.484376-10.730469 9.945313zm0 0" fill="#3a312a"/><g fill="#d34e5c"><path d="m177.78125 300.398438c-7.261719-22.539063-21.84375-38.78125-41.042969-45.761719-6.699219-2.4375-13.679687-3.636719-20.820312-3.636719-3.539063 0-7.117188.296875-10.71875.898438 3.480469.621093 6.898437 1.519531 10.238281 2.738281 19.183594 6.980469 33.761719 23.222656 41.042969 45.761719 7.359375 22.820312 6.359375 49.28125-2.820313 74.519531-14.019531 38.601562-44.121094 65.300781-75.039062 70.421875 37.539062 6.558594 79.117187-22.921875 96.359375-70.421875 9.160156-25.238281 10.160156-51.699219 2.800781-74.519531zm0 0"/><path d="m377.71875 322.339844c-9.160156-25.222656-25.378906-46.160156-45.660156-58.941406-13.039063-8.21875-26.757813-12.398438-40.019532-12.398438-3.578124 0-7.101562.296875-10.578124.898438 9.820312 1.621093 19.738281 5.480468 29.277343 11.5 20.28125 12.78125 36.5 33.71875 45.660157 58.941406 9.179687 25.238281 10.160156 51.699218 2.820312 74.519531-7.28125 22.539063-21.859375 38.800781-41.039062 45.757813-3.339844 1.222656-6.742188 2.121093-10.160157 2.722656 3.578125.597656 7.160157.898437 10.738281.898437 7.023438 0 13.980469-1.160156 20.722657-3.621093 19.199219-6.957032 33.777343-23.21875 41.039062-45.757813 7.359375-22.820313 6.359375-49.28125-2.800781-74.519531zm0 0"/></g></svg>