<svg height="452pt" viewBox="0 0 452.5541 452" width="452pt" xmlns="http://www.w3.org/2000/svg"><path d="m64.820312 22.628906c-1.949218 23.128906-26.046874 26.78125-26.046874 26.78125 20.691406.972656 25.847656 28.117188 25.847656 28.117188.441406-19.355469 26.644531-28.40625 26.644531-28.40625-19.628906-1.171875-26.445313-26.492188-26.445313-26.492188zm0 0" fill="#d7e057"/><path d="m91.441406 46.128906c-17.207031-1.027344-23.664062-24.046875-23.726562-24.28125-.378906-1.402344-1.695313-2.328125-3.167969-2.203125-1.449219.132813-2.59375 1.285157-2.714844 2.734375-1.71875 20.429688-22.625 23.925782-23.511719 24.066406-1.523437.230469-2.625 1.578126-2.542968 3.121094.078125 1.539063 1.3125 2.769532 2.855468 2.84375 18.054688.847656 22.996094 25.433594 23.042969 25.683594.273438 1.421875 1.519531 2.433594 2.945313 2.433594.082031 0 .167968-.003906.25-.011719 1.53125-.128906 2.714844-1.386719 2.75-2.917969.386718-17.015625 24.382812-25.554687 24.625-25.636718 1.351562-.46875 2.183594-1.832032 1.988281-3.246094-.199219-1.417969-1.363281-2.5-2.792969-2.585938zm-27.128906 20.691406c-2.714844-6.261718-7.417969-13.8125-15.175781-17.753906 5.863281-2.808594 12.816406-7.824218 16.402343-16.542968 3.101563 6.140624 8.402344 13.757812 16.667969 17.441406-6.011719 3.28125-13.84375 8.8125-17.894531 16.855468zm0 0" fill="#3a312a"/><path d="m21.421875 56.59375c-1.378906 16.355469-18.421875 18.941406-18.421875 18.941406 14.632812.6875 18.28125 19.886719 18.28125 19.886719.3125-13.6875 18.84375-20.089844 18.84375-20.089844-13.882812-.832031-18.703125-18.738281-18.703125-18.738281zm0 0" fill="#d7e057"/><path d="m40.304688 72.335938c-11.53125-.691407-15.941407-16.371094-15.984376-16.53125-.378906-1.402344-1.714843-2.316407-3.164062-2.199219-1.453125.128906-2.601562 1.28125-2.722656 2.734375-1.15625 13.742187-15.292969 16.132812-15.882813 16.226562-1.527343.230469-2.6249998 1.578125-2.54687475 3.121094.08203125 1.539062 1.31249975 2.769531 2.85546875 2.84375 12.070313.566406 15.449219 17.285156 15.480469 17.449219.269531 1.425781 1.515625 2.441406 2.945312 2.441406.082032 0 .164063 0 .25-.007813 1.527344-.128906 2.714844-1.390624 2.75-2.921874.261719-11.417969 16.664063-17.269532 16.824219-17.324219 1.351563-.46875 2.1875-1.828125 1.992187-3.246094-.199218-1.417969-1.371093-2.5-2.796874-2.585937zm-19.167969 13.589843c-1.847657-3.773437-4.679688-7.894531-8.894531-10.5625 3.710937-2.082031 7.394531-5.257812 9.742187-9.832031 2.113281 3.746094 5.308594 7.910156 9.882813 10.445312-3.703126 2.207032-7.980469 5.484376-10.730469 9.949219zm0 0" fill="#3a312a"/><path d="m21.421875 3.277344c-1.378906 16.355468-18.421875 18.9375-18.421875 18.9375 14.632812.691406 18.28125 19.890625 18.28125 19.890625.3125-13.691407 18.84375-20.089844 18.84375-20.089844-13.882812-.832031-18.703125-18.738281-18.703125-18.738281zm0 0" fill="#d7e057"/><path d="m40.304688 19.019531c-11.53125-.6875-15.941407-16.371093-15.984376-16.527343-.378906-1.40625-1.714843-2.316407-3.164062-2.207032-1.453125.132813-2.601562 1.285156-2.722656 2.738282-1.15625 13.742187-15.292969 16.132812-15.882813 16.226562-1.527343.230469-2.6249998 1.582031-2.54687475 3.121094.08203125 1.542968 1.31249975 2.769531 2.85546875 2.84375 12.070313.566406 15.449219 17.289062 15.480469 17.453125.269531 1.425781 1.515625 2.4375 2.945312 2.4375.082032 0 .164063 0 .25-.007813 1.527344-.128906 2.714844-1.390625 2.75-2.921875.261719-11.417969 16.664063-17.269531 16.824219-17.324219 1.351563-.46875 2.1875-1.828124 1.992187-3.246093-.199218-1.417969-1.371093-2.5-2.796874-2.585938zm-19.167969 13.589844c-1.847657-3.769531-4.679688-7.894531-8.894531-10.558594 3.710937-2.082031 7.394531-5.261719 9.742187-9.835937 2.113281 3.75 5.308594 7.910156 9.882813 10.449218-3.699219 2.203126-7.980469 5.480469-10.730469 9.945313zm0 0" fill="#3a312a"/><path d="m300.984375 376.355469-8.980469-80.859375c-.261718-2.28125-.621094-4.519532-1.121094-6.71875-20.359374-1.800782-41.957031-3.261719-64.339843-3.261719-22.160157 0-43.558594 1.441406-63.757813 3.199219-.460937 2.0625-.800781 4.179687-1.0625 6.339844l-3.039062 25.800781-3.519532 29.820312-2.980468 25.21875c-4.597656 39 25.859375 73.261719 65.121094 73.261719h18.5c39.078124 0 69.480468-33.960938 65.179687-72.800781zm0 0" fill="#fce8cb"/><path d="m303.96875 376.027344-8.984375-80.871094c-.289063-2.53125-.671875-4.835938-1.171875-7.042969-.289062-1.269531-1.363281-2.207031-2.664062-2.324219-17.226563-1.523437-40.144532-3.273437-64.605469-3.273437-24.078125 0-46.859375 1.714844-64.019531 3.210937-1.304688.113282-2.382813 1.058594-2.667969 2.335938-.457031 2.042969-.816407 4.210938-1.109375 6.640625l-3.042969 25.800781c-.195313 1.644532.984375 3.136719 2.628906 3.332032 1.628907.195312 3.132813-.984376 3.328125-2.628907l3.042969-25.789062c.164063-1.390625.355469-2.683594.578125-3.90625 16.753906-1.433594 38.445312-2.992188 61.261719-2.992188 23.1875 0 45.019531 1.589844 61.851562 3.050781.25 1.351563.457031 2.761719.625 4.257813l8.980469 80.859375c1.957031 17.667969-3.722656 35.398438-15.578125 48.640625-11.855469 13.238281-28.847656 20.832031-46.621094 20.832031h-18.5c-17.855469 0-34.902343-7.65625-46.765625-21-11.863281-13.347656-17.46875-31.171875-15.375-48.910156l2.980469-25.21875c.195313-1.648438-.980469-3.140625-2.625-3.332031-1.644531-.191407-3.136719.980469-3.332031 2.625l-2.980469 25.222656c-2.292969 19.4375 3.847656 38.976563 16.851563 53.597656 13 14.625 31.679687 23.011719 51.25 23.011719h18.5c19.476562 0 38.097656-8.320312 51.085937-22.828125 12.996094-14.511719 19.21875-33.941406 17.078125-53.300781zm0 0" fill="#3a312a"/><path d="m226.550781 39.496094c-14.082031 0-27.839843 1.101562-41.199219 3.199218-25.382812 3.960938-49.242187 11.539063-70.800781 22.082032-30.839843 15.058594-56.980469 36.140625-76.140625 61.339844l-16.558594 26.179687c-11.78125 22.800781-18.300781 47.917969-18.300781 74.339844 0 58.597656 32.078125 69.679687 82.320313 68.300781 21.140625-.601562 45.519531-3.402344 72.058594-5.78125 21.621093-1.960938 44.679687-3.640625 68.621093-3.640625 123.160157 0 223 44.480469 223-58.878906s-99.839843-187.140625-223-187.140625zm0 0" fill="#87796f"/><path d="m226.550781 36.496094c-13.988281 0-28.003906 1.089844-41.664062 3.234375-25.28125 3.949219-49.390625 11.464843-71.652344 22.351562-31.117187 15.195313-57.816406 36.710938-77.210937 62.21875-1.003907 1.316407-.746094 3.203125.570312 4.203125s3.203125.746094 4.207031-.574218c18.828125-24.765626 44.789063-45.671876 75.070313-60.460938 21.71875-10.621094 45.253906-17.957031 69.945312-21.808594 13.355469-2.101562 27.058594-3.164062 40.734375-3.164062 121.308594 0 220 82.601562 220 184.136718 0 23.921876-5.464843 40.523438-16.710937 50.742188-21.519532 19.554688-62.941406 15.589844-115.390625 10.566406-26.554688-2.542968-56.652344-5.425781-87.894531-5.425781-25.199219 0-48.964844 1.84375-68.886719 3.652344-6.625.59375-13.113281 1.210937-19.449219 1.816406-18.851562 1.800781-36.660156 3.503906-52.425781 3.953125-32.457031.890625-51.453125-3.746094-63.539063-15.507812-10.5625-10.28125-15.703125-26.566407-15.703125-49.792969 0-25.34375 6.046875-49.890625 17.964844-72.964844.761719-1.472656.183594-3.28125-1.289063-4.042969-1.464843-.757812-3.28125-.183594-4.042968 1.289063-12.363282 23.933593-18.632813 49.410156-18.632813 75.714843 0 24.933594 5.730469 42.628907 17.519531 54.097657 14.878907 14.476562 37.726563 17.324219 59.539063 17.324219 2.808594 0 5.597656-.042969 8.351563-.121094 15.96875-.453125 33.871093-2.164063 52.828124-3.972656 6.324219-.605469 12.800782-1.226563 19.414063-1.816407 19.792969-1.792969 43.390625-3.628906 68.351563-3.628906 30.957031 0 60.902343 2.867187 87.320312 5.398437 53.921875 5.164063 96.515625 9.246094 120-12.097656 12.570312-11.421875 18.679688-29.46875 18.679688-55.179687-.003907-104.84375-101.386719-190.140625-226.003907-190.140625zm0 0" fill="#3a312a"/><path d="m297.984375 376.695312-8.960937-80.859374c-.160157-1.4375-.378907-2.859376-.621094-4.257813-8.019532-.683594-16.238282-1.320313-24.617188-1.820313.117188.777344.238282 1.558594.320313 2.359376l8.957031 80.859374c1.960938 17.660157-3.71875 35.398438-15.578125 48.640626-11.839844 13.238281-28.839844 20.820312-46.621094 20.820312h-14.800781c6.742188 2.4375 13.941406 3.71875 21.242188 3.71875h18.5c17.757812 0 34.757812-7.601562 46.621093-20.839844 11.859375-13.238281 17.519531-30.960937 15.558594-48.621094zm0 0" fill="#decaad"/><path d="m226.542969 42.496094c-5.039063 0-10.039063.140625-15 .441406 114.339843 6.457031 205 86.378906 205 183.699219 0 23.917969-5.457031 40.519531-16.71875 50.738281-9.820313 8.921875-23.78125 12.960938-41.058594 14.222656 31.359375 1.617188 56.058594-.578125 71.058594-14.222656 11.261719-10.21875 16.71875-26.820312 16.71875-50.738281 0-101.539063-98.699219-184.140625-220-184.140625zm0 0" fill="#695b51"/><path d="m247.945312 177.628906c-4.75-20.105468-24.894531-32.554687-45-27.808594-20.101562 4.746094-32.550781 24.894532-27.804687 44.996094 4.746094 20.105469 24.894531 32.554688 44.996094 27.808594 20.105469-4.746094 32.554687-24.894531 27.808593-44.996094zm0 0" fill="#d7e057"/><path d="m211.542969 145.839844c-22.277344 0-40.402344 18.125-40.402344 40.40625 0 22.277344 18.125 40.402344 40.402344 40.402344 22.28125 0 40.40625-18.125 40.40625-40.402344 0-22.28125-18.128907-40.40625-40.40625-40.40625zm0 74.808594c-18.96875 0-34.402344-15.433594-34.402344-34.402344 0-18.972656 15.433594-34.40625 34.402344-34.40625 18.972656 0 34.40625 15.433594 34.40625 34.40625 0 18.96875-15.433594 34.402344-34.40625 34.402344zm0 0" fill="#3a312a"/><path d="m121.148438 245.035156c-20.660157 0-37.417969 16.742188-37.417969 37.402344 0 4.398438.757812 8.597656 2.140625 12.5 21.140625-.601562 45.519531-3.402344 72.058594-5.78125.421874-2.179688.621093-4.421875.621093-6.71875 0-20.660156-16.761719-37.402344-37.402343-37.402344zm0 0" fill="#d7e057"/><path d="m121.148438 242.035156c-22.285157 0-40.417969 18.125-40.417969 40.402344 0 4.621094.777343 9.167969 2.3125 13.5.425781 1.203125 1.558593 2 2.828125 2h.085937c15.96875-.457031 33.871094-2.164062 52.828125-3.976562 6.324219-.601563 12.800782-1.222657 19.410156-1.816407 1.332032-.117187 2.425782-1.105469 2.679688-2.417969.449219-2.328124.675781-4.78125.675781-7.289062 0-22.277344-18.121093-40.402344-40.402343-40.402344zm34.175781 44.34375c-5.8125.53125-11.519531 1.074219-17.109375 1.605469-17.957032 1.71875-34.972656 3.34375-50.175782 3.878906-.871093-3.058593-1.308593-6.21875-1.308593-9.429687 0-18.96875 15.441406-34.398438 34.417969-34.398438 18.96875 0 34.402343 15.429688 34.402343 34.398438 0 1.34375-.074219 2.664062-.226562 3.945312zm0 0" fill="#3a312a"/><path d="m397.035156 236.410156c-4.746094-20.105468-24.894531-32.554687-44.996094-27.808594-20.105468 4.75-32.554687 24.894532-27.808593 45 4.75 20.101563 24.894531 32.550782 45 27.804688 20.101562-4.746094 32.550781-24.894531 27.804687-44.996094zm0 0" fill="#d7e057"/><path d="m360.640625 204.632812c-22.277344 0-40.402344 18.125-40.402344 40.402344 0 22.28125 18.125 40.40625 40.402344 40.40625 22.28125 0 40.402344-18.125 40.402344-40.40625 0-22.277344-18.125-40.402344-40.402344-40.402344zm0 74.808594c-18.96875 0-34.402344-15.433594-34.402344-34.40625 0-18.96875 15.433594-34.402344 34.402344-34.402344s34.402344 15.433594 34.402344 34.402344c0 18.972656-15.433594 34.40625-34.402344 34.40625zm0 0" fill="#3a312a"/><path d="m111.179688 170.226562c0 20.660157-16.746094 37.40625-37.40625 37.40625-20.65625 0-37.402344-16.746093-37.402344-37.40625 0-20.65625 16.746094-37.402343 37.402344-37.402343 20.660156 0 37.40625 16.746093 37.40625 37.402343zm0 0" fill="#d7e057"/><path d="m73.773438 129.824219c-22.28125 0-40.402344 18.125-40.402344 40.402343 0 22.28125 18.125 40.40625 40.402344 40.40625 22.277343 0 40.40625-18.125 40.40625-40.40625 0-22.277343-18.125-40.402343-40.40625-40.402343zm0 74.808593c-18.96875 0-34.402344-15.433593-34.402344-34.402343s15.433594-34.402344 34.402344-34.402344 34.40625 15.433594 34.40625 34.402344-15.4375 34.402343-34.40625 34.402343zm0 0" fill="#3a312a"/><path d="m185.351562 42.695312c-25.382812 3.960938-49.242187 11.539063-70.800781 22.082032 2.980469 17.640625 18.359375 31.058594 36.859375 31.058594 20.660156 0 37.398438-16.738282 37.398438-37.398438 0-5.621094-1.238282-10.960938-3.457032-15.742188zm0 0" fill="#d7e057"/><path d="m188.070312 41.433594c-.5625-1.214844-1.859374-1.902344-3.183593-1.703125-25.285157 3.949219-49.390625 11.464843-71.65625 22.351562-1.191407.582031-1.859375 1.882813-1.636719 3.191407 3.285156 19.449218 20.027344 33.5625 39.816406 33.5625 22.277344 0 40.398438-18.125 40.398438-40.398438.003906-5.941406-1.253906-11.664062-3.738282-17.003906zm-36.660156 51.402344c-16.097656 0-29.828125-10.960938-33.457031-26.371094 20.457031-9.753906 42.492187-16.621094 65.558594-20.433594 1.527343 3.941406 2.296875 8.101562 2.296875 12.40625.003906 18.96875-15.429688 34.398438-34.398438 34.398438zm0 0" fill="#3a312a"/><path d="m341.789062 114.933594c0 20.65625-16.746093 37.402344-37.40625 37.402344-20.65625 0-37.402343-16.746094-37.402343-37.402344 0-20.660156 16.746093-37.40625 37.402343-37.40625 20.660157 0 37.40625 16.746094 37.40625 37.40625zm0 0" fill="#d7e057"/><path d="m304.386719 74.527344c-22.28125 0-40.40625 18.125-40.40625 40.40625 0 22.277344 18.125 40.402344 40.40625 40.402344s40.402343-18.125 40.402343-40.402344c0-22.28125-18.125-40.40625-40.402343-40.40625zm0 74.808594c-18.96875 0-34.40625-15.433594-34.40625-34.402344 0-18.972656 15.4375-34.40625 34.40625-34.40625s34.402343 15.433594 34.402343 34.40625c0 18.96875-15.433593 34.402344-34.402343 34.402344zm0 0" fill="#3a312a"/></svg>