<svg height="451pt" viewBox="0 0 451.76931 451" width="451pt" xmlns="http://www.w3.org/2000/svg"><path d="m65.519531 22.734375c-1.945312 23.128906-26.046875 26.78125-26.046875 26.78125 20.691406.972656 25.847656 28.121094 25.847656 28.121094.441407-19.355469 26.644532-28.40625 26.644532-28.40625-19.628906-1.175781-26.445313-26.496094-26.445313-26.496094zm0 0" fill="#d7e057"/><path d="m92.144531 46.234375c-17.210937-1.03125-23.664062-24.046875-23.726562-24.28125-.382813-1.40625-1.726563-2.320313-3.167969-2.207031-1.449219.132812-2.59375 1.285156-2.71875 2.734375-1.71875 20.433593-22.625 23.929687-23.507812 24.066406-1.523438.230469-2.625 1.582031-2.542969 3.121094.078125 1.542969 1.3125 2.769531 2.851562 2.84375 18.058594.851562 23 25.4375 23.046875 25.6875.273438 1.421875 1.519532 2.433593 2.945313 2.433593.082031 0 .167969-.003906.25-.011718 1.527343-.128906 2.714843-1.386719 2.75-2.917969.390625-17.019531 24.386719-25.554687 24.625-25.640625 1.351562-.464844 2.1875-1.828125 1.988281-3.242188-.199219-1.417968-1.363281-2.5-2.792969-2.585937zm-27.132812 20.691406c-2.714844-6.261719-7.417969-13.8125-15.175781-17.753906 5.863281-2.808594 12.820312-7.824219 16.40625-16.542969 3.101562 6.140625 8.398437 13.761719 16.667968 17.445313-6.015625 3.28125-13.84375 8.808593-17.898437 16.851562zm0 0" fill="#3a312a"/><path d="m22.121094 56.699219c-1.375 16.359375-18.421875 18.941406-18.421875 18.941406 14.636719.6875 18.285156 19.886719 18.285156 19.886719.3125-13.6875 18.84375-20.089844 18.84375-20.089844-13.882813-.832031-18.707031-18.738281-18.707031-18.738281zm0 0" fill="#d7e057"/><path d="m41.007812 72.445312c-11.535156-.695312-15.945312-16.375-15.988281-16.535156-.378906-1.398437-1.703125-2.339844-3.164062-2.203125-1.453125.128907-2.597657 1.285157-2.71875 2.738281-1.160157 13.742188-15.292969 16.128907-15.886719 16.222657-1.523438.234375-2.625 1.582031-2.546875 3.125.082031 1.539062 1.316406 2.769531 2.855469 2.839843 12.074218.570313 15.449218 17.289063 15.476562 17.453126.273438 1.425781 1.519532 2.441406 2.945313 2.441406.085937 0 .167969-.003906.25-.007813 1.53125-.128906 2.714843-1.386719 2.753906-2.921875.257813-11.417968 16.660156-17.269531 16.824219-17.324218 1.351562-.464844 2.1875-1.824219 1.992187-3.242188-.195312-1.417969-1.367187-2.5-2.792969-2.585938zm-19.171874 13.585938c-1.847657-3.769531-4.679688-7.894531-8.894532-10.558594 3.714844-2.082031 7.394532-5.257812 9.742188-9.832031 2.117187 3.746094 5.3125 7.910156 9.882812 10.449219-3.699218 2.199218-7.976562 5.476562-10.730468 9.941406zm0 0" fill="#3a312a"/><path d="m22.121094 3.382812c-1.375 16.359376-18.421875 18.941407-18.421875 18.941407 14.636719.691406 18.285156 19.890625 18.285156 19.890625.3125-13.691406 18.84375-20.089844 18.84375-20.089844-13.882813-.832031-18.707031-18.742188-18.707031-18.742188zm0 0" fill="#d7e057"/><path d="m41.007812 19.128906c-11.53125-.691406-15.945312-16.375-15.988281-16.53125-.378906-1.402344-1.703125-2.324218-3.164062-2.203125-1.453125.132813-2.597657 1.289063-2.71875 2.738281-1.160157 13.742188-15.292969 16.132813-15.886719 16.226563-1.523438.230469-2.625 1.582031-2.546875 3.121094.082031 1.542969 1.316406 2.769531 2.855469 2.839843 12.074218.570313 15.449218 17.292969 15.476562 17.457032.273438 1.421875 1.519532 2.4375 2.945313 2.4375.085937 0 .167969-.003906.25-.007813 1.53125-.128906 2.714843-1.386719 2.753906-2.921875.257813-11.417968 16.664063-17.269531 16.824219-17.324218 1.355468-.46875 2.1875-1.828126 1.992187-3.246094-.195312-1.417969-1.367187-2.503906-2.792969-2.585938zm-19.171874 13.589844c-1.847657-3.773438-4.679688-7.894531-8.894532-10.558594 3.714844-2.082031 7.394532-5.261718 9.742188-9.835937 2.117187 3.75 5.308594 7.910156 9.882812 10.449219-3.699218 2.199218-7.976562 5.476562-10.730468 9.945312zm0 0" fill="#3a312a"/><path d="m138.71875 235.429688-17.996094-79.484376c-4.601562-20.335937-29.484375-28.058593-44.796875-13.90625l-59.839843 55.320313c-15.308594 14.15625-9.554688 39.574219 10.355468 45.753906l77.832032 24.160157c19.90625 6.179687 39.046874-11.507813 34.445312-31.84375zm0 0" fill="#d7e057" fill-rule="evenodd"/><path d="m141.640625 234.765625-17.992187-79.480469c-2.402344-10.613281-10.039063-18.871094-20.421876-22.089844-10.378906-3.222656-21.347656-.742187-29.335937 6.640626l-59.839844 55.320312c-7.988281 7.382812-11.320312 18.125-8.917969 28.730469 2.398438 10.609375 10.03125 18.863281 20.417969 22.089843l77.832031 24.160157c2.996094.929687 6.039063 1.386719 9.042969 1.386719 7.417969 0 14.613281-2.777344 20.296875-8.03125 7.988282-7.378907 11.320313-18.117188 8.917969-28.726563zm-12.988281 24.324219c-6.394532 5.910156-15.175782 7.898437-23.488282 5.316406l-77.835937-24.160156c-8.3125-2.582032-14.421875-9.191406-16.34375-17.683594s.746094-17.089844 7.136719-23l59.84375-55.320312c6.390625-5.914063 15.175781-7.894532 23.484375-5.320313 8.316406 2.582031 14.425781 9.195313 16.351562 17.6875l17.992188 79.480469c1.921875 8.492187-.75 17.089844-7.140625 23zm0 0" fill="#3a312a"/><path d="m363.023438 202-18.839844-17.480469-22.722656-21.085937-18.171876-16.863282c-15.285156-14.179687-40.179687-6.503906-44.820312 13.824219l-18.144531 79.449219c-4.640625 20.328125 14.464843 38.050781 34.386719 31.910156l77.878906-24.015625c19.914062-6.144531 25.71875-31.550781 10.433594-45.738281zm0 0" fill="#d7e057" fill-rule="evenodd"/><path d="m365.066406 199.800781-18.839844-17.480469c-1.21875-1.125-3.113281-1.054687-4.242187.15625-1.128906 1.214844-1.054687 3.117188.160156 4.242188l18.839844 17.480469c6.378906 5.921875 9.035156 14.527343 7.097656 23.015625-1.9375 8.488281-8.0625 15.089844-16.378906 17.652344l-77.882813 24.015624c-8.316406 2.570313-17.09375.5625-23.472656-5.359374-6.382812-5.921876-9.035156-14.527344-7.101562-23.015626l18.144531-79.449218c1.9375-8.488282 8.058594-15.089844 16.378906-17.652344 8.3125-2.5625 17.09375-.558594 23.476563 5.363281l18.167968 16.859375c1.214844 1.125 3.113282 1.058594 4.242188-.15625 1.125-1.214844 1.054688-3.113281-.160156-4.242187l-18.167969-16.859375c-7.976563-7.398438-18.933594-9.898438-29.328125-6.699219-10.390625 3.207031-18.039062 11.449219-20.460938 22.050781l-18.140624 79.449219c-2.421876 10.605469.890624 21.351563 8.863281 28.746094 5.6875 5.28125 12.898437 8.066406 20.335937 8.066406 2.988282 0 6.011719-.449219 8.992188-1.367187l77.878906-24.015626c10.390625-3.207031 18.039062-11.453124 20.460938-22.050781 2.421874-10.601562-.894532-21.347656-8.863282-28.75zm0 0" fill="#3a312a"/><path d="m348.742188 290.269531-40.75-70.574219c-10.425782-18.058593-36.480469-18.058593-46.902344 0l-40.75 70.574219c-10.425782 18.058594 2.605468 40.625 23.449218 40.625h81.5c20.847657 0 33.878907-22.566406 23.453126-40.625zm0 0" fill="#d7e057" fill-rule="evenodd"/><path d="m351.34375 288.769531-40.75-70.570312c-5.4375-9.421875-15.179688-15.046875-26.054688-15.046875-10.871093.003906-20.609374 5.625-26.042968 15.046875l-40.75 70.570312c-5.4375 9.417969-5.4375 20.667969-.003906 30.085938 5.4375 9.417969 15.175781 15.042969 26.050781 15.042969h81.5c10.875 0 20.613281-5.625 26.046875-15.042969 5.4375-9.417969 5.4375-20.664063.003906-30.085938zm-5.199219 27.085938c-4.355469 7.539062-12.148437 12.042969-20.855469 12.042969h-81.5c-8.703124 0-16.5-4.503907-20.851562-12.042969-4.355469-7.539063-4.355469-16.542969 0-24.085938l40.75-70.570312c4.351562-7.542969 12.148438-12.042969 20.851562-12.046875 8.707032 0 16.5 4.503906 20.859376 12.046875l40.75 70.570312c4.351562 7.539063 4.351562 16.542969-.003907 24.085938zm0 0" fill="#3a312a"/><path d="m254.582031 151.828125-60.144531-54.992187c-15.386719-14.070313-40.226562-6.207032-44.714844 14.152343l-17.558594 79.578125c-4.492187 20.363282 14.742188 37.949219 34.613282 31.660156l77.703125-24.589843c19.871093-6.289063 25.488281-31.738281 10.101562-45.808594zm0 0" fill="#d7e057" fill-rule="evenodd"/><path d="m256.601562 149.613281-60.136718-54.988281c-8.027344-7.335938-19.003906-9.761719-29.375-6.480469-10.367188 3.277344-17.957032 11.578125-20.300782 22.203125l-17.558593 79.574219c-2.339844 10.625 1.050781 21.347656 9.078125 28.683594 5.667968 5.1875 12.8125 7.917969 20.175781 7.917969 3.054687 0 6.15625-.472657 9.199219-1.4375l77.699218-24.589844c10.367188-3.277344 17.957032-11.578125 20.296876-22.199219 2.34375-10.621094-1.046876-21.34375-9.078126-28.683594zm3.222657 27.390625c-1.878907 8.5-7.953125 15.144532-16.25 17.773438l-77.703125 24.589844c-8.300782 2.617187-17.089844.683593-23.515625-5.191407s-9.140625-14.457031-7.265625-22.960937l17.558594-79.578125c1.875-8.503907 7.953124-15.148438 16.25-17.777344 2.4375-.769531 4.914062-1.144531 7.363281-1.144531 5.894531 0 11.613281 2.183594 16.152343 6.335937l60.144532 54.992188c6.425781 5.875 9.140625 14.457031 7.265625 22.960937zm0 0" fill="#3a312a"/><path d="m215.660156 178.417969-73.425781 35.351562c-18.785156 9.046875-20.730469 35.035157-3.507813 46.777344l67.335938 45.914063c17.21875 11.742187 40.703125.4375 42.261719-20.351563l6.089843-81.265625c1.558594-20.792969-19.96875-35.472656-38.753906-26.425781zm0 0" fill="#d7e057" fill-rule="evenodd"/><path d="m244.355469 177.960938c-8.984375-6.125-20.195313-6.964844-29.996094-2.246094l-73.425781 35.351562c-9.800782 4.71875-16.136719 14.011719-16.949219 24.859375-.8125 10.847657 4.066406 20.976563 13.050781 27.101563l67.335938 45.914062c5.132812 3.5 10.988281 5.273438 16.894531 5.273438 4.433594 0 8.898437-1 13.101563-3.023438 9.800781-4.71875 16.132812-14.011718 16.949218-24.859375l6.089844-81.265625c.8125-10.847656-4.066406-20.980468-13.050781-27.105468zm7.066406 26.65625-6.089844 81.265624c-.648437 8.683594-5.722656 16.121094-13.566406 19.898438s-16.820313 3.105469-24.011719-1.796875l-67.335937-45.914063c-7.191407-4.90625-11.097657-13.015624-10.445313-21.695312.648438-8.683594 5.71875-16.125 13.566406-19.902344l73.425782-35.351562c7.847656-3.777344 16.824218-3.105469 24.015625 1.796875 7.1875 4.902343 11.09375 13.015625 10.441406 21.699219zm0 0" fill="#3a312a"/><path d="m447.558594 282.535156-23.804688-77.945312c-6.085937-19.9375-31.476562-25.808594-45.703125-10.5625l-55.597656 59.582031c-14.222656 15.246094-6.613281 40.164063 13.699219 44.859375l79.398437 18.363281c20.3125 4.695313 38.09375-14.359375 32.007813-34.296875zm0 0" fill="#d7e057" fill-rule="evenodd"/><path d="m450.425781 281.65625-23.800781-77.945312c-3.175781-10.398438-11.398438-18.070313-21.992188-20.519532-10.601562-2.460937-21.355468.832032-28.777343 8.785156l-55.59375 59.582032c-7.421875 7.957031-9.953125 18.910156-6.777344 29.3125 3.175781 10.398437 11.394531 18.070312 21.992187 20.519531l79.398438 18.363281c2.308594.535156 4.628906.792969 6.917969.792969 8.210937 0 16.050781-3.363281 21.855469-9.582031 7.421874-7.949219 9.953124-18.90625 6.777343-29.308594zm-11.164062 25.21875c-5.945313 6.367188-14.558594 8.992188-23.035157 7.03125l-79.398437-18.359375c-8.484375-1.960937-15.066406-8.101563-17.609375-16.425781-2.542969-8.328125-.515625-17.097656 5.429688-23.464844l55.59375-59.585938c4.644531-4.976562 10.921874-7.667968 17.496093-7.667968 1.832031 0 3.6875.207031 5.539063.636718 8.480468 1.957032 15.0625 8.101563 17.609375 16.429688l23.800781 77.945312c2.542969 8.320313.511719 17.09375-5.425781 23.460938zm0 0" fill="#3a312a"/><path d="m133.257812 311.03125-13.832031-80.3125c-3.539062-20.550781-27.984375-29.558594-44.011719-16.21875l-62.640624 52.128906c-16.023438 13.335938-11.601563 39.019532 7.960937 46.230469l76.46875 28.179687c19.558594 7.207032 39.59375-9.460937 36.054687-30.007812zm0 0" fill="#d7e057" fill-rule="evenodd"/><path d="m136.214844 310.523438-13.832032-80.3125c-1.847656-10.71875-9.039062-19.363282-19.242187-23.121094-10.203125-3.765625-21.285156-1.851563-29.644531 5.105468l-62.640625 52.128907c-8.359375 6.960937-12.25 17.511719-10.40625 28.230469 1.847656 10.714843 9.042969 19.359374 19.242187 23.117187l76.472656 28.183594c3.449219 1.273437 6.996094 1.894531 10.503907 1.894531 6.878906 0 13.605469-2.394531 19.140625-7 8.359375-6.957031 12.25-17.511719 10.40625-28.226562zm-14.242188 23.613281c-6.695312 5.570312-15.5625 7.09375-23.734375 4.089843l-76.46875-28.183593c-8.167969-3.007813-13.925781-9.929688-15.40625-18.507813-1.476562-8.582031 1.636719-17.03125 8.328125-22.597656l62.640625-52.128906c6.695313-5.574219 15.570313-7.097656 23.734375-4.089844 8.167969 3.011719 13.925782 9.929688 15.402344 18.511719l13.832031 80.3125c1.476563 8.578125-1.636719 17.023437-8.328125 22.59375zm0 0" fill="#3a312a"/><path d="m217.945312 250.609375-57.617187-57.640625c-14.734375-14.742188-39.910156-8.003906-45.3125 12.132812l-21.105469 78.710938c-5.402344 20.140625 13.015625 38.566406 33.160156 33.175781l78.71875-21.074219c20.144532-5.386718 26.890626-30.5625 12.15625-45.304687zm0 0" fill="#d7e057" fill-rule="evenodd"/><path d="m220.066406 248.488281-57.617187-57.640625c-7.6875-7.691406-18.550781-10.605468-29.054688-7.792968-10.503906 2.8125-18.460937 10.765624-21.277343 21.269531l-21.105469 78.710937c-2.820313 10.507813.089843 21.371094 7.773437 29.058594 5.761719 5.761719 13.300782 8.84375 21.136719 8.84375 2.625 0 5.285156-.347656 7.917969-1.050781l78.722656-21.070313c10.503906-2.8125 18.460938-10.765625 21.277344-21.269531 2.824218-10.503906-.085938-21.367187-7.773438-29.058594zm1.984375 27.503907c-2.253906 8.410156-8.625 14.777343-17.035156 17.027343l-78.71875 21.070313c-8.414063 2.257812-17.109375-.078125-23.261719-6.234375s-8.480468-14.855469-6.226562-23.261719l21.105468-78.714844c2.257813-8.410156 8.625-14.773437 17.035157-17.023437 2.109375-.566407 4.238281-.84375 6.335937-.84375 6.277344 0 12.3125 2.464843 16.925782 7.078125l57.613281 57.640625c6.152343 6.15625 8.480469 14.851562 6.226562 23.261719zm0 0" fill="#3a312a"/><path d="m3.007812 299.304688c0 76.539062 99.78125 138.597656 222.882813 138.597656 123.097656 0 222.878906-62.058594 222.878906-138.597656zm0 0" fill="#fce8cb"/><path d="m448.769531 296.304688h-371.84375c-1.660156 0-3 1.34375-3 3s1.339844 3 3 3h368.792969c-2.601562 73.386718-100.214844 132.597656-219.828125 132.597656-119.617187 0-217.226563-59.207032-219.828125-132.597656h40.789062c1.65625 0 3-1.34375 3-3s-1.34375-3-3-3h-43.84375c-1.65625 0-2.9999995 1.34375-2.9999995 3 0 78.078124 101.3281255 141.597656 225.8828125 141.597656 124.550781 0 225.878906-63.519532 225.878906-141.597656 0-1.65625-1.34375-3-3-3zm0 0" fill="#3a312a"/><path d="m131.503906 425.507812h188.773438v23.460938h-188.773438zm0 0" fill="#fce8cb"/><path d="m320.273438 422.507812h-188.769532c-1.660156 0-3 1.34375-3 3v23.460938c0 1.65625 1.339844 3 3 3h188.773438c1.65625 0 3-1.34375 3-3v-23.460938c-.003906-1.65625-1.347656-3-3.003906-3zm-3 23.460938h-182.769532v-17.460938h182.773438v17.460938zm0 0" fill="#3a312a"/><path d="m444.6875 283.40625-23.796875-77.9375c-2.542969-8.320312-9.121094-14.460938-17.621094-16.441406-1.839843-.417969-3.699219-.621094-5.539062-.621094-6.5625 0-12.820313 2.679688-17.460938 7.640625 2.460938 2.621094 4.300781 5.820313 5.398438 9.421875l23.820312 77.9375c1.300781 4.320312 1.378907 8.742188.320313 12.902344h35.21875c1.042968-4.160156.980468-8.582032-.339844-12.902344zm0 0" fill="#b9c239"/><path d="m410.507812 302.308594c-1.878906 53.300781-53.898437 99.097656-128.039062 120.199218h35.199219c74.160156-21.101562 126.160156-66.898437 128.042969-120.199218zm0 0" fill="#decaad"/></svg>