<svg height="454pt" viewBox="0 -1 454.80701 454" width="454pt" xmlns="http://www.w3.org/2000/svg"><path d="m127.21875 147.136719c-56.171875 0-101.707031 45.535156-101.707031 101.707031 0 .257812.015625.515625.019531.773438h203.375c.003906-.257813.023438-.515626.023438-.773438-.003907-56.171875-45.539063-101.707031-101.710938-101.707031zm0 0" fill="#d7e057"/><path d="m127.21875 144.136719c-57.738281 0-104.710938 46.972656-104.710938 104.707031l.019532.792969c.011718 1.648437 1.351562 2.980469 3 2.980469h203.375c1.648437 0 2.988281-1.332032 3-2.980469l.023437-.792969c0-57.734375-46.972656-104.707031-104.707031-104.707031zm-98.683594 102.480469c1.1875-53.402344 45-96.480469 98.683594-96.480469s97.492188 43.078125 98.679688 96.480469zm0 0" fill="#3a312a"/><path d="m127.21875 176.246094c-40.214844 0-72.816406 32.601562-72.816406 72.816406 0 .1875.011718.367188.015625.554688h145.605469c0-.1875.011718-.371094.011718-.554688 0-40.214844-32.601562-72.816406-72.816406-72.816406zm0 0" fill="#d7e057"/><path d="m127.21875 173.246094c-41.804688 0-75.816406 34.011718-75.816406 75.816406l.015625.585938c.015625 1.644531 1.355469 2.96875 3 2.96875h145.605469c1.65625 0 3.003906-1.507813 3.003906-3.164063l.007812-.390625c0-41.804688-34.011718-75.816406-75.816406-75.816406zm-69.773438 73.371094c1.292969-37.367188 32.09375-67.371094 69.773438-67.371094 37.625 0 68.394531 29.917968 69.761719 67.371094zm0 0" fill="#3a312a"/><path d="m127.21875 204.777344c-24.578125 0-44.503906 19.921875-44.503906 44.5 0 .113281.007812.226562.007812.339844h88.988282c0-.113282.007812-.226563.007812-.339844 0-24.574219-19.921875-44.5-44.5-44.5zm0 0" fill="#d7e057"/><path d="m127.21875 201.777344c-26.195312 0-47.503906 21.308594-47.503906 47.503906l.007812.335938c0 1.660156 1.34375 3 3 3h88.988282c1.621093 0 2.945312-1.449219 3.003906-3.0625 0-.039063.003906-.238282.003906-.273438 0-26.195312-21.304688-47.503906-47.5-47.503906zm-41.417969 44.839844c1.375-21.648438 19.425781-38.839844 41.417969-38.839844 21.96875 0 40.007812 17.164062 41.410156 38.839844zm0 0" fill="#3a312a"/><path d="m330.632812 147.136719c-56.171874 0-101.707031 45.535156-101.707031 101.707031 0 .257812.019531.515625.019531.773438h203.378907c0-.257813.019531-.515626.019531-.773438 0-56.171875-45.539062-101.707031-101.710938-101.707031zm0 0" fill="#d7e057"/><path d="m330.632812 144.136719c-57.734374 0-104.707031 46.972656-104.707031 104.707031l.019531.773438c0 1.65625 1.34375 3 3 3h203.378907c1.648437 0 2.988281-1.332032 3-2.980469l.019531-.792969c0-57.734375-46.972656-104.707031-104.710938-104.707031zm-98.683593 102.480469c1.1875-53.402344 45-96.480469 98.683593-96.480469 53.683594 0 97.496094 43.078125 98.683594 96.480469zm0 0" fill="#3a312a"/><path d="m330.632812 176.246094c-40.214843 0-72.816406 32.601562-72.816406 72.816406 0 .1875.015625.367188.015625.554688h145.605469c0-.1875.011719-.371094.011719-.554688 0-40.214844-32.597657-72.816406-72.816407-72.816406zm0 0" fill="#d7e057"/><path d="m330.632812 173.246094c-41.800781 0-75.816406 34.011718-75.816406 75.816406l.015625.554688c0 1.65625 1.34375 3 3 3h145.605469c1.644531 0 2.988281-1.503907 3.003906-3.148438l.011719-.40625c-.003906-41.804688-34.011719-75.816406-75.820313-75.816406zm-69.769531 73.371094c1.292969-37.367188 32.09375-67.371094 69.773438-67.371094 37.617187 0 68.378906 29.902344 69.761719 67.371094zm0 0" fill="#3a312a"/><path d="m330.632812 204.777344c-24.578124 0-44.5 19.921875-44.5 44.5 0 .113281.007813.226562.007813.339844h88.984375c0-.113282.007812-.226563.007812-.339844.003907-24.574219-19.921874-44.5-44.5-44.5zm0 0" fill="#d7e057"/><path d="m330.632812 201.777344c-26.191406 0-47.5 21.308594-47.5 47.503906l.007813.335938c0 1.660156 1.34375 3 3 3h88.988281c1.617188 0 2.945313-1.449219 3-3.0625.003906-.039063.007813-.238282.007813-.273438 0-26.195312-21.308594-47.503906-47.503907-47.503906zm-41.417968 44.839844c1.378906-21.648438 19.429687-38.839844 41.417968-38.839844 21.972657 0 40.011719 17.164062 41.414063 38.839844zm0 0" fill="#3a312a"/><path d="m228.925781 147.136719c-56.171875 0-101.707031 45.535156-101.707031 101.707031 0 .257812.015625.515625.019531.773438h203.378907c0-.257813.015624-.515626.015624-.773438 0-56.171875-45.535156-101.707031-101.707031-101.707031zm0 0" fill="#d7e057"/><path d="m228.925781 144.136719c-57.734375 0-104.707031 46.972656-104.707031 104.707031l.019531.792969c.011719 1.648437 1.351563 2.980469 3 2.980469h203.375c1.648438 0 2.988281-1.332032 3-2.980469l.019531-.792969c0-57.734375-46.96875-104.707031-104.707031-104.707031zm-98.683593 102.480469c1.191406-53.402344 45-96.480469 98.683593-96.480469 53.683594 0 97.496094 43.078125 98.683594 96.480469zm0 0" fill="#3a312a"/><path d="m228.925781 176.246094c-40.214843 0-72.816406 32.601562-72.816406 72.816406 0 .1875.011719.367188.015625.554688h145.601562c.003907-.1875.015626-.371094.015626-.554688 0-40.214844-32.601563-72.816406-72.816407-72.816406zm0 0" fill="#d7e057"/><path d="m228.925781 173.246094c-41.804687 0-75.8125 34.011718-75.8125 75.816406l.011719.585938c.019531 1.644531 1.355469 2.96875 3 2.96875h145.605469c1.644531 0 2.988281-1.503907 3.003906-3.148438l.007813-.40625c0-41.804688-34.011719-75.816406-75.816407-75.816406zm-69.773437 73.371094c1.296875-37.367188 32.097656-67.371094 69.773437-67.371094 37.617188 0 68.378907 29.902344 69.761719 67.371094zm0 0" fill="#3a312a"/><path d="m228.925781 204.777344c-24.578125 0-44.5 19.921875-44.5 44.5 0 .113281.007813.226562.007813.339844h88.988281c0-.113282.007813-.226563.007813-.339844 0-24.574219-19.925782-44.5-44.503907-44.5zm0 0" fill="#d7e057"/><path d="m228.925781 201.777344c-26.195312 0-47.5 21.308594-47.5 47.503906l.007813.386719c.03125 1.636719 1.363281 2.949219 3 2.949219h88.988281c1.609375 0 2.9375-1.417969 3-3.027344.003906-.039063.007813-.269532.007813-.308594 0-26.195312-21.3125-47.503906-47.503907-47.503906zm-41.417969 44.839844c1.378907-21.648438 19.429688-38.839844 41.417969-38.839844 21.96875 0 40.007813 17.15625 41.414063 38.839844zm0 0" fill="#3a312a"/><path d="m6.046875 249.625c2.097656 20.617188 7.417969 40.359375 15.539063 58.777344 10.238281 23.359375 24.941406 44.601562 43.121093 62.800781 40.878907 41 99.320313 66.640625 164.21875 66.640625 64.898438 0 123.339844-25.640625 164.21875-66.640625 18.179688-18.199219 32.882813-39.441406 43.121094-62.800781 8.121094-18.417969 13.441406-38.160156 15.539063-58.777344zm0 0" fill="#fce8cb"/><path d="m454.03125 247.613281c-.566406-.628906-1.378906-.988281-2.226562-.988281h-445.757813c-.847656 0-1.660156.359375-2.226563.988281-.566406.628907-.84375 1.46875-.757812 2.3125 2.101562 20.617188 7.40625 40.699219 15.777344 59.683594 10.324218 23.550781 25.042968 44.988281 43.742187 63.710937 42.789063 42.914063 103.417969 67.523438 166.34375 67.523438 62.929688 0 123.558594-24.609375 166.34375-67.519531 18.703125-18.726563 33.421875-40.164063 43.742188-63.710938 8.371093-18.988281 13.679687-39.070312 15.78125-59.6875.082031-.84375-.191407-1.683593-.761719-2.3125zm-20.511719 59.585938c-10.023437 22.867187-24.320312 43.691406-42.496093 61.886719-41.667969 41.789062-100.75 65.757812-162.097657 65.757812-61.34375 0-120.425781-23.96875-162.09375-65.761719-18.175781-18.191406-32.472656-39.015625-42.5-61.886719-7.667969-17.398437-12.6875-35.742187-14.9375-54.570312h439.0625c-2.25 18.828125-7.265625 37.171875-14.9375 54.574219zm0 0" fill="#3a312a"/><path d="m153.578125 425.703125h150.699219v23.460937h-150.699219zm0 0" fill="#fce8cb"/><path d="m304.273438 422.703125h-150.695313c-1.65625 0-3 1.34375-3 3v23.460937c0 1.660157 1.34375 3 3 3h150.699219c1.65625 0 3-1.339843 3-3v-23.460937c-.003906-1.65625-1.34375-3-3.003906-3zm-3 23.460937h-144.695313v-17.460937h144.699219v17.460937zm0 0" fill="#3a312a"/><path d="m444.164062 3.53125-202.46875 3.417969-29.589843.5-198.871094 3.359375c-3.988281.066406-7.1875 3.320312-7.1875 7.308594 0 3.984374 3.199219 7.238281 7.1875 7.304687l430.929687 7.28125c4.085938.066406 7.433594-3.226563 7.433594-7.308594v-14.558593c-.003906-4.085938-3.351562-7.375-7.433594-7.304688zm0 0" fill="#87796f"/><path d="m451.515625 3.488281c-1.988281-1.953125-4.589844-3.011719-7.402344-2.957031l-202.472656 3.417969c-1.65625.027343-2.972656 1.394531-2.949219 3.050781.027344 1.640625 1.367188 2.949219 3 2.949219h.050782l202.46875-3.417969c1.101562-.0625 2.265624.417969 3.09375 1.234375.832031.816406 1.289062 1.90625 1.289062 3.074219v14.554687c0 1.164063-.457031 2.253907-1.289062 3.074219-.832032.816406-1.90625 1.285156-3.09375 1.234375l-430.929688-7.28125c-2.335938-.035156-4.234375-1.96875-4.234375-4.304687 0-2.335938 1.898437-4.273438 4.234375-4.308594l198.871094-3.359375c1.65625-.027344 2.976562-1.394531 2.953125-3.050781-.03125-1.65625-1.332031-2.976563-3.050781-2.949219l-198.871094 3.359375c-5.589844.09375-10.136719 4.71875-10.136719 10.308594 0 5.585937 4.546875 10.210937 10.136719 10.304687l430.929687 7.28125h.175781c2.722657 0 5.28125-1.046875 7.226563-2.960937 1.984375-1.953126 3.078125-4.5625 3.078125-7.347657v-14.554687c0-2.789063-1.09375-5.398438-3.078125-7.351563zm0 0" fill="#3a312a"/><path d="m441.335938 51.050781-430.828126-11.753906c-3.988281-.109375-7.328124 3-7.503906 6.984375-.175781 3.980469 2.875 7.371094 6.855469 7.617188l430.1875 26.296874c4.078125.25 7.570313-2.894531 7.75-6.972656l.640625-14.542968c.183594-4.082032-3.015625-7.519532-7.101562-7.628907zm0 0" fill="#87796f"/><path d="m451.4375 58.8125c.121094-2.785156-.855469-5.441406-2.753906-7.480469-1.898438-2.039062-4.476563-3.203125-7.261719-3.28125l-430.832031-11.753906c-.097656-.003906-.191406-.003906-.28125-.003906-5.464844 0-10.054688 4.363281-10.2968752 9.851562-.2499998 5.585938 4.0898432 10.40625 9.6679692 10.746094l430.1875 26.296875c.214843.015625.429687.019531.644531.019531 2.546875 0 4.96875-.925781 6.878906-2.648437 2.070313-1.863282 3.28125-4.421875 3.402344-7.207032zm-6.640625 14.273438c0 .003906 0 .003906 0 0-.046875 1.164062-.554687 2.234374-1.417969 3.011718-.867187.78125-1.984375 1.164063-3.148437 1.101563l-430.1875-26.296875c-2.332031-.144532-4.144531-2.15625-4.039063-4.492188.101563-2.292968 2.019532-4.117187 4.300782-4.117187h.121093l430.832031 11.757812c1.164063.03125 2.242188.515625 3.035157 1.367188.792969.855469 1.203125 1.964843 1.148437 3.128906zm0 0" fill="#3a312a"/><path d="m44.074219 3.402344c-5.957031 0-10.785157 4.828125-10.785157 10.789062v119.191406c0 5.957032 4.828126 10.785157 10.785157 10.785157s10.785156-4.828125 10.785156-10.785157v-119.195312c0-5.957031-4.828125-10.785156-10.785156-10.785156zm0 0" fill="#d7e057"/><path d="m44.074219.402344c-7.601563 0-13.785157 6.183594-13.785157 13.789062v119.191406c0 7.601563 6.183594 13.785157 13.785157 13.785157 7.601562 0 13.785156-6.183594 13.785156-13.785157v-119.191406c0-7.605468-6.183594-13.789062-13.785156-13.789062zm7.785156 132.980468c0 4.292969-3.492187 7.785157-7.785156 7.785157s-7.785157-3.492188-7.785157-7.785157v-119.191406c0-4.292968 3.492188-7.789062 7.785157-7.789062s7.785156 3.496094 7.785156 7.789062zm0 0" fill="#3a312a"/><path d="m65.644531 3.402344c-5.957031 0-10.785156 4.828125-10.785156 10.789062v47.050782c0 5.957031 4.828125 10.789062 10.785156 10.789062s10.785157-4.828125 10.785157-10.789062v-47.054688c0-5.957031-4.828126-10.785156-10.785157-10.785156zm0 0" fill="#d7e057"/><path d="m65.644531.402344c-7.601562 0-13.785156 6.183594-13.785156 13.789062v47.050782c0 7.601562 6.183594 13.789062 13.785156 13.789062 7.601563 0 13.785157-6.1875 13.785157-13.789062v-47.050782c0-7.605468-6.183594-13.789062-13.785157-13.789062zm7.785157 60.839844c0 4.292968-3.492188 7.789062-7.785157 7.789062s-7.785156-3.492188-7.785156-7.789062v-47.050782c0-4.292968 3.492187-7.789062 7.785156-7.789062s7.785157 3.496094 7.785157 7.789062zm0 0" fill="#3a312a"/><path d="m87.214844 3.402344c-5.957032 0-10.785156 4.828125-10.785156 10.789062v47.050782c0 5.957031 4.828124 10.789062 10.785156 10.789062 5.957031 0 10.785156-4.828125 10.785156-10.789062v-47.054688c0-5.957031-4.828125-10.785156-10.785156-10.785156zm0 0" fill="#d7e057"/><path d="m87.214844.402344c-7.601563 0-13.785156 6.183594-13.785156 13.789062v47.050782c0 7.601562 6.183593 13.789062 13.785156 13.789062 7.601562 0 13.785156-6.1875 13.785156-13.789062v-47.050782c0-7.605468-6.183594-13.789062-13.785156-13.789062zm7.785156 60.839844c0 4.292968-3.492188 7.789062-7.785156 7.789062-4.292969 0-7.785156-3.492188-7.785156-7.789062v-47.050782c0-4.292968 3.492187-7.789062 7.785156-7.789062 4.292968 0 7.785156 3.496094 7.785156 7.789062zm0 0" fill="#3a312a"/><path d="m108.785156 3.402344c-5.957031 0-10.785156 4.828125-10.785156 10.789062v47.050782c0 5.957031 4.824219 10.789062 10.785156 10.789062 5.953125 0 10.785156-4.828125 10.785156-10.789062v-47.054688c0-5.957031-4.828124-10.785156-10.785156-10.785156zm0 0" fill="#d7e057"/><path d="m108.785156.402344c-7.601562 0-13.785156 6.183594-13.785156 13.789062v47.050782c0 7.601562 6.183594 13.789062 13.785156 13.789062 7.601563 0 13.785156-6.1875 13.785156-13.789062v-47.050782c0-7.605468-6.183593-13.789062-13.785156-13.789062zm7.785156 60.839844c0 4.292968-3.492187 7.789062-7.785156 7.789062-4.296875 0-7.785156-3.492188-7.785156-7.789062v-47.050782c0-4.292968 3.488281-7.789062 7.785156-7.789062 4.292969 0 7.785156 3.496094 7.785156 7.789062zm0 0" fill="#3a312a"/><path d="m419.265625 252.625c-2.179687 18.199219-6.960937 35.917969-14.179687 52.777344h29.179687c7.242187-16.859375 12.019531-34.578125 14.179687-52.777344zm0 0" fill="#decaad"/><path d="m356.527344 374.203125c-23.28125 21.761719-51.441406 38.261719-82.121094 48.5h29.179688c30.679687-10.238281 58.859374-26.738281 82.121093-48.5zm0 0" fill="#decaad"/><path d="m21.585938 308.402344c10.238281 23.359375 24.941406 44.601562 43.121093 62.800781h328.4375c18.179688-18.199219 32.882813-39.441406 43.121094-62.800781zm0 0" fill="#f16c7a"/><path d="m438.777344 306.761719c-.554688-.847657-1.496094-1.359375-2.511719-1.359375h-74.367187c-1.65625 0-3 1.34375-3 3 0 1.660156 1.34375 3 3 3h69.71875c-9.726563 20.855468-23.070313 39.941406-39.71875 56.800781h-325.945313c-16.644531-16.859375-29.988281-35.945313-39.71875-56.800781h305.722656c1.65625 0 3-1.339844 3-3 0-1.65625-1.34375-3-3-3h-310.367187c-1.015625 0-1.960938.511718-2.515625 1.359375-.550781.847656-.640625 1.917969-.234375 2.847656 10.324218 23.550781 25.042968 44.988281 43.746094 63.714844.558593.5625 1.324218.878906 2.121093.878906h328.441407c.796874 0 1.558593-.316406 2.121093-.878906 18.703125-18.726563 33.421875-40.164063 43.746094-63.714844.40625-.929687.316406-2-.238281-2.847656zm0 0" fill="#3a312a"/><path d="m402.425781 311.402344c-9.738281 20.859375-23.078125 39.941406-39.71875 56.800781h29.199219c16.640625-16.859375 29.980469-35.941406 39.699219-56.800781zm0 0" fill="#d34e5c"/></svg>