<svg height="452pt" viewBox="-4 0 452 452.71851" width="452pt" xmlns="http://www.w3.org/2000/svg"><path d="m66.152344 22.351562c-1.945313 23.128907-26.046875 26.78125-26.046875 26.78125 20.695312.972657 25.851562 28.117188 25.851562 28.117188.441407-19.351562 26.640625-28.402344 26.640625-28.402344-19.625-1.175781-26.445312-26.496094-26.445312-26.496094zm0 0" fill="#d7e057"/><path d="m92.777344 45.851562c-17.207032-1.027343-23.664063-24.050781-23.726563-24.28125-.378906-1.402343-1.703125-2.320312-3.167969-2.203124-1.449218.132812-2.59375 1.285156-2.71875 2.734374-1.714843 20.429688-22.621093 23.925782-23.507812 24.0625-1.523438.230469-2.625 1.582032-2.546875 3.121094.078125 1.542969 1.3125 2.769532 2.855469 2.84375 18.054687.847656 22.996094 25.4375 23.042968 25.6875.277344 1.421875 1.519532 2.433594 2.945313 2.433594.085937 0 .167969-.003906.253906-.011719 1.527344-.128906 2.710938-1.386719 2.75-2.917969.386719-17.019531 24.378907-25.554687 24.621094-25.636718 1.351563-.472656 2.183594-1.832032 1.988281-3.246094-.195312-1.417969-1.359375-2.5-2.789062-2.585938zm-27.132813 20.691407c-2.710937-6.261719-7.417969-13.816407-15.171875-17.753907 5.859375-2.808593 12.816406-7.824218 16.402344-16.542968 3.101562 6.140625 8.402344 13.757812 16.667969 17.441406-6.011719 3.28125-13.84375 8.8125-17.898438 16.855469zm0 0" fill="#3a312a"/><path d="m22.757812 56.316406c-1.378906 16.355469-18.425781 18.941406-18.425781 18.941406 14.636719.6875 18.285157 19.886719 18.285157 19.886719.308593-13.6875 18.84375-20.089843 18.84375-20.089843-13.882813-.832032-18.703126-18.738282-18.703126-18.738282zm0 0" fill="#d7e057"/><path d="m41.640625 72.058594c-11.535156-.691406-15.945313-16.371094-15.988281-16.527344-.378906-1.40625-1.71875-2.324219-3.164063-2.203125-1.449219.128906-2.597656 1.285156-2.722656 2.734375-1.152344 13.742188-15.289063 16.132812-15.878906 16.226562-1.527344.230469-2.628907 1.578126-2.546875 3.121094.078125 1.539063 1.3125 2.769532 2.855468 2.84375 12.070313.566406 15.445313 17.285156 15.476563 17.449219.273437 1.425781 1.515625 2.441406 2.945313 2.441406.082031 0 .167968-.003906.25-.011719 1.53125-.125 2.714843-1.386718 2.753906-2.921874.257812-11.417969 16.664062-17.265626 16.824218-17.324219 1.351563-.464844 2.1875-1.824219 1.992188-3.242188-.199219-1.417969-1.367188-2.503906-2.796875-2.585937zm-19.167969 13.589844c-1.847656-3.773438-4.679687-7.894532-8.894531-10.558594 3.710937-2.085938 7.394531-5.261719 9.738281-9.835938 2.117188 3.75 5.3125 7.910156 9.882813 10.449219-3.699219 2.203125-7.976563 5.480469-10.726563 9.945313zm0 0" fill="#3a312a"/><path d="m22.757812 3c-1.378906 16.355469-18.425781 18.941406-18.425781 18.941406 14.636719.6875 18.285157 19.886719 18.285157 19.886719.308593-13.691406 18.84375-20.089844 18.84375-20.089844-13.882813-.832031-18.703126-18.738281-18.703126-18.738281zm0 0" fill="#d7e057"/><path d="m41.640625 18.742188c-11.535156-.691407-15.945313-16.371094-15.988281-16.53125-.378906-1.402344-1.71875-2.320313-3.164063-2.1992192-1.449219.1289062-2.597656 1.2851562-2.722656 2.7343752-1.152344 13.742187-15.289063 16.132812-15.878906 16.226562-1.527344.230469-2.628907 1.582032-2.546875 3.125.078125 1.539063 1.3125 2.765625 2.855468 2.839844 12.070313.570312 15.445313 17.289062 15.476563 17.453125.273437 1.425781 1.515625 2.441406 2.945313 2.441406.082031 0 .167968-.003906.25-.011719 1.53125-.128906 2.714843-1.386718 2.753906-2.921874.257812-11.417969 16.664062-17.269532 16.824218-17.324219 1.351563-.46875 2.1875-1.824219 1.992188-3.242188-.199219-1.417969-1.367188-2.503906-2.796875-2.589843zm-19.167969 13.589843c-1.847656-3.773437-4.679687-7.894531-8.894531-10.558593 3.710937-2.082032 7.394531-5.261719 9.738281-9.832032 2.117188 3.746094 5.3125 7.90625 9.882813 10.445313-3.699219 2.203125-7.976563 5.480469-10.726563 9.945312zm0 0" fill="#3a312a"/><path d="m437.082031 307.695312c-4.757812-17.273437-12.40625-32.785156-22.042969-45.898437-24.777343-33.691406-36.054687-74.625-32.035156-116.25 1.566406-16.199219.1875-33.4375-4.574218-50.710937-17.269532-62.667969-72.476563-102.113282-123.3125-88.105469-16.703126 4.601562-30.835938 14.429687-41.699219 27.738281l-15.683594 26.976562c-9.734375 24.484376-11.632813 54.234376-3.398437 84.117188 4.761718 17.277344 12.40625 32.789062 22.046874 45.898438 24.773438 33.691406 36.054688 74.625 32.03125 116.25-1.566406 16.199218-.183593 33.4375 4.574219 50.714843 17.269531 62.664063 72.480469 102.109375 123.3125 88.101563 50.839844-14.007813 78.050781-76.164063 60.78125-138.832032zm0 0" fill="#fce8cb"/><g fill="#3a312a"><path d="m439.976562 306.902344c-4.753906-17.25-12.332031-33.023438-22.523437-46.882813-24.21875-32.9375-35.394531-73.488281-31.460937-114.179687 1.652343-17.128906.082031-34.554688-4.671876-51.800782-8.53125-30.96875-26.367187-57.410156-50.21875-74.449218-24.039062-17.175782-51.304687-22.769532-76.785156-15.75-16.6875 4.597656-31.636718 14.535156-43.226562 28.738281-1.042969 1.28125-.855469 3.171875.429687 4.21875 1.285157 1.050781 3.175781.855469 4.21875-.429687 10.796875-13.230469 24.691407-22.476563 40.171875-26.742188 23.695313-6.535156 49.164063-1.257812 71.707032 14.847656 22.730468 16.242188 39.75 41.515625 47.917968 71.160156 4.558594 16.535157 6.066406 33.234376 4.480469 49.628907-4.070313 42.167969 7.503906 84.183593 32.605469 118.316406 9.753906 13.265625 17.011718 28.378906 21.566406 44.917969 8.171875 29.648437 6.5 60.070312-4.703125 85.664062-11.113281 25.375-30.28125 42.949219-53.980469 49.476563-23.703125 6.535156-49.164062 1.257812-71.703125-14.847657-22.730469-16.242187-39.75-41.511718-47.917969-71.160156-4.558593-16.535156-6.066406-33.230468-4.484374-49.628906 4.074218-42.164062-7.503907-84.183594-32.601563-118.3125-9.753906-13.269531-17.011719-28.382812-21.570313-44.921875-7.757812-28.15625-6.589843-57.351563 3.292969-82.210937.613281-1.539063-.136719-3.285157-1.679687-3.894532-1.535156-.613281-3.285156.136719-3.894532 1.679688-10.363281 26.066406-11.605468 56.613281-3.5 86.019531 4.75 17.25 12.328126 33.019531 22.523438 46.882813 24.214844 32.9375 35.390625 73.484374 31.457031 114.179687-1.652343 17.125-.082031 34.554687 4.671875 51.800781 8.535156 30.96875 26.367188 57.40625 50.214844 74.449219 17.273438 12.34375 36.214844 18.703125 54.957031 18.703125 7.347657 0 14.65625-.972656 21.828125-2.949219 25.476563-7.019531 46.035156-25.792969 57.882813-52.859375 11.753906-26.855468 13.527343-58.695312 4.996093-89.664062zm0 0"/><path d="m279.097656 77.359375-10.5625-38.335937c-.441406-1.597657-2.082031-2.535157-3.691406-2.09375-1.597656.4375-2.535156 2.089843-2.09375 3.6875l10.5625 38.335937c.367188 1.332031 1.574219 2.203125 2.890625 2.203125.261719 0 .53125-.035156.796875-.109375 1.597656-.4375 2.539062-2.089844 2.097656-3.6875zm0 0"/><path d="m302.144531 161-10.5625-38.335938c-.4375-1.597656-2.085937-2.53125-3.6875-2.09375-1.597656.4375-2.539062 2.089844-2.097656 3.6875l10.5625 38.335938c.367187 1.332031 1.574219 2.203125 2.890625 2.203125.261719 0 .53125-.035156.800781-.105469 1.597657-.441406 2.53125-2.09375 2.09375-3.691406zm0 0"/><path d="m325.191406 244.640625-10.5625-38.335937c-.441406-1.597657-2.085937-2.53125-3.691406-2.09375-1.597656.441406-2.535156 2.089843-2.09375 3.691406l10.5625 38.332031c.367188 1.332031 1.574219 2.203125 2.890625 2.203125.261719 0 .53125-.035156.796875-.105469 1.601562-.445312 2.539062-2.09375 2.097656-3.691406zm0 0"/><path d="m348.242188 328.28125-10.566407-38.335938c-.441406-1.597656-2.097656-2.535156-3.6875-2.09375-1.597656.4375-2.535156 2.089844-2.097656 3.6875l10.566406 38.335938c.367188 1.332031 1.574219 2.207031 2.886719 2.207031.265625 0 .535156-.039062.800781-.109375 1.597657-.445312 2.535157-2.097656 2.097657-3.691406zm0 0"/><path d="m371.289062 411.921875-10.566406-38.335937c-.441406-1.597657-2.097656-2.535157-3.6875-2.09375-1.601562.4375-2.539062 2.089843-2.097656 3.6875l10.5625 38.335937c.371094 1.332031 1.574219 2.203125 2.890625 2.203125.265625 0 .535156-.035156.796875-.109375 1.601562-.441406 2.539062-2.09375 2.101562-3.6875zm0 0"/><path d="m338.25 106.054688-10.5625-38.335938c-.441406-1.597656-2.089844-2.53125-3.691406-2.09375-1.597656.441406-2.535156 2.089844-2.09375 3.691406l10.5625 38.335938c.367187 1.328125 1.574218 2.203125 2.886718 2.203125.265626 0 .535157-.035157.800782-.109375 1.597656-.441406 2.535156-2.09375 2.097656-3.691406zm0 0"/><path d="m361.296875 189.695312-10.5625-38.335937c-.441406-1.597656-2.09375-2.53125-3.6875-2.09375-1.597656.4375-2.539063 2.089844-2.097656 3.6875l10.5625 38.335937c.367187 1.332032 1.574219 2.207032 2.890625 2.207032.261718 0 .53125-.039063.796875-.109375 1.601562-.441407 2.539062-2.09375 2.097656-3.691407zm0 0"/><path d="m384.34375 273.335938-10.5625-38.332032c-.441406-1.597656-2.085938-2.539062-3.691406-2.097656-1.597656.441406-2.535156 2.09375-2.09375 3.691406l10.5625 38.332032c.367187 1.332031 1.574218 2.203124 2.890625 2.203124.261719 0 .53125-.035156.796875-.105468 1.597656-.441406 2.539062-2.09375 2.097656-3.691406zm0 0"/><path d="m407.390625 356.976562-10.5625-38.335937c-.441406-1.597656-2.097656-2.535156-3.6875-2.097656-1.597656.441406-2.539063 2.09375-2.097656 3.691406l10.5625 38.335937c.367187 1.332032 1.574219 2.203126 2.890625 2.203126.261718 0 .535156-.035157.796875-.105469 1.601562-.441407 2.535156-2.09375 2.097656-3.691407zm0 0"/><path d="m242.992188 132.304688-10.5625-38.335938c-.441407-1.597656-2.085938-2.53125-3.691407-2.09375-1.597656.441406-2.535156 2.089844-2.09375 3.691406l10.5625 38.332032c.367188 1.332031 1.574219 2.203124 2.886719 2.203124.265625 0 .535156-.035156.800781-.105468 1.601563-.445313 2.535157-2.09375 2.097657-3.691406zm0 0"/><path d="m266.042969 215.945312-10.566407-38.335937c-.441406-1.597656-2.097656-2.535156-3.6875-2.097656-1.601562.441406-2.539062 2.09375-2.097656 3.691406l10.5625 38.335937c.371094 1.328126 1.574219 2.203126 2.890625 2.203126.265625 0 .535157-.035157.800781-.109376 1.597657-.441406 2.535157-2.09375 2.097657-3.6875zm0 0"/><path d="m289.085938 299.585938-10.5625-38.335938c-.441407-1.597656-2.101563-2.539062-3.691407-2.09375-1.597656.4375-2.535156 2.089844-2.09375 3.6875l10.5625 38.335938c.367188 1.332031 1.574219 2.203124 2.890625 2.203124.265625 0 .535156-.035156.796875-.109374 1.601563-.441407 2.539063-2.09375 2.097657-3.6875zm0 0"/><path d="m312.136719 383.222656-10.566407-38.335937c-.441406-1.597657-2.09375-2.53125-3.6875-2.09375-1.597656.441406-2.539062 2.089843-2.097656 3.691406l10.5625 38.332031c.371094 1.332032 1.574219 2.203125 2.890625 2.203125.265625 0 .535157-.035156.800781-.105469 1.597657-.441406 2.535157-2.09375 2.097657-3.691406zm0 0"/></g><path d="m344.074219 270.898438c-13.878907-11.332032-29.089844-19.558594-44.542969-24.671876-39.699219-13.136718-72.589844-39.988281-93.398438-76.261718-8.101562-14.117188-19.203124-27.375-33.082031-38.710938-50.351562-41.113281-118.203125-41.328125-151.554687-.484375-33.347656 40.84375-19.566406 107.285157 30.785156 148.394531 13.878906 11.335938 29.089844 19.558594 44.542969 24.671876 39.703125 13.136718 72.589843 39.992187 93.398437 76.261718 8.101563 14.117188 19.199219 27.375 33.082032 38.710938 50.351562 41.113281 118.203124 41.328125 151.550781.484375 33.351562-40.84375 19.570312-107.28125-30.78125-148.394531zm0 0" fill="#fce8cb"/><path d="m345.972656 268.574219c-13.855468-11.3125-29.164062-19.792969-45.496094-25.195313-38.816406-12.84375-71.398437-39.445312-91.742187-74.910156-8.5625-14.921875-19.929687-28.222656-33.789063-39.539062-51.546874-42.09375-121.429687-42.117188-155.773437-.058594-34.34375 42.0625-20.34375 110.527344 31.210937 152.617187 13.851563 11.3125 29.160157 19.789063 45.496094 25.195313 38.816406 12.84375 71.398438 39.445312 91.742188 74.910156 8.5625 14.925781 19.933594 28.230469 33.789062 39.539062 25.789063 21.058594 56.15625 31.585938 84.378906 31.585938 28.1875 0 54.230469-10.511719 71.390626-31.527344 34.34375-42.0625 20.34375-110.523437-31.207032-152.617187zm26.5625 148.824219c-32.253906 39.496093-98.34375 39.085937-147.332031-.910157-13.289063-10.847656-24.179687-23.589843-32.378906-37.878906-21.078125-36.746094-54.839844-64.3125-95.058594-77.617187-15.636719-5.175782-30.300781-13.300782-43.589844-24.148438-48.988281-40-62.605469-104.675781-30.355469-144.175781 32.253907-39.496094 98.34375-39.085938 147.332032.910156 13.289062 10.851563 24.183594 23.59375 32.378906 37.878906 21.082031 36.742188 54.839844 64.308594 95.058594 77.617188 15.632812 5.171875 30.300781 13.296875 43.589844 24.148437 48.984374 40 62.605468 104.675782 30.355468 144.175782zm0 0" fill="#3a312a"/><path d="m321.597656 280.550781c-12.457031-10.175781-25.855468-17.871093-39.265625-23.023437-34.457031-13.234375-63.980469-37.339844-83.839843-68.453125-7.730469-12.109375-17.949219-23.699219-30.410157-33.871094-45.195312-36.902344-102.726562-41.230469-128.5-9.664063-25.773437 31.566407-10.027343 87.070313 35.167969 123.972657 12.460938 10.171875 25.855469 17.867187 39.265625 23.019531 34.460937 13.238281 63.980469 37.339844 83.839844 68.457031 7.726562 12.109375 17.949219 23.695313 30.410156 33.871094 45.195313 36.902344 102.726563 41.230469 128.5 9.664063 25.773437-31.566407 10.03125-87.070313-35.167969-123.972657zm0 0" fill="#87796f"/><path d="m368.679688 343.71875c-6.804688-24-22.855469-47.257812-45.183594-65.492188-12.429688-10.148437-25.917969-18.054687-40.089844-23.5-33.703125-12.945312-62.960938-36.835937-82.386719-67.269531-8.167969-12.796875-18.609375-24.429687-31.039062-34.582031-46.402344-37.886719-105.941407-42.03125-132.722657-9.234375-13.101562 16.046875-16.507812 38.316406-9.589843 62.699219 6.808593 24 22.855469 47.261718 45.183593 65.492187 12.433594 10.148438 25.917969 18.054688 40.09375 23.5 33.699219 12.945313 62.957032 36.835938 82.382813 67.269531 8.164063 12.789063 18.609375 24.425782 31.042969 34.578126 25.390625 20.734374 54.714844 31.363281 80.457031 31.363281 21.296875 0 40.136719-7.277344 52.261719-22.125 13.105468-16.046875 16.507812-38.3125 9.589844-62.699219zm-14.238282 58.90625c-24.683594 30.230469-80.4375 25.707031-124.277344-10.089844-11.941406-9.75-21.960937-20.90625-29.78125-33.164062-20.113281-31.507813-50.398437-56.238282-85.292968-69.636719-13.578125-5.21875-26.511719-12.800781-38.445313-22.546875-21.386719-17.464844-36.734375-39.652344-43.210937-62.484375-6.367188-22.445313-3.359375-42.78125 8.46875-57.265625 10.984375-13.449219 28.105468-20.019531 47.601562-20.019531 24.324219 0 52.339844 10.238281 76.679688 30.109375 11.933594 9.742187 21.953125 20.902344 29.777344 33.160156 20.109374 31.507812 50.402343 56.242188 85.292968 69.644531 13.574219 5.210938 26.511719 12.796875 38.449219 22.542969 21.386719 17.464844 36.730469 39.652344 43.207031 62.484375 6.367188 22.441406 3.359375 42.78125-8.46875 57.265625zm0 0" fill="#3a312a"/><path d="m155.816406 168.007812c-34.328125-28.140624-78.023437-31.59375-97.597656-7.714843-10.863281 13.246093-12 32.121093-5.019531 51.105469l15.605469 26.921874c4.636718 5.707032 10.019531 11.15625 16.121093 16.164063 34.324219 28.136719 78.023438 31.59375 97.597657 7.714844 19.574218-23.878907 7.617187-66.050781-26.707032-94.191407zm0 0" fill="#d7e057"/><path d="m157.71875 165.6875c-35.554688-29.144531-81.230469-32.417969-101.824219-7.296875-11.136719 13.589844-13.144531 33.289063-5.511719 54.046875.570313 1.554688 2.296876 2.351562 3.851563 1.777344 1.554687-.570313 2.351563-2.292969 1.78125-3.847656-6.882813-18.710938-5.234375-36.269532 4.523437-48.167969 18.496094-22.5625 60.382813-18.914063 93.375 8.132812 32.992188 27.046875 44.785157 67.40625 26.289063 89.96875s-60.382813 18.910157-93.375-8.132812c-5.78125-4.738281-11.0625-10.035157-15.695313-15.734375-1.042968-1.285156-2.933593-1.484375-4.21875-.433594-1.285156 1.042969-1.480468 2.933594-.4375 4.21875 4.886719 6.015625 10.453126 11.597656 16.542969 16.589844 19.507813 15.988281 42.050781 24.191406 61.839844 24.191406 16.277344 0 30.6875-5.554688 39.980469-16.894531 20.59375-25.125 8.425781-69.273438-27.121094-98.417969zm0 0" fill="#3a312a"/><path d="m311.417969 295.601562c-34.324219-28.140624-78.019531-31.597656-97.59375-7.71875-19.578125 23.878907-7.621094 66.046876 26.703125 94.191407 34.324218 28.140625 78.019531 31.597656 97.597656 7.71875 19.574219-23.878907 7.621094-66.050781-26.707031-94.191407zm0 0" fill="#d7e057"/><path d="m347.882812 343.457031c-5.207031-18.375-17.480468-36.199219-34.550781-50.195312-35.546875-29.140625-81.226562-32.417969-101.820312-7.296875-10.109375 12.332031-12.746094 29.457031-7.425781 48.21875 5.210937 18.371094 17.480468 36.199218 34.550781 50.195312 19.503906 15.988282 42.050781 24.191406 61.839843 24.191406 16.277344 0 30.6875-5.554687 39.980469-16.894531 10.109375-12.332031 12.746094-29.457031 7.425781-48.21875zm-12.066406 44.410157c-18.496094 22.5625-60.382812 18.917968-93.375-8.128907-16.132812-13.226562-27.707031-29.984375-32.582031-47.195312-4.769531-16.816407-2.535156-32.007813 6.292969-42.773438 18.496094-22.5625 60.382812-18.914062 93.375 8.132813 16.132812 13.222656 27.707031 29.984375 32.585937 47.191406 4.765625 16.816406 2.53125 32.007812-6.296875 42.773438zm0 0" fill="#3a312a"/><path d="m167.886719 366.332031c0 45.210938-36.652344 81.859375-81.863281 81.859375-45.210938 0-81.863282-36.648437-81.863282-81.859375 0-45.210937 36.652344-81.863281 81.863282-81.863281 45.210937 0 81.863281 36.652344 81.863281 81.863281zm0 0" fill="#8ac6dd"/><path d="m86.019531 281.46875c-46.789062 0-84.859375 38.070312-84.859375 84.863281s38.066406 84.863281 84.859375 84.863281c46.796875 0 84.867188-38.070312 84.867188-84.863281s-38.070313-84.863281-84.867188-84.863281zm0 163.722656c-43.480469 0-78.859375-35.375-78.859375-78.859375s35.375-78.863281 78.859375-78.863281c43.488281 0 78.867188 35.375 78.867188 78.863281 0 43.484375-35.378907 78.859375-78.867188 78.859375zm0 0" fill="#3a312a"/><path d="m100.242188 367.636719 25.679687-25.679688c3.90625-3.90625 3.90625-10.238281 0-14.140625-3.902344-3.90625-10.238281-3.90625-14.140625 0l-25.679688 25.679688-25.679687-25.679688c-3.902344-3.90625-10.238281-3.90625-14.140625 0-3.90625 3.902344-3.90625 10.234375 0 14.140625l25.679688 25.679688-25.679688 25.679687c-3.90625 3.902344-3.90625 10.234375 0 14.140625 1.953125 1.953125 4.511719 2.929688 7.070312 2.929688 2.558594 0 5.117188-.976563 7.070313-2.929688l25.679687-25.679687 25.679688 25.679687c1.953125 1.953125 4.511719 2.929688 7.070312 2.929688 2.558594 0 5.117188-.976563 7.070313-2.929688 3.90625-3.90625 3.90625-10.238281 0-14.140625zm0 0" fill="#87796f"/><path d="m104.484375 367.636719 23.558594-23.554688c2.453125-2.457031 3.804687-5.722656 3.804687-9.195312 0-3.46875-1.351562-6.734375-3.804687-9.1875-2.457031-2.457031-5.71875-3.8125-9.195313-3.8125-3.472656 0-6.734375 1.355469-9.191406 3.808593l-23.558594 23.558594-23.554687-23.558594c-2.457031-2.457031-5.71875-3.808593-9.195313-3.808593-3.472656 0-6.734375 1.351562-9.191406 3.808593-2.453125 2.457032-3.808594 5.71875-3.808594 9.191407 0 3.472656 1.355469 6.738281 3.808594 9.191406l23.558594 23.558594-23.558594 23.558593c-2.453125 2.457032-3.808594 5.71875-3.808594 9.191407 0 3.472656 1.355469 6.738281 3.808594 9.191406 2.457031 2.457031 5.71875 3.808594 9.191406 3.808594 3.476563 0 6.738282-1.351563 9.195313-3.808594l23.554687-23.558594 23.558594 23.558594c2.457031 2.457031 5.71875 3.808594 9.191406 3.808594 3.476563 0 6.738282-1.351563 9.195313-3.804688 2.453125-2.457031 3.804687-5.722656 3.804687-9.195312 0-3.46875-1.351562-6.734375-3.804687-9.191407zm19.3125 37.703125c-2.640625 2.644531-7.25 2.644531-9.894531-.003906l-25.679688-25.679688c-.585937-.585938-1.355468-.878906-2.125-.878906-.765625 0-1.535156.292968-2.121094.878906l-25.679687 25.679688c-2.640625 2.644531-7.253906 2.648437-9.898437 0-1.320313-1.324219-2.050782-3.082032-2.050782-4.949219 0-1.871094.730469-3.628907 2.050782-4.949219l25.679687-25.679688c1.171875-1.171874 1.171875-3.074218 0-4.242187l-25.679687-25.679687c-1.320313-1.324219-2.050782-3.082032-2.050782-4.949219 0-1.871094.730469-3.628907 2.054688-4.949219 2.640625-2.644531 7.25-2.648438 9.894531 0l25.679687 25.679688c1.171876 1.171874 3.070313 1.171874 4.242188 0l25.683594-25.679688c2.640625-2.644531 7.25-2.648438 9.894531 0 1.324219 1.324219 2.050781 3.082031 2.050781 4.949219 0 1.867187-.726562 3.625-2.050781 4.949219l-25.679687 25.679687c-1.171876 1.171875-1.171876 3.074219 0 4.242187l25.679687 25.679688c1.324219 1.324219 2.050781 3.082031 2.050781 4.949219 0 1.871093-.726562 3.628906-2.050781 4.953125zm0 0" fill="#3a312a"/><path d="m86.019531 287.464844c-2.78125 0-5.519531.140625-8.238281.421875 39.617188 4.140625 70.597656 37.738281 70.597656 78.441406 0 40.71875-30.980468 74.296875-70.597656 78.4375 2.71875.28125 5.457031.421875 8.238281.421875 43.5 0 78.859375-35.359375 78.859375-78.859375 0-43.480469-35.359375-78.863281-78.859375-78.863281zm0 0" fill="#68a8bc"/><path d="m434.1875 308.488281c-4.558594-16.542969-11.820312-31.640625-21.558594-44.921875-25.101562-34.121094-36.679687-76.140625-32.601562-118.300781 1.578125-16.398437.058594-33.097656-4.480469-49.640625-14.539063-52.71875-56.640625-88.71875-99.558594-88.71875-3.601562 0-7.179687.261719-10.78125.78125 38.941407 5.480469 75.300781 39.71875 88.601563 87.9375 4.539062 16.542969 6.058594 33.242188 4.480468 49.640625-1.101562 11.261719-1.0625 22.519531.039063 33.621094v.039062l2.980469 10.78125c.320312 1.160157-.121094 2.378907-1 3.097657 4.640625 25.402343 15 49.601562 30.578125 70.761718 9.742187 13.28125 17 28.378906 21.5625 44.921875 16.796875 60.976563-9.523438 121.597657-58.683594 135.160157-3.097656.859374-6.238281 1.5-9.378906 1.9375 10.460937 1.480468 20.941406.859374 31.121093-1.9375 49.160157-13.5625 75.480469-74.183594 58.679688-135.160157zm0 0" fill="#decaad"/></svg>