<svg height="445pt" viewBox="0 -7 445.333 445" width="445pt" xmlns="http://www.w3.org/2000/svg"><path d="m66.296875 22.519531c-1.949219 23.128907-26.046875 26.777344-26.046875 26.777344 20.695312.976563 25.847656 28.121094 25.847656 28.121094.445313-19.355469 26.644532-28.40625 26.644532-28.40625-19.628907-1.175781-26.445313-26.492188-26.445313-26.492188zm0 0" fill="#d7e057"/><path d="m92.921875 46.015625c-17.210937-1.027344-23.664063-24.050781-23.726563-24.28125-.378906-1.402344-1.710937-2.332031-3.167968-2.203125-1.449219.132812-2.597656 1.285156-2.71875 2.734375-1.71875 20.429687-22.625 23.925781-23.507813 24.0625-1.527343.234375-2.628906 1.582031-2.546875 3.121094.078125 1.542969 1.3125 2.769531 2.855469 2.84375 18.054687.851562 23 25.4375 23.042969 25.6875.277344 1.421875 1.519531 2.433593 2.945312 2.433593.085938 0 .167969-.003906.253906-.007812 1.53125-.128906 2.714844-1.386719 2.75-2.921875.386719-17.019531 24.382813-25.554687 24.625-25.636719 1.351563-.46875 2.183594-1.828125 1.988282-3.246094-.199219-1.417968-1.367188-2.5-2.792969-2.585937zm-27.132813 20.691406c-2.710937-6.261719-7.417968-13.8125-15.171874-17.753906 5.859374-2.808594 12.816406-7.824219 16.402343-16.542969 3.101563 6.140625 8.398438 13.757813 16.667969 17.445313-6.015625 3.277343-13.847656 8.808593-17.898438 16.851562zm0 0" fill="#3a312a"/><path d="m22.898438 56.480469c-1.375 16.355469-18.421876 18.9375-18.421876 18.9375 14.636719.691406 18.28125 19.886719 18.28125 19.886719.3125-13.6875 18.84375-20.089844 18.84375-20.089844-13.878906-.828125-18.703124-18.734375-18.703124-18.734375zm0 0" fill="#d7e057"/><path d="m41.785156 72.226562c-11.535156-.695312-15.945312-16.375-15.988281-16.535156-.382813-1.402344-1.730469-2.304687-3.164063-2.203125-1.453124.128907-2.597656 1.285157-2.722656 2.738281-1.15625 13.738282-15.289062 16.132813-15.878906 16.222657-1.527344.234375-2.628906 1.582031-2.550781 3.125.082031 1.539062 1.316406 2.769531 2.855469 2.839843 12.070312.570313 15.449218 17.289063 15.476562 17.453126.273438 1.425781 1.519531 2.4375 2.945312 2.4375.082032 0 .167969-.003907.25-.007813 1.53125-.125 2.71875-1.386719 2.753907-2.921875.261719-11.417969 16.660156-17.265625 16.820312-17.324219 1.355469-.464843 2.191407-1.824219 1.996094-3.242187-.199219-1.414063-1.367187-2.496094-2.792969-2.582032zm-19.171875 13.585938c-1.847656-3.769531-4.679687-7.890625-8.890625-10.558594 3.707032-2.082031 7.394532-5.257812 9.738282-9.832031 2.117187 3.746094 5.308593 7.910156 9.882812 10.449219-3.699219 2.199218-7.976562 5.476562-10.730469 9.941406zm0 0" fill="#3a312a"/><path d="m22.898438 3.164062c-1.375 16.359376-18.421876 18.941407-18.421876 18.941407 14.636719.6875 18.28125 19.886719 18.28125 19.886719.3125-13.691407 18.84375-20.089844 18.84375-20.089844-13.878906-.832032-18.703124-18.738282-18.703124-18.738282zm0 0" fill="#d7e057"/><path d="m41.785156 18.910156c-11.535156-.695312-15.945312-16.375-15.988281-16.535156-.382813-1.402344-1.730469-2.3046875-3.164063-2.199219-1.453124.128907-2.597656 1.28125-2.722656 2.734375-1.15625 13.742188-15.289062 16.132813-15.878906 16.226563-1.527344.230469-2.628906 1.582031-2.550781 3.121093.082031 1.542969 1.316406 2.769532 2.855469 2.84375 12.070312.566407 15.449218 17.289063 15.476562 17.453126.273438 1.425781 1.519531 2.441406 2.945312 2.441406.082032 0 .167969-.003906.25-.011719 1.53125-.125 2.71875-1.386719 2.753907-2.921875.261719-11.417969 16.660156-17.265625 16.820312-17.320312 1.355469-.46875 2.191407-1.828126 1.996094-3.246094-.199219-1.417969-1.367187-2.5-2.792969-2.585938zm-19.171875 13.585938c-1.847656-3.769532-4.679687-7.890625-8.890625-10.558594 3.707032-2.082031 7.394532-5.257812 9.738282-9.832031 2.117187 3.746093 5.308593 7.910156 9.882812 10.449219-3.699219 2.199218-7.976562 5.476562-10.730469 9.941406zm0 0" fill="#3a312a"/><path d="m430.445312 296.25-131.878906-228.402344c-33.742187-58.4375-118.0625-58.4375-151.800781 0l-43.503906 75.34375-15.617188 27.050782-72.757812 126.007812c-33.742188 58.4375 8.4375 131.480469 75.898437 131.480469h263.761719c67.457031 0 109.636719-73.039063 75.898437-131.480469zm0 0" fill="#fce8cb" fill-rule="evenodd"/><path d="m433.042969 294.75-131.878907-228.402344c-16.386718-28.382812-45.734374-45.328125-78.5-45.328125-32.765624 0-62.109374 16.945313-78.496093 45.328125l-43.503907 75.34375c-.828124 1.433594-.335937 3.269532 1.097657 4.097656 1.4375.828126 3.273437.339844 4.101562-1.097656l43.5-75.34375c15.300781-26.503906 42.707031-42.328125 73.300781-42.328125 30.597657 0 58 15.824219 73.304688 42.328125l131.875 228.402344c15.304688 26.503906 15.304688 58.148438 0 84.652344-15.296875 26.503906-42.703125 42.328125-73.300781 42.328125h-263.753907c-30.597656 0-58.003906-15.824219-73.304687-42.328125s-15.300781-58.148438 0-84.652344l72.757813-126.011719c.828124-1.4375.339843-3.269531-1.097657-4.097656-1.429687-.828125-3.269531-.339844-4.097656 1.097656l-72.757813 126.011719c-16.386718 28.378906-16.386718 62.269531 0 90.652344 16.382813 28.382812 45.730469 45.328125 78.5 45.328125h263.757813c32.765625 0 62.113281-16.945313 78.496094-45.328125 16.386719-28.382813 16.386719-62.269532 0-90.652344zm0 0" fill="#3a312a"/><path d="m250.917969 186.535156h-56.503907c-38.722656 0-70.113281 31.390625-70.113281 70.113282v171.082031h196.734375v-171.082031c-.003906-38.722657-31.394531-70.113282-70.117187-70.113282zm0 0" fill="#87796f" fill-rule="evenodd"/><path d="m250.917969 183.535156h-56.507813c-40.3125 0-73.113281 32.800782-73.113281 73.113282v74.984374c0 1.65625 1.34375 3 3 3s3-1.34375 3-3v-74.984374c0-37.003907 30.109375-67.113282 67.113281-67.113282h56.507813c37.007812 0 67.117187 30.109375 67.117187 67.113282v168.082031h-190.738281v-61.960938c0-1.65625-1.34375-3-3-3s-3 1.34375-3 3v64.960938c0 1.65625 1.34375 3 3 3h196.734375c1.65625 0 3-1.34375 3-3v-171.082031c.003906-40.316407-32.796875-73.113282-73.113281-73.113282zm0 0" fill="#3a312a"/><path d="m427.84375 297.75-131.878906-228.402344c-15.300782-26.496094-42.699219-42.320312-73.300782-42.320312-5.039062 0-10 .441406-14.839843 1.28125 24.460937 4.21875 45.679687 18.921875 58.460937 41.042968l131.878906 228.398438c15.300782 26.5 15.300782 58.160156 0 84.660156-15.296874 26.5-42.699218 42.320313-73.296874 42.320313h29.679687c30.597656 0 58-15.820313 73.296875-42.320313 15.300781-26.5 15.300781-58.160156 0-84.660156zm0 0" fill="#decaad"/><path d="m250.925781 189.527344h-29.679687c37 0 67.097656 30.125 67.097656 67.125v168.078125h29.683594v-168.078125c0-37-30.101563-67.125-67.101563-67.125zm0 0" fill="#695b51"/></svg>