<svg height="451pt" viewBox="0 0 451.77416 451" width="451pt" xmlns="http://www.w3.org/2000/svg"><path d="m366.96875 53.730469c-41.460938-33.902344-91.460938-50.402344-141.140625-50.339844-31.148437.027344-62.15625 6.570313-90.859375 19.363281l-26.757812 14.195313c-20.285157 12.609375-38.878907 28.699219-54.84375 48.21875-77.921876 95.28125-63.839844 235.679687 31.441406 313.601562 95.277344 77.917969 235.679687 63.839844 313.597656-31.441406 77.921875-95.277344 63.839844-235.679687-31.4375-313.597656zm-35.382812 258.957031c-2.820313 3.460938-5.800782 6.742188-8.878907 9.839844-26.320312 26.523437-61.398437 40.222656-96.78125 40.261718-30.4375.039063-61.078125-10.058593-86.480469-30.839843-3.636718-2.980469-7.097656-6.101563-10.316406-9.378907-26.34375-26.359374-39.882812-61.441406-39.78125-96.761718.078125-30.28125 10.179688-60.71875 30.839844-86 2.980469-3.640625 6.097656-7.097656 9.378906-10.320313 26.261719-26.21875 61.121094-39.738281 96.28125-39.777343 30.4375-.042969 61.078125 10.058593 86.480469 30.839843 3.457031 2.816407 6.738281 5.796875 9.820313 8.878907 26.417968 26.179687 40.117187 61.078124 40.277343 96.28125.140625 30.597656-9.957031 61.4375-30.839843 86.976562zm0 0" fill="#d7e057"/><g fill="#3a312a"><path d="m450.625 203.71875c-6.019531-60.027344-35.054688-114.121094-81.757812-152.3125-40.246094-32.90625-90.9375-51.019531-142.78125-51.019531h-.261719c-31.953125.03125-62.929688 6.632812-92.078125 19.625-1.511719.675781-2.195313 2.453125-1.519532 3.960937.675782 1.515625 2.449219 2.191406 3.960938 1.519532 27.976562-12.46875 58.972656-19.078126 89.644531-19.105469h.253907c50.457031 0 99.808593 17.628906 138.980468 49.664062 45.460938 37.179688 73.726563 89.832031 79.585938 148.265625 5.855468 58.433594-11.390625 115.648438-48.570313 161.113282-43.410156 53.078124-106.652343 80.589843-170.398437 80.585937-48.957032-.003906-98.214844-16.234375-138.980469-49.570313-45.460937-37.179687-73.722656-89.835937-79.582031-148.269531-5.859375-58.433593 11.390625-115.648437 48.566406-161.109375 15.390625-18.8125 33.589844-34.820312 54.105469-47.574218 1.40625-.875 1.839843-2.722657.964843-4.128907s-2.726562-1.839843-4.132812-.960937c-21.074219 13.101562-39.773438 29.539062-55.578125 48.867187-38.195313 46.703125-55.914063 105.480469-49.894531 165.507813 6.015625 60.03125 35.050781 114.121094 81.753906 152.3125 41.882812 34.253906 92.472656 50.925781 142.773438 50.925781 65.476562-.003906 130.460937-28.261719 175.050781-82.785156 38.191406-46.703125 55.910156-105.484375 49.894531-165.511719zm-323.636719 120.953125c3.171875 3.230469 6.726563 6.460937 10.558594 9.597656 24.847656 20.328125 56.164063 31.519531 88.199219 31.519531h.183594c37.488281-.042968 72.617187-14.652343 98.90625-41.144531 3.246093-3.265625 6.300781-6.648437 9.074218-10.054687 20.472656-25.039063 31.667969-56.609375 31.519532-88.894532-.171876-37.3125-14.789063-72.257812-41.160157-98.382812-3.207031-3.210938-6.585937-6.265625-10.042969-9.082031-24.847656-20.328125-56.167968-31.519531-88.207031-31.519531h-.175781c-37.238281.042968-72.179688 14.480468-98.378906 40.640624-3.21875 3.15625-6.449219 6.710938-9.601563 10.558594-20.238281 24.769532-31.433593 55.980469-31.515625 87.890625-.105468 37.421875 14.332032 72.542969 40.640625 98.871094zm-4.480469-182.964844c3.015626-3.679687 6.097657-7.070312 9.179688-10.097656 25.082031-25.042969 58.527344-38.863281 94.164062-38.902344h.167969c30.65625 0 60.628907 10.707031 84.410157 30.164063 3.300781 2.695312 6.53125 5.613281 9.605468 8.6875 25.238282 25.011718 39.230469 58.453125 39.390625 94.164062.140625 30.890625-10.570312 61.105469-30.160156 85.066406-.003906 0-.003906.003907-.003906.003907-2.652344 3.257812-5.574219 6.492187-8.683594 9.621093-25.160156 25.351563-58.773437 39.335938-94.65625 39.375h-.175781c-30.65625 0-60.621094-10.710937-84.398438-30.160156-3.667968-3-7.058594-6.082031-10.097656-9.179687-25.1875-25.207031-39.003906-58.816407-38.902344-94.632813.082032-30.539062 10.792969-60.40625 30.160156-84.109375zm0 0"/><path d="m228.925781 362.789062c0-1.65625-1.34375-3-3-3s-3 1.34375-3 3l.019531 85.363282c0 1.65625 1.34375 3 3 3s3-1.34375 3-3zm0 0"/><path d="m228.828125 3.367188-6 .023437.019531 86.316406c0 1.65625 1.34375 3 3 3s2.996094-1.34375 2.996094-3zm0 0"/><path d="m89.347656 222.808594-85.839844.019531c-1.65625 0-3 1.34375-3 3 0 1.660156 1.34375 3 3 3l85.839844-.019531c1.65625 0 3-1.34375 3-3s-1.34375-3-3-3zm0 0"/><path d="m448.265625 222.6875-85.839844.023438c-1.65625 0-2.996093 1.34375-2.996093 3s1.34375 3 3 3l85.839843-.023438c1.65625 0 2.996094-1.34375 2.996094-3s-1.34375-3-3-3zm0 0"/><path d="m131.25 320.445312c-1.171875-1.171874-3.074219-1.171874-4.246094 0l-60.4375 60.480469c-1.171875 1.171875-1.171875 3.074219 0 4.242188.585938.585937 1.351563.878906 2.117188.878906.769531 0 1.539062-.292969 2.125-.878906l60.4375-60.480469c1.175781-1.167969 1.175781-3.070312.003906-4.242188zm0 0"/><path d="m385.210938 66.328125c-1.175782-1.171875-3.074219-1.171875-4.246094 0l-60.941406 60.980469c-1.167969 1.171875-1.167969 3.070312 0 4.242187.585937.585938 1.355468.875 2.125.875.765624 0 1.535156-.289062 2.121093-.875l60.941407-60.980469c1.171874-1.171874 1.171874-3.074218 0-4.242187zm0 0"/><path d="m131.6875 127.367188-60.980469-60.941407c-1.171875-1.171875-3.070312-1.171875-4.242187 0-1.167969 1.171875-1.167969 3.074219 0 4.242188l60.980468 60.941406c.585938.585937 1.355469.878906 2.121094.878906.769532 0 1.535156-.292969 2.121094-.878906 1.171875-1.171875 1.171875-3.074219 0-4.242187zm0 0"/><path d="m385.308594 380.847656-60.480469-60.441406c-1.171875-1.171875-3.074219-1.171875-4.246094 0-1.167969 1.171875-1.167969 3.074219.003907 4.242188l60.480468 60.441406c.585938.585937 1.351563.878906 2.121094.878906.765625 0 1.535156-.292969 2.121094-.878906 1.171875-1.171875 1.171875-3.070313 0-4.242188zm0 0"/></g><path d="m243.578125 199.53125c-1.949219 23.128906-26.050781 26.78125-26.050781 26.78125 20.695312.972656 25.851562 28.117188 25.851562 28.117188.441406-19.355469 26.640625-28.40625 26.640625-28.40625-19.625-1.175782-26.441406-26.492188-26.441406-26.492188zm0 0" fill="#d7e057"/><path d="m270.199219 223.03125c-17.210938-1.03125-23.664063-24.050781-23.726563-24.285156-.382812-1.402344-1.730468-2.324219-3.167968-2.203125-1.449219.132812-2.59375 1.285156-2.71875 2.734375-1.71875 20.433594-22.625 23.929687-23.507813 24.0625-1.523437.234375-2.625 1.582031-2.546875 3.125.082031 1.539062 1.316406 2.769531 2.855469 2.839844 18.054687.851562 23 25.4375 23.046875 25.6875.273437 1.421874 1.515625 2.433593 2.945312 2.433593.082032 0 .167969-.003906.25-.007812 1.527344-.128907 2.714844-1.386719 2.75-2.921875.386719-17.015625 24.382813-25.554688 24.625-25.636719 1.347656-.46875 2.183594-1.828125 1.988282-3.246094-.195313-1.414062-1.363282-2.496093-2.792969-2.582031zm-27.132813 20.6875c-2.710937-6.257812-7.414062-13.8125-15.171875-17.75 5.863281-2.8125 12.820313-7.828125 16.40625-16.546875 3.101563 6.140625 8.398438 13.761719 16.667969 17.445313-6.019531 3.277343-13.847656 8.808593-17.902344 16.851562zm0 0" fill="#3a312a"/><path d="m200.179688 233.492188c-1.378907 16.359374-18.425782 18.941406-18.425782 18.941406 14.636719.691406 18.285156 19.886718 18.285156 19.886718.3125-13.6875 18.84375-20.089843 18.84375-20.089843-13.882812-.832031-18.703124-18.738281-18.703124-18.738281zm0 0" fill="#d7e057"/><path d="m219.0625 249.238281c-11.535156-.691406-15.945312-16.375-15.988281-16.53125-.382813-1.40625-1.710938-2.332031-3.164063-2.207031-1.453125.132812-2.597656 1.285156-2.722656 2.738281-1.15625 13.742188-15.289062 16.128907-15.882812 16.226563-1.527344.230468-2.625 1.582031-2.546876 3.121094.082032 1.539062 1.316407 2.769531 2.855469 2.839843 12.070313.570313 15.449219 17.292969 15.476563 17.457031.269531 1.425782 1.519531 2.4375 2.945312 2.4375.082032 0 .164063-.003906.25-.007812 1.53125-.128906 2.714844-1.386719 2.75-2.921875.261719-11.417969 16.664063-17.265625 16.824219-17.324219 1.355469-.464844 2.191406-1.824218 1.992187-3.242187-.191406-1.417969-1.359374-2.5-2.789062-2.585938zm-19.167969 13.585938c-1.847656-3.769531-4.679687-7.894531-8.894531-10.558594 3.710938-2.082031 7.394531-5.257813 9.742188-9.832031 2.113281 3.746094 5.308593 7.910156 9.882812 10.449218-3.703125 2.199219-7.980469 5.476563-10.730469 9.941407zm0 0" fill="#3a312a"/><path d="m200.179688 180.175781c-1.378907 16.359375-18.425782 18.941407-18.425782 18.941407 14.636719.691406 18.285156 19.890624 18.285156 19.890624.3125-13.691406 18.84375-20.089843 18.84375-20.089843-13.882812-.832031-18.703124-18.742188-18.703124-18.742188zm0 0" fill="#d7e057"/><path d="m219.0625 195.921875c-11.535156-.691406-15.945312-16.371094-15.988281-16.53125-.378907-1.402344-1.710938-2.347656-3.164063-2.203125-1.449218.128906-2.597656 1.285156-2.71875 2.734375-1.160156 13.742187-15.292968 16.132813-15.882812 16.226563-1.527344.234374-2.628906 1.582031-2.546875 3.121093.078125 1.542969 1.3125 2.773438 2.855469 2.84375 12.070312.566407 15.445312 17.289063 15.476562 17.453125.269531 1.425782 1.519531 2.441406 2.945312 2.441406.085938 0 .164063-.003906.25-.011718 1.53125-.125 2.714844-1.386719 2.753907-2.921875.257812-11.417969 16.660156-17.265625 16.820312-17.324219 1.355469-.46875 2.191407-1.824219 1.992188-3.242188-.195313-1.417968-1.363281-2.503906-2.792969-2.585937zm-19.167969 13.589844c-1.847656-3.773438-4.679687-7.894531-8.894531-10.558594 3.710938-2.082031 7.394531-5.261719 9.738281-9.835937 2.113281 3.75 5.308594 7.910156 9.882813 10.449218-3.699219 2.199219-7.976563 5.480469-10.726563 9.945313zm0 0" fill="#3a312a"/><path d="m444.648438 204.328125c-5.042969-50.238281-26.640626-96.199219-61.480469-131.71875l-23.460938 23.480469c26.960938 37.4375 41.140625 81.820312 41.859375 126.621094l44.160156-.023438c-.121093-6.097656-.460937-12.21875-1.078124-18.359375zm0 0" fill="#b9c239"/><path d="m356.546875 360.589844c-1.699219 2.277344-3.460937 4.519531-5.28125 6.738281-32.5 39.761719-75.878906 65.359375-122.320313 76.0625v2.578125c54.941407-.800781 109.242188-22.039062 150.5625-62.441406zm0 0" fill="#b9c239"/><path d="m365.066406 56.050781c-38.460937-31.441406-86.738281-48.980469-136.238281-49.601562v2.601562c32.359375 7.417969 63.558594 22.238281 91 44.679688 13.800781 11.296875 25.898437 23.898437 36.257813 37.480469l22.820312-22.820313c-4.417969-4.28125-9.019531-8.402344-13.839844-12.339844zm0 0" fill="#b9c239"/><path d="m401.585938 228.710938c-.4375 44.277343-14.039063 88.71875-41.4375 127l23.597656 23.578124c4.261718-4.421874 8.382812-9.019531 12.339844-13.859374 31.980468-39.121094 49.199218-86.941407 49.660156-136.742188zm0 0" fill="#b9c239"/><path d="m225.886719 63.582031c-89.839844 0-162.660157 72.820313-162.660157 162.660157 0 18.375 3.09375 36.019531 8.707032 52.496093l13.179687 28.964844c28.144531 48.535156 80.625 81.199219 140.773438 81.199219 89.839843 0 162.660156-72.820313 162.660156-162.660156 0-89.839844-72.820313-162.660157-162.660156-162.660157zm105.699219 249.101563c-2.820313 3.460937-5.800782 6.738281-8.878907 9.839844-26.320312 26.519531-61.398437 40.21875-96.78125 40.257812-30.4375.042969-61.078125-10.058594-86.480469-30.839844-3.636718-2.976562-7.097656-6.097656-10.316406-9.378906-26.34375-26.359375-39.882812-61.4375-39.78125-96.757812.078125-30.28125 10.179688-60.722657 30.839844-86 2.980469-3.640626 6.097656-7.101563 9.378906-10.320313 26.261719-26.222656 61.121094-39.742187 96.28125-39.78125 30.4375-.039063 61.078125 10.058594 86.480469 30.839844 3.457031 2.820312 6.738281 5.800781 9.820313 8.878906 26.417968 26.179687 40.117187 61.082031 40.277343 96.28125.140625 30.601563-9.957031 61.441406-30.839843 86.980469zm0 0" fill="#d7e057"/><path d="m225.886719 60.582031c-91.34375 0-165.660157 74.316407-165.660157 165.660157 0 18.210937 2.984376 36.199218 8.867188 53.464843.535156 1.5625 2.242188 2.402344 3.808594 1.871094 1.570312-.535156 2.40625-2.242187 1.871094-3.808594-5.671876-16.636719-8.546876-33.972656-8.546876-51.527343 0-88.035157 71.625-159.660157 159.660157-159.660157 88.035156 0 159.660156 71.625 159.660156 159.660157 0 88.035156-71.621094 159.660156-159.660156 159.660156-56.71875 0-109.667969-30.539063-138.175781-79.707032-.832032-1.433593-2.667969-1.921874-4.101563-1.089843s-1.921875 2.667969-1.089844 4.101562c29.578125 51.007813 84.515625 82.695313 143.367188 82.695313 91.347656 0 165.660156-74.3125 165.660156-165.660156 0-91.34375-74.3125-165.660157-165.660156-165.660157zm-88.339844 273.683594c24.847656 20.328125 56.164063 31.515625 88.199219 31.515625h.183594c37.488281-.039062 72.617187-14.652344 98.90625-41.140625 3.246093-3.265625 6.300781-6.648437 9.074218-10.058594 20.472656-25.039062 31.667969-56.605469 31.519532-88.890625-.171876-37.308594-14.789063-72.257812-41.160157-98.386718-3.207031-3.207032-6.585937-6.265626-10.042969-9.082032-24.847656-20.328125-56.160156-31.515625-88.199218-31.515625h-.183594c-37.238281.042969-72.179688 14.480469-98.378906 40.636719-3.230469 3.171875-6.460938 6.726562-9.601563 10.5625-20.238281 24.765625-31.433593 55.980469-31.515625 87.890625-.105468 37.425781 14.332032 72.542969 40.640625 98.871094 3.167969 3.226562 6.722657 6.453125 10.558594 9.597656zm-15.039063-192.5625c3.003907-3.667969 6.085938-7.058594 9.179688-10.097656 25.082031-25.046875 58.527344-38.863281 94.164062-38.902344h.175782c30.652344 0 60.625 10.707031 84.402344 30.160156 3.300781 2.695313 6.53125 5.617188 9.605468 8.691407 25.238282 25.011718 39.230469 58.453124 39.390625 94.164062.140625 30.890625-10.570312 61.101562-30.160156 85.0625-.003906 0-.003906.003906-.003906.003906-2.652344 3.257813-5.574219 6.492188-8.683594 9.621094-25.160156 25.351562-58.773437 39.335938-94.65625 39.375h-.175781c-30.652344 0-60.621094-10.707031-84.398438-30.15625-3.671875-3.007812-7.0625-6.09375-10.097656-9.183594-25.1875-25.203125-39.003906-58.8125-38.902344-94.628906.082032-30.539062 10.792969-60.410156 30.160156-84.109375zm0 0" fill="#3a312a"/></svg>