<svg height="452pt" viewBox="0 0 452.73027 452" width="452pt" xmlns="http://www.w3.org/2000/svg"><path d="m449.484375 287.050781c-1.769531-17.703125-12.5625-32.125-27.195313-39.472656l2.925782-2.28125c27.964844-21.839844 31.007812-63.035156 6.558594-88.746094-11.882813-12.5-27.746094-18.675781-43.578126-18.664062 15.226563-35.171875-1.667968-76.449219-37.90625-90.507813-18.582031-7.207031-38.234374-5.695312-54.660156 2.371094-10.761718-26.988281-37.125-46.382812-68.386718-46.382812-31.554688 0-58.097657 19.761718-68.667969 47.136718-16.714844-8.710937-36.992188-10.550781-56.136719-3.125-36.234375 14.058594-53.132812 55.335938-37.902344 90.507813-15.835937-.011719-31.695312 6.164062-43.582031 18.664062-24.449219 25.710938-21.402344 66.90625 6.5625 88.746094l2.921875 2.28125c-14.632812 7.347656-25.425781 21.773437-27.195312 39.472656-2.921876 29.195313 19.964843 54.546875 49.304687 54.621094h347.628906c29.34375-.074219 52.230469-25.425781 49.308594-54.621094zm0 0" fill="#d7e057"/><g fill="#3a312a"><path d="m298.402344 48.65625c-11.667969-29.335938-39.601563-48.292969-71.167969-48.292969-31.898437 0-59.957031 19.25-71.476563 49.042969-.597656 1.542969.171876 3.28125 1.714844 3.878906.359375.136719.722656.203125 1.082032.203125 1.203124 0 2.335937-.730469 2.796874-1.917969 10.621094-27.460937 36.480469-45.203124 65.882813-45.203124 29.089844 0 54.835937 17.46875 65.59375 44.511718.613281 1.539063 2.355469 2.289063 3.894531 1.675782 1.542969-.613282 2.296875-2.355469 1.679688-3.898438zm0 0"/><path d="m195.566406 91.695312c-5.363281-19.132812-18.015625-34.710937-35.621094-43.867187-10.109374-5.285156-21.476562-8.082031-32.871093-8.082031-8.808594 0-17.464844 1.632812-25.722657 4.84375-18.175781 7.046875-32.335937 20.828125-39.867187 38.808594-7.542969 18.015624-7.445313 37.78125.277344 55.65625.492187 1.132812 1.59375 1.808593 2.757812 1.808593.398438 0 .796875-.074219 1.1875-.246093 1.519531-.652344 2.222657-2.421876 1.5625-3.941407-7.070312-16.363281-7.160156-34.460937-.25-50.960937 6.894531-16.460938 19.855469-29.078125 36.503907-35.535156 7.566406-2.941407 15.488281-4.433594 23.550781-4.433594 10.429687 0 20.835937 2.558594 30.097656 7.402344 16.121094 8.378906 27.703125 22.644531 32.617187 40.167968.445313 1.59375 2.109376 2.527344 3.695313 2.078125 1.597656-.445312 2.53125-2.101562 2.082031-3.699219zm0 0"/><path d="m112.171875 156.640625c-11.625-13.417969-28.46875-21.347656-46.214844-21.757813-17.71875-.410156-34.941406 6.730469-47.171875 19.597657-12.238281 12.867187-18.503906 30.40625-17.195312 48.113281 1.308594 17.710938 10.089844 34.136719 24.082031 45.066406.546875.425782 1.199219.632813 1.84375.632813.890625 0 1.773437-.394531 2.367187-1.152344 1.019532-1.304687.789063-3.191406-.519531-4.210937-12.664062-9.886719-20.605469-24.753907-21.789062-40.777344-1.183594-16.023438 4.484375-31.894532 15.554687-43.539063 11.070313-11.636719 26.585938-18.074219 42.6875-17.730469 16.058594.371094 31.300782 7.542969 41.820313 19.6875 1.085937 1.25 2.980469 1.390626 4.230469.300782 1.253906-1.082032 1.390624-2.980469.304687-4.230469zm0 0"/><path d="m62.957031 240.324219c-14.539062-2.890625-29.714843.507812-41.625 9.332031-11.917969 8.820312-19.597656 22.339844-21.070312 37.09375-1.476563 14.757812 3.375 29.535156 13.3125 40.542969 9.9375 11.007812 24.140625 17.34375 38.972656 17.378906h.007813c1.652343 0 2.996093-1.339844 3-2.992187.003906-1.65625-1.335938-3.003907-2.992188-3.007813-13.140625-.035156-25.726562-5.648437-34.53125-15.402344-8.808594-9.753906-13.105469-22.847656-11.800781-35.925781 1.308593-13.070312 8.113281-25.050781 18.671875-32.867188 10.558594-7.820312 24-10.832031 36.886718-8.269531 1.636719.339844 3.203126-.730469 3.527344-2.359375.324219-1.621094-.730468-3.199218-2.359375-3.523437zm0 0"/><path d="m391.246094 83.398438c-7.53125-17.980469-21.6875-31.761719-39.863282-38.804688-8.261718-3.214844-16.917968-4.847656-25.726562-4.847656-10.800781 0-21.644531 2.535156-31.359375 7.328125-18.136719 8.894531-31.671875 25.160156-37.128906 44.621093-.449219 1.597657.480469 3.253907 2.078125 3.703126 1.59375.449218 3.253906-.484376 3.699218-2.078126 5-17.824218 17.390626-32.714843 34-40.863281 8.898438-4.386719 18.828126-6.707031 28.710938-6.707031 8.0625 0 15.988281 1.492188 23.554688 4.4375 16.644531 6.453125 29.605468 19.070312 36.5 35.53125 6.910156 16.5 6.820312 34.597656-.25 50.960938-.65625 1.519531.042968 3.289062 1.566406 3.945312.386718.167969.789062.242188 1.1875.242188 1.160156 0 2.265625-.675782 2.753906-1.808594 7.726562-17.878906 7.824219-37.644532.277344-55.660156zm0 0"/><path d="m433.949219 154.480469c-12.234375-12.867188-29.394531-20.007813-47.175781-19.597657-17.746094.410157-34.589844 8.339844-46.214844 21.757813-1.082032 1.25-.949219 3.144531.304687 4.230469 1.253907 1.085937 3.144531.949218 4.230469-.300782 10.519531-12.140624 25.761719-19.316406 41.820312-19.6875 16.105469-.328124 31.617188 6.09375 42.6875 17.730469 11.074219 11.644531 16.742188 27.515625 15.554688 43.539063-1.183594 16.023437-9.125 30.886718-21.789062 40.777344-1.304688 1.019531-1.539063 2.90625-.519532 4.210937.59375.757813 1.472656 1.152344 2.367188 1.152344.648437 0 1.296875-.207031 1.84375-.632813 13.996094-10.929687 22.777344-27.355468 24.085937-45.0625 1.308594-17.710937-4.957031-35.25-17.195312-48.117187zm0 0"/><path d="m452.46875 286.75c-1.472656-14.75-9.152344-28.269531-21.066406-37.09375-11.914063-8.824219-27.085938-12.222656-41.628906-9.332031-1.625.324219-2.679688 1.902343-2.355469 3.527343.320312 1.628907 1.910156 2.695313 3.527343 2.359376 12.878907-2.5625 26.332032.449218 36.890626 8.269531 10.554687 7.816406 17.359374 19.796875 18.667968 32.867187 1.304688 13.078125-2.992187 26.171875-11.800781 35.925782-8.804687 9.753906-21.390625 15.371093-34.53125 15.402343-1.65625.003907-2.996094 1.351563-2.992187 3.007813.003906 1.652344 1.347656 2.992187 3 2.992187h.007812c14.828125-.039062 29.035156-6.375 38.96875-17.378906 9.9375-11.011719 14.789062-25.789063 13.3125-40.546875zm0 0"/></g><path d="m301.121094 179.953125-25.140625-17.347656c-14.925781-7.507813-31.769531-11.757813-49.613281-11.757813-61.078126 0-110.59375 49.511719-110.59375 110.589844 0 61.082031 49.515624 110.59375 110.59375 110.59375 61.078124 0 110.589843-49.515625 110.589843-110.59375 0-32.25-13.8125-61.269531-35.835937-81.484375zm0 0" fill="#fce8cb"/><path d="m303.152344 177.742188c-1.21875-1.117188-3.121094-1.042969-4.238282.179687-1.121093 1.222656-1.042968 3.121094.179688 4.242187 22.160156 20.335938 34.867188 49.234376 34.867188 79.273438 0 59.328125-48.265626 107.59375-107.59375 107.59375-59.328126 0-107.589844-48.265625-107.589844-107.59375s48.261718-107.59375 107.589844-107.59375c16.933593 0 33.175781 3.851562 48.269531 11.445312 1.476562.746094 3.285156.148438 4.027343-1.332031.742188-1.480469.148438-3.285156-1.332031-4.03125-15.9375-8.015625-33.082031-12.082031-50.964843-12.082031-62.636719 0-113.589844 50.960938-113.589844 113.59375 0 62.636719 50.953125 113.59375 113.589844 113.59375 62.632812 0 113.589843-50.957031 113.589843-113.59375 0-31.714844-13.414062-62.222656-36.804687-83.695312zm0 0" fill="#3a312a"/><path d="m430.667969 341.671875h-408.601563c-14.429687 0-23.464844 15.609375-16.277344 28.121094 26.273438 45.710937 115.070313 79.335937 220.566407 79.335937 105.515625 0 194.3125-33.625 220.585937-79.335937 7.191406-12.511719-1.847656-28.121094-16.273437-28.121094zm0 0" fill="#87796f"/><path d="m449.511719 349.542969c-3.941407-6.804688-10.984375-10.871094-18.84375-10.871094h-328.238281c-1.660157 0-3 1.34375-3 3s1.339843 3 3 3h328.238281c5.695312 0 10.796875 2.941406 13.648437 7.875 2.851563 4.929687 2.859375 10.8125.023438 15.75-26.339844 45.824219-115.980469 77.832031-217.984375 77.832031-101.992188 0-191.625-32.007812-217.964844-77.832031-2.835937-4.9375-2.828125-10.820313.027344-15.75 2.851562-4.933594 7.953125-7.875 13.648437-7.875h50.238282c1.660156 0 3-1.34375 3-3s-1.339844-3-3-3h-50.238282c-7.863281 0-14.90625 4.0625-18.84375 10.871094-3.9375 6.800781-3.949218 14.929687-.035156 21.738281 27.359375 47.601562 119.128906 80.847656 223.167969 80.847656 104.046875 0 195.828125-33.246094 223.1875-80.84375 3.917969-6.8125 3.90625-14.9375-.03125-21.742187zm0 0" fill="#3a312a"/><path d="m385.726562 85.746094c-2.941406-7.039063-7.019531-13.378906-11.980468-18.839844-.121094-.117188-.238282-.257812-.359375-.378906-.460938-.5-.941407-.980469-1.421875-1.460938-.277344-.277344-.558594-.578125-.839844-.859375-.277344-.261719-.558594-.519531-.839844-.78125-6-5.636719-13.117187-10.160156-21.078125-13.238281-.582031-.242188-1.179687-.441406-1.761719-.640625-.398437-.140625-.777343-.300781-1.179687-.417969-.597656-.203125-1.199219-.382812-1.800781-.5625-.398438-.140625-.820313-.257812-1.21875-.378906-.679688-.179688-1.359375-.359375-2.039063-.539062-.300781-.0625-.601562-.140626-.921875-.222657-.800781-.179687-1.597656-.359375-2.398437-.5-.140625-.039062-.300781-.058593-.441407-.097656-3.878906-.722656-7.820312-1.082031-11.777343-1.082031-4.621094 0-9.261719.5-13.800781 1.5.140624.042968.277343.082031.417968.140625 36.242188 14.058593 53.140625 55.320312 37.921875 90.5h.078125c4.742188 0 9.480469.558593 14.121094 1.679687 6.859375-2.800781 14.21875-4.398437 21.761719-4.660156 6.339843-15.878906 6.199219-33.257812-.441407-49.160156zm0 0" fill="#b9c239"/><path d="m429.605469 158.605469c-9.597657-10.078125-22.539063-16.238281-36.300781-17.5-.398438-.019531-.777344-.058594-1.179688-.078125-.480469-.039063-.9375-.058594-1.398438-.082032-.71875-.039062-1.441406-.058593-2.160156-.058593-.558594 0-1.101562-.019531-1.660156 0-4.421875.101562-8.78125.71875-12.980469 1.820312 7.261719 3.121094 14.019531 7.71875 19.839844 13.839844 22.519531 23.679687 21.71875 60.460937-.398437 83.199219 9.757812-1.257813 19.660156.28125 28.539062 4.320312l1.460938-1.140625c12.660156-9.878906 20.597656-24.757812 21.800781-40.777343 1.179687-16.019532-4.5-31.882813-15.5625-43.542969zm0 0" fill="#b9c239"/><path d="m446.507812 287.347656c-.101562-.902344-.222656-1.800781-.363281-2.699218-.058593-.359376-.136719-.722657-.199219-1.082032-.078124-.5-.179687-1-.300781-1.5-.097656-.480468-.21875-.960937-.339843-1.4375-.078126-.339844-.160157-.660156-.257813-1-.160156-.582031-.320313-1.160156-.5-1.722656-.039063-.117188-.082031-.238281-.121094-.359375-2.179687-6.71875-5.878906-12.859375-10.800781-17.960937-.097656-.117188-.21875-.238282-.339844-.359376-.359375-.378906-.738281-.71875-1.097656-1.078124-.320312-.300782-.640625-.601563-.980469-.902344-.28125-.257813-.582031-.5-.859375-.757813-.480468-.402343-.960937-.800781-1.460937-1.179687-.199219-.160156-.378907-.300782-.582031-.460938-2.238282-1.699218-4.660157-3.21875-7.238282-4.519531-9.242187-4.660156-19.859375-6.160156-30.121094-4.121094-1.277343.261719-2.519531-.339843-3.160156-1.398437-.179687.179687-.378906.320312-.578125.480468l-2.921875 2.296876c14.640625 7.339843 25.421875 21.761718 27.199219 39.460937 2.320313 23.261719-11.71875 44.101563-32.378906 51.621094h21.0625c11.5-.019531 22.578125-4.320313 31.058593-11.941407 1.21875-1.078124 2.378907-2.238281 3.480469-3.460937 1.640625-1.820313 3.140625-3.777344 4.460938-5.820313 4.878906-7.476562 7.519531-16.238281 7.558593-25.199218.019532-1.617188-.058593-3.257813-.21875-4.898438zm0 0" fill="#b9c239"/><path d="m444.324219 352.546875c-2.859375-4.941406-7.957031-7.878906-13.65625-7.878906h-27.78125c7.878906 5.140625 11.320312 15.960937 6.058593 25.121093-21.359374 37.136719-83.980468 66.296876-163.320312 75.9375 93.859375-3.71875 174.0625-34.519531 198.722656-77.4375 2.839844-4.921874 2.820313-10.820312-.023437-15.742187zm0 0" fill="#695b51"/></svg>