<svg height="454pt" viewBox="0 0 454 454.301" width="454pt" xmlns="http://www.w3.org/2000/svg"><path d="m66.003906 22.652344c-1.945312 23.125-26.046875 26.777344-26.046875 26.777344 20.691407.976562 25.847657 28.121093 25.847657 28.121093.441406-19.355469 26.644531-28.40625 26.644531-28.40625-19.628907-1.171875-26.445313-26.492187-26.445313-26.492187zm0 0" fill="#d7e057"/><path d="m92.628906 46.148438c-17.210937-1.027344-23.664062-24.046876-23.730468-24.28125-.378907-1.402344-1.722657-2.320313-3.164063-2.203126-1.449219.132813-2.597656 1.285157-2.71875 2.734376-1.71875 20.429687-22.625 23.929687-23.507813 24.066406-1.527343.230468-2.625 1.582031-2.546874 3.121094.082031 1.542968 1.316406 2.769531 2.855468 2.84375 18.058594.847656 23 25.433593 23.046875 25.683593.273438 1.421875 1.515625 2.433594 2.941407 2.433594.085937 0 .167968 0 .253906-.011719 1.527344-.125 2.714844-1.382812 2.75-2.917968.390625-17.015626 24.382812-25.550782 24.625-25.636719 1.351562-.46875 2.183594-1.828125 1.988281-3.246094-.199219-1.417969-1.367187-2.5-2.792969-2.585937zm-27.132812 20.691406c-2.710938-6.257813-7.417969-13.8125-15.175782-17.75 5.863282-2.8125 12.820313-7.828125 16.40625-16.542969 3.101563 6.140625 8.398438 13.757813 16.667969 17.441406-6.015625 3.277344-13.84375 8.8125-17.898437 16.851563zm0 0" fill="#3a312a"/><path d="m22.609375 56.613281c-1.378906 16.359375-18.425781 18.941407-18.425781 18.941407 14.636718.6875 18.285156 19.886718 18.285156 19.886718.3125-13.6875 18.84375-20.089844 18.84375-20.089844-13.882812-.832031-18.703125-18.738281-18.703125-18.738281zm0 0" fill="#d7e057"/><path d="m41.488281 72.355469c-11.53125-.6875-15.941406-16.367188-15.988281-16.527344-.378906-1.402344-1.710938-2.332031-3.164062-2.203125-1.449219.128906-2.597657 1.285156-2.71875 2.734375-1.15625 13.742187-15.292969 16.136719-15.882813 16.230469-1.527344.230468-2.628906 1.578125-2.546875 3.121094.082031 1.539062 1.3125 2.769531 2.855469 2.84375 12.070312.566406 15.445312 17.285156 15.480469 17.449218.269531 1.425782 1.515624 2.4375 2.941406 2.4375.085937 0 .167968 0 .25-.007812 1.53125-.125 2.71875-1.386719 2.753906-2.921875.257812-11.417969 16.664062-17.269531 16.824219-17.324219 1.355469-.46875 2.1875-1.828125 1.992187-3.246094-.195312-1.417968-1.367187-2.5-2.796875-2.585937zm-19.167969 13.589843c-1.847656-3.769531-4.679687-7.890624-8.890624-10.558593 3.707031-2.082031 7.390624-5.257813 9.738281-9.832031 2.113281 3.746093 5.308593 7.910156 9.882812 10.445312-3.699219 2.203125-7.976562 5.484375-10.730469 9.945312zm0 0" fill="#3a312a"/><path d="m22.609375 3.300781c-1.378906 16.355469-18.425781 18.941407-18.425781 18.941407 14.636718.6875 18.285156 19.886718 18.285156 19.886718.3125-13.691406 18.84375-20.089844 18.84375-20.089844-13.882812-.832031-18.703125-18.738281-18.703125-18.738281zm0 0" fill="#d7e057"/><path d="m41.492188 19.039062c-11.535157-.6875-15.945313-16.371093-15.988282-16.527343-.382812-1.40625-1.714844-2.335938-3.164062-2.203125-1.453125.128906-2.597656 1.285156-2.71875 2.738281-1.160156 13.738281-15.292969 16.132813-15.886719 16.226563-1.523437.230468-2.625 1.578124-2.542969 3.121093.078125 1.539063 1.3125 2.769531 2.855469 2.84375 12.070313.566407 15.445313 17.285157 15.476563 17.449219.269531 1.425781 1.519531 2.441406 2.945312 2.441406.082031 0 .164062 0 .25-.011718 1.527344-.125 2.714844-1.386719 2.75-2.921876.261719-11.417968 16.664062-17.265624 16.828125-17.324218 1.351563-.464844 2.1875-1.824219 1.992187-3.242188-.199218-1.417968-1.371093-2.5-2.796874-2.589844zm-19.171876 13.59375c-1.847656-3.773437-4.679687-7.894531-8.890624-10.5625 3.710937-2.082031 7.390624-5.257812 9.738281-9.832031 2.117187 3.75 5.3125 7.910157 9.882812 10.449219-3.699219 2.203125-7.976562 5.480469-10.730469 9.945312zm0 0" fill="#3a312a"/><path d="m120.296875 380.484375 42.441406-42.417969c-11.519531-3.382812-21.539062-8.863281-29.519531-16.839844-7.980469-7.980468-13.460938-18-16.839844-29.523437l-13.101562 13.109375-21.839844 21.847656-7.480469 7.484375c-.378906-.398437-.738281-.800781-1.121093-1.179687-15.9375-15.941406-41.796876-15.941406-57.757813 0-15.941406 15.960937-15.941406 41.820312 0 57.761718 10.21875 10.21875 24.5 13.878907 37.640625 11-2.882812 13.136719.777344 27.417969 11 37.636719 15.9375 15.941407 41.800781 15.941407 57.757812 0 15.941407-15.957031 15.941407-41.816406 0-57.757812-.378906-.378907-.777343-.742188-1.179687-1.121094zm0 0" fill="#fce8cb"/><path d="m165.644531 337.324219c-.261719-1.027344-1.042969-1.839844-2.0625-2.136719-11.417969-3.351562-20.921875-8.761719-28.242187-16.082031-7.320313-7.320313-12.730469-16.824219-16.082032-28.246094-.296874-1.015625-1.109374-1.796875-2.136718-2.058594-1.03125-.261719-2.117188.035157-2.863282.785157l-13.101562 13.105468c-1.167969 1.171875-1.167969 3.070313 0 4.242188 1.171875 1.171875 3.074219 1.171875 4.246094 0l9.636718-9.644532c3.679688 10.316407 9.070313 19.066407 16.0625 26.058594 6.988282 6.992188 15.738282 12.382813 26.054688 16.058594l-38.976562 38.957031c-.574219.570313-.890626 1.351563-.878907 2.15625.007813.808594.34375 1.578125.929688 2.136719l.457031.429688c.226562.210937.453125.421874.671875.640624 14.746094 14.746094 14.746094 38.753907.003906 53.515626-14.761719 14.746093-38.773437 14.746093-53.519531.003906-9.15625-9.164063-12.96875-22.199219-10.191406-34.878906.21875-1-.085938-2.039063-.808594-2.765626-.722656-.722656-1.761719-1.027343-2.765625-.808593-12.671875 2.78125-25.714844-1.03125-34.875-10.191407-14.746094-14.746093-14.742187-38.753906 0-53.515624 14.761719-14.746094 38.773437-14.746094 53.519531 0 .21875.21875.425782.445312.640625.671874l.429688.457032c.558593.585937 1.328125.921875 2.136719.929687.820312 0 1.585937-.308593 2.15625-.878906l7.480468-7.484375c1.167969-1.171875 1.167969-3.070312 0-4.242188-1.171875-1.171874-3.074218-1.171874-4.246094 0l-5.339843 5.347657c-17.15625-16.121094-44.238281-15.800781-61.019531.957031-17.082032 17.105469-17.082032 44.917969.003906 62.003906 9.578125 9.578125 22.820312 14.109375 36.105468 12.535156-1.578124 13.285157 2.953126 26.527344 12.535157 36.105469 8.539062 8.542969 19.765625 12.8125 30.992187 12.8125 11.226563 0 22.457032-4.273437 31.011719-12.8125 16.757813-16.777343 17.074219-43.867187.953125-61.015625l40.304688-40.285156c.742187-.75 1.039062-1.839844.777343-2.863281zm0 0" fill="#3a312a"/><path d="m408.847656 45.59375c-56.886718-56.882812-149.113281-56.882812-206 0-18.351562 18.351562-38.023437 47.636719-54.355468 80.789062l-12.75 28.421876c-25.6875 63.324218-35.957032 133-2.527344 166.425781 56.886718 56.882812 218.746094-12.75 275.632812-69.636719 56.886719-56.882812 56.886719-149.113281 0-206zm0 0" fill="#87796f"/><path d="m410.96875 43.472656c-57.964844-57.964844-152.277344-57.964844-210.242188 0-18.457031 18.460938-38.480468 48.195313-54.921874 81.585938-.734376 1.484375-.121094 3.28125 1.363281 4.015625 1.484375.730469 3.285156.121093 4.019531-1.367188 16.164062-32.820312 35.769531-61.976562 53.78125-79.992187 55.625-55.621094 146.132812-55.621094 201.757812 0 55.625 55.625 55.625 146.132812 0 201.757812-29.179687 29.183594-84.078124 60.023438-136.605468 76.746094-84.261719 26.820312-120.617188 7.054688-134.785156-7.113281-28.066407-28.066407-26.875-89.066407 3.1875-163.171875.621093-1.535156-.117188-3.285156-1.652344-3.910156-1.535156-.621094-3.285156.117187-3.90625 1.652343-13.957032 34.394531-22.132813 67.382813-23.648438 95.390625-1.792968 33.046875 5.535156 58.039063 21.777344 74.28125 13.953125 13.953125 34.511719 21.351563 61.117188 21.996094 1.222656.03125 2.453124.046875 3.703124.046875 22.109376 0 48.296876-4.628906 76.03125-13.457031 53.355469-16.988282 109.226563-48.421875 139.027344-78.21875 57.960938-57.964844 57.960938-152.277344-.003906-210.242188zm0 0" fill="#3a312a"/><path d="m406.71875 47.726562c-26.941406-26.960937-62.761719-41.800781-100.859375-41.800781-4.941406 0-9.863281.257813-14.722656.757813 32.542969 3.300781 62.699219 17.582031 86.140625 41.042968 26.960937 26.9375 41.800781 62.757813 41.800781 100.859376 0 38.117187-14.839844 73.9375-41.800781 100.878906-29.179688 29.199218-84.078125 60.039062-136.597656 76.761718-15.820313 5.019532-37.28125 10.617188-59.160157 12.539063 30.816407 3.238281 65.636719-5.242187 88.597657-12.539063 52.519531-16.722656 107.421874-47.5625 136.601562-76.761718 26.960938-26.941406 41.800781-62.761719 41.800781-100.878906 0-38.101563-14.839843-73.921876-41.800781-100.859376zm0 0" fill="#695b51"/></svg>