<svg height="451pt" viewBox="0 0 451 451.762" width="451pt" xmlns="http://www.w3.org/2000/svg"><path d="m3.382812 354.917969c0 38.871093 31.511719 70.382812 70.382813 70.382812h304.992187c38.875 0 70.386719-31.511719 70.386719-70.382812zm0 0" fill="#fce8cb"/><path d="m449.140625 351.921875h-445.757813c-1.660156 0-3 1.34375-3 3 0 40.460937 32.917969 73.378906 73.382813 73.378906h9.0625c1.65625 0 3-1.34375 3-3s-1.34375-3-3-3h-9.0625c-36.152344 0-65.746094-28.613281-67.320313-64.378906h439.628907c-1.574219 35.769531-31.164063 64.378906-67.316407 64.378906h-266.0625c-1.660156 0-3 1.34375-3 3s1.339844 3 3 3h266.0625c40.464844 0 73.382813-32.917969 73.382813-73.378906 0-1.660156-1.339844-3-3-3zm0 0" fill="#3a312a"/><path d="m131.875 425.300781h188.773438v23.460938h-188.773438zm0 0" fill="#fce8cb"/><path d="m320.648438 422.300781h-188.773438c-1.65625 0-3 1.34375-3 3v23.460938c0 1.65625 1.34375 3 3 3h188.773438c1.660156 0 3-1.34375 3-3v-23.460938c0-1.65625-1.34375-3-3-3zm-3 23.460938h-182.773438v-17.460938h182.773438zm0 0" fill="#3a312a"/><path d="m417.179688 357.921875c-1.578126 35.761719-31.160157 64.378906-67.320313 64.378906h28.902344c36.140625 0 65.738281-28.617187 67.320312-64.378906zm0 0" fill="#decaad"/><path d="m387.636719 279.15625h-322.75c-21.011719 0-38.046875 17.03125-38.046875 38.042969 0 21.007812 17.03125 38.039062 38.046875 38.039062h322.75c21.011719 0 38.042969-17.03125 38.042969-38.039062 0-21.011719-17.03125-38.042969-38.042969-38.042969zm0 0" fill="#87796f"/><path d="m387.636719 276.15625h-322.75c-22.632813 0-41.046875 18.410156-41.046875 41.042969 0 22.628906 18.414062 41.039062 41.046875 41.039062h322.75c22.628906 0 41.042969-18.410156 41.042969-41.039062 0-22.632813-18.414063-41.042969-41.042969-41.042969zm0 76.085938h-322.75c-19.324219 0-35.046875-15.71875-35.046875-35.042969 0-19.320313 15.722656-35.042969 35.046875-35.042969h322.75c19.324219 0 35.042969 15.722656 35.042969 35.042969 0 19.324219-15.71875 35.042969-35.042969 35.042969zm0 0" fill="#3a312a"/><path d="m387.636719 202.730469h-322.75c-21.011719 0-38.046875 17.03125-38.046875 38.042969 0 21.011718 17.03125 38.042968 38.046875 38.042968h322.75c21.011719 0 38.042969-17.035156 38.042969-38.042968 0-21.011719-17.03125-38.042969-38.042969-38.042969zm0 0" fill="#87796f"/><path d="m387.636719 199.730469h-322.75c-22.632813 0-41.046875 18.414062-41.046875 41.046875 0 22.628906 18.414062 41.039062 41.046875 41.039062h322.75c22.628906 0 41.042969-18.410156 41.042969-41.039062 0-22.632813-18.414063-41.046875-41.042969-41.046875zm0 76.085937h-322.75c-19.324219 0-35.046875-15.71875-35.046875-35.039062 0-19.324219 15.722656-35.046875 35.046875-35.046875h322.75c19.324219 0 35.042969 15.722656 35.042969 35.046875 0 19.324218-15.71875 35.039062-35.042969 35.039062zm0 0" fill="#3a312a"/><path d="m387.636719 126.304688h-322.75c-21.011719 0-38.046875 17.035156-38.046875 38.042968 0 21.011719 17.03125 38.042969 38.046875 38.042969h322.75c21.011719 0 38.042969-17.03125 38.042969-38.042969 0-21.007812-17.03125-38.042968-38.042969-38.042968zm0 0" fill="#87796f"/><path d="m387.636719 123.304688h-322.75c-22.632813 0-41.046875 18.414062-41.046875 41.046874 0 22.628907 18.414062 41.039063 41.046875 41.039063h322.75c22.628906 0 41.042969-18.410156 41.042969-41.042969 0-22.628906-18.414063-41.042968-41.042969-41.042968zm0 76.089843h-322.75c-19.324219 0-35.046875-15.71875-35.046875-35.042969 0-19.324218 15.722656-35.042968 35.046875-35.042968h322.75c19.324219 0 35.042969 15.71875 35.042969 35.042968 0 19.324219-15.71875 35.042969-35.042969 35.042969zm0 0" fill="#3a312a"/><path d="m387.636719 49.882812h-322.75c-21.015625 0-38.046875 17.03125-38.046875 38.042969 0 21.007813 17.03125 38.042969 38.046875 38.042969h322.75c21.011719 0 38.042969-17.035156 38.042969-38.042969 0-21.011719-17.03125-38.042969-38.042969-38.042969zm0 0" fill="#87796f"/><path d="m387.636719 46.882812h-322.75c-22.632813 0-41.046875 18.410157-41.046875 41.042969 0 22.628907 18.414062 41.039063 41.046875 41.039063h322.75c22.628906 0 41.042969-18.410156 41.042969-41.039063 0-22.632812-18.414063-41.042969-41.042969-41.042969zm0 76.085938h-322.75c-19.324219 0-35.046875-15.722656-35.046875-35.042969 0-19.320312 15.722656-35.042969 35.046875-35.042969h322.75c19.324219 0 35.042969 15.71875 35.042969 35.042969 0 19.320313-15.71875 35.042969-35.042969 35.042969zm0 0" fill="#3a312a"/><path d="m226.261719 3.003906c-97.320313 0-199.417969 23.457032-199.417969 62.890625 0 12.914063 11.359375 22.992188 24.273438 22.992188h2.921874c12.984376 0 23.511719 10.527343 23.511719 23.511719v30.296874c0 12.988282 10.527344 23.511719 23.511719 23.511719h2.546875c12.988281 0 23.511719 10.527344 23.511719 23.511719v104.929688c0 12.984374 10.527344 23.511718 23.515625 23.511718h2.546875c12.984375 0 23.511718-10.527344 23.511718-23.511718v-74.671876c0-12.984374 10.527344-23.511718 23.511719-23.511718h2.546875c12.984375 0 23.511719 10.527344 23.511719 23.511718v14.15625c0 12.988282 10.527344 23.511719 23.511719 23.511719h2.550781c12.984375 0 23.511719-10.523437 23.511719-23.511719v-44.414062c0-12.984375 10.523437-23.511719 23.511718-23.511719h2.546876c12.984374 0 23.511718 10.527344 23.511718 23.511719v72.269531c0 12.988281 10.527344 23.515625 23.511719 23.515625h2.550781c12.980469 0 23.511719-10.527344 23.511719-23.515625v-149.589843c0-12.984376 10.523437-23.511719 23.511719-23.511719h2.917968c12.914063 0 24.273438-10.078125 24.273438-22.992188-.011719-37.011719-102.109375-62.890625-199.425781-62.890625zm0 0" fill="#d7e057"/><path d="m363.308594 17.691406c-38.179688-11.242187-88.132813-17.691406-137.046875-17.691406-49.859375 0-99.804688 6.117188-137.027344 16.777344-42.777344 12.25-65.386719 29.234375-65.386719 49.117187 0 14.332031 12.234375 25.992188 27.273438 25.992188h2.917968c11.3125 0 20.511719 9.203125 20.511719 20.511719v30.296874c0 14.621094 11.894531 26.511719 26.511719 26.511719h2.546875c11.3125 0 20.511719 9.203125 20.511719 20.511719v34.640625c0 1.65625 1.34375 3 3 3s3-1.34375 3-3v-34.640625c0-14.617188-11.890625-26.511719-26.511719-26.511719h-2.546875c-11.3125 0-20.511719-9.199219-20.511719-20.511719v-30.296874c0-14.617188-11.894531-26.511719-26.511719-26.511719h-2.921874c-11.53125 0-21.273438-9.15625-21.273438-19.992188 0-36.996093 101.957031-59.890625 196.417969-59.890625 104.632812 0 196.414062 27.984375 196.414062 59.890625 0 10.835938-9.742187 19.992188-21.273437 19.992188h-2.921875c-14.617188 0-26.507813 11.894531-26.507813 26.511719v149.59375c0 11.308593-9.203125 20.511718-20.511718 20.511718h-2.550782c-11.308594 0-20.507812-9.199218-20.507812-20.511718v-72.273438c0-14.617188-11.894532-26.511719-26.511719-26.511719h-2.546875c-14.617188 0-26.511719 11.894531-26.511719 26.511719v44.414062c0 11.3125-9.203125 20.511719-20.511719 20.511719h-2.550781c-11.308593 0-20.507812-9.199219-20.507812-20.511719v-14.15625c0-14.617187-11.894531-26.511718-26.511719-26.511718h-2.546875c-14.617187 0-26.511719 11.894531-26.511719 26.511718v74.671876c0 11.3125-9.203125 20.511718-20.511718 20.511718h-2.546876c-11.3125 0-20.515624-9.199218-20.515624-20.511718v-39.246094c0-1.65625-1.339844-3-3-3-1.65625 0-3 1.34375-3 3v39.246094c0 14.621093 11.894531 26.511718 26.515624 26.511718h2.546876c14.617187 0 26.511718-11.890625 26.511718-26.511718v-74.671876c0-11.308593 9.203125-20.511718 20.511719-20.511718h2.546875c11.3125 0 20.511719 9.203125 20.511719 20.511718v14.15625c0 14.621094 11.890625 26.511719 26.507812 26.511719h2.550781c14.617188 0 26.511719-11.890625 26.511719-26.511719v-44.414062c0-11.308594 9.199219-20.511719 20.511719-20.511719h2.546875c11.308594 0 20.511719 9.203125 20.511719 20.511719v72.273438c0 14.621093 11.890625 26.511718 26.507812 26.511718h2.550782c14.617187 0 26.511718-11.890625 26.511718-26.511718v-149.59375c0-11.308594 9.199219-20.511719 20.507813-20.511719h2.921875c15.039062 0 27.273437-11.660157 27.273437-25.992188 0-13.210937-11.339843-32.296875-65.367187-48.203125zm0 0" fill="#3a312a"/><g fill="#695b51"><path d="m422.242188 82.640625c-5.019532 5.640625-12.480469 9.242187-20.839844 9.242187h-9.101563c-1.140625 10.039063-6.519531 18.800782-14.320312 24.4375v6.640626h9.660156c19.320313 0 35.039063-15.71875 35.039063-35.039063 0-1.800781-.179688-3.558594-.4375-5.28125zm0 0"/><path d="m387.640625 282.160156h-19.019531c-.738282.621094-1.519532 1.222656-2.320313 1.761719 14 4.601563 24.121094 17.78125 24.121094 33.28125 0 19.320313-15.722656 35.039063-35.0625 35.039063h32.28125c19.320313 0 35.039063-15.71875 35.039063-35.039063s-15.71875-35.042969-35.039063-35.042969zm0 0"/><path d="m387.640625 205.722656h-9.660156v8.300782c7.601562 6.417968 12.441406 16.039062 12.441406 26.757812 0 11.0625-5.160156 20.960938-13.199219 27.359375-.640625 2.742187-1.742187 5.320313-3.183594 7.679687h13.601563c19.320313 0 35.039063-15.71875 35.039063-35.039062 0-19.339844-15.71875-35.058594-35.039063-35.058594zm0 0"/><path d="m387.640625 129.300781h-9.660156v8.300781c7.601562 6.421876 12.441406 16.019532 12.441406 26.742188 0 10.71875-4.839844 20.339844-12.441406 26.757812v8.300782h9.660156c19.320313 0 35.039063-15.71875 35.039063-35.058594 0-19.320312-15.71875-35.042969-35.039063-35.042969zm0 0"/></g><path d="m226.261719 6.003906c-5.402344 0-10.839844.078125-16.28125.21875 97.820312 2.660156 180.421875 29.398438 180.421875 59.679688 0 10.820312-9.742188 19.980468-21.261719 19.980468h-2.917969c-14.621094 0-26.523437 11.898438-26.523437 26.519532v149.578125c0 5.460937-2.136719 10.421875-5.636719 14.101562 3.71875 3.960938 9 6.421875 14.859375 6.421875h2.539063c11.300781 0 20.519531-9.203125 20.519531-20.523437v-149.578125c0-14.621094 11.878906-26.519532 26.5-26.519532h2.921875c11.539062 0 21.277344-9.160156 21.277344-19.980468 0-31.921875-91.777344-59.898438-196.417969-59.898438zm0 0" fill="#b9c239"/></svg>