<svg height="452pt" viewBox="0 0 452.17125 452" width="452pt" xmlns="http://www.w3.org/2000/svg"><path d="m3.390625 293.621094 55.988281 123.523437c8.765625 19.339844 28.035156 31.761719 49.265625 31.761719h235.25c21.234375 0 40.503907-12.421875 49.273438-31.761719l55.984375-123.523437zm0 0" fill="#87796f"/><path d="m451.675781 291.996094c-.554687-.859375-1.503906-1.375-2.523437-1.375h-445.761719c-1.019531 0-1.964844.515625-2.519531 1.375-.554688.855468-.632813 1.9375-.210938 2.863281l55.984375 123.523437c9.230469 20.367188 29.640625 33.523438 52 33.523438h42.609375c1.65625 0 3-1.34375 3-3 0-1.652344-1.34375-3-3-3h-42.609375c-20.007812 0-38.273437-11.773438-46.535156-30l-54.066406-119.285156h436.457031l-54.066406 119.285156c-8.261719 18.222656-26.53125 30-46.539063 30h-162.609375c-1.65625 0-3 1.34375-3 3s1.34375 3 3 3h162.609375c22.363281 0 42.773438-13.15625 52.003907-33.523438l55.988281-123.523437c.417969-.925781.339843-2.007813-.210938-2.863281zm0 0" fill="#3a312a"/><path d="m449.085938 292.246094c-1.363282-23.023438-19.769532-41.9375-42.746094-43.90625-8.328125-.714844-16.238282.769531-23.246094 3.902344-25.617188-30.75-86.175781-52.363282-156.820312-52.363282-70.640626 0-131.195313 21.609375-156.816407 52.355469-7.011719-3.128906-14.921875-4.613281-23.25-3.894531-22.976562 1.976562-41.375 20.894531-42.734375 43.917968-1.601562 27.210938 19.992188 49.785157 46.859375 49.785157 12.144531 0 23.210938-4.613281 31.546875-12.183594 29.964844 24.183594 83.414063 40.292969 144.390625 40.292969 24.226563 0 47.257813-2.550782 68.105469-7.132813l29.210938-8.222656c18.859374-6.621094 34.910156-15.117187 47.085937-24.941406 8.335937 7.574219 19.40625 12.1875 31.554687 12.1875 26.875 0 48.46875-22.578125 46.859376-49.796875zm0 0" fill="#fce8cb"/><path d="m452.082031 292.066406c-1.453125-24.535156-21.007812-44.621094-45.488281-46.714844-7.71875-.664062-15.503906.46875-22.648438 3.28125-27.777343-31.503906-89.269531-51.753906-157.671874-51.753906-68.398438 0-129.886719 20.25-157.671876 51.75-7.148437-2.808594-14.925781-3.945312-22.648437-3.273437-24.480469 2.105469-44.027344 22.195312-45.472656 46.730469-.820313 13.921874 3.976562 27.160156 13.507812 37.273437 9.539063 10.113281 22.445313 15.6875 36.34375 15.6875 11.585938 0 22.71875-3.996094 31.628907-11.292969 32.042968 24.707032 85.710937 39.398438 144.308593 39.398438 23.871094 0 47.003907-2.421875 68.75-7.203125 1.617188-.355469 2.644531-1.957031 2.285157-3.574219-.355469-1.617188-1.953126-2.65625-3.574219-2.285156-21.324219 4.6875-44.023438 7.0625-67.460938 7.0625-58.484375 0-111.757812-14.8125-142.507812-39.625-1.148438-.929688-2.804688-.878906-3.898438.113281-8.097656 7.355469-18.585937 11.40625-29.53125 11.40625-12.230469 0-23.585937-4.902344-31.976562-13.804687-8.386719-8.894532-12.605469-20.542969-11.886719-32.804688 1.273438-21.582031 18.46875-39.25 39.996094-41.105469 7.566406-.648437 14.894531.574219 21.765625 3.644531 1.226562.554688 2.667969.214844 3.53125-.816406 25.953125-31.148437 86.601562-51.277344 154.507812-51.277344 67.910157 0 128.5625 20.128907 154.515625 51.285157.859375 1.03125 2.300782 1.363281 3.527344.816406 6.875-3.070313 14.203125-4.296875 21.769531-3.65625 21.53125 1.851563 38.730469 19.519531 40.007813 41.101563.722656 12.257812-3.496094 23.914062-11.882813 32.808593-8.390625 8.902344-19.75 13.808594-31.980469 13.808594-10.949218 0-21.4375-4.054687-29.535156-11.410156-1.097656-.996094-2.753906-1.042969-3.902344-.113281-11.976562 9.660156-27.515624 17.882812-46.199218 24.445312-1.5625.546875-2.386719 2.257812-1.835938 3.824219.546875 1.5625 2.261719 2.386719 3.824219 1.835937 18.332031-6.433594 33.792969-14.464844 46.007813-23.882812 8.914062 7.304687 20.050781 11.300781 31.640624 11.300781 13.898438 0 26.808594-5.574219 36.347657-15.695313 9.535156-10.117187 14.328125-23.355468 13.507812-37.285156zm0 0" fill="#3a312a"/><path d="m164.710938 38.90625-.945313-.808594c-4.960937-4.269531-7.679687-9.878906-7.660156-15.800781.023437-5.929687 2.792969-11.53125 7.796875-15.777344l.15625-.132812c1.265625-1.070313 1.421875-2.960938.351562-4.226563-1.070312-1.265625-2.964844-1.421875-4.230468-.351562l-.152344.132812c-6.367188 5.402344-9.890625 12.621094-9.917969 20.335938-.027344 7.699218 3.433594 14.933594 9.746094 20.367187l.941406.8125c4.984375 4.285157 7.707031 9.921875 7.660156 15.863281-.042969 5.96875-2.863281 11.589844-7.941406 15.832032-1.269531 1.0625-1.4375 2.953125-.378906 4.226562.59375.710938 1.449219 1.074219 2.304687 1.074219.679688 0 1.359375-.226563 1.921875-.695313 6.453125-5.394531 10.039063-12.636718 10.09375-20.394531.054688-7.734375-3.40625-15-9.746093-20.457031zm0 0" fill="#3a312a"/><path d="m208.335938 38.90625-.941407-.808594c-4.960937-4.269531-7.683593-9.882812-7.660156-15.800781.023437-5.929687 2.792969-11.53125 7.804687-15.785156l.152344-.128907c1.261719-1.078124 1.414063-2.96875.335938-4.230468-1.074219-1.261719-2.96875-1.414063-4.230469-.335938l-.144531.125c-6.367188 5.398438-9.890625 12.621094-9.921875 20.332032-.027344 7.703124 3.4375 14.9375 9.746093 20.367187l.945313.8125c4.980469 4.289063 7.703125 9.921875 7.660156 15.867187-.046875 5.964844-2.867187 11.589844-7.945312 15.828126-1.269531 1.0625-1.4375 2.957031-.375 4.226562.59375.710938 1.445312 1.078125 2.300781 1.078125.679688 0 1.363281-.230469 1.921875-.699219 6.453125-5.390625 10.039063-12.632812 10.097656-20.390625.058594-7.734375-3.402343-15-9.746093-20.457031zm0 0" fill="#3a312a"/><path d="m249.0625 38.90625-.941406-.808594c-4.960938-4.269531-7.683594-9.878906-7.660156-15.800781.019531-5.929687 2.792968-11.53125 7.796874-15.777344l.15625-.132812c1.261719-1.070313 1.417969-2.960938.347657-4.226563-1.070313-1.265625-2.960938-1.421875-4.226563-.351562l-.15625.132812c-6.367187 5.402344-9.886718 12.621094-9.917968 20.335938-.027344 7.699218 3.433593 14.933594 9.75 20.367187l.941406.8125c4.984375 4.285157 7.703125 9.917969 7.660156 15.863281-.042969 5.96875-2.863281 11.589844-7.941406 15.832032-1.273438 1.0625-1.441406 2.957031-.378906 4.226562.59375.710938 1.445312 1.074219 2.304687 1.074219.675781 0 1.359375-.226563 1.921875-.695313 6.453125-5.390624 10.039062-12.632812 10.09375-20.394531.050781-7.734375-3.410156-15-9.75-20.457031zm0 0" fill="#3a312a"/><path d="m292.691406 38.90625-.941406-.808594c-4.964844-4.269531-7.683594-9.878906-7.660156-15.796875.019531-5.929687 2.789062-11.535156 7.796875-15.78125l.152343-.128906c1.265626-1.074219 1.421876-2.964844.351563-4.230469-1.074219-1.261718-2.960937-1.421875-4.226563-.347656l-.15625.132812c-6.367187 5.398438-9.890624 12.621094-9.917968 20.335938-.027344 7.699219 3.433594 14.933594 9.75 20.367188l.941406.8125c4.980469 4.289062 7.703125 9.917968 7.660156 15.863281-.042968 5.96875-2.863281 11.59375-7.941406 15.832031-1.273438 1.0625-1.441406 2.957031-.378906 4.226562.59375.710938 1.445312 1.078126 2.304687 1.078126.679688 0 1.359375-.230469 1.921875-.699219 6.453125-5.390625 10.035156-12.632813 10.09375-20.390625.050782-7.742188-3.410156-15.007813-9.75-20.464844zm0 0" fill="#3a312a"/><path d="m64.820312 22.441406c-1.949218 23.125-26.050781 26.777344-26.050781 26.777344 20.695313.972656 25.851563 28.117188 25.851563 28.117188.441406-19.355469 26.644531-28.402344 26.644531-28.402344-19.628906-1.175782-26.445313-26.492188-26.445313-26.492188zm0 0" fill="#d7e057"/><path d="m91.445312 45.9375c-17.210937-1.03125-23.664062-24.046875-23.730468-24.28125-.378906-1.402344-1.699219-2.316406-3.164063-2.203125-1.449219.132813-2.597656 1.28125-2.71875 2.734375-1.722656 20.429688-22.628906 23.929688-23.507812 24.066406-1.527344.226563-2.628907 1.578125-2.546875 3.121094.078125 1.539062 1.3125 2.765625 2.855468 2.839844 18.054688.851562 22.996094 25.4375 23.042969 25.683594.273438 1.421874 1.519531 2.4375 2.945313 2.4375.082031 0 .167968-.003907.25-.011719 1.527344-.128907 2.714844-1.386719 2.75-2.917969.390625-17.015625 24.386718-25.554688 24.628906-25.636719 1.347656-.472656 2.183594-1.828125 1.984375-3.246093-.195313-1.417969-1.363281-2.5-2.789063-2.585938zm-27.136718 20.691406c-2.710938-6.261718-7.414063-13.816406-15.171875-17.753906 5.863281-2.808594 12.820312-7.824219 16.40625-16.542969 3.101562 6.140625 8.398437 13.761719 16.664062 17.445313-6.011719 3.277344-13.84375 8.808594-17.898437 16.851562zm0 0" fill="#3a312a"/><path d="m21.421875 56.398438c-1.378906 16.359374-18.421875 18.945312-18.421875 18.945312 14.632812.6875 18.28125 19.886719 18.28125 19.886719.3125-13.6875 18.84375-20.089844 18.84375-20.089844-13.878906-.832031-18.703125-18.742187-18.703125-18.742187zm0 0" fill="#d7e057"/><path d="m40.304688 72.144531c-11.53125-.691406-15.945313-16.371093-15.988282-16.53125-.378906-1.402343-1.699218-2.332031-3.164062-2.203125-1.449219.128906-2.597656 1.285156-2.71875 2.734375-1.15625 13.742188-15.292969 16.136719-15.882813 16.230469-1.527343.230469-2.628906 1.578125-2.54687475 3.121094.08203125 1.539062 1.31249975 2.769531 2.85546875 2.84375 12.070313.566406 15.445313 17.285156 15.480469 17.449218.269531 1.425782 1.515625 2.441407 2.941406 2.441407.085938 0 .167969-.003907.25-.011719 1.53125-.125 2.71875-1.386719 2.753906-2.921875.257813-11.417969 16.664063-17.265625 16.824219-17.324219 1.351563-.464844 2.1875-1.824218 1.992187-3.242187-.199218-1.417969-1.367187-2.5-2.796874-2.585938zm-19.167969 13.589844c-1.847657-3.769531-4.679688-7.890625-8.894531-10.558594 3.710937-2.082031 7.394531-5.257812 9.742187-9.832031 2.113281 3.75 5.308594 7.910156 9.882813 10.449219-3.699219 2.199219-7.980469 5.476562-10.730469 9.941406zm0 0" fill="#3a312a"/><path d="m21.421875 3.085938c-1.378906 16.359374-18.421875 18.941406-18.421875 18.941406 14.632812.6875 18.28125 19.890625 18.28125 19.890625.3125-13.691407 18.84375-20.09375 18.84375-20.09375-13.878906-.832031-18.703125-18.738281-18.703125-18.738281zm0 0" fill="#d7e057"/><path d="m40.304688 18.828125c-11.53125-.6875-15.945313-16.371094-15.988282-16.527344-.378906-1.40625-1.699218-2.3359372-3.164062-2.2031248-1.449219.1289058-2.597656 1.2851558-2.71875 2.7382818-1.15625 13.738281-15.292969 16.132812-15.882813 16.226562-1.527343.230469-2.628906 1.578125-2.54687475 3.121094.08203125 1.539062 1.31249975 2.769531 2.85546875 2.84375 12.070313.566406 15.445313 17.285156 15.480469 17.449218.269531 1.425782 1.515625 2.441407 2.941406 2.441407.085938 0 .167969 0 .25-.011719 1.53125-.125 2.71875-1.386719 2.753906-2.921875.257813-11.417969 16.664063-17.265625 16.824219-17.324219 1.351563-.464844 2.1875-1.824218 1.992187-3.242187-.199218-1.417969-1.367187-2.5-2.796874-2.589844zm-19.167969 13.59375c-1.847657-3.773437-4.679688-7.894531-8.894531-10.5625 3.710937-2.082031 7.394531-5.257813 9.742187-9.832031 2.113281 3.75 5.308594 7.910156 9.882813 10.449218-3.699219 2.199219-7.980469 5.476563-10.730469 9.945313zm0 0" fill="#3a312a"/><path d="m303.007812 116.046875-14.722656-9.1875-11.324218-7.066406c-29.648438 47.519531-15.160157 110.078125 32.355468 139.726562 47.523438 29.652344 110.078125 15.164063 139.726563-32.355469zm0 0" fill="#d7e057"/><path d="m451.964844 206.484375c-.179688-.773437-.660156-1.445313-1.332032-1.867187l-160.761718-100.304688-11.324219-7.0625c-1.40625-.878906-3.253906-.449219-4.128906.957031-14.765625 23.664063-19.433594 51.660157-13.136719 78.828125 6.292969 27.171875 22.789062 50.265625 46.449219 65.03125 17.152343 10.703125 36.238281 15.800782 55.105469 15.800782 34.863281 0 68.976562-17.421876 88.753906-49.113282.421875-.679687.554687-1.492187.375-2.269531zm-141.058594 30.488281c-22.300781-13.914062-37.851562-35.679687-43.78125-61.292968-5.703125-24.632813-1.851562-49.984376 10.832031-71.730469l166.914063 104.144531c-29.339844 44.023438-88.777344 57.078125-133.964844 28.878906zm0 0" fill="#3a312a"/><path d="m335.480469 136.304688-6.757813-4.210938-5.191406-3.242188c-13.601562 21.800782-6.957031 50.5 14.84375 64.097657 21.800781 13.601562 50.496094 6.957031 64.097656-14.84375zm0 0" fill="#fce8cb"/><g fill="#3a312a"><path d="m405.394531 177.429688c-.179687-.777344-.660156-1.449219-1.335937-1.867188l-73.746094-46.015625-5.195312-3.238281c-1.40625-.875-3.253907-.449219-4.132813.957031-7 11.222656-9.214844 24.503906-6.230469 37.386719 2.984375 12.890625 10.808594 23.84375 22.03125 30.847656 7.964844 4.964844 16.960938 7.523438 26.121094 7.523438 3.746094 0 7.527344-.425782 11.269531-1.296876 12.886719-2.984374 23.839844-10.808593 30.84375-22.03125.421875-.675781.558594-1.492187.375-2.265624zm-65.433593 12.976562c-9.863282-6.152344-16.738282-15.78125-19.359376-27.109375-2.398437-10.34375-.980468-20.980469 3.972657-30.257813l73.679687 45.972657c-13.28125 18.359375-38.789062 23.5625-58.292968 11.394531zm0 0"/><path d="m308.101562 132.265625c-.878906-1.132813-3.246093-3.820313-6.636718-4.765625-2.355469-.652344-4.917969.125-5.390625 1.832031-.476563 1.707031 1.273437 3.671875 3.671875 4.351563 3.386718.960937 6.804687-.136719 8.140625-.65625.308593-.121094.414062-.5.214843-.761719zm0 0"/><path d="m304.246094 155.328125c-1.183594-.808594-4.261719-2.640625-7.78125-2.492187-2.441406.097656-4.640625 1.625-4.566406 3.398437.070312 1.769531 2.34375 3.101563 4.832031 3.011719 3.519531-.125 6.4375-2.222656 7.546875-3.125.257812-.210938.238281-.605469-.03125-.792969zm0 0"/><path d="m310.617188 180.261719c-1.421876-.167969-5-.363281-8.050782 1.398437-2.113281 1.222656-3.355468 3.597656-2.46875 5.132813.886719 1.53125 3.515625 1.660156 5.679688.425781 3.058594-1.742188 4.671875-4.953125 5.234375-6.269531.132812-.304688-.066407-.648438-.394531-.6875zm0 0"/><path d="m332.21875 203.625c-.023438-.328125-.359375-.539062-.667969-.421875-1.339843.511719-4.59375 2.007813-6.46875 4.988281-1.304687 2.066406-1.292969 4.746094.203125 5.691406 1.5.945313 3.882813-.167968 5.226563-2.269531 1.898437-2.96875 1.824219-6.5625 1.707031-7.988281zm0 0"/><path d="m413.382812 197.335938c-2.335937-2.636719-5.792968-3.578126-7.195312-3.867188-.320312-.066406-.621094.199219-.589844.523438.117188 1.429687.632813 4.984374 2.988282 7.605468 1.667968 1.851563 4.199218 2.5625 5.523437 1.382813 1.324219-1.175781.898437-3.820313-.726563-5.644531zm0 0"/><path d="m392.832031 212.957031c-1.417969-3.222656-4.414062-5.183593-5.664062-5.890625-.285157-.160156-.648438 0-.722657.320313-.324218 1.394531-.925781 4.9375.507813 8.152343 1.015625 2.277344 3.210937 3.730469 4.832031 3.015626 1.621094-.710938 2.027344-3.359376 1.046875-5.597657zm0 0"/><path d="m361.972656 212.300781c-.179687-.273437-.574218-.300781-.789062-.050781-.933594 1.085938-3.113282 3.945312-3.332032 7.457031-.15625 2.488281 1.109376 4.792969 2.878907 4.914063s3.355469-2.035156 3.523437-4.476563c.242188-3.511719-1.503906-6.636719-2.28125-7.84375zm0 0"/></g><path d="m226.273438 109.359375c-30.761719 0-55.699219 49.402344-55.699219 87.890625 0 38.484375 24.9375 50.445312 55.699219 50.445312 30.757812 0 55.695312-11.960937 55.695312-50.445312 0-38.488281-24.9375-87.890625-55.695312-87.890625zm0 0" fill="#f16c7a"/><path d="m268.242188 137.351562c-11.738282-19.984374-26.644532-30.992187-41.96875-30.992187-15.328126 0-30.234376 11.007813-41.972657 30.992187-10.472656 17.835938-16.722656 40.222657-16.722656 59.898438 0 34.964844 20.292969 53.445312 58.695313 53.445312 38.402343 0 58.699218-18.480468 58.699218-53.445312-.003906-19.675781-6.257812-42.066406-16.730468-59.898438zm-41.96875 107.34375c-34.96875 0-52.699219-15.964843-52.699219-47.445312 0-18.652344 5.945312-39.90625 15.898437-56.859375 10.464844-17.8125 23.875-28.03125 36.800782-28.03125 12.921874 0 26.332031 10.214844 36.792968 28.03125 9.957032 16.953125 15.902344 38.207031 15.902344 56.859375 0 31.480469-17.726562 47.445312-52.695312 47.445312zm0 0" fill="#3a312a"/><path d="m153.636719 170.597656c-21.324219-2.839844-40.910157 12.148438-43.75 33.472656-2.835938 21.324219 12.152343 40.910157 33.476562 43.75 21.324219 2.835938 40.910157-12.152343 43.746094-33.476562 2.839844-21.324219-12.148437-40.910156-33.472656-43.746094zm0 0" fill="#8ac6dd"/><path d="m148.492188 167.261719c-23.132813 0-41.953126 18.816406-41.953126 41.949219 0 23.132812 18.820313 41.949218 41.953126 41.949218 23.128906 0 41.949218-18.816406 41.949218-41.949218 0-23.128907-18.820312-41.949219-41.949218-41.949219zm0 77.898437c-19.824219 0-35.953126-16.125-35.953126-35.949218 0-19.820313 16.128907-35.949219 35.953126-35.949219 19.820312 0 35.949218 16.125 35.949218 35.949219 0 19.824218-16.128906 35.949218-35.949218 35.949218zm0 0" fill="#3a312a"/><path d="m113.984375 236.226562c0 21.511719-17.4375 38.949219-38.949219 38.949219-21.511718 0-38.949218-17.4375-38.949218-38.949219 0-21.511718 17.4375-38.949218 38.949218-38.949218 21.511719 0 38.949219 17.4375 38.949219 38.949218zm0 0" fill="#8ac6dd"/><path d="m75.035156 194.277344c-23.132812 0-41.949218 18.816406-41.949218 41.949218 0 23.128907 18.816406 41.949219 41.949218 41.949219 23.132813 0 41.949219-18.816406 41.949219-41.949219 0-23.132812-18.820313-41.949218-41.949219-41.949218zm0 77.898437c-19.824218 0-35.949218-16.125-35.949218-35.949219 0-19.824218 16.125-35.949218 35.949218-35.949218 19.820313 0 35.949219 16.125 35.949219 35.949218 0 19.820313-16.128906 35.949219-35.949219 35.949219zm0 0" fill="#3a312a"/><path d="m141.882812 177.351562c0 21.511719-17.4375 38.949219-38.949218 38.949219-21.511719 0-38.953125-17.4375-38.953125-38.949219 0-21.511718 17.441406-38.949218 38.953125-38.949218 21.511718 0 38.949218 17.4375 38.949218 38.949218zm0 0" fill="#8ac6dd"/><path d="m102.933594 135.402344c-23.132813 0-41.953125 18.816406-41.953125 41.949218 0 23.132813 18.820312 41.949219 41.953125 41.949219 23.128906 0 41.949218-18.816406 41.949218-41.949219 0-23.132812-18.820312-41.949218-41.949218-41.949218zm0 77.898437c-19.824219 0-35.953125-16.125-35.953125-35.949219 0-19.824218 16.128906-35.953124 35.953125-35.953124 19.824218 0 35.949218 16.128906 35.949218 35.953124 0 19.824219-16.128906 35.949219-35.949218 35.949219zm0 0" fill="#3a312a"/><path d="m402.230469 345.046875c-3.9375 0-7.839844-.460937-11.597657-1.378906l-32.742187 72.238281c-8.257813 18.21875-26.539063 30-46.539063 30h32.539063c20.023437 0 38.28125-11.78125 46.542969-30l34.597656-76.339844c-6.9375 3.578125-14.699219 5.480469-22.800781 5.480469zm0 0" fill="#695b51"/><path d="m446.09375 292.425781c-1.28125-21.578125-18.480469-39.257812-40.019531-41.101562-2.183594-.179688-4.320313-.199219-6.460938-.078125-3.921875 1.460937-7.941406 2.71875-12.082031 3.71875 14.601562 6.519531 25.042969 20.839844 26.019531 37.460937.722657 12.261719-3.5 23.921875-11.878906 32.800781-4.480469 4.757813-9.820313 8.378907-15.679687 10.699219 5.121093 2.039063 10.621093 3.121094 16.238281 3.121094 12.222656 0 23.582031-4.902344 31.980469-13.820313 8.382812-8.878906 12.601562-20.539062 11.882812-32.800781zm0 0" fill="#decaad"/></svg>