<svg height="453pt" viewBox="-59 0 453 453.30388" width="453pt" xmlns="http://www.w3.org/2000/svg"><path d="m64.972656 22.355469c-1.949218 23.125-26.046875 26.777343-26.046875 26.777343 20.691407.976563 25.847657 28.117188 25.847657 28.117188.441406-19.351562 26.644531-28.402344 26.644531-28.402344-19.628907-1.171875-26.445313-26.492187-26.445313-26.492187zm0 0" fill="#d7e057"/><path d="m91.597656 45.851562c-17.210937-1.027343-23.664062-24.046874-23.726562-24.28125-.382813-1.402343-1.703125-2.316406-3.167969-2.203124-1.449219.132812-2.597656 1.285156-2.71875 2.734374-1.71875 20.429688-22.625 23.925782-23.507813 24.0625-1.527343.230469-2.625 1.582032-2.546874 3.125.082031 1.539063 1.3125 2.765626 2.855468 2.839844 18.054688.851563 22.996094 25.4375 23.042969 25.6875.277344 1.421875 1.519531 2.433594 2.945313 2.433594.085937 0 .167968-.003906.253906-.011719 1.527344-.125 2.710937-1.382812 2.75-2.917969.386718-17.015624 24.378906-25.550781 24.621094-25.636718 1.355468-.46875 2.1875-1.828125 1.988281-3.242188-.199219-1.421875-1.363281-2.503906-2.789063-2.589844zm-27.136718 20.691407c-2.710938-6.257813-7.414063-13.8125-15.171876-17.75 5.863282-2.8125 12.816407-7.828125 16.402344-16.546875 3.101563 6.144531 8.402344 13.761718 16.667969 17.445312-6.011719 3.277344-13.84375 8.808594-17.898437 16.851563zm0 0" fill="#3a312a"/><path d="m21.574219 56.316406c-1.378907 16.359375-18.425781 18.941406-18.425781 18.941406 14.636718.6875 18.285156 19.886719 18.285156 19.886719.3125-13.691406 18.84375-20.089843 18.84375-20.089843-13.882813-.832032-18.703125-18.738282-18.703125-18.738282zm0 0" fill="#d7e057"/><path d="m40.457031 72.058594c-11.53125-.6875-15.945312-16.367188-15.988281-16.527344-.378906-1.402344-1.71875-2.320312-3.164062-2.203125-1.449219.128906-2.597657 1.285156-2.71875 2.734375-1.15625 13.742188-15.292969 16.132812-15.882813 16.226562-1.527344.230469-2.6289062 1.582032-2.546875 3.121094.078125 1.542969 1.3125 2.769532 2.855469 2.84375 12.070312.566406 15.449219 17.289063 15.476562 17.453125.273438 1.421875 1.519531 2.4375 2.949219 2.4375.082031 0 .164062-.003906.25-.007812 1.527344-.125 2.714844-1.390625 2.75-2.921875.257812-11.417969 16.664062-17.269532 16.824219-17.324219 1.351562-.46875 2.1875-1.828125 1.992187-3.246094-.199218-1.417969-1.367187-2.5-2.796875-2.585937zm-19.167969 13.589844c-1.847656-3.769532-4.679687-7.890626-8.894531-10.554688 3.710938-2.085938 7.394531-5.261719 9.738281-9.835938 2.117188 3.75 5.3125 7.910157 9.882813 10.449219-3.699219 2.199219-7.976563 5.480469-10.726563 9.941407zm0 0" fill="#3a312a"/><path d="m21.574219 3c-1.378907 16.359375-18.425781 18.941406-18.425781 18.941406 14.636718.6875 18.285156 19.886719 18.285156 19.886719.3125-13.6875 18.84375-20.089844 18.84375-20.089844-13.882813-.832031-18.703125-18.738281-18.703125-18.738281zm0 0" fill="#d7e057"/><path d="m40.457031 18.742188c-11.53125-.6875-15.945312-16.371094-15.988281-16.527344-.378906-1.40625-1.71875-2.320313-3.164062-2.2031252-1.449219.1289062-2.597657 1.2851562-2.71875 2.7343752-1.15625 13.742187-15.292969 16.132812-15.882813 16.226562-1.527344.230469-2.6289062 1.582032-2.546875 3.125.078125 1.539063 1.3125 2.765625 2.855469 2.839844 12.070312.570312 15.449219 17.289062 15.476562 17.449219.273438 1.425781 1.519531 2.441406 2.949219 2.441406.082031 0 .164062-.003906.25-.011719 1.527344-.125 2.714844-1.386718 2.75-2.921875.257812-11.417969 16.664062-17.265625 16.824219-17.324219 1.351562-.464843 2.1875-1.824218 1.992187-3.242187-.199218-1.414063-1.367187-2.5-2.796875-2.585937zm-19.167969 13.589843c-1.847656-3.769531-4.679687-7.890625-8.894531-10.558593 3.710938-2.082032 7.394531-5.257813 9.738281-9.832032 2.117188 3.746094 5.3125 7.910156 9.882813 10.449219-3.695313 2.203125-7.976563 5.480469-10.726563 9.941406zm0 0" fill="#3a312a"/><path d="m206.3125 32.773438c-2.441406-17.433594-18.550781-29.585938-35.980469-27.144532-17.433593 2.441406-29.582031 18.550782-27.140625 35.984375 2.441406 17.429688 18.550782 29.582031 35.980469 27.140625s29.582031-18.550781 27.140625-35.980468zm0 0" fill="#fce8cb"/><path d="m174.761719 2.324219c-19.230469 0-34.871094 15.644531-34.871094 34.871093 0 19.230469 15.640625 34.871094 34.871094 34.871094 19.226562 0 34.871093-15.640625 34.871093-34.871094 0-19.226562-15.644531-34.871093-34.871093-34.871093zm0 63.742187c-15.921875 0-28.871094-12.953125-28.871094-28.871094 0-15.921874 12.953125-28.875 28.871094-28.875s28.871093 12.953126 28.871093 28.875c-.003906 15.917969-12.953124 28.871094-28.871093 28.871094zm0 0" fill="#3a312a"/><path d="m230.980469 5.324219c-17.601563 0-31.871094 14.269531-31.871094 31.871093 0 17.601563 14.269531 31.871094 31.871094 31.871094 17.601562 0 31.871093-14.269531 31.871093-31.871094 0-17.601562-14.265624-31.871093-31.871093-31.871093zm0 0" fill="#fce8cb"/><path d="m230.980469 2.324219c-19.226563 0-34.871094 15.644531-34.871094 34.871093 0 19.230469 15.644531 34.871094 34.871094 34.871094 19.230469 0 34.875-15.640625 34.875-34.871094 0-19.226562-15.644531-34.871093-34.875-34.871093zm0 63.742187c-15.917969 0-28.871094-12.953125-28.871094-28.871094 0-15.921874 12.953125-28.875 28.871094-28.875 15.921875 0 28.875 12.953126 28.875 28.875-.003907 15.917969-12.953125 28.871094-28.875 28.871094zm0 0" fill="#3a312a"/><path d="m148.226562 53.816406c-17.601562 0-31.871093 14.269532-31.871093 31.871094s14.269531 31.871094 31.871093 31.871094c17.601563 0 31.871094-14.269532 31.871094-31.871094s-14.269531-31.871094-31.871094-31.871094zm0 0" fill="#fce8cb"/><path d="m148.226562 50.816406c-19.230468 0-34.871093 15.644532-34.871093 34.871094s15.640625 34.871094 34.871093 34.871094c19.226563 0 34.871094-15.644532 34.871094-34.871094s-15.644531-34.871094-34.871094-34.871094zm0 63.742188c-15.921874 0-28.871093-12.953125-28.871093-28.871094s12.949219-28.871094 28.871093-28.871094c15.917969 0 28.871094 12.953125 28.871094 28.871094 0 15.921875-12.953125 28.871094-28.871094 28.871094zm0 0" fill="#3a312a"/><path d="m203.113281 53.816406c-17.601562 0-31.875 14.269532-31.875 31.871094s14.273438 31.871094 31.875 31.871094c17.601563 0 31.867188-14.269532 31.867188-31.871094s-14.265625-31.871094-31.867188-31.871094zm0 0" fill="#fce8cb"/><path d="m203.113281 50.816406c-19.230469 0-34.875 15.644532-34.875 34.871094s15.644531 34.871094 34.875 34.871094c19.226563 0 34.871094-15.644532 34.871094-34.871094s-15.640625-34.871094-34.871094-34.871094zm0 63.742188c-15.921875 0-28.875-12.953125-28.875-28.871094s12.953125-28.871094 28.875-28.871094c15.917969 0 28.871094 12.953125 28.871094 28.871094 0 15.921875-12.953125 28.871094-28.871094 28.871094zm0 0" fill="#3a312a"/><path d="m259.335938 53.816406c-17.605469 0-31.871094 14.269532-31.871094 31.871094s14.269531 31.871094 31.871094 31.871094c17.597656 0 31.871093-14.269532 31.871093-31.871094s-14.269531-31.871094-31.871093-31.871094zm0 0" fill="#fce8cb"/><path d="m259.335938 50.816406c-19.230469 0-34.875 15.644532-34.875 34.871094s15.644531 34.871094 34.875 34.871094c19.226562 0 34.871093-15.644532 34.871093-34.871094-.003906-19.226562-15.644531-34.871094-34.871093-34.871094zm0 63.742188c-15.921876 0-28.875-12.953125-28.875-28.871094s12.953124-28.871094 28.875-28.871094c15.917968 0 28.871093 12.953125 28.871093 28.871094-.003906 15.921875-12.953125 28.871094-28.871093 28.871094zm0 0" fill="#3a312a"/><path d="m119.875 102.234375c-17.601562 0-31.871094 14.265625-31.871094 31.871094s14.269532 31.871093 31.871094 31.871093 31.871094-14.269531 31.871094-31.871093c0-17.601563-14.269532-31.871094-31.871094-31.871094zm0 0" fill="#fce8cb"/><path d="m119.875 99.234375c-19.230469 0-34.871094 15.640625-34.871094 34.871094 0 19.226562 15.640625 34.871093 34.871094 34.871093 19.226562 0 34.871094-15.644531 34.871094-34.871093 0-19.226563-15.644532-34.871094-34.871094-34.871094zm0 63.742187c-15.921875 0-28.871094-12.953124-28.871094-28.871093 0-15.921875 12.949219-28.871094 28.871094-28.871094 15.917969 0 28.871094 12.953125 28.871094 28.871094 0 15.921875-12.953125 28.871093-28.871094 28.871093zm0 0" fill="#3a312a"/><path d="m197.292969 111.570312c-12.445313-12.445312-32.625-12.445312-45.070313 0-12.445312 12.445313-12.445312 32.625 0 45.070313 12.445313 12.445313 32.625 12.445313 45.070313 0 12.445312-12.445313 12.445312-32.625 0-45.070313zm0 0" fill="#fce8cb"/><path d="m174.761719 99.234375c-19.230469 0-34.871094 15.640625-34.871094 34.871094 0 19.226562 15.640625 34.871093 34.871094 34.871093 19.226562 0 34.871093-15.644531 34.871093-34.871093-.003906-19.226563-15.644531-34.871094-34.871093-34.871094zm0 63.742187c-15.921875 0-28.871094-12.953124-28.871094-28.871093 0-15.921875 12.953125-28.871094 28.871094-28.871094s28.871093 12.953125 28.871093 28.871094c-.003906 15.921875-12.953124 28.871093-28.871093 28.871093zm0 0" fill="#3a312a"/><path d="m230.980469 102.234375c-17.601563 0-31.871094 14.265625-31.871094 31.871094s14.269531 31.871093 31.871094 31.871093c17.601562 0 31.871093-14.269531 31.871093-31.871093 0-17.601563-14.265624-31.871094-31.871093-31.871094zm0 0" fill="#fce8cb"/><path d="m230.980469 99.234375c-19.226563 0-34.871094 15.640625-34.871094 34.871094 0 19.226562 15.644531 34.871093 34.871094 34.871093 19.230469 0 34.875-15.644531 34.875-34.871093-.003907-19.226563-15.644531-34.871094-34.875-34.871094zm0 63.742187c-15.917969 0-28.871094-12.953124-28.871094-28.871093 0-15.921875 12.953125-28.871094 28.871094-28.871094 15.921875 0 28.875 12.953125 28.875 28.871094-.003907 15.921875-12.953125 28.871093-28.875 28.871093zm0 0" fill="#3a312a"/><path d="m287.6875 102.234375c-17.601562 0-31.875 14.265625-31.875 31.871094s14.273438 31.871093 31.875 31.871093 31.867188-14.269531 31.867188-31.871093c0-17.601563-14.265626-31.871094-31.867188-31.871094zm0 0" fill="#fce8cb"/><path d="m287.6875 99.234375c-19.226562 0-34.871094 15.640625-34.871094 34.871094 0 19.226562 15.640625 34.871093 34.871094 34.871093s34.871094-15.644531 34.871094-34.871093c0-19.226563-15.640625-34.871094-34.871094-34.871094zm0 63.742187c-15.917969 0-28.871094-12.953124-28.871094-28.871093 0-15.921875 12.953125-28.871094 28.871094-28.871094 15.921875 0 28.871094 12.953125 28.871094 28.871094 0 15.921875-12.953125 28.871093-28.871094 28.871093zm0 0" fill="#3a312a"/><path d="m76.089844 154.417969 9.617187 79.734375 13.175781 109.191406 3.761719 31.1875 3.738281 30.964844 2.347657 19.457031c1.742187 14.464844 14.019531 25.351563 28.589843 25.351563h132.917969c14.570313 0 26.847657-10.886719 28.59375-25.351563l9.847657-81.609375 13.175781-109.191406 9.617187-79.734375zm0 0" fill="#f16c7a"/><path d="m333.714844 152.429688c-.570313-.644532-1.386719-1.011719-2.246094-1.011719h-255.378906c-.859375 0-1.675782.367187-2.242188 1.011719-.570312.640624-.839844 1.496093-.734375 2.347656l26.554688 220.113281c.199219 1.644531 1.695312 2.8125 3.339843 2.621094 1.640626-.199219 2.816407-1.695313 2.617188-3.339844l-26.152344-216.753906h248.617188l-32.234375 267.175781c-1.5625 12.945312-12.574219 22.710938-25.617188 22.710938h-132.917969c-13.039062 0-24.050781-9.761719-25.613281-22.710938l-2.347656-19.457031c-.199219-1.644531-1.699219-2.824219-3.335937-2.617188-1.644532.195313-2.820313 1.691407-2.621094 3.335938l2.347656 19.457031c1.925781 15.957031 15.496094 27.992188 31.570312 27.992188h132.917969c16.070313 0 29.644531-12.035157 31.570313-27.992188l32.636718-270.535156c.105469-.851563-.160156-1.707032-.730468-2.347656zm0 0" fill="#3a312a"/><path d="m260.726562 234.148438c-14.363281-14.972657-34.558593-24.316407-56.945312-24.316407-22.390625 0-42.585938 9.34375-56.945312 24.316407h-61.128907l13.175781 109.191406h47.949219c14.363281 14.976562 34.558594 24.316406 56.949219 24.316406s42.582031-9.339844 56.945312-24.316406h47.949219l13.175781-109.191406zm0 0" fill="#d7e057"/><path d="m324.101562 232.160156c-.570312-.640625-1.386718-1.011718-2.246093-1.011718h-59.863281c-15.511719-15.6875-36.132813-24.316407-58.210938-24.316407s-42.703125 8.628907-58.210938 24.316407h-13.398437c-1.65625 0-3 1.34375-3 3 0 1.660156 1.34375 3 3 3h14.664063c.816406 0 1.601562-.332032 2.167968-.921876 14.464844-15.085937 33.921875-23.394531 54.78125-23.394531 20.855469 0 40.3125 8.308594 54.777344 23.394531.566406.589844 1.347656.921876 2.167969.921876h57.742187l-12.453125 103.191406h-45.289062c-.816407 0-1.597657.335937-2.164063.925781-14.464844 15.085937-33.921875 23.390625-54.78125 23.390625-20.863281 0-40.316406-8.304688-54.78125-23.390625-.566406-.589844-1.351562-.925781-2.167968-.925781h-45.292969l-12.453125-103.191406h12.964844c1.65625 0 3-1.339844 3-3 0-1.65625-1.34375-3-3-3h-16.351563c-.855469 0-1.675781.371093-2.242187 1.011718-.570313.640625-.839844 1.496094-.734376 2.351563l13.175782 109.1875c.183594 1.507812 1.460937 2.640625 2.980468 2.640625h46.683594c15.507813 15.691406 36.132813 24.316406 58.210938 24.316406s42.703125-8.625 58.210937-24.316406h46.683594c1.519531 0 2.796875-1.132813 2.976563-2.640625l13.179687-109.1875c.109375-.855469-.15625-1.707031-.726563-2.351563zm0 0" fill="#3a312a"/><path d="m223.742188 240.578125c-26.601563-11.019531-57.097657 1.613281-68.117188 28.214844-11.019531 26.601562 1.613281 57.101562 28.214844 68.117187 26.601562 11.019532 57.097656-1.613281 68.117187-28.214844 11.019531-26.601562-1.613281-57.097656-28.214843-68.117187zm0 0" fill="#fce8cb"/><path d="m203.78125 233.613281c-30.402344 0-55.136719 24.734375-55.136719 55.132813 0 30.402344 24.734375 55.132812 55.136719 55.132812s55.132812-24.734375 55.132812-55.132812c.003907-30.398438-24.730468-55.132813-55.132812-55.132813zm0 104.269531c-27.09375 0-49.136719-22.042968-49.136719-49.136718 0-27.089844 22.042969-49.132813 49.136719-49.132813s49.132812 22.042969 49.132812 49.132813c.003907 27.09375-22.039062 49.136718-49.132812 49.136718zm0 0" fill="#3a312a"/><path d="m275.839844 346.34375-9.460938 78.261719c-1.558594 12.941406-12.558594 22.699219-25.597656 22.699219h29.457031c13.042969 0 24.042969-9.761719 25.621094-22.699219l9.441406-78.261719zm0 0" fill="#d34e5c"/><path d="m298.621094 157.421875-8.902344 73.71875h29.480469l8.878906-73.71875zm0 0" fill="#d34e5c"/><path d="m289 237.140625-12.441406 103.203125h29.460937l12.441407-103.203125zm0 0" fill="#b9c239"/></svg>