<svg height="450pt" viewBox="-2 0 450 450.4301" width="450pt" xmlns="http://www.w3.org/2000/svg"><path d="m65.039062 22.355469c-1.949218 23.125-26.050781 26.777343-26.050781 26.777343 20.691407.976563 25.847657 28.121094 25.847657 28.121094.441406-19.355468 26.644531-28.40625 26.644531-28.40625-19.628907-1.171875-26.441407-26.492187-26.441407-26.492187zm0 0" fill="#d7e057"/><path d="m91.660156 45.851562c-17.210937-1.027343-23.664062-24.046874-23.730468-24.28125-.378907-1.402343-1.730469-2.335937-3.164063-2.203124-1.449219.132812-2.597656 1.285156-2.71875 2.734374-1.71875 20.429688-22.625 23.925782-23.507813 24.066407-1.527343.226562-2.625 1.578125-2.546874 3.121093.082031 1.539063 1.316406 2.765626 2.855468 2.839844 18.054688.851563 22.996094 25.4375 23.046875 25.6875.273438 1.421875 1.515625 2.433594 2.941407 2.433594.085937 0 .167968 0 .253906-.011719 1.527344-.125 2.714844-1.382812 2.75-2.917969.390625-17.015624 24.382812-25.550781 24.625-25.636718 1.347656-.46875 2.183594-1.828125 1.984375-3.246094-.195313-1.417969-1.363281-2.5-2.789063-2.585938zm-27.132812 20.695313c-2.710938-6.261719-7.417969-13.816406-15.175782-17.753906 5.863282-2.808594 12.820313-7.824219 16.40625-16.542969 3.101563 6.140625 8.398438 13.757812 16.667969 17.441406-6.015625 3.277344-13.847656 8.8125-17.898437 16.855469zm0 0" fill="#3a312a"/><path d="m21.640625 56.316406c-1.378906 16.359375-18.425781 18.941406-18.425781 18.941406 14.636718.6875 18.285156 19.886719 18.285156 19.886719.3125-13.691406 18.84375-20.089843 18.84375-20.089843-13.882812-.832032-18.703125-18.738282-18.703125-18.738282zm0 0" fill="#d7e057"/><path d="m40.519531 72.058594c-11.53125-.6875-15.941406-16.367188-15.988281-16.527344-.378906-1.402344-1.703125-2.332031-3.160156-2.203125-1.453125.132813-2.601563 1.285156-2.722656 2.734375-1.15625 13.742188-15.292969 16.136719-15.882813 16.230469-1.527344.230469-2.625 1.578125-2.546875 3.121093.082031 1.539063 1.3125 2.769532 2.855469 2.84375 12.070312.566407 15.445312 17.285157 15.480469 17.449219.269531 1.425781 1.515624 2.4375 2.941406 2.4375.085937 0 .167968 0 .25-.007812 1.53125-.125 2.71875-1.386719 2.753906-2.921875.261719-11.417969 16.664062-17.269532 16.824219-17.324219 1.355469-.46875 2.1875-1.828125 1.992187-3.246094-.195312-1.417969-1.367187-2.5-2.796875-2.585937zm-19.167969 13.589844c-1.847656-3.769532-4.679687-7.890626-8.890624-10.558594 3.707031-2.082032 7.390624-5.257813 9.738281-9.832032 2.113281 3.75 5.308593 7.910157 9.882812 10.445313-3.699219 2.203125-7.976562 5.484375-10.730469 9.945313zm0 0" fill="#3a312a"/><path d="m21.640625 3.003906c-1.378906 16.355469-18.425781 18.941406-18.425781 18.941406 14.636718.6875 18.285156 19.886719 18.285156 19.886719.3125-13.691406 18.84375-20.089843 18.84375-20.089843-13.882812-.832032-18.703125-18.738282-18.703125-18.738282zm0 0" fill="#d7e057"/><path d="m40.523438 18.746094c-11.535157-.691406-15.945313-16.371094-15.988282-16.53125-.378906-1.402344-1.707031-2.332032-3.164062-2.2031252-1.453125.1289062-2.597656 1.2851562-2.71875 2.7382812-1.160156 13.738281-15.292969 16.132812-15.886719 16.226562-1.523437.230469-2.625 1.578126-2.542969 3.121094.078125 1.539063 1.3125 2.769532 2.851563 2.84375 12.074219.566406 15.449219 17.285156 15.480469 17.449219.269531 1.425781 1.515624 2.441406 2.941406 2.441406.085937 0 .167968-.003906.25-.011719 1.53125-.125 2.71875-1.382812 2.753906-2.921874.261719-11.417969 16.664062-17.265626 16.824219-17.324219 1.351562-.464844 2.1875-1.824219 1.992187-3.242188-.195312-1.417969-1.367187-2.5-2.792968-2.585937zm-19.171876 13.589844c-1.847656-3.773438-4.679687-7.894532-8.890624-10.558594 3.707031-2.085938 7.390624-5.261719 9.738281-9.835938 2.117187 3.75 5.308593 7.910156 9.882812 10.449219-3.699219 2.203125-7.976562 5.480469-10.730469 9.945313zm0 0" fill="#3a312a"/><path d="m242.199219 421.746094c-6.179688-2.839844-12.140625-6.140625-17.859375-9.859375-5.71875 3.71875-11.679688 7.019531-17.859375 9.859375-5.160157 2.601562-10.542969 5-16.121094 7.179687 11.539063 3.300781 23.621094 5.039063 36.078125 5.039063 11.5625 0 22.820312-1.5 33.621094-4.359375-6.199219-2.378907-12.140625-5-17.859375-7.859375zm0 0" fill="#87796f"/><path d="m261.136719 426.804688c-6.027344-2.3125-11.945313-4.917969-17.59375-7.742188-.03125-.015625-.0625-.027344-.09375-.042969-5.96875-2.742187-11.851563-5.988281-17.476563-9.648437-.996094-.648438-2.277344-.644532-3.273437 0-5.621094 3.660156-11.503907 6.90625-17.570313 9.695312-5.082031 2.5625-10.417968 4.941406-15.863281 7.066406-1.199219.46875-1.964844 1.652344-1.90625 2.933594.058594 1.289063.933594 2.390625 2.171875 2.746094 11.964844 3.417969 24.378906 5.15625 36.90625 5.15625 11.640625 0 23.210938-1.5 34.386719-4.460938 1.257812-.332031 2.160156-1.441406 2.230469-2.738281.070312-1.300781-.703126-2.496093-1.917969-2.964843zm-61.261719 1.394531c2.6875-1.195313 5.316406-2.445313 7.859375-3.726563 5.660156-2.601562 11.238281-5.632812 16.605469-9.023437 5.355468 3.382812 10.917968 6.40625 16.5625 9.003906 3.011718 1.503906 6.097656 2.949219 9.230468 4.320313-16.535156 3.09375-33.808593 2.902343-50.257812-.574219zm0 0" fill="#3a312a"/><path d="m151.074219 107.878906c-45.957031 0-87.003907 23.84375-113.796875 61.003906l-15.738282 26.859376c-10.53125 22.515624-16.519531 48.074218-16.519531 75.183593 0 50.179688 20.421875 95.121094 52.464844 125.054688-5.574219 5.445312-9.042969 13.039062-9.042969 21.445312 0 16.566407 13.433594 30 30 30 51.183594 0 94-8.613281 128.046875-25.675781 16.007813-7.359375 30.601563-17.785156 43.175781-30.648438 2.648438-2.621093 5.207032-5.328124 7.660157-8.132812 32.902343-37.570312 39.808593-81.667969 39.808593-112.042969 0-89.902343-65.523437-163.046875-146.058593-163.046875zm57.679687 239.449219c-7.570312 7.707031-16.980468 14.683594-28.597656 20.574219-9.089844 3.921875-18.878906 6.070312-29.082031 6.070312-47.449219 0-86.054688-46.226562-86.054688-103.046875 0-56.820312 38.605469-103.046875 86.054688-103.046875s86.058593 46.226563 86.058593 103.046875c0 30.273438-10.960937 57.53125-28.378906 76.402344zm0 0" fill="#87796f"/><path d="m151.074219 104.882812c-45.339844 0-87.703125 22.6875-116.230469 62.246094-.964844 1.34375-.664062 3.222656.679688 4.1875 1.347656.972656 3.21875.664063 4.1875-.675781 27.382812-37.980469 67.972656-59.757813 111.363281-59.757813 78.882812 0 143.058593 71.796876 143.058593 160.046876 0 29.859374-6.78125 73.195312-39.066406 110.066406-2.351562 2.6875-4.878906 5.371094-7.550781 8.011718-12.464844 12.753907-26.691406 22.851563-42.371094 30.058594-33.582031 16.828125-76.210937 25.363282-126.707031 25.363282-14.886719 0-27-12.113282-27-27 0-7.316407 2.890625-14.171876 8.140625-19.304688.585937-.570312.914063-1.359375.90625-2.179688-.011719-.816406-.355469-1.597656-.953125-2.15625-32.738281-30.585937-51.515625-75.363281-51.515625-122.859374 0-26.007813 5.464844-50.878907 16.238281-73.914063.703125-1.5.054688-3.289063-1.445312-3.988281-1.5-.703125-3.289063-.054688-3.988282 1.445312-11.152343 23.839844-16.804687 49.566406-16.804687 76.457032 0 48.097656 18.640625 93.535156 51.25 125.179687-5.070313 5.953125-7.828125 13.414063-7.828125 21.320313 0 18.195312 14.804688 33 33 33 51.4375 0 94.972656-8.746094 129.300781-25.953126 16.261719-7.46875 31.085938-17.992187 44.03125-31.238281 2.738281-2.707031 5.367188-5.492187 7.8125-8.285156 33.511719-38.273437 40.550781-83.132813 40.550781-114.023437 0-91.558594-66.867187-166.046876-149.058593-166.046876zm0 272.089844c10.367187 0 20.550781-2.125 30.4375-6.390625 11.375-5.769531 21.261719-12.886719 29.382812-21.152343.023438-.023438.042969-.042969.066407-.066407 18.539062-20.085937 29.171874-48.675781 29.171874-78.4375 0-58.472656-39.953124-106.046875-89.058593-106.046875s-89.054688 47.574219-89.054688 106.046875c0 58.472657 39.949219 106.046875 89.054688 106.046875zm0-206.089844c45.800781 0 83.058593 44.878907 83.058593 100.046876 0 28.25-10.042968 55.339843-27.550781 74.332031-7.660156 7.78125-17.003906 14.503906-27.613281 19.886719-8.964844 3.867187-18.347656 5.824218-27.894531 5.824218-45.796875 0-83.054688-44.878906-83.054688-100.042968 0-55.167969 37.257813-100.046876 83.054688-100.046876zm0 0" fill="#3a312a"/><path d="m237.132812 267.925781c-1.65625 0-3 1.34375-3 3 0 93.808594-84.664062 113.5-155.691406 113.5-18.195312 0-33 14.804688-33 33 0 1.660157 1.339844 3 3 3 1.65625 0 3-1.339843 3-3 0-14.886719 12.113282-27 27-27 133.640625 0 161.691406-64.984375 161.691406-119.5 0-1.65625-1.34375-3-3-3zm0 0" fill="#3a312a"/><path d="m443.679688 270.925781c0-89.898437-65.519532-163.039062-146.058594-163.039062-26.683594 0-51.722656 8.019531-73.261719 22.039062-17.261719 11.199219-32.28125 26.242188-44.101563 44.058594-18.039062 27.121094-28.699218 60.660156-28.699218 96.941406 0 26.441407 5.21875 63.261719 28.261718 97.121094.117188-.039063.21875-.101563.339844-.140625 11.617188-5.898438 21.019532-12.878906 28.597656-20.582031 6.042969-6.539063 11.300782-14.078125 15.601563-22.417969-8.121094-15.699219-12.800781-34.199219-12.800781-53.980469s4.679687-38.28125 12.800781-53.980469c10.140625-19.699218 25.660156-34.980468 44.078125-42.960937 9.101562-3.9375 18.941406-6.097656 29.183594-6.097656 47.4375 0 86.058594 46.21875 86.058594 103.039062 0 14.105469-2.382813 27.554688-6.691407 39.808594l-14.429687 27.691406c-15.792969 21.75-39.042969 35.539063-64.9375 35.539063-10.082032 0-19.78125-2.097656-28.761719-5.917969-3.441406 5.058594-7.28125 10.039063-11.539063 14.917969-2.441406 2.800781-5 5.519531-7.660156 8.140625-7.722656 7.902343-16.199218 14.878906-25.320312 20.78125 5.71875 3.71875 11.679687 7.019531 17.859375 9.859375 34.058593 17.058594 76.859375 25.679687 128.058593 25.679687 16.5625 0 30-13.441406 30-30 0-8.398437-3.480468-16-9.058593-21.441406 32.039062-29.9375 52.480469-74.878906 52.480469-125.058594zm0 0" fill="#87796f"/><path d="m446.679688 270.925781c0-91.554687-66.867188-166.039062-149.058594-166.039062-26.359375 0-52.257813 7.789062-74.890625 22.523437-17.675781 11.46875-32.808594 26.582032-44.96875 44.914063-19.101563 28.722656-29.199219 62.816406-29.199219 98.605469 0 25.78125 4.992188 63.847656 28.777344 98.804687.757812 1.113281 2.164062 1.585937 3.429687 1.160156.164063-.054687.320313-.121093.339844-.140625.140625-.046875.277344-.105468.410156-.167968 11.355469-5.765626 21.238281-12.882813 29.445313-21.222657 6.253906-6.769531 11.660156-14.535156 16.0625-23.078125.445312-.863281.445312-1.890625 0-2.753906-8.152344-15.765625-12.464844-33.957031-12.464844-52.601562 0-18.648438 4.308594-36.835938 12.464844-52.609376 9.875-19.191406 25.007812-33.957031 42.605468-41.582031 8.96875-3.882812 18.386719-5.851562 27.988282-5.851562 45.796875 0 83.058594 44.878906 83.058594 100.042969 0 13.433593-2.195313 26.496093-6.519532 38.8125-.550781 1.566406.269532 3.277343 1.835938 3.824218 1.5625.554688 3.273437-.269531 3.824218-1.835937 4.550782-12.957031 6.859376-26.6875 6.859376-40.800781 0-58.472657-39.953126-106.042969-89.058594-106.042969-10.429688 0-20.644532 2.136719-30.375 6.347656-18.867188 8.171875-35.046875 23.917969-45.550782 44.332031-8.59375 16.617188-13.132812 35.757813-13.132812 55.359375 0 19.050781 4.289062 37.671875 12.421875 53.957031-4.019531 7.535157-8.867187 14.386719-14.359375 20.339844-7.199219 7.308594-15.863281 13.675782-25.785156 18.949219-21.671875-33.089844-26.277344-68.847656-26.277344-93.246094 0-34.597656 9.75-67.546875 28.199219-95.28125 11.703125-17.644531 26.25-32.179687 43.238281-43.203125 21.660156-14.101562 46.429688-21.554687 71.621094-21.554687 78.882812 0 143.058594 71.792969 143.058594 160.039062 0 47.484375-18.78125 92.269531-51.527344 122.867188-.597656.5625-.941406 1.339843-.953125 2.160156-.007813.820313.320312 1.609375.90625 2.179687 5.257812 5.128907 8.15625 11.980469 8.15625 19.292969 0 14.886719-12.113281 27-27 27-50.484375 0-93.117188-8.535156-126.804688-25.40625-4.617187-2.121093-9.175781-4.539062-13.601562-7.21875 7.792969-5.40625 15.15625-11.644531 21.914062-18.558593 2.703125-2.664063 5.332031-5.457032 7.8125-8.300782 3.71875-4.261718 7.203125-8.695312 10.378907-13.207031 8.917968 3.472656 18.214843 5.234375 27.664062 5.234375 25.839844 0 50.390625-13.40625 67.363281-36.78125.976563-1.339844.675781-3.214844-.664062-4.1875-1.339844-.976562-3.21875-.675781-4.1875.664062-15.832031 21.800782-38.617188 34.304688-62.511719 34.304688-9.441406 0-18.722656-1.910156-27.585938-5.679688-1.320312-.5625-2.851562-.109374-3.652343 1.074219-3.40625 5.003907-7.214844 9.929688-11.324219 14.636719-2.382812 2.730469-4.90625 5.414062-7.542969 8.011719-7.597656 7.777343-15.945312 14.625-24.804687 20.359375-.855469.550781-1.371094 1.5-1.371094 2.511718 0 1.015626.511719 1.964844 1.367188 2.519532 5.867187 3.816406 12.007812 7.207031 18.148437 10.027344 34.441406 17.25 77.980469 26 129.40625 26 18.195313 0 33-14.804688 33-33 0-7.90625-2.761719-15.367188-7.839844-21.320313 32.605469-31.660156 51.253907-77.101563 51.253907-125.183594zm0 0" fill="#3a312a"/><path d="m370.25 384.425781c-41.300781 0-74.960938-6.40625-100.050781-19.042969-1.476563-.742187-3.28125-.148437-4.027344 1.332032-.746094 1.480468-.152344 3.285156 1.328125 4.027344 25.933594 13.0625 60.503906 19.683593 102.75 19.683593 14.890625 0 27 12.113281 27 27 0 1.660157 1.34375 3 3 3 1.660156 0 3-1.339843 3-3 0-18.195312-14.804688-33-33-33zm0 0" fill="#3a312a"/><g fill="#fce8cb"><path d="m242.003906 164.359375c-1.285156-1.664063-4.765625-5.609375-9.746094-6.996094-3.457031-.960937-7.21875.183594-7.917968 2.691407-.695313 2.507812 1.875 5.390624 5.394531 6.390624 4.972656 1.414063 9.996094-.203124 11.957031-.964843.453125-.175781.609375-.738281.3125-1.121094zm0 0"/><path d="m203.738281 195.132812c-.179687-.449218-.742187-.601562-1.125-.304687-1.65625 1.292969-5.585937 4.789063-6.949219 9.777344-.941406 3.460937.21875 7.21875 2.730469 7.90625 2.507813.683593 5.378907-1.902344 6.363281-5.425781 1.390626-4.980469-.25-9.996094-1.019531-11.953126zm0 0"/><path d="m190.589844 310.820312c-.175782-.449218-.738282-.601562-1.117188-.304687-1.660156 1.292969-5.589844 4.789063-6.953125 9.777344-.941406 3.464843.21875 7.222656 2.730469 7.90625 2.507812.683593 5.378906-1.902344 6.363281-5.425781 1.390625-4.980469-.25-9.996094-1.023437-11.953126zm0 0"/><path d="m289.703125 138.703125c-3.261719-4.015625-8.300781-5.574219-10.34375-6.078125-.46875-.113281-.921875.257812-.898437.738281.097656 2.101563.679687 7.332031 3.960937 11.324219 2.277344 2.773438 6.015625 3.996094 8.027344 2.34375s1.558593-5.488281-.746094-8.328125zm0 0"/><path d="m343.035156 139.28125c-.175781-.449219-.734375-.605469-1.117187-.3125-1.667969 1.28125-5.625 4.746094-7.023438 9.726562-.96875 3.453126.164063 7.222657 2.671875 7.925782 2.503906.703125 5.394532-1.859375 6.402344-5.378906 1.429688-4.96875-.175781-9.996094-.933594-11.960938zm0 0"/><path d="m411.210938 323.886719c-1.285157-1.667969-4.765626-5.613281-9.742188-6.996094-3.457031-.960937-7.222656.179687-7.917969 2.691406-.699219 2.503907 1.871094 5.386719 5.390625 6.386719 4.976563 1.414062 10-.199219 11.960938-.960938.449218-.175781.605468-.738281.308594-1.121093zm0 0"/><path d="m317.367188 404.089844c-1.285157-1.664063-4.765626-5.613282-9.742188-6.996094-3.457031-.960938-7.222656.183594-7.917969 2.691406-.699219 2.503906 1.871094 5.390625 5.390625 6.390625 4.976563 1.414063 10-.203125 11.960938-.964843.445312-.175782.601562-.738282.308594-1.121094zm0 0"/><path d="m379.621094 353.304688c-.179688-.449219-.742188-.601563-1.121094-.304688-1.660156 1.292969-5.589844 4.789062-6.949219 9.777344-.945312 3.460937.214844 7.222656 2.726563 7.90625 2.511718.683594 5.378906-1.902344 6.363281-5.425782 1.390625-4.980468-.25-9.996093-1.019531-11.953124zm0 0"/><path d="m420.753906 269.160156c-.171875-.449218-.734375-.605468-1.117187-.3125-1.667969 1.28125-5.625 4.75-7.023438 9.726563-.96875 3.457031.164063 7.222656 2.671875 7.925781 2.507813.703125 5.394532-1.859375 6.402344-5.375 1.429688-4.972656-.175781-10-.933594-11.964844zm0 0"/><path d="m277.078125 409.644531c-2.484375-4.535156-7.164063-6.976562-9.082031-7.835937-.441406-.199219-.949219.085937-1.015625.5625-.285157 2.085937-.652344 7.332031 1.859375 11.851562 1.746094 3.136719 5.203125 5.011719 7.476562 3.75 2.273438-1.265625 2.519532-5.117187.761719-8.328125zm0 0"/><path d="m394.042969 186.324219c-1.878907-.945313-6.71875-3.007813-11.808594-2.109375-3.535156.625-6.4375 3.277344-5.984375 5.839844.449219 2.5625 4.011719 4.054687 7.621094 3.441406 5.097656-.867188 8.933594-4.492188 10.375-6.027344.328125-.351562.226562-.925781-.203125-1.144531zm0 0"/><path d="m176.507812 141.519531c-1.878906-.949219-6.714843-3.007812-11.8125-2.113281-3.53125.625-6.433593 3.28125-5.980468 5.84375.449218 2.5625 4.011718 4.054688 7.621094 3.441406 5.097656-.871094 8.933593-4.492187 10.375-6.027344.332031-.351562.226562-.925781-.203126-1.144531zm0 0"/><path d="m346.769531 415.585938c-2.101562-.070313-7.359375.097656-11.601562 3.050781-2.941407 2.054687-4.457031 5.683593-2.972657 7.816406 1.488282 2.136719 5.351563 1.992187 8.363282-.085937 4.261718-2.929688 6.214844-7.832032 6.875-9.828126.152344-.457031-.179688-.933593-.664063-.953124zm0 0"/><path d="m406.171875 229.804688c-2.632813-2.433594-6.503906-3.136719-8.269531-1.222657-1.765625 1.910157-.796875 5.648438 1.875 8.144531 3.78125 3.535157 8.988281 4.390626 11.078125 4.609376.480469.046874.878906-.378907.789062-.855469-.382812-2.070313-1.671875-7.167969-5.472656-10.675781zm0 0"/><path d="m187.207031 252.789062c-4.011719-3.265624-9.261719-3.773437-11.363281-3.847656-.484375-.019531-.847656.433594-.730469.902344.523438 2.039062 2.152344 7.039062 6.179688 10.285156 2.792969 2.25 6.699219 2.691406 8.335937.664063 1.628906-2.023438.414063-5.6875-2.421875-8.003907zm0 0"/><path d="m82.753906 180.832031c-1.285156-1.664062-4.761718-5.613281-9.742187-6.996093-3.457031-.960938-7.21875.183593-7.917969 2.691406-.695312 2.507812 1.875 5.390625 5.394531 6.390625 4.972657 1.414062 9.996094-.203125 11.957031-.964844.449219-.175781.605469-.738281.308594-1.121094zm0 0"/><path d="m46.789062 227.835938c-.179687-.453126-.738281-.605469-1.121093-.308594-1.660157 1.292968-5.589844 4.789062-6.949219 9.777344-.945312 3.464843.214844 7.222656 2.726562 7.90625 2.511719.683593 5.378907-1.902344 6.363282-5.425782 1.390625-4.980468-.246094-9.996094-1.019532-11.949218zm0 0"/><path d="m46.789062 329.117188c-.179687-.449219-.738281-.601563-1.121093-.308594-1.660157 1.296875-5.589844 4.792968-6.949219 9.78125-.945312 3.460937.214844 7.21875 2.726562 7.902344 2.511719.683593 5.378907-1.898438 6.363282-5.425782 1.390625-4.976562-.246094-9.996094-1.019532-11.949218zm0 0"/><path d="m125.476562 140.398438c-3.261718-4.011719-8.304687-5.574219-10.34375-6.074219-.472656-.113281-.921874.257812-.898437.738281.097656 2.101562.675781 7.328125 3.960937 11.324219 2.277344 2.769531 6.019532 3.996093 8.027344 2.339843 2.007813-1.652343 1.558594-5.488281-.746094-8.328124zm0 0"/><path d="m206.511719 381.253906c-5.160157.351563-9.335938 3.574219-10.925781 4.957032-.363282.316406-.320313.898437.085937 1.15625 1.773437 1.132812 6.382813 3.667968 11.539063 3.285156 3.578124-.265625 6.730468-2.617188 6.539062-5.210938s-3.585938-4.4375-7.238281-4.1875zm0 0"/><path d="m267.410156 323.886719c-1.285156-1.667969-4.761718-5.613281-9.746094-6.996094-3.453124-.960937-7.21875.179687-7.917968 2.691406-.695313 2.503907 1.875 5.386719 5.394531 6.386719 4.972656 1.414062 10-.199219 11.957031-.960938.453125-.175781.609375-.738281.3125-1.121093zm0 0"/><path d="m241.589844 352.621094c-.179688-.449219-.742188-.601563-1.121094-.304688-1.660156 1.292969-5.589844 4.789063-6.953125 9.777344-.941406 3.460938.21875 7.21875 2.730469 7.90625 2.507812.683594 5.378906-1.902344 6.363281-5.425781 1.390625-4.976563-.25-9.992188-1.019531-11.953125zm0 0"/><path d="m377.375 405.9375c-.179688-.453125-.738281-.601562-1.121094-.308594-1.65625 1.296875-5.585937 4.792969-6.949218 9.777344-.945313 3.464844.21875 7.222656 2.726562 7.90625 2.511719.683594 5.382812-1.902344 6.367188-5.425781 1.390624-4.980469-.25-9.992188-1.023438-11.949219zm0 0"/><path d="m276.957031 269.160156c-.175781-.449218-.738281-.605468-1.121093-.3125-1.667969 1.28125-5.621094 4.75-7.019532 9.726563-.972656 3.457031.164063 7.222656 2.667969 7.925781 2.507813.703125 5.394531-1.859375 6.40625-5.375 1.425781-4.972656-.179687-10-.933594-11.964844zm0 0"/><path d="m83.90625 363.46875c-1.878906-.945312-6.71875-3.007812-11.8125-2.109375-3.53125.625-6.433594 3.277344-5.984375 5.839844.453125 2.5625 4.015625 4.054687 7.625 3.441406 5.097656-.867187 8.933594-4.492187 10.371094-6.027344.332031-.351562.230469-.925781-.199219-1.144531zm0 0"/><path d="m262.371094 229.804688c-2.636719-2.433594-6.507813-3.136719-8.273438-1.222657-1.765625 1.910157-.792968 5.648438 1.878906 8.144531 3.777344 3.535157 8.988282 4.390626 11.078126 4.609376.480468.046874.875-.378907.789062-.855469-.382812-2.070313-1.671875-7.167969-5.472656-10.675781zm0 0"/><path d="m40.21875 284.265625c-4.007812-3.269531-9.261719-3.777344-11.363281-3.851563-.480469-.019531-.847657.4375-.730469.902344.523438 2.039063 2.152344 7.042969 6.179688 10.285156 2.792968 2.253907 6.699218 2.691407 8.335937.667969 1.628906-2.03125.414063-5.695312-2.421875-8.003906zm0 0"/><path d="m180.71875 414.230469c-1.289062-1.664063-4.761719-5.609375-9.746094-6.996094-3.457031-.957031-7.21875.183594-7.917968 2.691406-.695313 2.507813 1.875 5.390625 5.394531 6.390625 4.972656 1.414063 9.996093-.203125 11.957031-.964844.449219-.175781.605469-.738281.3125-1.121093zm0 0"/><path d="m127.390625 399.941406c-.179687-.453125-.742187-.601562-1.121094-.308594-1.660156 1.296876-5.589843 4.792969-6.949219 9.777344-.945312 3.464844.21875 7.222656 2.726563 7.90625 2.511719.6875 5.378906-1.898437 6.363281-5.425781 1.390625-4.980469-.25-9.996094-1.019531-11.949219zm0 0"/><path d="m82.210938 421.277344c-4.007813-3.265625-9.261719-3.773438-11.363282-3.847656-.484375-.019532-.847656.433593-.726562.902343.519531 2.039063 2.148437 7.039063 6.175781 10.285157 2.792969 2.25 6.703125 2.691406 8.335937.664062 1.632813-2.027344.414063-5.691406-2.421874-8.003906zm0 0"/></g><path d="m297.621094 110.886719c-4.203125 0-8.382813.199219-12.542969.621093 45.820313 4.476563 85.542969 33.238282 108.742187 74.699219.078126.058594.160157.078125.21875.117188.359376.183593.5.601562.359376.921875 13.421874 24.359375 21.160156 53.019531 21.160156 83.679687 0 .679688 0 1.339844-.019532 2.019531 1.5-1.980468 3.160157-3.378906 4.101563-4.097656.378906-.300781.9375-.140625 1.117187.320313.761719 1.957031 2.363282 6.976562.921876 11.957031-1 3.519531-3.878907 6.082031-6.402344 5.382812-.136719-.042968-.277344-.082031-.398438-.140624-1.019531 11.820312-3.199218 23.378906-6.5 34.5 1.320313 1.160156 2.28125 2.300781 2.839844 3.019531.28125.378906.140625.9375-.320312 1.121093-.878907.339844-2.339844.839844-4.160157 1.179688-7.199219 21.777344-18.640625 41.699219-33.699219 58.359375 6.820313.578125 13.039063 3.238281 18.058594 7.320313 31.523438-30.542969 49.582032-74.421876 49.582032-120.941407 0-88.238281-64.179688-160.039062-143.058594-160.039062zm0 0" fill="#695b51"/><path d="m392.058594 401.585938c-.339844-.480469-.699219-.960938-1.078125-1.417969-.042969-.0625-.101563-.121094-.160157-.183594-.542968-.636719-1.101562-1.257813-1.699218-1.839844-4.882813-4.757812-11.542969-7.71875-18.863282-7.71875-.9375 0-1.878906 0-2.820312-.019531-1.160156 0-2.296875-.019531-3.4375-.039062-6.097656-.097657-12-.363282-17.757812-.746094.246093.285156.480468.585937.699218.894531 6.617188.441406 12.582032 3.265625 17.058594 7.628906.601562.582031 1.179688 1.203125 1.722656 1.839844.039063.0625.097656.121094.136719.183594.402344.457031.742187.9375 1.101563 1.417969 2.019531 2.78125 3.539062 5.941406 4.378906 9.359374 1.703125-2.621093 3.820312-4.460937 4.921875-5.320312.378906-.300781.9375-.140625 1.121093.300781.757813 1.960938 2.398438 6.980469 1.019532 11.960938-.980469 3.519531-3.859375 6.121093-6.359375 5.417969-.183594-.039063-.34375-.097657-.5-.199219-2.28125 10.5625-10.722657 18.839843-21.363281 20.839843 6.542968.320313 13.242187.480469 20.082031.480469 14.859375 0 26.960937-12.078125 27-26.941406v-.058594c-.003907-5.917969-1.941407-11.378906-5.203125-15.839843zm0 0" fill="#695b51"/><path d="m267.320312 177.804688c-6.0625 2.863281-11.800781 6.601562-17.101562 11.0625 12.921875 24 20.339844 52.078124 20.339844 82.058593 0 1.242188-.019532 2.5-.039063 3.800781 1.738281-2.921874 4.121094-4.960937 5.320313-5.878906.378906-.300781.9375-.140625 1.121094.320313.757812 1.957031 2.359374 6.976562.917968 11.957031-1 3.519531-3.878906 6.082031-6.398437 5.382812-.5625-.160156-1.0625-.480468-1.480469-.921874-.800781 10.71875-2.601562 22.539062-6.019531 34.761718 1.597656 1.339844 2.777343 2.71875 3.417969 3.539063.300781.378906.140624.9375-.300782 1.121093-.976562.378907-2.757812.976563-4.898437 1.296876-4.238281 13.261718-10.441407 26.882812-19.398438 40.0625-3.402343 5-7.203125 9.917968-11.320312 14.617187-.902344 1.0625-1.859375 2.082031-2.800781 3.101563-1.339844 1.460937-2.742188 2.898437-4.179688 4.339843-.199219.199219-.378906.398438-.5625.582031-1.757812 1.796876-3.578125 3.558594-5.417969 5.257813-.5.460937-1.019531.902344-1.519531 1.359375-1.402344 1.261719-2.800781 2.480469-4.242188 3.679688-.539062.441406-1.078124.902343-1.636718 1.339843-1.523438 1.222657-3.0625 2.421875-4.621094 3.582031-.421875.320313-.839844.640626-1.261719.941407-2.019531 1.457031-4.039062 2.859375-6.097656 4.199219-.019531.019531-.042969.039062-.0625.039062-5.617187 3.640625-11.4375 6.878906-17.519531 9.660156-29.300782 14.679688-65.5 23.058594-107.800782 24.941406 1.519532.277344 3.082032.417969 4.679688.417969 50.5 0 93.121094-8.539062 126.703125-25.359375 6.058594-2.78125 11.898437-6.019531 17.519531-9.660156.019532 0 .039063-.019531.058594-.039062 2.058594-1.339844 4.082031-2.742188 6.101562-4.199219.417969-.300781.820313-.621094 1.238282-.941407 1.582031-1.160156 3.121094-2.359374 4.640625-3.582031.539062-.4375 1.101562-.898437 1.640625-1.339843 1.4375-1.199219 2.839844-2.417969 4.238281-3.679688.5-.457031 1.019531-.898438 1.519531-1.359375 1.839844-1.699219 3.640625-3.460937 5.421875-5.257813.179688-.183593.359375-.382812.558594-.582031 1.441406-1.441406 2.820313-2.878906 4.179687-4.339843.941407-1.019532 1.882813-2.039063 2.800782-3.101563 4.101562-4.699219 7.921875-9.617187 11.320312-14.617187 22.601563-33.261719 27.761719-69.460938 27.761719-95.441407 0-34.71875-9.980469-66.859375-26.820313-93.121093zm0 0" fill="#695b51"/><path d="m297.621094 110.886719c-4.203125 0-8.382813.199219-12.542969.621093 45.820313 4.476563 85.542969 33.238282 108.742187 74.699219.078126.058594.160157.078125.21875.117188.359376.183593.5.601562.359376.921875 13.421874 24.359375 21.160156 53.019531 21.160156 83.679687 0 .679688 0 1.339844-.019532 2.019531 1.5-1.980468 3.160157-3.378906 4.101563-4.097656.378906-.300781.9375-.140625 1.117187.320313.761719 1.957031 2.363282 6.976562.921876 11.957031-1 3.519531-3.878907 6.082031-6.402344 5.382812-.136719-.042968-.277344-.082031-.398438-.140624-1.019531 11.820312-3.199218 23.378906-6.5 34.5 1.320313 1.160156 2.28125 2.300781 2.839844 3.019531.28125.378906.140625.9375-.320312 1.121093-.878907.339844-2.339844.839844-4.160157 1.179688-7.199219 21.777344-18.640625 41.699219-33.699219 58.359375 6.820313.578125 13.039063 3.238281 18.058594 7.320313 31.523438-30.542969 49.582032-74.421876 49.582032-120.941407 0-88.238281-64.179688-160.039062-143.058594-160.039062zm0 0" fill="#695b51"/><path d="m392.058594 401.585938c-.339844-.480469-.699219-.960938-1.078125-1.417969-.042969-.0625-.101563-.121094-.160157-.183594-.542968-.636719-1.101562-1.257813-1.699218-1.839844-4.882813-4.757812-11.542969-7.71875-18.863282-7.71875-.9375 0-1.878906 0-2.820312-.019531-1.160156 0-2.296875-.019531-3.4375-.039062-6.097656-.097657-12-.363282-17.757812-.746094.246093.285156.480468.585937.699218.894531 6.617188.441406 12.582032 3.265625 17.058594 7.628906.601562.582031 1.179688 1.203125 1.722656 1.839844.039063.0625.097656.121094.136719.183594.402344.457031.742187.9375 1.101563 1.417969 2.019531 2.78125 3.539062 5.941406 4.378906 9.359374 1.703125-2.621093 3.820312-4.460937 4.921875-5.320312.378906-.300781.9375-.140625 1.121093.300781.757813 1.960938 2.398438 6.980469 1.019532 11.960938-.980469 3.519531-3.859375 6.121093-6.359375 5.417969-.183594-.039063-.34375-.097657-.5-.199219-2.28125 10.5625-10.722657 18.839843-21.363281 20.839843 6.542968.320313 13.242187.480469 20.082031.480469 14.859375 0 26.960937-12.078125 27-26.941406v-.058594c-.003907-5.917969-1.941407-11.378906-5.203125-15.839843zm0 0" fill="#695b51"/></svg>