<svg height="453pt" viewBox="-1 0 453 453.26712" width="453pt" xmlns="http://www.w3.org/2000/svg"><path d="m64.957031 22.355469c-1.949219 23.128906-26.050781 26.777343-26.050781 26.777343 20.695312.972657 25.851562 28.117188 25.851562 28.117188.441407-19.351562 26.640626-28.402344 26.640626-28.402344-19.625-1.175781-26.441407-26.492187-26.441407-26.492187zm0 0" fill="#d7e057"/><path d="m91.578125 45.851562c-17.207031-1.027343-23.664063-24.046874-23.726563-24.277343-.382812-1.40625-1.726562-2.332031-3.167968-2.207031-1.449219.132812-2.59375 1.285156-2.714844 2.734374-1.722656 20.429688-22.628906 23.929688-23.507812 24.066407-1.527344.230469-2.628907 1.582031-2.546876 3.125.078126 1.539062 1.3125 2.765625 2.855469 2.839843 18.054688.851563 22.996094 25.4375 23.042969 25.683594.273438 1.421875 1.519531 2.433594 2.945312 2.433594.082032 0 .167969 0 .25-.007812 1.53125-.128907 2.714844-1.386719 2.75-2.917969.390626-17.019531 24.386719-25.554688 24.628907-25.640625 1.347656-.46875 2.183593-1.828125 1.988281-3.246094-.199219-1.417969-1.367188-2.5-2.796875-2.585938zm-27.128906 20.695313c-2.710938-6.261719-7.417969-13.816406-15.171875-17.753906 5.859375-2.808594 12.816406-7.824219 16.402344-16.546875 3.101562 6.144531 8.398437 13.761718 16.667968 17.445312-6.015625 3.28125-13.847656 8.8125-17.898437 16.855469zm0 0" fill="#3a312a"/><path d="m21.5625 56.316406c-1.378906 16.359375-18.425781 18.941406-18.425781 18.941406 14.636719.6875 18.285156 19.890626 18.285156 19.890626.3125-13.6875 18.84375-20.089844 18.84375-20.089844-13.882813-.832032-18.703125-18.742188-18.703125-18.742188zm0 0" fill="#d7e057"/><path d="m40.445312 72.058594c-11.535156-.691406-15.945312-16.371094-15.988281-16.527344-.378906-1.402344-1.703125-2.324219-3.164062-2.203125-1.453125.128906-2.597657 1.28125-2.71875 2.734375-1.160157 13.742188-15.292969 16.132812-15.886719 16.226562-1.527344.230469-2.625 1.578126-2.546875 3.121094.078125 1.539063 1.3125 2.769532 2.851563 2.84375 12.074218.566406 15.449218 17.289063 15.480468 17.453125.269532 1.421875 1.519532 2.4375 2.945313 2.4375.082031 0 .167969 0 .25-.007812 1.53125-.128907 2.71875-1.390625 2.753906-2.921875.257813-11.417969 16.660156-17.269532 16.824219-17.324219 1.351562-.46875 2.1875-1.828125 1.992187-3.246094-.195312-1.414062-1.367187-2.5-2.792969-2.585937zm-19.167968 13.59375c-1.851563-3.773438-4.683594-7.894532-8.894532-10.5625 3.707032-2.082032 7.394532-5.257813 9.742188-9.832032 2.113281 3.746094 5.304688 7.90625 9.878906 10.449219-3.699218 2.199219-7.976562 5.476563-10.726562 9.945313zm0 0" fill="#3a312a"/><path d="m21.5625 3c-1.378906 16.359375-18.425781 18.941406-18.425781 18.941406 14.636719.691406 18.285156 19.890625 18.285156 19.890625.3125-13.691406 18.84375-20.089843 18.84375-20.089843-13.882813-.832032-18.703125-18.742188-18.703125-18.742188zm0 0" fill="#d7e057"/><path d="m40.445312 18.746094c-11.535156-.691406-15.945312-16.371094-15.988281-16.53125-.382812-1.402344-1.707031-2.328125-3.164062-2.2031252-1.453125.1289062-2.597657 1.2851562-2.722657 2.7343752-1.15625 13.742187-15.292968 16.136718-15.886718 16.230468-1.523438.230469-2.6250002 1.578126-2.546875 3.121094.082031 1.539063 1.316406 2.765625 2.855469 2.839844 12.070312.570312 15.449218 17.289062 15.480468 17.453125.269532 1.425781 1.515625 2.441406 2.945313 2.441406.082031 0 .164062-.003906.25-.011719 1.53125-.128906 2.714843-1.386718 2.75-2.921874.261719-11.417969 16.664062-17.265626 16.824219-17.324219 1.351562-.46875 2.1875-1.824219 1.992187-3.242188-.191406-1.417969-1.363281-2.5-2.789063-2.585937zm-19.167968 13.589844c-1.851563-3.769532-4.683594-7.894532-8.894532-10.5625 3.707032-2.082032 7.394532-5.257813 9.742188-9.832032 2.113281 3.746094 5.304688 7.910156 9.878906 10.449219-3.699218 2.199219-7.976562 5.480469-10.726562 9.945313zm0 0" fill="#3a312a"/><path d="m200.199219 8.089844c-6.878907-6.160156-17.40625-5.578125-23.605469 1.265625-6.195312 6.847656-5.664062 17.441406 1.148438 23.671875 1.664062 1.523437 40.542968 37.871094 25.742187 93.515625-2.382813 8.957031 2.945313 18.144531 11.902344 20.53125 2.996093.792969 6.011719.730469 8.796875-.046875 5.542968-1.539063 10.144531-5.894532 11.730468-11.855469 20.199219-75.921875-33.421874-125.03125-35.714843-127.082031zm0 0" fill="#87796f"/><path d="m202.199219 5.855469c-8.0625-7.222657-20.546875-6.554688-27.828125 1.488281-7.28125 8.046875-6.675782 20.5625 1.347656 27.898438 1.609375 1.472656 39.207031 36.617187 24.867188 90.527343-1.359376 5.109375-.644532 10.4375 2.003906 15.007813 2.648437 4.570312 6.917968 7.835937 12.027344 9.195312 1.671874.441406 3.382812.664063 5.097656.664063 1.777344 0 3.550781-.238281 5.273437-.71875h.003907c6.730468-1.871094 12.027343-7.230469 13.824218-13.976563 20.667969-77.699218-34.269531-127.984375-36.617187-130.085937zm30.816406 128.542969c-1.25 4.703124-4.941406 8.433593-9.636719 9.742187-2.351562.652344-4.847656.664063-7.222656.03125-3.554688-.945313-6.53125-3.21875-8.375-6.402344-1.847656-3.183593-2.339844-6.898437-1.394531-10.453125 15.265625-57.390625-24.898438-94.929687-26.617188-96.5-5.597656-5.121094-6.023437-13.839844-.953125-19.445312 2.71875-3.003906 6.476563-4.53125 10.242188-4.53125 3.261718 0 6.53125 1.148437 9.140625 3.484375 2.234375 2.003906 54.550781 49.894531 34.816406 124.074219zm0 0" fill="#3a312a"/><path d="m351.71875 109.191406c-34.089844-9.183594-68.296875-6.882812-97.761719 7.808594-17.152343 8.554688-37.441406 8.554688-54.59375 0-29.464843-14.691406-63.671875-16.992188-97.761719-7.808594-71.902343 19.367188-116.039062 82.410156-88.703124 173.855469 4.652343 15.558594 11.140624 31.144531 19.050781 46.207031l15.957031 26.8125c40.5625 60.691406 102.65625 105.644532 154.878906 91.582032 8.625-2.324219 16.585938-6.167969 23.875-11.265626 7.292969 5.097657 15.25 8.941407 23.878906 11.265626 71.90625 19.363281 162.546876-73.15625 189.882813-164.601563s-16.796875-154.488281-88.703125-173.855469zm0 0" fill="#f16c7a"/><path d="m436.039062 167.867188c-16.53125-29.648438-46.199218-51.515626-83.539062-61.570313-35.59375-9.585937-70.132812-6.8125-99.882812 8.023437-16.253907 8.101563-35.664063 8.101563-51.917969 0-29.746094-14.835937-64.285157-17.613281-99.878907-8.023437-37.34375 10.054687-67.011718 31.921875-83.542968 61.570313-17.863282 32.039062-20.371094 72.164062-7.253906 116.039062 4.628906 15.492188 11.113281 31.21875 19.265624 46.746094.769532 1.464844 2.585938 2.03125 4.050782 1.261718 1.464844-.769531 2.03125-2.585937 1.261718-4.050781-7.976562-15.1875-14.308593-30.550781-18.832031-45.675781-12.640625-42.285156-10.308593-80.804688 6.746094-111.394531 15.964844-28.632813 43.578125-48.933594 79.863281-58.703125 34.15625-9.199219 67.230469-6.570313 95.640625 7.597656 17.933594 8.945312 39.34375 8.945312 57.273438 0 28.414062-14.167969 61.488281-16.792969 95.644531-7.597656 36.28125 9.769531 63.898438 30.070312 79.863281 58.703125 17.050781 30.589843 19.386719 69.109375 6.746094 111.394531-26.65625 89.171875-115.667969 181.566406-186.230469 162.566406-8.046875-2.167968-15.761718-5.808594-22.9375-10.828125-1.035156-.71875-2.40625-.71875-3.4375 0-7.179687 5.019531-14.894531 8.660157-22.941406 10.828125-53.40625 14.378906-114.621094-35.015625-151.601562-90.351562-.921876-1.378906-2.785157-1.753906-4.164063-.828125-1.375.917969-1.746094 2.78125-.828125 4.160156 38.171875 57.117187 101.878906 107.960937 158.152344 92.8125 8.074218-2.171875 15.835937-5.714844 23.097656-10.53125 7.257812 4.816406 15.019531 8.359375 23.097656 10.53125 6.757813 1.820313 13.746094 2.71875 20.917969 2.71875 29.460937 0 61.945313-15.1875 93.542969-44.152344 35.921875-32.921875 65.480468-79.726562 79.078125-125.207031 13.117187-43.875 10.609375-84-7.253907-116.039062zm0 0" fill="#3a312a"/><path d="m336.6875 11.738281c-12.894531-12.894531-38.167969-9.253906-60.648438 7.273438l-21.816406 21.851562c-16.429687 22.445313-20.019531 47.632813-7.15625 60.496094 15.1875 15.191406 47.566406 7.441406 72.316406-17.304687 24.746094-24.75 32.496094-57.128907 17.304688-72.316407zm0 0" fill="#d7e057"/><path d="m338.808594 9.617188c-13.734375-13.734376-40.277344-10.867188-64.550782 6.976562-1.335937.984375-1.621093 2.863281-.636718 4.195312.980468 1.335938 2.859375 1.621094 4.191406.640626 21.828125-16.042969 45.164062-19.160157 56.753906-7.570313 13.996094 13.996094 6.230469 44.535156-17.308594 68.074219-11.582031 11.582031-25.191406 19.691406-38.316406 22.832031-12.605468 3.015625-23.175781 1.054687-29.757812-5.527344-11.546875-11.550781-8.480469-34.828125 7.460937-56.601562.976563-1.335938.6875-3.214844-.648437-4.195313-1.339844-.976562-3.214844-.691406-4.195313.648438-17.730469 24.21875-20.550781 50.699218-6.855469 64.390625 5.722657 5.722656 13.667969 8.667969 23.015626 8.667969 3.902343 0 8.042968-.511719 12.375-1.550782 14.191406-3.394531 28.808593-12.070312 41.164062-24.425781 25.878906-25.875 33.644531-60.21875 17.308594-76.554687zm0 0" fill="#3a312a"/><path d="m430.808594 170.789062c-15.980469-28.621093-43.578125-48.921874-79.878906-58.703124-18.679688-5.039063-37.019532-6.519532-54.480469-4.519532 7.859375.859375 15.800781 2.359375 23.820312 4.519532 36.28125 9.78125 63.898438 30.082031 79.859375 58.703124 17.0625 30.597657 19.402344 69.117188 6.742188 111.398438-22.382813 74.878906-88.722656 152.019531-151.222656 163.578125 69.839843 14.222656 155.78125-76.238281 181.902343-163.578125 12.640625-42.28125 10.296875-80.800781-6.742187-111.398438zm0 0" fill="#d34e5c"/></svg>