<svg height="452pt" viewBox="0 0 452.15118 452" width="452pt" xmlns="http://www.w3.org/2000/svg"><path d="m64.820312 22.429688c-1.949218 23.125-26.050781 26.777343-26.050781 26.777343 20.695313.972657 25.851563 28.117188 25.851563 28.117188.441406-19.355469 26.640625-28.402344 26.640625-28.402344-19.625-1.175781-26.441407-26.492187-26.441407-26.492187zm0 0" fill="#d7e057"/><path d="m91.445312 45.925781c-17.210937-1.03125-23.664062-24.050781-23.730468-24.28125-.378906-1.402343-1.710938-2.320312-3.167969-2.203125-1.449219.132813-2.59375 1.28125-2.714844 2.734375-1.722656 20.429688-22.625 23.925781-23.507812 24.066407-1.527344.226562-2.628907 1.578124-2.546875 3.121093.078125 1.539063 1.3125 2.765625 2.855468 2.839844 18.054688.851563 22.996094 25.4375 23.042969 25.683594.273438 1.421875 1.519531 2.4375 2.945313 2.4375.082031 0 .167968-.003907.25-.011719 1.53125-.128906 2.71875-1.386719 2.75-2.917969.386718-17.015625 24.382812-25.554687 24.625-25.636719 1.351562-.472656 2.183594-1.828124 1.988281-3.246093s-1.363281-2.5-2.789063-2.585938zm-27.136718 20.691407c-2.710938-6.261719-7.414063-13.816407-15.171875-17.753907 5.863281-2.808593 12.816406-7.824219 16.402343-16.542969 3.101563 6.140626 8.398438 13.757813 16.667969 17.445313-6.011719 3.277344-13.84375 8.808594-17.898437 16.851563zm0 0" fill="#3a312a"/><path d="m21.421875 56.386719c-1.378906 16.363281-18.421875 18.945312-18.421875 18.945312 14.632812.6875 18.28125 19.886719 18.28125 19.886719.3125-13.6875 18.84375-20.089844 18.84375-20.089844-13.878906-.832031-18.703125-18.742187-18.703125-18.742187zm0 0" fill="#d7e057"/><path d="m40.304688 72.132812c-11.53125-.691406-15.945313-16.371093-15.988282-16.53125-.378906-1.402343-1.726562-2.324218-3.164062-2.203124-1.449219.128906-2.597656 1.285156-2.71875 2.734374-1.15625 13.742188-15.292969 16.136719-15.882813 16.230469-1.527343.230469-2.628906 1.578125-2.54687475 3.121094.08203125 1.539063 1.31249975 2.769531 2.85546875 2.84375 12.070313.566406 15.445313 17.285156 15.476563 17.449219.273437 1.425781 1.519531 2.441406 2.945312 2.441406.082031 0 .167969-.003906.25-.011719 1.53125-.125 2.71875-1.386719 2.753906-2.921875.257813-11.417968 16.664063-17.265625 16.824219-17.324218 1.351563-.464844 2.1875-1.824219 1.992187-3.242188-.199218-1.417969-1.367187-2.5-2.796874-2.585938zm-19.167969 13.589844c-1.847657-3.769531-4.679688-7.894531-8.894531-10.558594 3.710937-2.082031 7.394531-5.257812 9.738281-9.832031 2.117187 3.746094 5.308593 7.910157 9.882812 10.445313-3.695312 2.203125-7.976562 5.480468-10.726562 9.945312zm0 0" fill="#3a312a"/><path d="m21.421875 3.074219c-1.378906 16.359375-18.421875 18.941406-18.421875 18.941406 14.632812.6875 18.28125 19.890625 18.28125 19.890625.3125-13.691406 18.84375-20.09375 18.84375-20.09375-13.878906-.832031-18.703125-18.738281-18.703125-18.738281zm0 0" fill="#d7e057"/><path d="m40.304688 18.820312c-11.53125-.691406-15.945313-16.375-15.988282-16.53125-.378906-1.40625-1.726562-2.3242182-3.164062-2.2031245-1.449219.1289065-2.597656 1.2851565-2.71875 2.7382815-1.15625 13.738281-15.292969 16.132812-15.882813 16.226562-1.527343.230469-2.628906 1.578125-2.54687475 3.121094.08203125 1.539063 1.31249975 2.769531 2.85546875 2.84375 12.070313.566406 15.445313 17.285156 15.476563 17.449219.273437 1.425781 1.519531 2.441406 2.945312 2.441406.082031 0 .167969 0 .25-.011719 1.53125-.125 2.71875-1.386719 2.753906-2.921875.257813-11.417968 16.664063-17.265625 16.824219-17.320312 1.351563-.46875 2.1875-1.828125 1.992187-3.246094-.199218-1.417969-1.367187-2.5-2.796874-2.585938zm-19.167969 13.589844c-1.847657-3.773437-4.679688-7.894531-8.894531-10.5625 3.710937-2.082031 7.394531-5.257812 9.738281-9.832031 2.117187 3.75 5.3125 7.910156 9.882812 10.449219-3.695312 2.199218-7.976562 5.480468-10.726562 9.945312zm0 0" fill="#3a312a"/><path d="m405.214844 252.460938c0 98.828124-80.117188 178.945312-178.945313 178.945312s-178.941406-80.117188-178.941406-178.945312c0-98.828126 80.113281-178.945313 178.941406-178.945313s178.945313 80.117187 178.945313 178.945313zm0 0" fill="#fce8cb"/><path d="m226.273438 70.519531c-100.324219 0-181.945313 81.617188-181.945313 181.941407 0 100.324218 81.621094 181.945312 181.945313 181.945312 100.324218 0 181.941406-81.621094 181.941406-181.945312 0-100.324219-81.617188-181.941407-181.941406-181.941407zm0 357.886719c-97.015626 0-175.945313-78.929688-175.945313-175.945312 0-97.015626 78.929687-175.945313 175.945313-175.945313 97.015624 0 175.941406 78.929687 175.941406 175.945313 0 97.015624-78.929688 175.945312-175.941406 175.945312zm0 0" fill="#3a312a"/><path d="m3.390625 249.355469c2.101563 20.617187 7.421875 40.359375 15.542969 58.777343 10.238281 23.363282 24.9375 44.601563 43.117187 62.800782 40.882813 41 99.320313 66.640625 164.222657 66.640625 64.898437 0 123.339843-25.640625 164.21875-66.640625 18.179687-18.199219 32.878906-39.4375 43.121093-62.800782 8.117188-18.417968 13.4375-38.160156 15.539063-58.777343zm0 0" fill="#8ac6dd"/><path d="m451.375 247.34375c-.566406-.632812-1.375-.992188-2.226562-.992188h-331.796876c-1.65625 0-3 1.34375-3 3 0 1.660157 1.34375 3 3 3h328.449219c-2.246093 18.832032-7.265625 37.171876-14.9375 54.578126-10.027343 22.871093-24.324219 43.691406-42.496093 61.882812-41.667969 41.792969-100.75 65.761719-162.09375 65.761719-61.347657 0-120.429688-23.96875-162.097657-65.761719-18.171875-18.191406-32.46875-39.011719-42.5-61.890625-7.664062-17.390625-12.683593-35.734375-14.933593-54.570313h80.453124c1.65625 0 3-1.34375 3-3 0-1.660156-1.34375-3-3-3h-83.804687c-.847656 0-1.660156.359376-2.226563.988282-.566406.628906-.84375 1.46875-.757812 2.316406 2.101562 20.621094 7.410156 40.703125 15.777344 59.679688 10.328125 23.558593 25.042968 44.996093 43.742187 63.714843 42.785157 42.910157 103.417969 67.523438 166.347657 67.523438 62.925781 0 123.558593-24.613281 166.34375-67.523438 18.699218-18.71875 33.414062-40.15625 43.742187-63.707031 8.367187-18.992188 13.675781-39.074219 15.777344-59.6875.082031-.84375-.191407-1.683594-.761719-2.3125zm0 0" fill="#3a312a"/><path d="m18.933594 308.132812c10.238281 23.363282 24.9375 44.601563 43.117187 62.800782h328.441407c18.179687-18.199219 32.878906-39.4375 43.121093-62.800782zm0 0" fill="#f16c7a"/><path d="m436.121094 306.492188c-.554688-.847657-1.496094-1.359376-2.511719-1.359376h-74.371094c-1.65625 0-3 1.34375-3 3 0 1.660157 1.34375 3 3 3h69.71875c-9.730469 20.859376-23.074219 39.949219-39.714843 56.800782h-325.945313c-16.636719-16.851563-29.984375-35.941406-39.714844-56.800782h305.71875c1.65625 0 3-1.339843 3-3 0-1.65625-1.34375-3-3-3h-310.367187c-1.015625 0-1.960938.511719-2.511719 1.359376-.554687.847656-.644531 1.921874-.238281 2.847656 10.328125 23.554687 25.042968 44.996094 43.746094 63.714844.5625.5625 1.324218.878906 2.121093.878906h328.445313c.792968 0 1.558594-.316406 2.121094-.878906 18.699218-18.71875 33.414062-40.160157 43.742187-63.714844.40625-.925782.316406-1.996094-.238281-2.847656zm0 0" fill="#3a312a"/><path d="m416.609375 252.355469c-2.179687 18.199219-6.960937 35.917969-14.179687 52.777343h29.179687c7.242187-16.859374 12.019531-34.578124 14.179687-52.777343zm0 0" fill="#68a8bc"/><path d="m353.871094 373.933594c-23.28125 21.761718-51.441406 38.261718-82.121094 48.5h29.179688c30.679687-10.238282 58.859374-26.738282 82.121093-48.5zm0 0" fill="#68a8bc"/><path d="m399.769531 311.132812c-9.738281 20.863282-23.078125 39.941407-39.71875 56.800782h29.199219c16.640625-16.859375 29.980469-35.9375 39.699219-56.800782zm0 0" fill="#d34e5c"/><path d="m150.921875 425.433594h150.699219v23.460937h-150.699219zm0 0" fill="#8ac6dd"/><path d="m301.621094 422.433594h-150.699219c-1.65625 0-3 1.34375-3 3v23.460937c0 1.65625 1.34375 3 3 3h150.699219c1.65625 0 3-1.34375 3-3v-23.460937c0-1.65625-1.34375-3-3-3zm-3 23.460937h-144.699219v-17.460937h144.699219zm0 0" fill="#3a312a"/><path d="m226.269531 76.515625c-5.878906 0-11.699219.296875-17.4375.859375 86.878907 8.597656 155.359375 80.621094 158.378907 168.980469h34.878906c-3.21875-94.199219-80.839844-169.839844-175.820313-169.839844zm0 0" fill="#decaad"/></svg>