<svg height="452pt" viewBox="0 -33 452.31322 452" width="452pt" xmlns="http://www.w3.org/2000/svg"><path d="m69.515625 22.511719c-1.949219 23.128906-26.050781 26.78125-26.050781 26.78125 20.691406.972656 25.847656 28.117187 25.847656 28.117187.445312-19.351562 26.644531-28.402344 26.644531-28.402344-19.628906-1.175781-26.441406-26.496093-26.441406-26.496093zm0 0" fill="#d7e057"/><path d="m96.136719 46.011719c-17.207031-1.03125-23.664063-24.050781-23.726563-24.28125-.382812-1.40625-1.722656-2.34375-3.167968-2.203125-1.449219.132812-2.59375 1.285156-2.714844 2.734375-1.722656 20.429687-22.628906 23.925781-23.507813 24.0625-1.527343.234375-2.628906 1.582031-2.546875 3.121093.078125 1.542969 1.3125 2.769532 2.851563 2.84375 18.058593.851563 23 25.4375 23.046875 25.6875.273437 1.421876 1.519531 2.433594 2.945312 2.433594.082032 0 .167969-.003906.25-.007812 1.53125-.128906 2.714844-1.386719 2.75-2.921875.390625-17.019531 24.382813-25.554688 24.625-25.640625 1.351563-.46875 2.183594-1.828125 1.988282-3.242188-.199219-1.421875-1.367188-2.503906-2.792969-2.585937zm-27.132813 20.6875c-2.714844-6.261719-7.414062-13.8125-15.175781-17.75 5.863281-2.808594 12.820313-7.828125 16.40625-16.546875 3.101563 6.140625 8.398437 13.761718 16.667969 17.445312-6.015625 3.277344-13.84375 8.8125-17.898438 16.851563zm0 0" fill="#3a312a"/><path d="m26.117188 56.472656c-1.378907 16.359375-18.425782 18.941406-18.425782 18.941406 14.636719.6875 18.285156 19.886719 18.285156 19.886719.3125-13.6875 18.84375-20.089843 18.84375-20.089843-13.882812-.832032-18.703124-18.738282-18.703124-18.738282zm0 0" fill="#d7e057"/><path d="m44.996094 72.214844c-11.53125-.6875-15.941406-16.371094-15.984375-16.527344-.382813-1.40625-1.703125-2.347656-3.164063-2.203125-1.453125.128906-2.601562 1.285156-2.722656 2.738281-1.15625 13.738282-15.292969 16.128906-15.882812 16.222656-1.527344.234376-2.625 1.582032-2.546876 3.125.082032 1.539063 1.316407 2.769532 2.855469 2.839844 12.070313.570313 15.445313 17.289063 15.476563 17.453125.269531 1.421875 1.519531 2.4375 2.945312 2.4375.082032 0 .164063-.003906.25-.007812 1.53125-.125 2.714844-1.386719 2.75-2.921875.261719-11.417969 16.664063-17.269532 16.828125-17.324219 1.351563-.46875 2.1875-1.824219 1.992188-3.246094-.195313-1.417969-1.363281-2.5-2.796875-2.585937zm-19.167969 13.59375c-1.847656-3.773438-4.679687-7.894532-8.890625-10.558594 3.710938-2.082031 7.390625-5.261719 9.742188-9.835938 2.113281 3.75 5.304687 7.910157 9.878906 10.449219-3.699219 2.199219-7.976563 5.480469-10.730469 9.945313zm0 0" fill="#3a312a"/><path d="m26.117188 3.160156c-1.378907 16.355469-18.425782 18.9375-18.425782 18.9375 14.636719.691406 18.285156 19.890625 18.285156 19.890625.3125-13.691406 18.84375-20.089843 18.84375-20.089843-13.882812-.832032-18.703124-18.738282-18.703124-18.738282zm0 0" fill="#d7e057"/><path d="m44.996094 18.902344c-11.53125-.691406-15.941406-16.371094-15.984375-16.53125-.382813-1.402344-1.703125-2.3320315-3.164063-2.203125-1.453125.132812-2.601562 1.285156-2.722656 2.738281-1.15625 13.738281-15.292969 16.128906-15.882812 16.222656-1.527344.234375-2.625 1.582032-2.546876 3.121094.082032 1.542969 1.316407 2.769531 2.855469 2.84375 12.070313.566406 15.445313 17.289062 15.480469 17.453125.269531 1.425781 1.515625 2.441406 2.941406 2.441406.085938 0 .167969-.003906.25-.011719 1.53125-.125 2.71875-1.386718 2.753906-2.921874.257813-11.417969 16.664063-17.269532 16.824219-17.324219 1.355469-.46875 2.1875-1.824219 1.992188-3.242188-.195313-1.417969-1.363281-2.5-2.796875-2.585937zm-19.167969 13.589844c-1.847656-3.769532-4.679687-7.894532-8.890625-10.558594 3.710938-2.082032 7.390625-5.261719 9.742188-9.832032 2.113281 3.746094 5.304687 7.910157 9.878906 10.445313-3.699219 2.203125-7.976563 5.480469-10.730469 9.945313zm0 0" fill="#3a312a"/><path d="m374.835938 46.53125c-4.4375-6.039062-11.46875-9.039062-18.433594-8.59375 2.511718-6.511719 1.757812-14.117188-2.679688-20.160156-6.917968-9.425782-20.171875-11.457032-29.605468-4.539063-9.425782 6.925781-11.460938 20.183594-4.542969 29.605469.164062.226562.34375.441406.519531.667969l-25.089844 18.410156c5.636719 2.636719 10.34375 6.234375 13.804688 10.953125 3.464844 4.71875 5.484375 10.285156 6.3125 16.453125l7.746094-5.6875 12.914062-9.484375 4.421875-3.246094c.164063.234375.316406.464844.480469.691406 6.917968 9.425782 20.175781 11.457032 29.609375 4.542969 9.425781-6.933593 11.460937-20.1875 4.542969-29.613281zm0 0" fill="#fce8cb"/><path d="m377.253906 44.757812c-4.070312-5.546874-10.191406-9.015624-16.890625-9.726562 1.328125-6.605469-.148437-13.484375-4.222656-19.03125-7.882813-10.742188-23.046875-13.066406-33.800781-5.179688-10.15625 7.460938-12.789063 21.425782-6.382813 32.003907l-22.730469 16.679687c-.851562.621094-1.3125 1.65625-1.207031 2.707032.101563 1.054687.753907 1.976562 1.710938 2.425781 5.375 2.515625 9.632812 5.878906 12.664062 10.011719 3.03125 4.128906 4.96875 9.203124 5.753907 15.078124.140624 1.050782.828124 1.949219 1.800781 2.363282.375.160156.777343.238281 1.175781.238281.628906 0 1.25-.199219 1.773438-.582031l20.65625-15.171875 2.066406-1.515625c8.171875 9.28125 22.28125 10.953125 32.449218 3.5 10.742188-7.898438 13.066407-23.0625 5.183594-33.800782zm-8.730468 28.964844c-8.089844 5.929688-19.492188 4.179688-25.417969-3.898437l-.441407-.636719c-.460937-.660156-1.175781-1.105469-1.96875-1.238281-.796874-.125-1.613281.0625-2.261718.542969l-21.246094 15.601562c-1.203125-4.886719-3.199219-9.242188-5.953125-12.996094-2.753906-3.75-6.3125-6.957031-10.613281-9.574218l21.25-15.59375c.65625-.476563 1.085937-1.199219 1.195312-2 .113282-.804688-.101562-1.617188-.597656-2.257813l-.472656-.601563c-5.925782-8.078124-4.179688-19.476562 3.898437-25.414062 8.085938-5.929688 19.488281-4.183594 25.414063 3.894531 3.683594 5.019531 4.542968 11.484375 2.300781 17.304688-.371094.957031-.226563 2.03125.378906 2.855469.605469.824218 1.597657 1.289062 2.609375 1.21875 6.238282-.398438 12.136719 2.363281 15.820313 7.375 5.925781 8.078124 4.179687 19.476562-3.894531 25.417968zm0 0" fill="#3a312a"/><path d="m308.8125 72.871094c-16.167969-22.027344-59.6875-19.769532-97.246094-8.65625l-28.519531 10.683594c-8.160156 3.78125-15.359375 7.863281-20.996094 12.003906-33.628906 24.6875-40.878906 71.964844-16.191406 105.59375s71.964844 40.878906 105.59375 16.191406c10.851563-7.960938 23.238281-21.429688 34.210937-37.140625l8.773438-13.566406c18.144531-30.4375 28.882812-65.347657 14.375-85.109375zm0 0" fill="#87796f"/><path d="m311.230469 71.097656c-17.5625-23.929687-63.4375-20.730468-100.511719-9.757812-1.589844.472656-2.496094 2.140625-2.027344 3.730468.46875 1.585938 2.136719 2.492188 3.730469 2.023438 33.511719-9.917969 78.230469-13.890625 93.972656 7.554688 11.828125 16.109374 6.394531 46.6875-14.476562 81.707031l-8.710938 13.476562c-10.777343 15.429688-23 28.707031-33.527343 36.441407-15.621094 11.464843-34.769532 16.171874-53.921876 13.226562-19.152343-2.9375-36.015624-13.15625-47.480468-28.777344-11.46875-15.621094-16.164063-34.769531-13.230469-53.921875 2.9375-19.152343 13.15625-36.015625 28.777344-47.480469 5.410156-3.96875 12.300781-7.90625 20.484375-11.703124 1.503906-.695313 2.15625-2.480469 1.460937-3.984376-.699219-1.503906-2.484375-2.152343-3.984375-1.457031-8.542968 3.960938-15.78125 8.101563-21.511718 12.308594-16.910157 12.414063-27.976563 30.671875-31.15625 51.410156-3.179688 20.734375 1.910156 41.464844 14.324218 58.378907 12.414063 16.910156 30.671875 27.976562 51.40625 31.15625 4.035156.617187 8.066406.921874 12.070313.921874 16.585937 0 32.691406-5.246093 46.3125-15.246093 11.035156-8.101563 23.753906-21.894531 34.953125-37.929688l8.828125-13.660156c32.007812-53.6875 20.609375-79.722656 14.21875-88.417969zm0 0" fill="#3a312a"/><path d="m225.882812 103.472656c-100.222656 0-181.480468 64.546875-181.480468 144.148438 0 14.605468 2.738281 28.710937 7.839844 41.992187h347.28125c5.097656-13.28125 7.839843-27.386719 7.839843-41.992187 0-79.601563-81.261719-144.148438-181.480469-144.148438zm0 0" fill="#87796f"/><path d="m225.882812 100.472656c-101.722656 0-184.480468 66.011719-184.480468 147.148438 0 14.6875 2.707031 29.175781 8.039062 43.070312.445313 1.15625 1.558594 1.921875 2.800782 1.921875h347.28125c1.242187 0 2.355468-.765625 2.796874-1.921875 5.335938-13.890625 8.042969-28.378906 8.042969-43.070312 0-81.136719-82.757812-147.148438-184.480469-147.148438zm171.558594 186.140625h-343.117187c-4.59375-12.613281-6.921875-25.71875-6.921875-38.992187 0-77.832032 80.066406-141.148438 178.480468-141.148438 98.414063 0 178.480469 63.316406 178.480469 141.148438 0 13.273437-2.328125 26.382812-6.921875 38.992187zm0 0" fill="#3a312a"/><path d="m3.003906 289.609375c0 38.875 31.511719 70.382813 70.382813 70.382813h304.992187c38.875 0 70.386719-31.511719 70.386719-70.382813zm0 0" fill="#fce8cb"/><path d="m448.761719 286.609375h-445.761719c-1.65625 0-3 1.34375-3 3 0 40.464844 32.921875 73.382813 73.382812 73.382813h9.0625c1.660157 0 3-1.34375 3-3s-1.339843-3-3-3h-9.0625c-36.152343 0-65.742187-28.613282-67.316406-64.382813h439.628906c-1.574218 35.769531-31.167968 64.382813-67.320312 64.382813h-266.0625c-1.65625 0-3 1.34375-3 3s1.34375 3 3 3h266.066406c40.464844 0 73.382813-32.917969 73.382813-73.382813 0-1.65625-1.34375-3-3-3zm0 0" fill="#3a312a"/><path d="m131.492188 359.996094h188.777343v23.457031h-188.777343zm0 0" fill="#fce8cb"/><path d="m320.269531 356.996094h-188.777343c-1.65625 0-3 1.34375-3 3v23.457031c0 1.65625 1.34375 3 3 3h188.777343c1.65625 0 3-1.34375 3-3v-23.457031c0-1.65625-1.34375-3-3-3zm-3 23.457031h-182.777343v-17.457031h182.777343zm0 0" fill="#3a312a"/><path d="m416.800781 292.613281c-1.578125 35.761719-31.160156 64.382813-67.320312 64.382813h28.902343c36.140626 0 65.738282-28.621094 67.320313-64.382813zm0 0" fill="#decaad"/><path d="m445.21875 100.773438c-4.4375-6.042969-11.46875-9.042969-18.429688-8.597657 2.507813-6.507812 1.753907-14.117187-2.679687-20.160156-6.917969-9.421875-20.175781-11.453125-29.609375-4.539063-9.425781 6.929688-11.457031 20.183594-4.539062 29.609376.164062.222656.339843.4375.515624.667968l-25.089843 18.40625c5.640625 2.636719 10.34375 6.238282 13.808593 10.953125 3.460938 4.71875 5.484376 10.285157 6.3125 16.457031l7.746094-5.691406 12.910156-9.480468 4.421876-3.25c.164062.234374.316406.46875.480468.691406 6.917969 9.425781 20.175782 11.457031 29.609375 4.539062 9.429688-6.925781 11.460938-20.183594 4.542969-29.605468zm0 0" fill="#fce8cb"/><path d="m447.636719 98.996094c-4.070313-5.542969-10.1875-9.015625-16.890625-9.726563 1.328125-6.605469-.148438-13.484375-4.21875-19.027343-7.882813-10.742188-23.046875-13.0625-33.804688-5.183594-10.15625 7.464844-12.789062 21.425781-6.378906 32.007812l-22.730469 16.675782c-.851562.625-1.3125 1.65625-1.210937 2.710937.105468 1.054687.753906 1.972656 1.714844 2.421875 5.367187 2.515625 9.628906 5.882812 12.664062 10.015625 3.03125 4.125 4.964844 9.203125 5.753906 15.074219.140625 1.050781.828125 1.949218 1.800782 2.363281.378906.164063.777343.242187 1.175781.242187.625 0 1.25-.199218 1.773437-.582031l22.722656-16.691406c8.171876 9.285156 22.28125 10.953125 32.449219 3.5 10.742188-7.894531 13.066407-23.058594 5.179688-33.800781zm-8.734375 28.964844c-8.085938 5.929687-19.484375 4.179687-25.414063-3.894532l-.4375-.628906c-.460937-.664062-1.171875-1.113281-1.96875-1.246094-.800781-.132812-1.617187.058594-2.269531.542969l-4.421875 3.246094-16.820313 12.355469c-1.203124-4.886719-3.199218-9.242188-5.953124-12.996094-2.753907-3.75-6.3125-6.960938-10.613282-9.574219l21.25-15.59375c.648438-.476563 1.082032-1.195313 1.195313-1.996094s-.101563-1.613281-.597657-2.253906l-.472656-.609375c-5.929687-8.078125-4.179687-19.476562 3.894532-25.414062 8.089843-5.929688 19.488281-4.183594 25.417968 3.894531 3.679688 5.019531 4.539063 11.484375 2.296875 17.304687-.367187.953125-.222656 2.03125.382813 2.855469.601562.824219 1.582031 1.277344 2.605468 1.21875 6.21875-.417969 12.140626 2.359375 15.824219 7.375 5.925781 8.074219 4.179688 19.476563-3.898437 25.414063zm0 0" fill="#3a312a"/><path d="m379.199219 127.109375c-24.6875-33.628906-113.136719-10.65625-146.765625 14.035156-33.628906 24.6875-40.878906 71.964844-16.191406 105.59375 24.691406 33.628907 71.96875 40.878907 105.597656 16.191407 10.851562-7.964844 23.234375-21.429688 34.210937-37.140626l8.769531-13.566406c18.144532-30.441406 28.886719-65.347656 14.378907-85.113281zm0 0" fill="#87796f"/><path d="m381.617188 125.335938c-15.757813-21.460938-52.449219-19.265626-72.914063-16.042969-28.894531 4.546875-60.257813 16.375-78.046875 29.433593-16.910156 12.414063-27.972656 30.671876-31.152344 51.40625-3.183594 20.738282 1.902344 41.472657 14.320313 58.382813 12.414062 16.910156 30.671875 27.976563 51.40625 31.15625 4.035156.617187 8.066406.921875 12.070312.921875 16.585938 0 32.691407-5.246094 46.3125-15.246094 11.039063-8.101562 23.757813-21.894531 34.957031-37.925781l8.769532-13.570313c.019531-.03125.039062-.0625.058594-.09375 32.003906-53.6875 20.605468-79.722656 14.21875-88.421874zm-19.34375 85.304687-8.679688 13.433594c-10.78125 15.425781-23 28.707031-33.53125 36.4375-15.617188 11.46875-34.765625 16.171875-53.921875 13.226562-19.152344-2.9375-36.011719-13.15625-47.480469-28.777343-11.464844-15.617188-16.164062-34.765626-13.226562-53.917969 2.9375-19.152344 13.15625-36.015625 28.777344-47.480469 17.082031-12.542969 47.394531-23.933594 75.425781-28.339844 9.125-1.4375 17.074219-2.050781 24.003906-2.050781 26.90625 0 38.402344 9.265625 43.140625 15.714844 11.820312 16.105469 6.398438 46.660156-14.507812 81.753906zm0 0" fill="#3a312a"/><g fill="#695b51"><path d="m306.402344 74.65625c-8.179688-11.140625-24.339844-15.5625-43.28125-15.5625-11.917969 0-24.9375 1.761719-37.757813 4.699219 8.097657-1.257813 16.078125-1.957031 23.617188-1.957031 18.921875 0 35.101562 4.4375 43.261719 15.558593 5.960937 8.101563 7.519531 19.898438 4.941406 34.082031 3.859375-.84375 7.699218-1.582031 11.519531-2.183593.839844-.136719 1.71875-.257813 2.597656-.378907 2.621094-14.257812 1.082031-26.121093-4.898437-34.257812zm0 0"/><path d="m383.160156 180.976562c-2.078125 5.921876-4.816406 12.378907-8.359375 19.378907v.019531c6.679688 14.78125 10.300781 30.683594 10.300781 47.242188 0 13.28125-2.320312 26.378906-6.917968 39h19.257812c4.601563-12.621094 6.921875-25.71875 6.921875-39 0-24.082032-7.679687-46.78125-21.203125-66.640626zm0 0"/><path d="m376.78125 128.894531c-8.179688-11.140625-24.339844-15.558593-43.257812-15.558593-3.28125 0-6.640626.140624-10.082032.398437 14.902344 1.261719 27.261719 5.878906 34.082032 15.160156 11.820312 16.101563 6.398437 46.660157-14.519532 81.738281l-8.660156 13.441407c-10.800781 15.421875-23.023438 28.699219-33.542969 36.441406-9.917969 7.277344-21.257812 11.839844-33.117187 13.417969 18.636718 2.480468 37.179687-2.257813 52.378906-13.417969 10.519531-7.742187 22.738281-21.019531 33.539062-36.441406l8.660157-13.441407c20.921875-35.078124 26.339843-65.636718 14.519531-81.738281zm0 0"/></g></svg>