<svg height="451pt" viewBox="-29 0 451 451.762" width="451pt" xmlns="http://www.w3.org/2000/svg"><path d="m338.679688 170.023438h-39.21875v36.9375h39.21875c8.660156 0 15.699218 7.0625 15.699218 15.722656v146.160156c0 8.679688-7.039062 15.71875-15.699218 15.71875h-39.21875v30.320312c0 2.277344-.222657 4.480469-.640626 6.640626h39.859376c29.039062 0 52.660156-23.640626 52.660156-52.679688v-146.160156c0-29.042969-23.621094-52.660156-52.660156-52.660156zm0 0" fill="#d7e057"/><path d="m338.679688 167.019531h-39.21875c-1.660157 0-3 1.34375-3 3v36.941407c0 1.65625 1.339843 3 3 3h39.21875c7 0 12.699218 5.707031 12.699218 12.71875v146.160156c0 7.015625-5.699218 12.71875-12.699218 12.71875h-39.21875c-1.660157 0-3 1.34375-3 3v30.320312c0 2.0625-.195313 4.046875-.585938 6.066406-.171875.878907.058594 1.789063.628906 2.480469.570313.691407 1.417969 1.09375 2.316406 1.09375h39.859376c30.691406 0 55.660156-24.980469 55.660156-55.679687v-146.160156c0-30.691407-24.96875-55.660157-55.660156-55.660157zm49.660156 201.824219c0 27.390625-22.277344 49.679688-49.660156 49.679688h-36.398438c.121094-1.210938.179688-2.425782.179688-3.640626v-27.320312h36.21875c10.308593 0 18.699218-8.398438 18.699218-18.71875v-146.160156c0-10.320313-8.386718-18.71875-18.699218-18.71875h-36.21875v-30.941406h36.21875c27.382812 0 49.660156 22.277343 49.660156 49.660156zm0 0" fill="#3a312a"/><path d="m39.421875 142.773438v272.117187c0 18.710937 15.164063 33.875 33.871094 33.875h192.300781c18.707031 0 33.875-15.167969 33.875-33.875v-272.117187zm0 0" fill="#d7e057"/><path d="m299.464844 139.773438h-260.042969c-1.660156 0-3 1.34375-3 3v202.855468c0 1.65625 1.339844 3 3 3 1.65625 0 3-1.34375 3-3v-199.855468h254.042969v269.117187c0 17.023437-13.851563 30.871094-30.871094 30.871094h-192.300781c-17.023438 0-30.871094-13.851563-30.871094-30.871094v-38.089844c0-1.65625-1.34375-3-3-3-1.660156 0-3 1.34375-3 3v38.089844c0 20.332031 16.542969 36.871094 36.871094 36.871094h192.300781c20.328125 0 36.871094-16.539063 36.871094-36.871094v-272.117187c0-1.65625-1.34375-3-3-3zm0 0" fill="#3a312a"/><path d="m104.03125 191.746094c-9.648438 0-17.472656 7.824218-17.472656 17.476562v173.089844c0 9.652344 7.824218 17.476562 17.472656 17.476562 9.652344 0 17.476562-7.824218 17.476562-17.476562v-173.089844c0-9.652344-7.824218-17.476562-17.476562-17.476562zm0 0" fill="#87796f"/><path d="m104.03125 188.75c-11.289062 0-20.472656 9.1875-20.472656 20.472656v173.089844c0 11.289062 9.183594 20.472656 20.472656 20.472656 11.292969 0 20.476562-9.183594 20.476562-20.472656v-173.089844c0-11.289062-9.183593-20.472656-20.476562-20.472656zm14.476562 193.5625c0 7.980469-6.492187 14.472656-14.476562 14.472656-7.980469 0-14.472656-6.492187-14.472656-14.472656v-173.089844c0-7.980468 6.492187-14.472656 14.472656-14.472656 7.984375 0 14.476562 6.492188 14.476562 14.472656zm0 0" fill="#3a312a"/><path d="m169.441406 191.746094c-9.652344 0-17.472656 7.824218-17.472656 17.476562v173.089844c0 9.652344 7.820312 17.476562 17.472656 17.476562s17.476563-7.824218 17.476563-17.476562v-173.089844c0-9.652344-7.824219-17.476562-17.476563-17.476562zm0 0" fill="#87796f"/><path d="m169.441406 188.75c-11.289062 0-20.472656 9.1875-20.472656 20.472656v173.089844c0 11.289062 9.183594 20.472656 20.472656 20.472656 11.292969 0 20.476563-9.183594 20.476563-20.472656v-173.089844c0-11.289062-9.183594-20.472656-20.476563-20.472656zm14.476563 193.5625c0 7.980469-6.492188 14.472656-14.476563 14.472656-7.980468 0-14.472656-6.492187-14.472656-14.472656v-173.089844c0-7.980468 6.492188-14.472656 14.472656-14.472656 7.984375 0 14.476563 6.492188 14.476563 14.472656zm0 0" fill="#3a312a"/><path d="m234.851562 191.75c-9.652343 0-17.476562 7.824219-17.476562 17.476562v18.375h.003906v31.230469h-.003906v123.480469c0 9.652344 7.824219 17.476562 17.476562 17.476562 9.652344 0 17.476563-7.824218 17.476563-17.476562v-173.085938c0-9.65625-7.824219-17.476562-17.476563-17.476562zm0 0" fill="#87796f"/><path d="m234.851562 188.75c-11.289062 0-20.472656 9.1875-20.472656 20.472656v18.378906c0 1.65625 1.339844 3 3 3 1.65625 0 3-1.34375 3-3v-18.378906c0-7.980468 6.492188-14.472656 14.472656-14.472656 7.984376 0 14.476563 6.492188 14.476563 14.472656v173.089844c0 7.980469-6.492187 14.472656-14.476563 14.472656-7.980468 0-14.472656-6.492187-14.472656-14.472656v-123.480469h-6v123.480469c0 11.289062 9.183594 20.472656 20.472656 20.472656 11.292969 0 20.476563-9.183594 20.476563-20.472656v-173.089844c0-11.289062-9.183594-20.472656-20.476563-20.472656zm0 0" fill="#3a312a"/><path d="m302.550781 43.277344c-5.773437 0-11.316406.953125-16.507812 2.683594-14.707031-21.890626-39.695313-36.296876-68.046875-36.296876-25.03125 0-47.429688 11.242188-62.457032 28.9375-6.925781-20.6875-26.445312-35.597656-49.464843-35.597656-28.808594 0-52.164063 23.351563-52.164063 52.160156v.042969c-28.050781.859375-50.53125 23.855469-50.53125 52.117188 0 28.8125 23.355469 52.164062 52.160156 52.164062 11.199219 0 21.5625-3.539062 30.0625-9.542969 13.78125 15.46875 34.777344 23.992188 56.832032 20.898438 10.898437-1.527344 20.769531-5.714844 29.054687-11.808594 13.214844 9.128906 29.230469 14.488282 46.507813 14.488282 25.675781 0 48.582031-11.820313 63.605468-30.304688 6.410157 2.816406 13.492188 4.390625 20.945313 4.390625 28.808594 0 52.164063-23.355469 52.164063-52.164063.003906-28.8125-23.351563-52.167968-52.160157-52.167968zm0 0" fill="#fce8cb"/><path d="m302.550781 40.277344c-5.1875 0-10.320312.726562-15.292969 2.164062-15.949218-22.449218-41.671874-35.777344-69.261718-35.777344-23.296875 0-45.410156 9.527344-61.417969 26.300782-8.734375-19.90625-28.441406-32.964844-50.5-32.964844-29.464844 0-53.609375 23.222656-55.089844 52.363281-28.601562 2.308594-50.605469 25.925781-50.605469 54.964844 0 30.414063 24.746094 55.160156 55.160157 55.160156 10.570312 0 20.75-2.96875 29.605469-8.621093 14.933593 15.511718 36.3125 22.953124 57.703124 19.945312 10.292969-1.441406 20.167969-5.277344 28.6875-11.128906 13.832032 9.058594 29.847657 13.839844 46.457032 13.839844 24.933594 0 48.3125-10.792969 64.496094-29.6875 6.398437 2.503906 13.136718 3.773437 20.058593 3.773437 30.417969 0 55.164063-24.746094 55.164063-55.164063 0-30.421874-24.746094-55.167968-55.164063-55.167968zm0 104.328125c-6.851562 0-13.492187-1.394531-19.742187-4.136719-1.234375-.542969-2.679688-.195312-3.535156.851562-15.078126 18.558594-37.410157 29.203126-61.277344 29.203126-16.089844 0-31.582032-4.828126-44.800782-13.957032-.511718-.355468-1.109374-.53125-1.703124-.53125-.625 0-1.25.195313-1.777344.582032-8.105469 5.957031-17.683594 9.847656-27.699219 11.253906-20.28125 2.84375-40.527344-4.605469-54.175781-19.921875-1.015625-1.140625-2.726563-1.335938-3.972656-.457031-8.324219 5.882812-18.121094 8.996093-28.328126 8.996093-27.109374 0-49.160156-22.054687-49.160156-49.164062 0-26.722657 20.917969-48.300781 47.625-49.121094 1.617188-.050781 2.90625-1.417969 2.90625-3.039063 0-27.109374 22.054688-49.164062 49.164063-49.164062 21.164062 0 39.902343 13.484375 46.617187 33.554688.34375 1.023437 1.214844 1.789062 2.277344 1.992187 1.070312.214844 2.15625-.179687 2.855469-1.003906 15.046875-17.71875 36.980469-27.882813 60.171875-27.882813 26.335937 0 50.839844 13.074219 65.554687 34.96875.753907 1.121094 2.160157 1.597656 3.441407 1.171875 5.027343-1.675781 10.261718-2.527343 15.558593-2.527343 27.105469 0 49.164063 22.054687 49.164063 49.164062 0 27.113281-22.058594 49.167969-49.164063 49.167969zm0 0" fill="#3a312a"/><path d="m282.5 146.84375c-6.539062 7.617188-14.261719 13.917969-22.761719 18.71875v249.320312c0 17.039063-13.859375 30.878907-30.878906 30.878907h36.738281c17.019532 0 30.863282-13.839844 30.863282-30.878907v-264.621093c-4.78125-.519531-9.460938-1.660157-13.960938-3.417969zm0 0" fill="#b9c239"/><path d="m302.539062 46.28125c-5.28125 0-10.519531.839844-15.539062 2.519531-1.28125.421875-2.699219-.039062-3.441406-1.160156-14.71875-21.898437-39.21875-34.980469-65.558594-34.980469-6.261719 0-12.402344.742188-18.359375 2.183594 19.058594 4.539062 35.957031 16.117188 47.179687 32.796875.757813 1.121094 2.160157 1.582031 3.4375 1.160156 5.019532-1.679687 10.261719-2.519531 15.5625-2.519531 27.097657 0 49.160157 22.0625 49.160157 49.160156 0 20.621094-12.78125 38.320313-30.820313 45.582032 5.859375 2.398437 12.039063 3.578124 18.378906 3.578124 27.121094 0 49.179688-22.058593 49.179688-49.160156 0-27.097656-22.058594-49.160156-49.179688-49.160156zm0 0" fill="#decaad"/></svg>