<svg height="451pt" viewBox="0 0 451 451.626" width="451pt" xmlns="http://www.w3.org/2000/svg"><path d="m157.871094 147.769531c-1.945313 23.128907-26.046875 26.777344-26.046875 26.777344 20.695312.976563 25.851562 28.117187 25.851562 28.117187.441407-19.351562 26.640625-28.402343 26.640625-28.402343-19.628906-1.171875-26.445312-26.492188-26.445312-26.492188zm0 0" fill="#d7e057"/><path d="m184.496094 171.269531c-17.210938-1.03125-23.664063-24.050781-23.730469-24.285156-.378906-1.402344-1.703125-2.324219-3.164063-2.203125-1.453124.132812-2.597656 1.285156-2.71875 2.734375-1.71875 20.433594-22.625 23.929687-23.507812 24.0625-1.527344.234375-2.625 1.582031-2.546875 3.121094.082031 1.542969 1.3125 2.769531 2.855469 2.84375 18.054687.851562 22.996094 25.4375 23.042968 25.683593.273438 1.425782 1.519532 2.4375 2.945313 2.4375.082031 0 .167969-.003906.25-.011718 1.527344-.125 2.714844-1.382813 2.75-2.917969.390625-17.019531 24.382813-25.554687 24.625-25.636719 1.351563-.46875 2.183594-1.828125 1.988281-3.246094-.195312-1.414062-1.363281-2.496093-2.789062-2.582031zm-27.132813 20.691407c-2.714843-6.261719-7.417969-13.816407-15.175781-17.753907 5.863281-2.808593 12.820312-7.828125 16.40625-16.550781 3.101562 6.144531 8.398438 13.765625 16.664062 17.449219-6.011718 3.28125-13.839843 8.8125-17.894531 16.855469zm0 0" fill="#3a312a"/><path d="m114.472656 181.730469c-1.375 16.359375-18.421875 18.945312-18.421875 18.945312 14.636719.6875 18.285157 19.886719 18.285157 19.886719.308593-13.6875 18.84375-20.089844 18.84375-20.089844-13.882813-.832031-18.707032-18.742187-18.707032-18.742187zm0 0" fill="#d7e057"/><path d="m133.355469 197.476562c-11.53125-.691406-15.941407-16.371093-15.984375-16.53125-.378906-1.402343-1.710938-2.328124-3.164063-2.203124-1.453125.132812-2.597656 1.285156-2.722656 2.734374-1.15625 13.742188-15.289063 16.132813-15.882813 16.226563-1.523437.230469-2.625 1.582031-2.546874 3.121094.082031 1.542969 1.316406 2.769531 2.855468 2.839843 12.070313.570313 15.449219 17.292969 15.476563 17.457032.273437 1.425781 1.519531 2.4375 2.945312 2.4375.085938 0 .167969-.003906.25-.007813 1.53125-.125 2.714844-1.386719 2.753907-2.921875.257812-11.417968 16.660156-17.265625 16.824218-17.324218 1.351563-.464844 2.1875-1.824219 1.988282-3.242188-.195313-1.417969-1.363282-2.503906-2.792969-2.585938zm-19.167969 13.585938c-1.847656-3.769531-4.679688-7.890625-8.894531-10.554688 3.714843-2.082031 7.394531-5.261718 9.742187-9.832031 2.113282 3.746094 5.308594 7.90625 9.882813 10.445313-3.699219 2.199218-7.976563 5.480468-10.730469 9.941406zm0 0" fill="#3a312a"/><path d="m114.472656 128.414062c-1.375 16.363282-18.421875 18.945313-18.421875 18.945313 14.636719.6875 18.285157 19.886719 18.285157 19.886719.308593-13.691406 18.84375-20.089844 18.84375-20.089844-13.882813-.832031-18.707032-18.742188-18.707032-18.742188zm0 0" fill="#d7e057"/><path d="m133.359375 144.160156c-11.53125-.691406-15.945313-16.371094-15.988281-16.53125-.378906-1.402344-1.710938-2.34375-3.164063-2.203125-1.453125.128907-2.597656 1.285157-2.722656 2.734375-1.15625 13.742188-15.289063 16.132813-15.882813 16.226563-1.523437.234375-2.625 1.582031-2.546874 3.125.082031 1.539062 1.316406 2.769531 2.855468 2.839843 12.070313.570313 15.449219 17.289063 15.476563 17.453126.273437 1.425781 1.519531 2.441406 2.945312 2.441406.085938 0 .167969-.003906.25-.011719 1.53125-.125 2.714844-1.382813 2.753907-2.921875.257812-11.417969 16.660156-17.265625 16.824218-17.320312 1.351563-.464844 2.1875-1.828126 1.988282-3.246094-.195313-1.417969-1.363282-2.5-2.789063-2.585938zm-19.171875 13.589844c-1.847656-3.769531-4.679688-7.894531-8.894531-10.558594 3.710937-2.082031 7.394531-5.257812 9.742187-9.832031 2.113282 3.746094 5.308594 7.910156 9.882813 10.449219-3.699219 2.199218-7.976563 5.476562-10.730469 9.941406zm0 0" fill="#3a312a"/><path d="m432.589844 231.164062c-22.058594-54.601562-29.417969-114.019531-22.21875-172.480468l2.320312-18.820313h-180.382812l2.320312 18.820313c7.179688 58.460937-.179687 117.882812-22.238281 172.480468-9.820313 24.320313-15.421875 52.261719-15.421875 81.980469 0 55.121094 19.242188 104.140625 49.082031 135.339844h152.878907c29.839843-31.199219 49.082031-80.21875 49.082031-135.339844 0-29.71875-5.601563-57.660156-15.421875-81.980469zm0 0" fill="#d7e057"/><path d="m435.371094 230.042969c-21.601563-53.464844-29.214844-112.59375-22.023438-170.992188l2.320313-18.820312c.105469-.851563-.164063-1.707031-.730469-2.351563-.570312-.644531-1.390625-1.015625-2.25-1.015625h-180.378906c-.859375 0-1.679688.367188-2.25 1.011719-.566406.644531-.835938 1.503906-.726563 2.355469l2.316407 18.820312c7.175781 58.410157-.445313 117.542969-22.042969 170.992188-10.230469 25.335937-15.636719 54.070312-15.636719 83.101562 0 54.164063 18.191406 104.25 49.910156 137.414063.566406.59375 1.347656.925781 2.167969.925781h152.882813c.816406 0 1.601562-.332031 2.167968-.925781 31.71875-33.167969 49.910156-83.25 49.910156-137.414063.003907-29.027343-5.40625-57.765625-15.636718-83.101562zm-37.730469 215.441406h-150.300781c-30.121094-32.0625-47.371094-80.207031-47.371094-132.339844 0-28.265625 5.257812-56.226562 15.203125-80.855469 21.976563-54.390624 29.734375-114.550781 22.4375-173.972656l-1.90625-15.449218h173.59375l-1.90625 15.449218c-7.3125 59.410156.4375 119.566406 22.414063 173.972656 9.949218 24.628907 15.207031 52.589844 15.207031 80.855469 0 52.128907-17.25 100.277344-47.371094 132.339844zm0 0" fill="#3a312a"/><path d="m413.339844 2.996094h-181.699219c-10.179687 0-18.433594 8.257812-18.433594 18.4375 0 10.183594 8.253907 18.4375 18.433594 18.4375h181.699219c10.179687 0 18.433594-8.253906 18.433594-18.4375 0-10.179688-8.253907-18.4375-18.433594-18.4375zm0 0" fill="#d7e057"/><path d="m413.339844 0h-97.824219c-1.65625 0-3 1.34375-3 3s1.34375 3 3 3h97.824219c8.507812 0 15.433594 6.925781 15.433594 15.4375s-6.921876 15.433594-15.433594 15.433594h-181.699219c-8.507813 0-15.433594-6.921875-15.433594-15.433594s6.925781-15.4375 15.433594-15.4375h53.769531c1.65625 0 3-1.34375 3-3s-1.34375-3-3-3h-53.769531c-11.816406 0-21.433594 9.617188-21.433594 21.4375s9.617188 21.433594 21.433594 21.433594h181.699219c11.820312 0 21.433594-9.613282 21.433594-21.433594 0-11.824219-9.613282-21.4375-21.433594-21.4375zm0 0" fill="#3a312a"/><path d="m322.492188 225.742188c-42.921876 0-77.714844 34.796874-77.714844 77.714843 0 42.921875 34.792968 77.714844 77.714844 77.714844 42.917968 0 77.710937-34.792969 77.710937-77.714844 0-42.917969-34.789063-77.714843-77.710937-77.714843zm0 0" fill="#fce8cb"/><path d="m322.492188 222.746094c-44.507813 0-80.714844 36.207031-80.714844 80.710937 0 44.507813 36.207031 80.714844 80.714844 80.714844 44.503906 0 80.710937-36.207031 80.710937-80.714844 0-44.503906-36.207031-80.710937-80.710937-80.710937zm0 155.429687c-41.199219 0-74.714844-33.519531-74.714844-74.714843 0-41.199219 33.515625-74.714844 74.714844-74.714844 41.195312 0 74.710937 33.519531 74.710937 74.714844 0 41.195312-33.515625 74.714843-74.710937 74.714843zm0 0" fill="#3a312a"/><path d="m218.386719 294.984375h-197.335938c-10.761719 0-19.152343 9.539063-17.542969 20.179687 9.210938 60.859376 57.738282 128.171876 116.210938 128.171876s106.996094-67.3125 116.210938-128.171876c1.613281-10.640624-6.777344-20.179687-17.542969-20.179687zm0 0" fill="#f16c7a"/><path d="m234.160156 299.226562c-3.960937-4.601562-9.707031-7.242187-15.773437-7.242187h-108.222657c-1.65625 0-3 1.34375-3 3s1.34375 3 3 3h108.222657c4.316406 0 8.40625 1.878906 11.222656 5.152344 2.757813 3.210937 3.984375 7.429687 3.355469 11.578125-11.375 75.144531-67.738282 125.621094-113.246094 125.621094-45.503906 0-101.871094-50.476563-113.242188-125.621094-.628906-4.148438.59375-8.367188 3.355469-11.578125 2.8125-3.273438 6.902344-5.152344 11.21875-5.152344h59.042969c1.65625 0 3-1.34375 3-3s-1.34375-3-3-3h-59.042969c-6.066406 0-11.8125 2.640625-15.769531 7.242187-3.902344 4.535157-5.628906 10.507813-4.738281 16.386719 9.554687 63.128907 59.722656 130.722657 119.175781 130.722657s109.621094-67.59375 119.175781-130.722657c.890625-5.878906-.835937-11.851562-4.734375-16.386719zm0 0" fill="#3a312a"/><path d="m429.808594 232.285156c-21.976563-54.402344-29.738282-114.5625-22.417969-173.960937l1.898437-15.460938h-33.640624l-1.917969 15.460938c-7.300781 59.398437.441406 119.558593 22.417969 173.960937 9.941406 24.640625 15.203124 52.597656 15.203124 80.859375 0 52.121094-17.242187 100.28125-47.359374 132.339844h33.636718c30.121094-32.058594 47.382813-80.21875 47.382813-132.339844 0-28.261719-5.261719-56.21875-15.203125-80.859375zm0 0" fill="#b9c239"/><path d="m413.332031 6.003906h-33.640625c8.5 0 15.4375 6.921875 15.4375 15.421875 0 8.519531-6.9375 15.4375-15.4375 15.4375h33.640625c8.519531 0 15.4375-6.917969 15.4375-15.4375 0-8.5-6.917969-15.421875-15.4375-15.421875zm0 0" fill="#b9c239"/><path d="m65.65625 424.183594h108.128906v24.441406h-108.128906zm0 0" fill="#f16c7a"/><path d="m173.785156 421.183594h-108.128906c-1.660156 0-3 1.34375-3 3v24.441406c0 1.65625 1.339844 3 3 3h108.128906c1.660156 0 3-1.34375 3-3v-24.441406c0-1.65625-1.339844-3-3-3zm-3 24.441406h-102.128906v-18.441406h102.128906zm0 0" fill="#3a312a"/></svg>