<svg height="455pt" viewBox="0 -1 455.00593 455" width="455pt" xmlns="http://www.w3.org/2000/svg"><path d="m425.558594 22.359375c-1.945313 23.128906-26.050782 26.78125-26.050782 26.78125 20.695313.972656 25.851563 28.117187 25.851563 28.117187.441406-19.355468 26.640625-28.402343 26.640625-28.402343-19.625-1.175781-26.441406-26.496094-26.441406-26.496094zm0 0" fill="#d7e057"/><path d="m452.183594 45.859375c-17.210938-1.03125-23.667969-24.050781-23.726563-24.28125-.382812-1.402344-1.714843-2.324219-3.167969-2.203125-1.453124.132812-2.597656 1.28125-2.71875 2.734375-1.71875 20.429687-22.625 23.925781-23.507812 24.0625-1.527344.230469-2.628906 1.578125-2.546875 3.121094.078125 1.539062 1.3125 2.769531 2.855469 2.84375 18.054687.847656 23 25.4375 23.046875 25.683593.277343 1.421876 1.519531 2.4375 2.945312 2.4375.085938 0 .167969-.003906.253907-.011718 1.527343-.128906 2.710937-1.386719 2.75-2.917969.382812-17.019531 24.378906-25.554687 24.621093-25.636719 1.351563-.472656 2.183594-1.828125 1.988281-3.246094-.199218-1.417968-1.363281-2.5-2.792968-2.585937zm-27.132813 20.691406c-2.714843-6.261719-7.417969-13.816406-15.175781-17.753906 5.863281-2.808594 12.816406-7.824219 16.402344-16.546875 3.101562 6.144531 8.398437 13.761719 16.671875 17.445312-6.015625 3.28125-13.847657 8.8125-17.898438 16.855469zm0 0" fill="#3a312a"/><path d="m382.160156 56.320312c-1.375 16.359376-18.425781 18.945313-18.425781 18.945313 14.636719.6875 18.285156 19.886719 18.285156 19.886719.3125-13.691406 18.84375-20.089844 18.84375-20.089844-13.878906-.832031-18.703125-18.742188-18.703125-18.742188zm0 0" fill="#d7e057"/><path d="m401.042969 72.066406c-11.53125-.691406-15.945313-16.371094-15.988281-16.527344-.378907-1.40625-1.730469-2.328124-3.160157-2.207031-1.453125.132813-2.601562 1.285157-2.722656 2.738281-1.160156 13.742188-15.292969 16.132813-15.882813 16.226563-1.527343.230469-2.628906 1.578125-2.546874 3.121094.078124 1.539062 1.3125 2.769531 2.855468 2.84375 12.070313.566406 15.449219 17.285156 15.476563 17.449219.273437 1.425781 1.519531 2.441406 2.945312 2.441406.082031 0 .167969-.003906.25-.011719 1.53125-.125 2.71875-1.386719 2.753907-2.921875.261718-11.417969 16.660156-17.265625 16.824218-17.324219 1.351563-.464843 2.1875-1.824219 1.992188-3.242187-.199219-1.417969-1.367188-2.503906-2.796875-2.585938zm-19.167969 13.589844c-1.847656-3.773438-4.679688-7.894531-8.894531-10.558594 3.707031-2.085937 7.394531-5.261718 9.742187-9.835937 2.113282 3.75 5.308594 7.910156 9.878906 10.449219-3.695312 2.199218-7.976562 5.480468-10.726562 9.945312zm0 0" fill="#3a312a"/><path d="m382.160156 3.007812c-1.375 16.355469-18.425781 18.941407-18.425781 18.941407 14.636719.6875 18.285156 19.886719 18.285156 19.886719.3125-13.691407 18.84375-20.089844 18.84375-20.089844-13.878906-.832032-18.703125-18.738282-18.703125-18.738282zm0 0" fill="#d7e057"/><path d="m401.042969 18.75c-11.53125-.691406-15.945313-16.371094-15.988281-16.53125-.378907-1.402344-1.730469-2.324219-3.160157-2.1992188-1.453125.1289068-2.601562 1.2812498-2.722656 2.7343748-1.160156 13.742188-15.292969 16.132813-15.882813 16.226563-1.527343.230469-2.628906 1.582031-2.546874 3.125.078124 1.539062 1.3125 2.765625 2.855468 2.839843 12.070313.570313 15.449219 17.289063 15.476563 17.453126.273437 1.425781 1.519531 2.441406 2.945312 2.441406.082031 0 .167969-.003906.25-.011719 1.53125-.128906 2.71875-1.386719 2.753907-2.921875.261718-11.417969 16.660156-17.269531 16.824218-17.324219 1.351563-.46875 2.1875-1.824219 1.992188-3.242187-.199219-1.417969-1.367188-2.503906-2.796875-2.589844zm-19.167969 13.589844c-1.847656-3.769532-4.679688-7.894532-8.894531-10.558594 3.707031-2.082031 7.394531-5.261719 9.742187-9.835938 2.113282 3.75 5.308594 7.910157 9.878906 10.449219-3.695312 2.203125-7.976562 5.480469-10.726562 9.945313zm0 0" fill="#3a312a"/><path d="m258.269531 349.347656c14.175781-9.820312 18.859375-28.984375 10.285157-44.328125-2.953126-5.285156-7.117188-9.441406-11.917969-12.371093 8.070312-10.414063 9.644531-25.046876 2.8125-37.28125-3.683594-6.585938-9.25-11.410157-15.632813-14.300782 5.4375-9.886718 5.835938-22.234375-.074218-32.820312-4.660157-8.335938-12.308594-13.914063-20.878907-16.1875 4.222657-9.421875 4.128907-20.625-1.289062-30.324219-5.925781-10.605469-16.734375-16.742187-28.046875-17.273437 3.910156-9.273438 3.6875-20.191407-1.597656-29.648438-6.027344-10.785156-17.082032-16.941406-28.582032-17.289062 1.5625-7.671876.527344-15.898438-3.59375-23.265626-7.257812-12.996093-21.773437-19.304687-35.640625-16.773437.515625-6.429687-.796875-13.074219-4.1875-19.136719-8.648437-15.484375-27.621093-21.519531-43.492187-14.308594-.34375-.757812-.675782-1.496093-1.078125-2.21875-9.125-16.328124-29.753907-22.167968-46.0625-13.054687-16.328125 9.121094-22.167969 29.753906-13.046875 46.082031.40625.722656.882812 1.429688 1.34375 2.121094-14.027344 9.839844-18.589844 28.886719-10.050782 44.171875 3.386719 6.066406 8.355469 10.667969 14.105469 13.59375-9.425781 10.484375-11.664062 26.152344-4.40625 39.144531 4.121094 7.371094 10.578125 12.566406 17.933594 15.257813-5.734375 9.976562-6.285156 22.617187-.257813 33.402343 5.285157 9.460938 14.464844 15.371094 24.414063 16.90625-5.480469 9.910157-5.917969 22.332032.007813 32.9375 5.417968 9.699219 14.910156 15.652344 25.148437 16.992188-2.554687 8.492188-1.8125 17.933594 2.84375 26.269531 5.914063 10.582031 16.640625 16.714844 27.914063 17.265625-.886719 6.953125.300781 14.222656 3.984374 20.808594 6.832032 12.234375 20.121094 18.566406 33.21875 17.148438-.019531 5.625 1.335938 11.351562 4.285157 16.632812 8.472656 15.164062 26.867187 21.25 42.515625 14.726562.179687.371094.34375.753907.546875 1.117188 6.269531 11.226562 17.96875 17.496094 29.992187 17.316406l.019532-.011718c5.457031-.042969 10.976562-1.441407 16.058593-4.28125 5.320313-2.972657 9.515625-7.160157 12.453125-12.046876 6.078125-10.0625 6.730469-23 .582032-34.003906-.195313-.34375-.417969-.640625-.628907-.96875zm0 0" fill="#d7e057"/><path d="m271.171875 303.554688c-2.554687-4.578126-6.085937-8.566407-10.3125-11.679688 7.363281-11.402344 7.910156-25.972656 1.207031-37.96875-3.347656-5.992188-8.230468-10.84375-14.234375-14.175781 4.742188-10.605469 4.25-22.707031-1.46875-32.945313-4.359375-7.796875-11.210937-13.605468-19.523437-16.625 3.4375-9.917968 2.523437-20.640625-2.644532-29.890625-5.589843-10.003906-15.324218-16.6875-26.542968-18.410156 2.878906-9.535156 1.808594-19.730469-3.101563-28.511719-5.8125-10.40625-16.019531-17.175781-27.734375-18.574218.835938-7.601563-.699218-15.296876-4.4375-21.984376-7.085937-12.679687-20.910156-19.910156-35.160156-18.738281-.121094-5.996093-1.707031-11.867187-4.667969-17.167969-8.792969-15.730468-27.945312-22.699218-44.65625-16.671874-4.808593-8.519532-12.636719-14.675782-22.054687-17.34375-9.472656-2.683594-19.417969-1.519532-28.007813 3.277343-17.71875 9.902344-24.097656 32.367188-14.238281 50.097657-13.6523438 11.226562-17.449219 30.652343-8.671875 46.363281 2.964844 5.300781 7.128906 9.734375 12.175781 12.972656-8.472656 11.546875-9.554687 27.089844-2.472656 39.765625 3.738281 6.691406 9.484375 12.03125 16.394531 15.300781-4.953125 10.710938-4.535156 22.957031 1.277344 33.359375 4.910156 8.785156 13.03125 15.042969 22.660156 17.589844-4.414062 10.453125-3.828125 22.246094 1.761719 32.25 5.167969 9.25 13.820312 15.648438 24.070312 17.921875-1.789062 8.660156-.4375 17.539063 3.921876 25.339844 5.71875 10.238281 15.769531 17 27.289062 18.519531-.3125 6.859375 1.257812 13.566406 4.609375 19.554688 6.703125 12 19.429687 19.207031 32.964844 18.875.4375 5.234374 1.984375 10.332031 4.539062 14.90625 8.679688 15.535156 27.105469 22.53125 43.722657 16.992187 6.667968 10.992187 18.554687 17.707031 31.433593 17.707031.1875 0 .375 0 .558594-.003906.078125 0 .15625-.003906.230469-.011719 6.003906-.089843 11.964844-1.699219 17.261718-4.660156 5.585938-3.121094 10.277344-7.65625 13.5625-13.113281 6.578126-10.890625 7.042969-24.445313 1.324219-35.722656 13.894531-11.21875 17.8125-30.757813 8.964844-46.59375zm-14.609375 43.324218c-1.328125.917969-1.6875 2.722656-.820312 4.082032l.253906.382812c.09375.140625.1875.277344.277344.4375 5.390624 9.648438 5.191406 21.523438-.53125 30.992188-2.75 4.566406-6.675782 8.363281-11.351563 10.972656-4.488281 2.511718-9.542969 3.859375-14.621094 3.898437-.082031.003907-.167969.007813-.25.015625-11.285156.105469-21.621093-5.941406-27.117187-15.777344-.097656-.175781-.179688-.363281-.265625-.542968l-.207031-.433594c-.515626-1.058594-1.582032-1.683594-2.695313-1.683594-.386719 0-.777344.078125-1.152344.234375-14.445312 6.023438-31.097656.253907-38.742187-13.417969-2.570313-4.605468-3.921875-9.847656-3.902344-15.160156 0-.855468-.359375-1.667968-.992188-2.242187-.632812-.570313-1.488281-.847657-2.328124-.753907-12.351563 1.339844-24.230469-4.800781-30.28125-15.625-3.21875-5.765624-4.472657-12.320312-3.625-18.96875.105468-.828124-.140626-1.664062-.675782-2.304687-.539062-.640625-1.316406-1.027344-2.152344-1.070313-10.71875-.527343-20.230468-6.40625-25.441406-15.734374-4.109375-7.347657-5.027344-15.851563-2.589844-23.941407.253907-.839843.125-1.753906-.355468-2.492187-.476563-.738282-1.253906-1.230469-2.125-1.347656-9.789063-1.28125-18.140625-6.925782-22.921875-15.480469-5.222657-9.351563-5.222657-20.574219 0-30.023438.472656-.859375.5-1.894531.066406-2.773437-.433594-.882813-1.269531-1.496094-2.234375-1.644532-9.488281-1.457031-17.601562-7.074218-22.253906-15.402343-5.324219-9.53125-5.234375-20.914063.242187-30.445313.441407-.765625.519531-1.6875.214844-2.519531-.300781-.832031-.957031-1.488281-1.785156-1.792969-6.953125-2.542968-12.753907-7.480468-16.34375-13.902344-6.433594-11.511718-4.816407-25.847656 4.015625-35.675781.621094-.691406.886718-1.632812.714844-2.550781-.167969-.917969-.753907-1.703125-1.585938-2.125-5.421875-2.765625-9.867188-7.046875-12.847656-12.386719-7.742188-13.855469-3.804688-31.160156 9.15625-40.253906 1.339844-.941406 1.679687-2.78125.765625-4.132813-.417969-.617187-.847657-1.253906-1.210938-1.90625-8.300781-14.859374-2.964843-33.699218 11.886719-42 7.191406-4.019531 15.511719-4.992187 23.449219-2.746093 7.929687 2.25 14.511719 7.453125 18.535156 14.648437.351563.625.636719 1.269532.964844 1.992188.6875 1.507812 2.460937 2.179687 3.972656 1.492187 14.464844-6.566406 31.875-.839843 39.632813 13.039063 2.984374 5.339844 4.300781 11.371094 3.8125 17.4375-.074219.929687.289062 1.839844.976562 2.464844.691406.625 1.632812.898437 2.550781.726562 12.988281-2.378906 26.050781 3.765625 32.484375 15.28125 3.589844 6.417969 4.75 13.953125 3.273438 21.203125-.179688.867187.039062 1.769531.585937 2.460937.550781.695313 1.378907 1.109376 2.261719 1.136719 10.988281.332031 20.726562 6.222657 26.054688 15.753907 4.652343 8.328124 5.179687 18.175781 1.453124 27.023437-.378906.902344-.296874 1.933594.226563 2.765625.519531.828125 1.414063 1.347656 2.394531 1.398438 10.789063.503906 20.34375 6.390624 25.570313 15.738281 4.78125 8.558593 5.207031 18.628906 1.167969 27.632812-.363282.804688-.351563 1.726563.03125 2.519531.378906.792969 1.085937 1.382813 1.9375 1.609376 8.164062 2.164062 14.925781 7.40625 19.03125 14.753906 5.207031 9.328125 5.234374 20.507812.0625 29.914062-.398438.730469-.480469 1.597656-.214844 2.394532.265625.789062.847656 1.4375 1.609375 1.785156 6.101562 2.761718 11.03125 7.265625 14.25 13.03125 6.050781 10.828125 5.042969 24.164062-2.5625 33.976562-.523438.671875-.734375 1.539063-.582031 2.378906.15625.839844.660156 1.574219 1.390624 2.019532 4.53125 2.765625 8.289063 6.664062 10.859376 11.269531 7.792968 13.933594 3.765624 31.300781-9.367188 40.394531zm0 0" fill="#3a312a"/><path d="m398.113281 144.65625c-20.929687-4.945312-41.898437 8.015625-46.84375 28.945312-4.941406 20.929688 8.019531 41.898438 28.949219 46.839844 20.925781 4.945313 41.898438-8.015625 46.839844-28.945312 4.945312-20.929688-8.015625-41.898438-28.945313-46.839844zm0 0" fill="#8ac6dd"/><path d="m389.15625 140.578125c-23.125 0-41.9375 18.816406-41.9375 41.941406 0 23.121094 18.8125 41.9375 41.9375 41.9375s41.9375-18.816406 41.9375-41.9375c0-23.125-18.8125-41.941406-41.9375-41.941406zm0 77.878906c-19.816406 0-35.9375-16.125-35.9375-35.9375 0-19.816406 16.121094-35.941406 35.9375-35.941406s35.9375 16.125 35.9375 35.941406c0 19.8125-16.121094 35.9375-35.9375 35.9375zm0 0" fill="#3a312a"/><path d="m363.488281 186.9375c0 21.503906-17.433593 38.9375-38.9375 38.9375-21.503906 0-38.9375-17.433594-38.9375-38.9375 0-21.507812 17.433594-38.941406 38.9375-38.941406 21.503907 0 38.9375 17.433594 38.9375 38.941406zm0 0" fill="#8ac6dd"/><path d="m324.550781 144.996094c-23.125 0-41.9375 18.816406-41.9375 41.941406 0 23.121094 18.808594 41.9375 41.9375 41.9375 23.125 0 41.9375-18.816406 41.9375-41.9375 0-23.125-18.8125-41.941406-41.9375-41.941406zm0 77.878906c-19.816406 0-35.9375-16.125-35.9375-35.9375 0-19.816406 16.121094-35.941406 35.9375-35.941406 19.816407 0 35.9375 16.125 35.9375 35.941406 0 19.8125-16.121093 35.9375-35.9375 35.9375zm0 0" fill="#3a312a"/><path d="m280.707031 154.035156c-16.664062-57.019531-56.929687-100.695312-84.316406-97.082031-14.988281 1.976563-30.214844 18.527344-41.046875 42.898437l-9.835938 29.304688c-3.253906 13.535156-5.207031 28.226562-5.375 43.417969-.65625 59.242187 43.566407 87.574219 82.386719 82.453125 38.816407-5.117188 74.804688-44.125 58.1875-100.992188zm0 0" fill="#fce8cb"/><path d="m283.585938 153.191406c-16.601563-56.816406-57.554688-103.171875-87.585938-99.214844-15.664062 2.066407-31.886719 18.757813-43.398438 44.65625-.671874 1.511719.011719 3.289063 1.527344 3.960938s3.285156-.011719 3.957032-1.523438c10.65625-23.972656 25.125-39.351562 38.699218-41.144531 24.230469-3.183593 64.03125 36.726563 81.042969 94.949219 9.214844 31.535156 1.078125 53.601562-7.371094 66.5625-10.824219 16.609375-28.890625 28.054688-48.332031 30.617188-19.453125 2.570312-39.121094-3.507813-53.960938-16.667969-11.621093-10.304688-25.398437-29.558594-25.03125-62.777344.160157-14.433594 1.941407-28.820313 5.289063-42.753906.390625-1.609375-.601563-3.230469-2.210937-3.617188-1.617188-.382812-3.230469.605469-3.621094 2.214844-3.457032 14.371094-5.292969 29.203125-5.457032 44.085937-.394531 35.484376 14.496094 56.203126 27.050782 67.335938 13.714844 12.160156 31.21875 18.757812 49.160156 18.757812 3.183594 0 6.378906-.207031 9.566406-.628906 21.152344-2.792968 40.804688-15.234375 52.574219-33.292968 9.136719-14.011719 17.957031-37.796876 8.101563-71.519532zm0 0" fill="#3a312a"/><path d="m256.601562 177.320312c-3.171874-24.0625-25.253906-41-49.320312-37.828124-24.066406 3.175781-41 25.257812-37.828125 49.324218 3.175781 24.066406 25.257813 41.003906 49.324219 37.828125 24.0625-3.171875 41-25.257812 37.824218-49.324219zm0 0" fill="#d7e057"/><path d="m259.578125 176.929688c-1.640625-12.433594-8.023437-23.484376-17.976563-31.117188-9.957031-7.632812-22.292968-10.929688-34.714843-9.292969-25.664063 3.386719-43.792969 27.023438-40.410157 52.691407 3.113282 23.589843 23.335938 40.816406 46.519532 40.816406 2.039062 0 4.097656-.132813 6.171875-.40625 12.433593-1.640625 23.484375-8.023438 31.121093-17.976563 7.628907-9.953125 10.925782-22.28125 9.289063-34.714843zm-14.054687 31.0625c-6.65625 8.679687-16.292969 14.246093-27.140626 15.679687-22.378906 2.957031-43.003906-12.859375-45.957031-35.246094-2.953125-22.390625 12.859375-43.003906 35.246094-45.957031 1.820313-.242188 3.632813-.359375 5.441406-.359375 8.953125 0 17.613281 2.921875 24.839844 8.460937 8.679687 6.660157 14.246094 16.296876 15.675781 27.144532 1.429688 10.84375-1.449218 21.597656-8.105468 30.277344zm0 0" fill="#3a312a"/><path d="m424.738281 212.417969c-19.871093-8.230469-42.648437 1.203125-50.878906 21.070312-8.230469 19.871094 1.207031 42.648438 21.074219 50.878907 19.867187 8.230468 42.648437-1.207032 50.875-21.074219 8.230468-19.867188-1.203125-42.648438-21.070313-50.875zm0 0" fill="#8ac6dd"/><path d="m409.824219 206.457031c-23.125 0-41.941407 18.816407-41.941407 41.9375 0 23.125 18.816407 41.9375 41.941407 41.9375s41.9375-18.8125 41.9375-41.9375c0-23.121093-18.8125-41.9375-41.9375-41.9375zm0 77.875c-19.816407 0-35.941407-16.121093-35.941407-35.9375 0-19.816406 16.121094-35.9375 35.941407-35.9375 19.816406 0 35.9375 16.121094 35.9375 35.9375 0 19.820313-16.121094 35.9375-35.9375 35.9375zm0 0" fill="#3a312a"/><path d="m339.4375 189.605469c-21.503906 0-38.9375 17.433593-38.9375 38.9375 0 21.507812 17.433594 38.9375 38.9375 38.9375 21.507812 0 38.941406-17.429688 38.941406-38.9375 0-21.503907-17.433594-38.9375-38.941406-38.9375zm0 0" fill="#8ac6dd"/><path d="m339.4375 186.605469c-23.121094 0-41.9375 18.816406-41.9375 41.9375 0 23.125 18.8125 41.9375 41.9375 41.9375 23.128906 0 41.941406-18.8125 41.941406-41.9375 0-23.121094-18.816406-41.9375-41.941406-41.9375zm0 77.875c-19.8125 0-35.9375-16.121094-35.9375-35.9375 0-19.816407 16.125-35.9375 35.9375-35.9375 19.816406 0 35.941406 16.121093 35.941406 35.9375 0 19.816406-16.125 35.9375-35.941406 35.9375zm0 0" fill="#3a312a"/><path d="m274.515625 184.949219c-21.503906 0-38.9375 17.433593-38.9375 38.9375 0 21.507812 17.433594 38.9375 38.9375 38.9375 21.507813 0 38.941406-17.429688 38.941406-38.9375 0-21.503907-17.4375-38.9375-38.941406-38.9375zm0 0" fill="#8ac6dd"/><path d="m274.515625 181.949219c-23.121094 0-41.9375 18.816406-41.9375 41.9375 0 23.125 18.8125 41.9375 41.9375 41.9375 23.128906 0 41.941406-18.8125 41.941406-41.9375 0-23.121094-18.816406-41.9375-41.941406-41.9375zm0 77.875c-19.8125 0-35.9375-16.121094-35.9375-35.9375 0-19.816407 16.125-35.9375 35.9375-35.9375 19.816406 0 35.941406 16.121093 35.941406 35.9375 0 19.816406-16.125 35.9375-35.941406 35.9375zm0 0" fill="#3a312a"/><path d="m237.613281 10.402344 21.554688-7.410156 23.707031 68.960937-21.554688 7.410156zm0 0" fill="#d7e057"/><path d="m285.707031 70.988281-23.703125-68.957031c-.539062-1.566406-2.246094-2.40625-3.8125-1.863281l-21.554687 7.40625c-.753907.257812-1.371094.808593-1.71875 1.523437-.351563.710938-.402344 1.539063-.140625 2.289063l23.699218 68.960937c.261719.75.808594 1.371094 1.523438 1.71875.414062.203125.867188.304688 1.316406.304688.328125 0 .65625-.054688.972656-.164063l21.554688-7.410156c1.566406-.53125 2.398438-2.242187 1.863281-3.808594zm-22.535156 4.574219-21.75-63.285156 15.882813-5.457032 21.75 63.285157zm0 0" fill="#3a312a"/><path d="m301.703125 122.4375 14.089844-71.546875 22.363281 4.402344-14.089844 71.546875zm0 0" fill="#d7e057"/><path d="m338.730469 52.363281-22.363281-4.402343c-.789063-.15625-1.59375.007812-2.253907.449218-.660156.445313-1.117187 1.132813-1.273437 1.914063l-14.085938 71.542969c-.320312 1.625.738282 3.203124 2.363282 3.523437l22.363281 4.40625c.195312.035156.386719.054687.582031.054687.589844 0 1.171875-.171874 1.671875-.507812.660156-.445312 1.117187-1.128906 1.269531-1.910156l14.089844-71.546875c.320312-1.625-.738281-3.199219-2.363281-3.523438zm-17.03125 70.964844-16.476563-3.246094 12.929688-65.65625 16.476562 3.246094zm0 0" fill="#3a312a"/><path d="m49.292969 132.070312-16.109375-10.050781-12.382813-7.726562c-32.433593 51.984375-16.589843 120.417969 35.398438 152.855469 51.980469 32.433593 120.417969 16.585937 152.855469-35.398438zm0 0" fill="#f16c7a"/><path d="m210.636719 229.207031-175.863281-109.730469-12.386719-7.730468c-1.402344-.875-3.253907-.449219-4.132813.960937-33.257812 53.304688-16.949218 123.730469 36.355469 156.988281 18.320313 11.429688 39.027344 17.316407 60.101563 17.316407 8.621093 0 17.308593-.988281 25.921874-2.980469 29.652344-6.867188 54.855469-24.871094 70.964844-50.691406.875-1.40625.445313-3.257813-.960937-4.132813zm-71.359375 48.976563c-28.089844 6.503906-57.03125 1.683594-81.492188-13.582032-49.648437-30.976562-65.417968-95.984374-35.992187-146.15625l183.089843 114.238282c-15.304687 23.113281-38.492187 39.21875-65.605468 45.5zm0 0" fill="#3a312a"/><path d="m84.816406 154.234375-7.390625-4.609375-5.679687-3.546875c-14.878906 23.851563-7.609375 55.242187 16.238281 70.125 23.847656 14.878906 55.242187 7.609375 70.121094-16.238281zm0 0" fill="#fce8cb"/><g fill="#3a312a"><path d="m159.695312 197.417969-86.363281-53.882813c-.675781-.421875-1.492187-.558594-2.265625-.378906-.773437.179688-1.449218.660156-1.867187 1.332031-15.730469 25.214844-8.019531 58.527344 17.195312 74.253907 8.851563 5.527343 18.703125 8.160156 28.441407 8.160156 17.996093 0 35.609374-8.992188 45.8125-25.351563.878906-1.40625.449218-3.253906-.953126-4.132812zm-70.125 16.238281c-21.550781-13.449219-28.714843-41.347656-16.792968-63.394531l3.058594 1.910156 78.054687 48.699219c-14.558594 20.402344-42.765625 26.234375-64.320313 12.785156zm0 0"/><path d="m54.867188 149.8125c-.960938-1.238281-3.550782-4.179688-7.261719-5.210938-2.574219-.714843-5.378907.136719-5.898438 2.003907-.519531 1.867187 1.394531 4.015625 4.019531 4.761719 3.703126 1.054687 7.445313-.152344 8.910157-.71875.332031-.128907.449219-.546876.230469-.835938zm0 0"/><path d="m50.648438 175.042969c-1.292969-.886719-4.664063-2.886719-8.511719-2.730469-2.667969.113281-5.078125 1.785156-4.996094 3.722656.078125 1.9375 2.5625 3.390625 5.285156 3.292969 3.851563-.132813 7.042969-2.429687 8.257813-3.421875.277344-.222656.261718-.660156-.035156-.863281zm0 0"/><path d="m57.621094 202.320312c-1.558594-.1875-5.472656-.394531-8.808594 1.53125-2.316406 1.335938-3.671875 3.933594-2.699219 5.613282.96875 1.679687 3.84375 1.816406 6.210938.46875 3.347656-1.90625 5.109375-5.421875 5.726562-6.863282.144531-.332031-.074219-.707031-.429687-.75zm0 0"/><path d="m81.25 227.878906c-.027344-.359375-.394531-.589844-.730469-.464844-1.464843.5625-5.023437 2.199219-7.078125 5.460938-1.425781 2.261719-1.414062 5.191406.226563 6.226562 1.640625 1.03125 4.246093-.1875 5.714843-2.484374 2.074219-3.246094 1.996094-7.175782 1.867188-8.738282zm0 0"/><path d="m170.042969 220.996094c-2.558594-2.878906-6.335938-3.917969-7.875-4.230469-.351563-.070313-.675781.214844-.648438.574219.132813 1.5625.699219 5.453125 3.273438 8.316406 1.820312 2.03125 4.589843 2.804688 6.039062 1.519531 1.453125-1.289062.984375-4.179687-.789062-6.179687zm0 0"/><path d="m147.554688 238.089844c-1.550782-3.527344-4.828126-5.671875-6.191407-6.445313-.316406-.175781-.710937 0-.792969.347657-.355468 1.53125-1.015624 5.402343.554688 8.921874 1.113281 2.488282 3.511719 4.078126 5.285156 3.300782 1.773438-.78125 2.21875-3.679688 1.144532-6.125zm0 0"/><path d="m113.796875 237.371094c-.195313-.300782-.628906-.332032-.863281-.058594-1.023438 1.1875-3.402344 4.316406-3.644532 8.160156-.167968 2.71875 1.214844 5.242188 3.152344 5.375 1.933594.128906 3.671875-2.230468 3.855469-4.894531.261719-3.84375-1.648437-7.265625-2.5-8.582031zm0 0"/></g><path d="m3 250.25c2.097656 20.621094 7.417969 40.363281 15.539062 58.78125 10.242188 23.359375 24.941407 44.601562 43.121094 62.800781 40.878906 41 99.320313 66.640625 164.21875 66.640625 64.902344 0 123.339844-25.640625 164.21875-66.640625 18.183594-18.199219 32.882813-39.441406 43.121094-62.800781 8.121094-18.417969 13.441406-38.160156 15.539062-58.78125zm0 0" fill="#87796f"/><path d="m450.984375 248.242188c-.566406-.628907-1.375-.992188-2.226563-.992188h-364.609374c-1.65625 0-3 1.34375-3 3 0 1.660156 1.34375 3 3 3h361.261718c-2.25 18.832031-7.265625 37.175781-14.9375 54.578125-10.027344 22.871094-24.324218 43.695313-42.496094 61.886719-41.667968 41.789062-100.75 65.757812-162.097656 65.757812-61.34375 0-120.425781-23.96875-162.097656-65.761718-18.167969-18.1875-32.464844-39.011719-42.496094-61.890626-7.667968-17.390624-12.6875-35.734374-14.9375-54.570312h47.925782c1.65625 0 3-1.34375 3-3s-1.34375-3-3-3h-51.273438c-.847656 0-1.660156.359375-2.226562.988281-.566407.632813-.8437505 1.472657-.757813 2.316407 2.101563 20.621093 7.410156 40.703124 15.777344 59.679687 10.328125 23.558594 25.042969 44.996094 43.742187 63.714844 42.789063 42.914062 103.417969 67.523437 166.347656 67.523437 62.925782 0 123.554688-24.609375 166.34375-67.519531 18.699219-18.722656 33.414063-40.160156 43.742188-63.710937 8.367188-18.992188 13.679688-39.074219 15.777344-59.6875.082031-.84375-.191406-1.683594-.761719-2.3125zm0 0" fill="#3a312a"/><path d="m150.53125 426.332031h150.699219v23.460938h-150.699219zm0 0" fill="#87796f"/><path d="m301.230469 423.332031h-150.699219c-1.65625 0-3 1.34375-3 3v23.460938c0 1.65625 1.34375 3 3 3h150.699219c1.65625 0 3-1.34375 3-3v-23.460938c0-1.65625-1.34375-3-3-3zm-3 23.460938h-144.699219v-17.460938h144.699219zm0 0" fill="#3a312a"/><path d="m18.539062 309.035156c10.242188 23.359375 24.941407 44.597656 43.121094 62.796875h328.4375c18.183594-18.199219 32.882813-39.4375 43.121094-62.796875zm0 0" fill="#f16c7a"/><path d="m435.730469 307.390625c-.554688-.847656-1.496094-1.355469-2.511719-1.355469h-74.371094c-1.65625 0-3 1.339844-3 3 0 1.65625 1.34375 3 3 3h69.71875c-9.730468 20.855469-23.074218 39.945313-39.714844 56.796875h-325.945312c-16.640625-16.851562-29.984375-35.941406-39.714844-56.796875h305.71875c1.65625 0 3-1.34375 3-3 0-1.660156-1.34375-3-3-3h-310.367187c-1.015625 0-1.960938.507813-2.511719 1.355469-.554688.847656-.644531 1.921875-.238281 2.847656 10.328125 23.558594 25.042969 44.996094 43.746093 63.714844.558594.566406 1.324219.878906 2.121094.878906h328.441406c.796876 0 1.558594-.3125 2.121094-.878906 18.699219-18.71875 33.417969-40.15625 43.746094-63.714844.40625-.925781.316406-2-.238281-2.847656zm0 0" fill="#3a312a"/><path d="m416.21875 253.25c-2.179688 18.203125-6.960938 35.921875-14.179688 52.78125h29.179688c7.242188-16.859375 12.019531-34.578125 14.179688-52.78125zm0 0" fill="#695b51"/><path d="m353.480469 374.832031c-23.28125 21.761719-51.441407 38.261719-82.121094 48.5h29.179687c30.679688-10.238281 58.859376-26.738281 82.121094-48.5zm0 0" fill="#695b51"/><path d="m399.378906 312.035156c-9.738281 20.859375-23.078125 39.9375-39.71875 56.796875h29.199219c16.640625-16.859375 29.980469-35.9375 39.699219-56.796875zm0 0" fill="#d34e5c"/></svg>