<svg height="451pt" viewBox="0 0 451 451.7594" width="451pt" xmlns="http://www.w3.org/2000/svg"><path d="m243.949219 328.203125c-1.949219 23.125-26.050781 26.777344-26.050781 26.777344 20.695312.972656 25.851562 28.117187 25.851562 28.117187.441406-19.355468 26.640625-28.402344 26.640625-28.402344-19.625-1.175781-26.441406-26.492187-26.441406-26.492187zm0 0" fill="#d7e057"/><path d="m270.570312 351.699219c-17.207031-1.03125-23.664062-24.046875-23.726562-24.28125-.378906-1.40625-1.699219-2.332031-3.167969-2.203125-1.449219.128906-2.59375 1.28125-2.714843 2.734375-1.71875 20.429687-22.625 23.925781-23.507813 24.0625-1.527344.230469-2.628906 1.582031-2.546875 3.121093.078125 1.539063 1.3125 2.769532 2.855469 2.84375 18.054687.847657 22.996093 25.433594 23.042969 25.683594.273437 1.421875 1.519531 2.433594 2.945312 2.433594.082031 0 .167969-.003906.25-.007812 1.53125-.128907 2.714844-1.386719 2.75-2.921876.390625-17.015624 24.382812-25.550781 24.625-25.636718 1.351562-.46875 2.183594-1.828125 1.988281-3.242188-.199219-1.417968-1.363281-2.5-2.792969-2.585937zm-27.128906 20.691406c-2.714844-6.261719-7.417968-13.8125-15.171875-17.753906 5.859375-2.808594 12.8125-7.824219 16.398438-16.542969 3.105469 6.140625 8.402343 13.757812 16.667969 17.445312-6.011719 3.277344-13.84375 8.808594-17.894532 16.851563zm0 0" fill="#3a312a"/><path d="m200.550781 362.164062c-1.378906 16.355469-18.425781 18.9375-18.425781 18.9375 14.636719.691407 18.285156 19.890626 18.285156 19.890626.3125-13.6875 18.84375-20.089844 18.84375-20.089844-13.878906-.832032-18.703125-18.738282-18.703125-18.738282zm0 0" fill="#d7e057"/><path d="m219.4375 377.90625c-11.535156-.6875-15.945312-16.371094-15.988281-16.527344-.378907-1.40625-1.71875-2.335937-3.164063-2.207031-1.453125.132813-2.597656 1.289063-2.722656 2.738281-1.15625 13.738282-15.289062 16.132813-15.882812 16.226563-1.527344.230469-2.625 1.582031-2.546876 3.121093.082032 1.539063 1.316407 2.769532 2.855469 2.839844 12.070313.570313 15.449219 17.292969 15.480469 17.457032.269531 1.425781 1.515625 2.4375 2.945312 2.4375.082032 0 .164063-.003907.25-.007813 1.53125-.128906 2.714844-1.390625 2.75-2.921875.257813-11.417969 16.664063-17.269531 16.824219-17.324219 1.351563-.46875 2.1875-1.828125 1.992188-3.246093-.195313-1.417969-1.367188-2.5-2.792969-2.585938zm-19.171875 13.589844c-1.847656-3.769532-4.679687-7.894532-8.894531-10.558594 3.710937-2.082031 7.394531-5.261719 9.742187-9.832031 2.113281 3.746093 5.308594 7.90625 9.878907 10.449219-3.695313 2.199218-7.972657 5.476562-10.726563 9.941406zm0 0" fill="#3a312a"/><path d="m200.550781 308.847656c-1.378906 16.359375-18.425781 18.941406-18.425781 18.941406 14.636719.6875 18.285156 19.886719 18.285156 19.886719.3125-13.6875 18.84375-20.089843 18.84375-20.089843-13.878906-.832032-18.703125-18.738282-18.703125-18.738282zm0 0" fill="#d7e057"/><path d="m219.4375 324.59375c-11.535156-.691406-15.945312-16.375-15.988281-16.53125-.378907-1.40625-1.71875-2.335938-3.164063-2.207031-1.453125.132812-2.597656 1.289062-2.722656 2.738281-1.15625 13.742188-15.289062 16.132812-15.882812 16.226562-1.527344.230469-2.625 1.582032-2.546876 3.121094.082032 1.542969 1.316407 2.769532 2.855469 2.84375 12.070313.566406 15.449219 17.289063 15.480469 17.453125.269531 1.425781 1.515625 2.4375 2.945312 2.4375.082032 0 .164063-.003906.25-.007812 1.53125-.128907 2.714844-1.386719 2.75-2.921875.257813-11.417969 16.664063-17.265625 16.824219-17.324219 1.351563-.464844 2.1875-1.824219 1.992188-3.242187-.195313-1.417969-1.367188-2.5-2.792969-2.585938zm-19.171875 13.585938c-1.847656-3.773438-4.679687-7.894532-8.894531-10.558594 3.710937-2.082032 7.394531-5.257813 9.742187-9.832032 2.113281 3.746094 5.308594 7.910157 9.882813 10.449219-3.699219 2.195313-7.976563 5.476563-10.730469 9.941407zm0 0" fill="#3a312a"/><path d="m229.5 3.023438c-44.261719-.652344-85.605469 12.117187-120.527344 34.632812l-24.734375 18.488281c-49.386719 42.503907-80.859375 106.707031-80.859375 178.558594 0 14 1.199219 27.699219 3.5 41.019531v.019532c2.421875 14.203124 6.101563 27.941406 10.902344 41.101562 5.257812 14.441406 11.859375 28.160156 19.660156 41.039062 9.019532 14.921876 19.617188 28.679688 31.578125 41.039063 19.28125 19.980469 42.082031 36.28125 67.339844 47.863281 17.480469 8.019532 35.140625-10.421875 27.421875-28.582031-8.363281-19.679687-13.242188-43.5-13.242188-69.160156 0-1.300781.019532-2.597657.039063-3.878907.703125-36.339843 11.203125-68.660156 27.363281-90.339843 13.097656-17.578125 29.9375-28.160157 48.316406-28.160157 18.402344 0 35.242188 10.597657 48.363282 28.199219 16.160156 21.699219 26.660156 54.082031 27.320312 90.441407.019532 1.238281.039063 2.480468.039063 3.738281 0 25.660156-4.878907 49.480469-13.242188 69.160156-7.679687 18.082031 9.839844 36.617187 27.242188 28.679687 25.21875-11.539062 48-27.800781 67.300781-47.71875 11.976562-12.359374 22.597656-26.121093 31.636719-41.019531 7.820312-12.882812 14.460937-26.640625 19.742187-41.082031 4.820313-13.179688 8.519532-26.9375 10.960938-41.160156 2.296875-13.320313 3.5-27.039063 3.519531-41.039063.078125-126.121093-98.339844-230.039062-219.640625-231.839843zm0 0" fill="#f16c7a"/><g fill="#3a312a"><path d="m229.546875.0195312c-43.351563-.6015622-85.578125 11.5078128-122.199219 35.1132808-1.390625.898438-1.792968 2.753907-.894531 4.148438.898437 1.390625 2.753906 1.789062 4.144531.894531 35.625-22.964843 76.730469-34.777343 118.859375-34.15625 119.558594 1.777344 216.761719 104.433594 216.683594 228.839844-.019531 13.652344-1.1875 27.292969-3.476563 40.535156-2.371093 13.816407-6.011718 27.488281-10.820312 40.640625-5.152344 14.101563-11.710938 27.746094-19.484375 40.550782-8.898437 14.664062-19.40625 28.289062-31.230469 40.488281-19.285156 19.90625-41.625 35.746093-66.390625 47.078125-6.648437 3.035156-13.78125 1.773437-19.074219-3.378906-5.691406-5.542969-7.324218-13.945313-4.160156-21.398438 8.820313-20.757812 13.480469-45.082031 13.480469-70.332031 0-1.171875-.019531-2.328125-.039063-3.480469l-.003906-.3125c-.644531-35.628906-10.820312-69.222656-27.914062-92.179688-14.132813-18.964843-32.164063-29.40625-50.765625-29.40625-18.597657 0-36.613281 10.429688-50.726563 29.367188-17.078125 22.917969-27.265625 56.476562-27.953125 92.089844l-.003906.273437c-.019531 1.207031-.039063 2.429688-.039063 3.652344 0 25.25 4.660157 49.570313 13.480469 70.332031 3.164063 7.441406 1.539063 15.8125-4.132812 21.328125-5.332031 5.1875-12.539063 6.441407-19.277344 3.351563-24.832031-11.382813-47.1875-27.269532-66.433594-47.21875-11.816406-12.210938-22.304687-25.839844-31.171875-40.507813-7.738281-12.78125-14.269531-26.410156-19.40625-40.511719-4.78125-13.109374-8.390625-26.71875-10.738281-40.453124-.003906-.050782-.015625-.105469-.023437-.152344-2.292969-13.277344-3.457032-26.90625-3.457032-40.507813 0-68.378906 29.09375-132.632812 79.816406-176.289062 1.253907-1.078125 1.394532-2.972657.3125-4.230469-1.078124-1.253906-2.96875-1.394531-4.226562-.3125-52.050781 44.792969-81.902344 110.703125-81.902344 180.832031 0 13.898438 1.1875 27.828125 3.523438 41.402344.003906.046875.011718.09375.019531.140625 2.40625 14.132812 6.121094 28.136719 11.039063 41.621094 5.269531 14.464844 11.96875 28.453125 19.914062 41.5625 9.097656 15.050781 19.859375 29.039062 31.988281 41.570312 19.765625 20.488282 42.726563 36.808594 68.246094 48.503906 8.933594 4.109376 18.882813 2.378907 25.960937-4.503906 7.460938-7.253906 9.609376-18.238281 5.46875-27.972656-8.503906-20.027344-13-43.539062-13-67.988281 0-1.191407.015626-2.382813.035157-3.558594l.003906-.261719c.660156-34.378906 10.417969-66.671875 26.765625-88.605468 12.953125-17.382813 29.261719-26.957032 45.914062-26.957032 16.660157 0 32.980469 9.585938 45.957032 26.992188 16.359375 21.96875 26.101562 54.300781 26.726562 88.695312l.003906.308594c.019532 1.121094.035157 2.246094.035157 3.386719 0 24.449219-4.496094 47.957031-13 67.984375-4.140625 9.75-1.984375 20.757812 5.496093 28.042968 4.519532 4.398438 10.210938 6.6875 16.050782 6.6875 3.246094 0 6.535156-.707031 9.703125-2.148437 25.453125-11.644531 48.398437-27.917969 68.203125-48.363281 12.136718-12.519532 22.921875-26.5 32.050781-41.546875 7.976563-13.140625 14.703125-27.140625 19.992187-41.609375 4.933594-13.488282 8.667969-27.511719 11.097657-41.679688 2.34375-13.574218 3.542969-27.550781 3.5625-41.546875.085937-127.667969-99.769531-233.019531-222.589844-234.8437498zm0 0"/><path d="m448.574219 275.390625c-19.148438-110.394531-111.265625-191.667969-219.03125-193.246094-54.050781-.777343-106.527344 18.511719-147.894531 54.367188-40.816407 35.378906-68.417969 84.636719-77.726563 138.703125-.03125.167968-.042969.339844-.042969.507812v.019532c0 1.65625 1.34375 2.992187 3 2.992187 1.503906 0 2.746094-1.113281 2.964844-2.554687 9.082031-52.683594 35.976562-100.671876 75.734375-135.132813 40.253906-34.890625 91.417969-53.714844 143.878906-52.902344 104.882813 1.535157 194.546875 80.71875 213.207031 188.273438.25 1.460937 1.519532 2.488281 2.953126 2.488281.167968 0 .34375-.015625.515624-.042969 1.632813-.289062 2.726563-1.84375 2.441407-3.472656zm0 0"/><path d="m437.503906 316.113281c-13.324218-39.960937-43.121094-79.292969-83.890625-110.75-1.308593-1.015625-3.199219-.773437-4.210937.539063-1.011719 1.3125-.769532 3.195312.542968 4.210937 39.839844 30.734375 68.914063 69.054688 81.867188 107.898438.421875 1.253906 1.589844 2.050781 2.847656 2.050781.3125 0 .632813-.050781.949219-.15625 1.574219-.519531 2.421875-2.222656 1.894531-3.792969zm0 0"/><path d="m320.332031 185.664062c-25.097656-12.042968-51.804687-19.097656-79.382812-20.953124-48.8125-3.261719-98.128907 10.246093-138.816407 38.097656-39.507812 27.046875-70.46875 67.179687-87.171874 113.007812-.566407 1.558594.234374 3.28125 1.792968 3.847656.339844.125.6875.179688 1.027344.179688 1.222656 0 2.375-.753906 2.820312-1.96875 16.277344-44.660156 46.4375-83.769531 84.925782-110.117188 39.578125-27.09375 87.535156-40.261718 135.019531-37.058593 26.8125 1.804687 52.785156 8.660156 77.191406 20.375 1.5.71875 3.289063.089843 4.003907-1.40625.714843-1.492188.082031-3.285157-1.410157-4.003907zm0 0"/><path d="m417.484375 356.585938c-32.117187-52.988282-83.945313-91.128907-142.1875-104.644532-1.625-.371094-3.226563.628906-3.601563 2.242188-.375 1.617187.628907 3.226562 2.246094 3.601562 56.675782 13.152344 107.125 50.296875 138.410156 101.914063.5625.929687 1.554688 1.445312 2.566407 1.445312.535156 0 1.066406-.140625 1.554687-.433593 1.417969-.863282 1.871094-2.707032 1.011719-4.125zm0 0"/><path d="m180.863281 254.152344c-.371093-1.613282-1.972656-2.625-3.59375-2.253906-58.472656 13.410156-110.375 51.476562-142.394531 104.433593-.859375 1.417969-.40625 3.261719 1.011719 4.121094.488281.292969 1.023437.433594 1.550781.433594 1.015625 0 2.007812-.515625 2.566406-1.449219 31.191406-51.574219 81.707032-88.636719 138.605469-101.691406 1.613281-.371094 2.625-1.980469 2.253906-3.59375zm0 0"/><path d="m153.386719 344.109375c-.578125-1.550781-2.3125-2.339844-3.859375-1.757813-30.734375 11.527344-59.320313 30.367188-82.664063 54.484376-1.152343 1.191406-1.125 3.089843.070313 4.242187.582031.5625 1.332031.84375 2.085937.84375.78125 0 1.5625-.304687 2.152344-.914063 22.730469-23.480468 50.554687-41.824218 80.460937-53.039062 1.554688-.578125 2.335938-2.308594 1.753907-3.859375zm0 0"/><path d="m385.441406 397.082031c-23.285156-24.140625-51.792968-43.015625-82.445312-54.585937-1.535156-.574219-3.277344.199218-3.863282 1.75-.585937 1.546875.195313 3.28125 1.746094 3.867187 29.824219 11.257813 57.570313 29.628907 80.238282 53.132813.589843.609375 1.375.917968 2.160156.917968.75 0 1.5-.28125 2.082031-.839843 1.195313-1.152344 1.226563-3.054688.082031-4.242188zm0 0"/></g><path d="m354.378906 377.683594c-5.660156 7.539062-11.820312 14.71875-18.359375 21.480468-13.300781 13.71875-28.238281 25.699219-44.5 35.621094.960938 2.199219 2.339844 4.238282 4.140625 6 5.300782 5.136719 12.417969 6.398438 19.078125 3.378906 23.882813-10.941406 45.480469-26.101562 64.300781-45.019531-7.699218-7.761719-15.960937-14.941406-24.660156-21.460937zm0 0" fill="#d34e5c"/><path d="m392.039062 166.824219c6.421876 21.558593 9.859376 44.398437 9.839844 68.042969 0 5.417968-.199218 10.816406-.558594 16.136718 13.578126 17.300782 24.757813 36.5625 33.179688 57.320313 3.441406-10.597657 6.160156-21.457031 8.058594-32.417969-7.300782-41.582031-25.21875-78.882812-50.519532-109.082031zm0 0" fill="#d34e5c"/><path d="m385 323.34375c-4.839844 12.160156-10.660156 23.800781-17.339844 34.800781-3.058594 5.039063-6.28125 9.9375-9.71875 14.699219 8.917969 6.679688 17.378906 14.039062 25.277344 22 10.5625-11.179688 20.019531-23.5 28.160156-36.699219-7.71875-12.519531-16.578125-24.160156-26.378906-34.800781zm0 0" fill="#d34e5c"/><path d="m229.460938 6.023438c-1.0625-.019532-2.140626-.019532-3.203126-.019532-3.378906 0-6.757812.078125-10.117187.238282 78.519531 13.820312 143.339844 70.78125 171.117187 146.222656 27.261719 28.777344 47.523438 64.957031 57.683594 105.738281.757813-7.738281 1.179688-15.519531 1.199219-23.339844.078125-124.398437-97.121094-227.058593-216.679687-228.839843zm0 0" fill="#d34e5c"/><path d="m400.558594 259.921875c-.558594 5.382813-1.300782 10.722656-2.199219 15.980469-2.441406 14.222656-6.140625 27.980468-10.960937 41.160156v.019531c10.160156 10.761719 19.382812 22.582031 27.460937 35.28125 6.5-11.261719 12.058594-23.101562 16.582031-35.300781-7.660156-20.640625-18.0625-39.820312-30.882812-57.140625zm0 0" fill="#d34e5c"/></svg>