<svg height="453pt" viewBox="0 0 453.728 453" width="453pt" xmlns="http://www.w3.org/2000/svg"><path d="m76.058594 272.820312c-3.421875-3.417968-6.339844-7.160156-8.742188-11.136718l-40.214844 40.214844-24.105468 24.101562 19.902344 19.878906 64.300781-64.300781c-3.980469-2.394531-7.722657-5.335937-11.140625-8.757813zm0 0" fill="#87796f"/><path d="m90.175781 281.21875c-.113281-.917969-.640625-1.730469-1.429687-2.207031-3.773438-2.277344-7.328125-5.070313-10.566406-8.3125-3.210938-3.207031-6-6.761719-8.292969-10.566407-.476563-.789062-1.289063-1.320312-2.207031-1.429687-.914063-.105469-1.832032.203125-2.484376.855469l-18.429687 18.433594c-1.171875 1.171874-1.171875 3.070312 0 4.242187s3.070313 1.171875 4.242187 0l15.808594-15.808594c2.09375 3.023438 4.480469 5.878907 7.121094 8.519531 2.65625 2.65625 5.511719 5.046876 8.515625 7.136719l-59.558594 59.554688-15.652343-15.636719 21.980468-21.980469c1.171875-1.171875 1.171875-3.070312 0-4.242187s-3.070312-1.171875-4.242187 0l-24.101563 24.101562c-.566406.5625-.878906 1.328125-.878906 2.125 0 .792969.316406 1.558594.878906 2.121094l19.902344 19.878906c.585938.585938 1.351562.875 2.117188.875.769531 0 1.535156-.289062 2.121093-.875l64.300781-64.300781c.648438-.652344.96875-1.570313.855469-2.484375zm0 0" fill="#3a312a"/><path d="m345.550781 62.753906c0 32.816406-26.601562 59.417969-59.417969 59.417969-32.816406 0-59.417968-26.601563-59.417968-59.417969s26.601562-59.417968 59.417968-59.417968c32.816407 0 59.417969 26.601562 59.417969 59.417968zm0 0" fill="#d7e057"/><path d="m330.269531 18.617188c-24.335937-24.335938-63.933593-24.335938-88.273437 0-24.335938 24.335937-24.335938 63.933593 0 88.273437 12.167968 12.167969 28.152344 18.25 44.136718 18.25 15.984376 0 31.96875-6.082031 44.136719-18.25 24.339844-24.339844 24.339844-63.9375 0-88.273437zm-4.242187 84.03125c-21.996094 21.996093-57.789063 21.992187-79.789063 0-21.996093-22-21.996093-57.792969 0-79.789063 11-11 25.449219-16.496094 39.894531-16.496094 14.445313 0 28.898438 5.5 39.894532 16.496094 10.65625 10.65625 16.523437 24.824219 16.523437 39.894531 0 15.070313-5.867187 29.238282-16.523437 39.894532zm0 0" fill="#3a312a"/><path d="m261.523438 146.785156c0 32.816406-26.605469 59.417969-59.417969 59.417969-32.816407 0-59.417969-26.601563-59.417969-59.417969s26.601562-59.417968 59.417969-59.417968c32.8125 0 59.417969 26.601562 59.417969 59.417968zm0 0" fill="#d7e057"/><path d="m246.238281 102.648438c-11.789062-11.789063-27.460937-18.285157-44.132812-18.285157-16.675781 0-32.347657 6.496094-44.136719 18.285157-11.789062 11.789062-18.28125 27.460937-18.28125 44.136718 0 16.671875 6.492188 32.34375 18.28125 44.132813 11.789062 11.789062 27.460938 18.285156 44.136719 18.285156 16.671875 0 32.34375-6.496094 44.132812-18.285156 11.792969-11.789063 18.285157-27.460938 18.285157-44.132813 0-16.675781-6.492188-32.347656-18.285157-44.136718zm-4.242187 84.027343c-10.652344 10.65625-24.820313 16.527344-39.890625 16.527344-15.070313 0-29.238281-5.871094-39.894531-16.527344s-16.523438-24.824219-16.523438-39.890625c0-15.070312 5.867188-29.238281 16.523438-39.894531s24.824218-16.527344 39.894531-16.527344c15.070312 0 29.238281 5.871094 39.890625 16.527344 10.65625 10.65625 16.527344 24.824219 16.527344 39.894531 0 15.066406-5.871094 29.234375-16.527344 39.890625zm0 0" fill="#3a312a"/><path d="m177.492188 230.8125c0 32.816406-26.601563 59.417969-59.417969 59.417969-32.816407 0-59.417969-26.601563-59.417969-59.417969 0-32.8125 26.601562-59.417969 59.417969-59.417969 32.816406 0 59.417969 26.605469 59.417969 59.417969zm0 0" fill="#d7e057"/><path d="m162.210938 186.675781c-24.335938-24.332031-63.9375-24.335937-88.273438 0-24.335938 24.339844-24.335938 63.9375 0 88.273438 12.171875 12.171875 28.152344 18.253906 44.136719 18.253906 15.980469 0 31.96875-6.085937 44.136719-18.253906 24.335937-24.335938 24.335937-63.933594 0-88.273438zm-4.242188 84.03125c-22 21.996094-57.792969 21.996094-79.789062 0-10.65625-10.65625-16.523438-24.824219-16.523438-39.894531s5.867188-29.238281 16.523438-39.890625c11-11 25.445312-16.496094 39.894531-16.496094 14.445312 0 28.894531 5.5 39.894531 16.496094 21.996094 21.992187 21.996094 57.789063 0 79.785156zm0 0" fill="#3a312a"/><path d="m181.257812 378.042969c-3.417968-3.441407-6.339843-7.179688-8.738281-11.140625l-64.300781 64.300781 19.878906 19.878906 64.300782-64.300781c-3.960938-2.402344-7.699219-5.320312-11.140626-8.738281zm0 0" fill="#87796f"/><path d="m195.375 386.421875c-.109375-.917969-.636719-1.730469-1.421875-2.210937-3.792969-2.296876-7.351563-5.089844-10.570313-8.289063-3.207031-3.226563-6.003906-6.789063-8.300781-10.578125-.476562-.789062-1.292969-1.3125-2.207031-1.421875-.914062-.105469-1.828125.203125-2.480469.855469l-20.574219 20.574218c-1.171874 1.171876-1.171874 3.070313 0 4.242188 1.171876 1.171875 3.070313 1.171875 4.242188 0l17.960938-17.957031c2.09375 3.011719 4.476562 5.871093 7.117187 8.527343 2.652344 2.632813 5.503906 5.015626 8.515625 7.109376l-59.558594 59.5625-15.636718-15.636719 19.746093-19.746094c1.171875-1.171875 1.171875-3.070313 0-4.242187-1.171875-1.171876-3.070312-1.171876-4.242187 0l-21.867188 21.867187c-.5625.5625-.878906 1.324219-.878906 2.121094 0 .792969.316406 1.558593.878906 2.121093l19.878906 19.878907c.585938.585937 1.355469.878906 2.125.878906.765626 0 1.535157-.292969 2.121094-.878906l64.300782-64.300781c.648437-.648438.960937-1.5625.851562-2.476563zm0 0" fill="#3a312a"/><path d="m450.757812 167.957031c0 32.816407-26.601562 59.417969-59.417968 59.417969s-59.417969-26.601562-59.417969-59.417969c0-32.816406 26.601563-59.417969 59.417969-59.417969s59.417968 26.601563 59.417968 59.417969zm0 0" fill="#d7e057"/><path d="m435.476562 123.820312c-24.335937-24.332031-63.933593-24.335937-88.273437 0-24.335937 24.339844-24.335937 63.9375 0 88.277344 11.789063 11.789063 27.464844 18.28125 44.136719 18.28125s32.347656-6.492187 44.136718-18.28125c24.335938-24.339844 24.335938-63.9375 0-88.277344zm-4.242187 84.03125c-10.65625 10.65625-24.824219 16.527344-39.894531 16.527344-15.070313 0-29.238282-5.871094-39.894532-16.527344s-16.523437-24.824218-16.523437-39.894531c0-15.070312 5.867187-29.238281 16.523437-39.894531 11-11 25.445313-16.496094 39.894532-16.496094 14.445312 0 28.894531 5.5 39.894531 16.496094 21.996094 22 21.996094 57.792969 0 79.789062zm0 0" fill="#3a312a"/><path d="m366.726562 251.988281c0 32.816407-26.601562 59.417969-59.417968 59.417969-32.8125 0-59.417969-26.601562-59.417969-59.417969 0-32.816406 26.605469-59.417969 59.417969-59.417969 32.816406 0 59.417968 26.601563 59.417968 59.417969zm0 0" fill="#d7e057"/><path d="m351.445312 207.851562c-11.789062-11.789062-27.464843-18.285156-44.136718-18.285156s-32.34375 6.496094-44.132813 18.285156c-11.792969 11.789063-18.285156 27.464844-18.285156 44.136719s6.492187 32.347657 18.285156 44.132813c11.789063 11.789062 27.460938 18.285156 44.132813 18.285156s32.347656-6.496094 44.136718-18.285156c11.789063-11.785156 18.28125-27.460938 18.28125-44.132813s-6.492187-32.347656-18.28125-44.136719zm-4.242187 84.03125c-10.65625 10.65625-24.824219 16.523438-39.894531 16.523438-15.070313 0-29.238282-5.867188-39.894532-16.523438-10.652343-10.65625-16.523437-24.824218-16.523437-39.894531 0-15.066406 5.871094-29.234375 16.523437-39.890625 10.65625-10.65625 24.824219-16.527344 39.894532-16.527344 15.070312 0 29.238281 5.867188 39.894531 16.527344 10.65625 10.65625 16.523437 24.824219 16.523437 39.890625 0 15.070313-5.867187 29.238281-16.523437 39.894531zm0 0" fill="#3a312a"/><path d="m282.699219 336.019531c0 32.8125-26.605469 59.417969-59.417969 59.417969-32.816406 0-59.417969-26.605469-59.417969-59.417969 0-32.816406 26.601563-59.417969 59.417969-59.417969 32.8125 0 59.417969 26.601563 59.417969 59.417969zm0 0" fill="#d7e057"/><path d="m267.414062 291.882812c-24.335937-24.335937-63.933593-24.335937-88.269531 0-24.335937 24.335938-24.335937 63.933594 0 88.273438 12.167969 12.167969 28.148438 18.25 44.136719 18.25 15.980469 0 31.96875-6.085938 44.132812-18.25 24.339844-24.339844 24.339844-63.9375 0-88.273438zm-4.238281 84.027344c-22 21.996094-57.792969 21.996094-79.789062 0-21.996094-21.996094-21.996094-57.789062 0-79.789062 11-11 25.441406-16.496094 39.894531-16.496094 14.445312 0 28.894531 5.5 39.894531 16.496094 21.996094 22 21.996094 57.792968 0 79.789062zm0 0" fill="#3a312a"/><g fill="#b9c239"><path d="m326.039062 22.863281c-11-11-25.460937-16.5-39.902343-16.5-3.480469 0-6.957031.320313-10.398438.980469 10.800781 2 21.140625 7.179688 29.480469 15.519531 22 22 22 57.777344 0 79.777344-8.339844 8.339844-18.660156 13.519531-29.480469 15.519531 17.679688 3.320313 36.640625-1.859375 50.300781-15.519531 21.980469-22 21.980469-57.777344 0-79.777344zm0 0"/><path d="m241.996094 106.878906c-10.65625-10.640625-24.816406-16.519531-39.898438-16.519531-3.519531 0-7 .320313-10.398437.960937 11.117187 2.058594 21.339843 7.398438 29.5 15.558594 10.660156 10.660156 16.519531 24.839844 16.519531 39.902344 0 15.078125-5.859375 29.238281-16.519531 39.898438-8.160157 8.160156-18.382813 13.519531-29.5 15.558593 3.398437.640625 6.878906.960938 10.398437.960938 15.082032 0 29.242188-5.859375 39.898438-16.519531 10.660156-10.660157 16.523437-24.820313 16.523437-39.898438 0-15.058594-5.863281-29.242188-16.523437-39.902344zm0 0"/><path d="m157.976562 190.921875c-11-11-25.457031-16.5-39.898437-16.5-3.480469 0-6.960937.316406-10.398437.976563 10.796874 2 21.136718 7.179687 29.476562 15.523437 10.660156 10.65625 16.523438 24.816406 16.523438 39.898437 0 15.058594-5.863282 29.238282-16.523438 39.878907-8.339844 8.339843-18.679688 13.519531-29.476562 15.519531 17.679687 3.320312 36.636718-1.859375 50.296874-15.519531 10.640626-10.640625 16.519532-24.820313 16.519532-39.878907 0-15.078124-5.878906-29.238281-16.519532-39.898437zm0 0"/><path d="m431.238281 128.058594c-11-11-25.460937-16.5-39.898437-16.5-3.480469 0-6.960938.320312-10.402344.980468 10.820312 2 21.160156 7.179688 29.5 15.519532 21.980469 22 21.980469 57.800781 0 79.800781-8.160156 8.140625-18.398438 13.5-29.5 15.5625 3.402344.636719 6.878906.957031 10.402344.957031 15.078125 0 29.238281-5.878906 39.898437-16.519531 22-21.996094 22-57.800781 0-79.800781zm0 0"/><path d="m347.199219 212.101562c-10.660157-10.660156-24.820313-16.539062-39.882813-16.539062-3.519531 0-7 .320312-10.398437.960938 11.101562 2.058593 21.320312 7.417968 29.480469 15.578124 10.660156 10.640626 16.519531 24.820313 16.519531 39.878907 0 15.082031-5.859375 29.242187-16.519531 39.902343-8.160157 8.160157-18.378907 13.5-29.480469 15.558594 3.398437.640625 6.878906.960938 10.398437.960938 15.0625 0 29.222656-5.859375 39.882813-16.519532 10.660156-10.660156 16.539062-24.820312 16.539062-39.902343 0-15.058594-5.878906-29.238281-16.539062-39.878907zm0 0"/><path d="m263.179688 296.121094c-11-11-25.460938-16.5-39.902344-16.5-3.480469 0-6.960938.320312-10.398438.980468 10.820313 2 21.160156 7.179688 29.5 15.519532 21.980469 22 21.980469 57.800781 0 79.800781-8.339844 8.339844-18.679687 13.5-29.5 15.5 17.679688 3.316406 36.640625-1.863281 50.300782-15.5 22-22 22-57.800781 0-79.800781zm0 0"/></g><path d="m67.339844 23.902344c-1.949219 23.128906-26.050782 26.78125-26.050782 26.78125 20.695313.972656 25.851563 28.117187 25.851563 28.117187.441406-19.351562 26.640625-28.402343 26.640625-28.402343-19.625-1.175782-26.441406-26.496094-26.441406-26.496094zm0 0" fill="#d7e057"/><path d="m93.960938 47.402344c-17.207032-1.027344-23.664063-24.046875-23.726563-24.28125-.378906-1.40625-1.726563-2.339844-3.164063-2.203125-1.449218.132812-2.597656 1.285156-2.71875 2.734375-1.71875 20.429687-22.625 23.925781-23.507812 24.0625-1.527344.234375-2.625 1.582031-2.546875 3.121094.082031 1.542968 1.316406 2.769531 2.855469 2.84375 18.058594.847656 23 25.433593 23.046875 25.683593.273437 1.421875 1.515625 2.433594 2.941406 2.433594.085937 0 .167969-.003906.253906-.007813 1.527344-.128906 2.714844-1.386718 2.75-2.921874.386719-17.015626 24.382813-25.554688 24.625-25.636719 1.347657-.46875 2.183594-1.828125 1.988281-3.246094-.199218-1.414063-1.367187-2.496094-2.796874-2.582031zm-27.128907 20.691406c-2.714843-6.261719-7.417969-13.8125-15.175781-17.753906 5.863281-2.808594 12.820312-7.824219 16.40625-16.542969 3.101562 6.140625 8.398438 13.757813 16.667969 17.445313-6.015625 3.277343-13.847657 8.808593-17.898438 16.851562zm0 0" fill="#3a312a"/><path d="m23.941406 57.867188c-1.378906 16.355468-18.421875 18.9375-18.421875 18.9375 14.632813.6875 18.28125 19.890624 18.28125 19.890624.3125-13.6875 18.84375-20.089843 18.84375-20.089843-13.878906-.832031-18.703125-18.738281-18.703125-18.738281zm0 0" fill="#d7e057"/><path d="m42.824219 73.609375c-11.53125-.6875-15.945313-16.371094-15.984375-16.53125-.382813-1.402344-1.710938-2.335937-3.164063-2.203125s-2.601562 1.285156-2.722656 2.738281c-1.15625 13.738281-15.292969 16.128907-15.882813 16.222657-1.527343.230468-2.625 1.582031-2.546874 3.121093.082031 1.542969 1.316406 2.769531 2.855468 2.84375 12.070313.566407 15.445313 17.289063 15.476563 17.453125.269531 1.425782 1.519531 2.4375 2.945312 2.4375.082031 0 .164063-.003906.25-.007812 1.527344-.128906 2.714844-1.386719 2.75-2.921875.261719-11.417969 16.664063-17.269531 16.824219-17.324219 1.355469-.46875 2.1875-1.824219 1.992188-3.242188-.195313-1.417968-1.363282-2.5-2.792969-2.585937zm-19.167969 13.589844c-1.847656-3.769531-4.679688-7.894531-8.894531-10.558594 3.710937-2.082031 7.394531-5.261719 9.742187-9.832031 2.113282 3.746094 5.308594 7.90625 9.882813 10.449218-3.699219 2.199219-7.980469 5.476563-10.730469 9.941407zm0 0" fill="#3a312a"/><path d="m23.941406 4.550781c-1.378906 16.355469-18.421875 18.941407-18.421875 18.941407 14.632813.6875 18.28125 19.886718 18.28125 19.886718.3125-13.6875 18.84375-20.089844 18.84375-20.089844-13.878906-.832031-18.703125-18.738281-18.703125-18.738281zm0 0" fill="#d7e057"/><path d="m42.824219 20.296875c-11.53125-.691406-15.941407-16.371094-15.984375-16.53125-.382813-1.40625-1.710938-2.339844-3.164063-2.203125-1.453125.128906-2.601562 1.285156-2.722656 2.734375-1.15625 13.742187-15.292969 16.132813-15.882813 16.226563-1.527343.234374-2.625 1.582031-2.546874 3.121093.082031 1.542969 1.316406 2.769531 2.855468 2.84375 12.070313.566407 15.445313 17.289063 15.476563 17.453125.269531 1.425782 1.519531 2.441406 2.945312 2.441406.082031 0 .164063-.003906.25-.011718 1.527344-.125 2.714844-1.386719 2.75-2.921875.261719-11.417969 16.664063-17.265625 16.824219-17.320313 1.351562-.46875 2.1875-1.828125 1.992188-3.246094-.195313-1.417968-1.363282-2.5-2.792969-2.585937zm-19.167969 13.585937c-1.847656-3.769531-4.679688-7.894531-8.894531-10.558593 3.710937-2.082031 7.394531-5.257813 9.742187-9.832031 2.113282 3.746093 5.308594 7.910156 9.882813 10.449218-3.699219 2.199219-7.980469 5.476563-10.730469 9.941406zm0 0" fill="#3a312a"/></svg>