<svg height="452pt" viewBox="0 0 452.57021 452" width="452pt" xmlns="http://www.w3.org/2000/svg"><path d="m41.027344 35.183594-3.0625-25.523438c-.660156-5.519531-7.050782-8.25-11.5-4.917968l-20.570313 15.410156c-4.449219 3.335937-3.621093 10.234375 1.492188 12.421875l23.628906 10.109375c5.113281 2.183594 10.675781-1.980469 10.011719-7.5zm0 0" fill="#f16c7a"/><path d="m44.003906 34.824219-3.058594-25.519531c-.441406-3.671876-2.734374-6.726563-6.128906-8.179688-3.402344-1.457031-7.191406-1-10.152344 1.214844l-20.570312 15.410156c-2.957031 2.21875-4.457031 5.730469-4.0195312 9.398438.4414062 3.667968 2.7343752 6.726562 6.1289062 8.179687l23.628906 10.109375c1.316407.5625 2.6875.839844 4.046875.839844 2.160156 0 4.289063-.699219 6.101563-2.058594 2.964843-2.214844 4.46875-5.726562 4.023437-9.394531zm-7.617187 4.597656c-1.222657.914063-2.789063 1.101563-4.191407.503906l-23.628906-10.109375c-1.40625-.601562-2.351562-1.863281-2.53125-3.378906-.183594-1.519531.4375-2.96875 1.660156-3.882812l20.566407-15.414063c.75-.5625 1.628906-.847656 2.523437-.847656.558594 0 1.125.113281 1.671875.34375 1.402344.601562 2.347657 1.863281 2.53125 3.378906l3.0625 25.519531c.179688 1.519532-.441406 2.96875-1.664062 3.886719zm0 0" fill="#3a312a"/><path d="m446.679688 20.152344-20.570313-15.410156c-4.449219-3.335938-10.835937-.601563-11.5 4.917968l-3.0625 25.523438c-.660156 5.519531 4.902344 9.683594 10.011719 7.5l23.632812-10.109375c5.109375-2.1875 5.9375-9.085938 1.488282-12.421875zm0 0" fill="#f16c7a"/><path d="m448.476562 17.75-20.570312-15.410156c-2.957031-2.214844-6.75-2.671875-10.148438-1.214844-3.398437 1.453125-5.6875 4.511719-6.128906 8.179688l-3.0625 25.519531c-.4375 3.667969 1.0625 7.179687 4.019532 9.398437 1.816406 1.359375 3.945312 2.054688 6.105468 2.054688 1.359375 0 2.730469-.277344 4.042969-.835938l23.632813-10.109375c3.394531-1.453125 5.6875-4.511719 6.125-8.179687.445312-3.671875-1.058594-7.183594-4.015626-9.402344zm-4.46875 12.066406-23.628906 10.109375c-1.402344.597657-2.96875.410157-4.191406-.503906-1.222656-.917969-1.84375-2.367187-1.660156-3.882813l3.058594-25.519531c.183593-1.515625 1.128906-2.777343 2.535156-3.378906s2.96875-.410156 4.191406.503906l20.570312 15.410157c1.21875.914062 1.839844 2.367187 1.660157 3.882812-.183594 1.515625-1.132813 2.777344-2.535157 3.378906zm0 0" fill="#3a312a"/><path d="m226.289062 336.292969c-6.761718 0-13.261718-1.082031-19.339843-3.0625v41.09375h.003906v31.691406h-.003906v43.035156h38.679687v-115.820312c-6.082031 1.980469-12.582031 3.0625-19.339844 3.0625zm0 0" fill="#87796f"/><path d="m247.390625 330.804688c-.777344-.566407-1.78125-.722657-2.691406-.425782-11.871094 3.867188-24.957031 3.867188-36.824219 0-.914062-.296875-1.910156-.140625-2.691406.425782-.777344.5625-1.238282 1.464843-1.238282 2.425781v41.09375c0 1.660156 1.351563 3 3.007813 3s2.996094-1.339844 2.996094-3c0-.046875 0-.09375-.003907-.140625v-36.953125c10.640626 2.738281 22.039063 2.738281 32.679688 0v108.820312h-32.679688v-39.890625c.003907-.046875.003907-.09375.003907-.140625 0-1.660156-1.347657-3-3.003907-3s-3 1.339844-3 3v43.03125c0 1.660157 1.34375 3 3 3h38.679688c1.660156 0 3-1.339843 3-3v-115.820312c.003906-.957031-.457031-1.859375-1.234375-2.425781zm0 0" fill="#3a312a"/><path d="m275.542969 149.582031c-7.324219 0-13.261719 5.9375-13.261719 13.261719v73.59375c0 6.277344-5.089844 11.367188-11.367188 11.367188-6.277343 0-11.363281-5.089844-11.363281-11.367188v-73.59375c0-7.324219-5.9375-13.261719-13.261719-13.261719-7.324218 0-13.261718 5.9375-13.261718 13.261719v73.59375c0 6.277344-5.09375 11.367188-11.367188 11.367188-6.277344 0-11.367187-5.089844-11.367187-11.367188v-73.59375c0-7.324219-5.9375-13.261719-13.261719-13.261719s-13.261719 5.9375-13.261719 13.261719v110.933594c0 34.527344 27.988281 62.515625 62.515625 62.515625s62.515625-27.988281 62.515625-62.515625v-110.933594c.003907-7.324219-5.933593-13.261719-13.257812-13.261719zm0 0" fill="#87796f"/><path d="m275.542969 146.582031c-8.964844 0-16.261719 7.292969-16.261719 16.261719v73.59375c0 4.613281-3.753906 8.363281-8.367188 8.363281-4.613281 0-8.367187-3.75-8.367187-8.363281v-73.59375c0-8.96875-7.296875-16.261719-16.257813-16.261719-8.96875 0-16.261718 7.292969-16.261718 16.261719v73.59375c0 4.613281-3.753906 8.363281-8.367188 8.363281-4.613281 0-8.367187-3.75-8.367187-8.363281v-73.59375c0-8.96875-7.292969-16.261719-16.261719-16.261719-8.964844 0-16.257812 7.292969-16.257812 16.261719v110.933594c0 36.125 29.386718 65.515625 65.515624 65.515625 36.125 0 65.515626-29.390625 65.515626-65.515625v-110.933594c0-8.964844-7.296876-16.261719-16.261719-16.261719zm10.261719 127.195313c0 32.820312-26.703126 59.515625-59.515626 59.515625-32.816406 0-59.515624-26.699219-59.515624-59.515625v-110.933594c0-5.660156 4.601562-10.261719 10.257812-10.261719 5.660156 0 10.261719 4.601563 10.261719 10.261719v73.59375c0 7.921875 6.445312 14.363281 14.367187 14.363281s14.367188-6.441406 14.367188-14.363281v-73.59375c0-5.660156 4.601562-10.261719 10.261718-10.261719 5.65625 0 10.257813 4.601563 10.257813 10.261719v73.59375c0 7.921875 6.445313 14.363281 14.367187 14.363281 7.921876 0 14.367188-6.441406 14.367188-14.363281v-73.59375c0-5.660156 4.605469-10.261719 10.261719-10.261719 5.660156 0 10.261719 4.601563 10.261719 10.261719zm0 0" fill="#3a312a"/><path d="m414.414062 34.230469c-23.253906-17.007813-55.890624-11.945313-72.902343 11.308593-20.453125 27.964844-51.46875 48.144532-85.097657 55.363282-26.941406 5.789062-55.441406 3.429687-81.078124-6.28125l-26.792969-13.597656c-14.425781-9.425782-27.3125-21.585938-37.484375-35.492188-17.015625-23.25-49.652344-28.308594-72.90625-11.292969-23.25 17.011719-28.308594 49.652344-11.292969 72.90625 19.597656 26.785157 45.019531 49.882813 73.515625 66.796875 38.042969 22.578125 82.320312 34.371094 126.636719 34.371094 17.214843 0 34.445312-1.777344 51.304687-5.402344 59.171875-12.703125 111.523438-46.71875 147.40625-95.773437 17.007813-23.257813 11.945313-55.898438-11.308594-72.90625zm0 0" fill="#f16c7a"/><path d="m416.1875 31.808594c-11.894531-8.699219-26.46875-12.246094-41.023438-9.988282-14.5625 2.257813-27.371093 10.050782-36.074218 21.945313-20.023438 27.378906-50.386719 47.132813-83.304688 54.199219-25.988281 5.585937-54.179687 3.398437-79.386718-6.15625-1.550782-.585938-3.28125.195312-3.867188 1.742187-.589844 1.550781.191406 3.28125 1.742188 3.871094 26.269531 9.957031 55.667968 12.230469 82.769531 6.410156 34.335937-7.371093 66.007812-27.972656 86.890625-56.523437 7.75-10.601563 19.167968-17.546875 32.144531-19.5625 12.984375-2.011719 25.964844 1.148437 36.5625 8.90625 10.601563 7.75 17.546875 19.167968 19.5625 32.148437 2.011719 12.976563-1.148437 25.960938-8.902344 36.5625-35.449219 48.460938-87.160156 82.0625-145.613281 94.613281-16.484375 3.542969-33.535156 5.335938-50.675781 5.335938-44.421875 0-87.683594-11.742188-125.109375-33.957031-28.148438-16.707031-53.261719-39.523438-72.621094-65.984375-16.007812-21.878906-11.234375-52.703125 10.640625-68.714844 21.882813-16.007812 52.707031-11.230469 68.714844 10.644531 10.296875 14.078125 23.53125 26.605469 38.265625 36.230469 1.390625.90625 3.25.515625 4.152344-.871094.90625-1.386718.515624-3.246094-.871094-4.152344-14.136719-9.234374-26.828125-21.25-36.703125-34.75-17.964844-24.546874-52.550781-29.90625-77.097657-11.945312-24.550781 17.964844-29.90625 52.550781-11.945312 77.097656 19.835938 27.109375 45.566406 50.488282 74.40625 67.605469 38.351562 22.761719 82.667969 34.792969 128.167969 34.792969 17.566406 0 35.039062-1.839844 51.9375-5.464844 59.894531-12.863281 112.878906-47.289062 149.195312-96.941406 17.957031-24.550782 12.59375-59.132813-11.957031-77.09375zm0 0" fill="#3a312a"/><path d="m65.230469 252.132812c-1.949219 23.128907-26.050781 26.777344-26.050781 26.777344 20.695312.976563 25.851562 28.121094 25.851562 28.121094.441406-19.355469 26.640625-28.40625 26.640625-28.40625-19.625-1.171875-26.441406-26.492188-26.441406-26.492188zm0 0" fill="#d7e057"/><path d="m91.851562 275.632812c-17.207031-1.027343-23.664062-24.050781-23.726562-24.28125-.382812-1.40625-1.71875-2.332031-3.167969-2.207031-1.449219.132813-2.59375 1.285157-2.71875 2.734375-1.71875 20.429688-22.625 23.929688-23.507812 24.066406-1.523438.230469-2.625 1.582032-2.546875 3.121094.082031 1.542969 1.316406 2.769532 2.859375 2.84375 18.054687.851563 22.996093 25.4375 23.042969 25.683594.273437 1.421875 1.515624 2.433594 2.945312 2.433594.082031 0 .167969 0 .25-.007813 1.527344-.128906 2.714844-1.386719 2.75-2.921875.390625-17.015625 24.382812-25.554687 24.625-25.636718 1.351562-.472657 2.183594-1.832032 1.988281-3.246094-.195312-1.414063-1.363281-2.496094-2.792969-2.582032zm-27.132812 20.691407c-2.710938-6.261719-7.417969-13.816407-15.171875-17.753907 5.859375-2.808593 12.816406-7.828124 16.402344-16.546874 3.101562 6.140624 8.398437 13.761718 16.667969 17.445312-6.015626 3.28125-13.84375 8.8125-17.898438 16.855469zm0 0" fill="#3a312a"/><path d="m21.832031 286.09375c-1.378906 16.359375-18.425781 18.941406-18.425781 18.941406 14.636719.6875 18.285156 19.886719 18.285156 19.886719.308594-13.6875 18.84375-20.089844 18.84375-20.089844-13.882812-.832031-18.703125-18.738281-18.703125-18.738281zm0 0" fill="#d7e057"/><path d="m40.714844 301.835938c-11.535156-.6875-15.945313-16.367188-15.988282-16.527344-.378906-1.402344-1.710937-2.332032-3.164062-2.203125-1.449219.128906-2.597656 1.285156-2.71875 2.738281-1.160156 13.738281-15.292969 16.128906-15.886719 16.222656-1.527343.230469-2.625 1.582032-2.546875 3.125.082032 1.539063 1.316406 2.765625 2.855469 2.839844 12.070313.570312 15.449219 17.289062 15.480469 17.453125.269531 1.425781 1.515625 2.441406 2.945312 2.441406.082032 0 .164063-.007812.25-.011719 1.527344-.125 2.714844-1.386718 2.75-2.921874.261719-11.417969 16.660156-17.269532 16.824219-17.324219 1.355469-.46875 2.1875-1.824219 1.992187-3.242188-.195312-1.421875-1.363281-2.5-2.792968-2.589843zm-19.167969 13.59375c-1.847656-3.773438-4.679687-7.894532-8.894531-10.5625 3.710937-2.082032 7.394531-5.257813 9.742187-9.832032 2.113281 3.75 5.308594 7.910156 9.882813 10.449219-3.703125 2.199219-7.980469 5.480469-10.730469 9.945313zm0 0" fill="#3a312a"/><path d="m21.832031 232.78125c-1.378906 16.355469-18.425781 18.941406-18.425781 18.941406 14.636719.6875 18.285156 19.886719 18.285156 19.886719.308594-13.691406 18.84375-20.089844 18.84375-20.089844-13.882812-.832031-18.703125-18.738281-18.703125-18.738281zm0 0" fill="#d7e057"/><path d="m40.714844 248.523438c-11.53125-.691407-15.941406-16.371094-15.988282-16.53125-.378906-1.402344-1.710937-2.335938-3.164062-2.203126-1.449219.128907-2.597656 1.285157-2.71875 2.738282-1.160156 13.742187-15.292969 16.132812-15.886719 16.226562-1.527343.230469-2.625 1.578125-2.546875 3.121094.082032 1.539062 1.316406 2.769531 2.855469 2.84375 12.070313.566406 15.449219 17.285156 15.480469 17.449219.269531 1.429687 1.515625 2.441406 2.945312 2.441406.082032 0 .167969 0 .25-.007813 1.53125-.128906 2.714844-1.390624 2.753906-2.921874.257813-11.417969 16.660157-17.269532 16.820313-17.324219 1.355469-.46875 2.191406-1.828125 1.992187-3.246094-.195312-1.417969-1.363281-2.5-2.792968-2.585937zm-19.167969 13.589843c-1.847656-3.769531-4.679687-7.894531-8.894531-10.558593 3.710937-2.082032 7.394531-5.261719 9.742187-9.835938 2.113281 3.75 5.308594 7.910156 9.882813 10.449219-3.703125 2.203125-7.980469 5.480469-10.730469 9.945312zm0 0" fill="#3a312a"/><path d="m412.648438 36.652344c-10.601563-7.761719-23.582032-10.921875-36.5625-8.902344-3.457032.542969-6.820313 1.441406-10.019532 2.660156 4.019532 1.542969 7.839844 3.640625 11.402344 6.242188 21.878906 16 26.660156 46.820312 10.660156 68.71875-35.441406 48.460937-87.160156 82.0625-145.621094 94.601562-10.878906 2.339844-22 3.917969-33.21875 4.71875 5.878907.421875 11.777344.621094 17.71875.621094 17.140626 0 34.199219-1.800781 50.679688-5.339844 58.460938-12.539062 110.160156-46.140625 145.621094-94.601562 16-21.898438 11.21875-52.71875-10.660156-68.71875zm0 0" fill="#d34e5c"/></svg>