<svg height="452pt" viewBox="0 0 452 452.78579" width="452pt" xmlns="http://www.w3.org/2000/svg"><path d="m3.390625 250.246094c2.101563 20.621094 7.421875 40.359375 15.542969 58.78125 10.238281 23.359375 24.9375 44.597656 43.117187 62.796875 40.882813 41 99.320313 66.640625 164.222657 66.640625 64.898437 0 123.339843-25.640625 164.21875-66.640625 18.179687-18.199219 32.878906-39.4375 43.121093-62.796875 8.117188-18.421875 13.4375-38.160156 15.539063-58.78125zm0 0" fill="#fce8cb"/><path d="m451.378906 248.234375c-.570312-.628906-1.378906-.988281-2.226562-.988281h-445.761719c-.847656 0-1.65625.359375-2.222656.988281-.570313.632813-.84375 1.472656-.757813 2.316406 2.097656 20.617188 7.40625 40.699219 15.773438 59.679688 10.328125 23.558593 25.042968 44.996093 43.746094 63.714843 42.785156 42.914063 103.414062 67.523438 166.34375 67.523438 62.925781 0 123.558593-24.609375 166.339843-67.519531 18.703125-18.722657 33.421875-40.160157 43.742188-63.710938 8.371093-18.992187 13.679687-39.074219 15.78125-59.6875.085937-.84375-.191407-1.683593-.757813-2.316406zm-20.515625 59.589844c-10.023437 22.871093-24.320312 43.691406-42.496093 61.886719-41.667969 41.789062-100.75 65.757812-162.09375 65.757812-61.347657 0-120.429688-23.96875-162.097657-65.761719-18.171875-18.191406-32.46875-39.011719-42.5-61.890625-7.667969-17.394531-12.6875-35.738281-14.933593-54.570312h439.058593c-2.246093 18.828125-7.265625 37.171875-14.9375 54.578125zm0 0" fill="#3a312a"/><path d="m18.933594 309.027344c10.238281 23.359375 24.9375 44.601562 43.117187 62.800781h328.441407c18.179687-18.199219 32.878906-39.441406 43.121093-62.800781zm0 0" fill="#f16c7a"/><path d="m436.125 307.386719c-.554688-.847657-1.5-1.359375-2.511719-1.359375h-74.371093c-1.65625 0-3 1.34375-3 3 0 1.660156 1.34375 3 3 3h69.71875c-9.730469 20.859375-23.074219 39.945312-39.714844 56.800781h-325.945313c-16.640625-16.855469-29.988281-35.941406-39.71875-56.800781h305.722657c1.65625 0 3-1.339844 3-3 0-1.65625-1.34375-3-3-3h-310.371094c-1.011719 0-1.960938.511718-2.511719 1.359375-.554687.847656-.644531 1.917969-.238281 2.84375 10.328125 23.558593 25.042968 44.996093 43.746094 63.71875.5625.5625 1.328124.878906 2.121093.878906h328.441407c.796874 0 1.558593-.316406 2.121093-.878906 18.703125-18.722657 33.421875-40.160157 43.746094-63.71875.40625-.925781.320313-1.996094-.234375-2.84375zm0 0" fill="#3a312a"/><path d="m65.214844 22.355469c-1.949219 23.125-26.046875 26.777343-26.046875 26.777343 20.691406.976563 25.847656 28.117188 25.847656 28.117188.441406-19.351562 26.644531-28.402344 26.644531-28.402344-19.628906-1.175781-26.445312-26.492187-26.445312-26.492187zm0 0" fill="#d7e057"/><path d="m91.835938 45.851562c-17.207032-1.027343-23.660157-24.046874-23.726563-24.28125-.382813-1.40625-1.730469-2.332031-3.164063-2.203124-1.449218.132812-2.597656 1.285156-2.71875 2.734374-1.71875 20.429688-22.625 23.925782-23.507812 24.0625-1.527344.230469-2.625 1.582032-2.546875 3.125.082031 1.539063 1.316406 2.765626 2.855469 2.839844 18.054687.851563 22.996094 25.4375 23.046875 25.6875.273437 1.421875 1.515625 2.433594 2.941406 2.433594.085937 0 .167969-.003906.253906-.011719 1.527344-.125 2.710938-1.382812 2.75-2.917969.386719-17.015624 24.378907-25.550781 24.621094-25.636718 1.351563-.46875 2.1875-1.828125 1.988281-3.246094-.195312-1.417969-1.363281-2.5-2.792968-2.585938zm-27.128907 20.691407c-2.714843-6.257813-7.417969-13.8125-15.175781-17.75 5.863281-2.8125 12.820312-7.828125 16.40625-16.546875 3.101562 6.140625 8.398438 13.757812 16.667969 17.445312-6.015625 3.277344-13.847657 8.808594-17.898438 16.851563zm0 0" fill="#3a312a"/><path d="m21.816406 56.316406c-1.378906 16.355469-18.425781 18.941406-18.425781 18.941406 14.636719.6875 18.285156 19.886719 18.285156 19.886719.3125-13.6875 18.84375-20.089843 18.84375-20.089843-13.882812-.832032-18.703125-18.738282-18.703125-18.738282zm0 0" fill="#d7e057"/><path d="m40.699219 72.058594c-11.53125-.6875-15.941407-16.367188-15.988281-16.527344-.378907-1.402344-1.699219-2.328125-3.164063-2.203125-1.449219.128906-2.597656 1.285156-2.71875 2.734375-1.15625 13.742188-15.292969 16.132812-15.882813 16.226562-1.527343.230469-2.628906 1.582032-2.546874 3.121094.078124 1.542969 1.3125 2.769532 2.855468 2.84375 12.070313.566406 15.445313 17.289063 15.476563 17.453125.269531 1.425781 1.519531 2.4375 2.945312 2.4375.082031 0 .164063 0 .25-.007812 1.527344-.128907 2.714844-1.390625 2.75-2.921875.261719-11.417969 16.664063-17.269532 16.828125-17.324219 1.351563-.46875 2.1875-1.828125 1.992188-3.246094-.199219-1.417969-1.367188-2.5-2.796875-2.585937zm-19.167969 13.589844c-1.847656-3.769532-4.679688-7.894532-8.894531-10.558594 3.710937-2.085938 7.394531-5.261719 9.742187-9.835938 2.113282 3.75 5.308594 7.910156 9.882813 10.449219-3.703125 2.203125-7.980469 5.484375-10.730469 9.945313zm0 0" fill="#3a312a"/><path d="m21.816406 3c-1.378906 16.359375-18.425781 18.941406-18.425781 18.941406 14.636719.6875 18.285156 19.886719 18.285156 19.886719.3125-13.6875 18.84375-20.089844 18.84375-20.089844-13.882812-.832031-18.703125-18.738281-18.703125-18.738281zm0 0" fill="#d7e057"/><path d="m40.699219 18.742188c-11.53125-.6875-15.945313-16.371094-15.988281-16.527344-.378907-1.40625-1.699219-2.332032-3.164063-2.2031252-1.449219.1289062-2.597656 1.2851562-2.71875 2.7343752-1.15625 13.742187-15.292969 16.136718-15.882813 16.230468-1.527343.230469-2.628906 1.578126-2.546874 3.121094.078124 1.539063 1.3125 2.769532 2.855468 2.84375 12.070313.566406 15.445313 17.285156 15.476563 17.449219.273437 1.425781 1.519531 2.441406 2.945312 2.441406.085938 0 .167969-.003906.25-.011719 1.53125-.125 2.714844-1.386718 2.753907-2.921874.257812-11.417969 16.664062-17.265626 16.824218-17.324219 1.351563-.464844 2.1875-1.824219 1.992188-3.242188-.199219-1.417969-1.367188-2.503906-2.796875-2.589843zm-19.167969 13.589843c-1.847656-3.769531-4.679688-7.890625-8.894531-10.558593 3.710937-2.082032 7.394531-5.257813 9.742187-9.832032 2.113282 3.746094 5.308594 7.910156 9.882813 10.449219-3.703125 2.199219-7.980469 5.480469-10.730469 9.941406zm0 0" fill="#3a312a"/><path d="m309.613281 48.113281c2.679688 6.082031 4.140625 12.582031 4.140625 19.320313 0 6.738281-1.460937 13.238281-4.160156 19.339844h139.339844v-38.660157zm0 0" fill="#87796f"/><path d="m448.933594 45.113281h-139.320313c-1.015625 0-1.960937.511719-2.511719 1.363281-.554687.847657-.644531 1.917969-.234374 2.847657 2.578124 5.847656 3.886718 11.945312 3.886718 18.109375 0 6.175781-1.3125 12.273437-3.902344 18.125-.414062.929687-.324218 2 .230469 2.851562.550781.851563 1.496094 1.363282 2.511719 1.363282h139.339844c1.660156 0 3-1.339844 3-3v-38.660157c0-1.65625-1.34375-3-3-3zm-3 38.660157h-131.941406c1.835937-5.320313 2.761718-10.796876 2.761718-16.339844 0-5.535156-.921875-11.003906-2.75-16.320313h131.925782v32.660157zm0 0" fill="#3a312a"/><path d="m313.757812 67.4375c0-35.019531-39.167968-63.410156-87.484374-63.410156-48.316407 0-87.488282 28.390625-87.488282 63.410156s39.171875 63.410156 87.488282 63.410156c48.316406 0 87.484374-28.390625 87.484374-63.410156zm0 0" fill="#87796f"/><path d="m226.273438 1.027344c-49.894532 0-90.488282 29.789062-90.488282 66.410156 0 36.617188 40.59375 66.410156 90.488282 66.410156 49.894531 0 90.484374-29.792968 90.484374-66.410156 0-36.621094-40.589843-66.410156-90.484374-66.410156zm0 126.820312c-46.585938 0-84.488282-27.101562-84.488282-60.410156s37.902344-60.410156 84.488282-60.410156c46.585937 0 84.484374 27.097656 84.484374 60.410156 0 33.308594-37.898437 60.410156-84.484374 60.410156zm0 0" fill="#3a312a"/><path d="m163.835938 181.671875-7.984376 68.574219h140.839844l-17.460937-149.960938c10.441406-8.839844 16.761719-20.300781 16.761719-32.839844 0-27.917968-31.21875-50.539062-69.71875-50.539062s-69.722657 22.621094-69.722657 50.539062c0 12.539063 6.320313 24 16.761719 32.839844l-5.882812 50.523438zm0 0" fill="#d7e057"/><path d="m299.671875 249.898438-17.277344-148.386719c10.71875-9.566407 16.601563-21.609375 16.601563-34.066407 0-29.523437-32.625-53.539062-72.722656-53.539062-40.097657 0-72.71875 24.015625-72.71875 53.539062 0 12.457032 5.878906 24.496094 16.59375 34.066407l-5.695313 48.953125c-.191406 1.644531.988281 3.132812 2.632813 3.324218 1.644531.183594 3.132812-.984374 3.324218-2.632812l5.882813-50.523438c.117187-.996093-.273438-1.988281-1.042969-2.636718-10.125-8.570313-15.699219-19.421875-15.699219-30.546875 0-26.214844 29.929688-47.542969 66.722657-47.542969 36.789062 0 66.71875 21.328125 66.71875 47.542969 0 11.125-5.574219 21.976562-15.699219 30.546875-.765625.652344-1.160157 1.640625-1.039063 2.636718l17.070313 146.613282h-134.101563l7.59375-65.222656c.191406-1.648438-.984375-3.136719-2.632812-3.328126-1.636719-.191406-3.132813.988282-3.324219 2.632813l-7.988281 68.570313c-.097656.851562.171875 1.703124.742187 2.34375.566407.636718 1.382813 1.003906 2.238281 1.003906h140.839844c.855469 0 1.671875-.363282 2.242188-1.003906.570312-.640626.835937-1.492188.738281-2.34375zm0 0" fill="#3a312a"/><path d="m150.925781 426.324219h150.695313v23.464843h-150.695313zm0 0" fill="#fce8cb"/><path d="m301.621094 423.324219h-150.695313c-1.660156 0-3 1.34375-3 3v23.460937c0 1.660156 1.339844 3 3 3h150.695313c1.660156 0 3-1.339844 3-3v-23.460937c0-1.65625-1.34375-3-3-3zm-3 23.464843h-144.695313v-17.460937h144.695313zm0 0" fill="#3a312a"/><path d="m416.613281 253.246094c-2.179687 18.199218-6.960937 35.917968-14.179687 52.78125h29.179687c7.238281-16.863282 12.019531-34.582032 14.179688-52.78125zm0 0" fill="#decaad"/><path d="m353.871094 374.828125c-23.277344 21.757813-51.4375 38.257813-82.117188 48.5h29.179688c30.679687-10.242187 58.859375-26.742187 82.117187-48.5zm0 0" fill="#decaad"/><path d="m399.773438 312.027344c-9.742188 20.859375-23.082032 39.941406-39.722657 56.800781h29.203125c16.636719-16.859375 29.976563-35.941406 39.699219-56.800781zm0 0" fill="#d34e5c"/></svg>