<svg height="451pt" viewBox="-30 0 451 451.456" width="451pt" xmlns="http://www.w3.org/2000/svg"><path d="m65.046875 222.507812c-1.949219 23.125-26.050781 26.777344-26.050781 26.777344 20.695312.972656 25.851562 28.117188 25.851562 28.117188.441406-19.355469 26.640625-28.40625 26.640625-28.40625-19.625-1.171875-26.441406-26.488282-26.441406-26.488282zm0 0" fill="#d7e057"/><path d="m91.671875 246.003906c-17.210937-1.03125-23.664063-24.050781-23.726563-24.285156-.382812-1.402344-1.707031-2.324219-3.167968-2.203125-1.453125.132813-2.597656 1.285156-2.71875 2.734375-1.71875 20.429688-22.625 23.929688-23.507813 24.066406-1.527343.230469-2.625 1.578125-2.546875 3.121094.082032 1.539062 1.3125 2.769531 2.855469 2.84375 18.054687.847656 22.996094 25.433594 23.042969 25.683594.277344 1.421875 1.519531 2.433594 2.945312 2.433594.085938 0 .167969-.003907.253906-.011719 1.527344-.125 2.710938-1.382813 2.75-2.917969.386719-17.015625 24.382813-25.554688 24.621094-25.636719 1.351563-.46875 2.183594-1.828125 1.988282-3.246093-.195313-1.414063-1.363282-2.496094-2.789063-2.582032zm-27.132813 20.691406c-2.714843-6.261718-7.417968-13.816406-15.171874-17.753906 5.859374-2.8125 12.816406-7.828125 16.402343-16.546875 3.101563 6.140625 8.398438 13.757813 16.667969 17.445313-6.015625 3.28125-13.84375 8.8125-17.898438 16.855468zm0 0" fill="#3a312a"/><path d="m21.648438 256.464844c-1.375 16.359375-18.421876 18.941406-18.421876 18.941406 14.636719.691406 18.285157 19.890625 18.285157 19.890625.308593-13.6875 18.84375-20.089844 18.84375-20.089844-13.886719-.832031-18.707031-18.742187-18.707031-18.742187zm0 0" fill="#d7e057"/><path d="m40.535156 272.210938c-11.535156-.691407-15.945312-16.371094-15.992187-16.53125-.375-1.402344-1.71875-2.3125-3.160157-2.203126-1.449218.128907-2.601562 1.285157-2.722656 2.734376-1.15625 13.742187-15.289062 16.136718-15.882812 16.230468-1.523438.230469-2.625 1.578125-2.546875 3.121094.082031 1.539062 1.316406 2.765625 2.859375 2.839844 12.066406.570312 15.445312 17.289062 15.472656 17.453125.273438 1.425781 1.519531 2.441406 2.949219 2.441406.082031 0 .164062-.003906.246093-.011719 1.53125-.125 2.71875-1.386718 2.753907-2.917968.261719-11.421876 16.664062-17.269532 16.828125-17.324219 1.351562-.46875 2.183594-1.828125 1.992187-3.246094-.203125-1.417969-1.371093-2.5-2.796875-2.585937zm-19.171875 13.589843c-1.847656-3.773437-4.679687-7.894531-8.894531-10.5625 3.714844-2.082031 7.394531-5.257812 9.742188-9.832031 2.113281 3.75 5.308593 7.910156 9.882812 10.449219-3.703125 2.199219-7.976562 5.480469-10.730469 9.945312zm0 0" fill="#3a312a"/><path d="m21.648438 203.148438c-1.375 16.359374-18.421876 18.941406-18.421876 18.941406 14.636719.691406 18.285157 19.886718 18.285157 19.886718.308593-13.6875 18.84375-20.089843 18.84375-20.089843-13.886719-.828125-18.707031-18.738281-18.707031-18.738281zm0 0" fill="#d7e057"/><path d="m40.535156 218.894531c-11.535156-.6875-15.945312-16.371093-15.992187-16.527343-.375-1.40625-1.71875-2.332032-3.160157-2.207032-1.449218.132813-2.601562 1.289063-2.722656 2.738282-1.15625 13.742187-15.289062 16.132812-15.882812 16.226562-1.523438.230469-2.625 1.582031-2.546875 3.121094.082031 1.542968 1.316406 2.769531 2.859375 2.84375 12.066406.566406 15.445312 17.289062 15.472656 17.453125.273438 1.425781 1.519531 2.4375 2.949219 2.4375.082031 0 .164062 0 .246093-.007813 1.53125-.125 2.71875-1.386718 2.753907-2.921875.261719-11.417969 16.664062-17.265625 16.828125-17.324219 1.351562-.464843 2.183594-1.824218 1.992187-3.242187-.203125-1.421875-1.371093-2.503906-2.796875-2.589844zm-19.171875 13.589844c-1.847656-3.769531-4.679687-7.894531-8.894531-10.558594 3.714844-2.082031 7.394531-5.261719 9.742188-9.832031 2.113281 3.75 5.308593 7.910156 9.882812 10.449219-3.703125 2.199219-7.976562 5.476562-10.730469 9.941406zm0 0" fill="#3a312a"/><path d="m377.429688 349.375c-5.421876 0-9.820313 4.398438-9.820313 9.820312v50.066407c0 10.300781-8.382813 18.683593-18.6875 18.683593h-76.515625c-10.300781 0-18.683594-8.382812-18.683594-18.683593v-26.207031c0-5.425782-4.398437-9.824219-9.824218-9.824219-5.425782 0-9.820313 4.398437-9.820313 9.824219v26.207031c0 21.132812 17.195313 38.328125 38.328125 38.328125h76.515625c21.132813 0 38.328125-17.195313 38.328125-38.328125v-50.066407c.003906-5.421874-4.394531-9.820312-9.820312-9.820312zm0 0" fill="#87796f"/><path d="m377.429688 346.375c-7.066407 0-12.820313 5.75-12.820313 12.820312v50.066407c0 8.648437-7.039063 15.683593-15.683594 15.683593h-76.519531c-8.644531 0-15.683594-7.035156-15.683594-15.683593v-26.207031c0-7.070313-5.753906-12.824219-12.820312-12.824219-7.070313 0-12.820313 5.753906-12.820313 12.824219v26.207031c0 22.785156 18.539063 41.328125 41.324219 41.328125h76.519531c22.789063 0 41.328125-18.542969 41.328125-41.328125v-50.066407c0-7.070312-5.753906-12.820312-12.824218-12.820312zm6.824218 62.886719c0 19.476562-15.851562 35.328125-35.328125 35.328125h-76.519531c-19.476562 0-35.324219-15.851563-35.324219-35.328125v-26.207031c0-3.761719 3.058594-6.824219 6.820313-6.824219 3.757812 0 6.820312 3.0625 6.820312 6.824219v26.207031c0 11.957031 9.726563 21.683593 21.683594 21.683593h76.519531c11.957031 0 21.683594-9.726562 21.683594-21.683593v-50.066407c0-3.761718 3.0625-6.820312 6.820313-6.820312 3.761718 0 6.824218 3.058594 6.824218 6.820312zm0 0" fill="#3a312a"/><path d="m216.136719 373.601562c-5.425781 0-9.824219 4.398438-9.824219 9.824219v55.207031c0 5.425782 4.398438 9.824219 9.824219 9.824219 5.421875 0 9.820312-4.398437 9.820312-9.824219v-55.207031c0-5.429687-4.394531-9.824219-9.820312-9.824219zm0 0" fill="#87796f"/><path d="m216.136719 370.601562c-7.070313 0-12.820313 5.753907-12.820313 12.824219v55.207031c0 7.070313 5.75 12.824219 12.820313 12.824219 7.070312 0 12.820312-5.753906 12.820312-12.824219v-55.207031c0-7.074219-5.75-12.824219-12.820312-12.824219zm6.820312 68.03125c0 3.761719-3.058593 6.820313-6.820312 6.820313s-6.820313-3.058594-6.820313-6.820313v-55.210937c0-3.761719 3.058594-6.820313 6.820313-6.820313s6.820312 3.058594 6.820312 6.820313zm0 0" fill="#3a312a"/><path d="m161.097656 373.230469c-5.425781 0-9.824218 4.398437-9.824218 9.824219v26.207031c0 10.300781-8.382813 18.683593-18.683594 18.683593h-76.515625c-10.300781 0-18.6875-8.382812-18.6875-18.683593v-50.066407c0-5.421874-4.394531-9.820312-9.820313-9.820312-5.425781 0-9.824218 4.398438-9.824218 9.820312v50.066407c0 21.132812 17.195312 38.328125 38.328124 38.328125h76.515626c21.136718 0 38.328124-17.195313 38.328124-38.328125v-26.207031c.003907-5.425782-4.394531-9.824219-9.816406-9.824219zm0 0" fill="#87796f"/><path d="m161.097656 370.230469c-7.070312 0-12.824218 5.753906-12.824218 12.824219v26.207031c0 8.648437-7.035157 15.683593-15.683594 15.683593h-25.425782c-1.65625 0-3 1.34375-3 3 0 1.660157 1.34375 3 3 3h25.425782c11.957031 0 21.683594-9.726562 21.683594-21.683593v-26.207031c0-3.761719 3.0625-6.824219 6.824218-6.824219 3.757813 0 6.820313 3.0625 6.820313 6.824219v26.207031c0 19.476562-15.851563 35.328125-35.328125 35.328125h-76.515625c-19.480469 0-35.332031-15.851563-35.332031-35.328125v-50.066407c0-3.761718 3.0625-6.820312 6.824218-6.820312 3.761719 0 6.820313 3.058594 6.820313 6.820312v50.066407c0 11.957031 9.730469 21.683593 21.6875 21.683593h21.757812c1.65625 0 3-1.339843 3-3 0-1.65625-1.34375-3-3-3h-21.757812c-8.648438 0-15.6875-7.035156-15.6875-15.683593v-50.066407c0-7.070312-5.75-12.820312-12.820313-12.820312-7.070312 0-12.824218 5.75-12.824218 12.820312v50.066407c0 22.785156 18.542968 41.328125 41.332031 41.328125h76.515625c22.789062 0 41.328125-18.542969 41.328125-41.328125v-26.207031c0-7.070313-5.753907-12.824219-12.820313-12.824219zm0 0" fill="#3a312a"/><path d="m188.859375 373.601562c-5.421875 0-9.820313 4.398438-9.820313 9.824219v55.207031c0 5.425782 4.394532 9.824219 9.820313 9.824219s9.824219-4.398437 9.824219-9.824219v-55.207031c-.003906-5.429687-4.398438-9.824219-9.824219-9.824219zm0 0" fill="#87796f"/><path d="m188.859375 370.601562c-7.070313 0-12.820313 5.753907-12.820313 12.824219v55.207031c0 7.070313 5.75 12.824219 12.820313 12.824219s12.824219-5.753906 12.824219-12.824219v-55.207031c0-7.074219-5.753906-12.824219-12.824219-12.824219zm6.824219 68.03125c0 3.761719-3.0625 6.820313-6.824219 6.820313s-6.820313-3.058594-6.820313-6.820313v-55.210937c0-3.761719 3.058594-6.820313 6.820313-6.820313s6.824219 3.058594 6.824219 6.820313zm0 0" fill="#3a312a"/><path d="m341.898438 61.859375-31.761719-12.558594-28.339844-11.199219-42.9375-16.960937c28.539063 29.480469 49.457031 91.121094 53.957031 156.320313 4.242188-1.519532 7.980469-4.441407 10.5-8.441407l48.480469-76.898437c6.921875-10.960938 2.160156-25.5-9.898437-30.261719zm0 0" fill="#f16c7a"/><path d="m356.820312 73.742188c-2.199218-6.726563-7.234374-12.074219-13.816406-14.675782l-31.761718-12.558594c-1.546876-.609374-3.285157.144532-3.890626 1.6875-.613281 1.539063.140626 3.28125 1.683594 3.894532l31.761719 12.558594c4.917969 1.941406 8.679687 5.933593 10.320313 10.957031 1.640624 5.011719.960937 10.449219-1.855469 14.914062l-48.480469 76.898438c-1.363281 2.160156-3.183594 4-5.300781 5.386719-4.710938-58.464844-22.433594-113.046876-46.476563-144.433594l31.695313 12.515625c1.535156.609375 3.28125-.144531 3.890625-1.6875s-.148438-3.285157-1.691406-3.890625l-42.9375-16.960938c-1.308594-.519531-2.8125-.050781-3.597657 1.125-.785156 1.171875-.644531 2.738282.339844 3.753906 27.777344 28.6875 48.628906 89.308594 53.121094 154.4375.066406.941407.566406 1.792969 1.355469 2.304688.492187.324219 1.0625.492188 1.636718.492188.34375 0 .6875-.058594 1.015625-.175782 4.941407-1.773437 9.210938-5.207031 12.023438-9.664062l48.480469-76.898438c3.773437-5.980468 4.679687-13.261718 2.484374-19.980468zm0 0" fill="#3a312a"/><path d="m63.097656 61.859375c-12.058594 4.761719-16.820312 19.300781-9.898437 30.261719l48.480469 76.898437c2.519531 4 6.257812 6.921875 10.5 8.441407 4.5-65.199219 25.417968-126.839844 53.957031-156.320313zm0 0" fill="#f16c7a"/><path d="m168.632812 19.472656c-.785156-1.171875-2.28125-1.644531-3.597656-1.121094l-103.042968 40.71875c-6.585938 2.597657-11.621094 7.949219-13.816407 14.671876-2.199219 6.71875-1.289062 14 2.480469 19.976562l48.480469 76.902344c2.808593 4.457031 7.078125 7.890625 12.027343 9.664062.328126.117188.671876.175782 1.011719.175782.578125 0 1.144531-.167969 1.640625-.492188.789063-.511719 1.289063-1.363281 1.351563-2.304688 4.496093-65.125 25.347656-125.75 53.125-154.4375.984375-1.015624 1.125-2.578124.339843-3.753906zm-59.113281 153.332032c-2.121093-1.382813-3.941406-3.222657-5.304687-5.382813l-48.480469-76.902344c-2.816406-4.464843-3.492187-9.898437-1.855469-14.914062 1.640625-5.019531 5.402344-9.011719 10.324219-10.957031l91.789063-36.273438c-24.042969 31.390625-41.765626 85.96875-46.472657 144.429688zm0 0" fill="#3a312a"/><path d="m202.5 3c-50.394531 0-91.246094 100.476562-91.246094 200.484375 0 62.21875 15.8125 117.101563 39.894532 149.699219h102.699218c24.082032-32.597656 39.894532-87.480469 39.894532-149.699219 0-100.007813-40.851563-200.484375-91.242188-200.484375zm0 0" fill="#f16c7a"/><path d="m269.765625 64.535156c-18.265625-41.617187-42.152344-64.535156-67.265625-64.535156s-49.003906 22.917969-67.269531 64.535156c-17.144531 39.0625-26.976563 89.707032-26.976563 138.953125 0 60.539063 15.132813 117.167969 40.484375 151.480469.5625.765625 1.460938 1.21875 2.410157 1.21875h102.699218c.953125 0 1.847656-.453125 2.414063-1.21875 25.347656-34.316406 40.480469-90.941406 40.480469-151.480469 0-49.246093-9.832032-99.890625-26.976563-138.953125zm-17.445313 285.652344h-99.644531c-24.078125-33.441406-38.421875-88.117188-38.421875-146.699219 0-103.359375 42.058594-197.488281 88.246094-197.488281 46.183594 0 88.242188 94.128906 88.242188 197.488281 0 58.582031-14.339844 113.257813-38.421876 146.699219zm0 0" fill="#3a312a"/><path d="m151.105469 353.1875v33.03125c0 9.898438 8.023437 17.921875 17.921875 17.921875h66.941406c9.898438 0 17.921875-8.023437 17.921875-17.921875v-33.03125zm0 0" fill="#f16c7a"/><path d="m253.890625 350.1875h-102.785156c-1.65625 0-3 1.339844-3 3v33.035156c0 11.535156 9.382812 20.917969 20.921875 20.917969h66.945312c11.535156 0 20.917969-9.382813 20.917969-20.917969v-33.035156c0-1.660156-1.34375-3-3-3zm-3 36.03125c0 8.226562-6.695313 14.921875-14.921875 14.921875h-66.945312c-8.226563 0-14.917969-6.695313-14.917969-14.921875v-30.035156h96.78125v30.035156zm0 0" fill="#3a312a"/><path d="m174.585938 365.863281c-5.78125 0-10.46875 4.6875-10.46875 10.46875s4.6875 10.46875 10.46875 10.46875 10.46875-4.6875 10.46875-10.46875-4.6875-10.46875-10.46875-10.46875zm0 0" fill="#87796f"/><path d="m174.585938 362.863281c-7.425782 0-13.46875 6.042969-13.46875 13.46875s6.042968 13.46875 13.46875 13.46875c7.425781 0 13.464843-6.042969 13.464843-13.46875s-6.039062-13.46875-13.464843-13.46875zm0 20.9375c-4.121094 0-7.46875-3.347656-7.46875-7.464843 0-4.121094 3.351562-7.46875 7.46875-7.46875 4.117187 0 7.464843 3.347656 7.464843 7.46875 0 4.117187-3.347656 7.464843-7.464843 7.464843zm0 0" fill="#3a312a"/><path d="m230.410156 365.863281c-5.78125 0-10.464844 4.6875-10.464844 10.46875s4.683594 10.46875 10.464844 10.46875c5.785156 0 10.46875-4.6875 10.46875-10.46875s-4.6875-10.46875-10.46875-10.46875zm0 0" fill="#87796f"/><path d="m230.410156 362.863281c-7.425781 0-13.464844 6.042969-13.464844 13.46875s6.039063 13.46875 13.464844 13.46875c7.429688 0 13.46875-6.042969 13.46875-13.46875s-6.039062-13.46875-13.46875-13.46875zm0 20.9375c-4.117187 0-7.464844-3.347656-7.464844-7.464843 0-4.121094 3.347657-7.46875 7.464844-7.46875 4.121094 0 7.46875 3.347656 7.46875 7.46875 0 4.117187-3.347656 7.464843-7.46875 7.464843zm0 0" fill="#3a312a"/><g fill="#d34e5c"><path d="m202.5 6c-4 0-7.960938.699219-11.863281 2.078125 41.261719 14.28125 76.363281 100.980469 76.363281 195.402344 0 58.597656-14.34375 113.257812-38.421875 146.699219h23.738281c24.082032-33.441407 38.421875-88.101563 38.421875-146.699219 0-103.359375-42.058593-197.480469-88.238281-197.480469zm0 0"/><path d="m228.558594 356.179688v6.820312c.597656-.101562 1.21875-.140625 1.859375-.140625 7.421875 0 13.460937 6.039063 13.460937 13.480469 0 7.421875-6.039062 13.460937-13.460937 13.460937-.78125 0-1.519531-.0625-2.261719-.222656-1.519531 6.621094-7.457031 11.5625-14.519531 11.5625h22.339843c8.222657 0 14.921876-6.699219 14.921876-14.921875v-30.039062zm0 0"/></g></svg>