<svg height="452pt" viewBox="-17 0 452 452.492" width="452pt" xmlns="http://www.w3.org/2000/svg"><path d="m263.125 180.480469c-50.21875 0-90.929688 40.710937-90.929688 90.929687 0 50.222656 40.710938 90.933594 90.929688 90.933594 50.222656 0 90.933594-40.710938 90.933594-90.933594 0-50.21875-40.710938-90.929687-90.933594-90.929687zm0 0" fill="#fce8cb"/><path d="m263.125 177.480469c-51.792969 0-93.929688 42.136719-93.929688 93.929687 0 51.796875 42.136719 93.933594 93.929688 93.933594s93.933594-42.136719 93.933594-93.933594c0-51.792968-42.140625-93.929687-93.933594-93.929687zm0 181.863281c-48.484375 0-87.929688-39.445312-87.929688-87.933594 0-48.484375 39.445313-87.929687 87.929688-87.929687 48.488281 0 87.933594 39.445312 87.933594 87.929687 0 48.488282-39.445313 87.933594-87.933594 87.933594zm0 0" fill="#3a312a"/><path d="m65.066406 23.035156c-1.945312 23.125-26.046875 26.777344-26.046875 26.777344 20.695313.976562 25.851563 28.121094 25.851563 28.121094.441406-19.355469 26.640625-28.40625 26.640625-28.40625-19.628907-1.175782-26.445313-26.492188-26.445313-26.492188zm0 0" fill="#d7e057"/><path d="m91.691406 46.535156c-17.210937-1.03125-23.664062-24.050781-23.726562-24.28125-.382813-1.40625-1.730469-2.347656-3.167969-2.203125-1.449219.132813-2.59375 1.285157-2.71875 2.734375-1.71875 20.425782-22.625 23.921875-23.507813 24.0625-1.527343.230469-2.625 1.582032-2.546874 3.121094.082031 1.542969 1.316406 2.769531 2.855468 2.839844 18.054688.851562 22.996094 25.4375 23.046875 25.6875.273438 1.421875 1.515625 2.433594 2.941407 2.433594.085937 0 .167968-.003907.253906-.007813 1.527344-.128906 2.710937-1.386719 2.75-2.921875.386718-17.019531 24.378906-25.554688 24.621094-25.636719 1.351562-.46875 2.1875-1.828125 1.988281-3.246093-.195313-1.417969-1.363281-2.5-2.789063-2.582032zm-27.132812 20.6875c-2.710938-6.261718-7.417969-13.816406-15.171875-17.753906 5.859375-2.808594 12.816406-7.824219 16.402343-16.542969 3.101563 6.140625 8.398438 13.757813 16.667969 17.445313-6.015625 3.277344-13.84375 8.8125-17.898437 16.851562zm0 0" fill="#3a312a"/><path d="m21.667969 56.996094c-1.375 16.359375-18.425781 18.941406-18.425781 18.941406 14.636718.6875 18.285156 19.886719 18.285156 19.886719.3125-13.6875 18.84375-20.089844 18.84375-20.089844-13.878906-.832031-18.703125-18.738281-18.703125-18.738281zm0 0" fill="#d7e057"/><path d="m40.554688 72.738281c-11.53125-.6875-15.945313-16.371093-15.988282-16.527343-.378906-1.402344-1.699218-2.34375-3.164062-2.203126-1.453125.128907-2.597656 1.285157-2.71875 2.734376-1.160156 13.742187-15.292969 16.132812-15.886719 16.226562-1.523437.230469-2.625 1.582031-2.546875 3.121094.078125 1.542968 1.3125 2.769531 2.855469 2.84375 12.070312.566406 15.445312 17.289062 15.476562 17.453125.269531 1.421875 1.519531 2.4375 2.945313 2.4375.082031 0 .164062-.003907.25-.007813 1.527344-.125 2.714844-1.386718 2.75-2.921875.261718-11.417969 16.664062-17.265625 16.828125-17.324219 1.351562-.464843 2.1875-1.824218 1.992187-3.242187-.195312-1.421875-1.363281-2.503906-2.792968-2.589844zm-19.171876 13.589844c-1.847656-3.769531-4.679687-7.894531-8.894531-10.558594 3.710938-2.082031 7.394531-5.257812 9.742188-9.832031 2.113281 3.75 5.308593 7.910156 9.882812 10.449219-3.699219 2.199219-7.976562 5.480469-10.730469 9.941406zm0 0" fill="#3a312a"/><path d="m21.667969 3.679688c-1.375 16.359374-18.425781 18.941406-18.425781 18.941406 14.636718.6875 18.285156 19.886718 18.285156 19.886718.3125-13.6875 18.84375-20.089843 18.84375-20.089843-13.878906-.828125-18.703125-18.738281-18.703125-18.738281zm0 0" fill="#d7e057"/><path d="m40.554688 19.425781c-11.535157-.691406-15.945313-16.375-15.988282-16.53125-.378906-1.40625-1.699218-2.328125-3.164062-2.203125-1.453125.128906-2.597656 1.285156-2.71875 2.738282-1.160156 13.742187-15.292969 16.128906-15.886719 16.222656-1.523437.234375-2.625 1.582031-2.546875 3.125.078125 1.539062 1.3125 2.769531 2.855469 2.839844 12.070312.570312 15.445312 17.289062 15.476562 17.453124.269531 1.425782 1.519531 2.441407 2.945313 2.441407.082031 0 .164062-.003907.25-.007813 1.527344-.128906 2.714844-1.386718 2.75-2.925781.261718-11.417969 16.664062-17.265625 16.828125-17.320313 1.351562-.464843 2.1875-1.824218 1.992187-3.242187-.195312-1.421875-1.363281-2.503906-2.792968-2.589844zm-19.171876 13.589844c-1.847656-3.773437-4.679687-7.894531-8.894531-10.558594 3.714844-2.082031 7.394531-5.261719 9.742188-9.835937 2.117187 3.75 5.3125 7.910156 9.882812 10.449218-3.699219 2.203126-7.976562 5.476563-10.730469 9.945313zm0 0" fill="#3a312a"/><path d="m376.804688 3h-227.355469c-13.992188 0-25.335938 11.34375-25.335938 25.332031 0 13.992188 11.34375 25.332031 25.335938 25.332031h227.355469c13.992187 0 25.332031-11.339843 25.332031-25.332031 0-13.988281-11.339844-25.332031-25.332031-25.332031zm0 0" fill="#87796f"/><path d="m376.804688 0h-154.960938c-1.65625 0-3 1.34375-3 3s1.34375 3 3 3h154.960938c12.3125 0 22.332031 10.019531 22.332031 22.332031s-10.015625 22.332031-22.332031 22.332031h-227.355469c-12.316407 0-22.335938-10.019531-22.335938-22.332031s10.019531-22.332031 22.335938-22.332031h42.277343c1.660157 0 3-1.34375 3-3s-1.339843-3-3-3h-42.277343c-15.625 0-28.335938 12.707031-28.335938 28.332031s12.710938 28.332031 28.335938 28.332031h227.355469c15.625 0 28.332031-12.707031 28.332031-28.332031s-12.707031-28.332031-28.332031-28.332031zm0 0" fill="#3a312a"/><path d="m365.207031 90.710938h-204.160156c-27.140625 0-49.121094 21.980468-49.121094 49.121093v260.558594c0 27.121094 21.980469 49.101563 49.121094 49.101563h204.160156c27.140625 0 49.117188-21.980469 49.117188-49.101563v-260.558594c0-27.136719-21.976563-49.121093-49.117188-49.121093zm0 0" fill="#fce8cb"/><path d="m365.207031 87.710938h-204.160156c-28.738281 0-52.121094 23.382812-52.121094 52.121093v260.558594c0 28.730469 23.378907 52.101563 52.121094 52.101563h204.160156c28.738281 0 52.117188-23.371094 52.117188-52.101563v-260.558594c0-28.738281-23.378907-52.121093-52.117188-52.121093zm46.117188 312.679687c0 25.421875-20.6875 46.101563-46.117188 46.101563h-204.160156c-25.429687 0-46.121094-20.679688-46.121094-46.101563v-260.558594c0-25.429687 20.6875-46.121093 46.121094-46.121093h204.160156c25.429688 0 46.117188 20.691406 46.117188 46.121093zm0 0" fill="#3a312a"/><path d="m162.378906 53.648438h201.496094v37.066406h-201.496094zm0 0" fill="#fce8cb"/><path d="m363.875 50.648438h-201.496094c-1.660156 0-3 1.34375-3 3v37.0625c0 1.65625 1.339844 3 3 3h201.496094c1.65625 0 3-1.34375 3-3v-37.0625c0-1.65625-1.34375-3-3-3zm-3 37.0625h-195.496094v-31.0625h195.496094zm0 0" fill="#3a312a"/><path d="m111.925781 157.332031h302.398438v226h-302.398438zm0 0" fill="#f16c7a"/><path d="m414.324219 154.332031h-64.453125c-1.660156 0-3 1.34375-3 3s1.339844 3 3 3h61.453125v220h-296.398438v-220h204.773438c1.660156 0 3-1.34375 3-3s-1.339844-3-3-3h-207.773438c-1.65625 0-3 1.34375-3 3v226c0 1.65625 1.34375 3 3 3h302.398438c1.660156 0 3-1.34375 3-3v-226c0-1.65625-1.339844-3-3-3zm0 0" fill="#3a312a"/><path d="m376.804688 5.992188h-34c12.320312 0 22.339843 10.019531 22.339843 22.339843 0 11.941407-9.398437 21.71875-21.199219 22.320313h19.921876c.058593 0 .117187.019531.179687.019531h12.757813c12.320312 0 22.339843-10.019531 22.339843-22.339844 0-12.320312-10.019531-22.339843-22.339843-22.339843zm0 0" fill="#695b51"/><g fill="#decaad"><path d="m377.324219 386.332031v14.058594c0 25.421875-20.679688 46.101563-46.117188 46.101563h34c25.4375 0 46.117188-20.679688 46.117188-46.101563v-14.058594zm0 0"/><path d="m365.207031 93.710938h-1.320312s0 0-.019531 0h-32.660157c25.4375 0 46.117188 20.679687 46.117188 46.121093v14.5h34v-14.5c0-25.441406-20.679688-46.121093-46.117188-46.121093zm0 0"/><path d="m326.867188 56.652344h34v31.058594h-34zm0 0"/></g><path d="m377.324219 160.332031h34v220h-34zm0 0" fill="#d34e5c"/><path d="m354.914062 259.226562c-6.242187-50.160156-51.964843-85.761718-102.125-79.519531-50.15625 6.242188-85.757812 51.964844-79.515624 102.125 6.242187 50.160157 51.964843 85.761719 102.125 79.519531 50.15625-6.242187 85.757812-51.964843 79.515624-102.125zm0 0" fill="#fce8cb"/><path d="m264.117188 176c-52.121094 0-94.523438 42.402344-94.523438 94.527344 0 52.121094 42.402344 94.523437 94.523438 94.523437 52.121093 0 94.527343-42.40625 94.527343-94.523437 0-52.125-42.40625-94.527344-94.527343-94.527344zm0 183.050781c-48.8125 0-88.523438-39.710937-88.523438-88.527343 0-48.8125 39.710938-88.527344 88.523438-88.527344 48.816406 0 88.527343 39.714844 88.527343 88.527344 0 48.816406-39.710937 88.527343-88.527343 88.527343zm0 0" fill="#3a312a"/><path d="m263.125 219.546875c-25.773438 0-46.664062 10.019531-46.664062 42.265625s20.894531 73.636719 46.664062 73.636719c25.773438 0 46.667969-41.390625 46.667969-73.636719s-20.894531-42.265625-46.667969-42.265625zm0 0" fill="#f16c7a"/><path d="m263.125 216.546875c-32.492188 0-49.664062 15.652344-49.664062 45.265625 0 16.566406 5.261718 35.417969 14.078124 50.429688 9.925782 16.902343 22.566407 26.210937 35.585938 26.210937s25.660156-9.308594 35.585938-26.210937c8.816406-15.011719 14.082031-33.863282 14.082031-50.429688 0-29.613281-17.175781-45.265625-49.667969-45.265625zm0 115.902344c-23.105469 0-43.664062-39.5-43.664062-70.636719 0-26.421875 14.28125-39.265625 43.664062-39.265625 29.386719 0 43.667969 12.84375 43.667969 39.265625 0 31.136719-20.558594 70.636719-43.667969 70.636719zm0 0" fill="#3a312a"/><path d="m297.75 221.214844c-8.5625-4.039063-16.886719-6.324219-23.300781-6.746094-2.347657-10.722656-6.535157-10.140625-11.324219-10.140625s-8.976562-.582031-11.320312 10.140625c-6.414063.421875-14.742188 2.707031-23.304688 6.746094-16.363281 7.714844-27.335938 18.839844-24.503906 24.84375 2.832031 6.003906 18.394531 4.617187 34.757812-3.101563 4.078125-1.921875 7.824219-4.058593 11.105469-6.273437.453125 19.601562 6.210937 35.117187 13.269531 35.117187 7.054688 0 12.8125-15.515625 13.269532-35.117187 3.28125 2.210937 7.023437 4.351562 11.101562 6.273437 16.367188 7.714844 31.925781 9.105469 34.757812 3.101563 2.828126-6.003906-8.140624-17.125-24.507812-24.84375zm0 0" fill="#d7e057"/><path d="m319.339844 232.171875c-4.871094-4.9375-12.082032-9.792969-20.308594-13.667969-7.75-3.65625-15.53125-6.042968-22.183594-6.820312-2.683594-9.585938-7.445312-10.398438-13.035156-10.355469l-.6875.003906-.683594-.003906c-5.570312-.042969-10.351562.769531-13.039062 10.355469-6.652344.78125-14.433594 3.164062-22.183594 6.820312-8.222656 3.875-15.433594 8.730469-20.304688 13.667969-7.148437 7.25-7.007812 12.25-5.628906 15.167969 4.203125 8.914062 22.675782 5.910156 38.746094-1.667969 2.457031-1.15625 4.824219-2.398437 7.074219-3.71875 1.21875 16.667969 6.445312 32.847656 16.019531 32.847656s14.804688-16.179687 16.019531-32.847656c2.253907 1.320313 4.621094 2.5625 7.078125 3.71875 16.070313 7.582031 34.542969 10.585937 38.746094 1.667969 1.375-2.917969 1.515625-7.917969-5.628906-15.167969zm.199218 12.609375c-1.527343 3.246094-14.582031 3.09375-30.761718-4.535156-3.84375-1.8125-7.445313-3.847656-10.703125-6.046875-.910157-.617188-2.082031-.683594-3.054688-.179688-.976562.503907-1.597656 1.5-1.625 2.59375-.460937 19.945313-6.292969 32.1875-10.269531 32.1875s-9.808594-12.242187-10.273438-32.1875c-.027343-1.09375-.648437-2.089843-1.621093-2.59375-.433594-.222656-.90625-.335937-1.375-.335937-.589844 0-1.175781.175781-1.679688.515625-3.257812 2.199219-6.859375 4.234375-10.703125 6.046875-16.183594 7.628906-29.234375 7.78125-30.761718 4.535156-.613282-1.300781.53125-4.398438 4.476562-8.394531 4.382812-4.449219 10.988281-8.871094 18.589844-12.457031 7.84375-3.699219 15.941406-6.054688 22.21875-6.460938 1.335937-.089844 2.453125-1.046875 2.738281-2.355469 1.710937-7.820312 3.582031-7.808593 7.667969-7.785156l.722656.003906.722656-.003906c4.117188-.023437 5.960938-.035156 7.671875 7.785156.285157 1.308594 1.398438 2.265625 2.734375 2.355469 6.277344.40625 14.375 2.761719 22.21875 6.460938 7.601563 3.585937 14.207032 8.007812 18.59375 12.457031 3.941406 3.996093 5.085938 7.09375 4.472656 8.394531zm0 0" fill="#3a312a"/></svg>