<svg height="452pt" viewBox="0 0 452.23795 452" width="452pt" xmlns="http://www.w3.org/2000/svg"><path d="m64.816406 22.472656c-1.945312 23.125-26.046875 26.777344-26.046875 26.777344 20.695313.972656 25.851563 28.117188 25.851563 28.117188.441406-19.355469 26.640625-28.40625 26.640625-28.40625-19.625-1.171876-26.445313-26.488282-26.445313-26.488282zm0 0" fill="#d7e057"/><path d="m91.441406 45.96875c-17.207031-1.03125-23.664062-24.046875-23.726562-24.28125-.378906-1.40625-1.695313-2.320312-3.167969-2.203125-1.449219.132813-2.59375 1.285156-2.714844 2.734375-1.722656 20.429688-22.628906 23.929688-23.511719 24.066406-1.527343.230469-2.625 1.578125-2.546874 3.121094.082031 1.539062 1.316406 2.769531 2.855468 2.84375 18.054688.847656 22.996094 25.433594 23.042969 25.683594.277344 1.421875 1.519531 2.433594 2.945313 2.433594.085937 0 .167968-.003907.253906-.011719 1.527344-.125 2.714844-1.382813 2.75-2.917969.386718-17.015625 24.382812-25.550781 24.621094-25.636719 1.355468-.46875 2.1875-1.828125 1.988281-3.246093-.195313-1.417969-1.359375-2.5-2.789063-2.585938zm-27.132812 20.691406c-2.710938-6.261718-7.414063-13.816406-15.171875-17.753906 5.863281-2.808594 12.816406-7.824219 16.402343-16.546875 3.101563 6.144531 8.402344 13.761719 16.667969 17.445313-6.011719 3.28125-13.84375 8.8125-17.898437 16.855468zm0 0" fill="#3a312a"/><path d="m21.421875 56.429688c-1.378906 16.359374-18.421875 18.941406-18.421875 18.941406 14.632812.691406 18.28125 19.890625 18.28125 19.890625.3125-13.691407 18.84375-20.09375 18.84375-20.09375-13.882812-.828125-18.703125-18.738281-18.703125-18.738281zm0 0" fill="#d7e057"/><path d="m40.304688 72.175781c-11.53125-.691406-15.945313-16.371093-15.988282-16.527343-.378906-1.40625-1.726562-2.324219-3.164062-2.207032-1.449219.132813-2.597656 1.289063-2.71875 2.738282-1.15625 13.738281-15.292969 16.132812-15.882813 16.226562-1.527343.230469-2.6249998 1.578125-2.54687475 3.117188.08203125 1.542968 1.31249975 2.769531 2.85546875 2.84375 12.070313.566406 15.445313 17.289062 15.476563 17.453124.273437 1.425782 1.519531 2.4375 2.945312 2.4375.082031 0 .167969 0 .25-.007812 1.53125-.128906 2.71875-1.386719 2.753906-2.921875.261719-11.417969 16.664063-17.265625 16.824219-17.324219 1.351563-.46875 2.1875-1.824218 1.992187-3.242187-.199218-1.417969-1.367187-2.5-2.796874-2.585938zm-19.167969 13.589844c-1.847657-3.769531-4.683594-7.894531-8.894531-10.558594 3.710937-2.082031 7.394531-5.257812 9.738281-9.832031 2.117187 3.746094 5.3125 7.910156 9.886719 10.449219-3.703126 2.199219-7.980469 5.476562-10.730469 9.941406zm0 0" fill="#3a312a"/><path d="m21.421875 3.117188c-1.378906 16.359374-18.421875 18.941406-18.421875 18.941406 14.632812.6875 18.28125 19.886718 18.28125 19.886718.3125-13.6875 18.84375-20.089843 18.84375-20.089843-13.882812-.832031-18.703125-18.738281-18.703125-18.738281zm0 0" fill="#d7e057"/><path d="m40.304688 18.859375c-11.53125-.6875-15.945313-16.367187-15.988282-16.527344-.378906-1.402343-1.726562-2.3203122-3.164062-2.203125-1.449219.128906-2.597656 1.285156-2.71875 2.734375-1.15625 13.742188-15.292969 16.136719-15.882813 16.230469-1.527343.230469-2.6249998 1.578125-2.54687475 3.121094.08203125 1.539062 1.31249975 2.769531 2.85546875 2.84375 12.070313.566406 15.445313 17.285156 15.476563 17.449218.273437 1.425782 1.519531 2.441407 2.945312 2.441407.082031 0 .167969-.003907.25-.011719 1.527344-.125 2.71875-1.382812 2.753906-2.917969.261719-11.421875 16.664063-17.269531 16.824219-17.328125 1.351563-.464844 2.1875-1.824218 1.992187-3.242187-.199218-1.421875-1.367187-2.503907-2.796874-2.589844zm-19.167969 13.59375c-1.847657-3.773437-4.679688-7.894531-8.894531-10.558594 3.710937-2.082031 7.394531-5.261719 9.738281-9.835937 2.117187 3.75 5.3125 7.910156 9.886719 10.449218-3.703126 2.199219-7.980469 5.480469-10.730469 9.945313zm0 0" fill="#3a312a"/><path d="m327.046875 333.496094h-201.652344c-31.859375 0-57.6875 25.828125-57.6875 57.691406s25.828125 57.6875 57.6875 57.6875h201.652344c31.863281 0 57.691406-25.824219 57.691406-57.6875 0-31.859375-25.828125-57.691406-57.691406-57.691406zm0 0" fill="#fce8cb"/><path d="m327.050781 330.5h-201.652343c-33.464844 0-60.691407 27.226562-60.691407 60.6875 0 33.464844 27.226563 60.691406 60.691407 60.691406h11.945312c1.65625 0 3-1.34375 3-3s-1.34375-3-3-3h-11.945312c-30.15625 0-54.691407-24.535156-54.691407-54.691406s24.53125-54.6875 54.691407-54.6875h201.652343c30.15625 0 54.6875 24.53125 54.6875 54.6875s-24.53125 54.691406-54.6875 54.691406h-159.949219c-1.65625 0-3 1.34375-3 3s1.34375 3 3 3h159.949219c33.464844 0 60.6875-27.226562 60.6875-60.691406 0-33.460938-27.222656-60.6875-60.6875-60.6875zm0 0" fill="#3a312a"/><path d="m443.523438 355.355469c-27.789063-51.371094-81.335938-83.285157-139.746094-83.285157h-155.109375c-58.410157 0-111.957031 31.914063-139.746094 83.285157-12.414063 22.953125-3.875 51.621093 19.074219 64.035156 22.957031 12.414063 51.621094 3.867187 64.03125-19.078125 11.265625-20.820312 32.964844-33.753906 56.640625-33.753906h155.109375c23.675781 0 45.375 12.933594 56.640625 33.753906 8.546875 15.800781 24.804687 24.773438 41.59375 24.773438 7.589843 0 15.289062-1.832032 22.4375-5.695313 22.945312-12.414063 31.492187-41.085937 19.074219-64.035156zm0 0" fill="#f16c7a"/><path d="m446.160156 353.929688c-28.3125-52.34375-82.871094-84.859376-142.382812-84.859376h-155.109375c-59.515625 0-114.070313 32.515626-142.386719 84.859376-13.179688 24.367187-4.078125 54.914062 20.289062 68.097656 24.371094 13.179687 54.917969 4.074218 68.101563-20.289063 10.734375-19.851562 31.425781-32.183593 53.996094-32.183593h155.113281c22.570312 0 43.261719 12.332031 54 32.179687 8.789062 16.253906 25.738281 26.351563 44.234375 26.351563 8.28125 0 16.53125-2.097657 23.863281-6.0625 24.363282-13.179688 33.464844-43.726563 20.28125-68.09375zm-23.140625 62.820312c-6.457031 3.492188-13.71875 5.335938-21.007812 5.335938-16.289063 0-31.214844-8.890626-38.957031-23.207032-11.789063-21.789062-34.503907-35.324218-59.277344-35.324218h-155.109375c-24.777344 0-47.488281 13.535156-59.277344 35.324218-11.605469 21.457032-38.503906 29.472656-59.964844 17.871094-21.460937-11.609375-29.472656-38.507812-17.867187-59.96875 27.261718-50.402344 79.800781-81.714844 137.109375-81.714844h155.109375c57.308594 0 109.84375 31.3125 137.109375 81.714844 11.605469 21.460938 3.59375 48.363281-17.867188 59.96875zm0 0" fill="#3a312a"/><path d="m193.125 272.070312h66.191406v176.808594h-66.191406zm0 0" fill="#d7e057"/><path d="m259.320312 269.070312h-66.191406c-1.65625 0-3 1.339844-3 3v176.804688c0 1.660156 1.34375 3 3 3h66.191406c1.65625 0 3-1.339844 3-3v-176.804688c0-1.660156-1.34375-3-3-3zm-3 176.804688h-60.191406v-170.804688h60.191406zm0 0" fill="#3a312a"/><path d="m327.046875 134.285156h-201.652344c-31.859375 0-57.6875 25.828125-57.6875 57.691406 0 31.859376 25.828125 57.6875 57.6875 57.6875h201.652344c31.863281 0 57.691406-25.828124 57.691406-57.6875 0-31.863281-25.828125-57.691406-57.691406-57.691406zm0 0" fill="#fce8cb"/><path d="m327.050781 131.285156h-201.652343c-33.464844 0-60.691407 27.226563-60.691407 60.691406 0 33.460938 27.226563 60.6875 60.691407 60.6875h201.652343c33.464844 0 60.6875-27.226562 60.6875-60.6875 0-33.46875-27.222656-60.691406-60.6875-60.691406zm0 115.378906h-201.652343c-30.15625 0-54.691407-24.535156-54.691407-54.691406s24.53125-54.691406 54.691407-54.691406h201.652343c30.15625 0 54.6875 24.535156 54.6875 54.691406s-24.53125 54.691406-54.6875 54.691406zm0 0" fill="#3a312a"/><path d="m443.523438 156.144531c-27.789063-51.375-81.335938-83.289062-139.746094-83.289062h-155.109375c-58.410157 0-111.957031 31.914062-139.746094 83.289062-12.414063 22.949219-3.875 51.617188 19.074219 64.03125 22.957031 12.414063 51.621094 3.867188 64.03125-19.078125 11.265625-20.820312 32.964844-33.753906 56.640625-33.753906h155.109375c23.675781 0 45.375 12.933594 56.640625 33.753906 8.546875 15.804688 24.804687 24.773438 41.59375 24.773438 7.589843 0 15.289062-1.832032 22.4375-5.695313 22.945312-12.414062 31.492187-41.082031 19.074219-64.03125zm0 0" fill="#f16c7a"/><path d="m446.160156 154.714844c-28.3125-52.34375-82.871094-84.863282-142.382812-84.863282h-155.109375c-59.515625 0-114.070313 32.519532-142.386719 84.863282-13.179688 24.367187-4.078125 54.914062 20.289062 68.097656 24.371094 13.183594 54.917969 4.078125 68.101563-20.289062 10.734375-19.851563 31.425781-32.183594 53.996094-32.183594h155.113281c22.570312 0 43.261719 12.332031 54 32.179687 8.789062 16.253907 25.738281 26.351563 44.234375 26.351563 8.28125 0 16.53125-2.097656 23.863281-6.058594 11.800782-6.386719 20.414063-16.984375 24.246094-29.847656 3.828125-12.859375 2.421875-26.445313-3.964844-38.25zm-1.789062 36.539062c-3.371094 11.324219-10.957032 20.660156-21.351563 26.28125-6.457031 3.492188-13.71875 5.335938-21.007812 5.335938-16.289063 0-31.214844-8.890625-38.957031-23.203125-11.789063-21.792969-34.503907-35.328125-59.277344-35.328125h-155.109375c-24.777344 0-47.488281 13.535156-59.277344 35.328125-11.609375 21.457031-38.511719 29.46875-59.964844 17.867187-21.460937-11.609375-29.472656-38.507812-17.867187-59.964844 27.265625-50.40625 79.800781-81.714843 137.109375-81.714843h155.109375c57.308594 0 109.84375 31.3125 137.109375 81.714843 5.621093 10.394532 6.859375 22.355469 3.484375 33.683594zm0 0" fill="#3a312a"/><path d="m193.125 72.855469h66.191406v176.808593h-66.191406zm0 0" fill="#d7e057"/><path d="m259.320312 69.855469h-66.191406c-1.65625 0-3 1.339843-3 3v35.90625c0 1.660156 1.34375 3 3 3s3-1.339844 3-3v-32.90625h60.191406v170.808593h-60.191406v-107.433593c0-1.65625-1.34375-3-3-3s-3 1.34375-3 3v110.433593c0 1.65625 1.34375 3 3 3h66.191406c1.65625 0 3-1.34375 3-3v-176.808593c0-1.660157-1.34375-3-3-3zm0 0" fill="#3a312a"/><g fill="#d34e5c"><path d="m440.882812 356.777344c-27.257812-50.402344-79.796874-81.699219-137.097656-81.699219h-28.679687c57.320312 0 109.859375 31.296875 137.117187 81.699219 11.601563 21.460937 3.582032 48.359375-17.859375 59.980468-2.140625 1.160157-4.398437 2.140626-6.699219 2.9375 4.539063 1.5625 9.378907 2.382813 14.339844 2.382813 7.300782 0 14.558594-1.839844 21.019532-5.320313 21.457031-11.621093 29.480468-38.519531 17.859374-59.980468zm0 0"/><path d="m440.882812 157.578125c-27.257812-50.421875-79.796874-81.722656-137.097656-81.722656h-28.679687c57.320312 0 109.859375 31.300781 137.117187 81.722656 5.621094 10.378906 6.863282 22.339844 3.480469 33.679687-3.378906 11.320313-10.960937 20.660157-21.339844 26.277344-2.160156 1.160156-4.417969 2.160156-6.738281 2.941406 4.558594 1.558594 9.398438 2.398438 14.378906 2.398438 7.300782 0 14.558594-1.839844 21.019532-5.339844 10.402343-5.617187 17.980468-14.957031 21.359374-26.277344 3.359376-11.339843 2.121094-23.300781-3.5-33.679687zm0 0"/></g></svg>