<svg height="453pt" viewBox="0 -1 453.58433 453" width="453pt" xmlns="http://www.w3.org/2000/svg"><path d="m433.886719 337.351562c-2.953125-7.996093-23.179688.410157-45.171875 18.773438-21.992188 18.359375-37.421875 39.730469-34.46875 47.726562 2.957031 7.996094 23.183594-.410156 45.175781-18.773437 21.988281-18.363281 37.421875-39.730469 34.464844-47.726563zm0 0" fill="#f16c7a"/><path d="m436.703125 336.3125c-.867187-2.34375-2.671875-3.941406-5.21875-4.617188-10.1875-2.722656-30.4375 10.222657-44.691406 22.125-20.089844 16.777344-39.3125 40.375-35.359375 51.070313.867187 2.339844 2.671875 3.9375 5.21875 4.617187.925781.25 1.9375.367188 3.019531.367188 10.796875 0 28.714844-11.675781 41.671875-22.492188 20.09375-16.777343 39.3125-40.378906 35.359375-51.070312zm-39.203125 46.464844c-18.519531 15.460937-34.089844 22.328125-39.300781 20.933594-.820313-.21875-1.011719-.566407-1.136719-.902344-1.925781-5.210938 9.914062-24.621094 33.578125-44.378906 16.960937-14.164063 31.429687-21.113282 37.761719-21.113282.582031 0 1.097656.058594 1.539062.175782.820313.21875 1.011719.566406 1.132813.902343 1.929687 5.214844-9.910157 24.621094-33.574219 44.382813zm0 0" fill="#3a312a"/><path d="m403.09375 408.375c-26.574219-10.703125-48.40625-12.476562-48.757812-3.957031-.351563 8.515625 20.90625 24.097656 47.484374 34.796875 26.574219 10.707031 48.40625 12.476562 48.757813 3.960937.351563-8.519531-20.90625-24.101562-47.484375-34.800781zm0 0" fill="#f16c7a"/><path d="m404.214844 405.589844c-17.226563-6.9375-40.488282-13.015625-49.332032-7.296875-2.214843 1.429687-3.441406 3.503906-3.542968 6-.46875 11.390625 25.082031 27.929687 49.363281 37.710937 12.433594 5.007813 28.007813 9.5625 39.039063 9.5625 4.25 0 7.828124-.679687 10.292968-2.269531 2.214844-1.429687 3.441406-3.503906 3.542969-6 .46875-11.390625-25.082031-27.925781-49.363281-37.707031zm42.5625 38.667968c-4.546875 2.933594-21.457032 1.1875-43.835938-7.824218-28.597656-11.515625-45.835937-26.335938-45.605468-31.894532.011718-.355468.085937-.742187.800781-1.207031 1.320312-.851562 3.679687-1.308593 6.914062-1.308593 7.910157 0 21.039063 2.738281 36.921875 9.132812 28.597656 11.519531 45.835938 26.339844 45.605469 31.894531-.011719.355469-.085937.746094-.800781 1.207031zm0 0" fill="#3a312a"/><path d="m307.90625 163.773438c-1.949219 23.125-26.050781 26.777343-26.050781 26.777343 20.695312.976563 25.851562 28.121094 25.851562 28.121094.441407-19.355469 26.640625-28.40625 26.640625-28.40625-19.625-1.175781-26.441406-26.492187-26.441406-26.492187zm0 0" fill="#d7e057"/><path d="m334.53125 187.273438c-17.210938-1.035157-23.667969-24.050782-23.730469-24.285157-.378906-1.402343-1.699219-2.304687-3.167969-2.203125-1.449218.132813-2.59375 1.285156-2.71875 2.734375-1.714843 20.433594-22.621093 23.929688-23.507812 24.066407-1.523438.230468-2.625 1.582031-2.542969 3.121093.078125 1.542969 1.3125 2.769531 2.855469 2.839844 18.054688.851563 22.996094 25.4375 23.046875 25.6875.273437 1.421875 1.519531 2.4375 2.945313 2.4375.082031 0 .167968-.003906.25-.011719 1.53125-.128906 2.714843-1.386718 2.75-2.921875.386718-17.015625 24.382812-25.550781 24.625-25.636719 1.351562-.46875 2.183593-1.828124 1.988281-3.242187-.199219-1.417969-1.367188-2.5-2.792969-2.585937zm-27.132812 20.691406c-2.714844-6.261719-7.417969-13.816406-15.175782-17.753906 5.863282-2.8125 12.816406-7.828126 16.402344-16.546876 3.105469 6.140626 8.402344 13.757813 16.671875 17.445313-6.015625 3.277344-13.847656 8.808594-17.898437 16.855469zm0 0" fill="#3a312a"/><path d="m264.511719 197.730469c-1.378907 16.359375-18.425781 18.945312-18.425781 18.945312 14.632812.6875 18.28125 19.886719 18.28125 19.886719.3125-13.691406 18.84375-20.089844 18.84375-20.089844-13.882813-.832031-18.699219-18.742187-18.699219-18.742187zm0 0" fill="#d7e057"/><path d="m283.390625 213.476562c-11.53125-.691406-15.941406-16.371093-15.988281-16.53125-.375-1.402343-1.714844-2.308593-3.160156-2.199218-1.453126.128906-2.601563 1.28125-2.722657 2.734375-1.15625 13.742187-15.289062 16.132812-15.882812 16.226562-1.523438.230469-2.625 1.582031-2.542969 3.117188.078125 1.542969 1.3125 2.773437 2.855469 2.84375 12.066406.566406 15.445312 17.289062 15.476562 17.453125.269531 1.425781 1.515625 2.441406 2.945313 2.441406.082031 0 .164062-.003906.25-.011719 1.527344-.125 2.714844-1.382812 2.75-2.921875.261718-11.417968 16.664062-17.265625 16.824218-17.324218 1.351563-.464844 2.1875-1.824219 1.992188-3.242188-.199219-1.417969-1.367188-2.503906-2.796875-2.585938zm-19.167969 13.589844c-1.847656-3.773437-4.679687-7.890625-8.894531-10.558594 3.710937-2.082031 7.394531-5.257812 9.742187-9.832031 2.117188 3.746094 5.308594 7.90625 9.882813 10.445313-3.699219 2.199218-7.980469 5.480468-10.730469 9.945312zm0 0" fill="#3a312a"/><path d="m264.511719 144.417969c-1.378907 16.359375-18.425781 18.941406-18.425781 18.941406 14.632812.6875 18.28125 19.890625 18.28125 19.890625.3125-13.691406 18.84375-20.09375 18.84375-20.09375-13.882813-.832031-18.699219-18.738281-18.699219-18.738281zm0 0" fill="#d7e057"/><path d="m283.390625 160.164062c-11.53125-.691406-15.941406-16.371093-15.988281-16.53125-.375-1.40625-1.714844-2.308593-3.160156-2.203124-1.453126.128906-2.601563 1.285156-2.722657 2.734374-1.15625 13.738282-15.289062 16.132813-15.882812 16.226563-1.523438.230469-2.625 1.582031-2.542969 3.121094.078125 1.542969 1.3125 2.769531 2.855469 2.84375 12.066406.566406 15.445312 17.289062 15.476562 17.453125.269531 1.425781 1.515625 2.441406 2.945313 2.441406.082031 0 .164062-.003906.25-.011719 1.527344-.125 2.714844-1.386719 2.75-2.921875.261718-11.417968 16.664062-17.269531 16.824218-17.324218 1.351563-.46875 2.1875-1.824219 1.992188-3.242188-.199219-1.417969-1.367188-2.503906-2.796875-2.585938zm-19.167969 13.589844c-1.847656-3.773437-4.679687-7.894531-8.894531-10.558594 3.710937-2.085937 7.394531-5.261718 9.742187-9.835937 2.117188 3.75 5.308594 7.910156 9.882813 10.449219-3.699219 2.199218-7.976563 5.480468-10.730469 9.945312zm0 0" fill="#3a312a"/><path d="m322.144531 337.863281c-8.148437 0-15.863281 1.851563-22.753906 5.15625-6.375-30.761719-35.0625-52.394531-67.035156-49.261719-2.65625.257813-5.246094.699219-7.785157 1.277344.015626-.527344.042969-1.046875.042969-1.574218 0-23.453126-12.972656-43.871094-32.125-54.492188 3.535157-7.820312 5.519531-16.488281 5.519531-25.625 0-14.789062-5.164062-28.363281-13.777343-39.042969.476562-.476562.933593-.972656 1.390625-1.464843 13.160156-10.46875 21.605468-26.605469 21.605468-44.726563 0-17.082031-7.507812-32.402344-19.386718-42.875.414062-3.117187.648437-6.292969.648437-9.523437 0-39.996094-32.425781-72.417969-72.417969-72.417969-17.5 0-33.542968 6.214843-46.058593 16.550781l-19.171875 24.410156c-2.683594 5.558594-4.683594 11.511719-5.878906 17.753906-24.417969 8.421876-41.964844 31.589844-41.964844 58.871094 0 17.792969 7.476562 33.832032 19.445312 45.179688.796875 1.140625 1.628906 2.253906 2.503906 3.335937-11.222656 11.261719-18.160156 26.796875-18.160156 43.949219 0 23.453125 12.972656 43.871094 32.125 54.492188-3.535156 7.816406-5.519531 16.484374-5.519531 25.621093 0 34.398438 27.882813 62.277344 62.277344 62.277344h.058593c1.273438 33.273437 28.632813 59.859375 62.21875 59.859375 6.382813 0 12.542969-.964844 18.339844-2.75 9.878906 21.34375 31.472656 36.160156 56.535156 36.160156 20.082032 0 37.929688-9.515625 49.316407-24.273437 9.65625 11.277343 23.988281 18.433593 40 18.433593 29.078125 0 52.652343-23.574218 52.652343-52.652343.007813-29.078125-23.566406-52.648438-52.644531-52.648438zm0 0" fill="#d7e057"/><path d="m322.144531 334.863281c-7.175781 0-14.109375 1.332031-20.664062 3.960938-8.167969-30.722657-37.375-51.210938-69.414063-48.054688-1.46875.144531-2.96875.347657-4.488281.609375-.703125-22.007812-12.488281-42.203125-31.289063-53.667968 3.132813-7.757813 4.71875-15.941407 4.71875-24.363282 0-13.929687-4.519531-27.589844-12.769531-38.765625 13.988281-11.488281 21.988281-28.371093 21.988281-46.472656 0-16.71875-6.984374-32.679687-19.214843-44.050781.316406-2.835938.476562-5.632813.476562-8.347656 0-41.585938-33.832031-75.417969-75.417969-75.417969-17.46875 0-34.507812 6.121093-47.964843 17.238281-1.28125 1.054688-1.460938 2.945312-.402344 4.222656 1.050781 1.277344 2.945313 1.460938 4.222656.398438 12.382813-10.226563 28.0625-15.863282 44.144531-15.863282 38.28125 0 69.417969 31.144532 69.417969 69.421876 0 2.949218-.207031 6.019531-.621093 9.128906-.132813.992187.238281 1.984375.988281 2.644531 11.675781 10.289063 18.371093 25.097656 18.371093 40.621094 0 16.582031-7.460937 32.03125-20.46875 42.378906-.117187.089844-.222656.191406-.320312.296875l-.238281.25c-.359375.386719-.714844.769531-1.085938 1.140625-1.085937 1.085937-1.175781 2.808594-.21875 4.003906 8.578125 10.636719 13.113281 23.492188 13.113281 37.164063 0 8.472656-1.769531 16.679687-5.253906 24.386718-.640625 1.421876-.085937 3.101563 1.28125 3.859376 18.859375 10.457031 30.578125 30.335937 30.578125 51.871093 0 .324219-.011719.652344-.023437.976563l-.015625.519531c-.027344.925781.378906 1.8125 1.097656 2.398437.714844.585938 1.65625.800782 2.566406.605469 2.519531-.574219 5.007813-.984375 7.410157-1.21875 30.214843-2.980469 57.648437 17.199219 63.804687 46.886719.1875.902344.777344 1.671875 1.605469 2.082031.824218.40625 1.796875.414063 2.628906.015625 6.71875-3.226562 13.9375-4.863281 21.453125-4.863281 27.378906 0 49.652344 22.273437 49.652344 49.648437 0 27.378907-22.273438 49.65625-49.652344 49.65625-14.507813 0-28.253906-6.339843-37.714844-17.382812-.585937-.6875-1.46875-1.144531-2.355469-1.046875-.902343.023437-1.746093.453125-2.296874 1.164063-11.332032 14.683593-28.445313 23.101562-46.949219 23.101562-23.011719 0-44.132813-13.511719-53.808594-34.417969-.628906-1.363281-2.164063-2.046875-3.605469-1.609375-5.640625 1.738282-11.519531 2.621094-17.460937 2.621094-31.984375 0-57.996094-25.027344-59.21875-56.976562-.058594-1.609376-1.445313-2.882813-3.054688-2.882813-32.691406 0-59.28125-26.589844-59.28125-59.277344 0-8.472656 1.765625-16.679687 5.253907-24.386719.640624-1.421874.085937-3.101562-1.28125-3.859374-18.859376-10.457032-30.578126-30.335938-30.578126-51.867188 0-15.789062 6.140626-30.644531 17.285157-41.832031 1.078125-1.085938 1.171875-2.808594.207031-4.003907-.792969-.984374-1.597656-2.054687-2.382812-3.171874-.113282-.164063-.246094-.316407-.386719-.457032-11.9375-11.316406-18.507813-26.589844-18.507813-43.003906 0-25.273438 16.050782-47.792969 39.941406-56.035156 1.015626-.351563 1.765626-1.21875 1.96875-2.273438 1.125-5.882812 3.019532-11.605468 5.628907-17.011718.722656-1.492188.097656-3.285157-1.394531-4.007813-1.492188-.722656-3.285157-.09375-4.007813 1.398437-2.585937 5.359376-4.527344 11.003907-5.777344 16.804688-25.410156 9.523438-42.363281 33.871094-42.363281 61.128906 0 17.976563 7.15625 34.710938 20.160156 47.148438.277344.390625.554688.777344.835938 1.15625-11.117188 12.078125-17.207032 27.65625-17.207032 44.160156 0 22.804688 11.933594 43.925781 31.320313 55.75-3.132813 7.757812-4.71875 15.941406-4.71875 24.367188 0 35.046874 27.765625 63.730468 62.511719 65.214843 2.726562 33.824219 30.773437 59.917969 65.046875 59.917969 5.675781 0 11.296875-.730469 16.75-2.171875 11.105469 21.699219 33.644531 35.582031 58.125 35.582031 19.1875 0 37.015625-8.222656 49.449219-22.683594 10.457031 10.746094 24.792968 16.847657 39.867187 16.847657 30.6875 0 55.652344-24.96875 55.652344-55.65625.003906-30.6875-24.960938-55.648438-55.648438-55.648438zm0 0" fill="#3a312a"/><g fill="#b9c239"><path d="m232.65625 296.742188c-2.398438.238281-4.898438.640624-7.421875 1.21875-.898437.203124-1.839844-.019532-2.558594-.597657-.71875-.582031-1.121093-1.480469-1.101562-2.402343l.023437-.597657c0-.300781.019532-.601562.019532-.902343 0-21.539063-11.722657-41.417969-30.582032-51.878907-1.359375-.738281-1.917968-2.417969-1.277344-3.859375 3.476563-7.699218 5.257813-15.902344 5.257813-24.378906 0-13.660156-4.539063-26.523438-13.121094-37.160156-.957031-1.203125-.859375-2.921875.222657-4 .398437-.402344.777343-.820313 1.179687-1.242188l.140625-.160156c.097656-.097656.199219-.199219.320312-.300781 13.019532-10.339844 20.476563-25.796875 20.476563-42.378907 0-15.519531-6.699219-30.339843-18.378906-40.621093-.738281-.660157-1.121094-1.660157-.980469-2.636719.402344-3.101562.621094-6.179688.621094-9.140625 0-38.261719-31.140625-69.421875-69.421875-69.421875-5.097657 0-10.078125.5625-14.898438 1.621094 31.140625 6.820312 54.519531 34.640625 54.519531 67.800781 0 2.960937-.21875 6.039063-.621093 9.140625-.136719.976562.242187 1.976562.980469 2.636719 11.679687 10.28125 18.382812 25.101562 18.382812 40.621093 0 16.582032-7.460938 32.039063-20.480469 42.378907-.121093.101562-.222656.203125-.320312.300781l-.140625.160156c-.398438.421875-.78125.839844-1.179688 1.242188-1.082031 1.078125-1.179687 2.796875-.21875 4 8.578125 10.636718 13.117188 23.5 13.117188 37.160156 0 8.476562-1.777344 16.679688-5.257813 24.378906-.640625 1.441406-.082031 3.121094 1.277344 3.859375 18.863281 10.460938 30.582031 30.339844 30.582031 51.878907 0 .300781-.019531.601562-.019531.902343l-.019531.597657c-.019532.921874.378906 1.820312 1.097656 2.402343.722656.578125 1.660156.800781 2.5625.597657 2.519531-.578126 5.019531-.980469 7.417969-1.21875 30.21875-2.960938 57.640625 17.199218 63.800781 46.878906.179688.921875.78125 1.679687 1.601562 2.082031.839844.417969 1.796876.417969 2.636719.019531 6.722657-3.21875 13.941407-4.859375 21.441407-4.859375 1.179687 0 2.339843.039063 3.5.140625-7.160157-28.242187-33.859376-47.140625-63.179688-44.261718zm0 0"/><path d="m322.136719 340.863281c-5.121094 0-10.121094.757813-14.902344 2.277344 20.121094 6.339844 34.761719 25.179687 34.761719 47.382813 0 22.160156-14.621094 41-34.71875 47.339843 4.757812 1.519531 9.757812 2.300781 14.859375 2.300781 27.378906 0 49.660156-22.28125 49.660156-49.640624 0-27.382813-22.28125-49.660157-49.660156-49.660157zm0 0"/></g></svg>