<svg height="451pt" viewBox="-25 0 451 451.756" width="451pt" xmlns="http://www.w3.org/2000/svg"><path d="m65.199219 374.816406c-1.949219 23.128906-26.046875 26.78125-26.046875 26.78125 20.695312.972656 25.847656 28.117188 25.847656 28.117188.445312-19.351563 26.644531-28.402344 26.644531-28.402344-19.628906-1.175781-26.445312-26.496094-26.445312-26.496094zm0 0" fill="#d7e057"/><path d="m91.820312 398.316406c-17.207031-1.03125-23.664062-24.046875-23.726562-24.28125-.382812-1.40625-1.71875-2.34375-3.164062-2.207031-1.453126.132813-2.597657 1.285156-2.71875 2.734375-1.722657 20.433594-22.628907 23.929688-23.511719 24.066406-1.523438.230469-2.625 1.582032-2.546875 3.117188.082031 1.542968 1.316406 2.773437 2.855468 2.84375 18.054688.851562 23 25.4375 23.046876 25.6875.273437 1.421875 1.515624 2.433594 2.941406 2.433594.085937 0 .167968-.003907.253906-.007813 1.527344-.128906 2.714844-1.386719 2.75-2.921875.390625-17.015625 24.382812-25.554688 24.625-25.636719 1.351562-.46875 2.183594-1.828125 1.988281-3.246093-.195312-1.414063-1.363281-2.496094-2.792969-2.582032zm-27.128906 20.691406c-2.714844-6.261718-7.417968-13.816406-15.175781-17.753906 5.863281-2.808594 12.816406-7.824218 16.402344-16.546875 3.105469 6.140625 8.402343 13.761719 16.671875 17.445313-6.015625 3.28125-13.847656 8.8125-17.898438 16.855468zm0 0" fill="#3a312a"/><path d="m21.800781 408.78125c-1.375 16.355469-18.425781 18.941406-18.425781 18.941406 14.636719.6875 18.285156 19.886719 18.285156 19.886719.3125-13.6875 18.84375-20.089844 18.84375-20.089844-13.878906-.832031-18.703125-18.738281-18.703125-18.738281zm0 0" fill="#d7e057"/><path d="m40.683594 424.523438c-11.53125-.6875-15.945313-16.371094-15.984375-16.53125-.382813-1.402344-1.714844-2.328126-3.164063-2.203126-1.453125.132813-2.597656 1.285157-2.722656 2.738282-1.15625 13.738281-15.289062 16.128906-15.882812 16.222656-1.527344.230469-2.625 1.582031-2.546876 3.121094.078126 1.542968 1.3125 2.769531 2.851563 2.84375 12.070313.566406 15.449219 17.289062 15.480469 17.453125.269531 1.425781 1.515625 2.441406 2.941406 2.441406.085938 0 .167969-.003906.25-.011719 1.53125-.125 2.71875-1.386718 2.753906-2.921875.257813-11.414062 16.664063-17.265625 16.824219-17.320312 1.355469-.46875 2.1875-1.828125 1.992187-3.246094-.195312-1.417969-1.363281-2.5-2.792968-2.585937zm-19.167969 13.589843c-1.847656-3.769531-4.679687-7.894531-8.894531-10.558593 3.710937-2.082032 7.394531-5.261719 9.742187-9.832032 2.113281 3.746094 5.308594 7.90625 9.882813 10.449219-3.699219 2.199219-7.976563 5.476563-10.730469 9.941406zm0 0" fill="#3a312a"/><path d="m21.800781 355.464844c-1.375 16.359375-18.425781 18.941406-18.425781 18.941406 14.636719.691406 18.285156 19.886719 18.285156 19.886719.3125-13.6875 18.84375-20.089844 18.84375-20.089844-13.878906-.832031-18.703125-18.738281-18.703125-18.738281zm0 0" fill="#d7e057"/><path d="m40.6875 371.210938c-11.535156-.691407-15.945312-16.371094-15.988281-16.53125-.382813-1.40625-1.714844-2.347657-3.164063-2.207032-1.453125.132813-2.597656 1.289063-2.722656 2.738282-1.15625 13.742187-15.289062 16.132812-15.882812 16.226562-1.527344.230469-2.625 1.582031-2.546876 3.121094.078126 1.539062 1.3125 2.769531 2.851563 2.839844 12.070313.570312 15.449219 17.292968 15.480469 17.457031.269531 1.425781 1.515625 2.4375 2.945312 2.4375.082032 0 .164063-.003907.25-.007813 1.53125-.128906 2.714844-1.386718 2.75-2.921875.261719-11.417969 16.664063-17.265625 16.824219-17.324219 1.355469-.464843 2.191406-1.824218 1.992187-3.242187-.195312-1.417969-1.363281-2.5-2.789062-2.585937zm-19.171875 13.585937c-1.847656-3.769531-4.679687-7.894531-8.894531-10.558594 3.710937-2.082031 7.394531-5.257812 9.742187-9.832031 2.113281 3.746094 5.308594 7.910156 9.882813 10.449219-3.699219 2.199219-7.976563 5.476562-10.730469 9.941406zm0 0" fill="#3a312a"/><path d="m207.707031 2.996094h39.519531v70.082031h-39.519531zm0 0" fill="#8ac6dd"/><path d="m247.226562 0h-39.519531c-1.65625 0-3 1.34375-3 3v70.078125c0 1.65625 1.34375 3 3 3h39.519531c1.660157 0 3-1.34375 3-3v-70.082031c0-1.652344-1.339843-2.996094-3-2.996094zm-3 70.078125h-33.519531v-64.082031h33.519531zm0 0" fill="#3a312a"/><path d="m93.296875 115.148438 10.101563 83.78125 13.847656 114.734374 4.03125 33.40625 3.746094 31.039063 2.570312 21.3125 3.476562 28.824219c1.410157 11.71875 11.359376 20.515625 23.132813 20.515625h146.53125c11.773437 0 21.722656-8.796875 23.132813-20.515625l13.824218-114.582032 13.847656-114.730468 10.101563-83.785156zm0 0" fill="#f16c7a"/><path d="m363.886719 113.15625c-.570313-.640625-1.386719-1.007812-2.246094-1.007812h-268.34375c-.859375 0-1.675781.367187-2.246094 1.007812-.570312.644531-.835937 1.5-.734375 2.351562l27.980469 231.921876c.199219 1.644531 1.695313 2.796874 3.339844 2.621093 1.644531-.199219 2.816406-1.695312 2.621093-3.339843l-27.578124-228.5625h261.578124l-37.371093 309.734374c-1.226563 10.191407-9.890625 17.875-20.152344 17.875h-146.535156c-10.261719 0-18.925781-7.683593-20.152344-17.875l-6.050781-50.136718c-.195313-1.640625-1.695313-2.789063-3.335938-2.617188-1.644531.199219-2.816406 1.691406-2.621094 3.335938l6.050782 50.132812c1.585937 13.203125 12.8125 23.160156 26.109375 23.160156h146.53125c13.296875 0 24.519531-9.957031 26.113281-23.15625l37.773438-313.09375c.105468-.851562-.160157-1.707031-.730469-2.351562zm0 0" fill="#3a312a"/><path d="m377.136719 73.082031h-299.335938c-11.617187 0-21.039062 9.417969-21.039062 21.035157 0 11.617187 9.417969 21.039062 21.039062 21.039062h299.335938c11.621093 0 21.039062-9.421875 21.039062-21.039062 0-11.617188-9.417969-21.035157-21.039062-21.035157zm0 0" fill="#fce8cb"/><path d="m377.136719 70.082031h-55.285157c-1.65625 0-3 1.34375-3 3s1.34375 3 3 3h55.285157c9.945312 0 18.039062 8.09375 18.039062 18.035157 0 9.945312-8.09375 18.039062-18.039062 18.039062h-299.335938c-9.945312 0-18.035156-8.09375-18.035156-18.039062 0-9.945313 8.089844-18.035157 18.035156-18.035157h213.949219c1.65625 0 3-1.34375 3-3s-1.34375-3-3-3h-213.949219c-13.253906 0-24.035156 10.785157-24.035156 24.035157 0 13.253906 10.78125 24.039062 24.035156 24.039062h299.335938c13.253906 0 24.039062-10.785156 24.039062-24.039062 0-13.253907-10.785156-24.035157-24.039062-24.035157zm0 0" fill="#3a312a"/><path d="m287.304688 198.929688c-15.09375-15.738282-36.3125-25.550782-59.835938-25.550782-23.527344 0-44.746094 9.8125-59.835938 25.550782h-64.234374l13.847656 114.730468h50.382812c15.09375 15.738282 36.3125 25.554688 59.839844 25.554688 23.523438 0 44.746094-9.816406 59.835938-25.554688h50.382812l13.847656-114.730468zm0 0" fill="#d7e057"/><path d="m353.78125 196.9375c-.570312-.640625-1.386719-1.007812-2.242188-1.007812h-62.964843c-16.277344-16.488282-37.921875-25.550782-61.105469-25.550782-23.179688 0-44.828125 9.0625-61.101562 25.550782h-62.96875c-.855469 0-1.675782.367187-2.246094 1.007812-.570313.640625-.835938 1.5-.734375 2.351562l13.851562 114.734376c.179688 1.507812 1.457031 2.636718 2.976563 2.636718h49.117187c16.273438 16.488282 37.921875 25.550782 61.101563 25.550782 23.179687 0 44.828125-9.0625 61.105468-25.550782h49.117188c1.515625 0 2.796875-1.128906 2.976562-2.636718l13.847657-114.734376c.105469-.851562-.160157-1.707031-.730469-2.351562zm-18.753906 113.726562h-47.722656c-.816407 0-1.597657.332032-2.164063.925782-15.230469 15.878906-35.710937 24.625-57.671875 24.625s-42.441406-8.746094-57.671875-24.625c-.566406-.59375-1.347656-.925782-2.167969-.925782h-47.722656l-13.121094-108.734374h60.847656c.816407 0 1.597657-.332032 2.164063-.921876 15.230469-15.882812 35.714844-24.628906 57.671875-24.628906 21.960938 0 42.441406 8.746094 57.671875 24.628906.566406.589844 1.347656.921876 2.167969.921876h60.847656zm0 0" fill="#3a312a"/><path d="m227.898438 201.492188c-30.257813-.238282-54.976563 24.09375-55.214844 54.347656-.242188 30.257812 24.09375 54.976562 54.347656 55.214844 30.253906.242187 54.976562-24.09375 55.214844-54.347657.238281-30.253906-24.09375-54.976562-54.347656-55.214843zm0 0" fill="#fce8cb"/><path d="m227.46875 198.515625c-31.859375 0-57.78125 25.917969-57.78125 57.78125 0 31.859375 25.917969 57.78125 57.78125 57.78125 31.859375 0 57.78125-25.921875 57.78125-57.78125 0-31.863281-25.921875-57.78125-57.78125-57.78125zm0 109.5625c-28.554688 0-51.78125-23.226563-51.78125-51.78125s23.226562-51.78125 51.78125-51.78125 51.78125 23.226563 51.78125 51.78125-23.226562 51.78125-51.78125 51.78125zm0 0" fill="#3a312a"/><path d="m320.089844 118.15625-9.382813 77.761719h38.160157l9.378906-77.761719zm0 0" fill="#d34e5c"/><path d="m296.128906 316.65625-13.421875 111.222656c-1.21875 10.199219-9.878906 17.878906-20.140625 17.878906h38.160156c10.261719 0 18.941407-7.679687 20.160157-17.878906l13.421875-111.222656zm0 0" fill="#d34e5c"/><path d="m377.128906 76.078125h-38.160156c9.9375 0 18.039062 8.101563 18.039062 18.039063 0 9.941406-8.101562 18.039062-18.039062 18.039062h38.160156c9.960938 0 18.039063-8.097656 18.039063-18.039062 0-9.9375-8.078125-18.039063-18.039063-18.039063zm0 0" fill="#decaad"/><path d="m309.988281 201.917969-13.140625 108.738281h38.179688l13.121094-108.738281zm0 0" fill="#b9c239"/></svg>