<svg height="452pt" viewBox="0 0 452.7701 452" width="452pt" xmlns="http://www.w3.org/2000/svg"><path d="m64.820312 22.738281c-1.949218 23.125-26.046874 26.777344-26.046874 26.777344 20.691406.976563 25.847656 28.121094 25.847656 28.121094.441406-19.355469 26.644531-28.40625 26.644531-28.40625-19.628906-1.175781-26.445313-26.492188-26.445313-26.492188zm0 0" fill="#d7e057"/><path d="m91.445312 46.234375c-17.210937-1.03125-23.667968-24.046875-23.730468-24.28125-.378906-1.402344-1.710938-2.316406-3.167969-2.203125-1.449219.132812-2.59375 1.28125-2.714844 2.734375-1.722656 20.429687-22.628906 23.929687-23.511719 24.066406-1.523437.230469-2.625 1.582031-2.542968 3.121094.078125 1.542969 1.3125 2.769531 2.855468 2.84375 18.054688.847656 22.996094 25.433594 23.042969 25.683594.277344 1.421875 1.519531 2.433593 2.945313 2.433593.085937 0 .167968 0 .253906-.011718 1.527344-.125 2.714844-1.382813 2.75-2.917969.386719-17.015625 24.382812-25.550781 24.625-25.636719 1.351562-.46875 2.183594-1.828125 1.984375-3.242187-.195313-1.421875-1.363281-2.503907-2.789063-2.589844zm-27.132812 20.691406c-2.714844-6.261719-7.417969-13.816406-15.175781-17.753906 5.863281-2.808594 12.816406-7.824219 16.402343-16.542969 3.101563 6.140625 8.402344 13.761719 16.671876 17.445313-6.015626 3.277343-13.847657 8.808593-17.898438 16.851562zm0 0" fill="#3a312a"/><path d="m21.421875 56.699219c-1.378906 16.359375-18.421875 18.941406-18.421875 18.941406 14.632812.691406 18.28125 19.886719 18.28125 19.886719.3125-13.6875 18.84375-20.089844 18.84375-20.089844-13.882812-.832031-18.703125-18.738281-18.703125-18.738281zm0 0" fill="#d7e057"/><path d="m40.304688 72.441406c-11.53125-.6875-15.941407-16.371094-15.984376-16.527344-.382812-1.40625-1.730468-2.320312-3.164062-2.207031-1.453125.132813-2.601562 1.285157-2.722656 2.738281-1.15625 13.742188-15.292969 16.132813-15.882813 16.226563-1.527343.230469-2.6249998 1.582031-2.54687475 3.125.08203125 1.539063 1.31249975 2.765625 2.85546875 2.839844 12.070313.566406 15.449219 17.289062 15.480469 17.453125.269531 1.425781 1.515625 2.4375 2.945312 2.4375.082032 0 .164063 0 .25-.007813 1.527344-.125 2.714844-1.386719 2.75-2.921875.261719-11.417968 16.664063-17.269531 16.824219-17.324218 1.351563-.46875 2.1875-1.828126 1.992187-3.246094-.199218-1.417969-1.367187-2.5-2.796874-2.585938zm-19.167969 13.589844c-1.847657-3.769531-4.679688-7.890625-8.894531-10.558594 3.710937-2.082031 7.394531-5.257812 9.742187-9.832031 2.113281 3.746094 5.308594 7.910156 9.882813 10.445313-3.699219 2.203124-7.980469 5.480468-10.730469 9.945312zm0 0" fill="#3a312a"/><path d="m21.421875 3.382812c-1.378906 16.359376-18.421875 18.941407-18.421875 18.941407 14.632812.6875 18.28125 19.890625 18.28125 19.890625.3125-13.691406 18.84375-20.09375 18.84375-20.09375-13.882812-.832032-18.703125-18.738282-18.703125-18.738282zm0 0" fill="#d7e057"/><path d="m40.304688 19.125c-11.53125-.6875-15.941407-16.371094-15.984376-16.527344-.382812-1.40625-1.730468-2.320312-3.164062-2.203125-1.453125.128907-2.601562 1.285157-2.722656 2.738281-1.15625 13.738282-15.292969 16.132813-15.882813 16.226563-1.527343.230469-2.6249998 1.578125-2.54687475 3.121094.08203125 1.539062 1.31249975 2.769531 2.85546875 2.84375 12.070313.566406 15.449219 17.285156 15.480469 17.449219.269531 1.425781 1.515625 2.441406 2.945312 2.441406.082032 0 .164063-.003906.25-.011719 1.527344-.125 2.714844-1.386719 2.75-2.921875.261719-11.417969 16.664063-17.265625 16.824219-17.320312 1.351563-.46875 2.1875-1.824219 1.992187-3.242188-.199218-1.421875-1.367187-2.503906-2.796874-2.59375zm-19.167969 13.59375c-1.847657-3.773438-4.679688-7.894531-8.894531-10.5625 3.710937-2.082031 7.394531-5.257812 9.742187-9.832031 2.113281 3.746093 5.308594 7.910156 9.882813 10.445312-3.699219 2.207031-7.980469 5.484375-10.730469 9.949219zm0 0" fill="#3a312a"/><path d="m292.125 56.796875c-4.601562 0-9.160156.140625-13.660156.398437 78.898437 4.5 140.960937 47.5625 140.960937 99.863282 0 20.898437-9.882812 40.957031-28.582031 57.976562-.300781.300782-.539062.640625-.71875 1-.160156.402344-.261719.820313-.261719 1.242188v190c0 21.640625-17.597656 39.238281-39.238281 39.238281h27.339844c21.640625 0 39.238281-17.597656 39.238281-39.238281v-190c0-.421875.101563-.839844.28125-1.242188.160156-.359375.398437-.699218.71875-1 18.679687-17.019531 28.5625-37.078125 28.5625-57.976562-.003906-55.28125-69.363281-100.261719-154.640625-100.261719zm0 0" fill="#decaad"/><path d="m292.125 53.796875c-87.066406 0-157.648438 46.230469-157.648438 103.265625 0 22.464844 10.957032 43.253906 29.554688 60.203125.003906.003906.003906.003906.003906.007813v49.867187c.03125 0 .058594-.003906.089844-.003906v31.039062c-.03125 0-.058594-.003906-.089844-.003906v109.101563c0 23.328124 18.914063 42.242187 42.246094 42.242187h171.6875c23.328125 0 42.242188-18.914063 42.242188-42.242187v-190.003907c.003906-.003906.003906-.003906.003906-.007812 18.597656-16.945313 29.558594-37.734375 29.558594-60.199219-.003907-57.035156-70.582032-103.265625-157.648438-103.265625zm0 0" fill="#87796f"/><path d="m292.121094 50.796875c-88.578125 0-160.644532 47.671875-160.644532 106.265625 0 22.261719 10.214844 43.507812 29.558594 61.519531v48.558594c0 .242187.03125.476563.085938.703125v29.605469c-.054688.230469-.085938.472656-.085938.722656v109.101563c0 24.949218 20.296875 45.246093 45.246094 45.246093h103.753906c1.65625 0 3-1.34375 3-3 0-1.660156-1.34375-3-3-3h-103.753906c-21.640625 0-39.246094-17.605469-39.246094-39.246093v-108.375c.054688-.230469.085938-.472657.085938-.722657v-31.039062c0-.242188-.03125-.476563-.085938-.703125v-49.164063c0-.421875-.089844-.835937-.261718-1.21875-.070313-.15625-.152344-.308593-.246094-.453125-.136719-.203125-.296875-.390625-.476563-.554687-18.695312-17.035157-28.574219-37.085938-28.574219-57.984375 0-55.289063 69.375-100.269532 154.644532-100.269532 85.273437 0 154.648437 44.980469 154.648437 100.269532 0 20.894531-9.882812 40.949218-28.578125 57.984375-.460937.421875-.78125.976562-.910156 1.578125-.046875.214844-.070312.433594-.070312.648437v190.003907c0 21.640624-17.605469 39.242187-39.246094 39.242187h-37.789063c-1.65625 0-3 1.34375-3 3 0 1.660156 1.34375 3 3 3h37.789063c24.953125 0 45.246094-20.292969 45.246094-45.242187v-188.691407c19.34375-18.015625 29.558593-39.261719 29.558593-61.519531 0-58.59375-72.066406-106.265625-160.648437-106.265625zm0 0" fill="#3a312a"/><path d="m292.125 56.796875c-4.601562 0-9.160156.140625-13.660156.398437 78.898437 4.5 140.960937 47.5625 140.960937 99.863282 0 20.898437-9.882812 40.957031-28.582031 57.976562-.300781.300782-.539062.640625-.71875 1-.160156.402344-.261719.820313-.261719 1.242188v190c0 21.640625-17.597656 39.238281-39.238281 39.238281h27.339844c21.640625 0 39.238281-17.597656 39.238281-39.238281v-190c0-.421875.101563-.839844.28125-1.242188.160156-.359375.398437-.699218.71875-1 18.679687-17.019531 28.5625-37.078125 28.5625-57.976562-.003906-55.28125-69.363281-100.261719-154.640625-100.261719zm0 0" fill="#695b51"/><path d="m187.089844 53.796875c-87.066406 0-157.648438 46.230469-157.648438 103.265625 0 22.464844 10.957032 43.253906 29.550782 60.203125.003906.003906.003906.003906.007812.007813v49.867187c.027344 0 .054688-.003906.085938-.003906v31.039062c-.03125 0-.058594-.003906-.085938-.003906v109.101563c0 23.328124 18.910156 42.242187 42.242188 42.242187h171.6875c23.332031 0 42.246093-18.914063 42.246093-42.242187v-190c0-.003907 0-.007813.003907-.007813 18.59375-16.949219 29.550781-37.738281 29.550781-60.203125.003906-57.035156-70.578125-103.265625-157.640625-103.265625zm0 0" fill="#fce8cb"/><path d="m187.089844 50.796875c-88.582032 0-160.648438 47.671875-160.648438 106.265625 0 22.261719 10.214844 43.507812 29.558594 61.519531v48.558594c0 1.660156 1.433594 2.996094 3.089844 2.996094 1.652344 0 2.957031-1.339844 2.957031-2.996094 0-.171875-.015625-.34375-.046875-.507813v-49.359374c0-.421876-.089844-.835938-.257812-1.21875-.167969-.378907-.410157-.722657-.722657-1.007813-18.699219-17.035156-28.578125-37.085937-28.578125-57.984375 0-55.289062 69.375-100.265625 154.648438-100.265625 85.269531 0 154.644531 44.976563 154.644531 100.265625 0 20.898438-9.878906 40.949219-28.578125 57.984375-.179688.167969-.339844.351563-.472656.554687-.09375.140626-.175782.292969-.246094.453126-.171875.382812-.261719.796874-.261719 1.21875v190.003906c0 21.640625-17.605469 39.242187-39.242187 39.242187h-171.691406c-21.636719 0-39.242188-17.601562-39.242188-39.242187v-108.132813c.109375-.300781.167969-.625.167969-.964843 0-1.65625-1.265625-2.996094-2.921875-2.996094-1.695313-.105469-3.246094 1.265625-3.246094 2.992187v109.101563c0 24.949218 20.296875 45.242187 45.242188 45.242187h171.691406c24.945312 0 45.242187-20.292969 45.242187-45.242187v-188.691406c19.34375-18.011719 29.558594-39.261719 29.558594-61.519532 0-58.597656-72.066406-106.269531-160.644531-106.269531zm0 0" fill="#3a312a"/><path d="m187.089844 56.796875c-4.601563 0-9.160156.140625-13.660156.398437 78.898437 4.5 140.957031 47.5625 140.957031 99.863282 0 20.898437-9.878907 40.957031-28.578125 57.976562-.300782.300782-.539063.640625-.71875 1-.160156.402344-.261719.820313-.261719 1.242188v190c0 21.640625-17.601563 39.238281-39.238281 39.238281h27.339844c21.636718 0 39.238281-17.597656 39.238281-39.238281v-190c0-.421875.101562-.839844.28125-1.242188.160156-.359375.398437-.699218.71875-1 18.679687-17.019531 28.558593-37.078125 28.558593-57.976562 0-55.28125-69.359374-100.261719-154.636718-100.261719zm0 0" fill="#decaad"/></svg>