<svg height="451pt" viewBox="-82 0 451 451.776" width="451pt" xmlns="http://www.w3.org/2000/svg"><path d="m65.210938 53.175781c-1.949219 23.125-26.050782 26.777344-26.050782 26.777344 20.695313.976563 25.851563 28.117187 25.851563 28.117187.441406-19.351562 26.640625-28.402343 26.640625-28.402343-19.625-1.175781-26.441406-26.492188-26.441406-26.492188zm0 0" fill="#d7e057"/><path d="m91.832031 76.675781c-17.210937-1.03125-23.664062-24.050781-23.726562-24.285156-.382813-1.40625-1.722657-2.316406-3.167969-2.199219-1.453125.128906-2.597656 1.28125-2.71875 2.734375-1.71875 20.429688-22.625 23.925781-23.507812 24.0625-1.527344.230469-2.625 1.582031-2.546876 3.121094.078126 1.542969 1.3125 2.769531 2.855469 2.84375 18.054688.847656 22.996094 25.433594 23.042969 25.683594.277344 1.421875 1.519531 2.433593 2.945312 2.433593.085938 0 .167969-.003906.253907-.011718 1.527343-.125 2.710937-1.382813 2.75-2.917969.386719-17.019531 24.382812-25.554687 24.625-25.636719 1.347656-.46875 2.183593-1.828125 1.988281-3.246094-.195312-1.417968-1.363281-2.5-2.792969-2.582031zm-27.132812 20.6875c-2.710938-6.261719-7.417969-13.8125-15.171875-17.753906 5.859375-2.808594 12.816406-7.824219 16.402344-16.542969 3.101562 6.140625 8.402343 13.757813 16.667968 17.445313-6.011718 3.277343-13.84375 8.808593-17.898437 16.851562zm0 0" fill="#3a312a"/><path d="m21.8125 87.136719c-1.378906 16.355469-18.425781 18.941406-18.425781 18.941406 14.636719.6875 18.285156 19.886719 18.285156 19.886719.3125-13.6875 18.84375-20.089844 18.84375-20.089844-13.882813-.832031-18.703125-18.738281-18.703125-18.738281zm0 0" fill="#d7e057"/><path d="m40.695312 102.878906c-11.535156-.6875-15.945312-16.371094-15.988281-16.527344-.382812-1.402343-1.710937-2.34375-3.164062-2.203124-1.453125.128906-2.597657 1.285156-2.722657 2.734374-1.15625 13.742188-15.289062 16.132813-15.882812 16.226563-1.527344.234375-2.625 1.582031-2.546875 3.121094.082031 1.542969 1.316406 2.773437 2.859375 2.84375 12.066406.566406 15.445312 17.289062 15.476562 17.453125.269532 1.421875 1.515626 2.4375 2.945313 2.4375.082031 0 .164063-.003906.25-.007813 1.527344-.128906 2.714844-1.386719 2.75-2.921875.261719-11.417968 16.664063-17.269531 16.828125-17.324218 1.351562-.46875 2.1875-1.828126 1.988281-3.246094-.195312-1.417969-1.363281-2.5-2.792969-2.585938zm-19.167968 13.589844c-1.847656-3.769531-4.679688-7.894531-8.894532-10.558594 3.710938-2.082031 7.394532-5.257812 9.742188-9.832031 2.113281 3.746094 5.308594 7.910156 9.882812 10.449219-3.703124 2.199218-7.980468 5.480468-10.730468 9.941406zm0 0" fill="#3a312a"/><path d="m21.8125 33.820312c-1.378906 16.359376-18.425781 18.941407-18.425781 18.941407 14.636719.6875 18.285156 19.886719 18.285156 19.886719.3125-13.6875 18.84375-20.089844 18.84375-20.089844-13.882813-.832032-18.703125-18.738282-18.703125-18.738282zm0 0" fill="#d7e057"/><path d="m40.695312 49.566406c-11.535156-.691406-15.945312-16.371094-15.988281-16.53125-.382812-1.402344-1.710937-2.332031-3.164062-2.203125-1.453125.132813-2.597657 1.285157-2.722657 2.734375-1.15625 13.742188-15.289062 16.132813-15.882812 16.226563-1.527344.230469-2.625 1.582031-2.546875 3.117187.082031 1.542969 1.316406 2.773438 2.855469 2.84375 12.070312.566406 15.449218 17.289063 15.476562 17.453125.269532 1.425781 1.519532 2.441407 2.945313 2.441407.082031 0 .167969-.003907.25-.011719 1.53125-.125 2.714843-1.382813 2.753906-2.921875.261719-11.414063 16.664063-17.265625 16.824219-17.320313 1.355468-.46875 2.1875-1.828125 1.992187-3.246093-.195312-1.414063-1.363281-2.5-2.792969-2.582032zm-19.167968 13.589844c-1.847656-3.773438-4.679688-7.894531-8.894532-10.558594 3.710938-2.082031 7.394532-5.261718 9.742188-9.832031 2.113281 3.746094 5.308594 7.90625 9.882812 10.445313-3.703124 2.199218-7.980468 5.480468-10.730468 9.945312zm0 0" fill="#3a312a"/><path d="m228.09375 2.996094h-91.59375c-10.722656 0-19.414062 8.695312-19.414062 19.414062 0 10.722656 8.691406 19.414063 19.414062 19.414063h91.59375c10.71875 0 19.414062-8.691407 19.414062-19.414063 0-10.71875-8.691406-19.414062-19.414062-19.414062zm0 0" fill="#87796f"/><path d="m228.09375 0h-41.746094c-1.660156 0-3 1.34375-3 3s1.339844 3 3 3h41.746094c9.050781 0 16.414062 7.363281 16.414062 16.414062 0 9.050782-7.363281 16.414063-16.414062 16.414063h-91.59375c-9.050781 0-16.414062-7.363281-16.414062-16.414063 0-9.050781 7.363281-16.414062 16.414062-16.414062h19.75c1.65625 0 3-1.34375 3-3s-1.34375-3-3-3h-19.75c-12.359375 0-22.414062 10.054688-22.414062 22.414062 0 12.359376 10.054687 22.414063 22.414062 22.414063h91.59375c12.359375 0 22.414062-10.054687 22.414062-22.414063 0-12.359374-10.054687-22.414062-22.414062-22.414062zm0 0" fill="#3a312a"/><path d="m256.265625 166.089844c-17.828125-12.613282-28.421875-33.09375-28.421875-54.925782v-69.335937h-91.089844v69.332031c0 21.835938-10.597656 42.3125-28.421875 54.925782-17.828125 12.613281-28.425781 33.089843-28.425781 54.925781v194.839843c0 18.179688 14.742188 32.921876 32.925781 32.921876h138.933594c18.179687 0 32.921875-14.742188 32.921875-32.921876v-194.839843c-.003906-21.832031-10.597656-42.3125-28.421875-54.921875zm0 0" fill="#8ac6dd"/><path d="m257.996094 163.636719c-17.003906-12.027344-27.152344-31.644531-27.152344-52.472657v-69.335937c0-1.65625-1.34375-3-3-3h-91.089844c-1.660156 0-3 1.34375-3 3v69.335937c0 20.828126-10.152344 40.445313-27.15625 52.472657-18.589844 13.15625-29.691406 34.605469-29.691406 57.378906v65.792969c0 1.65625 1.34375 3 3 3 1.660156 0 3-1.34375 3-3v-65.792969c0-20.828125 10.152344-40.449219 27.15625-52.476563 18.589844-13.152343 29.6875-34.601562 29.6875-57.375v-66.335937h85.089844v66.335937c0 22.773438 11.097656 44.21875 29.691406 57.375 17 12.03125 27.152344 31.648438 27.152344 52.476563v194.839844c0 16.496093-13.421875 29.921875-29.921875 29.921875h-138.933594c-16.5 0-29.921875-13.425782-29.921875-29.921875v-97.875c0-1.65625-1.34375-3-3-3s-3 1.34375-3 3v97.875c0 19.804687 16.113281 35.921875 35.921875 35.921875h138.933594c19.808593 0 35.921875-16.117188 35.921875-35.921875v-194.839844c.003906-22.773437-11.097656-44.222656-29.6875-57.378906zm0 0" fill="#3a312a"/><path d="m229.984375 212.558594h-95.375c-13.832031 0-25.042969 11.214844-25.042969 25.042968v146.128907c0 13.828125 11.210938 25.042969 25.042969 25.042969h95.375c13.828125 0 25.042969-11.214844 25.042969-25.042969v-146.128907c0-13.828124-11.214844-25.042968-25.042969-25.042968zm0 0" fill="#f16c7a"/><path d="m229.984375 209.558594h-95.375c-15.464844 0-28.042969 12.582031-28.042969 28.042968v146.128907c0 15.460937 12.578125 28.042969 28.042969 28.042969h95.375c15.464844 0 28.042969-12.582032 28.042969-28.042969v-146.128907c0-15.460937-12.578125-28.042968-28.042969-28.042968zm22.042969 174.171875c0 12.152343-9.886719 22.042969-22.042969 22.042969h-95.375c-12.152344 0-22.042969-9.890626-22.042969-22.042969v-146.128907c0-12.152343 9.890625-22.042968 22.042969-22.042968h95.375c12.15625 0 22.042969 9.890625 22.042969 22.042968zm0 0" fill="#3a312a"/><path d="m231.035156 284.761719c0 26.917969-21.820312 48.738281-48.738281 48.738281s-48.738281-21.820312-48.738281-48.738281 21.820312-48.738281 48.738281-48.738281 48.738281 21.820312 48.738281 48.738281zm0 0" fill="#fce8cb"/><g fill="#3a312a"><path d="m182.296875 233.023438c-28.527344 0-51.738281 23.207031-51.738281 51.738281s23.210937 51.738281 51.738281 51.738281 51.738281-23.210938 51.738281-51.738281c0-28.527344-23.210937-51.738281-51.738281-51.738281zm0 97.480468c-25.222656 0-45.738281-20.519531-45.738281-45.738281 0-25.222656 20.515625-45.738281 45.738281-45.738281 25.21875 0 45.738281 20.515625 45.738281 45.738281 0 25.21875-20.519531 45.738281-45.738281 45.738281zm0 0"/><path d="m229.320312 349.894531h-94.046874c-1.65625 0-3 1.34375-3 3s1.34375 3 3 3h94.046874c1.65625 0 3-1.34375 3-3s-1.34375-3-3-3zm0 0"/><path d="m229.320312 377.394531h-94.046874c-1.65625 0-3 1.34375-3 3s1.34375 3 3 3h94.046874c1.65625 0 3-1.34375 3-3s-1.34375-3-3-3zm0 0"/></g><path d="m228.097656 5.992188h-30.203125c9.042969 0 16.421875 7.359374 16.421875 16.417968 0 9.0625-7.378906 16.421875-16.421875 16.421875h30.203125c9.039063 0 16.417969-7.359375 16.417969-16.421875 0-9.058594-7.378906-16.417968-16.417969-16.417968zm0 0" fill="#695b51"/><path d="m254.535156 168.53125c-18.597656-13.140625-29.699218-34.597656-29.699218-57.378906v-66.320313h-30.199219v66.320313c0 22.78125 11.097656 44.238281 29.699219 57.378906 16.601562 11.761719 26.660156 30.761719 27.121093 51.039062 4.117188 4.882813 6.578125 11.160157 6.578125 18.023438v146.136719c0 6.839843-2.460937 13.140625-6.558594 18v14.121093c0 16.5-13.421874 29.921876-29.921874 29.921876h30.203124c16.5 0 29.917969-13.421876 29.917969-29.921876v-194.839843c0-20.820313-10.140625-40.441407-27.140625-52.480469zm0 0" fill="#68a8bc"/></svg>