<svg height="451.762pt" viewBox="0 0 451.762 451.762" width="451.762pt" xmlns="http://www.w3.org/2000/svg"><path d="m399.847656 3h-347.9375c-27.011718 0-48.914062 21.898438-48.914062 48.914062v347.933594c0 27.015625 21.902344 48.914063 48.914062 48.914063h347.9375c27.011719 0 48.914063-21.898438 48.914063-48.914063v-347.9375c0-27.011718-21.902344-48.910156-48.914063-48.910156zm0 0" fill="#87796f"/><path d="m399.847656 0h-347.933594c-28.625 0-51.914062 23.289062-51.914062 51.914062v94.785157c0 1.660156 1.34375 3 3 3s3-1.339844 3-3v-94.785157c0-25.316406 20.597656-45.914062 45.914062-45.914062h347.933594c25.316406 0 45.914063 20.597656 45.914063 45.914062v347.933594c0 25.316406-20.597657 45.914063-45.914063 45.914063h-347.933594c-25.316406 0-45.914062-20.597657-45.914062-45.914063v-222.972656c0-1.660156-1.34375-3-3-3s-3 1.339844-3 3v222.972656c0 28.625 23.289062 51.914063 51.914062 51.914063h347.933594c28.625 0 51.914063-23.289063 51.914063-51.914063v-347.933594c0-28.625-23.289063-51.914062-51.914063-51.914062zm0 0" fill="#3a312a"/><path d="m121.605469 38.5h-61.597657c-12.929687 0-23.410156 10.480469-23.410156 23.414062v61.597657c0 12.929687 10.480469 23.414062 23.410156 23.414062h61.597657c12.929687 0 23.414062-10.480469 23.414062-23.414062v-61.597657c0-12.933593-10.484375-23.414062-23.414062-23.414062zm0 0" fill="#fce8cb"/><path d="m121.605469 35.5h-61.597657c-14.566406 0-26.414062 11.847656-26.414062 26.414062v61.597657c0 14.5625 11.847656 26.414062 26.414062 26.414062h61.597657c14.5625 0 26.410156-11.847656 26.410156-26.414062v-61.597657c.003906-14.566406-11.84375-26.414062-26.410156-26.414062zm20.414062 88.011719c0 11.253906-9.160156 20.414062-20.414062 20.414062h-61.597657c-11.253906 0-20.414062-9.160156-20.414062-20.414062v-61.597657c0-11.257812 9.160156-20.414062 20.414062-20.414062h61.597657c11.253906 0 20.410156 9.15625 20.410156 20.414062v61.597657zm0 0" fill="#3a312a"/><path d="m256.679688 38.5h-61.601563c-12.929687 0-23.410156 10.480469-23.410156 23.410156v61.601563c0 12.929687 10.480469 23.410156 23.410156 23.410156h61.601563c12.929687 0 23.410156-10.480469 23.410156-23.410156v-61.601563c.003906-12.929687-10.480469-23.410156-23.410156-23.410156zm0 0" fill="#fce8cb"/><path d="m256.679688 35.5h-16.765626c-1.65625 0-3 1.34375-3 3s1.34375 3 3 3h16.765626c11.253906 0 20.414062 9.15625 20.414062 20.414062v61.597657c0 11.253906-9.160156 20.414062-20.414062 20.414062h-61.601563c-11.253906 0-20.414063-9.160156-20.414063-20.414062v-61.597657c0-11.257812 9.160157-20.414062 20.414063-20.414062h14.769531c1.65625 0 3-1.34375 3-3s-1.34375-3-3-3h-14.769531c-14.5625 0-26.414063 11.847656-26.414063 26.414062v61.597657c0 14.5625 11.851563 26.414062 26.414063 26.414062h61.601563c14.5625 0 26.414062-11.851562 26.414062-26.414062v-61.597657c0-14.566406-11.851562-26.414062-26.414062-26.414062zm0 0" fill="#3a312a"/><path d="m391.753906 38.5h-61.601562c-12.929688 0-23.410156 10.480469-23.410156 23.414062v61.597657c0 12.929687 10.480468 23.414062 23.410156 23.414062h61.601562c12.929688 0 23.410156-10.480469 23.410156-23.414062v-61.597657c0-12.933593-10.480468-23.414062-23.410156-23.414062zm0 0" fill="#fce8cb"/><path d="m391.753906 35.5h-61.597656c-14.5625 0-26.414062 11.847656-26.414062 26.414062v61.597657c0 14.5625 11.851562 26.414062 26.414062 26.414062h61.597656c14.5625 0 26.410156-11.847656 26.410156-26.414062v-61.597657c0-14.566406-11.847656-26.414062-26.410156-26.414062zm20.410156 88.011719c0 11.253906-9.15625 20.414062-20.410156 20.414062h-61.597656c-11.253906 0-20.414062-9.160156-20.414062-20.414062v-61.597657c0-11.257812 9.160156-20.414062 20.414062-20.414062h61.597656c11.253906 0 20.410156 9.15625 20.410156 20.414062zm0 0" fill="#3a312a"/><path d="m121.605469 173.574219h-61.597657c-12.929687 0-23.410156 10.480469-23.410156 23.414062v61.597657c0 12.929687 10.480469 23.414062 23.410156 23.414062h61.597657c12.929687 0 23.414062-10.480469 23.414062-23.414062v-61.597657c0-12.933593-10.484375-23.414062-23.414062-23.414062zm0 0" fill="#fce8cb"/><path d="m121.605469 170.574219h-61.597657c-14.566406 0-26.414062 11.847656-26.414062 26.410156v61.601563c0 14.5625 11.847656 26.410156 26.414062 26.410156h61.597657c14.5625 0 26.410156-11.847656 26.410156-26.410156v-61.601563c.003906-14.5625-11.84375-26.410156-26.410156-26.410156zm20.414062 88.011719c0 11.253906-9.160156 20.410156-20.414062 20.410156h-61.597657c-11.253906 0-20.414062-9.15625-20.414062-20.410156v-61.597657c0-11.253906 9.160156-20.414062 20.414062-20.414062h61.597657c11.253906 0 20.410156 9.160156 20.410156 20.414062v61.597657zm0 0" fill="#3a312a"/><path d="m256.679688 173.574219h-61.601563c-12.929687 0-23.410156 10.480469-23.410156 23.414062v61.597657c0 12.929687 10.480469 23.414062 23.410156 23.414062h61.601563c12.929687 0 23.410156-10.480469 23.410156-23.414062v-61.597657c.003906-12.933593-10.480469-23.414062-23.410156-23.414062zm0 0" fill="#fce8cb"/><path d="m256.679688 170.574219h-61.601563c-14.5625 0-26.414063 11.847656-26.414063 26.410156v61.601563c0 14.5625 11.851563 26.410156 26.414063 26.410156h61.601563c14.5625 0 26.414062-11.847656 26.414062-26.410156v-61.601563c0-14.5625-11.851562-26.410156-26.414062-26.410156zm20.414062 88.011719c0 11.253906-9.160156 20.410156-20.414062 20.410156h-61.601563c-11.253906 0-20.414063-9.15625-20.414063-20.410156v-61.597657c0-11.253906 9.160157-20.414062 20.414063-20.414062h61.601563c11.253906 0 20.414062 9.160156 20.414062 20.414062zm0 0" fill="#3a312a"/><path d="m391.753906 173.574219h-61.601562c-12.929688 0-23.410156 10.480469-23.410156 23.414062v61.597657c0 12.929687 10.480468 23.414062 23.410156 23.414062h61.601562c12.929688 0 23.410156-10.480469 23.410156-23.414062v-61.597657c0-12.933593-10.480468-23.414062-23.410156-23.414062zm0 0" fill="#fce8cb"/><path d="m391.753906 170.574219h-61.597656c-14.5625 0-26.414062 11.847656-26.414062 26.410156v61.601563c0 14.5625 11.851562 26.410156 26.414062 26.410156h61.597656c14.5625 0 26.410156-11.847656 26.410156-26.410156v-61.601563c0-14.5625-11.847656-26.410156-26.410156-26.410156zm20.410156 88.011719c0 11.253906-9.15625 20.410156-20.410156 20.410156h-61.597656c-11.253906 0-20.414062-9.15625-20.414062-20.410156v-61.597657c0-11.253906 9.160156-20.414062 20.414062-20.414062h61.597656c11.253906 0 20.410156 9.160156 20.410156 20.414062zm0 0" fill="#3a312a"/><path d="m121.605469 308.648438h-61.597657c-12.929687 0-23.410156 10.480468-23.410156 23.414062v61.597656c0 12.929688 10.480469 23.414063 23.410156 23.414063h61.597657c12.929687 0 23.414062-10.480469 23.414062-23.414063v-61.601562c0-12.929688-10.484375-23.410156-23.414062-23.410156zm0 0" fill="#fce8cb"/><path d="m121.605469 305.648438h-61.597657c-14.566406 0-26.414062 11.847656-26.414062 26.414062v61.597656c0 14.5625 11.847656 26.414063 26.414062 26.414063h61.597657c14.5625 0 26.410156-11.847657 26.410156-26.414063v-61.601562c.003906-14.5625-11.84375-26.410156-26.410156-26.410156zm20.414062 88.007812c0 11.257812-9.160156 20.414062-20.414062 20.414062h-61.597657c-11.253906 0-20.414062-9.15625-20.414062-20.414062v-61.597656c0-11.253906 9.160156-20.414063 20.414062-20.414063h61.597657c11.253906 0 20.410156 9.160157 20.410156 20.414063v61.597656zm0 0" fill="#3a312a"/><path d="m256.679688 308.648438h-61.601563c-12.929687 0-23.410156 10.480468-23.410156 23.414062v61.597656c0 12.929688 10.480469 23.414063 23.410156 23.414063h61.601563c12.929687 0 23.410156-10.480469 23.410156-23.414063v-61.601562c.003906-12.929688-10.480469-23.410156-23.410156-23.410156zm0 0" fill="#fce8cb"/><path d="m256.679688 305.648438h-61.601563c-14.5625 0-26.414063 11.847656-26.414063 26.414062v61.597656c0 14.5625 11.851563 26.414063 26.414063 26.414063h61.601563c14.5625 0 26.414062-11.847657 26.414062-26.414063v-61.601562c0-14.5625-11.851562-26.410156-26.414062-26.410156zm20.414062 88.007812c0 11.257812-9.160156 20.414062-20.414062 20.414062h-61.601563c-11.253906 0-20.414063-9.15625-20.414063-20.414062v-61.597656c0-11.253906 9.160157-20.414063 20.414063-20.414063h61.601563c11.253906 0 20.414062 9.160157 20.414062 20.414063zm0 0" fill="#3a312a"/><path d="m391.753906 308.648438h-61.601562c-12.929688 0-23.410156 10.480468-23.410156 23.414062v61.597656c0 12.929688 10.480468 23.414063 23.410156 23.414063h61.601562c12.929688 0 23.410156-10.480469 23.410156-23.414063v-61.601562c0-12.929688-10.480468-23.410156-23.410156-23.410156zm0 0" fill="#fce8cb"/><path d="m391.753906 305.648438h-61.597656c-14.5625 0-26.414062 11.847656-26.414062 26.414062v61.597656c0 14.5625 11.851562 26.414063 26.414062 26.414063h61.597656c14.5625 0 26.410156-11.847657 26.410156-26.414063v-61.601562c0-14.5625-11.847656-26.410156-26.410156-26.410156zm20.410156 88.007812c0 11.257812-9.15625 20.414062-20.410156 20.414062h-61.597656c-11.253906 0-20.414062-9.15625-20.414062-20.414062v-61.597656c0-11.253906 9.160156-20.414063 20.414062-20.414063h61.597656c11.253906 0 20.410156 9.160157 20.410156 20.414063zm0 0" fill="#3a312a"/><path d="m399.839844 6.007812h-32.058594c23.597656 0 43.078125 17.878907 45.597656 40.796876 3.019532 4.28125 4.78125 9.480468 4.78125 15.101562v61.601562c0 5.4375-1.640625 10.5-4.480468 14.699219v44.078125c2.839843 4.199219 4.480468 9.261719 4.480468 14.699219v61.601563c0 5.441406-1.640625 10.5-4.480468 14.699218v44.082032c2.839843 4.199218 4.480468 9.257812 4.480468 14.699218v61.597656c0 6.121094-2.082031 11.742188-5.601562 16.222657-4.578125 20.519531-22.917969 35.878906-44.777344 35.878906h32.058594c25.320312 0 45.921875-20.601563 45.921875-45.917969v-347.941406c0-25.300781-20.601563-45.898438-45.921875-45.898438zm0 0" fill="#695b51"/></svg>