<svg height="452pt" viewBox="-79 0 452 452.128" width="452pt" xmlns="http://www.w3.org/2000/svg"><path d="m64.882812 304.773438c-1.945312 23.128906-26.046874 26.78125-26.046874 26.78125 20.695312.972656 25.851562 28.117187 25.851562 28.117187.441406-19.355469 26.640625-28.402344 26.640625-28.402344-19.625-1.175781-26.445313-26.496093-26.445313-26.496093zm0 0" fill="#d7e057"/><path d="m91.507812 328.273438c-17.207031-1.03125-23.664062-24.046876-23.726562-24.28125-.382812-1.40625-1.722656-2.339844-3.164062-2.203126-1.449219.132813-2.597657 1.28125-2.71875 2.734376-1.71875 20.429687-22.625 23.925781-23.511719 24.0625-1.523438.230468-2.625 1.578124-2.542969 3.121093.078125 1.539063 1.3125 2.769531 2.851562 2.839844 18.058594.851563 23 25.4375 23.046876 25.6875.273437 1.421875 1.519531 2.4375 2.945312 2.4375.082031 0 .167969-.007813.25-.011719 1.527344-.128906 2.714844-1.386718 2.75-2.921875.390625-17.015625 24.382812-25.550781 24.625-25.636719 1.351562-.46875 2.1875-1.828124 1.988281-3.242187-.199219-1.417969-1.367187-2.503906-2.792969-2.585937zm-27.132812 20.691406c-2.710938-6.261719-7.414062-13.816406-15.171875-17.753906 5.859375-2.808594 12.816406-7.828126 16.402344-16.546876 3.101562 6.144532 8.398437 13.761719 16.667969 17.449219-6.011719 3.277344-13.84375 8.808594-17.898438 16.851563zm0 0" fill="#3a312a"/><path d="m21.488281 338.734375c-1.378906 16.359375-18.425781 18.941406-18.425781 18.941406 14.636719.6875 18.285156 19.886719 18.285156 19.886719.3125-13.6875 18.84375-20.089844 18.84375-20.089844-13.882812-.828125-18.703125-18.738281-18.703125-18.738281zm0 0" fill="#d7e057"/><path d="m40.371094 354.480469c-11.53125-.691407-15.945313-16.371094-15.988282-16.53125-.378906-1.402344-1.707031-2.332031-3.164062-2.203125-1.449219.128906-2.597656 1.285156-2.71875 2.734375-1.15625 13.742187-15.292969 16.132812-15.882812 16.226562-1.527344.230469-2.6289068 1.582031-2.5468755 3.121094.0781255 1.542969 1.3124995 2.769531 2.8554685 2.84375 12.066407.566406 15.445313 17.289063 15.476563 17.453125.269531 1.425781 1.519531 2.4375 2.945312 2.4375.082032 0 .164063-.003906.25-.007812 1.527344-.128907 2.714844-1.386719 2.75-2.921876.261719-11.417968 16.664063-17.265624 16.824219-17.324218 1.355469-.464844 2.1875-1.824219 1.992187-3.242188-.195312-1.417968-1.363281-2.503906-2.792968-2.585937zm-19.167969 13.589843c-1.847656-3.773437-4.679687-7.894531-8.894531-10.558593 3.710937-2.082031 7.394531-5.261719 9.742187-9.832031 2.113281 3.746093 5.308594 7.90625 9.882813 10.445312-3.703125 2.199219-7.980469 5.480469-10.730469 9.945312zm0 0" fill="#3a312a"/><path d="m21.488281 285.421875c-1.378906 16.359375-18.425781 18.941406-18.425781 18.941406 14.636719.6875 18.285156 19.886719 18.285156 19.886719.3125-13.691406 18.84375-20.089844 18.84375-20.089844-13.882812-.832031-18.703125-18.738281-18.703125-18.738281zm0 0" fill="#d7e057"/><path d="m40.371094 301.164062c-11.53125-.691406-15.945313-16.371093-15.988282-16.53125-.382812-1.402343-1.710937-2.347656-3.164062-2.203124-1.449219.128906-2.597656 1.285156-2.71875 2.734374-1.160156 13.742188-15.292969 16.132813-15.886719 16.226563-1.523437.234375-2.6249998 1.582031-2.5468748 3.125.0820318 1.539063 1.3164058 2.769531 2.8554688 2.839844 12.070313.570312 15.449219 17.289062 15.476563 17.453125.273437 1.425781 1.519531 2.441406 2.949218 2.441406.082032 0 .164063-.003906.25-.011719 1.527344-.125 2.714844-1.382812 2.75-2.921875.261719-11.417968 16.664063-17.265625 16.824219-17.320312 1.351563-.464844 2.1875-1.824219 1.992187-3.242188-.195312-1.417968-1.363281-2.5-2.792968-2.589844zm-19.167969 13.589844c-1.847656-3.769531-4.679687-7.894531-8.894531-10.558594 3.710937-2.082031 7.394531-5.257812 9.742187-9.832031 2.113281 3.746094 5.308594 7.910157 9.882813 10.449219-3.703125 2.199219-7.980469 5.476562-10.730469 9.941406zm0 0" fill="#3a312a"/><path d="m155.347656 273.925781c-5.078125 0-10.097656-.339843-15.039062-1.023437v33.941406h.039062v31.21875c-.019531 0-.019531 0-.039062 0v74.78125c4.839844-.558594 9.859375-.859375 15.019531-.859375 5.179687 0 10.21875.300781 15.058594.859375v-139.941406c-4.9375.683594-9.957031 1.023437-15.039063 1.023437zm0 0" fill="#f16c7a"/><path d="m172.359375 270.640625c-.652344-.566406-1.515625-.820313-2.382813-.707031-9.5625 1.3125-19.695312 1.3125-29.261718 0-.855469-.109375-1.726563.140625-2.378906.707031-.652344.570313-1.027344 1.394531-1.027344 2.261719v33.945312c0 1.65625 1.339844 3 3 3h.039062c1.660156 0 2.980469-1.34375 2.980469-3 0-.121094-.007813-.234375-.019531-.347656v-30.210938c7.933594.839844 16.144531.839844 24.078125 0v133.230469c-7.917969-.710937-16.128907-.714843-24.078125 0v-71.105469c.011718-.117187.019531-.230468.019531-.351562 0-1.65625-1.363281-3-3.019531-3-1.660156 0-3 1.34375-3 3v74.78125c0 .855469.367187 1.671875 1.003906 2.242188.640625.566406 1.484375.84375 2.339844.738281 9.632812-1.121094 19.808594-1.113281 29.386718 0 .117188.015625.234376.019531.347657.019531.730469 0 1.441406-.269531 1.996093-.757812.640626-.570313 1.003907-1.386719 1.003907-2.242188v-139.941406c0-.867188-.375-1.691406-1.027344-2.261719zm0 0" fill="#3a312a"/><path d="m155.332031 411.992188c-38.863281 0-70.371093 16.625-70.371093 37.136718h140.765624c0-20.511718-31.511718-37.136718-70.394531-37.136718zm0 0" fill="#d7e057"/><path d="m155.332031 408.996094c-41.144531 0-73.371093 17.628906-73.371093 40.132812 0 1.65625 1.339843 3 3 3h140.765624c1.65625 0 3-1.34375 3-3 0-22.503906-32.238281-40.132812-73.394531-40.132812zm-67.101562 37.132812c3.113281-17.160156 32.574219-31.132812 67.101562-31.132812 34.535157 0 64.007813 13.972656 67.121094 31.132812zm0 0" fill="#3a312a"/><path d="m155.320312 414.988281c-3.277343 0-6.5.121094-9.660156.363281 30.222656 2.320313 54.640625 15.238282 57.460938 30.777344h19.339844c-3.117188-17.160156-32.597657-31.140625-67.140626-31.140625zm0 0" fill="#b9c239"/><path d="m258.019531 3h-205.355469c-20.3125 28.707031-32.613281 66.003906-32.613281 106.800781 0 90.640625 60.574219 164.117188 135.292969 164.117188s135.289062-73.476563 135.289062-164.117188c0-40.796875-12.300781-78.09375-32.613281-106.800781zm0 0" fill="#fce8cb"/><path d="m260.46875 1.269531c-.5625-.796875-1.476562-1.269531-2.449219-1.269531h-144.964843c-1.65625 0-3 1.34375-3 3s1.34375 3 3 3h143.402343c20.113281 29.03125 31.175781 65.824219 31.175781 103.800781 0 88.839844-59.347656 161.117188-132.292968 161.117188-72.945313 0-132.289063-72.277344-132.289063-161.117188 0-37.976562 11.0625-74.773437 31.171875-103.800781h28.738282c1.65625 0 3-1.34375 3-3s-1.34375-3-3-3h-30.296876c-.972656 0-1.886718.472656-2.449218 1.269531-21.382813 30.222657-33.164063 68.769531-33.164063 108.53125 0 92.148438 62.039063 167.117188 138.292969 167.117188s138.289062-74.96875 138.289062-167.117188c0-39.761719-11.777343-78.308593-33.164062-108.53125zm0 0" fill="#3a312a"/><path d="m20.097656 111.917969c.9375 89.65625 61.113282 162 135.246094 162s134.308594-72.34375 135.246094-162zm0 0" fill="#87796f"/><path d="m292.722656 109.808594c-.566406-.570313-1.332031-.890625-2.132812-.890625h-270.496094c-.800781 0-1.570312.320312-2.132812.890625-.5625.566406-.875 1.339844-.867188 2.140625.460938 44.082031 14.976562 85.457031 40.871094 116.511719 26.058594 31.246093 60.640625 48.457031 97.378906 48.457031 36.734375 0 71.316406-17.210938 97.375-48.457031 25.894531-31.050782 40.40625-72.429688 40.871094-116.511719.007812-.800781-.304688-1.574219-.867188-2.140625zm-44.613281 114.808594c-24.898437 29.855468-57.84375 46.300781-92.765625 46.300781-34.925781 0-67.871094-16.445313-92.769531-46.300781-24.417969-29.28125-38.363281-68.136719-39.425781-109.699219h264.386718c-1.0625 41.5625-15.003906 80.417969-39.425781 109.699219zm0 0" fill="#3a312a"/><path d="m256.460938 5.996094h-36.339844c19.960937 28.800781 31 65.261718 31.160156 102.921875h36.339844c-.179688-37.660157-11.199219-74.121094-31.160156-102.921875zm0 0" fill="#decaad"/><path d="m251.203125 114.917969c-1.0625 41.558593-15 80.421875-39.421875 109.699219-20.519531 24.621093-46.519531 40.121093-74.597656 44.78125 5.957031 1.019531 12.039062 1.519531 18.160156 1.519531 34.917969 0 67.878906-16.441407 92.757812-46.300781 24.421876-29.277344 38.359376-68.140626 39.441407-109.699219zm0 0" fill="#695b51"/></svg>