<svg height="476pt" viewBox="0 -11 476.45868 476" width="476pt" xmlns="http://www.w3.org/2000/svg"><path d="m151.839844 3.230469c-47.695313 0-86.363282 38.664062-86.363282 86.363281 0 .222656.011719.4375.015626.65625h172.695312c.003906-.21875.019531-.433594.019531-.65625 0-47.699219-38.667969-86.363281-86.367187-86.363281zm0 0" fill="#d7e057"/><path d="m151.839844.230469c-49.273438 0-89.363282 40.085937-89.363282 89.363281l.015626.683594c.011718 1.644531 1.351562 2.972656 3 2.972656h172.695312c1.648438 0 2.984375-1.328125 3-2.972656l.019531-.683594c0-49.277344-40.089843-89.363281-89.367187-89.363281zm-83.332032 87.019531c1.246094-44.886719 38.148438-81.019531 83.332032-81.019531s82.089844 36.132812 83.332031 81.019531zm0 0" fill="#3a312a"/><path d="m151.839844 27.949219c-34.148438 0-61.832032 27.683593-61.832032 61.832031 0 .15625.011719.3125.011719.46875h123.640625c.003906-.15625.011719-.3125.011719-.46875 0-34.148438-27.679687-61.832031-61.832031-61.832031zm0 0" fill="#d7e057"/><path d="m151.839844 24.949219c-35.746094 0-64.832032 29.085937-64.832032 64.832031l.011719.507812c.023438 1.640626 1.359375 2.960938 3 2.960938h123.640625c1.652344 0 2.996094-1.464844 3.003906-3.117188l.007813-.351562c0-35.746094-29.082031-64.832031-64.832031-64.832031zm-58.777344 62.300781c1.332031-31.269531 27.1875-56.300781 58.777344-56.300781 31.550781 0 57.378906 24.964843 58.773437 56.300781zm0 0" fill="#3a312a"/><path d="m151.839844 52.171875c-20.867188 0-37.789063 16.917969-37.789063 37.792969 0 .09375.007813.191406.007813.285156h75.566406c0-.09375.007812-.1875.007812-.285156 0-20.871094-16.921874-37.792969-37.792968-37.792969zm0 0" fill="#d7e057"/><path d="m151.839844 49.171875c-22.492188 0-40.789063 18.300781-40.789063 40.792969l.007813.316406c.015625 1.644531 1.355468 2.96875 3 2.96875h75.566406c1.613281 0 2.941406-1.421875 3-3.035156 0-.035156.007812-.214844.007812-.25 0-22.492188-18.300781-40.792969-40.792968-40.792969zm-34.683594 38.078125c1.390625-17.917969 16.414062-32.074219 34.683594-32.074219 18.257812 0 33.28125 14.140625 34.679687 32.074219zm0 0" fill="#3a312a"/><path d="m324.570312 3.230469c-47.695312 0-86.363281 38.664062-86.363281 86.363281 0 .222656.011719.4375.015625.65625h172.695313c.003906-.21875.015625-.433594.015625-.65625.003906-47.699219-38.664063-86.363281-86.363282-86.363281zm0 0" fill="#d7e057"/><path d="m324.574219.230469c-49.277344 0-89.367188 40.085937-89.367188 89.363281l.015625.671875c.007813 1.652344 1.347656 2.984375 3 2.984375h172.699219c1.644531 0 2.984375-1.328125 3-2.972656l.015625-.683594c0-49.277344-40.089844-89.363281-89.363281-89.363281zm-83.335938 87.019531c1.246094-44.886719 38.148438-81.019531 83.335938-81.019531 45.183593 0 82.089843 36.132812 83.332031 81.019531zm0 0" fill="#3a312a"/><path d="m324.570312 27.949219c-34.148437 0-61.832031 27.683593-61.832031 61.832031 0 .15625.011719.3125.011719.46875h123.640625c.003906-.15625.011719-.3125.011719-.46875 0-34.148438-27.679688-61.832031-61.832032-61.832031zm0 0" fill="#d7e057"/><path d="m324.574219 24.949219c-35.75 0-64.832031 29.085937-64.832031 64.832031l.011718.507812c.019532 1.640626 1.359375 2.960938 3 2.960938h123.636719c1.644531 0 2.984375-1.460938 3.003906-3.105469l.007813-.363281c0-35.746094-29.082032-64.832031-64.828125-64.832031zm-58.78125 62.300781c1.332031-31.269531 27.1875-56.300781 58.78125-56.300781 31.542969 0 57.363281 24.953125 58.765625 56.300781zm0 0" fill="#3a312a"/><path d="m324.570312 52.171875c-20.867187 0-37.785156 16.917969-37.785156 37.792969 0 .09375.003906.191406.007813.285156h75.5625c0-.09375.007812-.1875.007812-.285156 0-20.871094-16.921875-37.792969-37.792969-37.792969zm0 0" fill="#d7e057"/><path d="m324.574219 49.171875c-22.492188 0-40.789063 18.300781-40.789063 40.792969l.003906.285156c0 1.660156 1.34375 3 3 3h75.5625c1.613282 0 2.9375-1.414062 3.003907-3.019531 0-.042969.007812-.226563.007812-.265625 0-22.492188-18.300781-40.792969-40.789062-40.792969zm-34.683594 38.078125c1.386719-17.917969 16.414063-32.074219 34.683594-32.074219 18.261719 0 33.285156 14.148438 34.679687 32.074219zm0 0" fill="#3a312a"/><path d="m238.207031 3.230469c-47.699219 0-86.367187 38.664062-86.367187 86.363281 0 .222656.015625.4375.015625.65625h172.699219c.003906-.21875.015624-.433594.015624-.65625 0-47.699219-38.664062-86.363281-86.363281-86.363281zm0 0" fill="#d7e057"/><path d="m238.207031.230469c-49.277343 0-89.367187 40.085937-89.367187 89.363281l.015625.671875c.011719 1.652344 1.351562 2.984375 3 2.984375h172.699219c1.648437 0 2.984374-1.328125 3-2.972656l.019531-.683594c0-49.277344-40.089844-89.363281-89.367188-89.363281zm-83.332031 87.019531c1.242188-44.886719 38.144531-81.019531 83.332031-81.019531 45.183594 0 82.089844 36.132812 83.332031 81.019531zm0 0" fill="#3a312a"/><path d="m238.207031 27.949219c-34.148437 0-61.832031 27.683593-61.832031 61.832031 0 .15625.011719.3125.011719.46875h123.640625c.003906-.15625.011718-.3125.011718-.46875 0-34.148438-27.683593-61.832031-61.832031-61.832031zm0 0" fill="#d7e057"/><path d="m238.207031 24.949219c-35.746093 0-64.832031 29.085937-64.832031 64.832031l.011719.488281c.011719 1.648438 1.351562 2.980469 3 2.980469h123.636719c1.644531 0 2.984374-1.460938 3.007812-3.101562l.007812-.367188c0-35.746094-29.085937-64.832031-64.832031-64.832031zm-58.777343 62.300781c1.328124-31.269531 27.1875-56.300781 58.777343-56.300781 31.542969 0 57.367188 24.953125 58.765625 56.300781zm0 0" fill="#3a312a"/><path d="m238.207031 52.171875c-20.871093 0-37.789062 16.917969-37.789062 37.792969 0 .09375.007812.191406.007812.285156h75.566407c0-.09375.007812-.1875.007812-.285156-.003906-20.871094-16.921875-37.792969-37.792969-37.792969zm0 0" fill="#d7e057"/><path d="m238.207031 49.171875c-22.492187 0-40.789062 18.300781-40.789062 40.792969l.007812.316406c.015625 1.644531 1.355469 2.96875 3 2.96875h75.5625c1.609375 0 2.9375-1.414062 3.003907-3.019531 0-.042969.003906-.226563.003906-.265625 0-22.492188-18.296875-40.792969-40.789063-40.792969zm-34.6875 38.078125c1.390625-17.917969 16.417969-32.074219 34.6875-32.074219 18.261719 0 33.285157 14.148438 34.679688 32.074219zm0 0" fill="#3a312a"/><path d="m65.398438 90.238281-59.222657 58.6875c-6.730469 6.667969-2.007812 18.144531 7.464844 18.144531h61.035156zm0 0" fill="#f16c7a"/><path d="m77.65625 166.710938-9.277344-76.828126c-.140625-1.140624-.910156-2.097656-1.992187-2.476562-1.085938-.375-2.285157-.105469-3.097657.703125l-59.222656 58.6875c-3.9960935 3.957031-5.148437 9.644531-3.007812 14.84375s6.960937 8.429687 12.585937 8.429687h61.035157c.859374 0 1.675781-.367187 2.246093-1.007812.566407-.644531.832031-1.5.730469-2.351562zm-64.011719-2.640626c-3.757812 0-6.097656-2.433593-7.039062-4.710937-.9375-2.277344-.984375-5.65625 1.683593-8.300781l54.867188-54.371094 8.136719 67.382812zm0 0" fill="#3a312a"/><path d="m470.28125 148.925781-59.222656-58.6875-9.277344 76.832031h61.035156c9.472656 0 14.195313-11.476562 7.464844-18.144531zm0 0" fill="#f16c7a"/><path d="m472.394531 146.796875-59.222656-58.6875c-.8125-.804687-2.019531-1.078125-3.097656-.703125-1.082031.378906-1.855469 1.335938-1.992188 2.476562l-9.28125 76.828126c-.101562.851562.164063 1.707031.734375 2.351562.566406.640625 1.386719 1.007812 2.246094 1.007812h61.035156c5.621094 0 10.445313-3.230468 12.582032-8.429687 2.140624-5.199219.988281-10.886719-3.003907-14.84375zm-2.546875 12.558594c-.9375 2.28125-3.277344 4.714843-7.03125 4.714843h-57.652344l8.140626-67.386718 54.867187 54.375c2.667969 2.644531 2.617187 6.019531 1.675781 8.296875zm0 0" fill="#3a312a"/><path d="m65.398438 90.238281 13.253906 109.800781 18.445312 152.917969 2.148438 17.800781 3.734375 30.929688 3.359375 27.84375c1.480468 12.269531 11.890625 21.5 24.25 21.5h215.230468c12.359376 0 22.769532-9.234375 24.25-21.5l9.242188-76.574219 18.445312-152.917969 13.253907-109.796874h-345.613281zm0 0" fill="#f16c7a"/><path d="m413.257812 88.25c-.566406-.640625-1.382812-1.007812-2.242187-1.007812h-345.617187c-.855469 0-1.675782.367187-2.246094 1.007812-.570313.644531-.835938 1.5-.734375 2.351562l33.851562 280.519532c.199219 1.644531 1.695313 2.808594 3.335938 2.617187 1.644531-.195312 2.820312-1.691406 2.621093-3.335937l-33.441406-277.160156h338.84375l-40.53125 335.925781c-1.296875 10.753906-10.445312 18.863281-21.273437 18.863281h-215.234375c-10.828125 0-19.972656-8.109375-21.269532-18.863281l-3.359374-27.839844c-.199219-1.644531-1.6875-2.8125-3.335938-2.617187-1.644531.195312-2.820312 1.691406-2.621094 3.335937l3.359375 27.839844c1.660157 13.761719 13.367188 24.144531 27.226563 24.144531h215.234375c13.863281 0 25.570312-10.378906 27.230469-24.144531l40.9375-339.289063c.105468-.847656-.164063-1.703125-.734376-2.347656zm0 0" fill="#3a312a"/><path d="m65.402344 90.246094 33.066406 58.363281c6.464844 11.414063 18.574219 18.46875 31.691406 18.46875h216.09375c13.121094 0 25.226563-7.054687 31.691406-18.46875l33.066407-58.363281zm0 0" fill="#f16c7a"/><path d="m413.601562 88.734375c-.535156-.921875-1.523437-1.488281-2.59375-1.488281h-345.605468c-1.066406 0-2.054688.566406-2.589844 1.488281-.539062.921875-.546875 2.0625-.019531 2.992187l33.0625 58.363282c6.988281 12.328125 20.132812 19.992187 34.304687 19.992187h216.09375c14.171875 0 27.316406-7.660156 34.300782-19.992187l33.066406-58.363282c.527344-.929687.519531-2.070312-.019532-2.992187zm-38.265624 58.398437c-5.921876 10.453126-17.066407 16.945313-29.082032 16.945313h-216.09375c-12.015625 0-23.160156-6.492187-29.082031-16.945313l-30.527344-53.886718h335.3125zm0 0" fill="#3a312a"/><path d="m78.652344 200.039062 18.449218 152.917969h282.210938l18.449219-152.917969zm0 0" fill="#d7e057"/><path d="m400.007812 198.050781c-.570312-.644531-1.386718-1.011719-2.246093-1.011719h-95.710938c-1.65625 0-3 1.34375-3 3 0 1.660157 1.34375 3 3 3h92.332031l-17.726562 146.917969h-276.894531l-17.722657-146.917969h190.375c1.65625 0 3-1.339843 3-3 0-1.65625-1.34375-3-3-3h-193.761718c-.859375 0-1.675782.367188-2.246094 1.011719-.570312.640625-.835938 1.496094-.734375 2.347657l18.449219 152.917968c.183594 1.507813 1.460937 2.640625 2.976562 2.640625h282.214844c1.519531 0 2.796875-1.132812 2.980469-2.640625l18.449219-152.917968c.101562-.851563-.164063-1.707032-.734376-2.347657zm0 0" fill="#3a312a"/><g fill="#d34e5c"><path d="m380.550781 150.089844c-3.421875 6.058594-8.382812 11.019531-14.179687 14.460937l-3.921875 32.480469h32.660156l11.140625-92.28125zm0 0"/><path d="m343.289062 355.949219-8.839843 73.21875c-1.300781 10.761719-10.441407 18.863281-21.28125 18.863281h32.660156c10.820313 0 19.980469-8.101562 21.261719-18.863281l8.839844-73.21875zm0 0"/><path d="m373.210938 93.25-30.523438 53.878906c-5.917969 10.460938-17.058594 16.941406-29.078125 16.941406h32.640625c12.019531 0 23.160156-6.480468 29.078125-16.941406l30.542969-53.878906zm0 0"/></g><path d="m361.730469 203.03125-17.722657 146.917969h32.640626l17.742187-146.917969zm0 0" fill="#b9c239"/></svg>