<svg height="451pt" viewBox="-46 0 451 451.76" width="451pt" xmlns="http://www.w3.org/2000/svg"><path d="m85.449219 425.300781h188.773437v23.460938h-188.773437zm0 0" fill="#fce8cb"/><path d="m274.222656 422.300781h-188.773437c-1.65625 0-3 1.34375-3 3v23.460938c0 1.652343 1.34375 3 3 3h188.773437c1.660156 0 3-1.347657 3-3v-23.460938c0-1.65625-1.34375-3-3-3zm-3 23.460938h-182.773437v-17.460938h182.773437zm0 0" fill="#3a312a"/><path d="m26.335938 99.878906 7.441406 99 9.957031 132.582032 4.421875 58.71875c1.5 19.820312 18 35.121093 37.859375 35.121093h187.640625c19.859375 0 36.359375-15.300781 37.859375-35.121093l4.421875-58.71875 9.957031-132.582032 7.441407-99zm0 0" fill="#8ac6dd"/><path d="m335.535156 97.839844c-.566406-.613282-1.363281-.960938-2.199218-.960938h-307c-.832032 0-1.632813.347656-2.199219.960938-.570313.613281-.855469 1.433594-.792969 2.265625l21.820312 290.296875c1.609376 21.25 19.550782 37.894531 40.851563 37.894531h187.636719c21.300781 0 39.242187-16.644531 40.851562-37.894531l21.820313-290.296875c.066406-.832031-.222657-1.652344-.789063-2.265625zm-27.011718 292.113281c-1.371094 18.136719-16.6875 32.347656-34.867188 32.347656h-187.640625c-18.179687 0-33.492187-14.210937-34.867187-32.347656l-21.578126-287.074219h300.53125zm0 0" fill="#3a312a"/><path d="m335.953125 59.214844h-312.234375c-11.234375 0-20.339844 9.105468-20.339844 20.335937 0 11.234375 9.105469 20.339844 20.339844 20.339844h312.234375c11.234375 0 20.339844-9.105469 20.339844-20.339844 0-11.230469-9.105469-20.335937-20.339844-20.335937zm0 0" fill="#d7e057"/><path d="m335.953125 56.210938h-201.113281c-1.660156 0-3 1.34375-3 3s1.339844 3 3 3h201.113281c9.5625 0 17.339844 7.78125 17.339844 17.339843 0 9.5625-7.777344 17.339844-17.339844 17.339844h-312.234375c-9.5625 0-17.339844-7.777344-17.339844-17.339844 0-9.558593 7.777344-17.339843 17.339844-17.339843h81.117188c1.65625 0 3-1.34375 3-3s-1.34375-3-3-3h-81.117188c-12.871094 0-23.339844 10.472656-23.339844 23.339843 0 12.871094 10.472656 23.339844 23.339844 23.339844h312.234375c12.871094 0 23.339844-10.46875 23.339844-23.339844 0-12.867187-10.46875-23.339843-23.339844-23.339843zm0 0" fill="#3a312a"/><path d="m233.84375 3c-15.523438 0-28.109375 12.585938-28.109375 28.109375v28.105469h56.214844v-28.109375c0-15.519531-12.582031-28.105469-28.105469-28.105469zm0 0" fill="#87796f"/><path d="m233.84375 0c-17.152344 0-31.109375 13.953125-31.109375 31.109375v28.105469c0 1.65625 1.34375 3 3 3h56.214844c1.660156 0 3-1.34375 3-3v-28.109375c0-17.152344-13.953125-31.105469-31.105469-31.105469zm25.105469 56.214844h-50.214844v-25.109375c0-13.84375 11.261719-25.109375 25.109375-25.109375 13.84375 0 25.105469 11.265625 25.105469 25.109375zm0 0" fill="#3a312a"/><path d="m33.777344 198.878906 9.957031 132.582032h272.203125l9.957031-132.582032zm0 0" fill="#d7e057"/><path d="m328.09375 196.839844c-.566406-.613282-1.363281-.960938-2.199219-.960938h-86.097656c-1.660156 0-3 1.34375-3 3s1.339844 3 3 3h82.863281l-9.511718 126.582032h-266.628907l-9.507812-126.582032h172.867187c1.65625 0 3-1.34375 3-3s-1.34375-3-3-3h-176.101562c-.835938 0-1.632813.347656-2.203125.960938-.566407.613281-.851563 1.433594-.789063 2.265625l9.957032 132.578125c.121093 1.5625 1.421874 2.777344 2.992187 2.777344h272.203125c1.570312 0 2.871094-1.210938 2.992188-2.777344l9.957031-132.578125c.0625-.832031-.226563-1.652344-.792969-2.265625zm0 0" fill="#3a312a"/><path d="m282.054688 334.460938-4.160157 55.5c-1.378906 18.140624-16.699219 32.339843-34.878906 32.339843h30.640625c18.179688 0 33.5-14.199219 34.859375-32.339843l4.179687-55.5zm0 0" fill="#68a8bc"/><path d="m299.476562 102.878906-7 93h30.640626l6.980468-93zm0 0" fill="#68a8bc"/><g fill="#b9c239"><path d="m335.957031 62.21875h-30.640625c9.558594 0 17.339844 7.78125 17.339844 17.339844 0 9.5625-7.78125 17.320312-17.339844 17.320312h30.640625c9.558594 0 17.339844-7.757812 17.339844-17.320312 0-9.558594-7.78125-17.339844-17.339844-17.339844zm0 0"/><path d="m292.035156 201.878906-9.519531 126.582032h30.640625l9.5-126.582032zm0 0"/></g></svg>