<svg height="452pt" viewBox="-13 0 452 452.092" width="452pt" xmlns="http://www.w3.org/2000/svg"><path d="m234.035156 276.664062c-4.039062 4.0625-10.640625 4.0625-14.679687 0l-7.699219-7.738281v37.878907h.039062v31.222656c-.019531 0-.019531 0-.039062 0v74.777344c4.839844-.558594 9.859375-.859376 15.019531-.859376 5.179688 0 10.21875.300782 15.058594.859376v-143.878907zm0 0" fill="#f16c7a"/><path d="m242.878906 266.152344c-1.121094-.460938-2.414062-.207032-3.269531.65625l-7.699219 7.742187c-1.386718 1.394531-3.238281 2.160157-5.214844 2.160157-1.976562 0-3.828124-.765626-5.214843-2.160157l-7.699219-7.742187c-.859375-.863282-2.148438-1.117188-3.273438-.65625-1.125.460937-1.855468 1.558594-1.855468 2.773437v37.878907c0 1.65625 1.34375 3 3 3h.042968c1.65625 0 2.980469-1.34375 2.980469-3 0-.117188-.011719-.234376-.023437-.347657v-30.261719l2.574218 2.585938c2.519532 2.535156 5.878907 3.929688 9.464844 3.929688 3.582032 0 6.945313-1.394532 9.464844-3.929688l2.574219-2.585938v133.285157c-7.929688-.707031-16.121094-.710938-24.082031 0v-71.097657c.015624-.117187.023437-.234374.023437-.355468 0-1.65625-1.367187-3-3.023437-3s-3 1.34375-3 3v74.777344c0 .855468.367187 1.671874 1.003906 2.242187.640625.570313 1.496094.84375 2.34375.738281 9.644531-1.113281 19.796875-1.105468 29.386718 0 .117188.015625.230469.019532.347657.019532.730469 0 1.445312-.265626 1.996093-.757813.636719-.570313 1.003907-1.386719 1.003907-2.242187v-143.878907c.003906-1.214843-.726563-2.3125-1.851563-2.773437zm0 0" fill="#3a312a"/><path d="m226.683594 411.957031c-38.863282 0-70.371094 16.621094-70.371094 37.136719h140.765625c0-20.515625-31.511719-37.136719-70.394531-37.136719zm0 0" fill="#d7e057"/><path d="m226.683594 408.957031c-41.140625 0-73.371094 17.628907-73.371094 40.136719 0 1.652344 1.34375 3 3 3h140.765625c1.65625 0 3-1.347656 3-3 0-22.507812-32.238281-40.136719-73.394531-40.136719zm-67.097656 37.136719c3.109374-17.164062 32.570312-31.136719 67.097656-31.136719 34.539062 0 64.011718 13.972657 67.125 31.136719zm0 0" fill="#3a312a"/><path d="m226.675781 414.953125c-3.28125 0-6.5.121094-9.660156.359375 30.21875 2.320312 54.640625 15.242188 57.460937 30.78125h19.339844c-3.121094-17.160156-32.601562-31.140625-67.140625-31.140625zm0 0" fill="#b9c239"/><path d="m136.238281 304.738281c-1.949219 23.128907-26.046875 26.78125-26.046875 26.78125 20.691406.972657 25.847656 28.117188 25.847656 28.117188.441407-19.355469 26.644532-28.40625 26.644532-28.40625-19.628906-1.175781-26.445313-26.492188-26.445313-26.492188zm0 0" fill="#d7e057"/><path d="m162.859375 328.234375c-17.207031-1.027344-23.664063-24.046875-23.726563-24.28125-.378906-1.402344-1.691406-2.324219-3.167968-2.203125-1.449219.132812-2.59375 1.285156-2.71875 2.734375-1.714844 20.429687-22.621094 23.925781-23.507813 24.0625-1.523437.234375-2.625 1.582031-2.542969 3.125.078126 1.539063 1.3125 2.769531 2.855469 2.839844 18.054688.851562 22.996094 25.4375 23.042969 25.683593.273438 1.425782 1.519531 2.4375 2.945312 2.4375.082032 0 .167969-.003906.25-.011718 1.527344-.128906 2.714844-1.386719 2.75-2.917969.390626-17.019531 24.382813-25.554687 24.625-25.640625 1.351563-.464844 2.183594-1.828125 1.988282-3.242188-.199219-1.417968-1.363282-2.5-2.792969-2.585937zm-27.132813 20.691406c-2.710937-6.261719-7.414062-13.8125-15.171874-17.753906 5.863281-2.808594 12.816406-7.824219 16.402343-16.546875 3.101563 6.144531 8.402344 13.761719 16.667969 17.445312-6.011719 3.28125-13.84375 8.8125-17.898438 16.855469zm0 0" fill="#3a312a"/><path d="m92.839844 338.699219c-1.378906 16.355469-18.425782 18.941406-18.425782 18.941406 14.636719.6875 18.285157 19.886719 18.285157 19.886719.3125-13.6875 18.84375-20.089844 18.84375-20.089844-13.882813-.832031-18.703125-18.738281-18.703125-18.738281zm0 0" fill="#d7e057"/><path d="m111.722656 354.441406c-11.53125-.6875-15.945312-16.371094-15.988281-16.53125-.378906-1.402344-1.722656-2.328125-3.164063-2.203125-1.449218.132813-2.597656 1.285157-2.71875 2.738281-1.15625 13.742188-15.292968 16.128907-15.882812 16.226563-1.527344.230469-2.625 1.582031-2.546875 3.117187.082031 1.542969 1.3125 2.769532 2.855469 2.84375 12.070312.566407 15.445312 17.289063 15.476562 17.453126.273438 1.425781 1.519532 2.441406 2.945313 2.441406.082031 0 .167969-.003906.25-.011719 1.53125-.125 2.714843-1.386719 2.753906-2.921875.257813-11.417969 16.664063-17.269531 16.824219-17.324219 1.351562-.464843 2.1875-1.824219 1.992187-3.242187-.199219-1.417969-1.367187-2.5-2.796875-2.585938zm-19.167968 13.589844c-1.847657-3.769531-4.679688-7.894531-8.894532-10.558594 3.710938-2.082031 7.394532-5.257812 9.738282-9.832031 2.117187 3.746094 5.3125 7.90625 9.882812 10.449219-3.695312 2.199218-7.976562 5.476562-10.726562 9.941406zm0 0" fill="#3a312a"/><path d="m92.839844 285.382812c-1.378906 16.359376-18.425782 18.941407-18.425782 18.941407 14.636719.691406 18.285157 19.886719 18.285157 19.886719.3125-13.6875 18.84375-20.089844 18.84375-20.089844-13.882813-.828125-18.703125-18.738282-18.703125-18.738282zm0 0" fill="#d7e057"/><path d="m111.722656 301.128906c-11.53125-.691406-15.945312-16.371094-15.988281-16.53125-.378906-1.402344-1.722656-2.328125-3.164063-2.203125-1.449218.128907-2.597656 1.285157-2.71875 2.734375-1.15625 13.742188-15.292968 16.132813-15.882812 16.226563-1.527344.234375-2.625 1.582031-2.546875 3.121093.082031 1.542969 1.3125 2.769532 2.855469 2.84375 12.070312.566407 15.445312 17.289063 15.476562 17.453126.273438 1.425781 1.519532 2.441406 2.945313 2.441406.082031 0 .167969-.003906.25-.011719 1.53125-.128906 2.714843-1.386719 2.753906-2.921875.257813-11.417969 16.664063-17.265625 16.824219-17.324219 1.351562-.464843 2.1875-1.824219 1.992187-3.242187-.199219-1.417969-1.367187-2.503906-2.796875-2.585938zm-19.167968 13.589844c-1.847657-3.773438-4.679688-7.894531-8.894532-10.5625 3.710938-2.082031 7.394532-5.257812 9.738282-9.832031 2.117187 3.75 5.3125 7.910156 9.882812 10.449219-3.695312 2.199218-7.976562 5.480468-10.726562 9.945312zm0 0" fill="#3a312a"/><path d="m413.050781 71.734375h-372.710937c-9.210938 0-13.835938 11.128906-7.339844 17.660156l186.355469 187.265625c4.046875 4.070313 10.628906 4.070313 14.679687 0l186.351563-187.265625c6.5-6.53125 1.875-17.660156-7.335938-17.660156zm0 0" fill="#fce8cb"/><path d="m425.382812 76.964844c-2.109374-5.078125-6.835937-8.230469-12.332031-8.230469h-205.359375c-1.65625 0-3 1.34375-3 3s1.34375 3 3 3h205.359375c3.621094 0 5.882813 2.339844 6.792969 4.535156.910156 2.191407.972656 5.445313-1.578125 8.011719l-186.359375 187.265625c-2.78125 2.796875-7.640625 2.792969-10.425781 0l-186.351563-187.269531c-2.554687-2.566406-2.488281-5.820313-1.578125-8.011719.910157-2.191406 3.171875-4.53125 6.789063-4.53125h137.359375c1.65625 0 3-1.34375 3-3s-1.34375-3-3-3h-137.359375c-5.496094 0-10.21875 3.152344-12.328125 8.226563-2.113281 5.074218-1.015625 10.648437 2.863281 14.546874l186.355469 187.265626c2.527343 2.539062 5.886719 3.9375 9.46875 3.9375 3.578125 0 6.941406-1.398438 9.460937-3.9375l186.359375-187.265626c3.875-3.894531 4.972657-9.46875 2.863281-14.542968zm0 0" fill="#3a312a"/><path d="m67.464844 124.027344 151.890625 152.632812c4.046875 4.066406 10.628906 4.066406 14.679687 0l151.890625-152.632812zm0 0" fill="#8ac6dd"/><path d="m388.695312 122.875c-.464843-1.121094-1.554687-1.847656-2.769531-1.847656h-318.460937c-1.210938 0-2.304688.726562-2.769532 1.847656-.46875 1.121094-.210937 2.410156.640626 3.265625l151.890624 152.636719c2.527344 2.539062 5.886719 3.933594 9.46875 3.933594 3.578126 0 6.941407-1.398438 9.460938-3.933594l151.890625-152.636719c.859375-.855469 1.113281-2.144531.648437-3.265625zm-156.789062 151.671875c-2.78125 2.796875-7.640625 2.789063-10.425781 0l-146.796875-147.519531h304.027344zm0 0" fill="#3a312a"/><path d="m145.347656 74.152344c0 39.292968-31.855468 71.148437-71.148437 71.148437-39.296875 0-71.152344-31.855469-71.152344-71.148437 0-39.296875 31.855469-71.148438 71.152344-71.148438 39.292969 0 71.148437 31.851563 71.148437 71.148438zm0 0" fill="#fce8cb"/><path d="m74.195312 0c-40.886718 0-74.148437 33.265625-74.148437 74.148438 0 40.886718 33.261719 74.152343 74.148437 74.152343 40.890626 0 74.152344-33.265625 74.152344-74.152343.003906-40.882813-33.261718-74.148438-74.152344-74.148438zm0 142.300781c-37.578124 0-68.148437-30.570312-68.148437-68.148437s30.570313-68.148438 68.148437-68.148438c37.582032 0 68.152344 30.570313 68.152344 68.148438.003906 37.578125-30.570312 68.148437-68.152344 68.148437zm0 0" fill="#3a312a"/><path d="m76.941406 24.679688c-27.320312-1.511719-50.691406 19.410156-52.207031 46.726562-1.511719 27.320312 19.410156 50.695312 46.726563 52.210938 27.320312 1.511718 50.691406-19.410157 52.207031-46.730469 1.511719-27.320313-19.40625-50.695313-46.726563-52.207031zm0 0" fill="#d7e057"/><g fill="#3a312a"><path d="m74.195312 21.609375c-28.96875 0-52.539062 23.570313-52.539062 52.542969 0 28.96875 23.566406 52.539062 52.539062 52.539062 28.96875 0 52.542969-23.570312 52.542969-52.539062 0-28.972656-23.570312-52.542969-52.542969-52.542969zm0 99.082031c-25.660156 0-46.539062-20.878906-46.539062-46.539062 0-25.664063 20.875-46.542969 46.539062-46.542969 25.664063 0 46.542969 20.878906 46.542969 46.542969 0 25.660156-20.878906 46.539062-46.542969 46.539062zm0 0"/><path d="m74.195312 21.609375c-1.65625 0-3 1.34375-3 3v99.082031c0 1.65625 1.34375 3 3 3s3-1.34375 3-3v-99.082031c0-1.65625-1.339843-3-3-3zm0 0"/><path d="m123.738281 71.152344h-99.082031c-1.65625 0-3 1.34375-3 3s1.34375 3 3 3h99.082031c1.65625 0 3-1.34375 3-3s-1.34375-3-3-3zm0 0"/><path d="m111.351562 37c-1.171874-1.171875-3.070312-1.171875-4.242187 0l-70.0625 70.0625c-1.171875 1.171875-1.171875 3.070312 0 4.242188.585937.585937 1.355469.878906 2.125.878906.765625 0 1.535156-.292969 2.121094-.878906l70.058593-70.0625c1.171876-1.171876 1.171876-3.070313 0-4.242188zm0 0"/><path d="m111.351562 107.0625-70.0625-70.0625c-1.171874-1.171875-3.070312-1.171875-4.242187 0s-1.171875 3.070312 0 4.242188l70.0625 70.0625c.585937.585937 1.351563.878906 2.121094.878906.765625 0 1.535156-.292969 2.121093-.878906 1.171876-1.171876 1.171876-3.070313 0-4.242188zm0 0"/></g><path d="m419.835938 79.265625c-.898438-2.179687-3.160157-4.542969-6.78125-4.542969h-51.097657c3.617188 0 5.878907 2.363282 6.800781 4.542969.898438 2.199219.957032 5.4375-1.582031 8.019531l-33.578125 33.742188h51.078125l33.582031-33.742188c2.558594-2.578125 2.5-5.820312 1.578126-8.019531zm0 0" fill="#decaad"/><path d="m327.617188 127.027344-126.460938 127.097656 20.320312 20.421875c2.78125 2.800781 7.640626 2.800781 10.4375 0l146.800782-147.519531zm0 0" fill="#68a8bc"/><path d="m391.222656 28.839844c-1.164062-1.183594-3.0625-1.195313-4.242187-.039063l-94.644531 93.085938c-1.183594 1.164062-1.199219 3.0625-.035157 4.242187.585938.597656 1.363281.898438 2.136719.898438.761719 0 1.519531-.289063 2.105469-.863282l94.644531-93.085937c1.179688-1.164063 1.195312-3.058594.035156-4.238281zm0 0" fill="#3a312a"/><path d="m417.023438 30.941406c0 15.429688-12.507813 27.9375-27.9375 27.9375-15.433594 0-27.941407-12.507812-27.941407-27.9375 0-15.433594 12.507813-27.941406 27.941407-27.941406 15.429687 0 27.9375 12.507812 27.9375 27.941406zm0 0" fill="#f16c7a"/><path d="m389.085938 0c-17.0625 0-30.945313 13.878906-30.945313 30.941406s13.882813 30.941406 30.945313 30.941406c17.058593 0 30.9375-13.878906 30.9375-30.941406s-13.878907-30.941406-30.9375-30.941406zm0 55.878906c-13.753907 0-24.945313-11.1875-24.945313-24.9375 0-13.753906 11.191406-24.945312 24.945313-24.945312 13.75 0 24.9375 11.191406 24.9375 24.945312 0 13.75-11.1875 24.9375-24.9375 24.9375zm0 0" fill="#3a312a"/></svg>