<svg height="451pt" viewBox="-48 0 451 451.87449" width="451pt" xmlns="http://www.w3.org/2000/svg"><path d="m65.257812 22.355469c-1.945312 23.125-26.046874 26.777343-26.046874 26.777343 20.691406.972657 25.847656 28.117188 25.847656 28.117188.441406-19.351562 26.644531-28.402344 26.644531-28.402344-19.628906-1.175781-26.445313-26.492187-26.445313-26.492187zm0 0" fill="#d7e057"/><path d="m91.882812 45.851562c-17.210937-1.027343-23.664062-24.046874-23.726562-24.28125-.382812-1.402343-1.699219-2.332031-3.167969-2.203124-1.449219.132812-2.59375 1.285156-2.71875 2.734374-1.71875 20.429688-22.625 23.925782-23.507812 24.0625-1.523438.234376-2.625 1.582032-2.542969 3.121094.078125 1.542969 1.3125 2.769532 2.855469 2.84375 18.054687.847656 22.996093 25.4375 23.042969 25.6875.273437 1.421875 1.519531 2.433594 2.945312 2.433594.082031 0 .167969-.003906.25-.011719 1.527344-.128906 2.714844-1.386719 2.75-2.917969.390625-17.019531 24.382812-25.554687 24.625-25.640624 1.351562-.46875 2.183594-1.828126 1.988281-3.242188-.199219-1.417969-1.367187-2.5-2.792969-2.585938zm-27.132812 20.691407c-2.714844-6.261719-7.417969-13.8125-15.175781-17.753907 5.863281-2.804687 12.820312-7.824218 16.40625-16.542968 3.101562 6.140625 8.398437 13.757812 16.667969 17.445312-6.015626 3.277344-13.84375 8.808594-17.898438 16.851563zm0 0" fill="#3a312a"/><path d="m21.863281 56.316406c-1.378906 16.355469-18.425781 18.9375-18.425781 18.9375 14.636719.691406 18.285156 19.886719 18.285156 19.886719.3125-13.6875 18.84375-20.089844 18.84375-20.089844-13.882812-.828125-18.703125-18.734375-18.703125-18.734375zm0 0" fill="#d7e057"/><path d="m40.742188 72.058594c-11.53125-.6875-15.941407-16.371094-15.984376-16.527344-.378906-1.40625-1.71875-2.320312-3.164062-2.203125-1.449219.128906-2.597656 1.285156-2.71875 2.734375-1.160156 13.738281-15.296875 16.132812-15.886719 16.226562-1.523437.230469-2.625 1.582032-2.546875 3.121094.082032 1.542969 1.316406 2.769532 2.859375 2.84375 12.070313.566406 15.445313 17.289063 15.476563 17.453125.269531 1.425781 1.519531 2.441407 2.945312 2.441407.082032 0 .164063-.007813.25-.011719 1.527344-.125 2.714844-1.386719 2.75-2.921875.261719-11.417969 16.664063-17.269532 16.824219-17.324219 1.355469-.46875 2.1875-1.824219 1.992187-3.242187-.199218-1.421876-1.367187-2.503907-2.796874-2.589844zm-19.167969 13.589844c-1.847657-3.773438-4.679688-7.894532-8.894531-10.558594 3.714843-2.082032 7.394531-5.257813 9.742187-9.832032 2.117187 3.746094 5.308594 7.90625 9.882813 10.445313-3.699219 2.203125-7.976563 5.480469-10.730469 9.945313zm0 0" fill="#3a312a"/><path d="m21.863281 3c-1.378906 16.359375-18.425781 18.941406-18.425781 18.941406 14.636719.6875 18.285156 19.890625 18.285156 19.890625.3125-13.691406 18.84375-20.089843 18.84375-20.089843-13.882812-.832032-18.703125-18.742188-18.703125-18.742188zm0 0" fill="#d7e057"/><path d="m40.742188 18.746094c-11.53125-.695313-15.941407-16.371094-15.988282-16.53125-.378906-1.40625-1.71875-2.324219-3.164062-2.2031252-1.449219.1289062-2.597656 1.2851562-2.71875 2.7343752-1.15625 13.742187-15.292969 16.128906-15.882813 16.222656-1.527343.234375-2.625 1.582031-2.546875 3.125.078125 1.539062 1.3125 2.769531 2.855469 2.839844 12.070313.570312 15.445313 17.289062 15.476563 17.453125.269531 1.429687 1.519531 2.441406 2.945312 2.441406.082031 0 .164062-.003906.25-.007813 1.527344-.128906 2.714844-1.386718 2.75-2.921874.261719-11.417969 16.664062-17.269532 16.824219-17.324219 1.351562-.46875 2.1875-1.824219 1.992187-3.242188-.195312-1.417969-1.363281-2.5-2.792968-2.585937zm-19.167969 13.589844c-1.847657-3.773438-4.679688-7.894532-8.894531-10.5625 3.714843-2.082032 7.394531-5.257813 9.742187-9.832032 2.117187 3.75 5.308594 7.910156 9.882813 10.449219-3.699219 2.199219-7.976563 5.480469-10.730469 9.945313zm0 0" fill="#3a312a"/><path d="m341.28125 174.4375-63.738281-112.441406h-117.320313l-32.292968 56.957031-15.46875 27.300781-15.980469 28.183594c-7.757813 13.699219-11.839844 29.160156-11.839844 44.898438v202.402343c0 15 12.140625 27.136719 27.121094 27.136719h214.238281c14.980469 0 27.121094-12.136719 27.121094-27.136719v-202.402343c0-15.738282-4.078125-31.199219-11.839844-44.898438zm0 0" fill="#8ac6dd"/><path d="m343.890625 172.957031-63.738281-112.4375c-.53125-.941406-1.527344-1.523437-2.609375-1.523437h-117.320313c-1.082031 0-2.078125.582031-2.609375 1.523437l-32.289062 56.957031c-.820313 1.441407-.3125 3.273438 1.128906 4.089844 1.445313.820313 3.273437.308594 4.089844-1.128906l31.425781-55.4375h113.828125l62.875 110.917969c7.488281 13.21875 11.449219 28.234375 11.449219 43.421875v202.398437c0 13.308594-10.820313 24.136719-24.121094 24.136719h-214.238281c-13.300781 0-24.121094-10.828125-24.121094-24.136719v-202.398437c0-15.183594 3.960937-30.199219 11.449219-43.421875l15.976562-28.1875c.816406-1.441407.3125-3.273438-1.128906-4.089844s-3.273438-.308594-4.089844 1.132813l-15.976562 28.183593c-8 14.125-12.230469 30.164063-12.230469 46.378907v202.402343c0 16.617188 13.511719 30.136719 30.121094 30.136719h214.238281c16.609375 0 30.121094-13.519531 30.121094-30.136719v-202.402343c0-16.21875-4.226563-32.257813-12.230469-46.378907zm0 0" fill="#3a312a"/><path d="m275.972656 3.117188h-114.179687c-9.796875 0-17.738281 7.941406-17.738281 17.742187v23.398437c0 9.796876 7.941406 17.742188 17.738281 17.742188h114.179687c9.796875 0 17.738282-7.945312 17.738282-17.742188v-23.398437c0-9.800781-7.941407-17.742187-17.738282-17.742187zm0 0" fill="#87796f"/><path d="m275.972656.117188h-68.050781c-1.65625 0-3 1.34375-3 3s1.34375 3 3 3h68.050781c8.125 0 14.738282 6.613281 14.738282 14.742187v23.398437c0 8.125-6.613282 14.738282-14.738282 14.738282h-114.179687c-8.128907 0-14.738281-6.613282-14.738281-14.738282v-23.398437c0-8.128906 6.609374-14.742187 14.738281-14.742187h16.046875c1.660156 0 3-1.34375 3-3s-1.339844-3-3-3h-16.046875c-11.4375 0-20.738281 9.304687-20.738281 20.742187v23.398437c0 11.433594 9.300781 20.738282 20.738281 20.738282h114.179687c11.433594 0 20.738282-9.304688 20.738282-20.738282v-23.398437c0-11.4375-9.304688-20.742187-20.738282-20.742187zm0 0" fill="#3a312a"/><path d="m293.960938 222.875c-18.941407-19.757812-45.558594-32.078125-75.078126-32.078125-29.519531 0-56.140624 12.320313-75.082031 32.078125h-59.160156v143.960938h59.160156c18.921875 19.761718 45.5625 32.082031 75.082031 32.082031 29.519532 0 56.160157-12.320313 75.078126-32.082031h59.160156v-143.960938zm0 0" fill="#d7e057"/><path d="m353.121094 219.875h-57.886719c-20.308594-20.695312-47.371094-32.078125-76.351563-32.078125-28.980468 0-56.046874 11.382813-76.347656 32.078125h-57.894531c-1.65625 0-3 1.34375-3 3v143.960938c0 1.65625 1.34375 3 3 3h57.890625c20.285156 20.699218 47.347656 32.082031 76.351562 32.082031 29.007813 0 56.066407-11.382813 76.351563-32.082031h57.886719c1.65625 0 3-1.34375 3-3v-143.960938c0-1.65625-1.34375-3-3-3zm-3 143.960938h-56.15625c-.820313 0-1.601563.335937-2.167969.925781-19.238281 20.089843-45.132813 31.15625-72.914063 31.15625-27.785156 0-53.675781-11.066407-72.914062-31.15625-.566406-.589844-1.347656-.925781-2.167969-.925781h-56.160156v-137.960938h56.160156c.820313 0 1.601563-.332031 2.167969-.921875 19.257812-20.089844 45.152344-31.15625 72.914062-31.15625 27.761719 0 53.65625 11.066406 72.914063 31.15625.566406.589844 1.347656.921875 2.167969.921875h56.15625zm0 0" fill="#3a312a"/><path d="m287.625 294.855469c0 37.96875-30.777344 68.746093-68.742188 68.746093-37.96875 0-68.746093-30.777343-68.746093-68.746093 0-37.964844 30.777343-68.742188 68.746093-68.742188 37.964844 0 68.742188 30.777344 68.742188 68.742188zm0 0" fill="#fce8cb"/><path d="m218.882812 223.113281c-39.558593 0-71.746093 32.183594-71.746093 71.742188 0 39.5625 32.183593 71.746093 71.746093 71.746093 39.558594 0 71.746094-32.183593 71.746094-71.746093 0-39.558594-32.1875-71.742188-71.746094-71.742188zm0 137.488281c-36.25 0-65.746093-29.492187-65.746093-65.746093 0-36.25 29.496093-65.742188 65.746093-65.742188 36.253907 0 65.746094 29.492188 65.746094 65.742188 0 36.253906-29.492187 65.746093-65.746094 65.746093zm0 0" fill="#3a312a"/><path d="m312.121094 369.835938v51.902343c0 13.316407-10.820313 24.136719-24.121094 24.136719h38c13.300781 0 24.121094-10.820312 24.121094-24.136719v-51.902343zm0 0" fill="#68a8bc"/><path d="m338.679688 175.917969-62.878907-110.921875h-38.019531l62.878906 110.921875c7.5 13.21875 11.460938 28.238281 11.460938 43.417969v.539062h38v-.539062c0-15.179688-3.960938-30.199219-11.441406-43.417969zm0 0" fill="#68a8bc"/><path d="m275.960938 6.117188h-38c8.140624 0 14.742187 6.621093 14.742187 14.738281v23.402343c0 8.117188-6.601563 14.738282-14.742187 14.738282h38c8.140624 0 14.761718-6.621094 14.761718-14.738282v-23.402343c0-8.117188-6.621094-14.738281-14.761718-14.738281zm0 0" fill="#695b51"/><path d="m312.121094 225.875h38v137.960938h-38zm0 0" fill="#b9c239"/><path d="m218.820312 287.921875 13.1875-41.605469h-21.671874l-17.136719 55.476563h29.097656l.152344 46.203125 22.117187-60.074219zm0 0" fill="#d7e057"/><path d="m247.027344 286.207031c-.558594-.804687-1.480469-1.285156-2.460938-1.285156h-21.648437l11.953125-37.703125c.289062-.914062.128906-1.90625-.441406-2.679688-.5625-.769531-1.460938-1.226562-2.417969-1.226562h-21.671875c-1.316406 0-2.476563.859375-2.867188 2.117188l-17.140625 55.476562c-.28125.910156-.113281 1.898438.457031 2.667969.5625.765625 1.457032 1.214843 2.414063 1.214843h26.109375l.140625 43.214844c.003906 1.453125 1.046875 2.691406 2.476563 2.945313.175781.03125.351562.046875.523437.046875 1.238281 0 2.375-.769532 2.8125-1.964844l22.117187-60.074219c.339844-.917969.203126-1.945312-.355468-2.75zm-21.632813 45.109375-.09375-29.535156c-.007812-1.652344-1.347656-2.988281-3-2.988281h-25.035156l15.285156-49.476563h15.363281l-11.953124 37.703125c-.292969.910157-.128907 1.90625.4375 2.675781.566406.773438 1.464843 1.230469 2.421874 1.230469h21.445313zm0 0" fill="#3a312a"/></svg>