<svg height="452pt" viewBox="-25 0 452 452.90449" width="452pt" xmlns="http://www.w3.org/2000/svg"><path d="m72.722656 22.351562c-1.945312 23.128907-26.046875 26.78125-26.046875 26.78125 20.695313.972657 25.851563 28.117188 25.851563 28.117188.441406-19.351562 26.640625-28.402344 26.640625-28.402344-19.628907-1.175781-26.445313-26.496094-26.445313-26.496094zm0 0" fill="#d7e057"/><path d="m99.347656 45.851562c-17.207031-1.03125-23.664062-24.050781-23.726562-24.28125-.378906-1.40625-1.683594-2.324218-3.167969-2.207031-1.449219.132813-2.59375 1.285157-2.71875 2.734375-1.71875 20.433594-22.625 23.929688-23.507813 24.070313-1.527343.230469-2.625 1.578125-2.546874 3.121093.082031 1.539063 1.316406 2.765626 2.855468 2.839844 18.054688.851563 22.996094 25.4375 23.042969 25.6875.277344 1.421875 1.519531 2.433594 2.945313 2.433594.085937 0 .167968-.003906.253906-.011719 1.527344-.128906 2.714844-1.386719 2.75-2.917969.386718-17.015624 24.382812-25.554687 24.621094-25.636718 1.355468-.472656 2.1875-1.828125 1.988281-3.246094-.195313-1.417969-1.359375-2.5-2.789063-2.585938zm-27.132812 20.691407c-2.710938-6.261719-7.417969-13.816407-15.171875-17.753907 5.859375-2.8125 12.816406-7.828124 16.402343-16.542968 3.101563 6.140625 8.398438 13.757812 16.667969 17.441406-6.011719 3.28125-13.84375 8.8125-17.898437 16.855469zm0 0" fill="#3a312a"/><path d="m29.328125 56.316406c-1.378906 16.355469-18.425781 18.941406-18.425781 18.941406 14.636718.6875 18.285156 19.886719 18.285156 19.886719.3125-13.6875 18.84375-20.089843 18.84375-20.089843-13.882812-.832032-18.703125-18.738282-18.703125-18.738282zm0 0" fill="#d7e057"/><path d="m48.210938 72.058594c-11.535157-.691406-15.945313-16.371094-15.988282-16.53125-.378906-1.402344-1.734375-2.324219-3.164062-2.203125-1.449219.128906-2.597656 1.285156-2.71875 2.734375-1.160156 13.742187-15.292969 16.136718-15.886719 16.230468-1.523437.230469-2.625 1.578126-2.542969 3.121094.078125 1.539063 1.3125 2.769532 2.855469 2.84375 12.070313.566406 15.445313 17.285156 15.476563 17.449219.273437 1.425781 1.519531 2.441406 2.945312 2.441406.082031 0 .167969-.003906.25-.011719 1.53125-.125 2.714844-1.386718 2.753906-2.921874.257813-11.417969 16.660156-17.265626 16.824219-17.324219 1.351563-.464844 2.183594-1.824219 1.992187-3.242188-.199218-1.417969-1.371093-2.5-2.796874-2.585937zm-19.171876 13.589844c-1.847656-3.769532-4.679687-7.894532-8.894531-10.558594 3.714844-2.082032 7.394531-5.261719 9.742188-9.835938 2.117187 3.75 5.308593 7.910156 9.882812 10.449219-3.699219 2.203125-7.976562 5.480469-10.730469 9.945313zm0 0" fill="#3a312a"/><path d="m29.328125 3c-1.378906 16.355469-18.425781 18.941406-18.425781 18.941406 14.636718.6875 18.285156 19.886719 18.285156 19.886719.3125-13.691406 18.84375-20.089844 18.84375-20.089844-13.882812-.832031-18.703125-18.738281-18.703125-18.738281zm0 0" fill="#d7e057"/><path d="m48.210938 18.746094c-11.535157-.691406-15.945313-16.375-15.988282-16.53125-.378906-1.40625-1.734375-2.324219-3.164062-2.2031252-1.449219.1289062-2.597656 1.2812502-2.71875 2.7343752-1.160156 13.742187-15.292969 16.132812-15.886719 16.226562-1.523437.230469-2.625 1.582032-2.542969 3.125.078125 1.539063 1.3125 2.765625 2.855469 2.839844 12.070313.570312 15.445313 17.289062 15.476563 17.453125.273437 1.425781 1.519531 2.441406 2.945312 2.441406.082031 0 .167969-.003906.25-.011719 1.53125-.128906 2.714844-1.386718 2.753906-2.921874.257813-11.417969 16.660156-17.269532 16.824219-17.324219 1.351563-.46875 2.183594-1.824219 1.992187-3.242188-.199218-1.417969-1.371093-2.503906-2.796874-2.585937zm-19.171876 13.585937c-1.847656-3.769531-4.679687-7.894531-8.894531-10.558593 3.714844-2.082032 7.394531-5.261719 9.742188-9.835938 2.117187 3.75 5.308593 7.910156 9.882812 10.449219-3.699219 2.203125-7.976562 5.480469-10.730469 9.945312zm0 0" fill="#3a312a"/><path d="m123.550781 134.90625v286c0 16.019531 12.980469 29 29 29h218.640625c16.019532 0 29-12.980469 29-29v-286zm0 0" fill="#f16c7a"/><path d="m400.191406 131.90625h-276.640625c-1.65625 0-3 1.34375-3 3v54.445312c0 1.65625 1.34375 3 3 3s3-1.34375 3-3v-51.445312h270.640625v283c0 14.335938-11.664062 26-26 26h-218.640625c-14.335937 0-26-11.664062-26-26v-200.445312c0-1.660157-1.34375-3-3-3s-3 1.339843-3 3v200.445312c0 17.640625 14.355469 32 32 32h218.640625c17.644532 0 32-14.359375 32-32v-286c0-1.65625-1.34375-3-3-3zm0 0" fill="#3a312a"/><path d="m379.121094 44.464844h-234.417969l-21.15625 90.441406h276.648437zm0 0" fill="#d7e057"/><path d="m403.117188 134.222656-21.074219-90.4375c-.316407-1.355468-1.527344-2.320312-2.921875-2.320312h-234.417969c-1.394531 0-2.601563.960937-2.921875 2.316406l-21.15625 90.441406c-.207031.890625 0 1.828125.570312 2.546875.570313.71875 1.433594 1.136719 2.351563 1.136719h276.648437c.914063 0 1.78125-.417969 2.347657-1.132812.570312-.71875.78125-1.65625.574219-2.550782zm-275.785157-2.316406 19.753907-84.4375h229.65625l19.675781 84.4375zm0 0" fill="#3a312a"/><path d="m123.550781 247.804688h276.640625v90.441406h-276.640625zm0 0" fill="#fce8cb"/><path d="m400.191406 244.804688h-276.640625c-1.65625 0-3 1.34375-3 3v90.441406c0 1.660156 1.34375 3 3 3h276.640625c1.65625 0 3-1.339844 3-3v-90.441406c0-1.65625-1.34375-3-3-3zm-3 90.441406h-270.640625v-84.441406h270.640625zm0 0" fill="#3a312a"/><path d="m357.453125 3.90625h-191.164063c-11.917968 0-21.582031 9.664062-21.582031 21.582031v18.980469h234.324219v-18.980469c0-11.917969-9.660156-21.582031-21.578125-21.582031zm0 0" fill="#d7e057"/><g fill="#3a312a"><path d="m357.453125.90625h-28.519531c-1.65625 0-3 1.34375-3 3 0 1.660156 1.34375 3 3 3h28.519531c10.246094 0 18.582031 8.335938 18.582031 18.582031v15.976563h-228.328125v-15.976563c0-10.246093 8.335938-18.582031 18.582031-18.582031h132.519532c1.65625 0 3-1.339844 3-3 0-1.65625-1.34375-3-3-3h-132.519532c-13.554687 0-24.582031 11.027344-24.582031 24.582031v18.976563c0 1.660156 1.34375 3 3 3h234.324219c1.65625 0 3-1.339844 3-3v-18.976563c.003906-13.554687-11.023438-24.582031-24.578125-24.582031zm0 0"/><path d="m230.195312 265.355469h-16.476562l-5.960938 18.546875c-1.820312 6.210937-3.726562 13.582031-5.300781 20.039062h-.246093c-1.242188-6.542968-2.980469-13.496094-4.71875-19.953125l-5.464844-18.628906h-16.804688l-3.558594 55.804687h11.671876l.996093-21.199218c.414063-6.953125.660157-15.5625.988281-23.097656h.167969c1.324219 7.285156 3.226563 15.234374 5.050781 21.773437l5.960938 21.609375h9.851562l6.789063-21.773438c2.152344-6.539062 4.472656-14.488281 6.210937-21.609374h.246094c0 8.113281.25 16.226562.496094 22.933593l.828125 21.363281h12.339844zm0 0"/><path d="m242.941406 265.355469h12.667969v55.804687h-12.667969zm0 0"/><path d="m279.199219 310.5625v-45.207031h-12.667969v55.804687h34.855469v-10.597656zm0 0"/><path d="m335.085938 289.117188 18.460937-23.761719h-15.480469l-12.667968 18.546875c-1.242188 1.988281-2.566407 3.972656-3.808594 6.125h-.246094v-24.671875h-12.503906v55.804687h12.503906v-18.214844l4.796875-5.875 13.664063 24.089844h14.734374zm0 0"/></g><path d="m371.851562 341.246094v79.660156c0 14.339844-11.679687 26-26 26h25.339844c14.339844 0 26-11.660156 26-26v-79.660156zm0 0" fill="#d34e5c"/><path d="m371.851562 137.90625h25.339844v106.898438h-25.339844zm0 0" fill="#d34e5c"/><path d="m376.730469 47.464844h-25.339844l19.679687 84.441406h25.339844zm0 0" fill="#b9c239"/><path d="m371.851562 250.804688h25.339844v84.441406h-25.339844zm0 0" fill="#decaad"/><path d="m357.449219 6.90625h-25.339844c10.242187 0 18.582031 8.339844 18.582031 18.582031v15.976563h25.339844v-15.976563c0-10.242187-8.339844-18.582031-18.582031-18.582031zm0 0" fill="#b9c239"/><path d="m167.175781 366.332031c0 45.210938-36.652343 81.859375-81.863281 81.859375s-81.859375-36.648437-81.859375-81.859375c0-45.210937 36.648437-81.863281 81.859375-81.863281s81.863281 36.652344 81.863281 81.863281zm0 0" fill="#8ac6dd"/><path d="m85.3125 281.46875c-46.792969 0-84.859375 38.070312-84.859375 84.863281 0 46.789063 38.066406 84.859375 84.859375 84.859375 46.796875 0 84.867188-38.066406 84.867188-84.859375s-38.070313-84.863281-84.867188-84.863281zm0 163.722656c-43.480469 0-78.859375-35.375-78.859375-78.859375s35.375-78.863281 78.859375-78.863281c43.488281 0 78.867188 35.378906 78.867188 78.863281s-35.378907 78.859375-78.867188 78.859375zm0 0" fill="#3a312a"/><path d="m99.53125 367.636719 25.679688-25.679688c3.90625-3.902343 3.90625-10.234375 0-14.136719-3.902344-3.90625-10.238282-3.90625-14.140626 0l-25.679687 25.679688-25.679687-25.679688c-3.902344-3.90625-10.238282-3.90625-14.140626 0-3.902343 3.902344-3.902343 10.234376 0 14.136719l25.683594 25.679688-25.683594 25.683593c-3.902343 3.902344-3.902343 10.234376 0 14.136719 1.953126 1.953125 4.515626 2.929688 7.070313 2.929688 2.558594 0 5.121094-.972657 7.070313-2.929688l25.679687-25.679687 25.679687 25.679687c1.953126 1.953125 4.515626 2.929688 7.070313 2.929688 2.558594 0 5.121094-.972657 7.070313-2.929688 3.90625-3.902343 3.90625-10.234375 0-14.136719zm0 0" fill="#87796f"/><path d="m103.777344 367.636719 23.558594-23.554688c2.453124-2.457031 3.804687-5.722656 3.804687-9.195312 0-3.46875-1.351563-6.734375-3.804687-9.1875-2.457032-2.457031-5.71875-3.8125-9.195313-3.8125-3.472656 0-6.738281 1.355469-9.191406 3.808593l-23.558594 23.558594-23.554687-23.558594c-2.457032-2.457031-5.71875-3.808593-9.195313-3.808593-3.472656 0-6.738281 1.351562-9.191406 3.808593-2.453125 2.457032-3.808594 5.71875-3.808594 9.191407 0 3.472656 1.355469 6.738281 3.808594 9.191406l23.558593 23.558594-23.558593 23.558593c-2.453125 2.457032-3.808594 5.71875-3.808594 9.191407 0 3.472656 1.355469 6.738281 3.808594 9.191406 2.453125 2.457031 5.71875 3.808594 9.191406 3.808594 3.476563 0 6.738281-1.351563 9.195313-3.808594l23.554687-23.558594 23.558594 23.558594c2.453125 2.457031 5.71875 3.808594 9.191406 3.808594 3.476563 0 6.738281-1.351563 9.195313-3.804688 2.453124-2.457031 3.804687-5.722656 3.804687-9.195312 0-3.46875-1.351563-6.734375-3.804687-9.191407zm19.3125 37.703125c-2.640625 2.644531-7.25 2.644531-9.894532-.003906l-25.679687-25.679688c-.585937-.585938-1.355469-.878906-2.125-.878906-.765625 0-1.535156.292968-2.121094.878906l-25.679687 25.679688c-2.640625 2.644531-7.253906 2.648437-9.898438 0-1.320312-1.324219-2.050781-3.082032-2.050781-4.949219 0-1.871094.730469-3.628907 2.050781-4.949219l25.679688-25.679688c1.171875-1.171874 1.171875-3.074218 0-4.242187l-25.679688-25.679687c-1.320312-1.324219-2.050781-3.082032-2.050781-4.949219 0-1.871094.730469-3.628907 2.054687-4.949219 2.640626-2.644531 7.25-2.648438 9.894532 0l25.679687 25.679688c1.171875 1.171874 3.070313 1.171874 4.242188 0l25.683593-25.679688c2.640626-2.644531 7.25-2.648438 9.894532 0 1.324218 1.324219 2.050781 3.082031 2.050781 4.949219 0 1.867187-.726563 3.625-2.050781 4.949219l-25.679688 25.679687c-1.171875 1.171875-1.171875 3.074219 0 4.242187l25.679688 25.679688c1.324218 1.324219 2.050781 3.082031 2.050781 4.949219 0 1.871093-.726563 3.628906-2.050781 4.953125zm0 0" fill="#3a312a"/><path d="m85.308594 287.464844c-2.777344 0-5.519532.140625-8.238282.421875 39.621094 4.140625 70.601563 37.738281 70.601563 78.441406 0 40.71875-30.980469 74.296875-70.601563 78.4375 2.71875.28125 5.460938.421875 8.238282.421875 43.5 0 78.863281-35.359375 78.863281-78.859375 0-43.480469-35.363281-78.863281-78.863281-78.863281zm0 0" fill="#68a8bc"/></svg>