<svg height="450pt" viewBox="-75 0 450 450.93643" width="450pt" xmlns="http://www.w3.org/2000/svg"><path d="m65.289062 22.355469c-1.945312 23.125-26.050781 26.777343-26.050781 26.777343 20.695313.976563 25.851563 28.121094 25.851563 28.121094.441406-19.355468 26.640625-28.40625 26.640625-28.40625-19.625-1.171875-26.441407-26.492187-26.441407-26.492187zm0 0" fill="#d7e057"/><path d="m91.914062 45.851562c-17.210937-1.027343-23.664062-24.046874-23.726562-24.28125-.382812-1.40625-1.734375-2.34375-3.167969-2.203124-1.453125.132812-2.597656 1.285156-2.71875 2.734374-1.71875 20.429688-22.628906 23.929688-23.507812 24.066407-1.527344.234375-2.625 1.582031-2.546875 3.121093.078125 1.542969 1.3125 2.769532 2.855468 2.84375 18.054688.851563 23 25.4375 23.042969 25.6875.277344 1.421876 1.519531 2.433594 2.945313 2.433594.085937 0 .167968-.003906.253906-.011718 1.527344-.128907 2.710938-1.386719 2.75-2.917969.386719-17.019531 24.378906-25.554688 24.621094-25.640625 1.351562-.46875 2.183594-1.828125 1.988281-3.242188-.195313-1.421875-1.363281-2.503906-2.789063-2.589844zm-27.132812 20.691407c-2.714844-6.261719-7.417969-13.8125-15.175781-17.753907 5.863281-2.804687 12.820312-7.824218 16.40625-16.542968 3.101562 6.140625 8.398437 13.761718 16.667969 17.445312-6.015626 3.277344-13.84375 8.8125-17.898438 16.851563zm0 0" fill="#3a312a"/><path d="m21.890625 56.316406c-1.375 16.359375-18.421875 18.941406-18.421875 18.941406 14.636719.6875 18.285156 19.886719 18.285156 19.886719.308594-13.6875 18.84375-20.089843 18.84375-20.089843-13.882812-.832032-18.707031-18.738282-18.707031-18.738282zm0 0" fill="#d7e057"/><path d="m40.773438 72.058594c-11.53125-.6875-15.941407-16.367188-15.984376-16.527344-.382812-1.40625-1.703124-2.332031-3.164062-2.203125-1.453125.128906-2.597656 1.285156-2.722656 2.734375-1.15625 13.738281-15.292969 16.132812-15.882813 16.226562-1.527343.230469-2.625 1.582032-2.546875 3.121094.078125 1.542969 1.3125 2.769532 2.851563 2.84375 12.070312.566406 15.449219 17.289063 15.480469 17.449219.269531 1.425781 1.515624 2.441406 2.945312 2.441406.082031 0 .167969-.003906.25-.011719 1.53125-.125 2.714844-1.382812 2.753906-2.921874.257813-11.417969 16.660156-17.265626 16.820313-17.324219 1.355469-.464844 2.191406-1.824219 1.992187-3.242188-.195312-1.417969-1.363281-2.5-2.792968-2.585937zm-19.167969 13.59375c-1.847657-3.773438-4.679688-7.894532-8.894531-10.558594 3.710937-2.085938 7.394531-5.261719 9.742187-9.835938 2.113281 3.75 5.308594 7.910157 9.882813 10.449219-3.703126 2.199219-7.976563 5.476563-10.730469 9.945313zm0 0" fill="#3a312a"/><path d="m21.890625 3c-1.375 16.359375-18.421875 18.941406-18.421875 18.941406 14.636719.691406 18.285156 19.890625 18.285156 19.890625.308594-13.691406 18.84375-20.089843 18.84375-20.089843-13.882812-.832032-18.707031-18.742188-18.707031-18.742188zm0 0" fill="#d7e057"/><path d="m40.773438 18.746094c-11.53125-.691406-15.941407-16.371094-15.984376-16.53125-.382812-1.402344-1.714843-2.335938-3.164062-2.2031252-1.453125.1289062-2.597656 1.2851562-2.722656 2.7382812-1.15625 13.738281-15.292969 16.128906-15.882813 16.222656-1.527343.234375-2.625 1.582032-2.546875 3.125.078125 1.539063 1.3125 2.769532 2.855469 2.839844 12.070313.570312 15.445313 17.289062 15.476563 17.453125.269531 1.425781 1.519531 2.441406 2.945312 2.441406.085938 0 .167969-.003906.25-.011719 1.53125-.125 2.714844-1.386718 2.753906-2.921874.257813-11.417969 16.660156-17.269532 16.820313-17.324219 1.355469-.46875 2.191406-1.824219 1.992187-3.242188-.195312-1.417969-1.363281-2.5-2.792968-2.585937zm-19.167969 13.589844c-1.847657-3.773438-4.679688-7.894532-8.894531-10.558594 3.710937-2.082032 7.394531-5.257813 9.742187-9.832032 2.113281 3.746094 5.308594 7.90625 9.882813 10.445313-3.703126 2.203125-7.976563 5.480469-10.730469 9.945313zm0 0" fill="#3a312a"/><path d="m194.511719 27.917969c-48.78125 0-88.320313 39.558593-88.320313 88.339843v307.117188c0 13.5625 10.980469 24.5625 24.539063 24.5625h127.558593c13.5625 0 24.542969-11 24.542969-24.5625v-307.117188c0-48.78125-39.542969-88.339843-88.320312-88.339843zm0 0" fill="#fce8cb"/><path d="m194.507812 24.917969c-50.355468 0-91.320312 40.972656-91.320312 91.339843v307.121094c0 15.195313 12.355469 27.558594 27.539062 27.558594h127.5625c15.183594 0 27.539063-12.363281 27.539063-27.558594v-307.121094c.003906-50.367187-40.964844-91.339843-91.320313-91.339843zm85.324219 398.457031c0 11.886719-9.664062 21.558594-21.542969 21.558594h-127.558593c-11.875 0-21.539063-9.671875-21.539063-21.558594v-307.117188c0-47.058593 38.273438-85.339843 85.320313-85.339843 47.042969 0 85.320312 38.28125 85.320312 85.339843zm0 0" fill="#3a312a"/><path d="m232.753906 3.015625h-76.488281c-9.515625 0-17.230469 7.714844-17.230469 17.234375v24.769531h110.949219v-24.769531c0-9.519531-7.714844-17.234375-17.230469-17.234375zm0 0" fill="#87796f"/><path d="m232.753906.015625h-33.167968c-1.65625 0-3 1.34375-3 3s1.34375 3 3 3h33.167968c7.847656 0 14.230469 6.382813 14.230469 14.230469v21.773437h-104.953125v-21.769531c0-7.847656 6.386719-14.234375 14.234375-14.234375h13.164063c1.65625 0 3-1.34375 3-3s-1.34375-3-3-3h-13.164063c-11.15625 0-20.234375 9.078125-20.234375 20.234375v24.769531c0 1.65625 1.34375 3 3 3h110.953125c1.65625 0 3-1.34375 3-3v-24.769531c0-11.15625-9.074219-20.234375-20.230469-20.234375zm0 0" fill="#3a312a"/><path d="m278.261719 118.261719h-167.503907c-10.789062 0-19.535156 8.746093-19.535156 19.535156v52.804687c0 10.789063 8.746094 19.535157 19.535156 19.535157h167.503907c10.789062 0 19.535156-8.746094 19.535156-19.535157v-52.804687c0-10.785156-8.746094-19.535156-19.535156-19.535156zm0 0" fill="#8ac6dd"/><path d="m278.261719 115.261719h-79.347657c-1.65625 0-3 1.34375-3 3s1.34375 3 3 3h79.347657c9.117187 0 16.535156 7.417969 16.535156 16.535156v52.804687c0 9.121094-7.417969 16.539063-16.535156 16.539063h-167.503907c-9.117187 0-16.539062-7.417969-16.539062-16.539063v-52.804687c0-9.117187 7.417969-16.535156 16.539062-16.535156h58.011719c1.65625 0 3-1.34375 3-3s-1.34375-3-3-3h-58.011719c-12.425781 0-22.539062 10.109375-22.539062 22.535156v52.804687c0 12.429688 10.113281 22.539063 22.539062 22.539063h167.503907c12.425781 0 22.535156-10.109375 22.535156-22.539063v-52.804687c0-12.425781-10.109375-22.535156-22.535156-22.535156zm0 0" fill="#3a312a"/><path d="m171.308594 253.535156c-3.957032-3.957031-9.4375-6.398437-15.476563-6.398437-12.082031 0-21.863281 9.78125-21.863281 21.859375v178.941406h43.742188v-178.941406c0-6.039063-2.441407-11.5-6.402344-15.460938zm0 0" fill="#8ac6dd"/><path d="m173.429688 251.414062c-4.695313-4.695312-10.945313-7.277343-17.601563-7.277343-13.707031 0-24.859375 11.152343-24.859375 24.859375v57.324218c0 1.652344 1.339844 3 3 3 1.65625 0 3-1.347656 3-3v-57.324218c0-10.398438 8.460938-18.859375 18.859375-18.859375 5.050781 0 9.796875 1.960937 13.359375 5.519531 3.5625 3.5625 5.523438 8.300781 5.523438 13.339844v175.941406h-37.742188v-87.464844c0-1.652344-1.339844-3-3-3-1.65625 0-3 1.347656-3 3v90.464844c0 1.65625 1.34375 3 3 3h43.742188c1.65625 0 3-1.34375 3-3v-178.941406c0-6.644532-2.585938-12.886719-7.28125-17.582032zm0 0" fill="#3a312a"/><path d="m248.648438 253.535156c-3.957032-3.957031-9.417969-6.398437-15.457032-6.398437-12.082031 0-21.882812 9.78125-21.882812 21.859375v178.941406h43.742187v-178.941406c0-6.039063-2.441406-11.5-6.402343-15.460938zm0 0" fill="#8ac6dd"/><path d="m250.769531 251.414062c-4.695312-4.695312-10.9375-7.277343-17.582031-7.277343-13.71875 0-24.878906 11.152343-24.878906 24.859375v178.941406c0 1.65625 1.34375 3 3 3h43.742187c1.65625 0 3-1.34375 3-3v-178.941406c0-6.644532-2.585937-12.890625-7.28125-17.582032zm1.28125 193.519532h-37.742187v-175.9375c0-10.398438 8.46875-18.863282 18.878906-18.863282 5.042969 0 9.78125 1.960938 13.339844 5.523438 3.5625 3.558594 5.523437 8.296875 5.523437 13.339844zm0 0" fill="#3a312a"/><path d="m245.691406 48.015625h-29.941406c20.480469 15.402344 33.820312 39.800781 34.121094 67.242187h28.398437c.519531 0 1.019531.058594 1.539063.078126-.296875-27.480469-13.636719-51.898438-34.117188-67.320313zm0 0" fill="#decaad"/><path d="m278.269531 213.136719h-28.378906v37.441406c.300781.277344.597656.558594.878906.839844 4.699219 4.699219 7.28125 10.9375 7.28125 17.578125v175.941406h.238281c11.882813 0 21.542969-9.679688 21.542969-21.5625v-210.320312c-.523437.042968-1.042969.082031-1.5625.082031zm0 0" fill="#decaad"/><path d="m232.75 6.015625h-29.941406c7.863281 0 14.242187 6.378906 14.242187 14.242187v21.757813h29.9375v-21.757813c0-7.863281-6.398437-14.242187-14.238281-14.242187zm0 0" fill="#695b51"/><path d="m278.269531 121.257812h-29.9375c9.117188 0 16.539063 7.417969 16.539063 16.539063v52.800781c0 9.117188-7.421875 16.539063-16.539063 16.539063h29.9375c9.101563 0 16.519531-7.421875 16.519531-16.539063v-52.800781c0-9.121094-7.417968-16.539063-16.519531-16.539063zm0 0" fill="#68a8bc"/></svg>