<svg height="451pt" viewBox="0 0 451 451.546" width="451pt" xmlns="http://www.w3.org/2000/svg"><path d="m65.089844 178.0625c-1.945313 23.128906-26.046875 26.78125-26.046875 26.78125 20.695312.972656 25.851562 28.117188 25.851562 28.117188.441407-19.351563 26.640625-28.40625 26.640625-28.40625-19.625-1.171876-26.445312-26.492188-26.445312-26.492188zm0 0" fill="#d7e057"/><path d="m91.714844 201.5625c-17.207032-1.027344-23.664063-24.046875-23.726563-24.28125-.378906-1.402344-1.691406-2.304688-3.167969-2.203125-1.449218.132813-2.59375 1.285156-2.71875 2.734375-1.714843 20.429688-22.621093 23.925781-23.507812 24.0625-1.523438.234375-2.625 1.582031-2.542969 3.121094.078125 1.542968 1.3125 2.773437 2.855469 2.84375 18.054688.851562 22.996094 25.4375 23.039062 25.683594.277344 1.425781 1.523438 2.4375 2.949219 2.4375.082031 0 .167969-.003907.25-.011719 1.53125-.128907 2.714844-1.386719 2.75-2.917969.386719-17.019531 24.382813-25.554688 24.625-25.640625 1.351563-.464844 2.183594-1.828125 1.988281-3.242187-.199218-1.417969-1.363281-2.5-2.792968-2.585938zm-27.132813 20.691406c-2.710937-6.261718-7.414062-13.8125-15.171875-17.753906 5.863282-2.808594 12.816406-7.824219 16.402344-16.546875 3.101562 6.144531 8.398438 13.761719 16.667969 17.445313-6.015625 3.28125-13.84375 8.8125-17.898438 16.855468zm0 0" fill="#3a312a"/><path d="m21.695312 212.027344c-1.378906 16.355468-18.425781 18.941406-18.425781 18.941406 14.636719.6875 18.285157 19.886719 18.285157 19.886719.3125-13.6875 18.84375-20.089844 18.84375-20.089844-13.882813-.832031-18.703126-18.738281-18.703126-18.738281zm0 0" fill="#d7e057"/><path d="m40.578125 227.769531c-11.53125-.691406-15.945313-16.371093-15.988281-16.53125-.378906-1.402343-1.707032-2.308593-3.164063-2.203125-1.449219.128906-2.597656 1.285156-2.71875 2.738282-1.15625 13.738281-15.292969 16.128906-15.882812 16.222656-1.527344.234375-2.628907 1.582031-2.546875 3.125.078125 1.539062 1.3125 2.769531 2.855468 2.839844 12.070313.570312 15.445313 17.292968 15.476563 17.453124.273437 1.425782 1.519531 2.441407 2.945313 2.441407.082031 0 .167968-.003907.25-.007813 1.527343-.128906 2.714843-1.386718 2.753906-2.921875.261718-11.417969 16.664062-17.269531 16.824218-17.324219 1.351563-.46875 2.1875-1.828124 1.992188-3.246093-.199219-1.417969-1.367188-2.5-2.796875-2.585938zm-19.167969 13.589844c-1.847656-3.769531-4.679687-7.894531-8.894531-10.558594 3.710937-2.082031 7.394531-5.257812 9.738281-9.832031 2.117188 3.746094 5.3125 7.910156 9.886719 10.445312-3.703125 2.203126-7.980469 5.480469-10.730469 9.945313zm0 0" fill="#3a312a"/><path d="m21.695312 158.710938c-1.378906 16.355468-18.425781 18.941406-18.425781 18.941406 14.636719.6875 18.285157 19.886718 18.285157 19.886718.3125-13.6875 18.84375-20.089843 18.84375-20.089843-13.882813-.832031-18.703126-18.738281-18.703126-18.738281zm0 0" fill="#d7e057"/><path d="m40.578125 174.457031c-11.53125-.691406-15.945313-16.371093-15.988281-16.53125-.378906-1.402343-1.707032-2.308593-3.164063-2.203125-1.449219.128906-2.597656 1.285156-2.71875 2.734375-1.15625 13.742188-15.292969 16.132813-15.882812 16.226563-1.527344.230468-2.628907 1.582031-2.546875 3.121094.078125 1.542968 1.3125 2.769531 2.855468 2.84375 12.070313.566406 15.445313 17.289062 15.476563 17.453124.273437 1.421876 1.519531 2.4375 2.945313 2.4375.082031 0 .167968-.003906.25-.007812 1.527343-.128906 2.714843-1.386719 2.753906-2.921875.261718-11.417969 16.664062-17.265625 16.824218-17.324219 1.351563-.46875 2.1875-1.824218 1.992188-3.242187-.199219-1.417969-1.367188-2.5-2.796875-2.585938zm-19.167969 13.589844c-1.847656-3.773437-4.679687-7.894531-8.894531-10.5625 3.710937-2.082031 7.394531-5.257813 9.738281-9.832031 2.117188 3.75 5.308594 7.910156 9.886719 10.449218-3.703125 2.199219-7.980469 5.476563-10.730469 9.945313zm0 0" fill="#3a312a"/><path d="m445.890625 309.117188c-12.535156-60.871094-16.996094-123.125-10.640625-184.945313l7.710938-75.023437h-296.195313l7.710937 75.023437c6.355469 61.820313 1.894532 124.074219-10.640624 184.945313-1.609376 7.824218-2.449219 15.878906-2.449219 24.109374 0 42.398438 22.296875 80.222657 57.15625 104.929688 9.648437 6.839844 21.246093 10.386719 33.074219 10.386719h126.488281c11.828125 0 23.429687-3.546875 33.078125-10.386719 34.859375-24.707031 57.15625-62.53125 57.15625-104.929688 0-8.230468-.839844-16.285156-2.449219-24.109374zm0 0" fill="#fce8cb"/><path d="m448.828125 308.515625c-13.0625-63.4375-16.625-125.355469-10.59375-184.039063l7.710937-75.023437c.085938-.84375-.1875-1.683594-.757812-2.316406-.570312-.628907-1.378906-.988281-2.226562-.988281h-155.75c-1.65625 0-3 1.34375-3 3s1.34375 3 3 3h152.425781l-7.371094 71.714843c-6.097656 59.292969-2.5 121.824219 10.683594 185.859375 1.585937 7.707032 2.390625 15.613282 2.390625 23.503906 0 39.957032-20.371094 77.308594-55.890625 102.480469-9.078125 6.4375-19.917969 9.835938-31.34375 9.835938h-126.488281c-11.425782 0-22.261719-3.398438-31.34375-9.835938-35.519532-25.171875-55.886719-62.527343-55.886719-102.480469 0-7.890624.800781-15.796874 2.386719-23.503906 13.1875-64.039062 16.78125-126.570312 10.6875-185.859375l-7.375-71.714843h106.957031c1.652343 0 3-1.34375 3-3s-1.347657-3-3-3h-110.28125c-.851563 0-1.660157.359374-2.226563.988281-.570312.632812-.84375 1.472656-.757812 2.316406l7.714844 75.023437c6.03125 58.675782 2.464843 120.597657-10.59375 184.039063-1.667969 8.101563-2.515626 16.417969-2.515626 24.710937 0 41.925782 21.292969 81.0625 58.421876 107.378907 10.097656 7.15625 22.136718 10.941406 34.808593 10.941406h126.492188c12.675781 0 24.714843-3.785156 34.808593-10.941406 37.128907-26.316407 58.421876-65.453125 58.421876-107.378907.003906-8.292968-.839844-16.609374-2.507813-24.710937zm0 0" fill="#3a312a"/><path d="m445.890625 309.121094c-8.40625-40.832032-13.160156-82.285156-13.476563-123.8125h-275.101562c-.316406 41.527344-5.070312 82.980468-13.476562 123.8125-1.609376 7.820312-2.449219 15.875-2.449219 24.105468 0 42.402344 22.296875 80.226563 57.15625 104.929688 9.648437 6.839844 21.246093 10.390625 33.074219 10.390625h126.488281c11.828125 0 23.429687-3.550781 33.078125-10.390625 34.859375-24.707031 57.15625-62.527344 57.15625-104.929688 0-8.230468-.839844-16.285156-2.449219-24.105468zm0 0" fill="#8ac6dd"/><path d="m448.828125 308.515625c-8.597656-41.757813-13.109375-83.21875-13.414063-123.230469-.011718-1.644531-1.351562-2.976562-3-2.976562h-275.101562c-1.648438 0-2.988281 1.332031-3 2.976562-.304688 40.023438-4.816406 81.480469-13.414062 123.230469-1.667969 8.101563-2.511719 16.414063-2.511719 24.707031 0 41.925782 21.289062 81.0625 58.421875 107.378906 10.097656 7.160157 22.132812 10.941407 34.808594 10.941407h126.488281c12.675781 0 24.714843-3.78125 34.8125-10.941407 37.128906-26.316406 58.421875-65.453124 58.421875-107.378906 0-8.292968-.84375-16.605468-2.511719-24.707031zm-59.378906 127.195313c-9.078125 6.433593-19.917969 9.835937-31.34375 9.835937h-126.488281c-11.425782 0-22.261719-3.402344-31.34375-9.835937-35.519532-25.175782-55.886719-62.53125-55.886719-102.484376 0-7.886718.800781-15.792968 2.386719-23.5 8.464843-41.097656 13.003906-81.929687 13.503906-121.417968h269.167968c.5 39.480468 5.042969 80.308594 13.503907 121.417968 1.585937 7.707032 2.390625 15.613282 2.390625 23.5 0 39.953126-20.371094 77.308594-55.890625 102.484376zm0 0" fill="#3a312a"/><path d="m291.730469 240.929688-37.515625-27.289063c-4.035156-2.929687-9.679688-2.039063-12.609375 1.992187l-27.289063 37.519532c-2.929687 4.035156-2.039062 9.675781 1.992188 12.609375l37.519531 27.285156c4.03125 2.933594 9.675781 2.042969 12.605469-1.988281l27.285156-37.519532c2.933594-4.03125 2.042969-9.675781-1.988281-12.609374zm0 0" fill="#fce8cb"/><path d="m298.300781 246.351562c-.5-3.171874-2.207031-5.957031-4.804687-7.847656l-37.519532-27.285156c-2.597656-1.890625-5.777343-2.652344-8.949218-2.15625-3.171875.503906-5.957032 2.210938-7.847656 4.808594l-27.289063 37.519531c-1.886719 2.597656-2.652344 5.773437-2.152344 8.949219.5 3.171875 2.207031 5.957031 4.804688 7.847656l37.519531 27.289062c2.078125 1.511719 4.527344 2.300782 7.042969 2.300782.632812 0 1.269531-.050782 1.902343-.148438 3.175782-.503906 5.960938-2.210937 7.851563-4.808594l27.289063-37.515624c1.886718-2.601563 2.65625-5.777344 2.152343-8.953126zm-7.003906 5.421876-27.289063 37.519531c-1.949218 2.683593-5.726562 3.28125-8.417968 1.328125l-37.519532-27.285156c-2.683593-1.957032-3.28125-5.730469-1.328124-8.421876l27.289062-37.519531c1.953125-2.6875 5.726562-3.277343 8.417969-1.328125l37.519531 27.289063c1.296875.949219 2.15625 2.34375 2.40625 3.933593.25 1.589844-.132812 3.183594-1.078125 4.484376zm0 0" fill="#3a312a"/><path d="m379.671875 253.730469-45.347656-9.792969c-4.875-1.050781-9.675781 2.042969-10.726563 6.917969l-9.792968 45.347656c-1.054688 4.871094 2.042968 9.671875 6.914062 10.726563l45.347656 9.789062c4.871094 1.054688 9.675782-2.042969 10.726563-6.914062l9.792969-45.347657c1.054687-4.867187-2.042969-9.671875-6.914063-10.726562zm0 0" fill="#fce8cb"/><path d="m387.875 256.039062c-1.742188-2.703124-4.433594-4.5625-7.570312-5.238281l-45.347657-9.789062c-6.460937-1.410157-12.890625 2.730469-14.292969 9.210937l-9.789062 45.347656c-.683594 3.140626-.097656 6.355469 1.644531 9.054688 1.738281 2.699219 4.425781 4.558594 7.566407 5.238281l45.347656 9.789063c.851562.1875 1.703125.277344 2.542968.277344 5.539063 0 10.535157-3.863282 11.75-9.488282l9.792969-45.347656c.679688-3.140625.09375-6.359375-1.644531-9.054688zm-4.21875 7.785157-9.792969 45.351562c-.699219 3.242188-3.917969 5.308594-7.160156 4.617188l-45.347656-9.792969c-1.574219-.339844-2.921875-1.273438-3.789063-2.625-.875-1.351562-1.167968-2.960938-.828125-4.535156l9.792969-45.351563c.339844-1.570312 1.273438-2.917969 2.625-3.789062 1.347656-.871094 2.957031-1.164063 4.535156-.824219l45.351563 9.789062c1.570312.34375 2.917969 1.273438 3.789062 2.625.871094 1.351563 1.164063 2.964844.824219 4.535157zm0 0" fill="#3a312a"/><path d="m385.78125 360.773438-40.984375-21.730469c-4.40625-2.335938-9.867187-.660157-12.203125 3.746093l-21.730469 40.988282c-2.335937 4.402344-.65625 9.863281 3.746094 12.199218l40.988281 21.730469c4.402344 2.335938 9.867188.660157 12.199219-3.746093l21.730469-40.988282c2.335937-4.402344.660156-9.863281-3.746094-12.199218zm0 0" fill="#fce8cb"/><path d="m393.050781 365.21875c-.945312-3.070312-3.027343-5.589844-5.863281-7.09375l-40.988281-21.730469c-2.835938-1.507812-6.089844-1.816406-9.160157-.875-3.070312.945313-5.589843 3.027344-7.097656 5.863281l-21.730468 40.988282c-3.105469 5.859375-.867188 13.152344 4.988281 16.257812l40.988281 21.730469h.003906c1.789063.949219 3.710938 1.398437 5.613282 1.398437 4.308593 0 8.488281-2.320312 10.640624-6.386718l21.734376-40.992188c1.503906-2.835937 1.816406-6.089844.871093-9.160156zm-6.171875 6.347656-21.730468 40.988282c-1.554688 2.941406-5.214844 4.054687-8.148438 2.503906h.003906l-40.992187-21.734375c-2.933594-1.554688-4.050781-5.207031-2.5-8.140625l21.734375-40.988282c1.554687-2.933593 5.214844-4.058593 8.144531-2.5l40.988281 21.730469c1.421875.753907 2.464844 2.015625 2.9375 3.554688.46875 1.539062.316406 3.167969-.4375 4.585937zm0 0" fill="#3a312a"/><path d="m261.421875 368.921875-16.0625-43.527344c-1.726563-4.675781-6.914063-7.066406-11.589844-5.339843l-43.523437 16.058593c-4.675782 1.726563-7.070313 6.917969-5.34375 11.589844l16.0625 43.523437c1.722656 4.675782 6.914062 7.070313 11.589844 5.34375l43.523437-16.0625c4.675781-1.722656 7.070313-6.910156 5.34375-11.585937zm0 0" fill="#fce8cb"/><path d="m264.238281 367.882812-16.0625-43.527343c-2.292969-6.222657-9.21875-9.410157-15.445312-7.117188l-43.523438 16.058594c-6.21875 2.296875-9.414062 9.222656-7.121093 15.445313l16.0625 43.527343c1.789062 4.851563 6.398437 7.859375 11.289062 7.859375 1.382812 0 2.785156-.238281 4.152344-.742187l43.523437-16.0625c3.015625-1.109375 5.414063-3.328125 6.761719-6.246094 1.34375-2.917969 1.472656-6.183594.363281-9.195313zm-5.8125 6.683594c-.671875 1.460938-1.875 2.574219-3.382812 3.128906l-43.527344 16.0625c-3.117187 1.148438-6.585937-.453124-7.738281-3.566406l-16.058594-43.527344c-.554688-1.507812-.492188-3.144531.183594-4.605468.671875-1.464844 1.875-2.574219 3.382812-3.132813l43.527344-16.058593c.683594-.253907 1.386719-.375 2.078125-.375 2.453125 0 4.761719 1.507812 5.660156 3.941406l16.058594 43.523437c.554687 1.511719.492187 3.148438-.183594 4.609375zm0 0" fill="#3a312a"/><path d="m380.296875 2.996094-37.84375 97.167968-11.390625 29.242188-21.769531 55.902344h43.332031l71.003906-182.3125zm0 0" fill="#f16c7a"/><path d="m426.105469 1.304688c-.558594-.816407-1.488281-1.304688-2.476563-1.304688h-43.332031c-1.238281 0-2.347656.761719-2.796875 1.910156l-37.84375 97.167969c-.601562 1.542969.164062 3.28125 1.707031 3.882813 1.539063.605468 3.285157-.160157 3.882813-1.707032l37.101562-95.253906h36.894532l-68.667969 176.308594h-36.894531l20.179687-51.8125c.601563-1.542969-.164063-3.28125-1.707031-3.882813-1.539063-.601562-3.285156.160157-3.882813 1.707031l-21.773437 55.902344c-.359375.921875-.238282 1.964844.320312 2.785156.558594.816407 1.484375 1.304688 2.476563 1.304688h43.332031c1.234375 0 2.34375-.761719 2.792969-1.914062l71.003906-182.308594c.359375-.925782.242187-1.964844-.316406-2.785156zm0 0" fill="#3a312a"/><path d="m406.527344 46.148438h-44.207032c-1.65625 0-3 1.34375-3 3s1.34375 3 3 3h44.207032c1.65625 0 3-1.34375 3-3s-1.34375-3-3-3zm0 0" fill="#3a312a"/><path d="m407.699219 52.136719-1.378907 3.5625-7.019531 68.160156c-1.960937 19.160156-2.902343 38.679687-2.863281 58.457031h32.960938c-.039063-19.777344.902343-39.296875 2.859374-58.457031l7.382813-71.71875h-31.941406zm0 0" fill="#decaad"/><path d="m442.960938 309.71875c-8.480469-41.097656-13.023438-81.917969-13.523438-121.402344h-32.957031c.5 39.480469 5.039062 80.300782 13.5 121.402344 1.597656 7.722656 2.398437 15.621094 2.398437 23.5 0 39.960938-20.378906 77.320312-55.898437 102.5-9.082031 6.421875-19.921875 9.820312-31.339844 9.820312h32.957031c11.441406 0 22.28125-3.398437 31.363282-9.820312 35.5-25.179688 55.878906-62.539062 55.878906-102.5 0-7.878906-.800782-15.78125-2.378906-23.5zm0 0" fill="#68a8bc"/><path d="m149.691406 51.546875c-33.53125-10.289063-99.109375 11.5-102.246094 21.71875-3.132812 10.21875 38.929688 65.046875 72.460938 75.339844 33.53125 10.289062 62.402344-4.625 70.628906-31.421875 8.226563-26.804688-7.308594-55.34375-40.84375-65.636719zm0 0" fill="#d7e057"/><path d="m188.347656 76.632812c-7.738281-12.925781-21.152344-22.851562-37.773437-27.953124-33.28125-10.210938-101.859375 10.21875-105.996094 23.703124-4.136719 13.488282 41.183594 68.878907 74.445313 79.089844 7.359374 2.257813 14.71875 3.378906 21.828124 3.378906 8.957032 0 17.511719-1.785156 25.125-5.328124 13.371094-6.226563 23.109376-17.398438 27.425782-31.460938 4.316406-14.058594 2.523437-28.773438-5.054688-41.429688zm-.679687 39.667969c-3.808594 12.417969-12.414063 22.285157-24.222657 27.785157-12.304687 5.730468-27.457031 6.3125-42.65625 1.652343-34.148437-10.480469-72.546874-64.828125-70.472656-71.589843 1.707032-5.558594 44.074219-22.386719 78.074219-22.386719 7.367187 0 14.34375.789062 20.425781 2.652343 15.199219 4.667969 27.414063 13.652344 34.382813 25.300782 6.691406 11.179687 8.28125 24.171875 4.46875 36.585937zm0 0" fill="#3a312a"/><path d="m234.933594 84.308594c-6.507813-34.464844-56.328125-82.351563-66.832032-80.367188-10.507812 1.984375-39.4375 64.738282-32.929687 99.203125 6.507813 34.464844 33.152344 53.074219 60.699219 47.871094 27.550781-5.203125 45.570312-32.242187 39.0625-66.707031zm0 0" fill="#d7e057"/><path d="m237.882812 83.75c-6.457031-34.1875-56.410156-85.425781-70.335937-82.761719-13.863281 2.621094-41.777344 68.519531-35.320313 102.710938 5.863282 31.054687 27.878907 51.207031 54.226563 51.207031 3.265625 0 6.601563-.304688 9.976563-.945312 14.453124-2.730469 26.636718-11.171876 34.304687-23.769532 7.839844-12.863281 10.375-29.355468 7.148437-46.441406zm-12.269531 43.324219c-6.777343 11.128906-17.535156 18.582031-30.296875 20.992187-27.199218 5.144532-51.25-13.996094-57.195312-45.480468-6.625-35.101563 23.585937-94.386719 30.539062-95.699219.101563-.019531.207032-.027344.328125-.027344 8.066407 0 56.46875 43.417969 63 78.003906 2.949219 15.625.6875 30.617188-6.375 42.210938zm0 0" fill="#3a312a"/></svg>