<svg height="452pt" viewBox="-60 0 452 452.088" width="452pt" xmlns="http://www.w3.org/2000/svg"><path d="m302.410156 328.488281c-1.945312 23.128907-26.046875 26.78125-26.046875 26.78125 20.691407.972657 25.847657 28.117188 25.847657 28.117188.441406-19.351563 26.644531-28.40625 26.644531-28.40625-19.628907-1.171875-26.445313-26.492188-26.445313-26.492188zm0 0" fill="#d7e057"/><path d="m329.035156 351.988281c-17.207031-1.03125-23.664062-24.046875-23.726562-24.28125-.378906-1.40625-1.707032-2.332031-3.167969-2.203125-1.449219.128906-2.59375 1.28125-2.714844 2.730469-1.722656 20.429687-22.625 23.929687-23.511719 24.066406-1.523437.230469-2.625 1.582031-2.542968 3.121094.078125 1.542969 1.3125 2.769531 2.855468 2.84375 18.054688.847656 22.996094 25.433594 23.042969 25.683594.273438 1.421875 1.519531 2.433593 2.945313 2.433593.082031 0 .167968-.003906.25-.007812 1.53125-.128906 2.714844-1.386719 2.75-2.921875.386718-17.015625 24.382812-25.554687 24.625-25.636719 1.351562-.46875 2.183594-1.828125 1.988281-3.246094-.199219-1.417968-1.363281-2.5-2.792969-2.582031zm-27.132812 20.6875c-2.710938-6.261719-7.414063-13.8125-15.171875-17.75 5.863281-2.808593 12.816406-7.828125 16.402343-16.546875 3.101563 6.144532 8.398438 13.761719 16.667969 17.445313-6.015625 3.28125-13.84375 8.808593-17.898437 16.851562zm0 0" fill="#3a312a"/><path d="m259.015625 362.449219c-1.378906 16.359375-18.421875 18.941406-18.421875 18.941406 14.632812.6875 18.28125 19.886719 18.28125 19.886719.3125-13.6875 18.84375-20.089844 18.84375-20.089844-13.882812-.828125-18.703125-18.738281-18.703125-18.738281zm0 0" fill="#d7e057"/><path d="m277.898438 378.195312c-11.53125-.691406-15.945313-16.375-15.988282-16.53125-.378906-1.402343-1.726562-2.304687-3.164062-2.203124-1.449219.128906-2.597656 1.285156-2.71875 2.734374-1.15625 13.742188-15.292969 16.132813-15.882813 16.226563-1.527343.230469-2.628906 1.582031-2.546875 3.121094.082032 1.542969 1.3125 2.769531 2.855469 2.84375 12.070313.566406 15.445313 17.289062 15.476563 17.453125.273437 1.425781 1.519531 2.441406 2.945312 2.441406.082031 0 .167969-.003906.25-.011719 1.53125-.125 2.71875-1.386719 2.753906-2.921875.257813-11.417968 16.664063-17.269531 16.824219-17.324218 1.351563-.464844 2.1875-1.824219 1.992187-3.242188-.199218-1.417969-1.367187-2.503906-2.796874-2.585938zm-19.167969 13.589844c-1.851563-3.773437-4.679688-7.894531-8.894531-10.558594 3.710937-2.085937 7.394531-5.261718 9.738281-9.835937 2.117187 3.75 5.3125 7.910156 9.882812 10.449219-3.699219 2.199218-7.976562 5.480468-10.726562 9.945312zm0 0" fill="#3a312a"/><path d="m259.015625 309.132812c-1.378906 16.359376-18.421875 18.941407-18.421875 18.941407 14.632812.691406 18.28125 19.890625 18.28125 19.890625.3125-13.691406 18.84375-20.089844 18.84375-20.089844-13.882812-.832031-18.703125-18.742188-18.703125-18.742188zm0 0" fill="#d7e057"/><path d="m277.898438 324.878906c-11.53125-.6875-15.945313-16.371094-15.988282-16.527344-.378906-1.40625-1.726562-2.304687-3.164062-2.207031-1.449219.132813-2.597656 1.289063-2.71875 2.738281-1.15625 13.738282-15.292969 16.128907-15.882813 16.222657-1.527343.234375-2.628906 1.582031-2.546875 3.121093.082032 1.542969 1.3125 2.769532 2.855469 2.84375 12.070313.566407 15.445313 17.289063 15.476563 17.453126.273437 1.425781 1.519531 2.441406 2.945312 2.441406.082031 0 .167969-.003906.25-.011719 1.53125-.125 2.71875-1.386719 2.753906-2.921875.257813-11.414062 16.664063-17.265625 16.824219-17.320312 1.351563-.46875 2.1875-1.828126 1.992187-3.246094-.199218-1.417969-1.367187-2.5-2.796874-2.585938zm-19.167969 13.589844c-1.847657-3.769531-4.679688-7.894531-8.894531-10.558594 3.710937-2.082031 7.394531-5.261718 9.738281-9.832031 2.117187 3.746094 5.3125 7.90625 9.882812 10.449219-3.699219 2.199218-7.976562 5.476562-10.726562 9.941406zm0 0" fill="#3a312a"/><path d="m140.648438 294.277344v12.539062h.039062v31.222656c-.019531 0-.019531 0-.039062 0v74.777344c4.839843-.558594 9.859374-.859375 15.019531-.859375 5.179687 0 10.21875.300781 15.058593.859375v-118.539062zm0 0" fill="#f16c7a"/><path d="m170.726562 291.277344h-30.078124c-1.65625 0-3 1.34375-3 3v12.539062c0 1.65625 1.34375 3 3 3h.039062c1.65625 0 2.980469-1.34375 2.980469-3 0-.113281-.007813-.226562-.019531-.339844v-9.199218h24.078124v112.214844c-7.945312-.710938-16.101562-.714844-24.078124 0v-71.109376c.011718-.113281.019531-.226562.019531-.34375 0-1.65625-1.363281-3-3.019531-3s-3 1.34375-3 3v74.777344c0 .859375.367187 1.671875 1.003906 2.242188.636718.570312 1.484375.839844 2.339844.738281 9.683593-1.117187 19.761718-1.109375 29.390624 0 .117188.015625.230469.019531.34375.019531.734376 0 1.445313-.265625 1.996094-.757812.640625-.570313 1.003906-1.382813 1.003906-2.242188v-118.539062c0-1.65625-1.34375-3-3-3zm0 0" fill="#3a312a"/><path d="m155.675781 411.957031c-38.863281 0-70.371093 16.621094-70.371093 37.132813h140.765624c0-20.511719-31.511718-37.132813-70.394531-37.132813zm0 0" fill="#d7e057"/><path d="m155.675781 408.957031c-41.144531 0-73.371093 17.628907-73.371093 40.132813 0 1.652344 1.34375 3 3 3h140.765624c1.65625 0 3-1.347656 3-3 0-22.503906-32.238281-40.132813-73.394531-40.132813zm-67.101562 37.132813c3.113281-17.160156 32.574219-31.132813 67.101562-31.132813 34.539063 0 64.011719 13.972657 67.125 31.132813zm0 0" fill="#3a312a"/><path d="m155.664062 414.949219c-3.277343 0-6.5.121093-9.65625.359375 30.21875 2.320312 54.636719 15.242187 57.457032 30.78125h19.339844c-3.117188-17.160156-32.597657-31.140625-67.140626-31.140625zm0 0" fill="#b9c239"/><path d="m266.914062 217.882812-26.652343-154.746093c-1.402344-8.117188-8.441407-14.046875-16.679688-14.046875h-136.539062c-8.238281 0-15.277344 5.929687-16.675781 14.046875l-9.957032 57.796875-4.652344 27.003906-11.652343 67.632812c-3.285157 19.074219 2.601562 38.316407 15.402343 52.25.167969.183594.335938.359376.503907.535157 1.007812 1.050781 2.035156 2.089843 3.105469 3.074219.34375.3125.675781.632812 1.023437.941406 1.300781 1.144531 2.632813 2.253906 4.042969 3.300781l3.949218 2.929687c13.734376 10.183594 30.382813 15.683594 47.480469 15.683594h74.949219c18.632812 0 36.675781-6.523437 50.996094-18.441406 1.296875-1.078125 2.519531-2.21875 3.710937-3.386719.289063-.28125.566407-.574219.84375-.859375 1.03125-1.054687 2.019531-2.152344 2.988281-3.269531.117188-.132813.238282-.269531.351563-.40625 11.484375-13.761719 16.570313-32.011719 13.460937-50.039063zm0 0" fill="#fce8cb"/><path d="m269.875 217.375-26.660156-154.746094c-1.652344-9.582031-9.90625-16.539062-19.632813-16.539062h-53.667969c-1.65625 0-3 1.34375-3 3 0 1.652344 1.34375 3 3 3h53.667969c6.796875 0 12.566407 4.859375 13.71875 11.558594l26.660157 154.742187c2.925781 16.992187-1.742188 34.34375-12.8125 47.613281l-.308594.359375c-.929688 1.066407-1.875 2.121094-2.867188 3.132813l-.796875.816406c-1.28125 1.253906-2.4375 2.308594-3.535156 3.222656-13.753906 11.445313-31.183594 17.75-49.074219 17.75h-74.949218c-16.34375 0-32.570313-5.359375-45.695313-15.097656l-3.953125-2.929688c-1.191406-.878906-2.410156-1.878906-3.835938-3.132812-.210937-.1875-.421874-.382812-.628906-.578125l-.359375-.328125c-.882812-.8125-1.796875-1.714844-2.972656-2.949219l-.457031-.476562c-12.242188-13.328125-17.71875-31.914063-14.652344-49.710938l26.257812-152.433593c1.152344-6.699219 6.925782-11.558594 13.722657-11.558594h53.078125c1.65625 0 3-1.347656 3-3 0-1.65625-1.34375-3-3-3h-53.078125c-9.726563 0-17.984375 6.957031-19.636719 16.539062l-26.253906 152.433594c-3.378906 19.621094 2.65625 40.101562 16.140625 54.785156.1875.203125.378906.398438.550781.582032 1.261719 1.320312 2.265625 2.308593 3.246094 3.210937l.324218.300781c.242188.226563.484376.453125.746094.683594 1.5625 1.378906 2.90625 2.472656 4.234375 3.460938l3.949219 2.929687c14.152344 10.496094 31.648438 16.277344 49.269531 16.277344h74.949219c19.292969 0 38.085938-6.796875 52.914062-19.140625 1.226563-1.019532 2.5-2.179688 3.902344-3.550782l.882813-.898437c.941406-.964844 1.894531-2.011719 3.167969-3.46875l.328124-.382813c12.195313-14.625 17.339844-33.746093 14.117188-52.476562zm0 0" fill="#3a312a"/><path d="m198.15625 2.996094-39.839844 105.761718h41.660156l39.839844-105.761718zm0 0" fill="#87796f"/><path d="m242.285156 1.292969c-.5625-.8125-1.484375-1.292969-2.46875-1.292969h-41.660156c-1.246094 0-2.367188.773438-2.804688 1.945312l-39.839843 105.757813c-.347657.921875-.21875 1.953125.339843 2.765625.558594.808594 1.484376 1.292969 2.464844 1.292969h41.660156c1.25 0 2.371094-.777344 2.808594-1.945313l39.839844-105.761718c.347656-.917969.21875-1.953126-.339844-2.761719zm-44.382812 104.464843h-35.25l37.582031-99.761718h35.246094zm0 0" fill="#3a312a"/><path d="m266.914062 217.882812-18.796874-109.117187h-185.609376l-2.097656 12.167969-4.652344 27-11.652343 67.636718c-3.285157 19.074219 2.601562 38.3125 15.402343 52.25.164063.179688.332032.355469.5.53125 1.003907 1.046876 2.023438 2.078126 3.09375 3.058594.347657.320313.6875.644532 1.039063.960938 1.300781 1.144531 2.632813 2.253906 4.042969 3.296875l3.949218 2.929687c13.734376 10.1875 30.382813 15.6875 47.484376 15.6875h74.945312c18.632812 0 36.675781-6.527344 50.996094-18.445312 1.296875-1.078125 2.519531-2.21875 3.714844-3.382813.285156-.28125.5625-.574219.839843-.859375 1.03125-1.054687 2.019531-2.15625 2.988281-3.269531.117188-.136719.238282-.273437.351563-.410156 11.484375-13.757813 16.570313-32.011719 13.460937-50.035157zm0 0" fill="#8ac6dd"/><path d="m269.875 217.371094-18.800781-109.117188c-.246094-1.441406-1.496094-2.488281-2.957031-2.488281h-185.609376c-1.460937 0-2.710937 1.046875-2.960937 2.488281l-18.398437 106.808594c-3.378907 19.621094 2.65625 40.101562 16.152343 54.792969l.539063.570312c1.261718 1.316407 2.257812 2.300781 3.234375 3.199219l.367187.339844c.234375.214844.464844.433594.714844.65625 1.550781 1.367187 2.898438 2.464844 4.234375 3.457031l3.953125 2.933594c14.152344 10.496093 31.648438 16.277343 49.273438 16.277343h74.945312c19.292969 0 38.082031-6.796874 52.910156-19.140624 1.222656-1.015626 2.460938-2.144532 3.902344-3.550782l.878906-.898437c.941406-.960938 1.898438-2.011719 3.171875-3.46875l.328125-.382813c12.203125-14.621094 17.347656-33.746094 14.121094-52.476562zm-18.726562 48.632812-.308594.359375c-.929688 1.070313-1.875 2.125-2.867188 3.140625l-.796875.808594c-1.3125 1.289062-2.4375 2.3125-3.539062 3.222656-13.75 11.449219-31.179688 17.753906-49.070313 17.753906h-74.945312c-16.34375 0-32.574219-5.363281-45.699219-15.097656l-3.957031-2.933594c-1.199219-.886718-2.417969-1.886718-3.828125-3.128906l-1.007813-.925781c-.875-.800781-1.785156-1.707031-2.949218-2.921875l-.464844-.488281c-12.242188-13.328125-17.71875-31.910157-14.652344-49.707031l17.96875-104.320313h180.558594l18.367187 106.625c2.929688 16.992187-1.738281 34.34375-12.808593 47.613281zm0 0" fill="#3a312a"/><path d="m96.253906 29.765625c-17.839844 0-32.296875 14.460937-32.296875 32.296875 0 17.839844 14.457031 32.300781 32.296875 32.300781s32.296875-14.460937 32.296875-32.300781c0-17.835938-14.460937-32.296875-32.296875-32.296875zm0 0" fill="#8ac6dd"/><path d="m96.253906 26.765625c-19.464844 0-35.296875 15.835937-35.296875 35.296875 0 19.464844 15.832031 35.300781 35.296875 35.300781 19.460938 0 35.296875-15.835937 35.296875-35.300781 0-19.460938-15.835937-35.296875-35.296875-35.296875zm0 64.597656c-16.15625 0-29.296875-13.144531-29.296875-29.300781 0-16.152344 13.140625-29.296875 29.296875-29.296875 16.152344 0 29.296875 13.140625 29.296875 29.296875s-13.144531 29.300781-29.296875 29.300781zm0 0" fill="#3a312a"/><path d="m42.765625 53.042969c-17.359375-4.097657-34.757813 6.652343-38.855469 24.011719-4.097656 17.359374 6.648438 34.753906 24.011719 38.851562 17.359375 4.101562 34.753906-6.648438 38.851563-24.007812 4.101562-17.359376-6.648438-34.757813-24.007813-38.855469zm0 0" fill="#8ac6dd"/><path d="m35.34375 49.167969c-19.464844 0-35.3007812 15.835937-35.3007812 35.296875 0 19.460937 15.8359372 35.296875 35.3007812 35.296875 19.460938 0 35.292969-15.835938 35.292969-35.296875.003906-19.460938-15.832031-35.296875-35.292969-35.296875zm0 64.59375c-16.15625 0-29.300781-13.140625-29.300781-29.296875s13.144531-29.296875 29.300781-29.296875c16.152344 0 29.292969 13.140625 29.292969 29.296875.003906 16.15625-13.140625 29.296875-29.292969 29.296875zm0 0" fill="#3a312a"/><path d="m70.839844 5.800781c-16.480469-6.824219-35.371094 1-42.199219 17.480469s1 35.375 17.480469 42.199219c16.480468 6.828125 35.375-.996094 42.199218-17.476563 6.828126-16.480468-1-35.375-17.480468-42.203125zm0 0" fill="#8ac6dd"/><path d="m58.476562.347656c-19.460937 0-35.296874 15.832032-35.296874 35.292969 0 19.464844 15.835937 35.296875 35.296874 35.296875 19.460938 0 35.296876-15.832031 35.296876-35.292969 0-19.464843-15.835938-35.296875-35.296876-35.296875zm0 64.59375c-16.15625 0-29.296874-13.144531-29.296874-29.296875 0-16.15625 13.140624-29.296875 29.296874-29.296875s29.296876 13.140625 29.296876 29.296875c0 16.152344-13.140626 29.296875-29.296876 29.296875zm0 0" fill="#3a312a"/><path d="m222.828125 46.089844h-42.027344c-1.65625 0-3 1.34375-3 3 0 1.652344 1.34375 3 3 3h42.027344c1.65625 0 3-1.347656 3-3 0-1.65625-1.339844-3-3-3zm0 0" fill="#3a312a"/><path d="m237.308594 63.65625c-1.101563-6.398438-6.421875-11.097656-12.800782-11.519531l-12.519531 33.222656 3.519531 20.398437h29.058594zm0 0" fill="#decaad"/><path d="m263.964844 218.398438-18.378906-106.640626h-29.039063l18.359375 106.640626c2.941406 16.980468-1.742188 34.339843-12.800781 47.597656l-.320313.363281c-.917968 1.078125-1.878906 2.136719-2.859375 3.136719l-.800781.820312c-1.320312 1.28125-2.4375 2.300782-3.539062 3.222656-13.761719 11.4375-31.179688 17.757813-49.058594 17.757813h29.039062c17.878906 0 35.320313-6.320313 49.078125-17.757813 1.101563-.921874 2.222657-1.941406 3.519531-3.222656l.820313-.820312c.980469-1 1.921875-2.058594 2.863281-3.136719l.296875-.363281c11.082031-13.257813 15.742188-30.617188 12.820313-47.597656zm0 0" fill="#68a8bc"/></svg>