<svg height="452pt" viewBox="-36 0 451 452" width="452pt" xmlns="http://www.w3.org/2000/svg"><path d="m65.320312 22.542969c-1.949218 23.125-26.046874 26.777343-26.046874 26.777343 20.691406.972657 25.847656 28.117188 25.847656 28.117188.441406-19.351562 26.644531-28.402344 26.644531-28.402344-19.628906-1.175781-26.445313-26.492187-26.445313-26.492187zm0 0" fill="#d7e057"/><path d="m91.945312 46.039062c-17.210937-1.027343-23.664062-24.046874-23.726562-24.28125-.378906-1.402343-1.707031-2.320312-3.167969-2.203124-1.449219.132812-2.597656 1.285156-2.71875 2.734374-1.71875 20.429688-22.625 23.925782-23.511719 24.0625-1.523437.234376-2.625 1.582032-2.542968 3.121094.078125 1.542969 1.3125 2.769532 2.855468 2.84375 18.054688.847656 22.996094 25.4375 23.042969 25.6875.277344 1.421875 1.519531 2.433594 2.945313 2.433594.085937 0 .167968-.003906.253906-.011719 1.527344-.128906 2.714844-1.386719 2.75-2.917969.386719-17.019531 24.382812-25.554687 24.625-25.640624 1.351562-.46875 2.183594-1.828126 1.984375-3.242188-.195313-1.417969-1.363281-2.5-2.789063-2.585938zm-27.132812 20.691407c-2.710938-6.261719-7.417969-13.816407-15.175781-17.753907 5.863281-2.808593 12.820312-7.828124 16.40625-16.546874 3.101562 6.140624 8.398437 13.761718 16.667969 17.445312-6.015626 3.28125-13.847657 8.8125-17.898438 16.855469zm0 0" fill="#3a312a"/><path d="m21.925781 56.503906c-1.378906 16.355469-18.425781 18.9375-18.425781 18.9375 14.632812.6875 18.28125 19.886719 18.28125 19.886719.3125-13.6875 18.84375-20.089844 18.84375-20.089844-13.882812-.828125-18.699219-18.734375-18.699219-18.734375zm0 0" fill="#d7e057"/><path d="m40.804688 72.246094c-11.53125-.691406-15.941407-16.371094-15.988282-16.53125-.375-1.402344-1.71875-2.324219-3.160156-2.203125-1.453125.128906-2.601562 1.285156-2.722656 2.734375-1.15625 13.742187-15.292969 16.132812-15.882813 16.226562-1.523437.234375-2.625 1.582032-2.546875 3.125.082032 1.539063 1.3125 2.769532 2.855469 2.839844 12.070313.570312 15.445313 17.289062 15.476563 17.453125.273437 1.425781 1.519531 2.4375 2.945312 2.4375.082031 0 .167969-.003906.25-.007813 1.53125-.125 2.71875-1.386718 2.753906-2.921874.257813-11.417969 16.660156-17.265626 16.824219-17.324219 1.351563-.464844 2.183594-1.824219 1.992187-3.242188-.199218-1.417969-1.367187-2.503906-2.796874-2.585937zm-19.167969 13.589844c-1.847657-3.773438-4.679688-7.894532-8.894531-10.558594 3.710937-2.082032 7.394531-5.257813 9.742187-9.832032 2.117187 3.746094 5.308594 7.90625 9.882813 10.445313-3.699219 2.203125-7.976563 5.480469-10.730469 9.945313zm0 0" fill="#3a312a"/><path d="m21.925781 3.1875c-1.378906 16.355469-18.425781 18.941406-18.425781 18.941406 14.632812.6875 18.28125 19.886719 18.28125 19.886719.3125-13.691406 18.84375-20.089844 18.84375-20.089844-13.882812-.832031-18.699219-18.738281-18.699219-18.738281zm0 0" fill="#d7e057"/><path d="m40.804688 18.933594c-11.53125-.695313-15.941407-16.375-15.988282-16.535156-.375-1.402344-1.71875-2.3242192-3.160156-2.203126-1.453125.128907-2.601562 1.285157-2.722656 2.738282-1.15625 13.742187-15.292969 16.128906-15.882813 16.222656-1.523437.234375-2.625 1.582031-2.546875 3.125.082032 1.539062 1.3125 2.769531 2.855469 2.839844 12.070313.570312 15.445313 17.289062 15.476563 17.453125.273437 1.429687 1.519531 2.441406 2.945312 2.441406.082031 0 .167969-.003906.25-.007813 1.53125-.128906 2.71875-1.386718 2.753906-2.921874.257813-11.417969 16.660156-17.269532 16.824219-17.324219 1.351563-.46875 2.183594-1.824219 1.992187-3.242188-.199218-1.417969-1.367187-2.5-2.796874-2.585937zm-19.167969 13.589844c-1.847657-3.777344-4.679688-7.894532-8.894531-10.5625 3.710937-2.082032 7.394531-5.257813 9.742187-9.832032 2.117187 3.746094 5.308594 7.910156 9.882813 10.449219-3.699219 2.199219-7.976563 5.476563-10.730469 9.945313zm0 0" fill="#3a312a"/><path d="m99.269531 134v286c0 16.019531 12.980469 29 29 29h218.640625c16.019532 0 29-12.980469 29-29v-286zm0 0" fill="#8ac6dd"/><path d="m375.910156 131h-276.640625c-1.65625 0-3 1.34375-3 3v54.445312c0 1.65625 1.34375 3 3 3s3-1.34375 3-3v-51.445312h270.636719v283c0 14.335938-11.664062 26-26 26h-218.636719c-14.335937 0-26-11.664062-26-26v-200.445312c0-1.65625-1.34375-3-3-3s-3 1.34375-3 3v200.445312c0 17.644531 14.355469 32 32 32h218.636719c17.644531 0 32-14.355469 32-32v-286c.003906-1.65625-1.339844-3-2.996094-3zm0 0" fill="#3a312a"/><path d="m354.839844 43.558594h-234.417969l-21.15625 90.441406h276.648437zm0 0" fill="#d7e057"/><path d="m378.835938 133.316406-21.074219-90.4375c-.316407-1.359375-1.53125-2.320312-2.921875-2.320312h-234.417969c-1.394531 0-2.605469.960937-2.921875 2.316406l-21.15625 90.441406c-.210938.890625 0 1.828125.570312 2.546875.566407.714844 1.433594 1.132813 2.351563 1.132813h276.644531c.917969 0 1.785156-.417969 2.351563-1.132813.570312-.714843.78125-1.652343.574219-2.546875zm-275.789063-2.316406 19.753906-84.441406h229.65625l19.675781 84.441406zm0 0" fill="#3a312a"/><path d="m333.171875 3h-191.164063c-11.917968 0-21.578124 9.660156-21.578124 21.582031v18.980469h234.324218v-18.980469c0-11.921875-9.664062-21.582031-21.582031-21.582031zm0 0" fill="#d7e057"/><path d="m333.171875 0h-28.523437c-1.65625 0-3 1.34375-3 3s1.34375 3 3 3h28.523437c10.242187 0 18.578125 8.335938 18.578125 18.582031v15.976563h-228.324219v-15.976563c0-10.246093 8.335938-18.582031 18.582031-18.582031h132.519532c1.65625 0 3-1.34375 3-3s-1.34375-3-3-3h-132.519532c-13.554687 0-24.582031 11.027344-24.582031 24.582031v18.976563c0 1.65625 1.34375 3 3 3h234.324219c1.65625 0 3-1.34375 3-3v-18.976563c.003906-13.554687-11.027344-24.582031-24.578125-24.582031zm0 0" fill="#3a312a"/><path d="m327.371094 292.664062c0 48.417969-39.25 87.667969-87.664063 87.667969-48.417969 0-87.667969-39.25-87.667969-87.667969 0-48.414062 39.25-87.664062 87.667969-87.664062 48.414063 0 87.664063 39.25 87.664063 87.664062zm0 0" fill="#fce8cb"/><path d="m239.707031 202c-49.996093 0-90.667969 40.671875-90.667969 90.664062 0 49.996094 40.671876 90.671876 90.667969 90.671876 49.992188 0 90.664063-40.675782 90.664063-90.671876 0-49.992187-40.671875-90.664062-90.664063-90.664062zm0 175.335938c-46.6875 0-84.667969-37.984376-84.667969-84.671876 0-46.683593 37.980469-84.664062 84.667969-84.664062 46.683594 0 84.664063 37.980469 84.664063 84.664062 0 46.6875-37.980469 84.671876-84.664063 84.671876zm0 0" fill="#3a312a"/><path d="m295.945312 256.660156c-3.238281-14.390625-17.53125-23.433594-31.921874-20.199218-14.402344 3.238281-23.4375 17.53125-20.199219 31.921874 2.460937 10.9375-3.925781 18.445313-6.785157 21.167969-.003906.003907-.003906.003907-.007812.007813-2.875 2.730468-10.714844 8.738281-21.539062 5.726562-14.207032-3.960937-28.941407 4.351563-32.894532 18.566406-3.957031 14.207032 4.355469 28.9375 18.566406 32.890626 25.78125 7.183593 52.945313.28125 72.664063-18.457032.007813-.007812.015625-.015625.019531-.019531 19.707032-18.742187 27.964844-45.507813 22.097656-71.605469zm0 0" fill="#d7e057"/><path d="m298.871094 256.003906c-3.597656-15.984375-19.527344-26.050781-35.503906-22.46875-7.746094 1.742188-14.351563 6.394532-18.59375 13.101563-4.242188 6.707031-5.621094 14.664062-3.875 22.402343 2.125 9.441407-3.4375 15.96875-5.933594 18.34375s-9.3125 7.609376-18.667969 5.011719c-7.644531-2.128906-15.660156-1.152343-22.570313 2.746094-6.914062 3.898437-11.890624 10.257813-14.019531 17.90625-2.125 7.644531-1.152343 15.660156 2.746094 22.570313 3.902344 6.910156 10.261719 11.890624 17.90625 14.019531 6.984375 1.941406 14.058594 2.894531 21.074219 2.894531 19.90625 0 39.289062-7.664062 54.4375-22.050781.015625-.015625.03125-.03125.046875-.042969 20.476562-19.476562 29.058593-47.300781 22.953125-74.433594zm-27.035156 70.039063c-.027344.019531-.050782.042969-.070313.0625-18.945313 18.003906-45.035156 24.636719-69.792969 17.746093-6.101562-1.699218-11.175781-5.671874-14.289062-11.1875-3.113282-5.515624-3.890625-11.910156-2.191406-18.011718 1.699218-6.101563 5.667968-11.179688 11.1875-14.289063 3.605468-2.039062 7.585937-3.074219 11.613281-3.074219 2.136719 0 4.285156.292969 6.398437.882813 12.3125 3.417969 21.171875-3.371094 24.417969-6.453125 3.230469-3.074219 10.441406-11.5625 7.644531-24.003906-1.390625-6.175782-.292968-12.523438 3.09375-17.875 3.382813-5.355469 8.652344-9.066406 14.835938-10.453125 12.742187-2.875 25.464844 5.171875 28.335937 17.925781 5.625 25.015625-2.273437 50.675781-21.183593 68.730469zm0 0" fill="#3a312a"/><path d="m335.046875 137v283c0 14.339844-11.660156 26-26 26h37.859375c14.339844 0 26-11.660156 26-26v-283zm0 0" fill="#68a8bc"/><g fill="#b9c239"><path d="m352.464844 46.558594h-37.878906l19.679687 84.441406h37.859375zm0 0"/><path d="m333.167969 6h-28.523438c-1.660156 0-3-1.339844-3-3 0 0-.164062 3.804688 2.453125 5.21875 5.820313 3.140625 9.789063 9.300781 9.789063 16.359375v15.980469h37.859375v-15.980469c0-10.238281-8.339844-18.578125-18.578125-18.578125zm0 0"/></g></svg>