<svg height="451pt" viewBox="-82 0 451 451.776" width="451pt" xmlns="http://www.w3.org/2000/svg"><path d="m65.210938 53.175781c-1.949219 23.125-26.050782 26.777344-26.050782 26.777344 20.695313.976563 25.851563 28.117187 25.851563 28.117187.441406-19.351562 26.640625-28.402343 26.640625-28.402343-19.625-1.175781-26.441406-26.492188-26.441406-26.492188zm0 0" fill="#d7e057"/><path d="m91.832031 76.675781c-17.210937-1.03125-23.664062-24.050781-23.726562-24.285156-.382813-1.402344-1.722657-2.324219-3.167969-2.199219-1.453125.128906-2.597656 1.28125-2.71875 2.734375-1.71875 20.429688-22.625 23.925781-23.507812 24.0625-1.527344.230469-2.625 1.582031-2.546876 3.121094.078126 1.542969 1.3125 2.769531 2.855469 2.84375 18.054688.847656 22.996094 25.433594 23.042969 25.683594.277344 1.421875 1.519531 2.433593 2.945312 2.433593.085938 0 .167969-.003906.253907-.011718 1.527343-.125 2.710937-1.382813 2.75-2.917969.386719-17.019531 24.382812-25.554687 24.625-25.636719 1.347656-.46875 2.183593-1.828125 1.988281-3.246094-.195312-1.417968-1.363281-2.5-2.792969-2.582031zm-27.132812 20.6875c-2.710938-6.261719-7.417969-13.8125-15.171875-17.753906 5.859375-2.808594 12.816406-7.824219 16.402344-16.542969 3.101562 6.140625 8.402343 13.757813 16.667968 17.445313-6.011718 3.277343-13.84375 8.808593-17.898437 16.851562zm0 0" fill="#3a312a"/><path d="m21.8125 87.136719c-1.378906 16.355469-18.425781 18.941406-18.425781 18.941406 14.636719.6875 18.285156 19.886719 18.285156 19.886719.3125-13.6875 18.84375-20.089844 18.84375-20.089844-13.882813-.832031-18.703125-18.738281-18.703125-18.738281zm0 0" fill="#d7e057"/><path d="m40.695312 102.878906c-11.535156-.6875-15.945312-16.371094-15.988281-16.527344-.382812-1.40625-1.710937-2.335937-3.164062-2.203124-1.453125.128906-2.597657 1.285156-2.722657 2.734374-1.15625 13.742188-15.289062 16.132813-15.882812 16.226563-1.527344.234375-2.625 1.582031-2.546875 3.121094.082031 1.542969 1.316406 2.773437 2.859375 2.84375 12.066406.566406 15.445312 17.289062 15.476562 17.453125.269532 1.421875 1.515626 2.4375 2.945313 2.4375.082031 0 .164063-.003906.25-.007813 1.527344-.128906 2.714844-1.386719 2.75-2.921875.261719-11.417968 16.664063-17.269531 16.828125-17.324218 1.351562-.46875 2.1875-1.828126 1.988281-3.246094-.195312-1.417969-1.363281-2.5-2.792969-2.585938zm-19.167968 13.589844c-1.847656-3.769531-4.679688-7.894531-8.894532-10.558594 3.710938-2.082031 7.394532-5.257812 9.742188-9.832031 2.113281 3.746094 5.308594 7.910156 9.882812 10.449219-3.703124 2.199218-7.980468 5.480468-10.730468 9.941406zm0 0" fill="#3a312a"/><path d="m21.8125 33.820312c-1.378906 16.359376-18.425781 18.941407-18.425781 18.941407 14.636719.6875 18.285156 19.886719 18.285156 19.886719.3125-13.6875 18.84375-20.089844 18.84375-20.089844-13.882813-.832032-18.703125-18.738282-18.703125-18.738282zm0 0" fill="#d7e057"/><path d="m40.695312 49.566406c-11.535156-.691406-15.945312-16.371094-15.988281-16.53125-.382812-1.402344-1.710937-2.320312-3.164062-2.203125-1.453125.132813-2.597657 1.285157-2.722657 2.734375-1.15625 13.742188-15.289062 16.132813-15.882812 16.226563-1.527344.230469-2.625 1.582031-2.546875 3.117187.082031 1.542969 1.316406 2.773438 2.855469 2.84375 12.070312.566406 15.449218 17.289063 15.476562 17.453125.269532 1.425781 1.519532 2.441407 2.945313 2.441407.082031 0 .167969-.003907.25-.011719 1.53125-.125 2.714843-1.382813 2.753906-2.921875.261719-11.414063 16.664063-17.265625 16.824219-17.320313 1.355468-.46875 2.1875-1.828125 1.992187-3.246093-.195312-1.414063-1.363281-2.5-2.792969-2.582032zm-19.167968 13.589844c-1.847656-3.773438-4.679688-7.894531-8.894532-10.558594 3.710938-2.082031 7.394532-5.261718 9.742188-9.832031 2.113281 3.746094 5.308594 7.90625 9.882812 10.445313-3.703124 2.199218-7.980468 5.480468-10.730468 9.945312zm0 0" fill="#3a312a"/><path d="m228.09375 2.996094h-91.59375c-10.722656 0-19.414062 8.695312-19.414062 19.414062 0 10.722656 8.691406 19.414063 19.414062 19.414063h91.59375c10.71875 0 19.414062-8.691407 19.414062-19.414063 0-10.71875-8.691406-19.414062-19.414062-19.414062zm0 0" fill="#87796f"/><path d="m228.09375 0h-53.414062c-1.660157 0-3 1.34375-3 3s1.339843 3 3 3h53.414062c9.050781 0 16.414062 7.363281 16.414062 16.414062 0 9.050782-7.363281 16.414063-16.414062 16.414063h-91.59375c-9.050781 0-16.414062-7.363281-16.414062-16.414063 0-9.050781 7.363281-16.414062 16.414062-16.414062h8.082031c1.65625 0 3-1.34375 3-3s-1.34375-3-3-3h-8.082031c-12.359375 0-22.414062 10.054688-22.414062 22.414062 0 12.359376 10.054687 22.414063 22.414062 22.414063h91.59375c12.359375 0 22.414062-10.054687 22.414062-22.414063 0-12.359374-10.054687-22.414062-22.414062-22.414062zm0 0" fill="#3a312a"/><path d="m256.265625 166.089844c-17.828125-12.613282-28.421875-33.09375-28.421875-54.925782v-69.335937h-91.089844v69.332031c0 21.835938-10.597656 42.3125-28.421875 54.925782-17.828125 12.613281-28.425781 33.089843-28.425781 54.925781v194.839843c0 18.179688 14.742188 32.921876 32.925781 32.921876h138.933594c18.179687 0 32.921875-14.742188 32.921875-32.921876v-194.839843c-.003906-21.832031-10.597656-42.3125-28.421875-54.921875zm0 0" fill="#fce8cb"/><path d="m257.996094 163.636719c-17.003906-12.027344-27.152344-31.644531-27.152344-52.472657v-69.335937c0-1.65625-1.34375-3-3-3h-91.089844c-1.660156 0-3 1.34375-3 3v69.335937c0 20.828126-10.152344 40.445313-27.15625 52.472657-18.589844 13.15625-29.691406 34.605469-29.691406 57.378906v150.269531c0 1.65625 1.34375 3 3 3 1.660156 0 3-1.34375 3-3v-150.269531c0-20.828125 10.152344-40.449219 27.15625-52.476563 18.589844-13.152343 29.6875-34.601562 29.6875-57.375v-66.335937h85.089844v66.335937c0 22.773438 11.097656 44.21875 29.691406 57.375 17 12.03125 27.152344 31.648438 27.152344 52.476563v194.839844c0 16.496093-13.421875 29.921875-29.921875 29.921875h-138.933594c-16.5 0-29.921875-13.425782-29.921875-29.921875v-13.351563c0-1.65625-1.34375-3-3-3s-3 1.34375-3 3v13.351563c0 19.804687 16.113281 35.921875 35.921875 35.921875h138.933594c19.808593 0 35.921875-16.117188 35.921875-35.921875v-194.839844c.003906-22.773437-11.097656-44.222656-29.6875-57.378906zm0 0" fill="#3a312a"/><path d="m256.257812 166.09375c-17.820312-12.621094-28.421874-33.101562-28.421874-54.941406v-31.257813h-91.078126v31.257813c0 21.839844-10.601562 42.320312-28.421874 54.941406-17.839844 12.601562-28.417969 33.082031-28.417969 54.921875v194.839844c0 18.179687 14.738281 32.917969 32.917969 32.917969h138.921874c18.179688 0 32.917969-14.738282 32.917969-32.917969v-194.839844c0-21.839844-10.578125-42.324219-28.417969-54.921875zm0 0" fill="#d7e057"/><path d="m257.988281 163.644531c-17-12.039062-27.152343-31.664062-27.152343-52.492187v-31.257813c0-1.65625-1.34375-3-3-3h-91.078126c-1.660156 0-3 1.34375-3 3v31.257813c0 20.828125-10.152343 40.453125-27.152343 52.488281-18.589844 13.132813-29.6875 34.578125-29.6875 57.375v150.269531c0 1.65625 1.339843 3 3 3 1.65625 0 3-1.34375 3-3v-150.269531c0-20.851563 10.148437-40.464844 27.152343-52.472656 18.585938-13.164063 29.6875-34.617188 29.6875-57.386719v-28.261719h85.078126v28.261719c0 22.773438 11.097656 44.222656 29.691406 57.390625 17 12.003906 27.148437 31.621094 27.148437 52.46875v194.839844c0 16.496093-13.421875 29.917969-29.917969 29.917969h-138.921874c-16.496094 0-29.917969-13.421876-29.917969-29.917969v-13.351563c0-1.65625-1.34375-3-3-3-1.660157 0-3 1.34375-3 3v13.351563c0 19.804687 16.113281 35.917969 35.917969 35.917969h138.921874c19.804688 0 35.917969-16.113282 35.917969-35.917969v-194.839844c0-22.796875-11.097656-44.242187-29.6875-57.371094zm0 0" fill="#3a312a"/><path d="m239.234375 248.113281c-14.359375-14.960937-34.558594-24.300781-56.9375-24.300781s-42.582031 9.339844-56.941406 24.300781h-45.4375v109.199219h45.4375c14.359375 14.980469 34.5625 24.320312 56.941406 24.320312s42.578125-9.339843 56.9375-24.320312h45.441406v-109.199219zm0 0" fill="#f16c7a"/><path d="m284.675781 245.113281h-44.171875c-15.515625-15.683593-36.132812-24.300781-58.207031-24.300781-22.070313 0-42.6875 8.621094-58.203125 24.300781h-44.175781c-1.660157 0-3 1.34375-3 3v109.199219c0 1.65625 1.339843 3 3 3h44.171875c15.507812 15.695312 36.125 24.320312 58.207031 24.320312 22.078125 0 42.695313-8.625 58.207031-24.320312h44.171875c1.660157 0 3-1.34375 3-3v-109.199219c0-1.65625-1.339843-3-3-3zm-3 109.199219h-42.441406c-.816406 0-1.597656.335938-2.164063.925781-14.460937 15.085938-33.917968 23.394531-54.773437 23.394531-20.859375 0-40.3125-8.308593-54.773437-23.394531-.566407-.589843-1.347657-.925781-2.167969-.925781h-42.4375v-103.199219h42.4375c.820312 0 1.597656-.335937 2.164062-.921875 14.472657-15.074218 33.925781-23.378906 54.777344-23.378906s40.304687 8.304688 54.773437 23.378906c.566407.585938 1.347657.921875 2.164063.921875h42.441406zm0 0" fill="#3a312a"/><path d="m232.152344 287.519531c-8.398438-27.539062-37.535156-43.058593-65.074219-34.660156-27.542969 8.398437-43.058594 37.535156-34.660156 65.074219 8.398437 27.539062 37.535156 43.058594 65.074219 34.660156 27.539062-8.398438 43.058593-37.535156 34.660156-65.074219zm0 0" fill="#fce8cb"/><path d="m182.296875 247.582031c-30.402344 0-55.136719 24.730469-55.136719 55.132813s24.734375 55.136718 55.136719 55.136718c30.398437 0 55.132813-24.734374 55.132813-55.136718.003906-30.402344-24.730469-55.132813-55.132813-55.132813zm0 104.269531c-27.09375 0-49.136719-22.042968-49.136719-49.136718s22.042969-49.132813 49.136719-49.132813c27.089844 0 49.132813 22.039063 49.132813 49.132813.003906 27.09375-22.039063 49.136718-49.132813 49.136718zm0 0" fill="#3a312a"/><path d="m228.097656 5.992188h-33c9.039063 0 16.398438 7.359374 16.398438 16.417968 0 9.0625-7.359375 16.421875-16.398438 16.421875h33c9.039063 0 16.417969-7.359375 16.417969-16.421875 0-9.058594-7.378906-16.417968-16.417969-16.417968zm0 0" fill="#695b51"/><path d="m191.835938 44.832031h33v32.058594h-33zm0 0" fill="#decaad"/><path d="m248.675781 360.3125v55.539062c0 16.5-13.417969 29.921876-29.917969 29.921876h33c16.5 0 29.917969-13.421876 29.917969-29.921876v-55.539062zm0 0" fill="#b9c239"/><path d="m254.515625 168.554688c-18.578125-13.179688-29.679687-34.640626-29.679687-57.402344v-28.257813h-33v28.257813c0 22.761718 11.101562 44.222656 29.679687 57.402344 17 12 27.160156 31.621093 27.160156 52.460937v24.097656h33v-24.097656c0-20.839844-10.140625-40.460937-27.160156-52.460937zm0 0" fill="#b9c239"/><path d="m248.675781 251.113281h33v103.199219h-33zm0 0" fill="#d34e5c"/></svg>